G04 #@! TF.GenerationSoftware,KiCad,Pcbnew,(5.0.1-3-g963ef8bb5)*
G04 #@! TF.CreationDate,2019-04-11T07:51:52+01:00*
G04 #@! TF.ProjectId,invitation,696E7669746174696F6E2E6B69636164,rev?*
G04 #@! TF.SameCoordinates,Original*
G04 #@! TF.FileFunction,Legend,Bot*
G04 #@! TF.FilePolarity,Positive*
%FSLAX46Y46*%
G04 Gerber Fmt 4.6, Leading zero omitted, Abs format (unit mm)*
G04 Created by KiCad (PCBNEW (5.0.1-3-g963ef8bb5)) date Thursday, 11 April 2019 at 07:51:52*
%MOMM*%
%LPD*%
G01*
G04 APERTURE LIST*
%ADD10C,0.150000*%
%ADD11C,0.250000*%
%ADD12C,0.350000*%
%ADD13C,0.127000*%
%ADD14C,0.200000*%
%ADD15C,0.120000*%
%ADD16C,0.010000*%
G04 APERTURE END LIST*
D10*
X195684404Y-100658380D02*
X195684404Y-99658380D01*
X195303452Y-99658380D01*
X195208214Y-99706000D01*
X195160595Y-99753619D01*
X195112976Y-99848857D01*
X195112976Y-99991714D01*
X195160595Y-100086952D01*
X195208214Y-100134571D01*
X195303452Y-100182190D01*
X195684404Y-100182190D01*
X194541547Y-100658380D02*
X194636785Y-100610761D01*
X194684404Y-100515523D01*
X194684404Y-99658380D01*
X193732023Y-99991714D02*
X193732023Y-100658380D01*
X194160595Y-99991714D02*
X194160595Y-100515523D01*
X194112976Y-100610761D01*
X194017738Y-100658380D01*
X193874880Y-100658380D01*
X193779642Y-100610761D01*
X193732023Y-100563142D01*
X192827261Y-99991714D02*
X192827261Y-100801238D01*
X192874880Y-100896476D01*
X192922500Y-100944095D01*
X193017738Y-100991714D01*
X193160595Y-100991714D01*
X193255833Y-100944095D01*
X192827261Y-100610761D02*
X192922500Y-100658380D01*
X193112976Y-100658380D01*
X193208214Y-100610761D01*
X193255833Y-100563142D01*
X193303452Y-100467904D01*
X193303452Y-100182190D01*
X193255833Y-100086952D01*
X193208214Y-100039333D01*
X193112976Y-99991714D01*
X192922500Y-99991714D01*
X192827261Y-100039333D01*
X191732023Y-99991714D02*
X191351071Y-99991714D01*
X191589166Y-99658380D02*
X191589166Y-100515523D01*
X191541547Y-100610761D01*
X191446309Y-100658380D01*
X191351071Y-100658380D01*
X191017738Y-100658380D02*
X191017738Y-99658380D01*
X190589166Y-100658380D02*
X190589166Y-100134571D01*
X190636785Y-100039333D01*
X190732023Y-99991714D01*
X190874880Y-99991714D01*
X190970119Y-100039333D01*
X191017738Y-100086952D01*
X190112976Y-100658380D02*
X190112976Y-99991714D01*
X190112976Y-99658380D02*
X190160595Y-99706000D01*
X190112976Y-99753619D01*
X190065357Y-99706000D01*
X190112976Y-99658380D01*
X190112976Y-99753619D01*
X189684404Y-100610761D02*
X189589166Y-100658380D01*
X189398690Y-100658380D01*
X189303452Y-100610761D01*
X189255833Y-100515523D01*
X189255833Y-100467904D01*
X189303452Y-100372666D01*
X189398690Y-100325047D01*
X189541547Y-100325047D01*
X189636785Y-100277428D01*
X189684404Y-100182190D01*
X189684404Y-100134571D01*
X189636785Y-100039333D01*
X189541547Y-99991714D01*
X189398690Y-99991714D01*
X189303452Y-100039333D01*
X187636785Y-100610761D02*
X187732023Y-100658380D01*
X187922500Y-100658380D01*
X188017738Y-100610761D01*
X188065357Y-100563142D01*
X188112976Y-100467904D01*
X188112976Y-100182190D01*
X188065357Y-100086952D01*
X188017738Y-100039333D01*
X187922500Y-99991714D01*
X187732023Y-99991714D01*
X187636785Y-100039333D01*
X186779642Y-100658380D02*
X186779642Y-100134571D01*
X186827261Y-100039333D01*
X186922500Y-99991714D01*
X187112976Y-99991714D01*
X187208214Y-100039333D01*
X186779642Y-100610761D02*
X186874880Y-100658380D01*
X187112976Y-100658380D01*
X187208214Y-100610761D01*
X187255833Y-100515523D01*
X187255833Y-100420285D01*
X187208214Y-100325047D01*
X187112976Y-100277428D01*
X186874880Y-100277428D01*
X186779642Y-100229809D01*
X186303452Y-100658380D02*
X186303452Y-99991714D01*
X186303452Y-100182190D02*
X186255833Y-100086952D01*
X186208214Y-100039333D01*
X186112976Y-99991714D01*
X186017738Y-99991714D01*
X185255833Y-100658380D02*
X185255833Y-99658380D01*
X185255833Y-100610761D02*
X185351071Y-100658380D01*
X185541547Y-100658380D01*
X185636785Y-100610761D01*
X185684404Y-100563142D01*
X185732023Y-100467904D01*
X185732023Y-100182190D01*
X185684404Y-100086952D01*
X185636785Y-100039333D01*
X185541547Y-99991714D01*
X185351071Y-99991714D01*
X185255833Y-100039333D01*
X184017738Y-100658380D02*
X184017738Y-99991714D01*
X184017738Y-99658380D02*
X184065357Y-99706000D01*
X184017738Y-99753619D01*
X183970119Y-99706000D01*
X184017738Y-99658380D01*
X184017738Y-99753619D01*
X183541547Y-99991714D02*
X183541547Y-100658380D01*
X183541547Y-100086952D02*
X183493928Y-100039333D01*
X183398690Y-99991714D01*
X183255833Y-99991714D01*
X183160595Y-100039333D01*
X183112976Y-100134571D01*
X183112976Y-100658380D01*
X182779642Y-99991714D02*
X182398690Y-99991714D01*
X182636785Y-99658380D02*
X182636785Y-100515523D01*
X182589166Y-100610761D01*
X182493928Y-100658380D01*
X182398690Y-100658380D01*
X181922500Y-100658380D02*
X182017738Y-100610761D01*
X182065357Y-100563142D01*
X182112976Y-100467904D01*
X182112976Y-100182190D01*
X182065357Y-100086952D01*
X182017738Y-100039333D01*
X181922500Y-99991714D01*
X181779642Y-99991714D01*
X181684404Y-100039333D01*
X181636785Y-100086952D01*
X181589166Y-100182190D01*
X181589166Y-100467904D01*
X181636785Y-100563142D01*
X181684404Y-100610761D01*
X181779642Y-100658380D01*
X181922500Y-100658380D01*
X179970119Y-100658380D02*
X179970119Y-100134571D01*
X180017738Y-100039333D01*
X180112976Y-99991714D01*
X180303452Y-99991714D01*
X180398690Y-100039333D01*
X179970119Y-100610761D02*
X180065357Y-100658380D01*
X180303452Y-100658380D01*
X180398690Y-100610761D01*
X180446309Y-100515523D01*
X180446309Y-100420285D01*
X180398690Y-100325047D01*
X180303452Y-100277428D01*
X180065357Y-100277428D01*
X179970119Y-100229809D01*
X178732023Y-99658380D02*
X178732023Y-100467904D01*
X178684404Y-100563142D01*
X178636785Y-100610761D01*
X178541547Y-100658380D01*
X178351071Y-100658380D01*
X178255833Y-100610761D01*
X178208214Y-100563142D01*
X178160595Y-100467904D01*
X178160595Y-99658380D01*
X177732023Y-100610761D02*
X177589166Y-100658380D01*
X177351071Y-100658380D01*
X177255833Y-100610761D01*
X177208214Y-100563142D01*
X177160595Y-100467904D01*
X177160595Y-100372666D01*
X177208214Y-100277428D01*
X177255833Y-100229809D01*
X177351071Y-100182190D01*
X177541547Y-100134571D01*
X177636785Y-100086952D01*
X177684404Y-100039333D01*
X177732023Y-99944095D01*
X177732023Y-99848857D01*
X177684404Y-99753619D01*
X177636785Y-99706000D01*
X177541547Y-99658380D01*
X177303452Y-99658380D01*
X177160595Y-99706000D01*
X176398690Y-100134571D02*
X176255833Y-100182190D01*
X176208214Y-100229809D01*
X176160595Y-100325047D01*
X176160595Y-100467904D01*
X176208214Y-100563142D01*
X176255833Y-100610761D01*
X176351071Y-100658380D01*
X176732023Y-100658380D01*
X176732023Y-99658380D01*
X176398690Y-99658380D01*
X176303452Y-99706000D01*
X176255833Y-99753619D01*
X176208214Y-99848857D01*
X176208214Y-99944095D01*
X176255833Y-100039333D01*
X176303452Y-100086952D01*
X176398690Y-100134571D01*
X176732023Y-100134571D01*
X174970119Y-99991714D02*
X174970119Y-100991714D01*
X174970119Y-100039333D02*
X174874880Y-99991714D01*
X174684404Y-99991714D01*
X174589166Y-100039333D01*
X174541547Y-100086952D01*
X174493928Y-100182190D01*
X174493928Y-100467904D01*
X174541547Y-100563142D01*
X174589166Y-100610761D01*
X174684404Y-100658380D01*
X174874880Y-100658380D01*
X174970119Y-100610761D01*
X173922500Y-100658380D02*
X174017738Y-100610761D01*
X174065357Y-100563142D01*
X174112976Y-100467904D01*
X174112976Y-100182190D01*
X174065357Y-100086952D01*
X174017738Y-100039333D01*
X173922500Y-99991714D01*
X173779642Y-99991714D01*
X173684404Y-100039333D01*
X173636785Y-100086952D01*
X173589166Y-100182190D01*
X173589166Y-100467904D01*
X173636785Y-100563142D01*
X173684404Y-100610761D01*
X173779642Y-100658380D01*
X173922500Y-100658380D01*
X173160595Y-100658380D02*
X173160595Y-99991714D01*
X173160595Y-100182190D02*
X173112976Y-100086952D01*
X173065357Y-100039333D01*
X172970119Y-99991714D01*
X172874880Y-99991714D01*
X172684404Y-99991714D02*
X172303452Y-99991714D01*
X172541547Y-99658380D02*
X172541547Y-100515523D01*
X172493928Y-100610761D01*
X172398690Y-100658380D01*
X172303452Y-100658380D01*
X171065357Y-100658380D02*
X171160595Y-100610761D01*
X171208214Y-100563142D01*
X171255833Y-100467904D01*
X171255833Y-100182190D01*
X171208214Y-100086952D01*
X171160595Y-100039333D01*
X171065357Y-99991714D01*
X170922500Y-99991714D01*
X170827261Y-100039333D01*
X170779642Y-100086952D01*
X170732023Y-100182190D01*
X170732023Y-100467904D01*
X170779642Y-100563142D01*
X170827261Y-100610761D01*
X170922500Y-100658380D01*
X171065357Y-100658380D01*
X170303452Y-99991714D02*
X170303452Y-100658380D01*
X170303452Y-100086952D02*
X170255833Y-100039333D01*
X170160595Y-99991714D01*
X170017738Y-99991714D01*
X169922500Y-100039333D01*
X169874880Y-100134571D01*
X169874880Y-100658380D01*
X168732023Y-99991714D02*
X168493928Y-100658380D01*
X168255833Y-99991714D02*
X168493928Y-100658380D01*
X168589166Y-100896476D01*
X168636785Y-100944095D01*
X168732023Y-100991714D01*
X167732023Y-100658380D02*
X167827261Y-100610761D01*
X167874880Y-100563142D01*
X167922500Y-100467904D01*
X167922500Y-100182190D01*
X167874880Y-100086952D01*
X167827261Y-100039333D01*
X167732023Y-99991714D01*
X167589166Y-99991714D01*
X167493928Y-100039333D01*
X167446309Y-100086952D01*
X167398690Y-100182190D01*
X167398690Y-100467904D01*
X167446309Y-100563142D01*
X167493928Y-100610761D01*
X167589166Y-100658380D01*
X167732023Y-100658380D01*
X166541547Y-99991714D02*
X166541547Y-100658380D01*
X166970119Y-99991714D02*
X166970119Y-100515523D01*
X166922500Y-100610761D01*
X166827261Y-100658380D01*
X166684404Y-100658380D01*
X166589166Y-100610761D01*
X166541547Y-100563142D01*
X166065357Y-100658380D02*
X166065357Y-99991714D01*
X166065357Y-100182190D02*
X166017738Y-100086952D01*
X165970119Y-100039333D01*
X165874880Y-99991714D01*
X165779642Y-99991714D01*
X164255833Y-100610761D02*
X164351071Y-100658380D01*
X164541547Y-100658380D01*
X164636785Y-100610761D01*
X164684404Y-100563142D01*
X164732023Y-100467904D01*
X164732023Y-100182190D01*
X164684404Y-100086952D01*
X164636785Y-100039333D01*
X164541547Y-99991714D01*
X164351071Y-99991714D01*
X164255833Y-100039333D01*
X163684404Y-100658380D02*
X163779642Y-100610761D01*
X163827261Y-100563142D01*
X163874880Y-100467904D01*
X163874880Y-100182190D01*
X163827261Y-100086952D01*
X163779642Y-100039333D01*
X163684404Y-99991714D01*
X163541547Y-99991714D01*
X163446309Y-100039333D01*
X163398690Y-100086952D01*
X163351071Y-100182190D01*
X163351071Y-100467904D01*
X163398690Y-100563142D01*
X163446309Y-100610761D01*
X163541547Y-100658380D01*
X163684404Y-100658380D01*
X162922500Y-100658380D02*
X162922500Y-99991714D01*
X162922500Y-100086952D02*
X162874880Y-100039333D01*
X162779642Y-99991714D01*
X162636785Y-99991714D01*
X162541547Y-100039333D01*
X162493928Y-100134571D01*
X162493928Y-100658380D01*
X162493928Y-100134571D02*
X162446309Y-100039333D01*
X162351071Y-99991714D01*
X162208214Y-99991714D01*
X162112976Y-100039333D01*
X162065357Y-100134571D01*
X162065357Y-100658380D01*
X161589166Y-99991714D02*
X161589166Y-100991714D01*
X161589166Y-100039333D02*
X161493928Y-99991714D01*
X161303452Y-99991714D01*
X161208214Y-100039333D01*
X161160595Y-100086952D01*
X161112976Y-100182190D01*
X161112976Y-100467904D01*
X161160595Y-100563142D01*
X161208214Y-100610761D01*
X161303452Y-100658380D01*
X161493928Y-100658380D01*
X161589166Y-100610761D01*
X160255833Y-99991714D02*
X160255833Y-100658380D01*
X160684404Y-99991714D02*
X160684404Y-100515523D01*
X160636785Y-100610761D01*
X160541547Y-100658380D01*
X160398690Y-100658380D01*
X160303452Y-100610761D01*
X160255833Y-100563142D01*
X159922500Y-99991714D02*
X159541547Y-99991714D01*
X159779642Y-99658380D02*
X159779642Y-100515523D01*
X159732023Y-100610761D01*
X159636785Y-100658380D01*
X159541547Y-100658380D01*
X158827261Y-100610761D02*
X158922500Y-100658380D01*
X159112976Y-100658380D01*
X159208214Y-100610761D01*
X159255833Y-100515523D01*
X159255833Y-100134571D01*
X159208214Y-100039333D01*
X159112976Y-99991714D01*
X158922500Y-99991714D01*
X158827261Y-100039333D01*
X158779642Y-100134571D01*
X158779642Y-100229809D01*
X159255833Y-100325047D01*
X158351071Y-100658380D02*
X158351071Y-99991714D01*
X158351071Y-100182190D02*
X158303452Y-100086952D01*
X158255833Y-100039333D01*
X158160595Y-99991714D01*
X158065357Y-99991714D01*
X157065357Y-99991714D02*
X156874880Y-100658380D01*
X156684404Y-100182190D01*
X156493928Y-100658380D01*
X156303452Y-99991714D01*
X155922500Y-100658380D02*
X155922500Y-99991714D01*
X155922500Y-99658380D02*
X155970119Y-99706000D01*
X155922500Y-99753619D01*
X155874880Y-99706000D01*
X155922500Y-99658380D01*
X155922500Y-99753619D01*
X155589166Y-99991714D02*
X155208214Y-99991714D01*
X155446309Y-99658380D02*
X155446309Y-100515523D01*
X155398690Y-100610761D01*
X155303452Y-100658380D01*
X155208214Y-100658380D01*
X154874880Y-100658380D02*
X154874880Y-99658380D01*
X154446309Y-100658380D02*
X154446309Y-100134571D01*
X154493928Y-100039333D01*
X154589166Y-99991714D01*
X154732023Y-99991714D01*
X154827261Y-100039333D01*
X154874880Y-100086952D01*
X153351071Y-99991714D02*
X152970119Y-99991714D01*
X153208214Y-99658380D02*
X153208214Y-100515523D01*
X153160595Y-100610761D01*
X153065357Y-100658380D01*
X152970119Y-100658380D01*
X152636785Y-100658380D02*
X152636785Y-99658380D01*
X152208214Y-100658380D02*
X152208214Y-100134571D01*
X152255833Y-100039333D01*
X152351071Y-99991714D01*
X152493928Y-99991714D01*
X152589166Y-100039333D01*
X152636785Y-100086952D01*
X151351071Y-100610761D02*
X151446309Y-100658380D01*
X151636785Y-100658380D01*
X151732023Y-100610761D01*
X151779642Y-100515523D01*
X151779642Y-100134571D01*
X151732023Y-100039333D01*
X151636785Y-99991714D01*
X151446309Y-99991714D01*
X151351071Y-100039333D01*
X151303452Y-100134571D01*
X151303452Y-100229809D01*
X151779642Y-100325047D01*
X150112976Y-99991714D02*
X150112976Y-100991714D01*
X150112976Y-100039333D02*
X150017738Y-99991714D01*
X149827261Y-99991714D01*
X149732023Y-100039333D01*
X149684404Y-100086952D01*
X149636785Y-100182190D01*
X149636785Y-100467904D01*
X149684404Y-100563142D01*
X149732023Y-100610761D01*
X149827261Y-100658380D01*
X150017738Y-100658380D01*
X150112976Y-100610761D01*
X149208214Y-100658380D02*
X149208214Y-99991714D01*
X149208214Y-100182190D02*
X149160595Y-100086952D01*
X149112976Y-100039333D01*
X149017738Y-99991714D01*
X148922500Y-99991714D01*
X148446309Y-100658380D02*
X148541547Y-100610761D01*
X148589166Y-100563142D01*
X148636785Y-100467904D01*
X148636785Y-100182190D01*
X148589166Y-100086952D01*
X148541547Y-100039333D01*
X148446309Y-99991714D01*
X148303452Y-99991714D01*
X148208214Y-100039333D01*
X148160595Y-100086952D01*
X148112976Y-100182190D01*
X148112976Y-100467904D01*
X148160595Y-100563142D01*
X148208214Y-100610761D01*
X148303452Y-100658380D01*
X148446309Y-100658380D01*
X147779642Y-99991714D02*
X147541547Y-100658380D01*
X147303452Y-99991714D01*
X146922500Y-100658380D02*
X146922500Y-99991714D01*
X146922500Y-99658380D02*
X146970119Y-99706000D01*
X146922500Y-99753619D01*
X146874880Y-99706000D01*
X146922500Y-99658380D01*
X146922500Y-99753619D01*
X146017738Y-100658380D02*
X146017738Y-99658380D01*
X146017738Y-100610761D02*
X146112976Y-100658380D01*
X146303452Y-100658380D01*
X146398690Y-100610761D01*
X146446309Y-100563142D01*
X146493928Y-100467904D01*
X146493928Y-100182190D01*
X146446309Y-100086952D01*
X146398690Y-100039333D01*
X146303452Y-99991714D01*
X146112976Y-99991714D01*
X146017738Y-100039333D01*
X145160595Y-100610761D02*
X145255833Y-100658380D01*
X145446309Y-100658380D01*
X145541547Y-100610761D01*
X145589166Y-100515523D01*
X145589166Y-100134571D01*
X145541547Y-100039333D01*
X145446309Y-99991714D01*
X145255833Y-99991714D01*
X145160595Y-100039333D01*
X145112976Y-100134571D01*
X145112976Y-100229809D01*
X145589166Y-100325047D01*
X144255833Y-100658380D02*
X144255833Y-99658380D01*
X144255833Y-100610761D02*
X144351071Y-100658380D01*
X144541547Y-100658380D01*
X144636785Y-100610761D01*
X144684404Y-100563142D01*
X144732023Y-100467904D01*
X144732023Y-100182190D01*
X144684404Y-100086952D01*
X144636785Y-100039333D01*
X144541547Y-99991714D01*
X144351071Y-99991714D01*
X144255833Y-100039333D01*
X143017738Y-100658380D02*
X143017738Y-99991714D01*
X143017738Y-100086952D02*
X142970119Y-100039333D01*
X142874880Y-99991714D01*
X142732023Y-99991714D01*
X142636785Y-100039333D01*
X142589166Y-100134571D01*
X142589166Y-100658380D01*
X142589166Y-100134571D02*
X142541547Y-100039333D01*
X142446309Y-99991714D01*
X142303452Y-99991714D01*
X142208214Y-100039333D01*
X142160595Y-100134571D01*
X142160595Y-100658380D01*
X141255833Y-100658380D02*
X141255833Y-100134571D01*
X141303452Y-100039333D01*
X141398690Y-99991714D01*
X141589166Y-99991714D01*
X141684404Y-100039333D01*
X141255833Y-100610761D02*
X141351071Y-100658380D01*
X141589166Y-100658380D01*
X141684404Y-100610761D01*
X141732023Y-100515523D01*
X141732023Y-100420285D01*
X141684404Y-100325047D01*
X141589166Y-100277428D01*
X141351071Y-100277428D01*
X141255833Y-100229809D01*
X140351071Y-99991714D02*
X140351071Y-100801238D01*
X140398690Y-100896476D01*
X140446309Y-100944095D01*
X140541547Y-100991714D01*
X140684404Y-100991714D01*
X140779642Y-100944095D01*
X140351071Y-100610761D02*
X140446309Y-100658380D01*
X140636785Y-100658380D01*
X140732023Y-100610761D01*
X140779642Y-100563142D01*
X140827261Y-100467904D01*
X140827261Y-100182190D01*
X140779642Y-100086952D01*
X140732023Y-100039333D01*
X140636785Y-99991714D01*
X140446309Y-99991714D01*
X140351071Y-100039333D01*
X139874880Y-99991714D02*
X139874880Y-100658380D01*
X139874880Y-100086952D02*
X139827261Y-100039333D01*
X139732023Y-99991714D01*
X139589166Y-99991714D01*
X139493928Y-100039333D01*
X139446309Y-100134571D01*
X139446309Y-100658380D01*
X138589166Y-100610761D02*
X138684404Y-100658380D01*
X138874880Y-100658380D01*
X138970119Y-100610761D01*
X139017738Y-100515523D01*
X139017738Y-100134571D01*
X138970119Y-100039333D01*
X138874880Y-99991714D01*
X138684404Y-99991714D01*
X138589166Y-100039333D01*
X138541547Y-100134571D01*
X138541547Y-100229809D01*
X139017738Y-100325047D01*
X138255833Y-99991714D02*
X137874880Y-99991714D01*
X138112976Y-99658380D02*
X138112976Y-100515523D01*
X138065357Y-100610761D01*
X137970119Y-100658380D01*
X137874880Y-100658380D01*
X137541547Y-100658380D02*
X137541547Y-99991714D01*
X137541547Y-99658380D02*
X137589166Y-99706000D01*
X137541547Y-99753619D01*
X137493928Y-99706000D01*
X137541547Y-99658380D01*
X137541547Y-99753619D01*
X136636785Y-100610761D02*
X136732023Y-100658380D01*
X136922500Y-100658380D01*
X137017738Y-100610761D01*
X137065357Y-100563142D01*
X137112976Y-100467904D01*
X137112976Y-100182190D01*
X137065357Y-100086952D01*
X137017738Y-100039333D01*
X136922500Y-99991714D01*
X136732023Y-99991714D01*
X136636785Y-100039333D01*
X135017738Y-100610761D02*
X135112976Y-100658380D01*
X135303452Y-100658380D01*
X135398690Y-100610761D01*
X135446309Y-100563142D01*
X135493928Y-100467904D01*
X135493928Y-100182190D01*
X135446309Y-100086952D01*
X135398690Y-100039333D01*
X135303452Y-99991714D01*
X135112976Y-99991714D01*
X135017738Y-100039333D01*
X134160595Y-100658380D02*
X134160595Y-100134571D01*
X134208214Y-100039333D01*
X134303452Y-99991714D01*
X134493928Y-99991714D01*
X134589166Y-100039333D01*
X134160595Y-100610761D02*
X134255833Y-100658380D01*
X134493928Y-100658380D01*
X134589166Y-100610761D01*
X134636785Y-100515523D01*
X134636785Y-100420285D01*
X134589166Y-100325047D01*
X134493928Y-100277428D01*
X134255833Y-100277428D01*
X134160595Y-100229809D01*
X133684404Y-100658380D02*
X133684404Y-99658380D01*
X133684404Y-100039333D02*
X133589166Y-99991714D01*
X133398690Y-99991714D01*
X133303452Y-100039333D01*
X133255833Y-100086952D01*
X133208214Y-100182190D01*
X133208214Y-100467904D01*
X133255833Y-100563142D01*
X133303452Y-100610761D01*
X133398690Y-100658380D01*
X133589166Y-100658380D01*
X133684404Y-100610761D01*
X132636785Y-100658380D02*
X132732023Y-100610761D01*
X132779642Y-100515523D01*
X132779642Y-99658380D01*
X131874880Y-100610761D02*
X131970119Y-100658380D01*
X132160595Y-100658380D01*
X132255833Y-100610761D01*
X132303452Y-100515523D01*
X132303452Y-100134571D01*
X132255833Y-100039333D01*
X132160595Y-99991714D01*
X131970119Y-99991714D01*
X131874880Y-100039333D01*
X131827261Y-100134571D01*
X131827261Y-100229809D01*
X132303452Y-100325047D01*
X195493928Y-104608380D02*
X195303452Y-104608380D01*
X195208214Y-104656000D01*
X195112976Y-104751238D01*
X195065357Y-104941714D01*
X195065357Y-105275047D01*
X195112976Y-105465523D01*
X195208214Y-105560761D01*
X195303452Y-105608380D01*
X195493928Y-105608380D01*
X195589166Y-105560761D01*
X195684404Y-105465523D01*
X195732023Y-105275047D01*
X195732023Y-104941714D01*
X195684404Y-104751238D01*
X195589166Y-104656000D01*
X195493928Y-104608380D01*
X194636785Y-104941714D02*
X194636785Y-105941714D01*
X194636785Y-104989333D02*
X194541547Y-104941714D01*
X194351071Y-104941714D01*
X194255833Y-104989333D01*
X194208214Y-105036952D01*
X194160595Y-105132190D01*
X194160595Y-105417904D01*
X194208214Y-105513142D01*
X194255833Y-105560761D01*
X194351071Y-105608380D01*
X194541547Y-105608380D01*
X194636785Y-105560761D01*
X193351071Y-105560761D02*
X193446309Y-105608380D01*
X193636785Y-105608380D01*
X193732023Y-105560761D01*
X193779642Y-105465523D01*
X193779642Y-105084571D01*
X193732023Y-104989333D01*
X193636785Y-104941714D01*
X193446309Y-104941714D01*
X193351071Y-104989333D01*
X193303452Y-105084571D01*
X193303452Y-105179809D01*
X193779642Y-105275047D01*
X192874880Y-104941714D02*
X192874880Y-105608380D01*
X192874880Y-105036952D02*
X192827261Y-104989333D01*
X192732023Y-104941714D01*
X192589166Y-104941714D01*
X192493928Y-104989333D01*
X192446309Y-105084571D01*
X192446309Y-105608380D01*
X176732023Y-105608380D02*
X176732023Y-104941714D01*
X176732023Y-104608380D02*
X176779642Y-104656000D01*
X176732023Y-104703619D01*
X176684404Y-104656000D01*
X176732023Y-104608380D01*
X176732023Y-104703619D01*
X176255833Y-104941714D02*
X176255833Y-105608380D01*
X176255833Y-105036952D02*
X176208214Y-104989333D01*
X176112976Y-104941714D01*
X175970119Y-104941714D01*
X175874880Y-104989333D01*
X175827261Y-105084571D01*
X175827261Y-105608380D01*
X174160595Y-105608380D02*
X174160595Y-105084571D01*
X174208214Y-104989333D01*
X174303452Y-104941714D01*
X174493928Y-104941714D01*
X174589166Y-104989333D01*
X174160595Y-105560761D02*
X174255833Y-105608380D01*
X174493928Y-105608380D01*
X174589166Y-105560761D01*
X174636785Y-105465523D01*
X174636785Y-105370285D01*
X174589166Y-105275047D01*
X174493928Y-105227428D01*
X174255833Y-105227428D01*
X174160595Y-105179809D01*
X172922500Y-105608380D02*
X172922500Y-104608380D01*
X172922500Y-104989333D02*
X172827261Y-104941714D01*
X172636785Y-104941714D01*
X172541547Y-104989333D01*
X172493928Y-105036952D01*
X172446309Y-105132190D01*
X172446309Y-105417904D01*
X172493928Y-105513142D01*
X172541547Y-105560761D01*
X172636785Y-105608380D01*
X172827261Y-105608380D01*
X172922500Y-105560761D01*
X172017738Y-105608380D02*
X172017738Y-104941714D01*
X172017738Y-105132190D02*
X171970119Y-105036952D01*
X171922500Y-104989333D01*
X171827261Y-104941714D01*
X171732023Y-104941714D01*
X171255833Y-105608380D02*
X171351071Y-105560761D01*
X171398690Y-105513142D01*
X171446309Y-105417904D01*
X171446309Y-105132190D01*
X171398690Y-105036952D01*
X171351071Y-104989333D01*
X171255833Y-104941714D01*
X171112976Y-104941714D01*
X171017738Y-104989333D01*
X170970119Y-105036952D01*
X170922500Y-105132190D01*
X170922500Y-105417904D01*
X170970119Y-105513142D01*
X171017738Y-105560761D01*
X171112976Y-105608380D01*
X171255833Y-105608380D01*
X170589166Y-104941714D02*
X170398690Y-105608380D01*
X170208214Y-105132190D01*
X170017738Y-105608380D01*
X169827261Y-104941714D01*
X169493928Y-105560761D02*
X169398690Y-105608380D01*
X169208214Y-105608380D01*
X169112976Y-105560761D01*
X169065357Y-105465523D01*
X169065357Y-105417904D01*
X169112976Y-105322666D01*
X169208214Y-105275047D01*
X169351071Y-105275047D01*
X169446309Y-105227428D01*
X169493928Y-105132190D01*
X169493928Y-105084571D01*
X169446309Y-104989333D01*
X169351071Y-104941714D01*
X169208214Y-104941714D01*
X169112976Y-104989333D01*
X168255833Y-105560761D02*
X168351071Y-105608380D01*
X168541547Y-105608380D01*
X168636785Y-105560761D01*
X168684404Y-105465523D01*
X168684404Y-105084571D01*
X168636785Y-104989333D01*
X168541547Y-104941714D01*
X168351071Y-104941714D01*
X168255833Y-104989333D01*
X168208214Y-105084571D01*
X168208214Y-105179809D01*
X168684404Y-105275047D01*
X167779642Y-105608380D02*
X167779642Y-104941714D01*
X167779642Y-105132190D02*
X167732023Y-105036952D01*
X167684404Y-104989333D01*
X167589166Y-104941714D01*
X167493928Y-104941714D01*
X165589166Y-105608380D02*
X165636785Y-105608380D01*
X165732023Y-105560761D01*
X165874880Y-105417904D01*
X166112976Y-105132190D01*
X166208214Y-104989333D01*
X166255833Y-104846476D01*
X166255833Y-104751238D01*
X166208214Y-104656000D01*
X166112976Y-104608380D01*
X166065357Y-104608380D01*
X165970119Y-104656000D01*
X165922500Y-104751238D01*
X165922500Y-104798857D01*
X165970119Y-104894095D01*
X166017738Y-104941714D01*
X166303452Y-105132190D01*
X166351071Y-105179809D01*
X166398690Y-105275047D01*
X166398690Y-105417904D01*
X166351071Y-105513142D01*
X166303452Y-105560761D01*
X166208214Y-105608380D01*
X166065357Y-105608380D01*
X165970119Y-105560761D01*
X165922500Y-105513142D01*
X165779642Y-105322666D01*
X165732023Y-105179809D01*
X165732023Y-105084571D01*
X164017738Y-105560761D02*
X164112976Y-105608380D01*
X164303452Y-105608380D01*
X164398690Y-105560761D01*
X164446309Y-105465523D01*
X164446309Y-105084571D01*
X164398690Y-104989333D01*
X164303452Y-104941714D01*
X164112976Y-104941714D01*
X164017738Y-104989333D01*
X163970119Y-105084571D01*
X163970119Y-105179809D01*
X164446309Y-105275047D01*
X163636785Y-105608380D02*
X163112976Y-104941714D01*
X163636785Y-104941714D02*
X163112976Y-105608380D01*
X162732023Y-104941714D02*
X162732023Y-105941714D01*
X162732023Y-104989333D02*
X162636785Y-104941714D01*
X162446309Y-104941714D01*
X162351071Y-104989333D01*
X162303452Y-105036952D01*
X162255833Y-105132190D01*
X162255833Y-105417904D01*
X162303452Y-105513142D01*
X162351071Y-105560761D01*
X162446309Y-105608380D01*
X162636785Y-105608380D01*
X162732023Y-105560761D01*
X161684404Y-105608380D02*
X161779642Y-105560761D01*
X161827261Y-105465523D01*
X161827261Y-104608380D01*
X161160595Y-105608380D02*
X161255833Y-105560761D01*
X161303452Y-105513142D01*
X161351071Y-105417904D01*
X161351071Y-105132190D01*
X161303452Y-105036952D01*
X161255833Y-104989333D01*
X161160595Y-104941714D01*
X161017738Y-104941714D01*
X160922500Y-104989333D01*
X160874880Y-105036952D01*
X160827261Y-105132190D01*
X160827261Y-105417904D01*
X160874880Y-105513142D01*
X160922500Y-105560761D01*
X161017738Y-105608380D01*
X161160595Y-105608380D01*
X160398690Y-105608380D02*
X160398690Y-104941714D01*
X160398690Y-105132190D02*
X160351071Y-105036952D01*
X160303452Y-104989333D01*
X160208214Y-104941714D01*
X160112976Y-104941714D01*
X159398690Y-105560761D02*
X159493928Y-105608380D01*
X159684404Y-105608380D01*
X159779642Y-105560761D01*
X159827261Y-105465523D01*
X159827261Y-105084571D01*
X159779642Y-104989333D01*
X159684404Y-104941714D01*
X159493928Y-104941714D01*
X159398690Y-104989333D01*
X159351071Y-105084571D01*
X159351071Y-105179809D01*
X159827261Y-105275047D01*
X158160595Y-105608380D02*
X158160595Y-104608380D01*
X158160595Y-104989333D02*
X158065357Y-104941714D01*
X157874880Y-104941714D01*
X157779642Y-104989333D01*
X157732023Y-105036952D01*
X157684404Y-105132190D01*
X157684404Y-105417904D01*
X157732023Y-105513142D01*
X157779642Y-105560761D01*
X157874880Y-105608380D01*
X158065357Y-105608380D01*
X158160595Y-105560761D01*
X157351071Y-104941714D02*
X157112976Y-105608380D01*
X156874880Y-104941714D02*
X157112976Y-105608380D01*
X157208214Y-105846476D01*
X157255833Y-105894095D01*
X157351071Y-105941714D01*
X155874880Y-104941714D02*
X155493928Y-104941714D01*
X155732023Y-104608380D02*
X155732023Y-105465523D01*
X155684404Y-105560761D01*
X155589166Y-105608380D01*
X155493928Y-105608380D01*
X154732023Y-105608380D02*
X154732023Y-105084571D01*
X154779642Y-104989333D01*
X154874880Y-104941714D01*
X155065357Y-104941714D01*
X155160595Y-104989333D01*
X154732023Y-105560761D02*
X154827261Y-105608380D01*
X155065357Y-105608380D01*
X155160595Y-105560761D01*
X155208214Y-105465523D01*
X155208214Y-105370285D01*
X155160595Y-105275047D01*
X155065357Y-105227428D01*
X154827261Y-105227428D01*
X154732023Y-105179809D01*
X154255833Y-104941714D02*
X154255833Y-105941714D01*
X154255833Y-104989333D02*
X154160595Y-104941714D01*
X153970119Y-104941714D01*
X153874880Y-104989333D01*
X153827261Y-105036952D01*
X153779642Y-105132190D01*
X153779642Y-105417904D01*
X153827261Y-105513142D01*
X153874880Y-105560761D01*
X153970119Y-105608380D01*
X154160595Y-105608380D01*
X154255833Y-105560761D01*
X153351071Y-104941714D02*
X153351071Y-105941714D01*
X153351071Y-104989333D02*
X153255833Y-104941714D01*
X153065357Y-104941714D01*
X152970119Y-104989333D01*
X152922500Y-105036952D01*
X152874880Y-105132190D01*
X152874880Y-105417904D01*
X152922500Y-105513142D01*
X152970119Y-105560761D01*
X153065357Y-105608380D01*
X153255833Y-105608380D01*
X153351071Y-105560761D01*
X152446309Y-105608380D02*
X152446309Y-104941714D01*
X152446309Y-104608380D02*
X152493928Y-104656000D01*
X152446309Y-104703619D01*
X152398690Y-104656000D01*
X152446309Y-104608380D01*
X152446309Y-104703619D01*
X151970119Y-104941714D02*
X151970119Y-105608380D01*
X151970119Y-105036952D02*
X151922500Y-104989333D01*
X151827261Y-104941714D01*
X151684404Y-104941714D01*
X151589166Y-104989333D01*
X151541547Y-105084571D01*
X151541547Y-105608380D01*
X150636785Y-104941714D02*
X150636785Y-105751238D01*
X150684404Y-105846476D01*
X150732023Y-105894095D01*
X150827261Y-105941714D01*
X150970119Y-105941714D01*
X151065357Y-105894095D01*
X150636785Y-105560761D02*
X150732023Y-105608380D01*
X150922500Y-105608380D01*
X151017738Y-105560761D01*
X151065357Y-105513142D01*
X151112976Y-105417904D01*
X151112976Y-105132190D01*
X151065357Y-105036952D01*
X151017738Y-104989333D01*
X150922500Y-104941714D01*
X150732023Y-104941714D01*
X150636785Y-104989333D01*
X138874880Y-104941714D02*
X138493928Y-104941714D01*
X138732023Y-105608380D02*
X138732023Y-104751238D01*
X138684404Y-104656000D01*
X138589166Y-104608380D01*
X138493928Y-104608380D01*
X138160595Y-105608380D02*
X138160595Y-104941714D01*
X138160595Y-105132190D02*
X138112976Y-105036952D01*
X138065357Y-104989333D01*
X137970119Y-104941714D01*
X137874880Y-104941714D01*
X137398690Y-105608380D02*
X137493928Y-105560761D01*
X137541547Y-105513142D01*
X137589166Y-105417904D01*
X137589166Y-105132190D01*
X137541547Y-105036952D01*
X137493928Y-104989333D01*
X137398690Y-104941714D01*
X137255833Y-104941714D01*
X137160595Y-104989333D01*
X137112976Y-105036952D01*
X137065357Y-105132190D01*
X137065357Y-105417904D01*
X137112976Y-105513142D01*
X137160595Y-105560761D01*
X137255833Y-105608380D01*
X137398690Y-105608380D01*
X136636785Y-104941714D02*
X136636785Y-105608380D01*
X136636785Y-105036952D02*
X136589166Y-104989333D01*
X136493928Y-104941714D01*
X136351071Y-104941714D01*
X136255833Y-104989333D01*
X136208214Y-105084571D01*
X136208214Y-105608380D01*
X135874880Y-104941714D02*
X135493928Y-104941714D01*
X135732023Y-104608380D02*
X135732023Y-105465523D01*
X135684404Y-105560761D01*
X135589166Y-105608380D01*
X135493928Y-105608380D01*
X135208214Y-105560761D02*
X135112976Y-105608380D01*
X134922500Y-105608380D01*
X134827261Y-105560761D01*
X134779642Y-105465523D01*
X134779642Y-105417904D01*
X134827261Y-105322666D01*
X134922500Y-105275047D01*
X135065357Y-105275047D01*
X135160595Y-105227428D01*
X135208214Y-105132190D01*
X135208214Y-105084571D01*
X135160595Y-104989333D01*
X135065357Y-104941714D01*
X134922500Y-104941714D01*
X134827261Y-104989333D01*
X134351071Y-105608380D02*
X134351071Y-104941714D01*
X134351071Y-104608380D02*
X134398690Y-104656000D01*
X134351071Y-104703619D01*
X134303452Y-104656000D01*
X134351071Y-104608380D01*
X134351071Y-104703619D01*
X133446309Y-105608380D02*
X133446309Y-104608380D01*
X133446309Y-105560761D02*
X133541547Y-105608380D01*
X133732023Y-105608380D01*
X133827261Y-105560761D01*
X133874880Y-105513142D01*
X133922500Y-105417904D01*
X133922500Y-105132190D01*
X133874880Y-105036952D01*
X133827261Y-104989333D01*
X133732023Y-104941714D01*
X133541547Y-104941714D01*
X133446309Y-104989333D01*
X132589166Y-105560761D02*
X132684404Y-105608380D01*
X132874880Y-105608380D01*
X132970119Y-105560761D01*
X133017738Y-105465523D01*
X133017738Y-105084571D01*
X132970119Y-104989333D01*
X132874880Y-104941714D01*
X132684404Y-104941714D01*
X132589166Y-104989333D01*
X132541547Y-105084571D01*
X132541547Y-105179809D01*
X133017738Y-105275047D01*
X131351071Y-105608380D02*
X131351071Y-104941714D01*
X131351071Y-104608380D02*
X131398690Y-104656000D01*
X131351071Y-104703619D01*
X131303452Y-104656000D01*
X131351071Y-104608380D01*
X131351071Y-104703619D01*
X130446309Y-105560761D02*
X130541547Y-105608380D01*
X130732023Y-105608380D01*
X130827261Y-105560761D01*
X130874880Y-105513142D01*
X130922500Y-105417904D01*
X130922500Y-105132190D01*
X130874880Y-105036952D01*
X130827261Y-104989333D01*
X130732023Y-104941714D01*
X130541547Y-104941714D01*
X130446309Y-104989333D01*
X129874880Y-105608380D02*
X129970119Y-105560761D01*
X130017738Y-105513142D01*
X130065357Y-105417904D01*
X130065357Y-105132190D01*
X130017738Y-105036952D01*
X129970119Y-104989333D01*
X129874880Y-104941714D01*
X129732023Y-104941714D01*
X129636785Y-104989333D01*
X129589166Y-105036952D01*
X129541547Y-105132190D01*
X129541547Y-105417904D01*
X129589166Y-105513142D01*
X129636785Y-105560761D01*
X129732023Y-105608380D01*
X129874880Y-105608380D01*
X129112976Y-104941714D02*
X129112976Y-105608380D01*
X129112976Y-105036952D02*
X129065357Y-104989333D01*
X128970119Y-104941714D01*
X128827261Y-104941714D01*
X128732023Y-104989333D01*
X128684404Y-105084571D01*
X128684404Y-105608380D01*
X128255833Y-105560761D02*
X128160595Y-105608380D01*
X127970119Y-105608380D01*
X127874880Y-105560761D01*
X127827261Y-105465523D01*
X127827261Y-105417904D01*
X127874880Y-105322666D01*
X127970119Y-105275047D01*
X128112976Y-105275047D01*
X128208214Y-105227428D01*
X128255833Y-105132190D01*
X128255833Y-105084571D01*
X128208214Y-104989333D01*
X128112976Y-104941714D01*
X127970119Y-104941714D01*
X127874880Y-104989333D01*
X195732023Y-110272666D02*
X195255833Y-110272666D01*
X195827261Y-110558380D02*
X195493928Y-109558380D01*
X195160595Y-110558380D01*
X194398690Y-110510761D02*
X194493928Y-110558380D01*
X194684404Y-110558380D01*
X194779642Y-110510761D01*
X194827261Y-110463142D01*
X194874880Y-110367904D01*
X194874880Y-110082190D01*
X194827261Y-109986952D01*
X194779642Y-109939333D01*
X194684404Y-109891714D01*
X194493928Y-109891714D01*
X194398690Y-109939333D01*
X194112976Y-109891714D02*
X193732023Y-109891714D01*
X193970119Y-109558380D02*
X193970119Y-110415523D01*
X193922500Y-110510761D01*
X193827261Y-110558380D01*
X193732023Y-110558380D01*
X193398690Y-110558380D02*
X193398690Y-109891714D01*
X193398690Y-109558380D02*
X193446309Y-109606000D01*
X193398690Y-109653619D01*
X193351071Y-109606000D01*
X193398690Y-109558380D01*
X193398690Y-109653619D01*
X193017738Y-109891714D02*
X192779642Y-110558380D01*
X192541547Y-109891714D01*
X191732023Y-110558380D02*
X191732023Y-110034571D01*
X191779642Y-109939333D01*
X191874880Y-109891714D01*
X192065357Y-109891714D01*
X192160595Y-109939333D01*
X191732023Y-110510761D02*
X191827261Y-110558380D01*
X192065357Y-110558380D01*
X192160595Y-110510761D01*
X192208214Y-110415523D01*
X192208214Y-110320285D01*
X192160595Y-110225047D01*
X192065357Y-110177428D01*
X191827261Y-110177428D01*
X191732023Y-110129809D01*
X191398690Y-109891714D02*
X191017738Y-109891714D01*
X191255833Y-109558380D02*
X191255833Y-110415523D01*
X191208214Y-110510761D01*
X191112976Y-110558380D01*
X191017738Y-110558380D01*
X190303452Y-110510761D02*
X190398690Y-110558380D01*
X190589166Y-110558380D01*
X190684404Y-110510761D01*
X190732023Y-110415523D01*
X190732023Y-110034571D01*
X190684404Y-109939333D01*
X190589166Y-109891714D01*
X190398690Y-109891714D01*
X190303452Y-109939333D01*
X190255833Y-110034571D01*
X190255833Y-110129809D01*
X190732023Y-110225047D01*
X188636785Y-110510761D02*
X188732023Y-110558380D01*
X188922500Y-110558380D01*
X189017738Y-110510761D01*
X189065357Y-110463142D01*
X189112976Y-110367904D01*
X189112976Y-110082190D01*
X189065357Y-109986952D01*
X189017738Y-109939333D01*
X188922500Y-109891714D01*
X188732023Y-109891714D01*
X188636785Y-109939333D01*
X188065357Y-110558380D02*
X188160595Y-110510761D01*
X188208214Y-110463142D01*
X188255833Y-110367904D01*
X188255833Y-110082190D01*
X188208214Y-109986952D01*
X188160595Y-109939333D01*
X188065357Y-109891714D01*
X187922500Y-109891714D01*
X187827261Y-109939333D01*
X187779642Y-109986952D01*
X187732023Y-110082190D01*
X187732023Y-110367904D01*
X187779642Y-110463142D01*
X187827261Y-110510761D01*
X187922500Y-110558380D01*
X188065357Y-110558380D01*
X187303452Y-109891714D02*
X187303452Y-110558380D01*
X187303452Y-109986952D02*
X187255833Y-109939333D01*
X187160595Y-109891714D01*
X187017738Y-109891714D01*
X186922500Y-109939333D01*
X186874880Y-110034571D01*
X186874880Y-110558380D01*
X186541547Y-109891714D02*
X186160595Y-109891714D01*
X186398690Y-109558380D02*
X186398690Y-110415523D01*
X186351071Y-110510761D01*
X186255833Y-110558380D01*
X186160595Y-110558380D01*
X185446309Y-110510761D02*
X185541547Y-110558380D01*
X185732023Y-110558380D01*
X185827261Y-110510761D01*
X185874880Y-110415523D01*
X185874880Y-110034571D01*
X185827261Y-109939333D01*
X185732023Y-109891714D01*
X185541547Y-109891714D01*
X185446309Y-109939333D01*
X185398690Y-110034571D01*
X185398690Y-110129809D01*
X185874880Y-110225047D01*
X184970119Y-109891714D02*
X184970119Y-110558380D01*
X184970119Y-109986952D02*
X184922500Y-109939333D01*
X184827261Y-109891714D01*
X184684404Y-109891714D01*
X184589166Y-109939333D01*
X184541547Y-110034571D01*
X184541547Y-110558380D01*
X184208214Y-109891714D02*
X183827261Y-109891714D01*
X184065357Y-109558380D02*
X184065357Y-110415523D01*
X184017738Y-110510761D01*
X183922500Y-110558380D01*
X183827261Y-110558380D01*
X182589166Y-110558380D02*
X182684404Y-110510761D01*
X182732023Y-110463142D01*
X182779642Y-110367904D01*
X182779642Y-110082190D01*
X182732023Y-109986952D01*
X182684404Y-109939333D01*
X182589166Y-109891714D01*
X182446309Y-109891714D01*
X182351071Y-109939333D01*
X182303452Y-109986952D01*
X182255833Y-110082190D01*
X182255833Y-110367904D01*
X182303452Y-110463142D01*
X182351071Y-110510761D01*
X182446309Y-110558380D01*
X182589166Y-110558380D01*
X181827261Y-109891714D02*
X181827261Y-110558380D01*
X181827261Y-109986952D02*
X181779642Y-109939333D01*
X181684404Y-109891714D01*
X181541547Y-109891714D01*
X181446309Y-109939333D01*
X181398690Y-110034571D01*
X181398690Y-110558380D01*
X180208214Y-110510761D02*
X180112976Y-110558380D01*
X179922500Y-110558380D01*
X179827261Y-110510761D01*
X179779642Y-110415523D01*
X179779642Y-110367904D01*
X179827261Y-110272666D01*
X179922500Y-110225047D01*
X180065357Y-110225047D01*
X180160595Y-110177428D01*
X180208214Y-110082190D01*
X180208214Y-110034571D01*
X180160595Y-109939333D01*
X180065357Y-109891714D01*
X179922500Y-109891714D01*
X179827261Y-109939333D01*
X178922500Y-110510761D02*
X179017738Y-110558380D01*
X179208214Y-110558380D01*
X179303452Y-110510761D01*
X179351071Y-110463142D01*
X179398690Y-110367904D01*
X179398690Y-110082190D01*
X179351071Y-109986952D01*
X179303452Y-109939333D01*
X179208214Y-109891714D01*
X179017738Y-109891714D01*
X178922500Y-109939333D01*
X178493928Y-110558380D02*
X178493928Y-109891714D01*
X178493928Y-110082190D02*
X178446309Y-109986952D01*
X178398690Y-109939333D01*
X178303452Y-109891714D01*
X178208214Y-109891714D01*
X177493928Y-110510761D02*
X177589166Y-110558380D01*
X177779642Y-110558380D01*
X177874880Y-110510761D01*
X177922500Y-110415523D01*
X177922500Y-110034571D01*
X177874880Y-109939333D01*
X177779642Y-109891714D01*
X177589166Y-109891714D01*
X177493928Y-109939333D01*
X177446309Y-110034571D01*
X177446309Y-110129809D01*
X177922500Y-110225047D01*
X176636785Y-110510761D02*
X176732023Y-110558380D01*
X176922500Y-110558380D01*
X177017738Y-110510761D01*
X177065357Y-110415523D01*
X177065357Y-110034571D01*
X177017738Y-109939333D01*
X176922500Y-109891714D01*
X176732023Y-109891714D01*
X176636785Y-109939333D01*
X176589166Y-110034571D01*
X176589166Y-110129809D01*
X177065357Y-110225047D01*
X176160595Y-109891714D02*
X176160595Y-110558380D01*
X176160595Y-109986952D02*
X176112976Y-109939333D01*
X176017738Y-109891714D01*
X175874880Y-109891714D01*
X175779642Y-109939333D01*
X175732023Y-110034571D01*
X175732023Y-110558380D01*
X174493928Y-110558380D02*
X174493928Y-109558380D01*
X174493928Y-109939333D02*
X174398690Y-109891714D01*
X174208214Y-109891714D01*
X174112976Y-109939333D01*
X174065357Y-109986952D01*
X174017738Y-110082190D01*
X174017738Y-110367904D01*
X174065357Y-110463142D01*
X174112976Y-110510761D01*
X174208214Y-110558380D01*
X174398690Y-110558380D01*
X174493928Y-110510761D01*
X173684404Y-109891714D02*
X173446309Y-110558380D01*
X173208214Y-109891714D02*
X173446309Y-110558380D01*
X173541547Y-110796476D01*
X173589166Y-110844095D01*
X173684404Y-110891714D01*
X172208214Y-109891714D02*
X171827261Y-109891714D01*
X172065357Y-109558380D02*
X172065357Y-110415523D01*
X172017738Y-110510761D01*
X171922500Y-110558380D01*
X171827261Y-110558380D01*
X171065357Y-110558380D02*
X171065357Y-110034571D01*
X171112976Y-109939333D01*
X171208214Y-109891714D01*
X171398690Y-109891714D01*
X171493928Y-109939333D01*
X171065357Y-110510761D02*
X171160595Y-110558380D01*
X171398690Y-110558380D01*
X171493928Y-110510761D01*
X171541547Y-110415523D01*
X171541547Y-110320285D01*
X171493928Y-110225047D01*
X171398690Y-110177428D01*
X171160595Y-110177428D01*
X171065357Y-110129809D01*
X170589166Y-109891714D02*
X170589166Y-110891714D01*
X170589166Y-109939333D02*
X170493928Y-109891714D01*
X170303452Y-109891714D01*
X170208214Y-109939333D01*
X170160595Y-109986952D01*
X170112976Y-110082190D01*
X170112976Y-110367904D01*
X170160595Y-110463142D01*
X170208214Y-110510761D01*
X170303452Y-110558380D01*
X170493928Y-110558380D01*
X170589166Y-110510761D01*
X169684404Y-109891714D02*
X169684404Y-110891714D01*
X169684404Y-109939333D02*
X169589166Y-109891714D01*
X169398690Y-109891714D01*
X169303452Y-109939333D01*
X169255833Y-109986952D01*
X169208214Y-110082190D01*
X169208214Y-110367904D01*
X169255833Y-110463142D01*
X169303452Y-110510761D01*
X169398690Y-110558380D01*
X169589166Y-110558380D01*
X169684404Y-110510761D01*
X168779642Y-110558380D02*
X168779642Y-109891714D01*
X168779642Y-109558380D02*
X168827261Y-109606000D01*
X168779642Y-109653619D01*
X168732023Y-109606000D01*
X168779642Y-109558380D01*
X168779642Y-109653619D01*
X168303452Y-109891714D02*
X168303452Y-110558380D01*
X168303452Y-109986952D02*
X168255833Y-109939333D01*
X168160595Y-109891714D01*
X168017738Y-109891714D01*
X167922500Y-109939333D01*
X167874880Y-110034571D01*
X167874880Y-110558380D01*
X166970119Y-109891714D02*
X166970119Y-110701238D01*
X167017738Y-110796476D01*
X167065357Y-110844095D01*
X167160595Y-110891714D01*
X167303452Y-110891714D01*
X167398690Y-110844095D01*
X166970119Y-110510761D02*
X167065357Y-110558380D01*
X167255833Y-110558380D01*
X167351071Y-110510761D01*
X167398690Y-110463142D01*
X167446309Y-110367904D01*
X167446309Y-110082190D01*
X167398690Y-109986952D01*
X167351071Y-109939333D01*
X167255833Y-109891714D01*
X167065357Y-109891714D01*
X166970119Y-109939333D01*
X165874880Y-109891714D02*
X165493928Y-109891714D01*
X165732023Y-109558380D02*
X165732023Y-110415523D01*
X165684404Y-110510761D01*
X165589166Y-110558380D01*
X165493928Y-110558380D01*
X165160595Y-110558380D02*
X165160595Y-109558380D01*
X164732023Y-110558380D02*
X164732023Y-110034571D01*
X164779642Y-109939333D01*
X164874880Y-109891714D01*
X165017738Y-109891714D01*
X165112976Y-109939333D01*
X165160595Y-109986952D01*
X163874880Y-110510761D02*
X163970119Y-110558380D01*
X164160595Y-110558380D01*
X164255833Y-110510761D01*
X164303452Y-110415523D01*
X164303452Y-110034571D01*
X164255833Y-109939333D01*
X164160595Y-109891714D01*
X163970119Y-109891714D01*
X163874880Y-109939333D01*
X163827261Y-110034571D01*
X163827261Y-110129809D01*
X164303452Y-110225047D01*
X162208214Y-110510761D02*
X162303452Y-110558380D01*
X162493928Y-110558380D01*
X162589166Y-110510761D01*
X162636785Y-110463142D01*
X162684404Y-110367904D01*
X162684404Y-110082190D01*
X162636785Y-109986952D01*
X162589166Y-109939333D01*
X162493928Y-109891714D01*
X162303452Y-109891714D01*
X162208214Y-109939333D01*
X161398690Y-110510761D02*
X161493928Y-110558380D01*
X161684404Y-110558380D01*
X161779642Y-110510761D01*
X161827261Y-110415523D01*
X161827261Y-110034571D01*
X161779642Y-109939333D01*
X161684404Y-109891714D01*
X161493928Y-109891714D01*
X161398690Y-109939333D01*
X161351071Y-110034571D01*
X161351071Y-110129809D01*
X161827261Y-110225047D01*
X160922500Y-109891714D02*
X160922500Y-110558380D01*
X160922500Y-109986952D02*
X160874880Y-109939333D01*
X160779642Y-109891714D01*
X160636785Y-109891714D01*
X160541547Y-109939333D01*
X160493928Y-110034571D01*
X160493928Y-110558380D01*
X160160595Y-109891714D02*
X159779642Y-109891714D01*
X160017738Y-109558380D02*
X160017738Y-110415523D01*
X159970119Y-110510761D01*
X159874880Y-110558380D01*
X159779642Y-110558380D01*
X159446309Y-110558380D02*
X159446309Y-109891714D01*
X159446309Y-110082190D02*
X159398690Y-109986952D01*
X159351071Y-109939333D01*
X159255833Y-109891714D01*
X159160595Y-109891714D01*
X158398690Y-110558380D02*
X158398690Y-110034571D01*
X158446309Y-109939333D01*
X158541547Y-109891714D01*
X158732023Y-109891714D01*
X158827261Y-109939333D01*
X158398690Y-110510761D02*
X158493928Y-110558380D01*
X158732023Y-110558380D01*
X158827261Y-110510761D01*
X158874880Y-110415523D01*
X158874880Y-110320285D01*
X158827261Y-110225047D01*
X158732023Y-110177428D01*
X158493928Y-110177428D01*
X158398690Y-110129809D01*
X157779642Y-110558380D02*
X157874880Y-110510761D01*
X157922500Y-110415523D01*
X157922500Y-109558380D01*
X152827261Y-110558380D02*
X152827261Y-109891714D01*
X152827261Y-109558380D02*
X152874880Y-109606000D01*
X152827261Y-109653619D01*
X152779642Y-109606000D01*
X152827261Y-109558380D01*
X152827261Y-109653619D01*
X151922500Y-110510761D02*
X152017738Y-110558380D01*
X152208214Y-110558380D01*
X152303452Y-110510761D01*
X152351071Y-110463142D01*
X152398690Y-110367904D01*
X152398690Y-110082190D01*
X152351071Y-109986952D01*
X152303452Y-109939333D01*
X152208214Y-109891714D01*
X152017738Y-109891714D01*
X151922500Y-109939333D01*
X151351071Y-110558380D02*
X151446309Y-110510761D01*
X151493928Y-110463142D01*
X151541547Y-110367904D01*
X151541547Y-110082190D01*
X151493928Y-109986952D01*
X151446309Y-109939333D01*
X151351071Y-109891714D01*
X151208214Y-109891714D01*
X151112976Y-109939333D01*
X151065357Y-109986952D01*
X151017738Y-110082190D01*
X151017738Y-110367904D01*
X151065357Y-110463142D01*
X151112976Y-110510761D01*
X151208214Y-110558380D01*
X151351071Y-110558380D01*
X150589166Y-109891714D02*
X150589166Y-110558380D01*
X150589166Y-109986952D02*
X150541547Y-109939333D01*
X150446309Y-109891714D01*
X150303452Y-109891714D01*
X150208214Y-109939333D01*
X150160595Y-110034571D01*
X150160595Y-110558380D01*
X148779642Y-110558380D02*
X148874880Y-110510761D01*
X148922500Y-110463142D01*
X148970119Y-110367904D01*
X148970119Y-110082190D01*
X148922500Y-109986952D01*
X148874880Y-109939333D01*
X148779642Y-109891714D01*
X148636785Y-109891714D01*
X148541547Y-109939333D01*
X148493928Y-109986952D01*
X148446309Y-110082190D01*
X148446309Y-110367904D01*
X148493928Y-110463142D01*
X148541547Y-110510761D01*
X148636785Y-110558380D01*
X148779642Y-110558380D01*
X148017738Y-109891714D02*
X148017738Y-110558380D01*
X148017738Y-109986952D02*
X147970119Y-109939333D01*
X147874880Y-109891714D01*
X147732023Y-109891714D01*
X147636785Y-109939333D01*
X147589166Y-110034571D01*
X147589166Y-110558380D01*
X146493928Y-109891714D02*
X146112976Y-109891714D01*
X146351071Y-109558380D02*
X146351071Y-110415523D01*
X146303452Y-110510761D01*
X146208214Y-110558380D01*
X146112976Y-110558380D01*
X145779642Y-110558380D02*
X145779642Y-109558380D01*
X145351071Y-110558380D02*
X145351071Y-110034571D01*
X145398690Y-109939333D01*
X145493928Y-109891714D01*
X145636785Y-109891714D01*
X145732023Y-109939333D01*
X145779642Y-109986952D01*
X144874880Y-110558380D02*
X144874880Y-109891714D01*
X144874880Y-109558380D02*
X144922500Y-109606000D01*
X144874880Y-109653619D01*
X144827261Y-109606000D01*
X144874880Y-109558380D01*
X144874880Y-109653619D01*
X144446309Y-110510761D02*
X144351071Y-110558380D01*
X144160595Y-110558380D01*
X144065357Y-110510761D01*
X144017738Y-110415523D01*
X144017738Y-110367904D01*
X144065357Y-110272666D01*
X144160595Y-110225047D01*
X144303452Y-110225047D01*
X144398690Y-110177428D01*
X144446309Y-110082190D01*
X144446309Y-110034571D01*
X144398690Y-109939333D01*
X144303452Y-109891714D01*
X144160595Y-109891714D01*
X144065357Y-109939333D01*
X142398690Y-110510761D02*
X142493928Y-110558380D01*
X142684404Y-110558380D01*
X142779642Y-110510761D01*
X142827261Y-110463142D01*
X142874880Y-110367904D01*
X142874880Y-110082190D01*
X142827261Y-109986952D01*
X142779642Y-109939333D01*
X142684404Y-109891714D01*
X142493928Y-109891714D01*
X142398690Y-109939333D01*
X141541547Y-110558380D02*
X141541547Y-110034571D01*
X141589166Y-109939333D01*
X141684404Y-109891714D01*
X141874880Y-109891714D01*
X141970119Y-109939333D01*
X141541547Y-110510761D02*
X141636785Y-110558380D01*
X141874880Y-110558380D01*
X141970119Y-110510761D01*
X142017738Y-110415523D01*
X142017738Y-110320285D01*
X141970119Y-110225047D01*
X141874880Y-110177428D01*
X141636785Y-110177428D01*
X141541547Y-110129809D01*
X141065357Y-110558380D02*
X141065357Y-109891714D01*
X141065357Y-110082190D02*
X141017738Y-109986952D01*
X140970119Y-109939333D01*
X140874880Y-109891714D01*
X140779642Y-109891714D01*
X140017738Y-110558380D02*
X140017738Y-109558380D01*
X140017738Y-110510761D02*
X140112976Y-110558380D01*
X140303452Y-110558380D01*
X140398690Y-110510761D01*
X140446309Y-110463142D01*
X140493928Y-110367904D01*
X140493928Y-110082190D01*
X140446309Y-109986952D01*
X140398690Y-109939333D01*
X140303452Y-109891714D01*
X140112976Y-109891714D01*
X140017738Y-109939333D01*
X139493928Y-109558380D02*
X139493928Y-109606000D01*
X139541547Y-109701238D01*
X139589166Y-109748857D01*
X139112976Y-110510761D02*
X139017738Y-110558380D01*
X138827261Y-110558380D01*
X138732023Y-110510761D01*
X138684404Y-110415523D01*
X138684404Y-110367904D01*
X138732023Y-110272666D01*
X138827261Y-110225047D01*
X138970119Y-110225047D01*
X139065357Y-110177428D01*
X139112976Y-110082190D01*
X139112976Y-110034571D01*
X139065357Y-109939333D01*
X138970119Y-109891714D01*
X138827261Y-109891714D01*
X138732023Y-109939333D01*
X137636785Y-109891714D02*
X137255833Y-109891714D01*
X137493928Y-110558380D02*
X137493928Y-109701238D01*
X137446309Y-109606000D01*
X137351071Y-109558380D01*
X137255833Y-109558380D01*
X136922500Y-110558380D02*
X136922500Y-109891714D01*
X136922500Y-110082190D02*
X136874880Y-109986952D01*
X136827261Y-109939333D01*
X136732023Y-109891714D01*
X136636785Y-109891714D01*
X136160595Y-110558380D02*
X136255833Y-110510761D01*
X136303452Y-110463142D01*
X136351071Y-110367904D01*
X136351071Y-110082190D01*
X136303452Y-109986952D01*
X136255833Y-109939333D01*
X136160595Y-109891714D01*
X136017738Y-109891714D01*
X135922500Y-109939333D01*
X135874880Y-109986952D01*
X135827261Y-110082190D01*
X135827261Y-110367904D01*
X135874880Y-110463142D01*
X135922500Y-110510761D01*
X136017738Y-110558380D01*
X136160595Y-110558380D01*
X135398690Y-109891714D02*
X135398690Y-110558380D01*
X135398690Y-109986952D02*
X135351071Y-109939333D01*
X135255833Y-109891714D01*
X135112976Y-109891714D01*
X135017738Y-109939333D01*
X134970119Y-110034571D01*
X134970119Y-110558380D01*
X134636785Y-109891714D02*
X134255833Y-109891714D01*
X134493928Y-109558380D02*
X134493928Y-110415523D01*
X134446309Y-110510761D01*
X134351071Y-110558380D01*
X134255833Y-110558380D01*
X133970119Y-110510761D02*
X133874880Y-110558380D01*
X133684404Y-110558380D01*
X133589166Y-110510761D01*
X133541547Y-110415523D01*
X133541547Y-110367904D01*
X133589166Y-110272666D01*
X133684404Y-110225047D01*
X133827261Y-110225047D01*
X133922500Y-110177428D01*
X133970119Y-110082190D01*
X133970119Y-110034571D01*
X133922500Y-109939333D01*
X133827261Y-109891714D01*
X133684404Y-109891714D01*
X133589166Y-109939333D01*
X133112976Y-110558380D02*
X133112976Y-109891714D01*
X133112976Y-109558380D02*
X133160595Y-109606000D01*
X133112976Y-109653619D01*
X133065357Y-109606000D01*
X133112976Y-109558380D01*
X133112976Y-109653619D01*
X132208214Y-110558380D02*
X132208214Y-109558380D01*
X132208214Y-110510761D02*
X132303452Y-110558380D01*
X132493928Y-110558380D01*
X132589166Y-110510761D01*
X132636785Y-110463142D01*
X132684404Y-110367904D01*
X132684404Y-110082190D01*
X132636785Y-109986952D01*
X132589166Y-109939333D01*
X132493928Y-109891714D01*
X132303452Y-109891714D01*
X132208214Y-109939333D01*
X131351071Y-110510761D02*
X131446309Y-110558380D01*
X131636785Y-110558380D01*
X131732023Y-110510761D01*
X131779642Y-110415523D01*
X131779642Y-110034571D01*
X131732023Y-109939333D01*
X131636785Y-109891714D01*
X131446309Y-109891714D01*
X131351071Y-109939333D01*
X131303452Y-110034571D01*
X131303452Y-110129809D01*
X131779642Y-110225047D01*
X181141714Y-124690190D02*
X181189333Y-124642571D01*
X181284571Y-124594952D01*
X181379809Y-124594952D01*
X181475047Y-124642571D01*
X181522666Y-124690190D01*
X181570285Y-124785428D01*
X181570285Y-124880666D01*
X181522666Y-124975904D01*
X181475047Y-125023523D01*
X181379809Y-125071142D01*
X181284571Y-125071142D01*
X181189333Y-125023523D01*
X181141714Y-124975904D01*
X181141714Y-124594952D02*
X181141714Y-124975904D01*
X181094095Y-125023523D01*
X181046476Y-125023523D01*
X180951238Y-124975904D01*
X180903619Y-124880666D01*
X180903619Y-124642571D01*
X180998857Y-124499714D01*
X181141714Y-124404476D01*
X181332190Y-124356857D01*
X181522666Y-124404476D01*
X181665523Y-124499714D01*
X181760761Y-124642571D01*
X181808380Y-124833047D01*
X181760761Y-125023523D01*
X181665523Y-125166380D01*
X181522666Y-125261619D01*
X181332190Y-125309238D01*
X181141714Y-125261619D01*
X180998857Y-125166380D01*
D11*
X183332380Y-125166380D02*
X183332380Y-124166380D01*
X182903809Y-125166380D02*
X182903809Y-124642571D01*
X182951428Y-124547333D01*
X183046666Y-124499714D01*
X183189523Y-124499714D01*
X183284761Y-124547333D01*
X183332380Y-124594952D01*
X182427619Y-125166380D02*
X182427619Y-124499714D01*
X182427619Y-124166380D02*
X182475238Y-124214000D01*
X182427619Y-124261619D01*
X182380000Y-124214000D01*
X182427619Y-124166380D01*
X182427619Y-124261619D01*
D10*
X138961714Y-79906761D02*
X138818857Y-79954380D01*
X138580761Y-79954380D01*
X138485523Y-79906761D01*
X138437904Y-79859142D01*
X138390285Y-79763904D01*
X138390285Y-79668666D01*
X138437904Y-79573428D01*
X138485523Y-79525809D01*
X138580761Y-79478190D01*
X138771238Y-79430571D01*
X138866476Y-79382952D01*
X138914095Y-79335333D01*
X138961714Y-79240095D01*
X138961714Y-79144857D01*
X138914095Y-79049619D01*
X138866476Y-79002000D01*
X138771238Y-78954380D01*
X138533142Y-78954380D01*
X138390285Y-79002000D01*
X137390285Y-79859142D02*
X137437904Y-79906761D01*
X137580761Y-79954380D01*
X137676000Y-79954380D01*
X137818857Y-79906761D01*
X137914095Y-79811523D01*
X137961714Y-79716285D01*
X138009333Y-79525809D01*
X138009333Y-79382952D01*
X137961714Y-79192476D01*
X137914095Y-79097238D01*
X137818857Y-79002000D01*
X137676000Y-78954380D01*
X137580761Y-78954380D01*
X137437904Y-79002000D01*
X137390285Y-79049619D01*
X138247428Y-76327047D02*
X138247428Y-77088952D01*
X138628380Y-76708000D02*
X137866476Y-76708000D01*
X137795047Y-74096571D02*
X138556952Y-74096571D01*
X145351428Y-77414380D02*
X145351428Y-76414380D01*
X145018095Y-77128666D01*
X144684761Y-76414380D01*
X144684761Y-77414380D01*
X144208571Y-77414380D02*
X144208571Y-76414380D01*
X145383142Y-74620380D02*
X145383142Y-73620380D01*
X145049809Y-74334666D01*
X144716476Y-73620380D01*
X144716476Y-74620380D01*
X144049809Y-73620380D02*
X143859333Y-73620380D01*
X143764095Y-73668000D01*
X143668857Y-73763238D01*
X143621238Y-73953714D01*
X143621238Y-74287047D01*
X143668857Y-74477523D01*
X143764095Y-74572761D01*
X143859333Y-74620380D01*
X144049809Y-74620380D01*
X144145047Y-74572761D01*
X144240285Y-74477523D01*
X144287904Y-74287047D01*
X144287904Y-73953714D01*
X144240285Y-73763238D01*
X144145047Y-73668000D01*
X144049809Y-73620380D01*
X151272857Y-74366380D02*
X151606190Y-73890190D01*
X151844285Y-74366380D02*
X151844285Y-73366380D01*
X151463333Y-73366380D01*
X151368095Y-73414000D01*
X151320476Y-73461619D01*
X151272857Y-73556857D01*
X151272857Y-73699714D01*
X151320476Y-73794952D01*
X151368095Y-73842571D01*
X151463333Y-73890190D01*
X151844285Y-73890190D01*
X150844285Y-73842571D02*
X150510952Y-73842571D01*
X150368095Y-74366380D02*
X150844285Y-74366380D01*
X150844285Y-73366380D01*
X150368095Y-73366380D01*
D12*
X195757357Y-94404571D02*
X195757357Y-92904571D01*
X195757357Y-93618857D02*
X194900214Y-93618857D01*
X194900214Y-94404571D02*
X194900214Y-92904571D01*
X193971642Y-94404571D02*
X194114500Y-94333142D01*
X194185928Y-94261714D01*
X194257357Y-94118857D01*
X194257357Y-93690285D01*
X194185928Y-93547428D01*
X194114500Y-93476000D01*
X193971642Y-93404571D01*
X193757357Y-93404571D01*
X193614500Y-93476000D01*
X193543071Y-93547428D01*
X193471642Y-93690285D01*
X193471642Y-94118857D01*
X193543071Y-94261714D01*
X193614500Y-94333142D01*
X193757357Y-94404571D01*
X193971642Y-94404571D01*
X192971642Y-93404571D02*
X192685928Y-94404571D01*
X192400214Y-93690285D01*
X192114500Y-94404571D01*
X191828785Y-93404571D01*
X190328785Y-93404571D02*
X189757357Y-93404571D01*
X190114500Y-92904571D02*
X190114500Y-94190285D01*
X190043071Y-94333142D01*
X189900214Y-94404571D01*
X189757357Y-94404571D01*
X189043071Y-94404571D02*
X189185928Y-94333142D01*
X189257357Y-94261714D01*
X189328785Y-94118857D01*
X189328785Y-93690285D01*
X189257357Y-93547428D01*
X189185928Y-93476000D01*
X189043071Y-93404571D01*
X188828785Y-93404571D01*
X188685928Y-93476000D01*
X188614500Y-93547428D01*
X188543071Y-93690285D01*
X188543071Y-94118857D01*
X188614500Y-94261714D01*
X188685928Y-94333142D01*
X188828785Y-94404571D01*
X189043071Y-94404571D01*
X186757357Y-93404571D02*
X186757357Y-94904571D01*
X186757357Y-93476000D02*
X186614500Y-93404571D01*
X186328785Y-93404571D01*
X186185928Y-93476000D01*
X186114500Y-93547428D01*
X186043071Y-93690285D01*
X186043071Y-94118857D01*
X186114500Y-94261714D01*
X186185928Y-94333142D01*
X186328785Y-94404571D01*
X186614500Y-94404571D01*
X186757357Y-94333142D01*
X185185928Y-94404571D02*
X185328785Y-94333142D01*
X185400214Y-94190285D01*
X185400214Y-92904571D01*
X183971642Y-94404571D02*
X183971642Y-93618857D01*
X184043071Y-93476000D01*
X184185928Y-93404571D01*
X184471642Y-93404571D01*
X184614500Y-93476000D01*
X183971642Y-94333142D02*
X184114500Y-94404571D01*
X184471642Y-94404571D01*
X184614500Y-94333142D01*
X184685928Y-94190285D01*
X184685928Y-94047428D01*
X184614500Y-93904571D01*
X184471642Y-93833142D01*
X184114500Y-93833142D01*
X183971642Y-93761714D01*
X183400214Y-93404571D02*
X183043071Y-94404571D01*
X182685928Y-93404571D02*
X183043071Y-94404571D01*
X183185928Y-94761714D01*
X183257357Y-94833142D01*
X183400214Y-94904571D01*
X182114500Y-94261714D02*
X182043071Y-94333142D01*
X182114500Y-94404571D01*
X182185928Y-94333142D01*
X182114500Y-94261714D01*
X182114500Y-94404571D01*
X182114500Y-93476000D02*
X182043071Y-93547428D01*
X182114500Y-93618857D01*
X182185928Y-93547428D01*
X182114500Y-93476000D01*
X182114500Y-93618857D01*
D11*
X180267714Y-124499714D02*
X180267714Y-125356857D01*
X180315333Y-125452095D01*
X180410571Y-125499714D01*
X180458190Y-125499714D01*
X180267714Y-124166380D02*
X180315333Y-124214000D01*
X180267714Y-124261619D01*
X180220095Y-124214000D01*
X180267714Y-124166380D01*
X180267714Y-124261619D01*
X179362952Y-125166380D02*
X179362952Y-124642571D01*
X179410571Y-124547333D01*
X179505809Y-124499714D01*
X179696285Y-124499714D01*
X179791523Y-124547333D01*
X179362952Y-125118761D02*
X179458190Y-125166380D01*
X179696285Y-125166380D01*
X179791523Y-125118761D01*
X179839142Y-125023523D01*
X179839142Y-124928285D01*
X179791523Y-124833047D01*
X179696285Y-124785428D01*
X179458190Y-124785428D01*
X179362952Y-124737809D01*
X178886761Y-125166380D02*
X178886761Y-124499714D01*
X178886761Y-124594952D02*
X178839142Y-124547333D01*
X178743904Y-124499714D01*
X178601047Y-124499714D01*
X178505809Y-124547333D01*
X178458190Y-124642571D01*
X178458190Y-125166380D01*
X178458190Y-124642571D02*
X178410571Y-124547333D01*
X178315333Y-124499714D01*
X178172476Y-124499714D01*
X178077238Y-124547333D01*
X178029619Y-124642571D01*
X178029619Y-125166380D01*
X177172476Y-125118761D02*
X177267714Y-125166380D01*
X177458190Y-125166380D01*
X177553428Y-125118761D01*
X177601047Y-125023523D01*
X177601047Y-124642571D01*
X177553428Y-124547333D01*
X177458190Y-124499714D01*
X177267714Y-124499714D01*
X177172476Y-124547333D01*
X177124857Y-124642571D01*
X177124857Y-124737809D01*
X177601047Y-124833047D01*
X176743904Y-125118761D02*
X176648666Y-125166380D01*
X176458190Y-125166380D01*
X176362952Y-125118761D01*
X176315333Y-125023523D01*
X176315333Y-124975904D01*
X176362952Y-124880666D01*
X176458190Y-124833047D01*
X176601047Y-124833047D01*
X176696285Y-124785428D01*
X176743904Y-124690190D01*
X176743904Y-124642571D01*
X176696285Y-124547333D01*
X176601047Y-124499714D01*
X176458190Y-124499714D01*
X176362952Y-124547333D01*
X175886761Y-125166380D02*
X175886761Y-124499714D01*
X175886761Y-124594952D02*
X175839142Y-124547333D01*
X175743904Y-124499714D01*
X175601047Y-124499714D01*
X175505809Y-124547333D01*
X175458190Y-124642571D01*
X175458190Y-125166380D01*
X175458190Y-124642571D02*
X175410571Y-124547333D01*
X175315333Y-124499714D01*
X175172476Y-124499714D01*
X175077238Y-124547333D01*
X175029619Y-124642571D01*
X175029619Y-125166380D01*
X174553428Y-125166380D02*
X174553428Y-124499714D01*
X174553428Y-124166380D02*
X174601047Y-124214000D01*
X174553428Y-124261619D01*
X174505809Y-124214000D01*
X174553428Y-124166380D01*
X174553428Y-124261619D01*
X173934380Y-125166380D02*
X174029619Y-125118761D01*
X174077238Y-125023523D01*
X174077238Y-124166380D01*
X173410571Y-125166380D02*
X173505809Y-125118761D01*
X173553428Y-125023523D01*
X173553428Y-124166380D01*
X172648666Y-125118761D02*
X172743904Y-125166380D01*
X172934380Y-125166380D01*
X173029619Y-125118761D01*
X173077238Y-125023523D01*
X173077238Y-124642571D01*
X173029619Y-124547333D01*
X172934380Y-124499714D01*
X172743904Y-124499714D01*
X172648666Y-124547333D01*
X172601047Y-124642571D01*
X172601047Y-124737809D01*
X173077238Y-124833047D01*
X172172476Y-125166380D02*
X172172476Y-124499714D01*
X172172476Y-124690190D02*
X172124857Y-124594952D01*
X172077238Y-124547333D01*
X171982000Y-124499714D01*
X171886761Y-124499714D01*
X171553428Y-125071142D02*
X171505809Y-125118761D01*
X171553428Y-125166380D01*
X171601047Y-125118761D01*
X171553428Y-125071142D01*
X171553428Y-125166380D01*
X170648666Y-125166380D02*
X170648666Y-124166380D01*
X170648666Y-125118761D02*
X170743904Y-125166380D01*
X170934380Y-125166380D01*
X171029619Y-125118761D01*
X171077238Y-125071142D01*
X171124857Y-124975904D01*
X171124857Y-124690190D01*
X171077238Y-124594952D01*
X171029619Y-124547333D01*
X170934380Y-124499714D01*
X170743904Y-124499714D01*
X170648666Y-124547333D01*
X169791523Y-125118761D02*
X169886761Y-125166380D01*
X170077238Y-125166380D01*
X170172476Y-125118761D01*
X170220095Y-125023523D01*
X170220095Y-124642571D01*
X170172476Y-124547333D01*
X170077238Y-124499714D01*
X169886761Y-124499714D01*
X169791523Y-124547333D01*
X169743904Y-124642571D01*
X169743904Y-124737809D01*
X170220095Y-124833047D01*
X169362952Y-125118761D02*
X169267714Y-125166380D01*
X169077238Y-125166380D01*
X168982000Y-125118761D01*
X168934380Y-125023523D01*
X168934380Y-124975904D01*
X168982000Y-124880666D01*
X169077238Y-124833047D01*
X169220095Y-124833047D01*
X169315333Y-124785428D01*
X169362952Y-124690190D01*
X169362952Y-124642571D01*
X169315333Y-124547333D01*
X169220095Y-124499714D01*
X169077238Y-124499714D01*
X168982000Y-124547333D01*
X168505809Y-125166380D02*
X168505809Y-124499714D01*
X168505809Y-124166380D02*
X168553428Y-124214000D01*
X168505809Y-124261619D01*
X168458190Y-124214000D01*
X168505809Y-124166380D01*
X168505809Y-124261619D01*
X167601047Y-124499714D02*
X167601047Y-125309238D01*
X167648666Y-125404476D01*
X167696285Y-125452095D01*
X167791523Y-125499714D01*
X167934380Y-125499714D01*
X168029619Y-125452095D01*
X167601047Y-125118761D02*
X167696285Y-125166380D01*
X167886761Y-125166380D01*
X167982000Y-125118761D01*
X168029619Y-125071142D01*
X168077238Y-124975904D01*
X168077238Y-124690190D01*
X168029619Y-124594952D01*
X167982000Y-124547333D01*
X167886761Y-124499714D01*
X167696285Y-124499714D01*
X167601047Y-124547333D01*
X167124857Y-124499714D02*
X167124857Y-125166380D01*
X167124857Y-124594952D02*
X167077238Y-124547333D01*
X166982000Y-124499714D01*
X166839142Y-124499714D01*
X166743904Y-124547333D01*
X166696285Y-124642571D01*
X166696285Y-125166380D01*
X153161047Y-125039428D02*
X152399142Y-125039428D01*
X152780095Y-125420380D02*
X152780095Y-124658476D01*
X151494380Y-124753714D02*
X151494380Y-125420380D01*
X151732476Y-124372761D02*
X151970571Y-125087047D01*
X151351523Y-125087047D01*
X150542000Y-124753714D02*
X150542000Y-125420380D01*
X150780095Y-124372761D02*
X151018190Y-125087047D01*
X150399142Y-125087047D01*
X148970571Y-125801333D02*
X149018190Y-125753714D01*
X149113428Y-125610857D01*
X149161047Y-125515619D01*
X149208666Y-125372761D01*
X149256285Y-125134666D01*
X149256285Y-124944190D01*
X149208666Y-124706095D01*
X149161047Y-124563238D01*
X149113428Y-124468000D01*
X149018190Y-124325142D01*
X148970571Y-124277523D01*
X148399142Y-124420380D02*
X148303904Y-124420380D01*
X148208666Y-124468000D01*
X148161047Y-124515619D01*
X148113428Y-124610857D01*
X148065809Y-124801333D01*
X148065809Y-125039428D01*
X148113428Y-125229904D01*
X148161047Y-125325142D01*
X148208666Y-125372761D01*
X148303904Y-125420380D01*
X148399142Y-125420380D01*
X148494380Y-125372761D01*
X148542000Y-125325142D01*
X148589619Y-125229904D01*
X148637238Y-125039428D01*
X148637238Y-124801333D01*
X148589619Y-124610857D01*
X148542000Y-124515619D01*
X148494380Y-124468000D01*
X148399142Y-124420380D01*
X147732476Y-125801333D02*
X147684857Y-125753714D01*
X147589619Y-125610857D01*
X147542000Y-125515619D01*
X147494380Y-125372761D01*
X147446761Y-125134666D01*
X147446761Y-124944190D01*
X147494380Y-124706095D01*
X147542000Y-124563238D01*
X147589619Y-124468000D01*
X147684857Y-124325142D01*
X147732476Y-124277523D01*
X147065809Y-124420380D02*
X146399142Y-124420380D01*
X146827714Y-125420380D01*
X145970571Y-125420380D02*
X145780095Y-125420380D01*
X145684857Y-125372761D01*
X145637238Y-125325142D01*
X145542000Y-125182285D01*
X145494380Y-124991809D01*
X145494380Y-124610857D01*
X145542000Y-124515619D01*
X145589619Y-124468000D01*
X145684857Y-124420380D01*
X145875333Y-124420380D01*
X145970571Y-124468000D01*
X146018190Y-124515619D01*
X146065809Y-124610857D01*
X146065809Y-124848952D01*
X146018190Y-124944190D01*
X145970571Y-124991809D01*
X145875333Y-125039428D01*
X145684857Y-125039428D01*
X145589619Y-124991809D01*
X145542000Y-124944190D01*
X145494380Y-124848952D01*
X144637238Y-124420380D02*
X144827714Y-124420380D01*
X144922952Y-124468000D01*
X144970571Y-124515619D01*
X145065809Y-124658476D01*
X145113428Y-124848952D01*
X145113428Y-125229904D01*
X145065809Y-125325142D01*
X145018190Y-125372761D01*
X144922952Y-125420380D01*
X144732476Y-125420380D01*
X144637238Y-125372761D01*
X144589619Y-125325142D01*
X144542000Y-125229904D01*
X144542000Y-124991809D01*
X144589619Y-124896571D01*
X144637238Y-124848952D01*
X144732476Y-124801333D01*
X144922952Y-124801333D01*
X145018190Y-124848952D01*
X145065809Y-124896571D01*
X145113428Y-124991809D01*
X143922952Y-124420380D02*
X143827714Y-124420380D01*
X143732476Y-124468000D01*
X143684857Y-124515619D01*
X143637238Y-124610857D01*
X143589619Y-124801333D01*
X143589619Y-125039428D01*
X143637238Y-125229904D01*
X143684857Y-125325142D01*
X143732476Y-125372761D01*
X143827714Y-125420380D01*
X143922952Y-125420380D01*
X144018190Y-125372761D01*
X144065809Y-125325142D01*
X144113428Y-125229904D01*
X144161047Y-125039428D01*
X144161047Y-124801333D01*
X144113428Y-124610857D01*
X144065809Y-124515619D01*
X144018190Y-124468000D01*
X143922952Y-124420380D01*
X142732476Y-124420380D02*
X142922952Y-124420380D01*
X143018190Y-124468000D01*
X143065809Y-124515619D01*
X143161047Y-124658476D01*
X143208666Y-124848952D01*
X143208666Y-125229904D01*
X143161047Y-125325142D01*
X143113428Y-125372761D01*
X143018190Y-125420380D01*
X142827714Y-125420380D01*
X142732476Y-125372761D01*
X142684857Y-125325142D01*
X142637238Y-125229904D01*
X142637238Y-124991809D01*
X142684857Y-124896571D01*
X142732476Y-124848952D01*
X142827714Y-124801333D01*
X143018190Y-124801333D01*
X143113428Y-124848952D01*
X143161047Y-124896571D01*
X143208666Y-124991809D01*
X141780095Y-124753714D02*
X141780095Y-125420380D01*
X142018190Y-124372761D02*
X142256285Y-125087047D01*
X141637238Y-125087047D01*
X140827714Y-124753714D02*
X140827714Y-125420380D01*
X141065809Y-124372761D02*
X141303904Y-125087047D01*
X140684857Y-125087047D01*
X140256285Y-125420380D02*
X140065809Y-125420380D01*
X139970571Y-125372761D01*
X139922952Y-125325142D01*
X139827714Y-125182285D01*
X139780095Y-124991809D01*
X139780095Y-124610857D01*
X139827714Y-124515619D01*
X139875333Y-124468000D01*
X139970571Y-124420380D01*
X140161047Y-124420380D01*
X140256285Y-124468000D01*
X140303904Y-124515619D01*
X140351523Y-124610857D01*
X140351523Y-124848952D01*
X140303904Y-124944190D01*
X140256285Y-124991809D01*
X140161047Y-125039428D01*
X139970571Y-125039428D01*
X139875333Y-124991809D01*
X139827714Y-124944190D01*
X139780095Y-124848952D01*
X139161047Y-124420380D02*
X139065809Y-124420380D01*
X138970571Y-124468000D01*
X138922952Y-124515619D01*
X138875333Y-124610857D01*
X138827714Y-124801333D01*
X138827714Y-125039428D01*
X138875333Y-125229904D01*
X138922952Y-125325142D01*
X138970571Y-125372761D01*
X139065809Y-125420380D01*
X139161047Y-125420380D01*
X139256285Y-125372761D01*
X139303904Y-125325142D01*
X139351523Y-125229904D01*
X139399142Y-125039428D01*
X139399142Y-124801333D01*
X139351523Y-124610857D01*
X139303904Y-124515619D01*
X139256285Y-124468000D01*
X139161047Y-124420380D01*
X137970571Y-124753714D02*
X137970571Y-125420380D01*
X138208666Y-124372761D02*
X138446761Y-125087047D01*
X137827714Y-125087047D01*
X191425714Y-105005714D02*
X191425714Y-105862857D01*
X191473333Y-105958095D01*
X191568571Y-106005714D01*
X191616190Y-106005714D01*
X191425714Y-104672380D02*
X191473333Y-104720000D01*
X191425714Y-104767619D01*
X191378095Y-104720000D01*
X191425714Y-104672380D01*
X191425714Y-104767619D01*
X190520952Y-105672380D02*
X190520952Y-105148571D01*
X190568571Y-105053333D01*
X190663809Y-105005714D01*
X190854285Y-105005714D01*
X190949523Y-105053333D01*
X190520952Y-105624761D02*
X190616190Y-105672380D01*
X190854285Y-105672380D01*
X190949523Y-105624761D01*
X190997142Y-105529523D01*
X190997142Y-105434285D01*
X190949523Y-105339047D01*
X190854285Y-105291428D01*
X190616190Y-105291428D01*
X190520952Y-105243809D01*
X190044761Y-105672380D02*
X190044761Y-105005714D01*
X190044761Y-105100952D02*
X189997142Y-105053333D01*
X189901904Y-105005714D01*
X189759047Y-105005714D01*
X189663809Y-105053333D01*
X189616190Y-105148571D01*
X189616190Y-105672380D01*
X189616190Y-105148571D02*
X189568571Y-105053333D01*
X189473333Y-105005714D01*
X189330476Y-105005714D01*
X189235238Y-105053333D01*
X189187619Y-105148571D01*
X189187619Y-105672380D01*
X188330476Y-105624761D02*
X188425714Y-105672380D01*
X188616190Y-105672380D01*
X188711428Y-105624761D01*
X188759047Y-105529523D01*
X188759047Y-105148571D01*
X188711428Y-105053333D01*
X188616190Y-105005714D01*
X188425714Y-105005714D01*
X188330476Y-105053333D01*
X188282857Y-105148571D01*
X188282857Y-105243809D01*
X188759047Y-105339047D01*
X187901904Y-105624761D02*
X187806666Y-105672380D01*
X187616190Y-105672380D01*
X187520952Y-105624761D01*
X187473333Y-105529523D01*
X187473333Y-105481904D01*
X187520952Y-105386666D01*
X187616190Y-105339047D01*
X187759047Y-105339047D01*
X187854285Y-105291428D01*
X187901904Y-105196190D01*
X187901904Y-105148571D01*
X187854285Y-105053333D01*
X187759047Y-105005714D01*
X187616190Y-105005714D01*
X187520952Y-105053333D01*
X187044761Y-105672380D02*
X187044761Y-105005714D01*
X187044761Y-105100952D02*
X186997142Y-105053333D01*
X186901904Y-105005714D01*
X186759047Y-105005714D01*
X186663809Y-105053333D01*
X186616190Y-105148571D01*
X186616190Y-105672380D01*
X186616190Y-105148571D02*
X186568571Y-105053333D01*
X186473333Y-105005714D01*
X186330476Y-105005714D01*
X186235238Y-105053333D01*
X186187619Y-105148571D01*
X186187619Y-105672380D01*
X185711428Y-105672380D02*
X185711428Y-105005714D01*
X185711428Y-104672380D02*
X185759047Y-104720000D01*
X185711428Y-104767619D01*
X185663809Y-104720000D01*
X185711428Y-104672380D01*
X185711428Y-104767619D01*
X185092380Y-105672380D02*
X185187619Y-105624761D01*
X185235238Y-105529523D01*
X185235238Y-104672380D01*
X184568571Y-105672380D02*
X184663809Y-105624761D01*
X184711428Y-105529523D01*
X184711428Y-104672380D01*
X183806666Y-105624761D02*
X183901904Y-105672380D01*
X184092380Y-105672380D01*
X184187619Y-105624761D01*
X184235238Y-105529523D01*
X184235238Y-105148571D01*
X184187619Y-105053333D01*
X184092380Y-105005714D01*
X183901904Y-105005714D01*
X183806666Y-105053333D01*
X183759047Y-105148571D01*
X183759047Y-105243809D01*
X184235238Y-105339047D01*
X183330476Y-105672380D02*
X183330476Y-105005714D01*
X183330476Y-105196190D02*
X183282857Y-105100952D01*
X183235238Y-105053333D01*
X183140000Y-105005714D01*
X183044761Y-105005714D01*
X182711428Y-105577142D02*
X182663809Y-105624761D01*
X182711428Y-105672380D01*
X182759047Y-105624761D01*
X182711428Y-105577142D01*
X182711428Y-105672380D01*
X181806666Y-105672380D02*
X181806666Y-104672380D01*
X181806666Y-105624761D02*
X181901904Y-105672380D01*
X182092380Y-105672380D01*
X182187619Y-105624761D01*
X182235238Y-105577142D01*
X182282857Y-105481904D01*
X182282857Y-105196190D01*
X182235238Y-105100952D01*
X182187619Y-105053333D01*
X182092380Y-105005714D01*
X181901904Y-105005714D01*
X181806666Y-105053333D01*
X180949523Y-105624761D02*
X181044761Y-105672380D01*
X181235238Y-105672380D01*
X181330476Y-105624761D01*
X181378095Y-105529523D01*
X181378095Y-105148571D01*
X181330476Y-105053333D01*
X181235238Y-105005714D01*
X181044761Y-105005714D01*
X180949523Y-105053333D01*
X180901904Y-105148571D01*
X180901904Y-105243809D01*
X181378095Y-105339047D01*
X180520952Y-105624761D02*
X180425714Y-105672380D01*
X180235238Y-105672380D01*
X180140000Y-105624761D01*
X180092380Y-105529523D01*
X180092380Y-105481904D01*
X180140000Y-105386666D01*
X180235238Y-105339047D01*
X180378095Y-105339047D01*
X180473333Y-105291428D01*
X180520952Y-105196190D01*
X180520952Y-105148571D01*
X180473333Y-105053333D01*
X180378095Y-105005714D01*
X180235238Y-105005714D01*
X180140000Y-105053333D01*
X179663809Y-105672380D02*
X179663809Y-105005714D01*
X179663809Y-104672380D02*
X179711428Y-104720000D01*
X179663809Y-104767619D01*
X179616190Y-104720000D01*
X179663809Y-104672380D01*
X179663809Y-104767619D01*
X178759047Y-105005714D02*
X178759047Y-105815238D01*
X178806666Y-105910476D01*
X178854285Y-105958095D01*
X178949523Y-106005714D01*
X179092380Y-106005714D01*
X179187619Y-105958095D01*
X178759047Y-105624761D02*
X178854285Y-105672380D01*
X179044761Y-105672380D01*
X179140000Y-105624761D01*
X179187619Y-105577142D01*
X179235238Y-105481904D01*
X179235238Y-105196190D01*
X179187619Y-105100952D01*
X179140000Y-105053333D01*
X179044761Y-105005714D01*
X178854285Y-105005714D01*
X178759047Y-105053333D01*
X178282857Y-105005714D02*
X178282857Y-105672380D01*
X178282857Y-105100952D02*
X178235238Y-105053333D01*
X178140000Y-105005714D01*
X177997142Y-105005714D01*
X177901904Y-105053333D01*
X177854285Y-105148571D01*
X177854285Y-105672380D01*
D13*
G04 #@! TO.C,P1*
X166160000Y-75270000D02*
X166160000Y-72570000D01*
X158660000Y-75270000D02*
X158660000Y-72570000D01*
D14*
X161160000Y-78770000D02*
G75*
G03X161160000Y-78770000I-100000J0D01*
G01*
D13*
X158660000Y-72570000D02*
X160510000Y-72570000D01*
X166160000Y-72570000D02*
X164310000Y-72570000D01*
D10*
G04 #@! TO.C,U1*
X187357000Y-85185000D02*
X187357000Y-84610000D01*
X197707000Y-85185000D02*
X197707000Y-84510000D01*
X197707000Y-74835000D02*
X197707000Y-75510000D01*
X187357000Y-74835000D02*
X187357000Y-75510000D01*
X187357000Y-85185000D02*
X188032000Y-85185000D01*
X187357000Y-74835000D02*
X188032000Y-74835000D01*
X197707000Y-74835000D02*
X197032000Y-74835000D01*
X197707000Y-85185000D02*
X197032000Y-85185000D01*
X187357000Y-84610000D02*
X186082000Y-84610000D01*
D15*
G04 #@! TO.C,F1*
X170856000Y-72844000D02*
X168856000Y-72844000D01*
X168856000Y-74984000D02*
X170856000Y-74984000D01*
D10*
G04 #@! TO.C,Y1*
X201746000Y-79856000D02*
X202746000Y-79856000D01*
X201646000Y-79956000D02*
X201646000Y-79556000D01*
X204246000Y-79956000D02*
X204246000Y-79556000D01*
D15*
G04 #@! TO.C,D1*
X197110000Y-101020000D02*
X197110000Y-99620000D01*
X197110000Y-99620000D02*
X199910000Y-99620000D01*
X197110000Y-101020000D02*
X199910000Y-101020000D01*
G04 #@! TO.C,D2*
X197082000Y-105856000D02*
X197082000Y-104456000D01*
X197082000Y-104456000D02*
X199882000Y-104456000D01*
X197082000Y-105856000D02*
X199882000Y-105856000D01*
G04 #@! TO.C,D3*
X197120000Y-110570000D02*
X197120000Y-109170000D01*
X197120000Y-109170000D02*
X199920000Y-109170000D01*
X197120000Y-110570000D02*
X199920000Y-110570000D01*
G04 #@! TO.C,D4*
X179048000Y-121604000D02*
X179048000Y-120204000D01*
X179048000Y-120204000D02*
X181848000Y-120204000D01*
X179048000Y-121604000D02*
X181848000Y-121604000D01*
G04 #@! TO.C,D5*
X148822000Y-121858000D02*
X148822000Y-120458000D01*
X148822000Y-120458000D02*
X151622000Y-120458000D01*
X148822000Y-121858000D02*
X151622000Y-121858000D01*
G04 #@! TO.C,R1*
X124556000Y-101210000D02*
X125756000Y-101210000D01*
X125756000Y-99450000D02*
X124556000Y-99450000D01*
G04 #@! TO.C,R2*
X124622000Y-106036000D02*
X125822000Y-106036000D01*
X125822000Y-104276000D02*
X124622000Y-104276000D01*
G04 #@! TO.C,R3*
X124622000Y-110862000D02*
X125822000Y-110862000D01*
X125822000Y-109102000D02*
X124622000Y-109102000D01*
G04 #@! TO.C,R4*
X169834000Y-121784000D02*
X171034000Y-121784000D01*
X171034000Y-120024000D02*
X169834000Y-120024000D01*
G04 #@! TO.C,R5*
X139862000Y-122038000D02*
X141062000Y-122038000D01*
X141062000Y-120278000D02*
X139862000Y-120278000D01*
G04 #@! TO.C,R8*
X181264000Y-79874000D02*
X182464000Y-79874000D01*
X182464000Y-78114000D02*
X181264000Y-78114000D01*
G04 #@! TO.C,R9*
X181264000Y-82414000D02*
X182464000Y-82414000D01*
X182464000Y-80654000D02*
X181264000Y-80654000D01*
G04 #@! TO.C,R10*
X203800000Y-74304000D02*
X202600000Y-74304000D01*
X202600000Y-76064000D02*
X203800000Y-76064000D01*
G04 #@! TO.C,C1*
X203112000Y-85590000D02*
X203112000Y-84590000D01*
X204812000Y-84590000D02*
X204812000Y-85590000D01*
G04 #@! TO.C,C2*
X200826000Y-85590000D02*
X200826000Y-84590000D01*
X202526000Y-84590000D02*
X202526000Y-85590000D01*
G04 #@! TO.C,C3*
X181364000Y-82970000D02*
X182364000Y-82970000D01*
X182364000Y-84670000D02*
X181364000Y-84670000D01*
G04 #@! TO.C,C4*
X136267000Y-72764000D02*
X133017000Y-72764000D01*
X136267000Y-75064000D02*
X133017000Y-75064000D01*
X136267000Y-72764000D02*
X136267000Y-75064000D01*
G04 #@! TO.C,C5*
X136362000Y-75812000D02*
X133112000Y-75812000D01*
X136362000Y-78112000D02*
X133112000Y-78112000D01*
X136362000Y-75812000D02*
X136362000Y-78112000D01*
G04 #@! TO.C,C0*
X196886000Y-94876000D02*
X200136000Y-94876000D01*
X196886000Y-92576000D02*
X200136000Y-92576000D01*
X196886000Y-94876000D02*
X196886000Y-92576000D01*
G04 #@! TO.C,D6*
X177568000Y-72960000D02*
X177568000Y-74360000D01*
X177568000Y-74360000D02*
X174768000Y-74360000D01*
X177568000Y-72960000D02*
X174768000Y-72960000D01*
G04 #@! TO.C,D7*
X177568000Y-75500000D02*
X177568000Y-76900000D01*
X177568000Y-76900000D02*
X174768000Y-76900000D01*
X177568000Y-75500000D02*
X174768000Y-75500000D01*
G04 #@! TO.C,R6*
X181264000Y-74540000D02*
X182464000Y-74540000D01*
X182464000Y-72780000D02*
X181264000Y-72780000D01*
G04 #@! TO.C,R7*
X181264000Y-77080000D02*
X182464000Y-77080000D01*
X182464000Y-75320000D02*
X181264000Y-75320000D01*
G04 #@! TO.C,R11*
X133687078Y-79046000D02*
X133169922Y-79046000D01*
X133687078Y-80466000D02*
X133169922Y-80466000D01*
G04 #@! TO.C,R12*
X125988578Y-74370000D02*
X125471422Y-74370000D01*
X125988578Y-72950000D02*
X125471422Y-72950000D01*
G04 #@! TO.C,R13*
X126067078Y-75490000D02*
X125549922Y-75490000D01*
X126067078Y-76910000D02*
X125549922Y-76910000D01*
G04 #@! TO.C,R14*
X126067078Y-79450000D02*
X125549922Y-79450000D01*
X126067078Y-78030000D02*
X125549922Y-78030000D01*
G04 #@! TO.C,R15*
X125988578Y-80570000D02*
X125471422Y-80570000D01*
X125988578Y-81990000D02*
X125471422Y-81990000D01*
D16*
G04 #@! TO.C,G\002A\002A\002A*
G36*
X155282403Y-108672240D02*
X155195617Y-108680369D01*
X155143201Y-108690565D01*
X154926555Y-108766524D01*
X154734276Y-108865893D01*
X154565954Y-108988995D01*
X154421178Y-109136152D01*
X154299540Y-109307685D01*
X154254169Y-109389169D01*
X154175997Y-109576332D01*
X154127318Y-109774584D01*
X154108245Y-109978581D01*
X154118888Y-110182978D01*
X154159362Y-110382429D01*
X154229435Y-110570862D01*
X154330691Y-110748143D01*
X154459183Y-110908693D01*
X154610992Y-111049061D01*
X154782201Y-111165798D01*
X154968893Y-111255456D01*
X155033134Y-111278481D01*
X155144832Y-111305875D01*
X155277886Y-111323814D01*
X155421025Y-111331930D01*
X155562981Y-111329852D01*
X155692485Y-111317214D01*
X155767280Y-111302501D01*
X155960551Y-111236677D01*
X156142318Y-111141394D01*
X156308401Y-111020024D01*
X156454621Y-110875936D01*
X156576795Y-110712499D01*
X156610461Y-110652540D01*
X156172864Y-110652540D01*
X156151162Y-110707303D01*
X156150734Y-110708132D01*
X156118253Y-110755641D01*
X156076652Y-110781240D01*
X156016849Y-110789085D01*
X155977037Y-110787633D01*
X155906613Y-110776396D01*
X155856438Y-110751412D01*
X155843503Y-110740596D01*
X155808809Y-110699560D01*
X155774260Y-110644837D01*
X155763384Y-110623466D01*
X155751256Y-110594606D01*
X155742034Y-110563344D01*
X155735210Y-110524400D01*
X155730275Y-110472496D01*
X155726721Y-110402353D01*
X155724040Y-110308691D01*
X155721815Y-110191716D01*
X155718749Y-110055777D01*
X155714599Y-109952321D01*
X155709271Y-109879977D01*
X155702668Y-109837377D01*
X155696231Y-109823675D01*
X155652156Y-109811514D01*
X155598037Y-109815608D01*
X155552443Y-109834093D01*
X155546701Y-109838691D01*
X155535085Y-109852387D01*
X155526767Y-109872672D01*
X155521209Y-109904831D01*
X155517875Y-109954149D01*
X155516231Y-110025912D01*
X155515741Y-110125405D01*
X155515734Y-110144260D01*
X155515572Y-110247148D01*
X155514592Y-110321753D01*
X155512056Y-110373659D01*
X155507225Y-110408450D01*
X155499360Y-110431709D01*
X155487722Y-110449020D01*
X155473397Y-110464143D01*
X155446917Y-110486945D01*
X155418342Y-110499021D01*
X155376911Y-110502936D01*
X155316763Y-110501473D01*
X155202467Y-110496466D01*
X155194001Y-110166650D01*
X155185534Y-109836835D01*
X155138967Y-109820482D01*
X155072051Y-109814053D01*
X155045834Y-109820463D01*
X154999267Y-109836798D01*
X154990160Y-110124299D01*
X154986336Y-110221460D01*
X154981521Y-110308253D01*
X154976173Y-110378383D01*
X154970752Y-110425557D01*
X154967001Y-110441903D01*
X154939240Y-110476686D01*
X154892034Y-110496881D01*
X154819559Y-110504668D01*
X154798565Y-110504933D01*
X154747144Y-110505077D01*
X154709394Y-110502499D01*
X154683211Y-110492682D01*
X154666490Y-110471108D01*
X154657126Y-110433261D01*
X154653014Y-110374623D01*
X154652050Y-110290679D01*
X154652134Y-110190688D01*
X154653225Y-110087012D01*
X154656243Y-109988440D01*
X154660804Y-109902794D01*
X154666522Y-109837896D01*
X154670853Y-109809713D01*
X154707044Y-109717924D01*
X154769842Y-109642400D01*
X154853606Y-109589072D01*
X154894823Y-109574396D01*
X154978574Y-109560741D01*
X155074588Y-109560037D01*
X155169286Y-109571283D01*
X155249089Y-109593474D01*
X155267723Y-109601925D01*
X155308721Y-109621582D01*
X155337268Y-109626613D01*
X155369028Y-109616826D01*
X155403161Y-109600254D01*
X155435662Y-109586151D01*
X155472048Y-109576079D01*
X155518963Y-109569231D01*
X155583050Y-109564801D01*
X155670953Y-109561982D01*
X155727400Y-109560900D01*
X155819666Y-109559974D01*
X155902323Y-109560279D01*
X155968292Y-109561705D01*
X156010494Y-109564141D01*
X156019501Y-109565456D01*
X156057601Y-109574245D01*
X156057601Y-110031963D01*
X156058003Y-110182534D01*
X156059569Y-110302842D01*
X156062834Y-110396484D01*
X156068337Y-110467060D01*
X156076613Y-110518165D01*
X156088201Y-110553400D01*
X156103637Y-110576360D01*
X156123457Y-110590645D01*
X156142081Y-110598007D01*
X156169939Y-110617407D01*
X156172864Y-110652540D01*
X156610461Y-110652540D01*
X156641049Y-110598066D01*
X156695015Y-110481126D01*
X156732945Y-110377511D01*
X156757374Y-110276096D01*
X156770837Y-110165756D01*
X156775868Y-110035367D01*
X156776087Y-110005400D01*
X156773233Y-109868984D01*
X156762096Y-109754848D01*
X156740367Y-109651935D01*
X156705734Y-109549188D01*
X156657818Y-109439636D01*
X156579935Y-109302666D01*
X156057601Y-109302666D01*
X156043335Y-109373666D01*
X156005413Y-109427942D01*
X155951143Y-109462465D01*
X155887834Y-109474205D01*
X155822797Y-109460133D01*
X155768431Y-109422502D01*
X155728325Y-109362219D01*
X155716778Y-109297034D01*
X155730762Y-109234257D01*
X155767246Y-109181198D01*
X155823203Y-109145164D01*
X155888267Y-109133333D01*
X155962006Y-109148167D01*
X156017888Y-109189298D01*
X156050853Y-109251666D01*
X156057601Y-109302666D01*
X156579935Y-109302666D01*
X156550818Y-109251459D01*
X156418897Y-109085453D01*
X156264151Y-108943368D01*
X156088675Y-108826952D01*
X155894565Y-108737955D01*
X155769734Y-108698366D01*
X155696814Y-108684632D01*
X155602121Y-108675034D01*
X155495155Y-108669691D01*
X155385415Y-108668720D01*
X155282403Y-108672240D01*
X155282403Y-108672240D01*
G37*
X155282403Y-108672240D02*
X155195617Y-108680369D01*
X155143201Y-108690565D01*
X154926555Y-108766524D01*
X154734276Y-108865893D01*
X154565954Y-108988995D01*
X154421178Y-109136152D01*
X154299540Y-109307685D01*
X154254169Y-109389169D01*
X154175997Y-109576332D01*
X154127318Y-109774584D01*
X154108245Y-109978581D01*
X154118888Y-110182978D01*
X154159362Y-110382429D01*
X154229435Y-110570862D01*
X154330691Y-110748143D01*
X154459183Y-110908693D01*
X154610992Y-111049061D01*
X154782201Y-111165798D01*
X154968893Y-111255456D01*
X155033134Y-111278481D01*
X155144832Y-111305875D01*
X155277886Y-111323814D01*
X155421025Y-111331930D01*
X155562981Y-111329852D01*
X155692485Y-111317214D01*
X155767280Y-111302501D01*
X155960551Y-111236677D01*
X156142318Y-111141394D01*
X156308401Y-111020024D01*
X156454621Y-110875936D01*
X156576795Y-110712499D01*
X156610461Y-110652540D01*
X156172864Y-110652540D01*
X156151162Y-110707303D01*
X156150734Y-110708132D01*
X156118253Y-110755641D01*
X156076652Y-110781240D01*
X156016849Y-110789085D01*
X155977037Y-110787633D01*
X155906613Y-110776396D01*
X155856438Y-110751412D01*
X155843503Y-110740596D01*
X155808809Y-110699560D01*
X155774260Y-110644837D01*
X155763384Y-110623466D01*
X155751256Y-110594606D01*
X155742034Y-110563344D01*
X155735210Y-110524400D01*
X155730275Y-110472496D01*
X155726721Y-110402353D01*
X155724040Y-110308691D01*
X155721815Y-110191716D01*
X155718749Y-110055777D01*
X155714599Y-109952321D01*
X155709271Y-109879977D01*
X155702668Y-109837377D01*
X155696231Y-109823675D01*
X155652156Y-109811514D01*
X155598037Y-109815608D01*
X155552443Y-109834093D01*
X155546701Y-109838691D01*
X155535085Y-109852387D01*
X155526767Y-109872672D01*
X155521209Y-109904831D01*
X155517875Y-109954149D01*
X155516231Y-110025912D01*
X155515741Y-110125405D01*
X155515734Y-110144260D01*
X155515572Y-110247148D01*
X155514592Y-110321753D01*
X155512056Y-110373659D01*
X155507225Y-110408450D01*
X155499360Y-110431709D01*
X155487722Y-110449020D01*
X155473397Y-110464143D01*
X155446917Y-110486945D01*
X155418342Y-110499021D01*
X155376911Y-110502936D01*
X155316763Y-110501473D01*
X155202467Y-110496466D01*
X155194001Y-110166650D01*
X155185534Y-109836835D01*
X155138967Y-109820482D01*
X155072051Y-109814053D01*
X155045834Y-109820463D01*
X154999267Y-109836798D01*
X154990160Y-110124299D01*
X154986336Y-110221460D01*
X154981521Y-110308253D01*
X154976173Y-110378383D01*
X154970752Y-110425557D01*
X154967001Y-110441903D01*
X154939240Y-110476686D01*
X154892034Y-110496881D01*
X154819559Y-110504668D01*
X154798565Y-110504933D01*
X154747144Y-110505077D01*
X154709394Y-110502499D01*
X154683211Y-110492682D01*
X154666490Y-110471108D01*
X154657126Y-110433261D01*
X154653014Y-110374623D01*
X154652050Y-110290679D01*
X154652134Y-110190688D01*
X154653225Y-110087012D01*
X154656243Y-109988440D01*
X154660804Y-109902794D01*
X154666522Y-109837896D01*
X154670853Y-109809713D01*
X154707044Y-109717924D01*
X154769842Y-109642400D01*
X154853606Y-109589072D01*
X154894823Y-109574396D01*
X154978574Y-109560741D01*
X155074588Y-109560037D01*
X155169286Y-109571283D01*
X155249089Y-109593474D01*
X155267723Y-109601925D01*
X155308721Y-109621582D01*
X155337268Y-109626613D01*
X155369028Y-109616826D01*
X155403161Y-109600254D01*
X155435662Y-109586151D01*
X155472048Y-109576079D01*
X155518963Y-109569231D01*
X155583050Y-109564801D01*
X155670953Y-109561982D01*
X155727400Y-109560900D01*
X155819666Y-109559974D01*
X155902323Y-109560279D01*
X155968292Y-109561705D01*
X156010494Y-109564141D01*
X156019501Y-109565456D01*
X156057601Y-109574245D01*
X156057601Y-110031963D01*
X156058003Y-110182534D01*
X156059569Y-110302842D01*
X156062834Y-110396484D01*
X156068337Y-110467060D01*
X156076613Y-110518165D01*
X156088201Y-110553400D01*
X156103637Y-110576360D01*
X156123457Y-110590645D01*
X156142081Y-110598007D01*
X156169939Y-110617407D01*
X156172864Y-110652540D01*
X156610461Y-110652540D01*
X156641049Y-110598066D01*
X156695015Y-110481126D01*
X156732945Y-110377511D01*
X156757374Y-110276096D01*
X156770837Y-110165756D01*
X156775868Y-110035367D01*
X156776087Y-110005400D01*
X156773233Y-109868984D01*
X156762096Y-109754848D01*
X156740367Y-109651935D01*
X156705734Y-109549188D01*
X156657818Y-109439636D01*
X156579935Y-109302666D01*
X156057601Y-109302666D01*
X156043335Y-109373666D01*
X156005413Y-109427942D01*
X155951143Y-109462465D01*
X155887834Y-109474205D01*
X155822797Y-109460133D01*
X155768431Y-109422502D01*
X155728325Y-109362219D01*
X155716778Y-109297034D01*
X155730762Y-109234257D01*
X155767246Y-109181198D01*
X155823203Y-109145164D01*
X155888267Y-109133333D01*
X155962006Y-109148167D01*
X156017888Y-109189298D01*
X156050853Y-109251666D01*
X156057601Y-109302666D01*
X156579935Y-109302666D01*
X156550818Y-109251459D01*
X156418897Y-109085453D01*
X156264151Y-108943368D01*
X156088675Y-108826952D01*
X155894565Y-108737955D01*
X155769734Y-108698366D01*
X155696814Y-108684632D01*
X155602121Y-108675034D01*
X155495155Y-108669691D01*
X155385415Y-108668720D01*
X155282403Y-108672240D01*
G36*
X148629002Y-106144837D02*
X148767623Y-106123154D01*
X148842804Y-106101520D01*
X149021301Y-106021706D01*
X149179393Y-105916723D01*
X149314834Y-105788830D01*
X149425380Y-105640290D01*
X149508785Y-105473364D01*
X149532474Y-105406899D01*
X149561757Y-105282371D01*
X149577405Y-105142347D01*
X149578798Y-105000603D01*
X149565316Y-104870914D01*
X149558181Y-104836001D01*
X149501683Y-104665886D01*
X149416371Y-104507120D01*
X149306093Y-104363581D01*
X149174695Y-104239146D01*
X149026027Y-104137692D01*
X148863934Y-104063097D01*
X148760933Y-104032632D01*
X148657815Y-104016252D01*
X148537021Y-104009193D01*
X148412707Y-104011437D01*
X148299028Y-104022967D01*
X148246179Y-104033258D01*
X148081811Y-104089799D01*
X147926000Y-104175846D01*
X147783886Y-104287214D01*
X147660606Y-104419715D01*
X147561301Y-104569161D01*
X147541451Y-104607401D01*
X147480592Y-104760168D01*
X147446278Y-104920270D01*
X147436482Y-105090000D01*
X147453729Y-105277374D01*
X147478991Y-105370303D01*
X147880399Y-105370303D01*
X147882483Y-105342661D01*
X147890381Y-105312792D01*
X147906569Y-105276094D01*
X147933519Y-105227965D01*
X147973705Y-105163805D01*
X148029602Y-105079010D01*
X148066666Y-105023797D01*
X148123805Y-104938670D01*
X148173851Y-104863491D01*
X148213935Y-104802625D01*
X148241186Y-104760436D01*
X148252733Y-104741285D01*
X148252933Y-104740679D01*
X148262609Y-104720071D01*
X148287500Y-104681650D01*
X148321397Y-104633834D01*
X148358092Y-104585041D01*
X148391379Y-104543687D01*
X148415049Y-104518192D01*
X148419510Y-104514797D01*
X148476186Y-104498903D01*
X148537722Y-104506821D01*
X148568748Y-104522188D01*
X148589655Y-104544189D01*
X148625071Y-104589361D01*
X148671119Y-104652434D01*
X148723922Y-104728137D01*
X148764868Y-104788888D01*
X148860483Y-104933013D01*
X148938682Y-105051817D01*
X149000817Y-105148168D01*
X149048239Y-105224936D01*
X149082300Y-105284990D01*
X149104352Y-105331200D01*
X149115747Y-105366434D01*
X149117836Y-105393562D01*
X149111971Y-105415453D01*
X149099504Y-105434976D01*
X149081786Y-105455001D01*
X149079714Y-105457209D01*
X149037785Y-105483598D01*
X148982836Y-105496755D01*
X148930281Y-105494371D01*
X148904772Y-105483441D01*
X148891281Y-105466614D01*
X148862772Y-105426639D01*
X148822744Y-105368726D01*
X148774699Y-105298081D01*
X148722138Y-105219912D01*
X148668561Y-105139427D01*
X148617468Y-105061834D01*
X148572361Y-104992340D01*
X148536740Y-104936153D01*
X148535011Y-104933367D01*
X148511714Y-104901360D01*
X148494509Y-104887144D01*
X148493842Y-104887099D01*
X148481247Y-104900741D01*
X148453451Y-104938565D01*
X148413476Y-104996204D01*
X148364345Y-105069294D01*
X148309080Y-105153469D01*
X148303733Y-105161710D01*
X148246536Y-105249170D01*
X148193809Y-105328332D01*
X148148970Y-105394182D01*
X148115437Y-105441701D01*
X148096626Y-105465873D01*
X148096300Y-105466211D01*
X148053534Y-105489144D01*
X147996636Y-105495674D01*
X147941207Y-105485619D01*
X147911366Y-105468376D01*
X147886327Y-105423270D01*
X147880399Y-105370303D01*
X147478991Y-105370303D01*
X147501852Y-105454395D01*
X147578696Y-105618198D01*
X147682110Y-105765917D01*
X147809939Y-105894687D01*
X147960030Y-106001642D01*
X148130231Y-106083918D01*
X148202133Y-106108865D01*
X148334109Y-106137832D01*
X148480448Y-106149776D01*
X148629002Y-106144837D01*
X148629002Y-106144837D01*
G37*
X148629002Y-106144837D02*
X148767623Y-106123154D01*
X148842804Y-106101520D01*
X149021301Y-106021706D01*
X149179393Y-105916723D01*
X149314834Y-105788830D01*
X149425380Y-105640290D01*
X149508785Y-105473364D01*
X149532474Y-105406899D01*
X149561757Y-105282371D01*
X149577405Y-105142347D01*
X149578798Y-105000603D01*
X149565316Y-104870914D01*
X149558181Y-104836001D01*
X149501683Y-104665886D01*
X149416371Y-104507120D01*
X149306093Y-104363581D01*
X149174695Y-104239146D01*
X149026027Y-104137692D01*
X148863934Y-104063097D01*
X148760933Y-104032632D01*
X148657815Y-104016252D01*
X148537021Y-104009193D01*
X148412707Y-104011437D01*
X148299028Y-104022967D01*
X148246179Y-104033258D01*
X148081811Y-104089799D01*
X147926000Y-104175846D01*
X147783886Y-104287214D01*
X147660606Y-104419715D01*
X147561301Y-104569161D01*
X147541451Y-104607401D01*
X147480592Y-104760168D01*
X147446278Y-104920270D01*
X147436482Y-105090000D01*
X147453729Y-105277374D01*
X147478991Y-105370303D01*
X147880399Y-105370303D01*
X147882483Y-105342661D01*
X147890381Y-105312792D01*
X147906569Y-105276094D01*
X147933519Y-105227965D01*
X147973705Y-105163805D01*
X148029602Y-105079010D01*
X148066666Y-105023797D01*
X148123805Y-104938670D01*
X148173851Y-104863491D01*
X148213935Y-104802625D01*
X148241186Y-104760436D01*
X148252733Y-104741285D01*
X148252933Y-104740679D01*
X148262609Y-104720071D01*
X148287500Y-104681650D01*
X148321397Y-104633834D01*
X148358092Y-104585041D01*
X148391379Y-104543687D01*
X148415049Y-104518192D01*
X148419510Y-104514797D01*
X148476186Y-104498903D01*
X148537722Y-104506821D01*
X148568748Y-104522188D01*
X148589655Y-104544189D01*
X148625071Y-104589361D01*
X148671119Y-104652434D01*
X148723922Y-104728137D01*
X148764868Y-104788888D01*
X148860483Y-104933013D01*
X148938682Y-105051817D01*
X149000817Y-105148168D01*
X149048239Y-105224936D01*
X149082300Y-105284990D01*
X149104352Y-105331200D01*
X149115747Y-105366434D01*
X149117836Y-105393562D01*
X149111971Y-105415453D01*
X149099504Y-105434976D01*
X149081786Y-105455001D01*
X149079714Y-105457209D01*
X149037785Y-105483598D01*
X148982836Y-105496755D01*
X148930281Y-105494371D01*
X148904772Y-105483441D01*
X148891281Y-105466614D01*
X148862772Y-105426639D01*
X148822744Y-105368726D01*
X148774699Y-105298081D01*
X148722138Y-105219912D01*
X148668561Y-105139427D01*
X148617468Y-105061834D01*
X148572361Y-104992340D01*
X148536740Y-104936153D01*
X148535011Y-104933367D01*
X148511714Y-104901360D01*
X148494509Y-104887144D01*
X148493842Y-104887099D01*
X148481247Y-104900741D01*
X148453451Y-104938565D01*
X148413476Y-104996204D01*
X148364345Y-105069294D01*
X148309080Y-105153469D01*
X148303733Y-105161710D01*
X148246536Y-105249170D01*
X148193809Y-105328332D01*
X148148970Y-105394182D01*
X148115437Y-105441701D01*
X148096626Y-105465873D01*
X148096300Y-105466211D01*
X148053534Y-105489144D01*
X147996636Y-105495674D01*
X147941207Y-105485619D01*
X147911366Y-105468376D01*
X147886327Y-105423270D01*
X147880399Y-105370303D01*
X147478991Y-105370303D01*
X147501852Y-105454395D01*
X147578696Y-105618198D01*
X147682110Y-105765917D01*
X147809939Y-105894687D01*
X147960030Y-106001642D01*
X148130231Y-106083918D01*
X148202133Y-106108865D01*
X148334109Y-106137832D01*
X148480448Y-106149776D01*
X148629002Y-106144837D01*
G36*
X147014837Y-104950998D02*
X146993154Y-104812377D01*
X146971520Y-104737196D01*
X146891706Y-104558699D01*
X146786723Y-104400607D01*
X146658830Y-104265166D01*
X146510290Y-104154620D01*
X146343364Y-104071215D01*
X146276899Y-104047526D01*
X146152371Y-104018243D01*
X146012347Y-104002595D01*
X145870603Y-104001202D01*
X145740914Y-104014684D01*
X145706001Y-104021819D01*
X145535886Y-104078317D01*
X145377120Y-104163629D01*
X145233581Y-104273907D01*
X145109146Y-104405305D01*
X145007692Y-104553973D01*
X144933097Y-104716066D01*
X144902632Y-104819067D01*
X144886252Y-104922185D01*
X144879193Y-105042979D01*
X144881437Y-105167293D01*
X144892967Y-105280972D01*
X144903258Y-105333821D01*
X144959799Y-105498189D01*
X145045846Y-105654000D01*
X145157214Y-105796114D01*
X145289715Y-105919394D01*
X145439161Y-106018699D01*
X145477401Y-106038549D01*
X145630168Y-106099408D01*
X145790270Y-106133722D01*
X145960000Y-106143518D01*
X146147374Y-106126271D01*
X146240303Y-106101009D01*
X146240303Y-105699601D01*
X146212661Y-105697517D01*
X146182792Y-105689619D01*
X146146094Y-105673431D01*
X146097965Y-105646481D01*
X146033805Y-105606295D01*
X145949010Y-105550398D01*
X145893797Y-105513334D01*
X145808670Y-105456195D01*
X145733491Y-105406149D01*
X145672625Y-105366065D01*
X145630436Y-105338814D01*
X145611285Y-105327267D01*
X145610679Y-105327067D01*
X145590071Y-105317391D01*
X145551650Y-105292500D01*
X145503834Y-105258603D01*
X145455041Y-105221908D01*
X145413687Y-105188621D01*
X145388192Y-105164951D01*
X145384797Y-105160490D01*
X145368903Y-105103814D01*
X145376821Y-105042278D01*
X145392188Y-105011252D01*
X145414189Y-104990345D01*
X145459361Y-104954929D01*
X145522434Y-104908881D01*
X145598137Y-104856078D01*
X145658888Y-104815132D01*
X145803013Y-104719517D01*
X145921817Y-104641318D01*
X146018168Y-104579183D01*
X146094936Y-104531761D01*
X146154990Y-104497700D01*
X146201200Y-104475648D01*
X146236434Y-104464253D01*
X146263562Y-104462164D01*
X146285453Y-104468029D01*
X146304976Y-104480496D01*
X146325001Y-104498214D01*
X146327209Y-104500286D01*
X146353598Y-104542215D01*
X146366755Y-104597164D01*
X146364371Y-104649719D01*
X146353441Y-104675228D01*
X146336614Y-104688719D01*
X146296639Y-104717228D01*
X146238726Y-104757256D01*
X146168081Y-104805301D01*
X146089912Y-104857862D01*
X146009427Y-104911439D01*
X145931834Y-104962532D01*
X145862340Y-105007639D01*
X145806153Y-105043260D01*
X145803367Y-105044989D01*
X145771360Y-105068286D01*
X145757144Y-105085491D01*
X145757099Y-105086158D01*
X145770741Y-105098753D01*
X145808565Y-105126549D01*
X145866204Y-105166524D01*
X145939294Y-105215655D01*
X146023469Y-105270920D01*
X146031710Y-105276267D01*
X146119170Y-105333464D01*
X146198332Y-105386191D01*
X146264182Y-105431030D01*
X146311701Y-105464563D01*
X146335873Y-105483374D01*
X146336211Y-105483700D01*
X146359144Y-105526466D01*
X146365674Y-105583364D01*
X146355619Y-105638793D01*
X146338376Y-105668634D01*
X146293270Y-105693673D01*
X146240303Y-105699601D01*
X146240303Y-106101009D01*
X146324395Y-106078148D01*
X146488198Y-106001304D01*
X146635917Y-105897890D01*
X146764687Y-105770061D01*
X146871642Y-105619970D01*
X146953918Y-105449769D01*
X146978865Y-105377867D01*
X147007832Y-105245891D01*
X147019776Y-105099552D01*
X147014837Y-104950998D01*
X147014837Y-104950998D01*
G37*
X147014837Y-104950998D02*
X146993154Y-104812377D01*
X146971520Y-104737196D01*
X146891706Y-104558699D01*
X146786723Y-104400607D01*
X146658830Y-104265166D01*
X146510290Y-104154620D01*
X146343364Y-104071215D01*
X146276899Y-104047526D01*
X146152371Y-104018243D01*
X146012347Y-104002595D01*
X145870603Y-104001202D01*
X145740914Y-104014684D01*
X145706001Y-104021819D01*
X145535886Y-104078317D01*
X145377120Y-104163629D01*
X145233581Y-104273907D01*
X145109146Y-104405305D01*
X145007692Y-104553973D01*
X144933097Y-104716066D01*
X144902632Y-104819067D01*
X144886252Y-104922185D01*
X144879193Y-105042979D01*
X144881437Y-105167293D01*
X144892967Y-105280972D01*
X144903258Y-105333821D01*
X144959799Y-105498189D01*
X145045846Y-105654000D01*
X145157214Y-105796114D01*
X145289715Y-105919394D01*
X145439161Y-106018699D01*
X145477401Y-106038549D01*
X145630168Y-106099408D01*
X145790270Y-106133722D01*
X145960000Y-106143518D01*
X146147374Y-106126271D01*
X146240303Y-106101009D01*
X146240303Y-105699601D01*
X146212661Y-105697517D01*
X146182792Y-105689619D01*
X146146094Y-105673431D01*
X146097965Y-105646481D01*
X146033805Y-105606295D01*
X145949010Y-105550398D01*
X145893797Y-105513334D01*
X145808670Y-105456195D01*
X145733491Y-105406149D01*
X145672625Y-105366065D01*
X145630436Y-105338814D01*
X145611285Y-105327267D01*
X145610679Y-105327067D01*
X145590071Y-105317391D01*
X145551650Y-105292500D01*
X145503834Y-105258603D01*
X145455041Y-105221908D01*
X145413687Y-105188621D01*
X145388192Y-105164951D01*
X145384797Y-105160490D01*
X145368903Y-105103814D01*
X145376821Y-105042278D01*
X145392188Y-105011252D01*
X145414189Y-104990345D01*
X145459361Y-104954929D01*
X145522434Y-104908881D01*
X145598137Y-104856078D01*
X145658888Y-104815132D01*
X145803013Y-104719517D01*
X145921817Y-104641318D01*
X146018168Y-104579183D01*
X146094936Y-104531761D01*
X146154990Y-104497700D01*
X146201200Y-104475648D01*
X146236434Y-104464253D01*
X146263562Y-104462164D01*
X146285453Y-104468029D01*
X146304976Y-104480496D01*
X146325001Y-104498214D01*
X146327209Y-104500286D01*
X146353598Y-104542215D01*
X146366755Y-104597164D01*
X146364371Y-104649719D01*
X146353441Y-104675228D01*
X146336614Y-104688719D01*
X146296639Y-104717228D01*
X146238726Y-104757256D01*
X146168081Y-104805301D01*
X146089912Y-104857862D01*
X146009427Y-104911439D01*
X145931834Y-104962532D01*
X145862340Y-105007639D01*
X145806153Y-105043260D01*
X145803367Y-105044989D01*
X145771360Y-105068286D01*
X145757144Y-105085491D01*
X145757099Y-105086158D01*
X145770741Y-105098753D01*
X145808565Y-105126549D01*
X145866204Y-105166524D01*
X145939294Y-105215655D01*
X146023469Y-105270920D01*
X146031710Y-105276267D01*
X146119170Y-105333464D01*
X146198332Y-105386191D01*
X146264182Y-105431030D01*
X146311701Y-105464563D01*
X146335873Y-105483374D01*
X146336211Y-105483700D01*
X146359144Y-105526466D01*
X146365674Y-105583364D01*
X146355619Y-105638793D01*
X146338376Y-105668634D01*
X146293270Y-105693673D01*
X146240303Y-105699601D01*
X146240303Y-106101009D01*
X146324395Y-106078148D01*
X146488198Y-106001304D01*
X146635917Y-105897890D01*
X146764687Y-105770061D01*
X146871642Y-105619970D01*
X146953918Y-105449769D01*
X146978865Y-105377867D01*
X147007832Y-105245891D01*
X147019776Y-105099552D01*
X147014837Y-104950998D01*
G36*
X143310998Y-103975163D02*
X143172377Y-103996846D01*
X143097196Y-104018480D01*
X142918699Y-104098294D01*
X142760607Y-104203277D01*
X142625166Y-104331170D01*
X142514620Y-104479710D01*
X142431215Y-104646636D01*
X142407526Y-104713101D01*
X142378243Y-104837629D01*
X142362595Y-104977653D01*
X142361202Y-105119397D01*
X142374684Y-105249086D01*
X142381819Y-105283999D01*
X142438317Y-105454114D01*
X142523629Y-105612880D01*
X142633907Y-105756419D01*
X142765305Y-105880854D01*
X142913973Y-105982308D01*
X143076066Y-106056903D01*
X143179067Y-106087368D01*
X143282185Y-106103748D01*
X143402979Y-106110807D01*
X143527293Y-106108563D01*
X143640972Y-106097033D01*
X143693821Y-106086742D01*
X143858189Y-106030201D01*
X144014000Y-105944154D01*
X144156114Y-105832786D01*
X144279394Y-105700285D01*
X144378699Y-105550839D01*
X144398549Y-105512599D01*
X144459408Y-105359832D01*
X144493722Y-105199730D01*
X144503518Y-105030000D01*
X144486271Y-104842626D01*
X144461009Y-104749697D01*
X144059601Y-104749697D01*
X144057517Y-104777339D01*
X144049619Y-104807208D01*
X144033431Y-104843906D01*
X144006481Y-104892035D01*
X143966295Y-104956195D01*
X143910398Y-105040990D01*
X143873334Y-105096203D01*
X143816195Y-105181330D01*
X143766149Y-105256509D01*
X143726065Y-105317375D01*
X143698814Y-105359564D01*
X143687267Y-105378715D01*
X143687067Y-105379321D01*
X143677391Y-105399929D01*
X143652500Y-105438350D01*
X143618603Y-105486166D01*
X143581908Y-105534959D01*
X143548621Y-105576313D01*
X143524951Y-105601808D01*
X143520490Y-105605203D01*
X143463814Y-105621097D01*
X143402278Y-105613179D01*
X143371252Y-105597812D01*
X143350345Y-105575811D01*
X143314929Y-105530639D01*
X143268881Y-105467566D01*
X143216078Y-105391863D01*
X143175132Y-105331112D01*
X143079517Y-105186987D01*
X143001318Y-105068183D01*
X142939183Y-104971832D01*
X142891761Y-104895064D01*
X142857700Y-104835010D01*
X142835648Y-104788800D01*
X142824253Y-104753566D01*
X142822164Y-104726438D01*
X142828029Y-104704547D01*
X142840496Y-104685024D01*
X142858214Y-104664999D01*
X142860286Y-104662791D01*
X142902215Y-104636402D01*
X142957164Y-104623245D01*
X143009719Y-104625629D01*
X143035228Y-104636559D01*
X143048719Y-104653386D01*
X143077228Y-104693361D01*
X143117256Y-104751274D01*
X143165301Y-104821919D01*
X143217862Y-104900088D01*
X143271439Y-104980573D01*
X143322532Y-105058166D01*
X143367639Y-105127660D01*
X143403260Y-105183847D01*
X143404989Y-105186633D01*
X143428286Y-105218640D01*
X143445491Y-105232856D01*
X143446158Y-105232901D01*
X143458753Y-105219259D01*
X143486549Y-105181435D01*
X143526524Y-105123796D01*
X143575655Y-105050706D01*
X143630920Y-104966531D01*
X143636267Y-104958290D01*
X143693464Y-104870830D01*
X143746191Y-104791668D01*
X143791030Y-104725818D01*
X143824563Y-104678299D01*
X143843374Y-104654127D01*
X143843700Y-104653789D01*
X143886466Y-104630856D01*
X143943364Y-104624326D01*
X143998793Y-104634381D01*
X144028634Y-104651624D01*
X144053673Y-104696730D01*
X144059601Y-104749697D01*
X144461009Y-104749697D01*
X144438148Y-104665605D01*
X144361304Y-104501802D01*
X144257890Y-104354083D01*
X144130061Y-104225313D01*
X143979970Y-104118358D01*
X143809769Y-104036082D01*
X143737867Y-104011135D01*
X143605891Y-103982168D01*
X143459552Y-103970224D01*
X143310998Y-103975163D01*
X143310998Y-103975163D01*
G37*
X143310998Y-103975163D02*
X143172377Y-103996846D01*
X143097196Y-104018480D01*
X142918699Y-104098294D01*
X142760607Y-104203277D01*
X142625166Y-104331170D01*
X142514620Y-104479710D01*
X142431215Y-104646636D01*
X142407526Y-104713101D01*
X142378243Y-104837629D01*
X142362595Y-104977653D01*
X142361202Y-105119397D01*
X142374684Y-105249086D01*
X142381819Y-105283999D01*
X142438317Y-105454114D01*
X142523629Y-105612880D01*
X142633907Y-105756419D01*
X142765305Y-105880854D01*
X142913973Y-105982308D01*
X143076066Y-106056903D01*
X143179067Y-106087368D01*
X143282185Y-106103748D01*
X143402979Y-106110807D01*
X143527293Y-106108563D01*
X143640972Y-106097033D01*
X143693821Y-106086742D01*
X143858189Y-106030201D01*
X144014000Y-105944154D01*
X144156114Y-105832786D01*
X144279394Y-105700285D01*
X144378699Y-105550839D01*
X144398549Y-105512599D01*
X144459408Y-105359832D01*
X144493722Y-105199730D01*
X144503518Y-105030000D01*
X144486271Y-104842626D01*
X144461009Y-104749697D01*
X144059601Y-104749697D01*
X144057517Y-104777339D01*
X144049619Y-104807208D01*
X144033431Y-104843906D01*
X144006481Y-104892035D01*
X143966295Y-104956195D01*
X143910398Y-105040990D01*
X143873334Y-105096203D01*
X143816195Y-105181330D01*
X143766149Y-105256509D01*
X143726065Y-105317375D01*
X143698814Y-105359564D01*
X143687267Y-105378715D01*
X143687067Y-105379321D01*
X143677391Y-105399929D01*
X143652500Y-105438350D01*
X143618603Y-105486166D01*
X143581908Y-105534959D01*
X143548621Y-105576313D01*
X143524951Y-105601808D01*
X143520490Y-105605203D01*
X143463814Y-105621097D01*
X143402278Y-105613179D01*
X143371252Y-105597812D01*
X143350345Y-105575811D01*
X143314929Y-105530639D01*
X143268881Y-105467566D01*
X143216078Y-105391863D01*
X143175132Y-105331112D01*
X143079517Y-105186987D01*
X143001318Y-105068183D01*
X142939183Y-104971832D01*
X142891761Y-104895064D01*
X142857700Y-104835010D01*
X142835648Y-104788800D01*
X142824253Y-104753566D01*
X142822164Y-104726438D01*
X142828029Y-104704547D01*
X142840496Y-104685024D01*
X142858214Y-104664999D01*
X142860286Y-104662791D01*
X142902215Y-104636402D01*
X142957164Y-104623245D01*
X143009719Y-104625629D01*
X143035228Y-104636559D01*
X143048719Y-104653386D01*
X143077228Y-104693361D01*
X143117256Y-104751274D01*
X143165301Y-104821919D01*
X143217862Y-104900088D01*
X143271439Y-104980573D01*
X143322532Y-105058166D01*
X143367639Y-105127660D01*
X143403260Y-105183847D01*
X143404989Y-105186633D01*
X143428286Y-105218640D01*
X143445491Y-105232856D01*
X143446158Y-105232901D01*
X143458753Y-105219259D01*
X143486549Y-105181435D01*
X143526524Y-105123796D01*
X143575655Y-105050706D01*
X143630920Y-104966531D01*
X143636267Y-104958290D01*
X143693464Y-104870830D01*
X143746191Y-104791668D01*
X143791030Y-104725818D01*
X143824563Y-104678299D01*
X143843374Y-104654127D01*
X143843700Y-104653789D01*
X143886466Y-104630856D01*
X143943364Y-104624326D01*
X143998793Y-104634381D01*
X144028634Y-104651624D01*
X144053673Y-104696730D01*
X144059601Y-104749697D01*
X144461009Y-104749697D01*
X144438148Y-104665605D01*
X144361304Y-104501802D01*
X144257890Y-104354083D01*
X144130061Y-104225313D01*
X143979970Y-104118358D01*
X143809769Y-104036082D01*
X143737867Y-104011135D01*
X143605891Y-103982168D01*
X143459552Y-103970224D01*
X143310998Y-103975163D01*
G36*
X139775163Y-105169002D02*
X139796846Y-105307623D01*
X139818480Y-105382804D01*
X139898294Y-105561301D01*
X140003277Y-105719393D01*
X140131170Y-105854834D01*
X140279710Y-105965380D01*
X140446636Y-106048785D01*
X140513101Y-106072474D01*
X140637629Y-106101757D01*
X140777653Y-106117405D01*
X140919397Y-106118798D01*
X141049086Y-106105316D01*
X141083999Y-106098181D01*
X141254114Y-106041683D01*
X141412880Y-105956371D01*
X141556419Y-105846093D01*
X141680854Y-105714695D01*
X141782308Y-105566027D01*
X141856903Y-105403934D01*
X141887368Y-105300933D01*
X141903748Y-105197815D01*
X141910807Y-105077021D01*
X141908563Y-104952707D01*
X141897033Y-104839028D01*
X141886742Y-104786179D01*
X141830201Y-104621811D01*
X141744154Y-104466000D01*
X141632786Y-104323886D01*
X141500285Y-104200606D01*
X141350839Y-104101301D01*
X141312599Y-104081451D01*
X141159832Y-104020592D01*
X140999730Y-103986278D01*
X140830000Y-103976482D01*
X140642626Y-103993729D01*
X140549697Y-104018991D01*
X140549697Y-104420399D01*
X140577339Y-104422483D01*
X140607208Y-104430381D01*
X140643906Y-104446569D01*
X140692035Y-104473519D01*
X140756195Y-104513705D01*
X140840990Y-104569602D01*
X140896203Y-104606666D01*
X140981330Y-104663805D01*
X141056509Y-104713851D01*
X141117375Y-104753935D01*
X141159564Y-104781186D01*
X141178715Y-104792733D01*
X141179321Y-104792933D01*
X141199929Y-104802609D01*
X141238350Y-104827500D01*
X141286166Y-104861397D01*
X141334959Y-104898092D01*
X141376313Y-104931379D01*
X141401808Y-104955049D01*
X141405203Y-104959510D01*
X141421097Y-105016186D01*
X141413179Y-105077722D01*
X141397812Y-105108748D01*
X141375811Y-105129655D01*
X141330639Y-105165071D01*
X141267566Y-105211119D01*
X141191863Y-105263922D01*
X141131112Y-105304868D01*
X140986987Y-105400483D01*
X140868183Y-105478682D01*
X140771832Y-105540817D01*
X140695064Y-105588239D01*
X140635010Y-105622300D01*
X140588800Y-105644352D01*
X140553566Y-105655747D01*
X140526438Y-105657836D01*
X140504547Y-105651971D01*
X140485024Y-105639504D01*
X140464999Y-105621786D01*
X140462791Y-105619714D01*
X140436402Y-105577785D01*
X140423245Y-105522836D01*
X140425629Y-105470281D01*
X140436559Y-105444772D01*
X140453386Y-105431281D01*
X140493361Y-105402772D01*
X140551274Y-105362744D01*
X140621919Y-105314699D01*
X140700088Y-105262138D01*
X140780573Y-105208561D01*
X140858166Y-105157468D01*
X140927660Y-105112361D01*
X140983847Y-105076740D01*
X140986633Y-105075011D01*
X141018640Y-105051714D01*
X141032856Y-105034509D01*
X141032901Y-105033842D01*
X141019259Y-105021247D01*
X140981435Y-104993451D01*
X140923796Y-104953476D01*
X140850706Y-104904345D01*
X140766531Y-104849080D01*
X140758290Y-104843733D01*
X140670830Y-104786536D01*
X140591668Y-104733809D01*
X140525818Y-104688970D01*
X140478299Y-104655437D01*
X140454127Y-104636626D01*
X140453789Y-104636300D01*
X140430856Y-104593534D01*
X140424326Y-104536636D01*
X140434381Y-104481207D01*
X140451624Y-104451366D01*
X140496730Y-104426327D01*
X140549697Y-104420399D01*
X140549697Y-104018991D01*
X140465605Y-104041852D01*
X140301802Y-104118696D01*
X140154083Y-104222110D01*
X140025313Y-104349939D01*
X139918358Y-104500030D01*
X139836082Y-104670231D01*
X139811135Y-104742133D01*
X139782168Y-104874109D01*
X139770224Y-105020448D01*
X139775163Y-105169002D01*
X139775163Y-105169002D01*
G37*
X139775163Y-105169002D02*
X139796846Y-105307623D01*
X139818480Y-105382804D01*
X139898294Y-105561301D01*
X140003277Y-105719393D01*
X140131170Y-105854834D01*
X140279710Y-105965380D01*
X140446636Y-106048785D01*
X140513101Y-106072474D01*
X140637629Y-106101757D01*
X140777653Y-106117405D01*
X140919397Y-106118798D01*
X141049086Y-106105316D01*
X141083999Y-106098181D01*
X141254114Y-106041683D01*
X141412880Y-105956371D01*
X141556419Y-105846093D01*
X141680854Y-105714695D01*
X141782308Y-105566027D01*
X141856903Y-105403934D01*
X141887368Y-105300933D01*
X141903748Y-105197815D01*
X141910807Y-105077021D01*
X141908563Y-104952707D01*
X141897033Y-104839028D01*
X141886742Y-104786179D01*
X141830201Y-104621811D01*
X141744154Y-104466000D01*
X141632786Y-104323886D01*
X141500285Y-104200606D01*
X141350839Y-104101301D01*
X141312599Y-104081451D01*
X141159832Y-104020592D01*
X140999730Y-103986278D01*
X140830000Y-103976482D01*
X140642626Y-103993729D01*
X140549697Y-104018991D01*
X140549697Y-104420399D01*
X140577339Y-104422483D01*
X140607208Y-104430381D01*
X140643906Y-104446569D01*
X140692035Y-104473519D01*
X140756195Y-104513705D01*
X140840990Y-104569602D01*
X140896203Y-104606666D01*
X140981330Y-104663805D01*
X141056509Y-104713851D01*
X141117375Y-104753935D01*
X141159564Y-104781186D01*
X141178715Y-104792733D01*
X141179321Y-104792933D01*
X141199929Y-104802609D01*
X141238350Y-104827500D01*
X141286166Y-104861397D01*
X141334959Y-104898092D01*
X141376313Y-104931379D01*
X141401808Y-104955049D01*
X141405203Y-104959510D01*
X141421097Y-105016186D01*
X141413179Y-105077722D01*
X141397812Y-105108748D01*
X141375811Y-105129655D01*
X141330639Y-105165071D01*
X141267566Y-105211119D01*
X141191863Y-105263922D01*
X141131112Y-105304868D01*
X140986987Y-105400483D01*
X140868183Y-105478682D01*
X140771832Y-105540817D01*
X140695064Y-105588239D01*
X140635010Y-105622300D01*
X140588800Y-105644352D01*
X140553566Y-105655747D01*
X140526438Y-105657836D01*
X140504547Y-105651971D01*
X140485024Y-105639504D01*
X140464999Y-105621786D01*
X140462791Y-105619714D01*
X140436402Y-105577785D01*
X140423245Y-105522836D01*
X140425629Y-105470281D01*
X140436559Y-105444772D01*
X140453386Y-105431281D01*
X140493361Y-105402772D01*
X140551274Y-105362744D01*
X140621919Y-105314699D01*
X140700088Y-105262138D01*
X140780573Y-105208561D01*
X140858166Y-105157468D01*
X140927660Y-105112361D01*
X140983847Y-105076740D01*
X140986633Y-105075011D01*
X141018640Y-105051714D01*
X141032856Y-105034509D01*
X141032901Y-105033842D01*
X141019259Y-105021247D01*
X140981435Y-104993451D01*
X140923796Y-104953476D01*
X140850706Y-104904345D01*
X140766531Y-104849080D01*
X140758290Y-104843733D01*
X140670830Y-104786536D01*
X140591668Y-104733809D01*
X140525818Y-104688970D01*
X140478299Y-104655437D01*
X140454127Y-104636626D01*
X140453789Y-104636300D01*
X140430856Y-104593534D01*
X140424326Y-104536636D01*
X140434381Y-104481207D01*
X140451624Y-104451366D01*
X140496730Y-104426327D01*
X140549697Y-104420399D01*
X140549697Y-104018991D01*
X140465605Y-104041852D01*
X140301802Y-104118696D01*
X140154083Y-104222110D01*
X140025313Y-104349939D01*
X139918358Y-104500030D01*
X139836082Y-104670231D01*
X139811135Y-104742133D01*
X139782168Y-104874109D01*
X139770224Y-105020448D01*
X139775163Y-105169002D01*
G36*
X175401728Y-120243057D02*
X175209425Y-120244130D01*
X175031166Y-120246250D01*
X174876175Y-120249417D01*
X174753677Y-120253632D01*
X174672898Y-120258895D01*
X174643189Y-120264883D01*
X174658548Y-120292527D01*
X174710648Y-120350206D01*
X174790911Y-120428991D01*
X174873014Y-120504224D01*
X174997898Y-120615912D01*
X175129681Y-120734440D01*
X175247768Y-120841258D01*
X175295765Y-120884960D01*
X175382764Y-120961243D01*
X175454922Y-121018663D01*
X175499724Y-121047439D01*
X175505632Y-121049030D01*
X175536405Y-121029937D01*
X175603790Y-120976639D01*
X175700390Y-120895365D01*
X175818809Y-120792345D01*
X175951648Y-120673807D01*
X175957751Y-120668294D01*
X176088442Y-120548460D01*
X176201263Y-120441721D01*
X176289599Y-120354609D01*
X176346835Y-120293660D01*
X176366357Y-120265406D01*
X176366178Y-120264883D01*
X176333867Y-120258622D01*
X176251026Y-120253409D01*
X176126878Y-120249244D01*
X175970650Y-120246126D01*
X175791565Y-120244055D01*
X175598850Y-120243033D01*
X175401728Y-120243057D01*
X175401728Y-120243057D01*
G37*
X175401728Y-120243057D02*
X175209425Y-120244130D01*
X175031166Y-120246250D01*
X174876175Y-120249417D01*
X174753677Y-120253632D01*
X174672898Y-120258895D01*
X174643189Y-120264883D01*
X174658548Y-120292527D01*
X174710648Y-120350206D01*
X174790911Y-120428991D01*
X174873014Y-120504224D01*
X174997898Y-120615912D01*
X175129681Y-120734440D01*
X175247768Y-120841258D01*
X175295765Y-120884960D01*
X175382764Y-120961243D01*
X175454922Y-121018663D01*
X175499724Y-121047439D01*
X175505632Y-121049030D01*
X175536405Y-121029937D01*
X175603790Y-120976639D01*
X175700390Y-120895365D01*
X175818809Y-120792345D01*
X175951648Y-120673807D01*
X175957751Y-120668294D01*
X176088442Y-120548460D01*
X176201263Y-120441721D01*
X176289599Y-120354609D01*
X176346835Y-120293660D01*
X176366357Y-120265406D01*
X176366178Y-120264883D01*
X176333867Y-120258622D01*
X176251026Y-120253409D01*
X176126878Y-120249244D01*
X175970650Y-120246126D01*
X175791565Y-120244055D01*
X175598850Y-120243033D01*
X175401728Y-120243057D01*
G36*
X174522766Y-120389408D02*
X174513025Y-120472444D01*
X174506811Y-120612328D01*
X174504049Y-120810279D01*
X174503882Y-120884941D01*
X174505126Y-121054225D01*
X174508579Y-121200665D01*
X174513818Y-121314699D01*
X174520425Y-121386764D01*
X174526884Y-121407883D01*
X174555406Y-121387835D01*
X174617142Y-121332985D01*
X174703534Y-121251266D01*
X174806021Y-121150616D01*
X174826481Y-121130133D01*
X175103076Y-120852383D01*
X174835706Y-120607192D01*
X174729824Y-120512404D01*
X174638180Y-120434656D01*
X174570464Y-120381880D01*
X174536368Y-120362008D01*
X174536109Y-120362000D01*
X174522766Y-120389408D01*
X174522766Y-120389408D01*
G37*
X174522766Y-120389408D02*
X174513025Y-120472444D01*
X174506811Y-120612328D01*
X174504049Y-120810279D01*
X174503882Y-120884941D01*
X174505126Y-121054225D01*
X174508579Y-121200665D01*
X174513818Y-121314699D01*
X174520425Y-121386764D01*
X174526884Y-121407883D01*
X174555406Y-121387835D01*
X174617142Y-121332985D01*
X174703534Y-121251266D01*
X174806021Y-121150616D01*
X174826481Y-121130133D01*
X175103076Y-120852383D01*
X174835706Y-120607192D01*
X174729824Y-120512404D01*
X174638180Y-120434656D01*
X174570464Y-120381880D01*
X174536368Y-120362008D01*
X174536109Y-120362000D01*
X174522766Y-120389408D01*
G36*
X176403563Y-120413210D02*
X176335089Y-120466547D01*
X176243126Y-120545214D01*
X176137456Y-120641152D01*
X176134476Y-120643933D01*
X176022075Y-120750550D01*
X175948911Y-120825192D01*
X175909266Y-120875263D01*
X175897419Y-120908165D01*
X175907651Y-120931302D01*
X175910358Y-120934030D01*
X175992872Y-121010840D01*
X176090802Y-121099255D01*
X176194013Y-121190483D01*
X176292371Y-121275728D01*
X176375740Y-121346196D01*
X176433984Y-121393093D01*
X176456461Y-121407883D01*
X176462911Y-121379618D01*
X176468473Y-121301294D01*
X176472769Y-121182613D01*
X176475426Y-121033276D01*
X176476117Y-120899883D01*
X176475046Y-120704292D01*
X176471523Y-120562150D01*
X176465084Y-120467173D01*
X176455267Y-120413079D01*
X176441608Y-120393585D01*
X176438765Y-120393263D01*
X176403563Y-120413210D01*
X176403563Y-120413210D01*
G37*
X176403563Y-120413210D02*
X176335089Y-120466547D01*
X176243126Y-120545214D01*
X176137456Y-120641152D01*
X176134476Y-120643933D01*
X176022075Y-120750550D01*
X175948911Y-120825192D01*
X175909266Y-120875263D01*
X175897419Y-120908165D01*
X175907651Y-120931302D01*
X175910358Y-120934030D01*
X175992872Y-121010840D01*
X176090802Y-121099255D01*
X176194013Y-121190483D01*
X176292371Y-121275728D01*
X176375740Y-121346196D01*
X176433984Y-121393093D01*
X176456461Y-121407883D01*
X176462911Y-121379618D01*
X176468473Y-121301294D01*
X176472769Y-121182613D01*
X176475426Y-121033276D01*
X176476117Y-120899883D01*
X176475046Y-120704292D01*
X176471523Y-120562150D01*
X176465084Y-120467173D01*
X176455267Y-120413079D01*
X176441608Y-120393585D01*
X176438765Y-120393263D01*
X176403563Y-120413210D01*
G36*
X174899400Y-121206983D02*
X174608854Y-121497530D01*
X176368583Y-121497530D01*
X176116056Y-121259683D01*
X176010890Y-121163363D01*
X175916872Y-121082229D01*
X175844967Y-121025438D01*
X175808431Y-121002779D01*
X175740560Y-121010765D01*
X175672325Y-121061332D01*
X175574933Y-121126688D01*
X175475918Y-121134685D01*
X175370975Y-121084931D01*
X175303881Y-121027689D01*
X175189947Y-120916436D01*
X174899400Y-121206983D01*
X174899400Y-121206983D01*
G37*
X174899400Y-121206983D02*
X174608854Y-121497530D01*
X176368583Y-121497530D01*
X176116056Y-121259683D01*
X176010890Y-121163363D01*
X175916872Y-121082229D01*
X175844967Y-121025438D01*
X175808431Y-121002779D01*
X175740560Y-121010765D01*
X175672325Y-121061332D01*
X175574933Y-121126688D01*
X175475918Y-121134685D01*
X175370975Y-121084931D01*
X175303881Y-121027689D01*
X175189947Y-120916436D01*
X174899400Y-121206983D01*
G36*
X145793567Y-120248968D02*
X145781550Y-120250632D01*
X145769695Y-120254453D01*
X145754864Y-120261204D01*
X145751674Y-120262771D01*
X145733045Y-120273442D01*
X145714480Y-120287223D01*
X145695503Y-120304670D01*
X145675639Y-120326338D01*
X145654411Y-120352783D01*
X145631344Y-120384560D01*
X145605962Y-120422226D01*
X145578915Y-120464537D01*
X145556744Y-120500538D01*
X145538626Y-120531482D01*
X145524038Y-120558502D01*
X145512453Y-120582727D01*
X145503347Y-120605288D01*
X145496194Y-120627316D01*
X145490470Y-120649941D01*
X145488519Y-120659130D01*
X145484097Y-120697901D01*
X145487026Y-120734428D01*
X145497328Y-120768815D01*
X145515025Y-120801168D01*
X145519268Y-120807153D01*
X145530650Y-120820649D01*
X145547180Y-120837562D01*
X145567717Y-120856872D01*
X145591119Y-120877558D01*
X145616246Y-120898599D01*
X145641956Y-120918974D01*
X145656685Y-120930083D01*
X145683840Y-120952253D01*
X145704209Y-120973921D01*
X145718552Y-120996100D01*
X145727630Y-121019805D01*
X145729380Y-121027082D01*
X145732505Y-121059655D01*
X145728816Y-121095739D01*
X145718331Y-121135299D01*
X145701066Y-121178298D01*
X145677038Y-121224702D01*
X145646266Y-121274473D01*
X145608766Y-121327577D01*
X145564555Y-121383978D01*
X145548921Y-121402803D01*
X145496235Y-121463222D01*
X145445972Y-121516358D01*
X145398113Y-121562224D01*
X145352637Y-121600836D01*
X145309525Y-121632208D01*
X145268756Y-121656354D01*
X145230311Y-121673290D01*
X145194168Y-121683031D01*
X145165004Y-121685663D01*
X145144400Y-121684535D01*
X145125903Y-121680698D01*
X145108204Y-121673462D01*
X145089994Y-121662140D01*
X145069965Y-121646043D01*
X145046810Y-121624485D01*
X145044630Y-121622353D01*
X145008671Y-121588017D01*
X144976298Y-121559033D01*
X144947763Y-121535610D01*
X144923320Y-121517957D01*
X144903985Y-121506654D01*
X144870465Y-121493795D01*
X144836042Y-121487903D01*
X144800434Y-121489035D01*
X144763356Y-121497243D01*
X144724527Y-121512582D01*
X144683663Y-121535106D01*
X144654712Y-121554452D01*
X144636541Y-121568035D01*
X144614264Y-121585700D01*
X144589334Y-121606203D01*
X144563203Y-121628303D01*
X144537324Y-121650758D01*
X144513150Y-121672324D01*
X144492134Y-121691761D01*
X144477942Y-121705576D01*
X144446571Y-121740127D01*
X144422635Y-121773073D01*
X144406075Y-121804574D01*
X144396834Y-121834791D01*
X144394854Y-121863885D01*
X144400079Y-121892016D01*
X144405942Y-121907006D01*
X144413234Y-121918654D01*
X144425706Y-121934126D01*
X144442437Y-121952551D01*
X144462506Y-121973063D01*
X144484991Y-121994791D01*
X144508972Y-122016866D01*
X144533527Y-122038420D01*
X144557736Y-122058584D01*
X144580677Y-122076488D01*
X144600868Y-122090889D01*
X144658874Y-122125214D01*
X144720057Y-122152644D01*
X144783956Y-122173070D01*
X144850107Y-122186380D01*
X144918051Y-122192463D01*
X144987325Y-122191207D01*
X145009406Y-122189267D01*
X145081622Y-122177926D01*
X145154465Y-122158956D01*
X145227879Y-122132395D01*
X145301807Y-122098279D01*
X145376193Y-122056647D01*
X145450980Y-122007536D01*
X145526113Y-121950984D01*
X145601534Y-121887028D01*
X145677187Y-121815705D01*
X145753016Y-121737054D01*
X145828965Y-121651111D01*
X145842003Y-121635636D01*
X145908885Y-121552537D01*
X145968637Y-121471532D01*
X146021431Y-121392290D01*
X146067442Y-121314481D01*
X146106843Y-121237774D01*
X146139809Y-121161839D01*
X146166514Y-121086345D01*
X146187132Y-121010962D01*
X146197650Y-120960227D01*
X146200217Y-120943972D01*
X146202104Y-120926632D01*
X146203391Y-120906750D01*
X146204158Y-120882869D01*
X146204485Y-120853532D01*
X146204507Y-120835151D01*
X146204118Y-120797463D01*
X146202876Y-120765613D01*
X146200507Y-120737765D01*
X146196740Y-120712083D01*
X146191303Y-120686730D01*
X146183924Y-120659870D01*
X146174330Y-120629667D01*
X146173833Y-120628173D01*
X146152698Y-120574558D01*
X146125750Y-120522159D01*
X146093945Y-120472413D01*
X146058238Y-120426756D01*
X146019585Y-120386622D01*
X146003749Y-120372635D01*
X145989330Y-120360416D01*
X145971403Y-120345068D01*
X145952239Y-120328542D01*
X145934112Y-120312792D01*
X145933924Y-120312629D01*
X145906253Y-120289687D01*
X145881999Y-120272425D01*
X145860071Y-120260286D01*
X145839377Y-120252712D01*
X145818827Y-120249143D01*
X145808881Y-120248691D01*
X145793567Y-120248968D01*
X145793567Y-120248968D01*
G37*
X145793567Y-120248968D02*
X145781550Y-120250632D01*
X145769695Y-120254453D01*
X145754864Y-120261204D01*
X145751674Y-120262771D01*
X145733045Y-120273442D01*
X145714480Y-120287223D01*
X145695503Y-120304670D01*
X145675639Y-120326338D01*
X145654411Y-120352783D01*
X145631344Y-120384560D01*
X145605962Y-120422226D01*
X145578915Y-120464537D01*
X145556744Y-120500538D01*
X145538626Y-120531482D01*
X145524038Y-120558502D01*
X145512453Y-120582727D01*
X145503347Y-120605288D01*
X145496194Y-120627316D01*
X145490470Y-120649941D01*
X145488519Y-120659130D01*
X145484097Y-120697901D01*
X145487026Y-120734428D01*
X145497328Y-120768815D01*
X145515025Y-120801168D01*
X145519268Y-120807153D01*
X145530650Y-120820649D01*
X145547180Y-120837562D01*
X145567717Y-120856872D01*
X145591119Y-120877558D01*
X145616246Y-120898599D01*
X145641956Y-120918974D01*
X145656685Y-120930083D01*
X145683840Y-120952253D01*
X145704209Y-120973921D01*
X145718552Y-120996100D01*
X145727630Y-121019805D01*
X145729380Y-121027082D01*
X145732505Y-121059655D01*
X145728816Y-121095739D01*
X145718331Y-121135299D01*
X145701066Y-121178298D01*
X145677038Y-121224702D01*
X145646266Y-121274473D01*
X145608766Y-121327577D01*
X145564555Y-121383978D01*
X145548921Y-121402803D01*
X145496235Y-121463222D01*
X145445972Y-121516358D01*
X145398113Y-121562224D01*
X145352637Y-121600836D01*
X145309525Y-121632208D01*
X145268756Y-121656354D01*
X145230311Y-121673290D01*
X145194168Y-121683031D01*
X145165004Y-121685663D01*
X145144400Y-121684535D01*
X145125903Y-121680698D01*
X145108204Y-121673462D01*
X145089994Y-121662140D01*
X145069965Y-121646043D01*
X145046810Y-121624485D01*
X145044630Y-121622353D01*
X145008671Y-121588017D01*
X144976298Y-121559033D01*
X144947763Y-121535610D01*
X144923320Y-121517957D01*
X144903985Y-121506654D01*
X144870465Y-121493795D01*
X144836042Y-121487903D01*
X144800434Y-121489035D01*
X144763356Y-121497243D01*
X144724527Y-121512582D01*
X144683663Y-121535106D01*
X144654712Y-121554452D01*
X144636541Y-121568035D01*
X144614264Y-121585700D01*
X144589334Y-121606203D01*
X144563203Y-121628303D01*
X144537324Y-121650758D01*
X144513150Y-121672324D01*
X144492134Y-121691761D01*
X144477942Y-121705576D01*
X144446571Y-121740127D01*
X144422635Y-121773073D01*
X144406075Y-121804574D01*
X144396834Y-121834791D01*
X144394854Y-121863885D01*
X144400079Y-121892016D01*
X144405942Y-121907006D01*
X144413234Y-121918654D01*
X144425706Y-121934126D01*
X144442437Y-121952551D01*
X144462506Y-121973063D01*
X144484991Y-121994791D01*
X144508972Y-122016866D01*
X144533527Y-122038420D01*
X144557736Y-122058584D01*
X144580677Y-122076488D01*
X144600868Y-122090889D01*
X144658874Y-122125214D01*
X144720057Y-122152644D01*
X144783956Y-122173070D01*
X144850107Y-122186380D01*
X144918051Y-122192463D01*
X144987325Y-122191207D01*
X145009406Y-122189267D01*
X145081622Y-122177926D01*
X145154465Y-122158956D01*
X145227879Y-122132395D01*
X145301807Y-122098279D01*
X145376193Y-122056647D01*
X145450980Y-122007536D01*
X145526113Y-121950984D01*
X145601534Y-121887028D01*
X145677187Y-121815705D01*
X145753016Y-121737054D01*
X145828965Y-121651111D01*
X145842003Y-121635636D01*
X145908885Y-121552537D01*
X145968637Y-121471532D01*
X146021431Y-121392290D01*
X146067442Y-121314481D01*
X146106843Y-121237774D01*
X146139809Y-121161839D01*
X146166514Y-121086345D01*
X146187132Y-121010962D01*
X146197650Y-120960227D01*
X146200217Y-120943972D01*
X146202104Y-120926632D01*
X146203391Y-120906750D01*
X146204158Y-120882869D01*
X146204485Y-120853532D01*
X146204507Y-120835151D01*
X146204118Y-120797463D01*
X146202876Y-120765613D01*
X146200507Y-120737765D01*
X146196740Y-120712083D01*
X146191303Y-120686730D01*
X146183924Y-120659870D01*
X146174330Y-120629667D01*
X146173833Y-120628173D01*
X146152698Y-120574558D01*
X146125750Y-120522159D01*
X146093945Y-120472413D01*
X146058238Y-120426756D01*
X146019585Y-120386622D01*
X146003749Y-120372635D01*
X145989330Y-120360416D01*
X145971403Y-120345068D01*
X145952239Y-120328542D01*
X145934112Y-120312792D01*
X145933924Y-120312629D01*
X145906253Y-120289687D01*
X145881999Y-120272425D01*
X145860071Y-120260286D01*
X145839377Y-120252712D01*
X145818827Y-120249143D01*
X145808881Y-120248691D01*
X145793567Y-120248968D01*
G04 #@! TO.C,P1*
D10*
X163158095Y-79562380D02*
X163158095Y-78562380D01*
X162777142Y-78562380D01*
X162681904Y-78610000D01*
X162634285Y-78657619D01*
X162586666Y-78752857D01*
X162586666Y-78895714D01*
X162634285Y-78990952D01*
X162681904Y-79038571D01*
X162777142Y-79086190D01*
X163158095Y-79086190D01*
X161634285Y-79562380D02*
X162205714Y-79562380D01*
X161920000Y-79562380D02*
X161920000Y-78562380D01*
X162015238Y-78705238D01*
X162110476Y-78800476D01*
X162205714Y-78848095D01*
G04 #@! TO.C,U1*
X199135904Y-73366380D02*
X199135904Y-74175904D01*
X199088285Y-74271142D01*
X199040666Y-74318761D01*
X198945428Y-74366380D01*
X198754952Y-74366380D01*
X198659714Y-74318761D01*
X198612095Y-74271142D01*
X198564476Y-74175904D01*
X198564476Y-73366380D01*
X197564476Y-74366380D02*
X198135904Y-74366380D01*
X197850190Y-74366380D02*
X197850190Y-73366380D01*
X197945428Y-73509238D01*
X198040666Y-73604476D01*
X198135904Y-73652095D01*
G04 #@! TO.C,F1*
X173043333Y-73988571D02*
X173376666Y-73988571D01*
X173376666Y-74512380D02*
X173376666Y-73512380D01*
X172900476Y-73512380D01*
X171995714Y-74512380D02*
X172567142Y-74512380D01*
X172281428Y-74512380D02*
X172281428Y-73512380D01*
X172376666Y-73655238D01*
X172471904Y-73750476D01*
X172567142Y-73798095D01*
G04 #@! TO.C,Y1*
X204184190Y-77192190D02*
X204184190Y-77668380D01*
X204517523Y-76668380D02*
X204184190Y-77192190D01*
X203850857Y-76668380D01*
X202993714Y-77668380D02*
X203565142Y-77668380D01*
X203279428Y-77668380D02*
X203279428Y-76668380D01*
X203374666Y-76811238D01*
X203469904Y-76906476D01*
X203565142Y-76954095D01*
G04 #@! TO.C,D1*
X203204095Y-100772380D02*
X203204095Y-99772380D01*
X202966000Y-99772380D01*
X202823142Y-99820000D01*
X202727904Y-99915238D01*
X202680285Y-100010476D01*
X202632666Y-100200952D01*
X202632666Y-100343809D01*
X202680285Y-100534285D01*
X202727904Y-100629523D01*
X202823142Y-100724761D01*
X202966000Y-100772380D01*
X203204095Y-100772380D01*
X201680285Y-100772380D02*
X202251714Y-100772380D01*
X201966000Y-100772380D02*
X201966000Y-99772380D01*
X202061238Y-99915238D01*
X202156476Y-100010476D01*
X202251714Y-100058095D01*
G04 #@! TO.C,D2*
X203176095Y-105608380D02*
X203176095Y-104608380D01*
X202938000Y-104608380D01*
X202795142Y-104656000D01*
X202699904Y-104751238D01*
X202652285Y-104846476D01*
X202604666Y-105036952D01*
X202604666Y-105179809D01*
X202652285Y-105370285D01*
X202699904Y-105465523D01*
X202795142Y-105560761D01*
X202938000Y-105608380D01*
X203176095Y-105608380D01*
X202223714Y-104703619D02*
X202176095Y-104656000D01*
X202080857Y-104608380D01*
X201842761Y-104608380D01*
X201747523Y-104656000D01*
X201699904Y-104703619D01*
X201652285Y-104798857D01*
X201652285Y-104894095D01*
X201699904Y-105036952D01*
X202271333Y-105608380D01*
X201652285Y-105608380D01*
G04 #@! TO.C,D3*
X203214095Y-110322380D02*
X203214095Y-109322380D01*
X202976000Y-109322380D01*
X202833142Y-109370000D01*
X202737904Y-109465238D01*
X202690285Y-109560476D01*
X202642666Y-109750952D01*
X202642666Y-109893809D01*
X202690285Y-110084285D01*
X202737904Y-110179523D01*
X202833142Y-110274761D01*
X202976000Y-110322380D01*
X203214095Y-110322380D01*
X202309333Y-109322380D02*
X201690285Y-109322380D01*
X202023619Y-109703333D01*
X201880761Y-109703333D01*
X201785523Y-109750952D01*
X201737904Y-109798571D01*
X201690285Y-109893809D01*
X201690285Y-110131904D01*
X201737904Y-110227142D01*
X201785523Y-110274761D01*
X201880761Y-110322380D01*
X202166476Y-110322380D01*
X202261714Y-110274761D01*
X202309333Y-110227142D01*
G04 #@! TO.C,D4*
X185142095Y-121356380D02*
X185142095Y-120356380D01*
X184904000Y-120356380D01*
X184761142Y-120404000D01*
X184665904Y-120499238D01*
X184618285Y-120594476D01*
X184570666Y-120784952D01*
X184570666Y-120927809D01*
X184618285Y-121118285D01*
X184665904Y-121213523D01*
X184761142Y-121308761D01*
X184904000Y-121356380D01*
X185142095Y-121356380D01*
X183713523Y-120689714D02*
X183713523Y-121356380D01*
X183951619Y-120308761D02*
X184189714Y-121023047D01*
X183570666Y-121023047D01*
G04 #@! TO.C,D5*
X154916095Y-121610380D02*
X154916095Y-120610380D01*
X154678000Y-120610380D01*
X154535142Y-120658000D01*
X154439904Y-120753238D01*
X154392285Y-120848476D01*
X154344666Y-121038952D01*
X154344666Y-121181809D01*
X154392285Y-121372285D01*
X154439904Y-121467523D01*
X154535142Y-121562761D01*
X154678000Y-121610380D01*
X154916095Y-121610380D01*
X153439904Y-120610380D02*
X153916095Y-120610380D01*
X153963714Y-121086571D01*
X153916095Y-121038952D01*
X153820857Y-120991333D01*
X153582761Y-120991333D01*
X153487523Y-121038952D01*
X153439904Y-121086571D01*
X153392285Y-121181809D01*
X153392285Y-121419904D01*
X153439904Y-121515142D01*
X153487523Y-121562761D01*
X153582761Y-121610380D01*
X153820857Y-121610380D01*
X153916095Y-121562761D01*
X153963714Y-121515142D01*
G04 #@! TO.C,R1*
X122528666Y-100782380D02*
X122862000Y-100306190D01*
X123100095Y-100782380D02*
X123100095Y-99782380D01*
X122719142Y-99782380D01*
X122623904Y-99830000D01*
X122576285Y-99877619D01*
X122528666Y-99972857D01*
X122528666Y-100115714D01*
X122576285Y-100210952D01*
X122623904Y-100258571D01*
X122719142Y-100306190D01*
X123100095Y-100306190D01*
X121576285Y-100782380D02*
X122147714Y-100782380D01*
X121862000Y-100782380D02*
X121862000Y-99782380D01*
X121957238Y-99925238D01*
X122052476Y-100020476D01*
X122147714Y-100068095D01*
G04 #@! TO.C,R2*
X122594666Y-105608380D02*
X122928000Y-105132190D01*
X123166095Y-105608380D02*
X123166095Y-104608380D01*
X122785142Y-104608380D01*
X122689904Y-104656000D01*
X122642285Y-104703619D01*
X122594666Y-104798857D01*
X122594666Y-104941714D01*
X122642285Y-105036952D01*
X122689904Y-105084571D01*
X122785142Y-105132190D01*
X123166095Y-105132190D01*
X122213714Y-104703619D02*
X122166095Y-104656000D01*
X122070857Y-104608380D01*
X121832761Y-104608380D01*
X121737523Y-104656000D01*
X121689904Y-104703619D01*
X121642285Y-104798857D01*
X121642285Y-104894095D01*
X121689904Y-105036952D01*
X122261333Y-105608380D01*
X121642285Y-105608380D01*
G04 #@! TO.C,R3*
X122594666Y-110434380D02*
X122928000Y-109958190D01*
X123166095Y-110434380D02*
X123166095Y-109434380D01*
X122785142Y-109434380D01*
X122689904Y-109482000D01*
X122642285Y-109529619D01*
X122594666Y-109624857D01*
X122594666Y-109767714D01*
X122642285Y-109862952D01*
X122689904Y-109910571D01*
X122785142Y-109958190D01*
X123166095Y-109958190D01*
X122261333Y-109434380D02*
X121642285Y-109434380D01*
X121975619Y-109815333D01*
X121832761Y-109815333D01*
X121737523Y-109862952D01*
X121689904Y-109910571D01*
X121642285Y-110005809D01*
X121642285Y-110243904D01*
X121689904Y-110339142D01*
X121737523Y-110386761D01*
X121832761Y-110434380D01*
X122118476Y-110434380D01*
X122213714Y-110386761D01*
X122261333Y-110339142D01*
G04 #@! TO.C,R4*
X167552666Y-121356380D02*
X167886000Y-120880190D01*
X168124095Y-121356380D02*
X168124095Y-120356380D01*
X167743142Y-120356380D01*
X167647904Y-120404000D01*
X167600285Y-120451619D01*
X167552666Y-120546857D01*
X167552666Y-120689714D01*
X167600285Y-120784952D01*
X167647904Y-120832571D01*
X167743142Y-120880190D01*
X168124095Y-120880190D01*
X166695523Y-120689714D02*
X166695523Y-121356380D01*
X166933619Y-120308761D02*
X167171714Y-121023047D01*
X166552666Y-121023047D01*
G04 #@! TO.C,R5*
X137834666Y-121610380D02*
X138168000Y-121134190D01*
X138406095Y-121610380D02*
X138406095Y-120610380D01*
X138025142Y-120610380D01*
X137929904Y-120658000D01*
X137882285Y-120705619D01*
X137834666Y-120800857D01*
X137834666Y-120943714D01*
X137882285Y-121038952D01*
X137929904Y-121086571D01*
X138025142Y-121134190D01*
X138406095Y-121134190D01*
X136929904Y-120610380D02*
X137406095Y-120610380D01*
X137453714Y-121086571D01*
X137406095Y-121038952D01*
X137310857Y-120991333D01*
X137072761Y-120991333D01*
X136977523Y-121038952D01*
X136929904Y-121086571D01*
X136882285Y-121181809D01*
X136882285Y-121419904D01*
X136929904Y-121515142D01*
X136977523Y-121562761D01*
X137072761Y-121610380D01*
X137310857Y-121610380D01*
X137406095Y-121562761D01*
X137453714Y-121515142D01*
G04 #@! TO.C,R8*
X184824666Y-79446380D02*
X185158000Y-78970190D01*
X185396095Y-79446380D02*
X185396095Y-78446380D01*
X185015142Y-78446380D01*
X184919904Y-78494000D01*
X184872285Y-78541619D01*
X184824666Y-78636857D01*
X184824666Y-78779714D01*
X184872285Y-78874952D01*
X184919904Y-78922571D01*
X185015142Y-78970190D01*
X185396095Y-78970190D01*
X184253238Y-78874952D02*
X184348476Y-78827333D01*
X184396095Y-78779714D01*
X184443714Y-78684476D01*
X184443714Y-78636857D01*
X184396095Y-78541619D01*
X184348476Y-78494000D01*
X184253238Y-78446380D01*
X184062761Y-78446380D01*
X183967523Y-78494000D01*
X183919904Y-78541619D01*
X183872285Y-78636857D01*
X183872285Y-78684476D01*
X183919904Y-78779714D01*
X183967523Y-78827333D01*
X184062761Y-78874952D01*
X184253238Y-78874952D01*
X184348476Y-78922571D01*
X184396095Y-78970190D01*
X184443714Y-79065428D01*
X184443714Y-79255904D01*
X184396095Y-79351142D01*
X184348476Y-79398761D01*
X184253238Y-79446380D01*
X184062761Y-79446380D01*
X183967523Y-79398761D01*
X183919904Y-79351142D01*
X183872285Y-79255904D01*
X183872285Y-79065428D01*
X183919904Y-78970190D01*
X183967523Y-78922571D01*
X184062761Y-78874952D01*
G04 #@! TO.C,R9*
X184824666Y-81986380D02*
X185158000Y-81510190D01*
X185396095Y-81986380D02*
X185396095Y-80986380D01*
X185015142Y-80986380D01*
X184919904Y-81034000D01*
X184872285Y-81081619D01*
X184824666Y-81176857D01*
X184824666Y-81319714D01*
X184872285Y-81414952D01*
X184919904Y-81462571D01*
X185015142Y-81510190D01*
X185396095Y-81510190D01*
X184348476Y-81986380D02*
X184158000Y-81986380D01*
X184062761Y-81938761D01*
X184015142Y-81891142D01*
X183919904Y-81748285D01*
X183872285Y-81557809D01*
X183872285Y-81176857D01*
X183919904Y-81081619D01*
X183967523Y-81034000D01*
X184062761Y-80986380D01*
X184253238Y-80986380D01*
X184348476Y-81034000D01*
X184396095Y-81081619D01*
X184443714Y-81176857D01*
X184443714Y-81414952D01*
X184396095Y-81510190D01*
X184348476Y-81557809D01*
X184253238Y-81605428D01*
X184062761Y-81605428D01*
X183967523Y-81557809D01*
X183919904Y-81510190D01*
X183872285Y-81414952D01*
G04 #@! TO.C,R10*
X203334857Y-73858380D02*
X203668190Y-73382190D01*
X203906285Y-73858380D02*
X203906285Y-72858380D01*
X203525333Y-72858380D01*
X203430095Y-72906000D01*
X203382476Y-72953619D01*
X203334857Y-73048857D01*
X203334857Y-73191714D01*
X203382476Y-73286952D01*
X203430095Y-73334571D01*
X203525333Y-73382190D01*
X203906285Y-73382190D01*
X202382476Y-73858380D02*
X202953904Y-73858380D01*
X202668190Y-73858380D02*
X202668190Y-72858380D01*
X202763428Y-73001238D01*
X202858666Y-73096476D01*
X202953904Y-73144095D01*
X201763428Y-72858380D02*
X201668190Y-72858380D01*
X201572952Y-72906000D01*
X201525333Y-72953619D01*
X201477714Y-73048857D01*
X201430095Y-73239333D01*
X201430095Y-73477428D01*
X201477714Y-73667904D01*
X201525333Y-73763142D01*
X201572952Y-73810761D01*
X201668190Y-73858380D01*
X201763428Y-73858380D01*
X201858666Y-73810761D01*
X201906285Y-73763142D01*
X201953904Y-73667904D01*
X202001523Y-73477428D01*
X202001523Y-73239333D01*
X201953904Y-73048857D01*
X201906285Y-72953619D01*
X201858666Y-72906000D01*
X201763428Y-72858380D01*
G04 #@! TO.C,C1*
X204128666Y-82907142D02*
X204176285Y-82954761D01*
X204319142Y-83002380D01*
X204414380Y-83002380D01*
X204557238Y-82954761D01*
X204652476Y-82859523D01*
X204700095Y-82764285D01*
X204747714Y-82573809D01*
X204747714Y-82430952D01*
X204700095Y-82240476D01*
X204652476Y-82145238D01*
X204557238Y-82050000D01*
X204414380Y-82002380D01*
X204319142Y-82002380D01*
X204176285Y-82050000D01*
X204128666Y-82097619D01*
X203176285Y-83002380D02*
X203747714Y-83002380D01*
X203462000Y-83002380D02*
X203462000Y-82002380D01*
X203557238Y-82145238D01*
X203652476Y-82240476D01*
X203747714Y-82288095D01*
G04 #@! TO.C,C2*
X201842666Y-82907142D02*
X201890285Y-82954761D01*
X202033142Y-83002380D01*
X202128380Y-83002380D01*
X202271238Y-82954761D01*
X202366476Y-82859523D01*
X202414095Y-82764285D01*
X202461714Y-82573809D01*
X202461714Y-82430952D01*
X202414095Y-82240476D01*
X202366476Y-82145238D01*
X202271238Y-82050000D01*
X202128380Y-82002380D01*
X202033142Y-82002380D01*
X201890285Y-82050000D01*
X201842666Y-82097619D01*
X201461714Y-82097619D02*
X201414095Y-82050000D01*
X201318857Y-82002380D01*
X201080761Y-82002380D01*
X200985523Y-82050000D01*
X200937904Y-82097619D01*
X200890285Y-82192857D01*
X200890285Y-82288095D01*
X200937904Y-82430952D01*
X201509333Y-83002380D01*
X200890285Y-83002380D01*
G04 #@! TO.C,C3*
X184824666Y-84177142D02*
X184872285Y-84224761D01*
X185015142Y-84272380D01*
X185110380Y-84272380D01*
X185253238Y-84224761D01*
X185348476Y-84129523D01*
X185396095Y-84034285D01*
X185443714Y-83843809D01*
X185443714Y-83700952D01*
X185396095Y-83510476D01*
X185348476Y-83415238D01*
X185253238Y-83320000D01*
X185110380Y-83272380D01*
X185015142Y-83272380D01*
X184872285Y-83320000D01*
X184824666Y-83367619D01*
X184491333Y-83272380D02*
X183872285Y-83272380D01*
X184205619Y-83653333D01*
X184062761Y-83653333D01*
X183967523Y-83700952D01*
X183919904Y-83748571D01*
X183872285Y-83843809D01*
X183872285Y-84081904D01*
X183919904Y-84177142D01*
X183967523Y-84224761D01*
X184062761Y-84272380D01*
X184348476Y-84272380D01*
X184443714Y-84224761D01*
X184491333Y-84177142D01*
G04 #@! TO.C,C4*
X130881666Y-74271142D02*
X130929285Y-74318761D01*
X131072142Y-74366380D01*
X131167380Y-74366380D01*
X131310238Y-74318761D01*
X131405476Y-74223523D01*
X131453095Y-74128285D01*
X131500714Y-73937809D01*
X131500714Y-73794952D01*
X131453095Y-73604476D01*
X131405476Y-73509238D01*
X131310238Y-73414000D01*
X131167380Y-73366380D01*
X131072142Y-73366380D01*
X130929285Y-73414000D01*
X130881666Y-73461619D01*
X130024523Y-73699714D02*
X130024523Y-74366380D01*
X130262619Y-73318761D02*
X130500714Y-74033047D01*
X129881666Y-74033047D01*
G04 #@! TO.C,C5*
X130976666Y-77319142D02*
X131024285Y-77366761D01*
X131167142Y-77414380D01*
X131262380Y-77414380D01*
X131405238Y-77366761D01*
X131500476Y-77271523D01*
X131548095Y-77176285D01*
X131595714Y-76985809D01*
X131595714Y-76842952D01*
X131548095Y-76652476D01*
X131500476Y-76557238D01*
X131405238Y-76462000D01*
X131262380Y-76414380D01*
X131167142Y-76414380D01*
X131024285Y-76462000D01*
X130976666Y-76509619D01*
X130071904Y-76414380D02*
X130548095Y-76414380D01*
X130595714Y-76890571D01*
X130548095Y-76842952D01*
X130452857Y-76795333D01*
X130214761Y-76795333D01*
X130119523Y-76842952D01*
X130071904Y-76890571D01*
X130024285Y-76985809D01*
X130024285Y-77223904D01*
X130071904Y-77319142D01*
X130119523Y-77366761D01*
X130214761Y-77414380D01*
X130452857Y-77414380D01*
X130548095Y-77366761D01*
X130595714Y-77319142D01*
G04 #@! TO.C,C0*
X202858666Y-94083142D02*
X202906285Y-94130761D01*
X203049142Y-94178380D01*
X203144380Y-94178380D01*
X203287238Y-94130761D01*
X203382476Y-94035523D01*
X203430095Y-93940285D01*
X203477714Y-93749809D01*
X203477714Y-93606952D01*
X203430095Y-93416476D01*
X203382476Y-93321238D01*
X203287238Y-93226000D01*
X203144380Y-93178380D01*
X203049142Y-93178380D01*
X202906285Y-93226000D01*
X202858666Y-93273619D01*
X202239619Y-93178380D02*
X202144380Y-93178380D01*
X202049142Y-93226000D01*
X202001523Y-93273619D01*
X201953904Y-93368857D01*
X201906285Y-93559333D01*
X201906285Y-93797428D01*
X201953904Y-93987904D01*
X202001523Y-94083142D01*
X202049142Y-94130761D01*
X202144380Y-94178380D01*
X202239619Y-94178380D01*
X202334857Y-94130761D01*
X202382476Y-94083142D01*
X202430095Y-93987904D01*
X202477714Y-93797428D01*
X202477714Y-93559333D01*
X202430095Y-93368857D01*
X202382476Y-93273619D01*
X202334857Y-93226000D01*
X202239619Y-93178380D01*
G04 #@! TO.C,D6*
X179554095Y-74112380D02*
X179554095Y-73112380D01*
X179316000Y-73112380D01*
X179173142Y-73160000D01*
X179077904Y-73255238D01*
X179030285Y-73350476D01*
X178982666Y-73540952D01*
X178982666Y-73683809D01*
X179030285Y-73874285D01*
X179077904Y-73969523D01*
X179173142Y-74064761D01*
X179316000Y-74112380D01*
X179554095Y-74112380D01*
X178125523Y-73112380D02*
X178316000Y-73112380D01*
X178411238Y-73160000D01*
X178458857Y-73207619D01*
X178554095Y-73350476D01*
X178601714Y-73540952D01*
X178601714Y-73921904D01*
X178554095Y-74017142D01*
X178506476Y-74064761D01*
X178411238Y-74112380D01*
X178220761Y-74112380D01*
X178125523Y-74064761D01*
X178077904Y-74017142D01*
X178030285Y-73921904D01*
X178030285Y-73683809D01*
X178077904Y-73588571D01*
X178125523Y-73540952D01*
X178220761Y-73493333D01*
X178411238Y-73493333D01*
X178506476Y-73540952D01*
X178554095Y-73588571D01*
X178601714Y-73683809D01*
G04 #@! TO.C,D7*
X179554095Y-76652380D02*
X179554095Y-75652380D01*
X179316000Y-75652380D01*
X179173142Y-75700000D01*
X179077904Y-75795238D01*
X179030285Y-75890476D01*
X178982666Y-76080952D01*
X178982666Y-76223809D01*
X179030285Y-76414285D01*
X179077904Y-76509523D01*
X179173142Y-76604761D01*
X179316000Y-76652380D01*
X179554095Y-76652380D01*
X178649333Y-75652380D02*
X177982666Y-75652380D01*
X178411238Y-76652380D01*
G04 #@! TO.C,R6*
X184824666Y-74112380D02*
X185158000Y-73636190D01*
X185396095Y-74112380D02*
X185396095Y-73112380D01*
X185015142Y-73112380D01*
X184919904Y-73160000D01*
X184872285Y-73207619D01*
X184824666Y-73302857D01*
X184824666Y-73445714D01*
X184872285Y-73540952D01*
X184919904Y-73588571D01*
X185015142Y-73636190D01*
X185396095Y-73636190D01*
X183967523Y-73112380D02*
X184158000Y-73112380D01*
X184253238Y-73160000D01*
X184300857Y-73207619D01*
X184396095Y-73350476D01*
X184443714Y-73540952D01*
X184443714Y-73921904D01*
X184396095Y-74017142D01*
X184348476Y-74064761D01*
X184253238Y-74112380D01*
X184062761Y-74112380D01*
X183967523Y-74064761D01*
X183919904Y-74017142D01*
X183872285Y-73921904D01*
X183872285Y-73683809D01*
X183919904Y-73588571D01*
X183967523Y-73540952D01*
X184062761Y-73493333D01*
X184253238Y-73493333D01*
X184348476Y-73540952D01*
X184396095Y-73588571D01*
X184443714Y-73683809D01*
G04 #@! TO.C,R7*
X184824666Y-76652380D02*
X185158000Y-76176190D01*
X185396095Y-76652380D02*
X185396095Y-75652380D01*
X185015142Y-75652380D01*
X184919904Y-75700000D01*
X184872285Y-75747619D01*
X184824666Y-75842857D01*
X184824666Y-75985714D01*
X184872285Y-76080952D01*
X184919904Y-76128571D01*
X185015142Y-76176190D01*
X185396095Y-76176190D01*
X184491333Y-75652380D02*
X183824666Y-75652380D01*
X184253238Y-76652380D01*
G04 #@! TO.C,R11*
X130690857Y-80208380D02*
X131024190Y-79732190D01*
X131262285Y-80208380D02*
X131262285Y-79208380D01*
X130881333Y-79208380D01*
X130786095Y-79256000D01*
X130738476Y-79303619D01*
X130690857Y-79398857D01*
X130690857Y-79541714D01*
X130738476Y-79636952D01*
X130786095Y-79684571D01*
X130881333Y-79732190D01*
X131262285Y-79732190D01*
X129738476Y-80208380D02*
X130309904Y-80208380D01*
X130024190Y-80208380D02*
X130024190Y-79208380D01*
X130119428Y-79351238D01*
X130214666Y-79446476D01*
X130309904Y-79494095D01*
X128786095Y-80208380D02*
X129357523Y-80208380D01*
X129071809Y-80208380D02*
X129071809Y-79208380D01*
X129167047Y-79351238D01*
X129262285Y-79446476D01*
X129357523Y-79494095D01*
G04 #@! TO.C,R12*
X122992357Y-74112380D02*
X123325690Y-73636190D01*
X123563785Y-74112380D02*
X123563785Y-73112380D01*
X123182833Y-73112380D01*
X123087595Y-73160000D01*
X123039976Y-73207619D01*
X122992357Y-73302857D01*
X122992357Y-73445714D01*
X123039976Y-73540952D01*
X123087595Y-73588571D01*
X123182833Y-73636190D01*
X123563785Y-73636190D01*
X122039976Y-74112380D02*
X122611404Y-74112380D01*
X122325690Y-74112380D02*
X122325690Y-73112380D01*
X122420928Y-73255238D01*
X122516166Y-73350476D01*
X122611404Y-73398095D01*
X121659023Y-73207619D02*
X121611404Y-73160000D01*
X121516166Y-73112380D01*
X121278071Y-73112380D01*
X121182833Y-73160000D01*
X121135214Y-73207619D01*
X121087595Y-73302857D01*
X121087595Y-73398095D01*
X121135214Y-73540952D01*
X121706642Y-74112380D01*
X121087595Y-74112380D01*
G04 #@! TO.C,R13*
X123227857Y-76652380D02*
X123561190Y-76176190D01*
X123799285Y-76652380D02*
X123799285Y-75652380D01*
X123418333Y-75652380D01*
X123323095Y-75700000D01*
X123275476Y-75747619D01*
X123227857Y-75842857D01*
X123227857Y-75985714D01*
X123275476Y-76080952D01*
X123323095Y-76128571D01*
X123418333Y-76176190D01*
X123799285Y-76176190D01*
X122275476Y-76652380D02*
X122846904Y-76652380D01*
X122561190Y-76652380D02*
X122561190Y-75652380D01*
X122656428Y-75795238D01*
X122751666Y-75890476D01*
X122846904Y-75938095D01*
X121942142Y-75652380D02*
X121323095Y-75652380D01*
X121656428Y-76033333D01*
X121513571Y-76033333D01*
X121418333Y-76080952D01*
X121370714Y-76128571D01*
X121323095Y-76223809D01*
X121323095Y-76461904D01*
X121370714Y-76557142D01*
X121418333Y-76604761D01*
X121513571Y-76652380D01*
X121799285Y-76652380D01*
X121894523Y-76604761D01*
X121942142Y-76557142D01*
G04 #@! TO.C,R14*
X123149357Y-79192380D02*
X123482690Y-78716190D01*
X123720785Y-79192380D02*
X123720785Y-78192380D01*
X123339833Y-78192380D01*
X123244595Y-78240000D01*
X123196976Y-78287619D01*
X123149357Y-78382857D01*
X123149357Y-78525714D01*
X123196976Y-78620952D01*
X123244595Y-78668571D01*
X123339833Y-78716190D01*
X123720785Y-78716190D01*
X122196976Y-79192380D02*
X122768404Y-79192380D01*
X122482690Y-79192380D02*
X122482690Y-78192380D01*
X122577928Y-78335238D01*
X122673166Y-78430476D01*
X122768404Y-78478095D01*
X121339833Y-78525714D02*
X121339833Y-79192380D01*
X121577928Y-78144761D02*
X121816023Y-78859047D01*
X121196976Y-78859047D01*
G04 #@! TO.C,R15*
X123070857Y-81732380D02*
X123404190Y-81256190D01*
X123642285Y-81732380D02*
X123642285Y-80732380D01*
X123261333Y-80732380D01*
X123166095Y-80780000D01*
X123118476Y-80827619D01*
X123070857Y-80922857D01*
X123070857Y-81065714D01*
X123118476Y-81160952D01*
X123166095Y-81208571D01*
X123261333Y-81256190D01*
X123642285Y-81256190D01*
X122118476Y-81732380D02*
X122689904Y-81732380D01*
X122404190Y-81732380D02*
X122404190Y-80732380D01*
X122499428Y-80875238D01*
X122594666Y-80970476D01*
X122689904Y-81018095D01*
X121213714Y-80732380D02*
X121689904Y-80732380D01*
X121737523Y-81208571D01*
X121689904Y-81160952D01*
X121594666Y-81113333D01*
X121356571Y-81113333D01*
X121261333Y-81160952D01*
X121213714Y-81208571D01*
X121166095Y-81303809D01*
X121166095Y-81541904D01*
X121213714Y-81637142D01*
X121261333Y-81684761D01*
X121356571Y-81732380D01*
X121594666Y-81732380D01*
X121689904Y-81684761D01*
X121737523Y-81637142D01*
G04 #@! TD*
M02*
