G04 #@! TF.GenerationSoftware,KiCad,Pcbnew,(5.0.1-3-g963ef8bb5)*
G04 #@! TF.CreationDate,2019-06-28T12:59:27+01:00*
G04 #@! TF.ProjectId,invitation,696E7669746174696F6E2E6B69636164,rev?*
G04 #@! TF.SameCoordinates,Original*
G04 #@! TF.FileFunction,Soldermask,Bot*
G04 #@! TF.FilePolarity,Negative*
%FSLAX46Y46*%
G04 Gerber Fmt 4.6, Leading zero omitted, Abs format (unit mm)*
G04 Created by KiCad (PCBNEW (5.0.1-3-g963ef8bb5)) date Friday, 28 June 2019 at 12:59:27*
%MOMM*%
%LPD*%
G01*
G04 APERTURE LIST*
%ADD10C,0.000100*%
%ADD11C,0.100000*%
G04 APERTURE END LIST*
D10*
G04 #@! TO.C,P1*
G36*
X166410000Y-76420000D02*
X164360000Y-76420000D01*
X164360000Y-73570000D01*
X164358570Y-73553730D01*
X164357560Y-73524824D01*
X164358070Y-73495905D01*
X164360090Y-73467053D01*
X164363610Y-73438345D01*
X164368630Y-73409861D01*
X164375140Y-73381679D01*
X164383110Y-73353876D01*
X164392530Y-73326528D01*
X164403360Y-73299711D01*
X164415590Y-73273498D01*
X164429160Y-73247960D01*
X164444060Y-73223170D01*
X164460230Y-73199190D01*
X164477640Y-73176090D01*
X164496230Y-73153930D01*
X164515960Y-73132780D01*
X164536760Y-73112690D01*
X164558590Y-73093710D01*
X164581380Y-73075910D01*
X164605080Y-73059320D01*
X164629600Y-73043990D01*
X164654900Y-73029970D01*
X164680900Y-73017290D01*
X164707520Y-73005990D01*
X164734700Y-72996090D01*
X164762360Y-72987640D01*
X164790420Y-72980640D01*
X164818810Y-72975120D01*
X164847460Y-72971090D01*
X164860000Y-72970000D01*
X165360000Y-72970000D01*
X165376550Y-72971150D01*
X165405850Y-72974750D01*
X165434930Y-72979880D01*
X165463700Y-72986520D01*
X165492080Y-72994660D01*
X165519990Y-73004270D01*
X165547370Y-73015330D01*
X165574130Y-73027810D01*
X165600200Y-73041670D01*
X165625500Y-73056870D01*
X165649980Y-73073380D01*
X165673560Y-73091150D01*
X165696180Y-73110130D01*
X165717770Y-73130270D01*
X165738280Y-73151500D01*
X165757650Y-73173790D01*
X165775830Y-73197050D01*
X165792760Y-73221240D01*
X165808410Y-73246280D01*
X165822720Y-73272098D01*
X165835660Y-73298634D01*
X165847200Y-73325812D01*
X165857300Y-73353555D01*
X165865930Y-73381790D01*
X165873070Y-73410437D01*
X165878710Y-73439419D01*
X165882820Y-73468657D01*
X165885390Y-73498069D01*
X165886420Y-73527575D01*
X165885910Y-73557095D01*
X165885000Y-73570000D01*
X165885000Y-75520000D01*
X166410000Y-75520000D01*
X166410000Y-76420000D01*
G37*
X166410000Y-76420000D02*
X164360000Y-76420000D01*
X164360000Y-73570000D01*
X164358570Y-73553730D01*
X164357560Y-73524824D01*
X164358070Y-73495905D01*
X164360090Y-73467053D01*
X164363610Y-73438345D01*
X164368630Y-73409861D01*
X164375140Y-73381679D01*
X164383110Y-73353876D01*
X164392530Y-73326528D01*
X164403360Y-73299711D01*
X164415590Y-73273498D01*
X164429160Y-73247960D01*
X164444060Y-73223170D01*
X164460230Y-73199190D01*
X164477640Y-73176090D01*
X164496230Y-73153930D01*
X164515960Y-73132780D01*
X164536760Y-73112690D01*
X164558590Y-73093710D01*
X164581380Y-73075910D01*
X164605080Y-73059320D01*
X164629600Y-73043990D01*
X164654900Y-73029970D01*
X164680900Y-73017290D01*
X164707520Y-73005990D01*
X164734700Y-72996090D01*
X164762360Y-72987640D01*
X164790420Y-72980640D01*
X164818810Y-72975120D01*
X164847460Y-72971090D01*
X164860000Y-72970000D01*
X165360000Y-72970000D01*
X165376550Y-72971150D01*
X165405850Y-72974750D01*
X165434930Y-72979880D01*
X165463700Y-72986520D01*
X165492080Y-72994660D01*
X165519990Y-73004270D01*
X165547370Y-73015330D01*
X165574130Y-73027810D01*
X165600200Y-73041670D01*
X165625500Y-73056870D01*
X165649980Y-73073380D01*
X165673560Y-73091150D01*
X165696180Y-73110130D01*
X165717770Y-73130270D01*
X165738280Y-73151500D01*
X165757650Y-73173790D01*
X165775830Y-73197050D01*
X165792760Y-73221240D01*
X165808410Y-73246280D01*
X165822720Y-73272098D01*
X165835660Y-73298634D01*
X165847200Y-73325812D01*
X165857300Y-73353555D01*
X165865930Y-73381790D01*
X165873070Y-73410437D01*
X165878710Y-73439419D01*
X165882820Y-73468657D01*
X165885390Y-73498069D01*
X165886420Y-73527575D01*
X165885910Y-73557095D01*
X165885000Y-73570000D01*
X165885000Y-75520000D01*
X166410000Y-75520000D01*
X166410000Y-76420000D01*
D11*
G36*
X164210000Y-78130000D02*
X166410000Y-78130000D01*
X166410000Y-76470000D01*
X164210000Y-76470000D01*
X164210000Y-78130000D01*
G37*
G36*
X158410000Y-78130000D02*
X160610000Y-78130000D01*
X160610000Y-76470000D01*
X158410000Y-76470000D01*
X158410000Y-78130000D01*
G37*
D10*
G36*
X158410000Y-76420000D02*
X160460000Y-76420000D01*
X160460000Y-73570000D01*
X160461430Y-73553730D01*
X160462440Y-73524824D01*
X160461930Y-73495905D01*
X160459910Y-73467053D01*
X160456390Y-73438345D01*
X160451370Y-73409861D01*
X160444860Y-73381679D01*
X160436890Y-73353876D01*
X160427470Y-73326528D01*
X160416640Y-73299711D01*
X160404410Y-73273498D01*
X160390840Y-73247960D01*
X160375940Y-73223170D01*
X160359770Y-73199190D01*
X160342360Y-73176090D01*
X160323770Y-73153930D01*
X160304040Y-73132780D01*
X160283240Y-73112690D01*
X160261410Y-73093710D01*
X160238620Y-73075910D01*
X160214920Y-73059320D01*
X160190400Y-73043990D01*
X160165100Y-73029970D01*
X160139100Y-73017290D01*
X160112480Y-73005990D01*
X160085300Y-72996090D01*
X160057640Y-72987640D01*
X160029580Y-72980640D01*
X160001190Y-72975120D01*
X159972540Y-72971090D01*
X159960000Y-72970000D01*
X159460000Y-72970000D01*
X159443450Y-72971150D01*
X159414150Y-72974750D01*
X159385070Y-72979880D01*
X159356300Y-72986520D01*
X159327920Y-72994660D01*
X159300010Y-73004270D01*
X159272630Y-73015330D01*
X159245870Y-73027810D01*
X159219800Y-73041670D01*
X159194500Y-73056870D01*
X159170020Y-73073380D01*
X159146440Y-73091150D01*
X159123820Y-73110130D01*
X159102230Y-73130270D01*
X159081720Y-73151500D01*
X159062350Y-73173790D01*
X159044170Y-73197050D01*
X159027240Y-73221240D01*
X159011590Y-73246280D01*
X158997280Y-73272098D01*
X158984340Y-73298634D01*
X158972800Y-73325812D01*
X158962700Y-73353555D01*
X158954070Y-73381790D01*
X158946930Y-73410437D01*
X158941290Y-73439419D01*
X158937180Y-73468657D01*
X158934610Y-73498069D01*
X158933580Y-73527575D01*
X158934090Y-73557095D01*
X158935000Y-73570000D01*
X158935000Y-75520000D01*
X158410000Y-75520000D01*
X158410000Y-76420000D01*
G37*
X158410000Y-76420000D02*
X160460000Y-76420000D01*
X160460000Y-73570000D01*
X160461430Y-73553730D01*
X160462440Y-73524824D01*
X160461930Y-73495905D01*
X160459910Y-73467053D01*
X160456390Y-73438345D01*
X160451370Y-73409861D01*
X160444860Y-73381679D01*
X160436890Y-73353876D01*
X160427470Y-73326528D01*
X160416640Y-73299711D01*
X160404410Y-73273498D01*
X160390840Y-73247960D01*
X160375940Y-73223170D01*
X160359770Y-73199190D01*
X160342360Y-73176090D01*
X160323770Y-73153930D01*
X160304040Y-73132780D01*
X160283240Y-73112690D01*
X160261410Y-73093710D01*
X160238620Y-73075910D01*
X160214920Y-73059320D01*
X160190400Y-73043990D01*
X160165100Y-73029970D01*
X160139100Y-73017290D01*
X160112480Y-73005990D01*
X160085300Y-72996090D01*
X160057640Y-72987640D01*
X160029580Y-72980640D01*
X160001190Y-72975120D01*
X159972540Y-72971090D01*
X159960000Y-72970000D01*
X159460000Y-72970000D01*
X159443450Y-72971150D01*
X159414150Y-72974750D01*
X159385070Y-72979880D01*
X159356300Y-72986520D01*
X159327920Y-72994660D01*
X159300010Y-73004270D01*
X159272630Y-73015330D01*
X159245870Y-73027810D01*
X159219800Y-73041670D01*
X159194500Y-73056870D01*
X159170020Y-73073380D01*
X159146440Y-73091150D01*
X159123820Y-73110130D01*
X159102230Y-73130270D01*
X159081720Y-73151500D01*
X159062350Y-73173790D01*
X159044170Y-73197050D01*
X159027240Y-73221240D01*
X159011590Y-73246280D01*
X158997280Y-73272098D01*
X158984340Y-73298634D01*
X158972800Y-73325812D01*
X158962700Y-73353555D01*
X158954070Y-73381790D01*
X158946930Y-73410437D01*
X158941290Y-73439419D01*
X158937180Y-73468657D01*
X158934610Y-73498069D01*
X158933580Y-73527575D01*
X158934090Y-73557095D01*
X158935000Y-73570000D01*
X158935000Y-75520000D01*
X158410000Y-75520000D01*
X158410000Y-76420000D01*
D11*
G36*
X141962000Y-122008000D02*
X140862000Y-122008000D01*
X140862000Y-120308000D01*
X141962000Y-120308000D01*
X141962000Y-122008000D01*
X141962000Y-122008000D01*
G37*
G36*
X140062000Y-122008000D02*
X138962000Y-122008000D01*
X138962000Y-120308000D01*
X140062000Y-120308000D01*
X140062000Y-122008000D01*
X140062000Y-122008000D01*
G37*
G36*
X152522000Y-121958000D02*
X150922000Y-121958000D01*
X150922000Y-120358000D01*
X152522000Y-120358000D01*
X152522000Y-121958000D01*
X152522000Y-121958000D01*
G37*
G36*
X150322000Y-121958000D02*
X148722000Y-121958000D01*
X148722000Y-120358000D01*
X150322000Y-120358000D01*
X150322000Y-121958000D01*
X150322000Y-121958000D01*
G37*
G36*
X171934000Y-121754000D02*
X170834000Y-121754000D01*
X170834000Y-120054000D01*
X171934000Y-120054000D01*
X171934000Y-121754000D01*
X171934000Y-121754000D01*
G37*
G36*
X170034000Y-121754000D02*
X168934000Y-121754000D01*
X168934000Y-120054000D01*
X170034000Y-120054000D01*
X170034000Y-121754000D01*
X170034000Y-121754000D01*
G37*
G36*
X182748000Y-121704000D02*
X181148000Y-121704000D01*
X181148000Y-120104000D01*
X182748000Y-120104000D01*
X182748000Y-121704000D01*
X182748000Y-121704000D01*
G37*
G36*
X180548000Y-121704000D02*
X178948000Y-121704000D01*
X178948000Y-120104000D01*
X180548000Y-120104000D01*
X180548000Y-121704000D01*
X180548000Y-121704000D01*
G37*
G36*
X126722000Y-110832000D02*
X125622000Y-110832000D01*
X125622000Y-109132000D01*
X126722000Y-109132000D01*
X126722000Y-110832000D01*
X126722000Y-110832000D01*
G37*
G36*
X124822000Y-110832000D02*
X123722000Y-110832000D01*
X123722000Y-109132000D01*
X124822000Y-109132000D01*
X124822000Y-110832000D01*
X124822000Y-110832000D01*
G37*
G36*
X200820000Y-110670000D02*
X199220000Y-110670000D01*
X199220000Y-109070000D01*
X200820000Y-109070000D01*
X200820000Y-110670000D01*
X200820000Y-110670000D01*
G37*
G36*
X198620000Y-110670000D02*
X197020000Y-110670000D01*
X197020000Y-109070000D01*
X198620000Y-109070000D01*
X198620000Y-110670000D01*
X198620000Y-110670000D01*
G37*
G36*
X126722000Y-106006000D02*
X125622000Y-106006000D01*
X125622000Y-104306000D01*
X126722000Y-104306000D01*
X126722000Y-106006000D01*
X126722000Y-106006000D01*
G37*
G36*
X124822000Y-106006000D02*
X123722000Y-106006000D01*
X123722000Y-104306000D01*
X124822000Y-104306000D01*
X124822000Y-106006000D01*
X124822000Y-106006000D01*
G37*
G36*
X198582000Y-105956000D02*
X196982000Y-105956000D01*
X196982000Y-104356000D01*
X198582000Y-104356000D01*
X198582000Y-105956000D01*
X198582000Y-105956000D01*
G37*
G36*
X200782000Y-105956000D02*
X199182000Y-105956000D01*
X199182000Y-104356000D01*
X200782000Y-104356000D01*
X200782000Y-105956000D01*
X200782000Y-105956000D01*
G37*
G36*
X126656000Y-101180000D02*
X125556000Y-101180000D01*
X125556000Y-99480000D01*
X126656000Y-99480000D01*
X126656000Y-101180000D01*
X126656000Y-101180000D01*
G37*
G36*
X124756000Y-101180000D02*
X123656000Y-101180000D01*
X123656000Y-99480000D01*
X124756000Y-99480000D01*
X124756000Y-101180000D01*
X124756000Y-101180000D01*
G37*
G36*
X200810000Y-101120000D02*
X199210000Y-101120000D01*
X199210000Y-99520000D01*
X200810000Y-99520000D01*
X200810000Y-101120000D01*
X200810000Y-101120000D01*
G37*
G36*
X198610000Y-101120000D02*
X197010000Y-101120000D01*
X197010000Y-99520000D01*
X198610000Y-99520000D01*
X198610000Y-101120000D01*
X198610000Y-101120000D01*
G37*
G36*
X201286000Y-94826000D02*
X199336000Y-94826000D01*
X199336000Y-92626000D01*
X201286000Y-92626000D01*
X201286000Y-94826000D01*
X201286000Y-94826000D01*
G37*
G36*
X198936000Y-94826000D02*
X196986000Y-94826000D01*
X196986000Y-92626000D01*
X198936000Y-92626000D01*
X198936000Y-94826000D01*
X198936000Y-94826000D01*
G37*
G36*
X202501000Y-86790000D02*
X200851000Y-86790000D01*
X200851000Y-85390000D01*
X202501000Y-85390000D01*
X202501000Y-86790000D01*
X202501000Y-86790000D01*
G37*
G36*
X204787000Y-86790000D02*
X203137000Y-86790000D01*
X203137000Y-85390000D01*
X204787000Y-85390000D01*
X204787000Y-86790000D01*
X204787000Y-86790000D01*
G37*
G36*
X197007000Y-86660000D02*
X188057000Y-86660000D01*
X188057000Y-84760000D01*
X197007000Y-84760000D01*
X197007000Y-86660000D01*
X197007000Y-86660000D01*
G37*
G36*
X204787000Y-84790000D02*
X203137000Y-84790000D01*
X203137000Y-83390000D01*
X204787000Y-83390000D01*
X204787000Y-84790000D01*
X204787000Y-84790000D01*
G37*
G36*
X202501000Y-84790000D02*
X200851000Y-84790000D01*
X200851000Y-83390000D01*
X202501000Y-83390000D01*
X202501000Y-84790000D01*
X202501000Y-84790000D01*
G37*
G36*
X183564000Y-84645000D02*
X182164000Y-84645000D01*
X182164000Y-82995000D01*
X183564000Y-82995000D01*
X183564000Y-84645000D01*
X183564000Y-84645000D01*
G37*
G36*
X181564000Y-84645000D02*
X180164000Y-84645000D01*
X180164000Y-82995000D01*
X181564000Y-82995000D01*
X181564000Y-84645000D01*
X181564000Y-84645000D01*
G37*
G36*
X187782000Y-84485000D02*
X185882000Y-84485000D01*
X185882000Y-75535000D01*
X187782000Y-75535000D01*
X187782000Y-84485000D01*
X187782000Y-84485000D01*
G37*
G36*
X199182000Y-84485000D02*
X197282000Y-84485000D01*
X197282000Y-75535000D01*
X199182000Y-75535000D01*
X199182000Y-84485000D01*
X199182000Y-84485000D01*
G37*
G36*
X181464000Y-82384000D02*
X180364000Y-82384000D01*
X180364000Y-80684000D01*
X181464000Y-80684000D01*
X181464000Y-82384000D01*
X181464000Y-82384000D01*
G37*
G36*
X183364000Y-82384000D02*
X182264000Y-82384000D01*
X182264000Y-80684000D01*
X183364000Y-80684000D01*
X183364000Y-82384000D01*
X183364000Y-82384000D01*
G37*
G36*
X125253497Y-80385997D02*
X125306153Y-80401970D01*
X125354665Y-80427900D01*
X125397196Y-80462804D01*
X125432100Y-80505335D01*
X125458030Y-80553847D01*
X125474003Y-80606503D01*
X125480000Y-80667390D01*
X125480000Y-81892610D01*
X125474003Y-81953497D01*
X125458030Y-82006153D01*
X125432100Y-82054665D01*
X125397196Y-82097196D01*
X125354665Y-82132100D01*
X125306153Y-82158030D01*
X125253497Y-82174003D01*
X125192610Y-82180000D01*
X124392390Y-82180000D01*
X124331503Y-82174003D01*
X124278847Y-82158030D01*
X124230335Y-82132100D01*
X124187804Y-82097196D01*
X124152900Y-82054665D01*
X124126970Y-82006153D01*
X124110997Y-81953497D01*
X124105000Y-81892610D01*
X124105000Y-80667390D01*
X124110997Y-80606503D01*
X124126970Y-80553847D01*
X124152900Y-80505335D01*
X124187804Y-80462804D01*
X124230335Y-80427900D01*
X124278847Y-80401970D01*
X124331503Y-80385997D01*
X124392390Y-80380000D01*
X125192610Y-80380000D01*
X125253497Y-80385997D01*
X125253497Y-80385997D01*
G37*
G36*
X127128497Y-80385997D02*
X127181153Y-80401970D01*
X127229665Y-80427900D01*
X127272196Y-80462804D01*
X127307100Y-80505335D01*
X127333030Y-80553847D01*
X127349003Y-80606503D01*
X127355000Y-80667390D01*
X127355000Y-81892610D01*
X127349003Y-81953497D01*
X127333030Y-82006153D01*
X127307100Y-82054665D01*
X127272196Y-82097196D01*
X127229665Y-82132100D01*
X127181153Y-82158030D01*
X127128497Y-82174003D01*
X127067610Y-82180000D01*
X126267390Y-82180000D01*
X126206503Y-82174003D01*
X126153847Y-82158030D01*
X126105335Y-82132100D01*
X126062804Y-82097196D01*
X126027900Y-82054665D01*
X126001970Y-82006153D01*
X125985997Y-81953497D01*
X125980000Y-81892610D01*
X125980000Y-80667390D01*
X125985997Y-80606503D01*
X126001970Y-80553847D01*
X126027900Y-80505335D01*
X126062804Y-80462804D01*
X126105335Y-80427900D01*
X126153847Y-80401970D01*
X126206503Y-80385997D01*
X126267390Y-80380000D01*
X127067610Y-80380000D01*
X127128497Y-80385997D01*
X127128497Y-80385997D01*
G37*
G36*
X204546000Y-81756000D02*
X201346000Y-81756000D01*
X201346000Y-79956000D01*
X204546000Y-79956000D01*
X204546000Y-81756000D01*
X204546000Y-81756000D01*
G37*
G36*
X134826997Y-78861997D02*
X134879653Y-78877970D01*
X134928165Y-78903900D01*
X134970696Y-78938804D01*
X135005600Y-78981335D01*
X135031530Y-79029847D01*
X135047503Y-79082503D01*
X135053500Y-79143390D01*
X135053500Y-80368610D01*
X135047503Y-80429497D01*
X135031530Y-80482153D01*
X135005600Y-80530665D01*
X134970696Y-80573196D01*
X134928165Y-80608100D01*
X134879653Y-80634030D01*
X134826997Y-80650003D01*
X134766110Y-80656000D01*
X133965890Y-80656000D01*
X133905003Y-80650003D01*
X133852347Y-80634030D01*
X133803835Y-80608100D01*
X133761304Y-80573196D01*
X133726400Y-80530665D01*
X133700470Y-80482153D01*
X133684497Y-80429497D01*
X133678500Y-80368610D01*
X133678500Y-79143390D01*
X133684497Y-79082503D01*
X133700470Y-79029847D01*
X133726400Y-78981335D01*
X133761304Y-78938804D01*
X133803835Y-78903900D01*
X133852347Y-78877970D01*
X133905003Y-78861997D01*
X133965890Y-78856000D01*
X134766110Y-78856000D01*
X134826997Y-78861997D01*
X134826997Y-78861997D01*
G37*
G36*
X132951997Y-78861997D02*
X133004653Y-78877970D01*
X133053165Y-78903900D01*
X133095696Y-78938804D01*
X133130600Y-78981335D01*
X133156530Y-79029847D01*
X133172503Y-79082503D01*
X133178500Y-79143390D01*
X133178500Y-80368610D01*
X133172503Y-80429497D01*
X133156530Y-80482153D01*
X133130600Y-80530665D01*
X133095696Y-80573196D01*
X133053165Y-80608100D01*
X133004653Y-80634030D01*
X132951997Y-80650003D01*
X132891110Y-80656000D01*
X132090890Y-80656000D01*
X132030003Y-80650003D01*
X131977347Y-80634030D01*
X131928835Y-80608100D01*
X131886304Y-80573196D01*
X131851400Y-80530665D01*
X131825470Y-80482153D01*
X131809497Y-80429497D01*
X131803500Y-80368610D01*
X131803500Y-79143390D01*
X131809497Y-79082503D01*
X131825470Y-79029847D01*
X131851400Y-78981335D01*
X131886304Y-78938804D01*
X131928835Y-78903900D01*
X131977347Y-78877970D01*
X132030003Y-78861997D01*
X132090890Y-78856000D01*
X132891110Y-78856000D01*
X132951997Y-78861997D01*
X132951997Y-78861997D01*
G37*
G36*
X142424000Y-75368000D02*
X141753123Y-75368000D01*
X141728737Y-75370402D01*
X141705288Y-75377515D01*
X141683677Y-75389066D01*
X141664735Y-75404612D01*
X141649189Y-75423554D01*
X141637638Y-75445165D01*
X141630525Y-75468614D01*
X141628123Y-75493000D01*
X141630525Y-75517386D01*
X141637638Y-75540835D01*
X141649189Y-75562446D01*
X141664735Y-75581388D01*
X141683677Y-75596934D01*
X141705288Y-75608485D01*
X141792412Y-75644573D01*
X141988958Y-75775901D01*
X142156099Y-75943042D01*
X142287427Y-76139588D01*
X142377885Y-76357974D01*
X142424000Y-76589809D01*
X142424000Y-76826191D01*
X142377885Y-77058026D01*
X142287427Y-77276412D01*
X142156099Y-77472958D01*
X141988958Y-77640099D01*
X141792412Y-77771427D01*
X141572505Y-77862515D01*
X141550894Y-77874066D01*
X141531952Y-77889611D01*
X141516406Y-77908554D01*
X141504855Y-77930164D01*
X141497742Y-77953613D01*
X141495340Y-77978000D01*
X141497742Y-78002386D01*
X141504855Y-78025835D01*
X141516406Y-78047446D01*
X141531951Y-78066388D01*
X141550894Y-78081934D01*
X141572505Y-78093485D01*
X141792412Y-78184573D01*
X141988958Y-78315901D01*
X142156099Y-78483042D01*
X142287427Y-78679588D01*
X142377885Y-78897974D01*
X142424000Y-79129809D01*
X142424000Y-79366191D01*
X142377885Y-79598026D01*
X142287427Y-79816412D01*
X142156099Y-80012958D01*
X141988958Y-80180099D01*
X141792412Y-80311427D01*
X141574026Y-80401885D01*
X141342191Y-80448000D01*
X141105809Y-80448000D01*
X140873974Y-80401885D01*
X140655588Y-80311427D01*
X140459042Y-80180099D01*
X140291901Y-80012958D01*
X140160573Y-79816412D01*
X140070115Y-79598026D01*
X140024000Y-79366191D01*
X140024000Y-79129809D01*
X140070115Y-78897974D01*
X140160573Y-78679588D01*
X140291901Y-78483042D01*
X140459042Y-78315901D01*
X140655588Y-78184573D01*
X140875495Y-78093485D01*
X140897106Y-78081934D01*
X140916048Y-78066389D01*
X140931594Y-78047446D01*
X140943145Y-78025836D01*
X140950258Y-78002387D01*
X140952660Y-77978000D01*
X140950258Y-77953614D01*
X140943145Y-77930165D01*
X140931594Y-77908554D01*
X140916049Y-77889612D01*
X140897106Y-77874066D01*
X140875495Y-77862515D01*
X140655588Y-77771427D01*
X140459042Y-77640099D01*
X140291901Y-77472958D01*
X140160573Y-77276412D01*
X140070115Y-77058026D01*
X140024000Y-76826191D01*
X140024000Y-76589809D01*
X140070115Y-76357974D01*
X140160573Y-76139588D01*
X140291901Y-75943042D01*
X140459042Y-75775901D01*
X140655588Y-75644573D01*
X140742712Y-75608485D01*
X140764323Y-75596934D01*
X140783265Y-75581388D01*
X140798811Y-75562446D01*
X140810362Y-75540835D01*
X140817475Y-75517386D01*
X140819877Y-75493000D01*
X140817475Y-75468614D01*
X140810362Y-75445165D01*
X140798811Y-75423554D01*
X140783265Y-75404612D01*
X140764323Y-75389066D01*
X140742712Y-75377515D01*
X140719263Y-75370402D01*
X140694877Y-75368000D01*
X140024000Y-75368000D01*
X140024000Y-72968000D01*
X142424000Y-72968000D01*
X142424000Y-75368000D01*
X142424000Y-75368000D01*
G37*
G36*
X181464000Y-79844000D02*
X180364000Y-79844000D01*
X180364000Y-78144000D01*
X181464000Y-78144000D01*
X181464000Y-79844000D01*
X181464000Y-79844000D01*
G37*
G36*
X183364000Y-79844000D02*
X182264000Y-79844000D01*
X182264000Y-78144000D01*
X183364000Y-78144000D01*
X183364000Y-79844000D01*
X183364000Y-79844000D01*
G37*
G36*
X125331997Y-77845997D02*
X125384653Y-77861970D01*
X125433165Y-77887900D01*
X125475696Y-77922804D01*
X125510600Y-77965335D01*
X125536530Y-78013847D01*
X125552503Y-78066503D01*
X125558500Y-78127390D01*
X125558500Y-79352610D01*
X125552503Y-79413497D01*
X125536530Y-79466153D01*
X125510600Y-79514665D01*
X125475696Y-79557196D01*
X125433165Y-79592100D01*
X125384653Y-79618030D01*
X125331997Y-79634003D01*
X125271110Y-79640000D01*
X124470890Y-79640000D01*
X124410003Y-79634003D01*
X124357347Y-79618030D01*
X124308835Y-79592100D01*
X124266304Y-79557196D01*
X124231400Y-79514665D01*
X124205470Y-79466153D01*
X124189497Y-79413497D01*
X124183500Y-79352610D01*
X124183500Y-78127390D01*
X124189497Y-78066503D01*
X124205470Y-78013847D01*
X124231400Y-77965335D01*
X124266304Y-77922804D01*
X124308835Y-77887900D01*
X124357347Y-77861970D01*
X124410003Y-77845997D01*
X124470890Y-77840000D01*
X125271110Y-77840000D01*
X125331997Y-77845997D01*
X125331997Y-77845997D01*
G37*
G36*
X127206997Y-77845997D02*
X127259653Y-77861970D01*
X127308165Y-77887900D01*
X127350696Y-77922804D01*
X127385600Y-77965335D01*
X127411530Y-78013847D01*
X127427503Y-78066503D01*
X127433500Y-78127390D01*
X127433500Y-79352610D01*
X127427503Y-79413497D01*
X127411530Y-79466153D01*
X127385600Y-79514665D01*
X127350696Y-79557196D01*
X127308165Y-79592100D01*
X127259653Y-79618030D01*
X127206997Y-79634003D01*
X127146110Y-79640000D01*
X126345890Y-79640000D01*
X126285003Y-79634003D01*
X126232347Y-79618030D01*
X126183835Y-79592100D01*
X126141304Y-79557196D01*
X126106400Y-79514665D01*
X126080470Y-79466153D01*
X126064497Y-79413497D01*
X126058500Y-79352610D01*
X126058500Y-78127390D01*
X126064497Y-78066503D01*
X126080470Y-78013847D01*
X126106400Y-77965335D01*
X126141304Y-77922804D01*
X126183835Y-77887900D01*
X126232347Y-77861970D01*
X126285003Y-77845997D01*
X126345890Y-77840000D01*
X127146110Y-77840000D01*
X127206997Y-77845997D01*
X127206997Y-77845997D01*
G37*
G36*
X204546000Y-79556000D02*
X201346000Y-79556000D01*
X201346000Y-77756000D01*
X204546000Y-77756000D01*
X204546000Y-79556000D01*
X204546000Y-79556000D01*
G37*
G36*
X164110000Y-76843641D02*
X164112402Y-76868027D01*
X164119515Y-76891476D01*
X164131066Y-76913087D01*
X164146612Y-76932029D01*
X164165554Y-76947575D01*
X164187165Y-76959126D01*
X164210614Y-76966239D01*
X164235000Y-76968641D01*
X164259386Y-76966239D01*
X164282835Y-76959126D01*
X164304446Y-76947575D01*
X164323388Y-76932029D01*
X164338934Y-76913087D01*
X164345240Y-76902565D01*
X164396364Y-76806918D01*
X164461976Y-76726971D01*
X164541914Y-76661368D01*
X164541913Y-76661368D01*
X164541915Y-76661367D01*
X164633120Y-76612617D01*
X164732083Y-76582597D01*
X164732084Y-76582597D01*
X164732087Y-76582596D01*
X164835000Y-76572460D01*
X164937914Y-76582596D01*
X164937917Y-76582597D01*
X164937918Y-76582597D01*
X165036881Y-76612617D01*
X165128086Y-76661367D01*
X165208027Y-76726973D01*
X165273633Y-76806914D01*
X165322383Y-76898119D01*
X165337385Y-76947575D01*
X165352404Y-76997086D01*
X165360000Y-77074209D01*
X165360000Y-77525792D01*
X165352404Y-77602914D01*
X165352403Y-77602917D01*
X165352403Y-77602918D01*
X165322383Y-77701881D01*
X165273636Y-77793081D01*
X165273632Y-77793087D01*
X165208030Y-77873024D01*
X165208028Y-77873025D01*
X165208027Y-77873027D01*
X165128086Y-77938633D01*
X165036880Y-77987383D01*
X164937917Y-78017403D01*
X164937916Y-78017403D01*
X164937913Y-78017404D01*
X164835000Y-78027540D01*
X164732086Y-78017404D01*
X164732083Y-78017403D01*
X164732082Y-78017403D01*
X164633119Y-77987383D01*
X164541914Y-77938633D01*
X164505263Y-77908554D01*
X164461976Y-77873030D01*
X164461975Y-77873028D01*
X164461973Y-77873027D01*
X164396367Y-77793086D01*
X164384790Y-77771427D01*
X164345240Y-77697434D01*
X164331626Y-77677059D01*
X164314299Y-77659732D01*
X164293925Y-77646118D01*
X164271286Y-77636741D01*
X164247252Y-77631960D01*
X164222748Y-77631960D01*
X164198715Y-77636740D01*
X164176076Y-77646118D01*
X164155701Y-77659732D01*
X164138374Y-77677059D01*
X164124760Y-77697433D01*
X164115383Y-77720072D01*
X164110602Y-77744106D01*
X164110000Y-77756358D01*
X164110000Y-78170000D01*
X160710000Y-78170000D01*
X160710000Y-77756359D01*
X160707598Y-77731973D01*
X160700485Y-77708524D01*
X160688934Y-77686913D01*
X160673388Y-77667971D01*
X160654446Y-77652425D01*
X160632835Y-77640874D01*
X160609386Y-77633761D01*
X160585000Y-77631359D01*
X160560614Y-77633761D01*
X160537165Y-77640874D01*
X160515554Y-77652425D01*
X160496612Y-77667971D01*
X160481066Y-77686913D01*
X160474760Y-77697435D01*
X160423634Y-77793086D01*
X160385132Y-77840000D01*
X160358027Y-77873027D01*
X160278086Y-77938633D01*
X160186881Y-77987383D01*
X160087918Y-78017403D01*
X160087917Y-78017403D01*
X160087914Y-78017404D01*
X159985000Y-78027540D01*
X159882087Y-78017404D01*
X159882084Y-78017403D01*
X159882083Y-78017403D01*
X159783120Y-77987383D01*
X159691915Y-77938633D01*
X159632183Y-77889612D01*
X159611976Y-77873029D01*
X159606344Y-77866166D01*
X159579171Y-77833056D01*
X159546366Y-77793084D01*
X159497618Y-77701883D01*
X159467596Y-77602914D01*
X159460000Y-77525792D01*
X159460000Y-77074209D01*
X159467596Y-76997087D01*
X159467597Y-76997083D01*
X159497617Y-76898120D01*
X159546367Y-76806914D01*
X159611973Y-76726973D01*
X159611976Y-76726970D01*
X159691913Y-76661368D01*
X159691912Y-76661368D01*
X159691914Y-76661367D01*
X159783119Y-76612617D01*
X159882082Y-76582597D01*
X159882083Y-76582597D01*
X159882086Y-76582596D01*
X159985000Y-76572460D01*
X160087913Y-76582596D01*
X160087916Y-76582597D01*
X160087917Y-76582597D01*
X160186880Y-76612617D01*
X160278086Y-76661367D01*
X160358027Y-76726973D01*
X160358028Y-76726975D01*
X160358030Y-76726976D01*
X160423634Y-76806914D01*
X160474760Y-76902565D01*
X160488374Y-76922940D01*
X160505701Y-76940267D01*
X160526075Y-76953881D01*
X160548714Y-76963258D01*
X160572748Y-76968039D01*
X160597252Y-76968039D01*
X160621285Y-76963259D01*
X160643924Y-76953881D01*
X160664299Y-76940267D01*
X160681626Y-76922940D01*
X160695240Y-76902566D01*
X160704617Y-76879927D01*
X160709398Y-76855893D01*
X160710000Y-76843641D01*
X160710000Y-76020000D01*
X164110000Y-76020000D01*
X164110000Y-76843641D01*
X164110000Y-76843641D01*
G37*
G36*
X136262000Y-78062000D02*
X134312000Y-78062000D01*
X134312000Y-75862000D01*
X136262000Y-75862000D01*
X136262000Y-78062000D01*
X136262000Y-78062000D01*
G37*
G36*
X133912000Y-78062000D02*
X131962000Y-78062000D01*
X131962000Y-75862000D01*
X133912000Y-75862000D01*
X133912000Y-78062000D01*
X133912000Y-78062000D01*
G37*
G36*
X149028000Y-75368000D02*
X148357123Y-75368000D01*
X148332737Y-75370402D01*
X148309288Y-75377515D01*
X148287677Y-75389066D01*
X148268735Y-75404612D01*
X148253189Y-75423554D01*
X148241638Y-75445165D01*
X148234525Y-75468614D01*
X148232123Y-75493000D01*
X148234525Y-75517386D01*
X148241638Y-75540835D01*
X148253189Y-75562446D01*
X148268735Y-75581388D01*
X148287677Y-75596934D01*
X148309288Y-75608485D01*
X148396412Y-75644573D01*
X148592958Y-75775901D01*
X148760099Y-75943042D01*
X148891427Y-76139588D01*
X148981885Y-76357974D01*
X149028000Y-76589809D01*
X149028000Y-76826191D01*
X148981885Y-77058026D01*
X148891427Y-77276412D01*
X148760099Y-77472958D01*
X148592958Y-77640099D01*
X148396412Y-77771427D01*
X148178026Y-77861885D01*
X147946191Y-77908000D01*
X147709809Y-77908000D01*
X147477974Y-77861885D01*
X147259588Y-77771427D01*
X147063042Y-77640099D01*
X146895901Y-77472958D01*
X146764573Y-77276412D01*
X146674115Y-77058026D01*
X146628000Y-76826191D01*
X146628000Y-76589809D01*
X146674115Y-76357974D01*
X146764573Y-76139588D01*
X146895901Y-75943042D01*
X147063042Y-75775901D01*
X147259588Y-75644573D01*
X147346712Y-75608485D01*
X147368323Y-75596934D01*
X147387265Y-75581388D01*
X147402811Y-75562446D01*
X147414362Y-75540835D01*
X147421475Y-75517386D01*
X147423877Y-75493000D01*
X147421475Y-75468614D01*
X147414362Y-75445165D01*
X147402811Y-75423554D01*
X147387265Y-75404612D01*
X147368323Y-75389066D01*
X147346712Y-75377515D01*
X147323263Y-75370402D01*
X147298877Y-75368000D01*
X146628000Y-75368000D01*
X146628000Y-72968000D01*
X149028000Y-72968000D01*
X149028000Y-75368000D01*
X149028000Y-75368000D01*
G37*
G36*
X125331997Y-75305997D02*
X125384653Y-75321970D01*
X125433165Y-75347900D01*
X125475696Y-75382804D01*
X125510600Y-75425335D01*
X125536530Y-75473847D01*
X125552503Y-75526503D01*
X125558500Y-75587390D01*
X125558500Y-76812610D01*
X125552503Y-76873497D01*
X125536530Y-76926153D01*
X125510600Y-76974665D01*
X125475696Y-77017196D01*
X125433165Y-77052100D01*
X125384653Y-77078030D01*
X125331997Y-77094003D01*
X125271110Y-77100000D01*
X124470890Y-77100000D01*
X124410003Y-77094003D01*
X124357347Y-77078030D01*
X124308835Y-77052100D01*
X124266304Y-77017196D01*
X124231400Y-76974665D01*
X124205470Y-76926153D01*
X124189497Y-76873497D01*
X124183500Y-76812610D01*
X124183500Y-75587390D01*
X124189497Y-75526503D01*
X124205470Y-75473847D01*
X124231400Y-75425335D01*
X124266304Y-75382804D01*
X124308835Y-75347900D01*
X124357347Y-75321970D01*
X124410003Y-75305997D01*
X124470890Y-75300000D01*
X125271110Y-75300000D01*
X125331997Y-75305997D01*
X125331997Y-75305997D01*
G37*
G36*
X127206997Y-75305997D02*
X127259653Y-75321970D01*
X127308165Y-75347900D01*
X127350696Y-75382804D01*
X127385600Y-75425335D01*
X127411530Y-75473847D01*
X127427503Y-75526503D01*
X127433500Y-75587390D01*
X127433500Y-76812610D01*
X127427503Y-76873497D01*
X127411530Y-76926153D01*
X127385600Y-76974665D01*
X127350696Y-77017196D01*
X127308165Y-77052100D01*
X127259653Y-77078030D01*
X127206997Y-77094003D01*
X127146110Y-77100000D01*
X126345890Y-77100000D01*
X126285003Y-77094003D01*
X126232347Y-77078030D01*
X126183835Y-77052100D01*
X126141304Y-77017196D01*
X126106400Y-76974665D01*
X126080470Y-76926153D01*
X126064497Y-76873497D01*
X126058500Y-76812610D01*
X126058500Y-75587390D01*
X126064497Y-75526503D01*
X126080470Y-75473847D01*
X126106400Y-75425335D01*
X126141304Y-75382804D01*
X126183835Y-75347900D01*
X126232347Y-75321970D01*
X126285003Y-75305997D01*
X126345890Y-75300000D01*
X127146110Y-75300000D01*
X127206997Y-75305997D01*
X127206997Y-75305997D01*
G37*
G36*
X181464000Y-77050000D02*
X180364000Y-77050000D01*
X180364000Y-75350000D01*
X181464000Y-75350000D01*
X181464000Y-77050000D01*
X181464000Y-77050000D01*
G37*
G36*
X183364000Y-77050000D02*
X182264000Y-77050000D01*
X182264000Y-75350000D01*
X183364000Y-75350000D01*
X183364000Y-77050000D01*
X183364000Y-77050000D01*
G37*
G36*
X175468000Y-77000000D02*
X173868000Y-77000000D01*
X173868000Y-75400000D01*
X175468000Y-75400000D01*
X175468000Y-77000000D01*
X175468000Y-77000000D01*
G37*
G36*
X177668000Y-77000000D02*
X176068000Y-77000000D01*
X176068000Y-75400000D01*
X177668000Y-75400000D01*
X177668000Y-77000000D01*
X177668000Y-77000000D01*
G37*
G36*
X204700000Y-76034000D02*
X203600000Y-76034000D01*
X203600000Y-74334000D01*
X204700000Y-74334000D01*
X204700000Y-76034000D01*
X204700000Y-76034000D01*
G37*
G36*
X202800000Y-76034000D02*
X201700000Y-76034000D01*
X201700000Y-74334000D01*
X202800000Y-74334000D01*
X202800000Y-76034000D01*
X202800000Y-76034000D01*
G37*
G36*
X164285000Y-75470000D02*
X160535000Y-75470000D01*
X160535000Y-72570000D01*
X164285000Y-72570000D01*
X164285000Y-75470000D01*
X164285000Y-75470000D01*
G37*
G36*
X197007000Y-75260000D02*
X188057000Y-75260000D01*
X188057000Y-73360000D01*
X197007000Y-73360000D01*
X197007000Y-75260000D01*
X197007000Y-75260000D01*
G37*
G36*
X169426000Y-75129000D02*
X167886000Y-75129000D01*
X167886000Y-72699000D01*
X169426000Y-72699000D01*
X169426000Y-75129000D01*
X169426000Y-75129000D01*
G37*
G36*
X171826000Y-75129000D02*
X170286000Y-75129000D01*
X170286000Y-72699000D01*
X171826000Y-72699000D01*
X171826000Y-75129000D01*
X171826000Y-75129000D01*
G37*
G36*
X155378000Y-75114000D02*
X152978000Y-75114000D01*
X152978000Y-72714000D01*
X155378000Y-72714000D01*
X155378000Y-75114000D01*
X155378000Y-75114000D01*
G37*
G36*
X165170940Y-73470879D02*
X165242819Y-73477958D01*
X165319518Y-73501225D01*
X165346498Y-73509409D01*
X165442039Y-73560476D01*
X165525790Y-73629210D01*
X165594524Y-73712961D01*
X165645591Y-73808502D01*
X165645592Y-73808506D01*
X165677042Y-73912181D01*
X165685000Y-73992982D01*
X165685000Y-74547018D01*
X165677042Y-74627819D01*
X165653775Y-74704518D01*
X165645591Y-74731498D01*
X165594522Y-74827042D01*
X165547513Y-74884321D01*
X165525790Y-74910790D01*
X165442042Y-74979521D01*
X165442038Y-74979524D01*
X165346497Y-75030591D01*
X165319517Y-75038775D01*
X165242818Y-75062042D01*
X165135000Y-75072661D01*
X165134999Y-75072661D01*
X165099060Y-75069121D01*
X165027181Y-75062042D01*
X164950482Y-75038775D01*
X164923502Y-75030591D01*
X164827958Y-74979522D01*
X164770679Y-74932513D01*
X164744210Y-74910790D01*
X164675479Y-74827042D01*
X164675478Y-74827041D01*
X164675476Y-74827038D01*
X164624409Y-74731497D01*
X164616225Y-74704517D01*
X164592958Y-74627818D01*
X164585000Y-74547017D01*
X164585000Y-73992982D01*
X164592958Y-73912181D01*
X164603442Y-73877623D01*
X164624409Y-73808502D01*
X164675478Y-73712958D01*
X164744208Y-73629213D01*
X164744210Y-73629212D01*
X164744211Y-73629210D01*
X164786085Y-73594844D01*
X164827962Y-73560476D01*
X164923503Y-73509409D01*
X164950483Y-73501225D01*
X165027182Y-73477958D01*
X165135000Y-73467339D01*
X165135001Y-73467339D01*
X165170940Y-73470879D01*
X165170940Y-73470879D01*
G37*
G36*
X159720940Y-73470879D02*
X159792819Y-73477958D01*
X159869518Y-73501225D01*
X159896498Y-73509409D01*
X159992039Y-73560476D01*
X160075790Y-73629210D01*
X160144524Y-73712961D01*
X160195591Y-73808502D01*
X160195592Y-73808506D01*
X160227042Y-73912181D01*
X160235000Y-73992982D01*
X160235000Y-74547018D01*
X160227042Y-74627819D01*
X160203775Y-74704518D01*
X160195591Y-74731498D01*
X160144522Y-74827042D01*
X160097513Y-74884321D01*
X160075790Y-74910790D01*
X159992042Y-74979521D01*
X159992038Y-74979524D01*
X159896497Y-75030591D01*
X159869517Y-75038775D01*
X159792818Y-75062042D01*
X159685000Y-75072661D01*
X159684999Y-75072661D01*
X159649060Y-75069121D01*
X159577181Y-75062042D01*
X159500482Y-75038775D01*
X159473502Y-75030591D01*
X159377958Y-74979522D01*
X159320679Y-74932513D01*
X159294210Y-74910790D01*
X159225479Y-74827042D01*
X159225478Y-74827041D01*
X159225476Y-74827038D01*
X159174409Y-74731497D01*
X159166225Y-74704517D01*
X159142958Y-74627818D01*
X159135000Y-74547017D01*
X159135000Y-73992982D01*
X159142958Y-73912181D01*
X159153442Y-73877623D01*
X159174409Y-73808502D01*
X159225478Y-73712958D01*
X159294208Y-73629213D01*
X159294210Y-73629212D01*
X159294211Y-73629210D01*
X159336085Y-73594844D01*
X159377962Y-73560476D01*
X159473503Y-73509409D01*
X159500483Y-73501225D01*
X159577182Y-73477958D01*
X159685000Y-73467339D01*
X159685001Y-73467339D01*
X159720940Y-73470879D01*
X159720940Y-73470879D01*
G37*
G36*
X133817000Y-75014000D02*
X131867000Y-75014000D01*
X131867000Y-72814000D01*
X133817000Y-72814000D01*
X133817000Y-75014000D01*
X133817000Y-75014000D01*
G37*
G36*
X136167000Y-75014000D02*
X134217000Y-75014000D01*
X134217000Y-72814000D01*
X136167000Y-72814000D01*
X136167000Y-75014000D01*
X136167000Y-75014000D01*
G37*
G36*
X125253497Y-72765997D02*
X125306153Y-72781970D01*
X125354665Y-72807900D01*
X125397196Y-72842804D01*
X125432100Y-72885335D01*
X125458030Y-72933847D01*
X125474003Y-72986503D01*
X125480000Y-73047390D01*
X125480000Y-74272610D01*
X125474003Y-74333497D01*
X125458030Y-74386153D01*
X125432100Y-74434665D01*
X125397196Y-74477196D01*
X125354665Y-74512100D01*
X125306153Y-74538030D01*
X125253497Y-74554003D01*
X125192610Y-74560000D01*
X124392390Y-74560000D01*
X124331503Y-74554003D01*
X124278847Y-74538030D01*
X124230335Y-74512100D01*
X124187804Y-74477196D01*
X124152900Y-74434665D01*
X124126970Y-74386153D01*
X124110997Y-74333497D01*
X124105000Y-74272610D01*
X124105000Y-73047390D01*
X124110997Y-72986503D01*
X124126970Y-72933847D01*
X124152900Y-72885335D01*
X124187804Y-72842804D01*
X124230335Y-72807900D01*
X124278847Y-72781970D01*
X124331503Y-72765997D01*
X124392390Y-72760000D01*
X125192610Y-72760000D01*
X125253497Y-72765997D01*
X125253497Y-72765997D01*
G37*
G36*
X127128497Y-72765997D02*
X127181153Y-72781970D01*
X127229665Y-72807900D01*
X127272196Y-72842804D01*
X127307100Y-72885335D01*
X127333030Y-72933847D01*
X127349003Y-72986503D01*
X127355000Y-73047390D01*
X127355000Y-74272610D01*
X127349003Y-74333497D01*
X127333030Y-74386153D01*
X127307100Y-74434665D01*
X127272196Y-74477196D01*
X127229665Y-74512100D01*
X127181153Y-74538030D01*
X127128497Y-74554003D01*
X127067610Y-74560000D01*
X126267390Y-74560000D01*
X126206503Y-74554003D01*
X126153847Y-74538030D01*
X126105335Y-74512100D01*
X126062804Y-74477196D01*
X126027900Y-74434665D01*
X126001970Y-74386153D01*
X125985997Y-74333497D01*
X125980000Y-74272610D01*
X125980000Y-73047390D01*
X125985997Y-72986503D01*
X126001970Y-72933847D01*
X126027900Y-72885335D01*
X126062804Y-72842804D01*
X126105335Y-72807900D01*
X126153847Y-72781970D01*
X126206503Y-72765997D01*
X126267390Y-72760000D01*
X127067610Y-72760000D01*
X127128497Y-72765997D01*
X127128497Y-72765997D01*
G37*
G36*
X181464000Y-74510000D02*
X180364000Y-74510000D01*
X180364000Y-72810000D01*
X181464000Y-72810000D01*
X181464000Y-74510000D01*
X181464000Y-74510000D01*
G37*
G36*
X183364000Y-74510000D02*
X182264000Y-74510000D01*
X182264000Y-72810000D01*
X183364000Y-72810000D01*
X183364000Y-74510000D01*
X183364000Y-74510000D01*
G37*
G36*
X177668000Y-74460000D02*
X176068000Y-74460000D01*
X176068000Y-72860000D01*
X177668000Y-72860000D01*
X177668000Y-74460000D01*
X177668000Y-74460000D01*
G37*
G36*
X175468000Y-74460000D02*
X173868000Y-74460000D01*
X173868000Y-72860000D01*
X175468000Y-72860000D01*
X175468000Y-74460000D01*
X175468000Y-74460000D01*
G37*
M02*
