G04 #@! TF.GenerationSoftware,KiCad,Pcbnew,(5.0.1-3-g963ef8bb5)*
G04 #@! TF.CreationDate,2019-06-28T12:59:27+01:00*
G04 #@! TF.ProjectId,invitation,696E7669746174696F6E2E6B69636164,rev?*
G04 #@! TF.SameCoordinates,Original*
G04 #@! TF.FileFunction,Legend,Bot*
G04 #@! TF.FilePolarity,Positive*
%FSLAX46Y46*%
G04 Gerber Fmt 4.6, Leading zero omitted, Abs format (unit mm)*
G04 Created by KiCad (PCBNEW (5.0.1-3-g963ef8bb5)) date Friday, 28 June 2019 at 12:59:27*
%MOMM*%
%LPD*%
G01*
G04 APERTURE LIST*
%ADD10C,0.150000*%
%ADD11C,0.250000*%
%ADD12C,0.350000*%
%ADD13C,0.127000*%
%ADD14C,0.200000*%
%ADD15C,0.120000*%
%ADD16C,0.010000*%
G04 APERTURE END LIST*
D10*
X195684404Y-100658380D02*
X195684404Y-99658380D01*
X195303452Y-99658380D01*
X195208214Y-99706000D01*
X195160595Y-99753619D01*
X195112976Y-99848857D01*
X195112976Y-99991714D01*
X195160595Y-100086952D01*
X195208214Y-100134571D01*
X195303452Y-100182190D01*
X195684404Y-100182190D01*
X194541547Y-100658380D02*
X194636785Y-100610761D01*
X194684404Y-100515523D01*
X194684404Y-99658380D01*
X193732023Y-99991714D02*
X193732023Y-100658380D01*
X194160595Y-99991714D02*
X194160595Y-100515523D01*
X194112976Y-100610761D01*
X194017738Y-100658380D01*
X193874880Y-100658380D01*
X193779642Y-100610761D01*
X193732023Y-100563142D01*
X192827261Y-99991714D02*
X192827261Y-100801238D01*
X192874880Y-100896476D01*
X192922500Y-100944095D01*
X193017738Y-100991714D01*
X193160595Y-100991714D01*
X193255833Y-100944095D01*
X192827261Y-100610761D02*
X192922500Y-100658380D01*
X193112976Y-100658380D01*
X193208214Y-100610761D01*
X193255833Y-100563142D01*
X193303452Y-100467904D01*
X193303452Y-100182190D01*
X193255833Y-100086952D01*
X193208214Y-100039333D01*
X193112976Y-99991714D01*
X192922500Y-99991714D01*
X192827261Y-100039333D01*
X191732023Y-99991714D02*
X191351071Y-99991714D01*
X191589166Y-99658380D02*
X191589166Y-100515523D01*
X191541547Y-100610761D01*
X191446309Y-100658380D01*
X191351071Y-100658380D01*
X191017738Y-100658380D02*
X191017738Y-99658380D01*
X190589166Y-100658380D02*
X190589166Y-100134571D01*
X190636785Y-100039333D01*
X190732023Y-99991714D01*
X190874880Y-99991714D01*
X190970119Y-100039333D01*
X191017738Y-100086952D01*
X190112976Y-100658380D02*
X190112976Y-99991714D01*
X190112976Y-99658380D02*
X190160595Y-99706000D01*
X190112976Y-99753619D01*
X190065357Y-99706000D01*
X190112976Y-99658380D01*
X190112976Y-99753619D01*
X189684404Y-100610761D02*
X189589166Y-100658380D01*
X189398690Y-100658380D01*
X189303452Y-100610761D01*
X189255833Y-100515523D01*
X189255833Y-100467904D01*
X189303452Y-100372666D01*
X189398690Y-100325047D01*
X189541547Y-100325047D01*
X189636785Y-100277428D01*
X189684404Y-100182190D01*
X189684404Y-100134571D01*
X189636785Y-100039333D01*
X189541547Y-99991714D01*
X189398690Y-99991714D01*
X189303452Y-100039333D01*
X187636785Y-100610761D02*
X187732023Y-100658380D01*
X187922500Y-100658380D01*
X188017738Y-100610761D01*
X188065357Y-100563142D01*
X188112976Y-100467904D01*
X188112976Y-100182190D01*
X188065357Y-100086952D01*
X188017738Y-100039333D01*
X187922500Y-99991714D01*
X187732023Y-99991714D01*
X187636785Y-100039333D01*
X186779642Y-100658380D02*
X186779642Y-100134571D01*
X186827261Y-100039333D01*
X186922500Y-99991714D01*
X187112976Y-99991714D01*
X187208214Y-100039333D01*
X186779642Y-100610761D02*
X186874880Y-100658380D01*
X187112976Y-100658380D01*
X187208214Y-100610761D01*
X187255833Y-100515523D01*
X187255833Y-100420285D01*
X187208214Y-100325047D01*
X187112976Y-100277428D01*
X186874880Y-100277428D01*
X186779642Y-100229809D01*
X186303452Y-100658380D02*
X186303452Y-99991714D01*
X186303452Y-100182190D02*
X186255833Y-100086952D01*
X186208214Y-100039333D01*
X186112976Y-99991714D01*
X186017738Y-99991714D01*
X185255833Y-100658380D02*
X185255833Y-99658380D01*
X185255833Y-100610761D02*
X185351071Y-100658380D01*
X185541547Y-100658380D01*
X185636785Y-100610761D01*
X185684404Y-100563142D01*
X185732023Y-100467904D01*
X185732023Y-100182190D01*
X185684404Y-100086952D01*
X185636785Y-100039333D01*
X185541547Y-99991714D01*
X185351071Y-99991714D01*
X185255833Y-100039333D01*
X184017738Y-100658380D02*
X184017738Y-99991714D01*
X184017738Y-99658380D02*
X184065357Y-99706000D01*
X184017738Y-99753619D01*
X183970119Y-99706000D01*
X184017738Y-99658380D01*
X184017738Y-99753619D01*
X183541547Y-99991714D02*
X183541547Y-100658380D01*
X183541547Y-100086952D02*
X183493928Y-100039333D01*
X183398690Y-99991714D01*
X183255833Y-99991714D01*
X183160595Y-100039333D01*
X183112976Y-100134571D01*
X183112976Y-100658380D01*
X182779642Y-99991714D02*
X182398690Y-99991714D01*
X182636785Y-99658380D02*
X182636785Y-100515523D01*
X182589166Y-100610761D01*
X182493928Y-100658380D01*
X182398690Y-100658380D01*
X181922500Y-100658380D02*
X182017738Y-100610761D01*
X182065357Y-100563142D01*
X182112976Y-100467904D01*
X182112976Y-100182190D01*
X182065357Y-100086952D01*
X182017738Y-100039333D01*
X181922500Y-99991714D01*
X181779642Y-99991714D01*
X181684404Y-100039333D01*
X181636785Y-100086952D01*
X181589166Y-100182190D01*
X181589166Y-100467904D01*
X181636785Y-100563142D01*
X181684404Y-100610761D01*
X181779642Y-100658380D01*
X181922500Y-100658380D01*
X179970119Y-100658380D02*
X179970119Y-100134571D01*
X180017738Y-100039333D01*
X180112976Y-99991714D01*
X180303452Y-99991714D01*
X180398690Y-100039333D01*
X179970119Y-100610761D02*
X180065357Y-100658380D01*
X180303452Y-100658380D01*
X180398690Y-100610761D01*
X180446309Y-100515523D01*
X180446309Y-100420285D01*
X180398690Y-100325047D01*
X180303452Y-100277428D01*
X180065357Y-100277428D01*
X179970119Y-100229809D01*
X178732023Y-99658380D02*
X178732023Y-100467904D01*
X178684404Y-100563142D01*
X178636785Y-100610761D01*
X178541547Y-100658380D01*
X178351071Y-100658380D01*
X178255833Y-100610761D01*
X178208214Y-100563142D01*
X178160595Y-100467904D01*
X178160595Y-99658380D01*
X177732023Y-100610761D02*
X177589166Y-100658380D01*
X177351071Y-100658380D01*
X177255833Y-100610761D01*
X177208214Y-100563142D01*
X177160595Y-100467904D01*
X177160595Y-100372666D01*
X177208214Y-100277428D01*
X177255833Y-100229809D01*
X177351071Y-100182190D01*
X177541547Y-100134571D01*
X177636785Y-100086952D01*
X177684404Y-100039333D01*
X177732023Y-99944095D01*
X177732023Y-99848857D01*
X177684404Y-99753619D01*
X177636785Y-99706000D01*
X177541547Y-99658380D01*
X177303452Y-99658380D01*
X177160595Y-99706000D01*
X176398690Y-100134571D02*
X176255833Y-100182190D01*
X176208214Y-100229809D01*
X176160595Y-100325047D01*
X176160595Y-100467904D01*
X176208214Y-100563142D01*
X176255833Y-100610761D01*
X176351071Y-100658380D01*
X176732023Y-100658380D01*
X176732023Y-99658380D01*
X176398690Y-99658380D01*
X176303452Y-99706000D01*
X176255833Y-99753619D01*
X176208214Y-99848857D01*
X176208214Y-99944095D01*
X176255833Y-100039333D01*
X176303452Y-100086952D01*
X176398690Y-100134571D01*
X176732023Y-100134571D01*
X174970119Y-99991714D02*
X174970119Y-100991714D01*
X174970119Y-100039333D02*
X174874880Y-99991714D01*
X174684404Y-99991714D01*
X174589166Y-100039333D01*
X174541547Y-100086952D01*
X174493928Y-100182190D01*
X174493928Y-100467904D01*
X174541547Y-100563142D01*
X174589166Y-100610761D01*
X174684404Y-100658380D01*
X174874880Y-100658380D01*
X174970119Y-100610761D01*
X173922500Y-100658380D02*
X174017738Y-100610761D01*
X174065357Y-100563142D01*
X174112976Y-100467904D01*
X174112976Y-100182190D01*
X174065357Y-100086952D01*
X174017738Y-100039333D01*
X173922500Y-99991714D01*
X173779642Y-99991714D01*
X173684404Y-100039333D01*
X173636785Y-100086952D01*
X173589166Y-100182190D01*
X173589166Y-100467904D01*
X173636785Y-100563142D01*
X173684404Y-100610761D01*
X173779642Y-100658380D01*
X173922500Y-100658380D01*
X173160595Y-100658380D02*
X173160595Y-99991714D01*
X173160595Y-100182190D02*
X173112976Y-100086952D01*
X173065357Y-100039333D01*
X172970119Y-99991714D01*
X172874880Y-99991714D01*
X172684404Y-99991714D02*
X172303452Y-99991714D01*
X172541547Y-99658380D02*
X172541547Y-100515523D01*
X172493928Y-100610761D01*
X172398690Y-100658380D01*
X172303452Y-100658380D01*
X171065357Y-100658380D02*
X171160595Y-100610761D01*
X171208214Y-100563142D01*
X171255833Y-100467904D01*
X171255833Y-100182190D01*
X171208214Y-100086952D01*
X171160595Y-100039333D01*
X171065357Y-99991714D01*
X170922500Y-99991714D01*
X170827261Y-100039333D01*
X170779642Y-100086952D01*
X170732023Y-100182190D01*
X170732023Y-100467904D01*
X170779642Y-100563142D01*
X170827261Y-100610761D01*
X170922500Y-100658380D01*
X171065357Y-100658380D01*
X170303452Y-99991714D02*
X170303452Y-100658380D01*
X170303452Y-100086952D02*
X170255833Y-100039333D01*
X170160595Y-99991714D01*
X170017738Y-99991714D01*
X169922500Y-100039333D01*
X169874880Y-100134571D01*
X169874880Y-100658380D01*
X168732023Y-99991714D02*
X168493928Y-100658380D01*
X168255833Y-99991714D02*
X168493928Y-100658380D01*
X168589166Y-100896476D01*
X168636785Y-100944095D01*
X168732023Y-100991714D01*
X167732023Y-100658380D02*
X167827261Y-100610761D01*
X167874880Y-100563142D01*
X167922500Y-100467904D01*
X167922500Y-100182190D01*
X167874880Y-100086952D01*
X167827261Y-100039333D01*
X167732023Y-99991714D01*
X167589166Y-99991714D01*
X167493928Y-100039333D01*
X167446309Y-100086952D01*
X167398690Y-100182190D01*
X167398690Y-100467904D01*
X167446309Y-100563142D01*
X167493928Y-100610761D01*
X167589166Y-100658380D01*
X167732023Y-100658380D01*
X166541547Y-99991714D02*
X166541547Y-100658380D01*
X166970119Y-99991714D02*
X166970119Y-100515523D01*
X166922500Y-100610761D01*
X166827261Y-100658380D01*
X166684404Y-100658380D01*
X166589166Y-100610761D01*
X166541547Y-100563142D01*
X166065357Y-100658380D02*
X166065357Y-99991714D01*
X166065357Y-100182190D02*
X166017738Y-100086952D01*
X165970119Y-100039333D01*
X165874880Y-99991714D01*
X165779642Y-99991714D01*
X164255833Y-100610761D02*
X164351071Y-100658380D01*
X164541547Y-100658380D01*
X164636785Y-100610761D01*
X164684404Y-100563142D01*
X164732023Y-100467904D01*
X164732023Y-100182190D01*
X164684404Y-100086952D01*
X164636785Y-100039333D01*
X164541547Y-99991714D01*
X164351071Y-99991714D01*
X164255833Y-100039333D01*
X163684404Y-100658380D02*
X163779642Y-100610761D01*
X163827261Y-100563142D01*
X163874880Y-100467904D01*
X163874880Y-100182190D01*
X163827261Y-100086952D01*
X163779642Y-100039333D01*
X163684404Y-99991714D01*
X163541547Y-99991714D01*
X163446309Y-100039333D01*
X163398690Y-100086952D01*
X163351071Y-100182190D01*
X163351071Y-100467904D01*
X163398690Y-100563142D01*
X163446309Y-100610761D01*
X163541547Y-100658380D01*
X163684404Y-100658380D01*
X162922500Y-100658380D02*
X162922500Y-99991714D01*
X162922500Y-100086952D02*
X162874880Y-100039333D01*
X162779642Y-99991714D01*
X162636785Y-99991714D01*
X162541547Y-100039333D01*
X162493928Y-100134571D01*
X162493928Y-100658380D01*
X162493928Y-100134571D02*
X162446309Y-100039333D01*
X162351071Y-99991714D01*
X162208214Y-99991714D01*
X162112976Y-100039333D01*
X162065357Y-100134571D01*
X162065357Y-100658380D01*
X161589166Y-99991714D02*
X161589166Y-100991714D01*
X161589166Y-100039333D02*
X161493928Y-99991714D01*
X161303452Y-99991714D01*
X161208214Y-100039333D01*
X161160595Y-100086952D01*
X161112976Y-100182190D01*
X161112976Y-100467904D01*
X161160595Y-100563142D01*
X161208214Y-100610761D01*
X161303452Y-100658380D01*
X161493928Y-100658380D01*
X161589166Y-100610761D01*
X160255833Y-99991714D02*
X160255833Y-100658380D01*
X160684404Y-99991714D02*
X160684404Y-100515523D01*
X160636785Y-100610761D01*
X160541547Y-100658380D01*
X160398690Y-100658380D01*
X160303452Y-100610761D01*
X160255833Y-100563142D01*
X159922500Y-99991714D02*
X159541547Y-99991714D01*
X159779642Y-99658380D02*
X159779642Y-100515523D01*
X159732023Y-100610761D01*
X159636785Y-100658380D01*
X159541547Y-100658380D01*
X158827261Y-100610761D02*
X158922500Y-100658380D01*
X159112976Y-100658380D01*
X159208214Y-100610761D01*
X159255833Y-100515523D01*
X159255833Y-100134571D01*
X159208214Y-100039333D01*
X159112976Y-99991714D01*
X158922500Y-99991714D01*
X158827261Y-100039333D01*
X158779642Y-100134571D01*
X158779642Y-100229809D01*
X159255833Y-100325047D01*
X158351071Y-100658380D02*
X158351071Y-99991714D01*
X158351071Y-100182190D02*
X158303452Y-100086952D01*
X158255833Y-100039333D01*
X158160595Y-99991714D01*
X158065357Y-99991714D01*
X157065357Y-99991714D02*
X156874880Y-100658380D01*
X156684404Y-100182190D01*
X156493928Y-100658380D01*
X156303452Y-99991714D01*
X155922500Y-100658380D02*
X155922500Y-99991714D01*
X155922500Y-99658380D02*
X155970119Y-99706000D01*
X155922500Y-99753619D01*
X155874880Y-99706000D01*
X155922500Y-99658380D01*
X155922500Y-99753619D01*
X155589166Y-99991714D02*
X155208214Y-99991714D01*
X155446309Y-99658380D02*
X155446309Y-100515523D01*
X155398690Y-100610761D01*
X155303452Y-100658380D01*
X155208214Y-100658380D01*
X154874880Y-100658380D02*
X154874880Y-99658380D01*
X154446309Y-100658380D02*
X154446309Y-100134571D01*
X154493928Y-100039333D01*
X154589166Y-99991714D01*
X154732023Y-99991714D01*
X154827261Y-100039333D01*
X154874880Y-100086952D01*
X153351071Y-99991714D02*
X152970119Y-99991714D01*
X153208214Y-99658380D02*
X153208214Y-100515523D01*
X153160595Y-100610761D01*
X153065357Y-100658380D01*
X152970119Y-100658380D01*
X152636785Y-100658380D02*
X152636785Y-99658380D01*
X152208214Y-100658380D02*
X152208214Y-100134571D01*
X152255833Y-100039333D01*
X152351071Y-99991714D01*
X152493928Y-99991714D01*
X152589166Y-100039333D01*
X152636785Y-100086952D01*
X151351071Y-100610761D02*
X151446309Y-100658380D01*
X151636785Y-100658380D01*
X151732023Y-100610761D01*
X151779642Y-100515523D01*
X151779642Y-100134571D01*
X151732023Y-100039333D01*
X151636785Y-99991714D01*
X151446309Y-99991714D01*
X151351071Y-100039333D01*
X151303452Y-100134571D01*
X151303452Y-100229809D01*
X151779642Y-100325047D01*
X150112976Y-99991714D02*
X150112976Y-100991714D01*
X150112976Y-100039333D02*
X150017738Y-99991714D01*
X149827261Y-99991714D01*
X149732023Y-100039333D01*
X149684404Y-100086952D01*
X149636785Y-100182190D01*
X149636785Y-100467904D01*
X149684404Y-100563142D01*
X149732023Y-100610761D01*
X149827261Y-100658380D01*
X150017738Y-100658380D01*
X150112976Y-100610761D01*
X149208214Y-100658380D02*
X149208214Y-99991714D01*
X149208214Y-100182190D02*
X149160595Y-100086952D01*
X149112976Y-100039333D01*
X149017738Y-99991714D01*
X148922500Y-99991714D01*
X148446309Y-100658380D02*
X148541547Y-100610761D01*
X148589166Y-100563142D01*
X148636785Y-100467904D01*
X148636785Y-100182190D01*
X148589166Y-100086952D01*
X148541547Y-100039333D01*
X148446309Y-99991714D01*
X148303452Y-99991714D01*
X148208214Y-100039333D01*
X148160595Y-100086952D01*
X148112976Y-100182190D01*
X148112976Y-100467904D01*
X148160595Y-100563142D01*
X148208214Y-100610761D01*
X148303452Y-100658380D01*
X148446309Y-100658380D01*
X147779642Y-99991714D02*
X147541547Y-100658380D01*
X147303452Y-99991714D01*
X146922500Y-100658380D02*
X146922500Y-99991714D01*
X146922500Y-99658380D02*
X146970119Y-99706000D01*
X146922500Y-99753619D01*
X146874880Y-99706000D01*
X146922500Y-99658380D01*
X146922500Y-99753619D01*
X146017738Y-100658380D02*
X146017738Y-99658380D01*
X146017738Y-100610761D02*
X146112976Y-100658380D01*
X146303452Y-100658380D01*
X146398690Y-100610761D01*
X146446309Y-100563142D01*
X146493928Y-100467904D01*
X146493928Y-100182190D01*
X146446309Y-100086952D01*
X146398690Y-100039333D01*
X146303452Y-99991714D01*
X146112976Y-99991714D01*
X146017738Y-100039333D01*
X145160595Y-100610761D02*
X145255833Y-100658380D01*
X145446309Y-100658380D01*
X145541547Y-100610761D01*
X145589166Y-100515523D01*
X145589166Y-100134571D01*
X145541547Y-100039333D01*
X145446309Y-99991714D01*
X145255833Y-99991714D01*
X145160595Y-100039333D01*
X145112976Y-100134571D01*
X145112976Y-100229809D01*
X145589166Y-100325047D01*
X144255833Y-100658380D02*
X144255833Y-99658380D01*
X144255833Y-100610761D02*
X144351071Y-100658380D01*
X144541547Y-100658380D01*
X144636785Y-100610761D01*
X144684404Y-100563142D01*
X144732023Y-100467904D01*
X144732023Y-100182190D01*
X144684404Y-100086952D01*
X144636785Y-100039333D01*
X144541547Y-99991714D01*
X144351071Y-99991714D01*
X144255833Y-100039333D01*
X143017738Y-100658380D02*
X143017738Y-99991714D01*
X143017738Y-100086952D02*
X142970119Y-100039333D01*
X142874880Y-99991714D01*
X142732023Y-99991714D01*
X142636785Y-100039333D01*
X142589166Y-100134571D01*
X142589166Y-100658380D01*
X142589166Y-100134571D02*
X142541547Y-100039333D01*
X142446309Y-99991714D01*
X142303452Y-99991714D01*
X142208214Y-100039333D01*
X142160595Y-100134571D01*
X142160595Y-100658380D01*
X141255833Y-100658380D02*
X141255833Y-100134571D01*
X141303452Y-100039333D01*
X141398690Y-99991714D01*
X141589166Y-99991714D01*
X141684404Y-100039333D01*
X141255833Y-100610761D02*
X141351071Y-100658380D01*
X141589166Y-100658380D01*
X141684404Y-100610761D01*
X141732023Y-100515523D01*
X141732023Y-100420285D01*
X141684404Y-100325047D01*
X141589166Y-100277428D01*
X141351071Y-100277428D01*
X141255833Y-100229809D01*
X140351071Y-99991714D02*
X140351071Y-100801238D01*
X140398690Y-100896476D01*
X140446309Y-100944095D01*
X140541547Y-100991714D01*
X140684404Y-100991714D01*
X140779642Y-100944095D01*
X140351071Y-100610761D02*
X140446309Y-100658380D01*
X140636785Y-100658380D01*
X140732023Y-100610761D01*
X140779642Y-100563142D01*
X140827261Y-100467904D01*
X140827261Y-100182190D01*
X140779642Y-100086952D01*
X140732023Y-100039333D01*
X140636785Y-99991714D01*
X140446309Y-99991714D01*
X140351071Y-100039333D01*
X139874880Y-99991714D02*
X139874880Y-100658380D01*
X139874880Y-100086952D02*
X139827261Y-100039333D01*
X139732023Y-99991714D01*
X139589166Y-99991714D01*
X139493928Y-100039333D01*
X139446309Y-100134571D01*
X139446309Y-100658380D01*
X138589166Y-100610761D02*
X138684404Y-100658380D01*
X138874880Y-100658380D01*
X138970119Y-100610761D01*
X139017738Y-100515523D01*
X139017738Y-100134571D01*
X138970119Y-100039333D01*
X138874880Y-99991714D01*
X138684404Y-99991714D01*
X138589166Y-100039333D01*
X138541547Y-100134571D01*
X138541547Y-100229809D01*
X139017738Y-100325047D01*
X138255833Y-99991714D02*
X137874880Y-99991714D01*
X138112976Y-99658380D02*
X138112976Y-100515523D01*
X138065357Y-100610761D01*
X137970119Y-100658380D01*
X137874880Y-100658380D01*
X137541547Y-100658380D02*
X137541547Y-99991714D01*
X137541547Y-99658380D02*
X137589166Y-99706000D01*
X137541547Y-99753619D01*
X137493928Y-99706000D01*
X137541547Y-99658380D01*
X137541547Y-99753619D01*
X136636785Y-100610761D02*
X136732023Y-100658380D01*
X136922500Y-100658380D01*
X137017738Y-100610761D01*
X137065357Y-100563142D01*
X137112976Y-100467904D01*
X137112976Y-100182190D01*
X137065357Y-100086952D01*
X137017738Y-100039333D01*
X136922500Y-99991714D01*
X136732023Y-99991714D01*
X136636785Y-100039333D01*
X135017738Y-100610761D02*
X135112976Y-100658380D01*
X135303452Y-100658380D01*
X135398690Y-100610761D01*
X135446309Y-100563142D01*
X135493928Y-100467904D01*
X135493928Y-100182190D01*
X135446309Y-100086952D01*
X135398690Y-100039333D01*
X135303452Y-99991714D01*
X135112976Y-99991714D01*
X135017738Y-100039333D01*
X134160595Y-100658380D02*
X134160595Y-100134571D01*
X134208214Y-100039333D01*
X134303452Y-99991714D01*
X134493928Y-99991714D01*
X134589166Y-100039333D01*
X134160595Y-100610761D02*
X134255833Y-100658380D01*
X134493928Y-100658380D01*
X134589166Y-100610761D01*
X134636785Y-100515523D01*
X134636785Y-100420285D01*
X134589166Y-100325047D01*
X134493928Y-100277428D01*
X134255833Y-100277428D01*
X134160595Y-100229809D01*
X133684404Y-100658380D02*
X133684404Y-99658380D01*
X133684404Y-100039333D02*
X133589166Y-99991714D01*
X133398690Y-99991714D01*
X133303452Y-100039333D01*
X133255833Y-100086952D01*
X133208214Y-100182190D01*
X133208214Y-100467904D01*
X133255833Y-100563142D01*
X133303452Y-100610761D01*
X133398690Y-100658380D01*
X133589166Y-100658380D01*
X133684404Y-100610761D01*
X132636785Y-100658380D02*
X132732023Y-100610761D01*
X132779642Y-100515523D01*
X132779642Y-99658380D01*
X131874880Y-100610761D02*
X131970119Y-100658380D01*
X132160595Y-100658380D01*
X132255833Y-100610761D01*
X132303452Y-100515523D01*
X132303452Y-100134571D01*
X132255833Y-100039333D01*
X132160595Y-99991714D01*
X131970119Y-99991714D01*
X131874880Y-100039333D01*
X131827261Y-100134571D01*
X131827261Y-100229809D01*
X132303452Y-100325047D01*
X195493928Y-104608380D02*
X195303452Y-104608380D01*
X195208214Y-104656000D01*
X195112976Y-104751238D01*
X195065357Y-104941714D01*
X195065357Y-105275047D01*
X195112976Y-105465523D01*
X195208214Y-105560761D01*
X195303452Y-105608380D01*
X195493928Y-105608380D01*
X195589166Y-105560761D01*
X195684404Y-105465523D01*
X195732023Y-105275047D01*
X195732023Y-104941714D01*
X195684404Y-104751238D01*
X195589166Y-104656000D01*
X195493928Y-104608380D01*
X194636785Y-104941714D02*
X194636785Y-105941714D01*
X194636785Y-104989333D02*
X194541547Y-104941714D01*
X194351071Y-104941714D01*
X194255833Y-104989333D01*
X194208214Y-105036952D01*
X194160595Y-105132190D01*
X194160595Y-105417904D01*
X194208214Y-105513142D01*
X194255833Y-105560761D01*
X194351071Y-105608380D01*
X194541547Y-105608380D01*
X194636785Y-105560761D01*
X193351071Y-105560761D02*
X193446309Y-105608380D01*
X193636785Y-105608380D01*
X193732023Y-105560761D01*
X193779642Y-105465523D01*
X193779642Y-105084571D01*
X193732023Y-104989333D01*
X193636785Y-104941714D01*
X193446309Y-104941714D01*
X193351071Y-104989333D01*
X193303452Y-105084571D01*
X193303452Y-105179809D01*
X193779642Y-105275047D01*
X192874880Y-104941714D02*
X192874880Y-105608380D01*
X192874880Y-105036952D02*
X192827261Y-104989333D01*
X192732023Y-104941714D01*
X192589166Y-104941714D01*
X192493928Y-104989333D01*
X192446309Y-105084571D01*
X192446309Y-105608380D01*
X176732023Y-105608380D02*
X176732023Y-104941714D01*
X176732023Y-104608380D02*
X176779642Y-104656000D01*
X176732023Y-104703619D01*
X176684404Y-104656000D01*
X176732023Y-104608380D01*
X176732023Y-104703619D01*
X176255833Y-104941714D02*
X176255833Y-105608380D01*
X176255833Y-105036952D02*
X176208214Y-104989333D01*
X176112976Y-104941714D01*
X175970119Y-104941714D01*
X175874880Y-104989333D01*
X175827261Y-105084571D01*
X175827261Y-105608380D01*
X174160595Y-105608380D02*
X174160595Y-105084571D01*
X174208214Y-104989333D01*
X174303452Y-104941714D01*
X174493928Y-104941714D01*
X174589166Y-104989333D01*
X174160595Y-105560761D02*
X174255833Y-105608380D01*
X174493928Y-105608380D01*
X174589166Y-105560761D01*
X174636785Y-105465523D01*
X174636785Y-105370285D01*
X174589166Y-105275047D01*
X174493928Y-105227428D01*
X174255833Y-105227428D01*
X174160595Y-105179809D01*
X172922500Y-105608380D02*
X172922500Y-104608380D01*
X172922500Y-104989333D02*
X172827261Y-104941714D01*
X172636785Y-104941714D01*
X172541547Y-104989333D01*
X172493928Y-105036952D01*
X172446309Y-105132190D01*
X172446309Y-105417904D01*
X172493928Y-105513142D01*
X172541547Y-105560761D01*
X172636785Y-105608380D01*
X172827261Y-105608380D01*
X172922500Y-105560761D01*
X172017738Y-105608380D02*
X172017738Y-104941714D01*
X172017738Y-105132190D02*
X171970119Y-105036952D01*
X171922500Y-104989333D01*
X171827261Y-104941714D01*
X171732023Y-104941714D01*
X171255833Y-105608380D02*
X171351071Y-105560761D01*
X171398690Y-105513142D01*
X171446309Y-105417904D01*
X171446309Y-105132190D01*
X171398690Y-105036952D01*
X171351071Y-104989333D01*
X171255833Y-104941714D01*
X171112976Y-104941714D01*
X171017738Y-104989333D01*
X170970119Y-105036952D01*
X170922500Y-105132190D01*
X170922500Y-105417904D01*
X170970119Y-105513142D01*
X171017738Y-105560761D01*
X171112976Y-105608380D01*
X171255833Y-105608380D01*
X170589166Y-104941714D02*
X170398690Y-105608380D01*
X170208214Y-105132190D01*
X170017738Y-105608380D01*
X169827261Y-104941714D01*
X169493928Y-105560761D02*
X169398690Y-105608380D01*
X169208214Y-105608380D01*
X169112976Y-105560761D01*
X169065357Y-105465523D01*
X169065357Y-105417904D01*
X169112976Y-105322666D01*
X169208214Y-105275047D01*
X169351071Y-105275047D01*
X169446309Y-105227428D01*
X169493928Y-105132190D01*
X169493928Y-105084571D01*
X169446309Y-104989333D01*
X169351071Y-104941714D01*
X169208214Y-104941714D01*
X169112976Y-104989333D01*
X168255833Y-105560761D02*
X168351071Y-105608380D01*
X168541547Y-105608380D01*
X168636785Y-105560761D01*
X168684404Y-105465523D01*
X168684404Y-105084571D01*
X168636785Y-104989333D01*
X168541547Y-104941714D01*
X168351071Y-104941714D01*
X168255833Y-104989333D01*
X168208214Y-105084571D01*
X168208214Y-105179809D01*
X168684404Y-105275047D01*
X167779642Y-105608380D02*
X167779642Y-104941714D01*
X167779642Y-105132190D02*
X167732023Y-105036952D01*
X167684404Y-104989333D01*
X167589166Y-104941714D01*
X167493928Y-104941714D01*
X165589166Y-105608380D02*
X165636785Y-105608380D01*
X165732023Y-105560761D01*
X165874880Y-105417904D01*
X166112976Y-105132190D01*
X166208214Y-104989333D01*
X166255833Y-104846476D01*
X166255833Y-104751238D01*
X166208214Y-104656000D01*
X166112976Y-104608380D01*
X166065357Y-104608380D01*
X165970119Y-104656000D01*
X165922500Y-104751238D01*
X165922500Y-104798857D01*
X165970119Y-104894095D01*
X166017738Y-104941714D01*
X166303452Y-105132190D01*
X166351071Y-105179809D01*
X166398690Y-105275047D01*
X166398690Y-105417904D01*
X166351071Y-105513142D01*
X166303452Y-105560761D01*
X166208214Y-105608380D01*
X166065357Y-105608380D01*
X165970119Y-105560761D01*
X165922500Y-105513142D01*
X165779642Y-105322666D01*
X165732023Y-105179809D01*
X165732023Y-105084571D01*
X164017738Y-105560761D02*
X164112976Y-105608380D01*
X164303452Y-105608380D01*
X164398690Y-105560761D01*
X164446309Y-105465523D01*
X164446309Y-105084571D01*
X164398690Y-104989333D01*
X164303452Y-104941714D01*
X164112976Y-104941714D01*
X164017738Y-104989333D01*
X163970119Y-105084571D01*
X163970119Y-105179809D01*
X164446309Y-105275047D01*
X163636785Y-105608380D02*
X163112976Y-104941714D01*
X163636785Y-104941714D02*
X163112976Y-105608380D01*
X162732023Y-104941714D02*
X162732023Y-105941714D01*
X162732023Y-104989333D02*
X162636785Y-104941714D01*
X162446309Y-104941714D01*
X162351071Y-104989333D01*
X162303452Y-105036952D01*
X162255833Y-105132190D01*
X162255833Y-105417904D01*
X162303452Y-105513142D01*
X162351071Y-105560761D01*
X162446309Y-105608380D01*
X162636785Y-105608380D01*
X162732023Y-105560761D01*
X161684404Y-105608380D02*
X161779642Y-105560761D01*
X161827261Y-105465523D01*
X161827261Y-104608380D01*
X161160595Y-105608380D02*
X161255833Y-105560761D01*
X161303452Y-105513142D01*
X161351071Y-105417904D01*
X161351071Y-105132190D01*
X161303452Y-105036952D01*
X161255833Y-104989333D01*
X161160595Y-104941714D01*
X161017738Y-104941714D01*
X160922500Y-104989333D01*
X160874880Y-105036952D01*
X160827261Y-105132190D01*
X160827261Y-105417904D01*
X160874880Y-105513142D01*
X160922500Y-105560761D01*
X161017738Y-105608380D01*
X161160595Y-105608380D01*
X160398690Y-105608380D02*
X160398690Y-104941714D01*
X160398690Y-105132190D02*
X160351071Y-105036952D01*
X160303452Y-104989333D01*
X160208214Y-104941714D01*
X160112976Y-104941714D01*
X159398690Y-105560761D02*
X159493928Y-105608380D01*
X159684404Y-105608380D01*
X159779642Y-105560761D01*
X159827261Y-105465523D01*
X159827261Y-105084571D01*
X159779642Y-104989333D01*
X159684404Y-104941714D01*
X159493928Y-104941714D01*
X159398690Y-104989333D01*
X159351071Y-105084571D01*
X159351071Y-105179809D01*
X159827261Y-105275047D01*
X158160595Y-105608380D02*
X158160595Y-104608380D01*
X158160595Y-104989333D02*
X158065357Y-104941714D01*
X157874880Y-104941714D01*
X157779642Y-104989333D01*
X157732023Y-105036952D01*
X157684404Y-105132190D01*
X157684404Y-105417904D01*
X157732023Y-105513142D01*
X157779642Y-105560761D01*
X157874880Y-105608380D01*
X158065357Y-105608380D01*
X158160595Y-105560761D01*
X157351071Y-104941714D02*
X157112976Y-105608380D01*
X156874880Y-104941714D02*
X157112976Y-105608380D01*
X157208214Y-105846476D01*
X157255833Y-105894095D01*
X157351071Y-105941714D01*
X155874880Y-104941714D02*
X155493928Y-104941714D01*
X155732023Y-104608380D02*
X155732023Y-105465523D01*
X155684404Y-105560761D01*
X155589166Y-105608380D01*
X155493928Y-105608380D01*
X154732023Y-105608380D02*
X154732023Y-105084571D01*
X154779642Y-104989333D01*
X154874880Y-104941714D01*
X155065357Y-104941714D01*
X155160595Y-104989333D01*
X154732023Y-105560761D02*
X154827261Y-105608380D01*
X155065357Y-105608380D01*
X155160595Y-105560761D01*
X155208214Y-105465523D01*
X155208214Y-105370285D01*
X155160595Y-105275047D01*
X155065357Y-105227428D01*
X154827261Y-105227428D01*
X154732023Y-105179809D01*
X154255833Y-104941714D02*
X154255833Y-105941714D01*
X154255833Y-104989333D02*
X154160595Y-104941714D01*
X153970119Y-104941714D01*
X153874880Y-104989333D01*
X153827261Y-105036952D01*
X153779642Y-105132190D01*
X153779642Y-105417904D01*
X153827261Y-105513142D01*
X153874880Y-105560761D01*
X153970119Y-105608380D01*
X154160595Y-105608380D01*
X154255833Y-105560761D01*
X153351071Y-104941714D02*
X153351071Y-105941714D01*
X153351071Y-104989333D02*
X153255833Y-104941714D01*
X153065357Y-104941714D01*
X152970119Y-104989333D01*
X152922500Y-105036952D01*
X152874880Y-105132190D01*
X152874880Y-105417904D01*
X152922500Y-105513142D01*
X152970119Y-105560761D01*
X153065357Y-105608380D01*
X153255833Y-105608380D01*
X153351071Y-105560761D01*
X152446309Y-105608380D02*
X152446309Y-104941714D01*
X152446309Y-104608380D02*
X152493928Y-104656000D01*
X152446309Y-104703619D01*
X152398690Y-104656000D01*
X152446309Y-104608380D01*
X152446309Y-104703619D01*
X151970119Y-104941714D02*
X151970119Y-105608380D01*
X151970119Y-105036952D02*
X151922500Y-104989333D01*
X151827261Y-104941714D01*
X151684404Y-104941714D01*
X151589166Y-104989333D01*
X151541547Y-105084571D01*
X151541547Y-105608380D01*
X150636785Y-104941714D02*
X150636785Y-105751238D01*
X150684404Y-105846476D01*
X150732023Y-105894095D01*
X150827261Y-105941714D01*
X150970119Y-105941714D01*
X151065357Y-105894095D01*
X150636785Y-105560761D02*
X150732023Y-105608380D01*
X150922500Y-105608380D01*
X151017738Y-105560761D01*
X151065357Y-105513142D01*
X151112976Y-105417904D01*
X151112976Y-105132190D01*
X151065357Y-105036952D01*
X151017738Y-104989333D01*
X150922500Y-104941714D01*
X150732023Y-104941714D01*
X150636785Y-104989333D01*
X138874880Y-104941714D02*
X138493928Y-104941714D01*
X138732023Y-105608380D02*
X138732023Y-104751238D01*
X138684404Y-104656000D01*
X138589166Y-104608380D01*
X138493928Y-104608380D01*
X138160595Y-105608380D02*
X138160595Y-104941714D01*
X138160595Y-105132190D02*
X138112976Y-105036952D01*
X138065357Y-104989333D01*
X137970119Y-104941714D01*
X137874880Y-104941714D01*
X137398690Y-105608380D02*
X137493928Y-105560761D01*
X137541547Y-105513142D01*
X137589166Y-105417904D01*
X137589166Y-105132190D01*
X137541547Y-105036952D01*
X137493928Y-104989333D01*
X137398690Y-104941714D01*
X137255833Y-104941714D01*
X137160595Y-104989333D01*
X137112976Y-105036952D01*
X137065357Y-105132190D01*
X137065357Y-105417904D01*
X137112976Y-105513142D01*
X137160595Y-105560761D01*
X137255833Y-105608380D01*
X137398690Y-105608380D01*
X136636785Y-104941714D02*
X136636785Y-105608380D01*
X136636785Y-105036952D02*
X136589166Y-104989333D01*
X136493928Y-104941714D01*
X136351071Y-104941714D01*
X136255833Y-104989333D01*
X136208214Y-105084571D01*
X136208214Y-105608380D01*
X135874880Y-104941714D02*
X135493928Y-104941714D01*
X135732023Y-104608380D02*
X135732023Y-105465523D01*
X135684404Y-105560761D01*
X135589166Y-105608380D01*
X135493928Y-105608380D01*
X135208214Y-105560761D02*
X135112976Y-105608380D01*
X134922500Y-105608380D01*
X134827261Y-105560761D01*
X134779642Y-105465523D01*
X134779642Y-105417904D01*
X134827261Y-105322666D01*
X134922500Y-105275047D01*
X135065357Y-105275047D01*
X135160595Y-105227428D01*
X135208214Y-105132190D01*
X135208214Y-105084571D01*
X135160595Y-104989333D01*
X135065357Y-104941714D01*
X134922500Y-104941714D01*
X134827261Y-104989333D01*
X134351071Y-105608380D02*
X134351071Y-104941714D01*
X134351071Y-104608380D02*
X134398690Y-104656000D01*
X134351071Y-104703619D01*
X134303452Y-104656000D01*
X134351071Y-104608380D01*
X134351071Y-104703619D01*
X133446309Y-105608380D02*
X133446309Y-104608380D01*
X133446309Y-105560761D02*
X133541547Y-105608380D01*
X133732023Y-105608380D01*
X133827261Y-105560761D01*
X133874880Y-105513142D01*
X133922500Y-105417904D01*
X133922500Y-105132190D01*
X133874880Y-105036952D01*
X133827261Y-104989333D01*
X133732023Y-104941714D01*
X133541547Y-104941714D01*
X133446309Y-104989333D01*
X132589166Y-105560761D02*
X132684404Y-105608380D01*
X132874880Y-105608380D01*
X132970119Y-105560761D01*
X133017738Y-105465523D01*
X133017738Y-105084571D01*
X132970119Y-104989333D01*
X132874880Y-104941714D01*
X132684404Y-104941714D01*
X132589166Y-104989333D01*
X132541547Y-105084571D01*
X132541547Y-105179809D01*
X133017738Y-105275047D01*
X131351071Y-105608380D02*
X131351071Y-104941714D01*
X131351071Y-104608380D02*
X131398690Y-104656000D01*
X131351071Y-104703619D01*
X131303452Y-104656000D01*
X131351071Y-104608380D01*
X131351071Y-104703619D01*
X130446309Y-105560761D02*
X130541547Y-105608380D01*
X130732023Y-105608380D01*
X130827261Y-105560761D01*
X130874880Y-105513142D01*
X130922500Y-105417904D01*
X130922500Y-105132190D01*
X130874880Y-105036952D01*
X130827261Y-104989333D01*
X130732023Y-104941714D01*
X130541547Y-104941714D01*
X130446309Y-104989333D01*
X129874880Y-105608380D02*
X129970119Y-105560761D01*
X130017738Y-105513142D01*
X130065357Y-105417904D01*
X130065357Y-105132190D01*
X130017738Y-105036952D01*
X129970119Y-104989333D01*
X129874880Y-104941714D01*
X129732023Y-104941714D01*
X129636785Y-104989333D01*
X129589166Y-105036952D01*
X129541547Y-105132190D01*
X129541547Y-105417904D01*
X129589166Y-105513142D01*
X129636785Y-105560761D01*
X129732023Y-105608380D01*
X129874880Y-105608380D01*
X129112976Y-104941714D02*
X129112976Y-105608380D01*
X129112976Y-105036952D02*
X129065357Y-104989333D01*
X128970119Y-104941714D01*
X128827261Y-104941714D01*
X128732023Y-104989333D01*
X128684404Y-105084571D01*
X128684404Y-105608380D01*
X128255833Y-105560761D02*
X128160595Y-105608380D01*
X127970119Y-105608380D01*
X127874880Y-105560761D01*
X127827261Y-105465523D01*
X127827261Y-105417904D01*
X127874880Y-105322666D01*
X127970119Y-105275047D01*
X128112976Y-105275047D01*
X128208214Y-105227428D01*
X128255833Y-105132190D01*
X128255833Y-105084571D01*
X128208214Y-104989333D01*
X128112976Y-104941714D01*
X127970119Y-104941714D01*
X127874880Y-104989333D01*
X195732023Y-110272666D02*
X195255833Y-110272666D01*
X195827261Y-110558380D02*
X195493928Y-109558380D01*
X195160595Y-110558380D01*
X194398690Y-110510761D02*
X194493928Y-110558380D01*
X194684404Y-110558380D01*
X194779642Y-110510761D01*
X194827261Y-110463142D01*
X194874880Y-110367904D01*
X194874880Y-110082190D01*
X194827261Y-109986952D01*
X194779642Y-109939333D01*
X194684404Y-109891714D01*
X194493928Y-109891714D01*
X194398690Y-109939333D01*
X194112976Y-109891714D02*
X193732023Y-109891714D01*
X193970119Y-109558380D02*
X193970119Y-110415523D01*
X193922500Y-110510761D01*
X193827261Y-110558380D01*
X193732023Y-110558380D01*
X193398690Y-110558380D02*
X193398690Y-109891714D01*
X193398690Y-109558380D02*
X193446309Y-109606000D01*
X193398690Y-109653619D01*
X193351071Y-109606000D01*
X193398690Y-109558380D01*
X193398690Y-109653619D01*
X193017738Y-109891714D02*
X192779642Y-110558380D01*
X192541547Y-109891714D01*
X191732023Y-110558380D02*
X191732023Y-110034571D01*
X191779642Y-109939333D01*
X191874880Y-109891714D01*
X192065357Y-109891714D01*
X192160595Y-109939333D01*
X191732023Y-110510761D02*
X191827261Y-110558380D01*
X192065357Y-110558380D01*
X192160595Y-110510761D01*
X192208214Y-110415523D01*
X192208214Y-110320285D01*
X192160595Y-110225047D01*
X192065357Y-110177428D01*
X191827261Y-110177428D01*
X191732023Y-110129809D01*
X191398690Y-109891714D02*
X191017738Y-109891714D01*
X191255833Y-109558380D02*
X191255833Y-110415523D01*
X191208214Y-110510761D01*
X191112976Y-110558380D01*
X191017738Y-110558380D01*
X190303452Y-110510761D02*
X190398690Y-110558380D01*
X190589166Y-110558380D01*
X190684404Y-110510761D01*
X190732023Y-110415523D01*
X190732023Y-110034571D01*
X190684404Y-109939333D01*
X190589166Y-109891714D01*
X190398690Y-109891714D01*
X190303452Y-109939333D01*
X190255833Y-110034571D01*
X190255833Y-110129809D01*
X190732023Y-110225047D01*
X188636785Y-110510761D02*
X188732023Y-110558380D01*
X188922500Y-110558380D01*
X189017738Y-110510761D01*
X189065357Y-110463142D01*
X189112976Y-110367904D01*
X189112976Y-110082190D01*
X189065357Y-109986952D01*
X189017738Y-109939333D01*
X188922500Y-109891714D01*
X188732023Y-109891714D01*
X188636785Y-109939333D01*
X188065357Y-110558380D02*
X188160595Y-110510761D01*
X188208214Y-110463142D01*
X188255833Y-110367904D01*
X188255833Y-110082190D01*
X188208214Y-109986952D01*
X188160595Y-109939333D01*
X188065357Y-109891714D01*
X187922500Y-109891714D01*
X187827261Y-109939333D01*
X187779642Y-109986952D01*
X187732023Y-110082190D01*
X187732023Y-110367904D01*
X187779642Y-110463142D01*
X187827261Y-110510761D01*
X187922500Y-110558380D01*
X188065357Y-110558380D01*
X187303452Y-109891714D02*
X187303452Y-110558380D01*
X187303452Y-109986952D02*
X187255833Y-109939333D01*
X187160595Y-109891714D01*
X187017738Y-109891714D01*
X186922500Y-109939333D01*
X186874880Y-110034571D01*
X186874880Y-110558380D01*
X186541547Y-109891714D02*
X186160595Y-109891714D01*
X186398690Y-109558380D02*
X186398690Y-110415523D01*
X186351071Y-110510761D01*
X186255833Y-110558380D01*
X186160595Y-110558380D01*
X185446309Y-110510761D02*
X185541547Y-110558380D01*
X185732023Y-110558380D01*
X185827261Y-110510761D01*
X185874880Y-110415523D01*
X185874880Y-110034571D01*
X185827261Y-109939333D01*
X185732023Y-109891714D01*
X185541547Y-109891714D01*
X185446309Y-109939333D01*
X185398690Y-110034571D01*
X185398690Y-110129809D01*
X185874880Y-110225047D01*
X184970119Y-109891714D02*
X184970119Y-110558380D01*
X184970119Y-109986952D02*
X184922500Y-109939333D01*
X184827261Y-109891714D01*
X184684404Y-109891714D01*
X184589166Y-109939333D01*
X184541547Y-110034571D01*
X184541547Y-110558380D01*
X184208214Y-109891714D02*
X183827261Y-109891714D01*
X184065357Y-109558380D02*
X184065357Y-110415523D01*
X184017738Y-110510761D01*
X183922500Y-110558380D01*
X183827261Y-110558380D01*
X182589166Y-110558380D02*
X182684404Y-110510761D01*
X182732023Y-110463142D01*
X182779642Y-110367904D01*
X182779642Y-110082190D01*
X182732023Y-109986952D01*
X182684404Y-109939333D01*
X182589166Y-109891714D01*
X182446309Y-109891714D01*
X182351071Y-109939333D01*
X182303452Y-109986952D01*
X182255833Y-110082190D01*
X182255833Y-110367904D01*
X182303452Y-110463142D01*
X182351071Y-110510761D01*
X182446309Y-110558380D01*
X182589166Y-110558380D01*
X181827261Y-109891714D02*
X181827261Y-110558380D01*
X181827261Y-109986952D02*
X181779642Y-109939333D01*
X181684404Y-109891714D01*
X181541547Y-109891714D01*
X181446309Y-109939333D01*
X181398690Y-110034571D01*
X181398690Y-110558380D01*
X180208214Y-110510761D02*
X180112976Y-110558380D01*
X179922500Y-110558380D01*
X179827261Y-110510761D01*
X179779642Y-110415523D01*
X179779642Y-110367904D01*
X179827261Y-110272666D01*
X179922500Y-110225047D01*
X180065357Y-110225047D01*
X180160595Y-110177428D01*
X180208214Y-110082190D01*
X180208214Y-110034571D01*
X180160595Y-109939333D01*
X180065357Y-109891714D01*
X179922500Y-109891714D01*
X179827261Y-109939333D01*
X178922500Y-110510761D02*
X179017738Y-110558380D01*
X179208214Y-110558380D01*
X179303452Y-110510761D01*
X179351071Y-110463142D01*
X179398690Y-110367904D01*
X179398690Y-110082190D01*
X179351071Y-109986952D01*
X179303452Y-109939333D01*
X179208214Y-109891714D01*
X179017738Y-109891714D01*
X178922500Y-109939333D01*
X178493928Y-110558380D02*
X178493928Y-109891714D01*
X178493928Y-110082190D02*
X178446309Y-109986952D01*
X178398690Y-109939333D01*
X178303452Y-109891714D01*
X178208214Y-109891714D01*
X177493928Y-110510761D02*
X177589166Y-110558380D01*
X177779642Y-110558380D01*
X177874880Y-110510761D01*
X177922500Y-110415523D01*
X177922500Y-110034571D01*
X177874880Y-109939333D01*
X177779642Y-109891714D01*
X177589166Y-109891714D01*
X177493928Y-109939333D01*
X177446309Y-110034571D01*
X177446309Y-110129809D01*
X177922500Y-110225047D01*
X176636785Y-110510761D02*
X176732023Y-110558380D01*
X176922500Y-110558380D01*
X177017738Y-110510761D01*
X177065357Y-110415523D01*
X177065357Y-110034571D01*
X177017738Y-109939333D01*
X176922500Y-109891714D01*
X176732023Y-109891714D01*
X176636785Y-109939333D01*
X176589166Y-110034571D01*
X176589166Y-110129809D01*
X177065357Y-110225047D01*
X176160595Y-109891714D02*
X176160595Y-110558380D01*
X176160595Y-109986952D02*
X176112976Y-109939333D01*
X176017738Y-109891714D01*
X175874880Y-109891714D01*
X175779642Y-109939333D01*
X175732023Y-110034571D01*
X175732023Y-110558380D01*
X174493928Y-110558380D02*
X174493928Y-109558380D01*
X174493928Y-109939333D02*
X174398690Y-109891714D01*
X174208214Y-109891714D01*
X174112976Y-109939333D01*
X174065357Y-109986952D01*
X174017738Y-110082190D01*
X174017738Y-110367904D01*
X174065357Y-110463142D01*
X174112976Y-110510761D01*
X174208214Y-110558380D01*
X174398690Y-110558380D01*
X174493928Y-110510761D01*
X173684404Y-109891714D02*
X173446309Y-110558380D01*
X173208214Y-109891714D02*
X173446309Y-110558380D01*
X173541547Y-110796476D01*
X173589166Y-110844095D01*
X173684404Y-110891714D01*
X172208214Y-109891714D02*
X171827261Y-109891714D01*
X172065357Y-109558380D02*
X172065357Y-110415523D01*
X172017738Y-110510761D01*
X171922500Y-110558380D01*
X171827261Y-110558380D01*
X171065357Y-110558380D02*
X171065357Y-110034571D01*
X171112976Y-109939333D01*
X171208214Y-109891714D01*
X171398690Y-109891714D01*
X171493928Y-109939333D01*
X171065357Y-110510761D02*
X171160595Y-110558380D01*
X171398690Y-110558380D01*
X171493928Y-110510761D01*
X171541547Y-110415523D01*
X171541547Y-110320285D01*
X171493928Y-110225047D01*
X171398690Y-110177428D01*
X171160595Y-110177428D01*
X171065357Y-110129809D01*
X170589166Y-109891714D02*
X170589166Y-110891714D01*
X170589166Y-109939333D02*
X170493928Y-109891714D01*
X170303452Y-109891714D01*
X170208214Y-109939333D01*
X170160595Y-109986952D01*
X170112976Y-110082190D01*
X170112976Y-110367904D01*
X170160595Y-110463142D01*
X170208214Y-110510761D01*
X170303452Y-110558380D01*
X170493928Y-110558380D01*
X170589166Y-110510761D01*
X169684404Y-109891714D02*
X169684404Y-110891714D01*
X169684404Y-109939333D02*
X169589166Y-109891714D01*
X169398690Y-109891714D01*
X169303452Y-109939333D01*
X169255833Y-109986952D01*
X169208214Y-110082190D01*
X169208214Y-110367904D01*
X169255833Y-110463142D01*
X169303452Y-110510761D01*
X169398690Y-110558380D01*
X169589166Y-110558380D01*
X169684404Y-110510761D01*
X168779642Y-110558380D02*
X168779642Y-109891714D01*
X168779642Y-109558380D02*
X168827261Y-109606000D01*
X168779642Y-109653619D01*
X168732023Y-109606000D01*
X168779642Y-109558380D01*
X168779642Y-109653619D01*
X168303452Y-109891714D02*
X168303452Y-110558380D01*
X168303452Y-109986952D02*
X168255833Y-109939333D01*
X168160595Y-109891714D01*
X168017738Y-109891714D01*
X167922500Y-109939333D01*
X167874880Y-110034571D01*
X167874880Y-110558380D01*
X166970119Y-109891714D02*
X166970119Y-110701238D01*
X167017738Y-110796476D01*
X167065357Y-110844095D01*
X167160595Y-110891714D01*
X167303452Y-110891714D01*
X167398690Y-110844095D01*
X166970119Y-110510761D02*
X167065357Y-110558380D01*
X167255833Y-110558380D01*
X167351071Y-110510761D01*
X167398690Y-110463142D01*
X167446309Y-110367904D01*
X167446309Y-110082190D01*
X167398690Y-109986952D01*
X167351071Y-109939333D01*
X167255833Y-109891714D01*
X167065357Y-109891714D01*
X166970119Y-109939333D01*
X165874880Y-109891714D02*
X165493928Y-109891714D01*
X165732023Y-109558380D02*
X165732023Y-110415523D01*
X165684404Y-110510761D01*
X165589166Y-110558380D01*
X165493928Y-110558380D01*
X165160595Y-110558380D02*
X165160595Y-109558380D01*
X164732023Y-110558380D02*
X164732023Y-110034571D01*
X164779642Y-109939333D01*
X164874880Y-109891714D01*
X165017738Y-109891714D01*
X165112976Y-109939333D01*
X165160595Y-109986952D01*
X163874880Y-110510761D02*
X163970119Y-110558380D01*
X164160595Y-110558380D01*
X164255833Y-110510761D01*
X164303452Y-110415523D01*
X164303452Y-110034571D01*
X164255833Y-109939333D01*
X164160595Y-109891714D01*
X163970119Y-109891714D01*
X163874880Y-109939333D01*
X163827261Y-110034571D01*
X163827261Y-110129809D01*
X164303452Y-110225047D01*
X162208214Y-110510761D02*
X162303452Y-110558380D01*
X162493928Y-110558380D01*
X162589166Y-110510761D01*
X162636785Y-110463142D01*
X162684404Y-110367904D01*
X162684404Y-110082190D01*
X162636785Y-109986952D01*
X162589166Y-109939333D01*
X162493928Y-109891714D01*
X162303452Y-109891714D01*
X162208214Y-109939333D01*
X161398690Y-110510761D02*
X161493928Y-110558380D01*
X161684404Y-110558380D01*
X161779642Y-110510761D01*
X161827261Y-110415523D01*
X161827261Y-110034571D01*
X161779642Y-109939333D01*
X161684404Y-109891714D01*
X161493928Y-109891714D01*
X161398690Y-109939333D01*
X161351071Y-110034571D01*
X161351071Y-110129809D01*
X161827261Y-110225047D01*
X160922500Y-109891714D02*
X160922500Y-110558380D01*
X160922500Y-109986952D02*
X160874880Y-109939333D01*
X160779642Y-109891714D01*
X160636785Y-109891714D01*
X160541547Y-109939333D01*
X160493928Y-110034571D01*
X160493928Y-110558380D01*
X160160595Y-109891714D02*
X159779642Y-109891714D01*
X160017738Y-109558380D02*
X160017738Y-110415523D01*
X159970119Y-110510761D01*
X159874880Y-110558380D01*
X159779642Y-110558380D01*
X159446309Y-110558380D02*
X159446309Y-109891714D01*
X159446309Y-110082190D02*
X159398690Y-109986952D01*
X159351071Y-109939333D01*
X159255833Y-109891714D01*
X159160595Y-109891714D01*
X158398690Y-110558380D02*
X158398690Y-110034571D01*
X158446309Y-109939333D01*
X158541547Y-109891714D01*
X158732023Y-109891714D01*
X158827261Y-109939333D01*
X158398690Y-110510761D02*
X158493928Y-110558380D01*
X158732023Y-110558380D01*
X158827261Y-110510761D01*
X158874880Y-110415523D01*
X158874880Y-110320285D01*
X158827261Y-110225047D01*
X158732023Y-110177428D01*
X158493928Y-110177428D01*
X158398690Y-110129809D01*
X157779642Y-110558380D02*
X157874880Y-110510761D01*
X157922500Y-110415523D01*
X157922500Y-109558380D01*
X152827261Y-110558380D02*
X152827261Y-109891714D01*
X152827261Y-109558380D02*
X152874880Y-109606000D01*
X152827261Y-109653619D01*
X152779642Y-109606000D01*
X152827261Y-109558380D01*
X152827261Y-109653619D01*
X151922500Y-110510761D02*
X152017738Y-110558380D01*
X152208214Y-110558380D01*
X152303452Y-110510761D01*
X152351071Y-110463142D01*
X152398690Y-110367904D01*
X152398690Y-110082190D01*
X152351071Y-109986952D01*
X152303452Y-109939333D01*
X152208214Y-109891714D01*
X152017738Y-109891714D01*
X151922500Y-109939333D01*
X151351071Y-110558380D02*
X151446309Y-110510761D01*
X151493928Y-110463142D01*
X151541547Y-110367904D01*
X151541547Y-110082190D01*
X151493928Y-109986952D01*
X151446309Y-109939333D01*
X151351071Y-109891714D01*
X151208214Y-109891714D01*
X151112976Y-109939333D01*
X151065357Y-109986952D01*
X151017738Y-110082190D01*
X151017738Y-110367904D01*
X151065357Y-110463142D01*
X151112976Y-110510761D01*
X151208214Y-110558380D01*
X151351071Y-110558380D01*
X150589166Y-109891714D02*
X150589166Y-110558380D01*
X150589166Y-109986952D02*
X150541547Y-109939333D01*
X150446309Y-109891714D01*
X150303452Y-109891714D01*
X150208214Y-109939333D01*
X150160595Y-110034571D01*
X150160595Y-110558380D01*
X148779642Y-110558380D02*
X148874880Y-110510761D01*
X148922500Y-110463142D01*
X148970119Y-110367904D01*
X148970119Y-110082190D01*
X148922500Y-109986952D01*
X148874880Y-109939333D01*
X148779642Y-109891714D01*
X148636785Y-109891714D01*
X148541547Y-109939333D01*
X148493928Y-109986952D01*
X148446309Y-110082190D01*
X148446309Y-110367904D01*
X148493928Y-110463142D01*
X148541547Y-110510761D01*
X148636785Y-110558380D01*
X148779642Y-110558380D01*
X148017738Y-109891714D02*
X148017738Y-110558380D01*
X148017738Y-109986952D02*
X147970119Y-109939333D01*
X147874880Y-109891714D01*
X147732023Y-109891714D01*
X147636785Y-109939333D01*
X147589166Y-110034571D01*
X147589166Y-110558380D01*
X146493928Y-109891714D02*
X146112976Y-109891714D01*
X146351071Y-109558380D02*
X146351071Y-110415523D01*
X146303452Y-110510761D01*
X146208214Y-110558380D01*
X146112976Y-110558380D01*
X145779642Y-110558380D02*
X145779642Y-109558380D01*
X145351071Y-110558380D02*
X145351071Y-110034571D01*
X145398690Y-109939333D01*
X145493928Y-109891714D01*
X145636785Y-109891714D01*
X145732023Y-109939333D01*
X145779642Y-109986952D01*
X144874880Y-110558380D02*
X144874880Y-109891714D01*
X144874880Y-109558380D02*
X144922500Y-109606000D01*
X144874880Y-109653619D01*
X144827261Y-109606000D01*
X144874880Y-109558380D01*
X144874880Y-109653619D01*
X144446309Y-110510761D02*
X144351071Y-110558380D01*
X144160595Y-110558380D01*
X144065357Y-110510761D01*
X144017738Y-110415523D01*
X144017738Y-110367904D01*
X144065357Y-110272666D01*
X144160595Y-110225047D01*
X144303452Y-110225047D01*
X144398690Y-110177428D01*
X144446309Y-110082190D01*
X144446309Y-110034571D01*
X144398690Y-109939333D01*
X144303452Y-109891714D01*
X144160595Y-109891714D01*
X144065357Y-109939333D01*
X142398690Y-110510761D02*
X142493928Y-110558380D01*
X142684404Y-110558380D01*
X142779642Y-110510761D01*
X142827261Y-110463142D01*
X142874880Y-110367904D01*
X142874880Y-110082190D01*
X142827261Y-109986952D01*
X142779642Y-109939333D01*
X142684404Y-109891714D01*
X142493928Y-109891714D01*
X142398690Y-109939333D01*
X141541547Y-110558380D02*
X141541547Y-110034571D01*
X141589166Y-109939333D01*
X141684404Y-109891714D01*
X141874880Y-109891714D01*
X141970119Y-109939333D01*
X141541547Y-110510761D02*
X141636785Y-110558380D01*
X141874880Y-110558380D01*
X141970119Y-110510761D01*
X142017738Y-110415523D01*
X142017738Y-110320285D01*
X141970119Y-110225047D01*
X141874880Y-110177428D01*
X141636785Y-110177428D01*
X141541547Y-110129809D01*
X141065357Y-110558380D02*
X141065357Y-109891714D01*
X141065357Y-110082190D02*
X141017738Y-109986952D01*
X140970119Y-109939333D01*
X140874880Y-109891714D01*
X140779642Y-109891714D01*
X140017738Y-110558380D02*
X140017738Y-109558380D01*
X140017738Y-110510761D02*
X140112976Y-110558380D01*
X140303452Y-110558380D01*
X140398690Y-110510761D01*
X140446309Y-110463142D01*
X140493928Y-110367904D01*
X140493928Y-110082190D01*
X140446309Y-109986952D01*
X140398690Y-109939333D01*
X140303452Y-109891714D01*
X140112976Y-109891714D01*
X140017738Y-109939333D01*
X139493928Y-109558380D02*
X139493928Y-109606000D01*
X139541547Y-109701238D01*
X139589166Y-109748857D01*
X139112976Y-110510761D02*
X139017738Y-110558380D01*
X138827261Y-110558380D01*
X138732023Y-110510761D01*
X138684404Y-110415523D01*
X138684404Y-110367904D01*
X138732023Y-110272666D01*
X138827261Y-110225047D01*
X138970119Y-110225047D01*
X139065357Y-110177428D01*
X139112976Y-110082190D01*
X139112976Y-110034571D01*
X139065357Y-109939333D01*
X138970119Y-109891714D01*
X138827261Y-109891714D01*
X138732023Y-109939333D01*
X137636785Y-109891714D02*
X137255833Y-109891714D01*
X137493928Y-110558380D02*
X137493928Y-109701238D01*
X137446309Y-109606000D01*
X137351071Y-109558380D01*
X137255833Y-109558380D01*
X136922500Y-110558380D02*
X136922500Y-109891714D01*
X136922500Y-110082190D02*
X136874880Y-109986952D01*
X136827261Y-109939333D01*
X136732023Y-109891714D01*
X136636785Y-109891714D01*
X136160595Y-110558380D02*
X136255833Y-110510761D01*
X136303452Y-110463142D01*
X136351071Y-110367904D01*
X136351071Y-110082190D01*
X136303452Y-109986952D01*
X136255833Y-109939333D01*
X136160595Y-109891714D01*
X136017738Y-109891714D01*
X135922500Y-109939333D01*
X135874880Y-109986952D01*
X135827261Y-110082190D01*
X135827261Y-110367904D01*
X135874880Y-110463142D01*
X135922500Y-110510761D01*
X136017738Y-110558380D01*
X136160595Y-110558380D01*
X135398690Y-109891714D02*
X135398690Y-110558380D01*
X135398690Y-109986952D02*
X135351071Y-109939333D01*
X135255833Y-109891714D01*
X135112976Y-109891714D01*
X135017738Y-109939333D01*
X134970119Y-110034571D01*
X134970119Y-110558380D01*
X134636785Y-109891714D02*
X134255833Y-109891714D01*
X134493928Y-109558380D02*
X134493928Y-110415523D01*
X134446309Y-110510761D01*
X134351071Y-110558380D01*
X134255833Y-110558380D01*
X133970119Y-110510761D02*
X133874880Y-110558380D01*
X133684404Y-110558380D01*
X133589166Y-110510761D01*
X133541547Y-110415523D01*
X133541547Y-110367904D01*
X133589166Y-110272666D01*
X133684404Y-110225047D01*
X133827261Y-110225047D01*
X133922500Y-110177428D01*
X133970119Y-110082190D01*
X133970119Y-110034571D01*
X133922500Y-109939333D01*
X133827261Y-109891714D01*
X133684404Y-109891714D01*
X133589166Y-109939333D01*
X133112976Y-110558380D02*
X133112976Y-109891714D01*
X133112976Y-109558380D02*
X133160595Y-109606000D01*
X133112976Y-109653619D01*
X133065357Y-109606000D01*
X133112976Y-109558380D01*
X133112976Y-109653619D01*
X132208214Y-110558380D02*
X132208214Y-109558380D01*
X132208214Y-110510761D02*
X132303452Y-110558380D01*
X132493928Y-110558380D01*
X132589166Y-110510761D01*
X132636785Y-110463142D01*
X132684404Y-110367904D01*
X132684404Y-110082190D01*
X132636785Y-109986952D01*
X132589166Y-109939333D01*
X132493928Y-109891714D01*
X132303452Y-109891714D01*
X132208214Y-109939333D01*
X131351071Y-110510761D02*
X131446309Y-110558380D01*
X131636785Y-110558380D01*
X131732023Y-110510761D01*
X131779642Y-110415523D01*
X131779642Y-110034571D01*
X131732023Y-109939333D01*
X131636785Y-109891714D01*
X131446309Y-109891714D01*
X131351071Y-109939333D01*
X131303452Y-110034571D01*
X131303452Y-110129809D01*
X131779642Y-110225047D01*
X185352571Y-124678285D02*
X185424000Y-124606857D01*
X185566857Y-124535428D01*
X185709714Y-124535428D01*
X185852571Y-124606857D01*
X185924000Y-124678285D01*
X185995428Y-124821142D01*
X185995428Y-124964000D01*
X185924000Y-125106857D01*
X185852571Y-125178285D01*
X185709714Y-125249714D01*
X185566857Y-125249714D01*
X185424000Y-125178285D01*
X185352571Y-125106857D01*
X185352571Y-124535428D02*
X185352571Y-125106857D01*
X185281142Y-125178285D01*
X185209714Y-125178285D01*
X185066857Y-125106857D01*
X184995428Y-124964000D01*
X184995428Y-124606857D01*
X185138285Y-124392571D01*
X185352571Y-124249714D01*
X185638285Y-124178285D01*
X185924000Y-124249714D01*
X186138285Y-124392571D01*
X186281142Y-124606857D01*
X186352571Y-124892571D01*
X186281142Y-125178285D01*
X186138285Y-125392571D01*
X185924000Y-125535428D01*
X185638285Y-125606857D01*
X185352571Y-125535428D01*
X185138285Y-125392571D01*
D11*
X188384571Y-125392571D02*
X188384571Y-123892571D01*
X187741714Y-125392571D02*
X187741714Y-124606857D01*
X187813142Y-124464000D01*
X187956000Y-124392571D01*
X188170285Y-124392571D01*
X188313142Y-124464000D01*
X188384571Y-124535428D01*
X187027428Y-125392571D02*
X187027428Y-124392571D01*
X187027428Y-123892571D02*
X187098857Y-123964000D01*
X187027428Y-124035428D01*
X186956000Y-123964000D01*
X187027428Y-123892571D01*
X187027428Y-124035428D01*
D10*
X138961714Y-79906761D02*
X138818857Y-79954380D01*
X138580761Y-79954380D01*
X138485523Y-79906761D01*
X138437904Y-79859142D01*
X138390285Y-79763904D01*
X138390285Y-79668666D01*
X138437904Y-79573428D01*
X138485523Y-79525809D01*
X138580761Y-79478190D01*
X138771238Y-79430571D01*
X138866476Y-79382952D01*
X138914095Y-79335333D01*
X138961714Y-79240095D01*
X138961714Y-79144857D01*
X138914095Y-79049619D01*
X138866476Y-79002000D01*
X138771238Y-78954380D01*
X138533142Y-78954380D01*
X138390285Y-79002000D01*
X137390285Y-79859142D02*
X137437904Y-79906761D01*
X137580761Y-79954380D01*
X137676000Y-79954380D01*
X137818857Y-79906761D01*
X137914095Y-79811523D01*
X137961714Y-79716285D01*
X138009333Y-79525809D01*
X138009333Y-79382952D01*
X137961714Y-79192476D01*
X137914095Y-79097238D01*
X137818857Y-79002000D01*
X137676000Y-78954380D01*
X137580761Y-78954380D01*
X137437904Y-79002000D01*
X137390285Y-79049619D01*
X138247428Y-76327047D02*
X138247428Y-77088952D01*
X138628380Y-76708000D02*
X137866476Y-76708000D01*
X137795047Y-74096571D02*
X138556952Y-74096571D01*
X145351428Y-77414380D02*
X145351428Y-76414380D01*
X145018095Y-77128666D01*
X144684761Y-76414380D01*
X144684761Y-77414380D01*
X144208571Y-77414380D02*
X144208571Y-76414380D01*
X145383142Y-74620380D02*
X145383142Y-73620380D01*
X145049809Y-74334666D01*
X144716476Y-73620380D01*
X144716476Y-74620380D01*
X144049809Y-73620380D02*
X143859333Y-73620380D01*
X143764095Y-73668000D01*
X143668857Y-73763238D01*
X143621238Y-73953714D01*
X143621238Y-74287047D01*
X143668857Y-74477523D01*
X143764095Y-74572761D01*
X143859333Y-74620380D01*
X144049809Y-74620380D01*
X144145047Y-74572761D01*
X144240285Y-74477523D01*
X144287904Y-74287047D01*
X144287904Y-73953714D01*
X144240285Y-73763238D01*
X144145047Y-73668000D01*
X144049809Y-73620380D01*
X151272857Y-74366380D02*
X151606190Y-73890190D01*
X151844285Y-74366380D02*
X151844285Y-73366380D01*
X151463333Y-73366380D01*
X151368095Y-73414000D01*
X151320476Y-73461619D01*
X151272857Y-73556857D01*
X151272857Y-73699714D01*
X151320476Y-73794952D01*
X151368095Y-73842571D01*
X151463333Y-73890190D01*
X151844285Y-73890190D01*
X150844285Y-73842571D02*
X150510952Y-73842571D01*
X150368095Y-74366380D02*
X150844285Y-74366380D01*
X150844285Y-73366380D01*
X150368095Y-73366380D01*
D12*
X195757357Y-94404571D02*
X195757357Y-92904571D01*
X195757357Y-93618857D02*
X194900214Y-93618857D01*
X194900214Y-94404571D02*
X194900214Y-92904571D01*
X193971642Y-94404571D02*
X194114500Y-94333142D01*
X194185928Y-94261714D01*
X194257357Y-94118857D01*
X194257357Y-93690285D01*
X194185928Y-93547428D01*
X194114500Y-93476000D01*
X193971642Y-93404571D01*
X193757357Y-93404571D01*
X193614500Y-93476000D01*
X193543071Y-93547428D01*
X193471642Y-93690285D01*
X193471642Y-94118857D01*
X193543071Y-94261714D01*
X193614500Y-94333142D01*
X193757357Y-94404571D01*
X193971642Y-94404571D01*
X192971642Y-93404571D02*
X192685928Y-94404571D01*
X192400214Y-93690285D01*
X192114500Y-94404571D01*
X191828785Y-93404571D01*
X190328785Y-93404571D02*
X189757357Y-93404571D01*
X190114500Y-92904571D02*
X190114500Y-94190285D01*
X190043071Y-94333142D01*
X189900214Y-94404571D01*
X189757357Y-94404571D01*
X189043071Y-94404571D02*
X189185928Y-94333142D01*
X189257357Y-94261714D01*
X189328785Y-94118857D01*
X189328785Y-93690285D01*
X189257357Y-93547428D01*
X189185928Y-93476000D01*
X189043071Y-93404571D01*
X188828785Y-93404571D01*
X188685928Y-93476000D01*
X188614500Y-93547428D01*
X188543071Y-93690285D01*
X188543071Y-94118857D01*
X188614500Y-94261714D01*
X188685928Y-94333142D01*
X188828785Y-94404571D01*
X189043071Y-94404571D01*
X186757357Y-93404571D02*
X186757357Y-94904571D01*
X186757357Y-93476000D02*
X186614500Y-93404571D01*
X186328785Y-93404571D01*
X186185928Y-93476000D01*
X186114500Y-93547428D01*
X186043071Y-93690285D01*
X186043071Y-94118857D01*
X186114500Y-94261714D01*
X186185928Y-94333142D01*
X186328785Y-94404571D01*
X186614500Y-94404571D01*
X186757357Y-94333142D01*
X185185928Y-94404571D02*
X185328785Y-94333142D01*
X185400214Y-94190285D01*
X185400214Y-92904571D01*
X183971642Y-94404571D02*
X183971642Y-93618857D01*
X184043071Y-93476000D01*
X184185928Y-93404571D01*
X184471642Y-93404571D01*
X184614500Y-93476000D01*
X183971642Y-94333142D02*
X184114500Y-94404571D01*
X184471642Y-94404571D01*
X184614500Y-94333142D01*
X184685928Y-94190285D01*
X184685928Y-94047428D01*
X184614500Y-93904571D01*
X184471642Y-93833142D01*
X184114500Y-93833142D01*
X183971642Y-93761714D01*
X183400214Y-93404571D02*
X183043071Y-94404571D01*
X182685928Y-93404571D02*
X183043071Y-94404571D01*
X183185928Y-94761714D01*
X183257357Y-94833142D01*
X183400214Y-94904571D01*
X182114500Y-94261714D02*
X182043071Y-94333142D01*
X182114500Y-94404571D01*
X182185928Y-94333142D01*
X182114500Y-94261714D01*
X182114500Y-94404571D01*
X182114500Y-93476000D02*
X182043071Y-93547428D01*
X182114500Y-93618857D01*
X182185928Y-93547428D01*
X182114500Y-93476000D01*
X182114500Y-93618857D01*
D11*
X184168571Y-124138571D02*
X184168571Y-125424285D01*
X184240000Y-125567142D01*
X184382857Y-125638571D01*
X184454285Y-125638571D01*
X184168571Y-123638571D02*
X184240000Y-123710000D01*
X184168571Y-123781428D01*
X184097142Y-123710000D01*
X184168571Y-123638571D01*
X184168571Y-123781428D01*
X182811428Y-125138571D02*
X182811428Y-124352857D01*
X182882857Y-124210000D01*
X183025714Y-124138571D01*
X183311428Y-124138571D01*
X183454285Y-124210000D01*
X182811428Y-125067142D02*
X182954285Y-125138571D01*
X183311428Y-125138571D01*
X183454285Y-125067142D01*
X183525714Y-124924285D01*
X183525714Y-124781428D01*
X183454285Y-124638571D01*
X183311428Y-124567142D01*
X182954285Y-124567142D01*
X182811428Y-124495714D01*
X182097142Y-125138571D02*
X182097142Y-124138571D01*
X182097142Y-124281428D02*
X182025714Y-124210000D01*
X181882857Y-124138571D01*
X181668571Y-124138571D01*
X181525714Y-124210000D01*
X181454285Y-124352857D01*
X181454285Y-125138571D01*
X181454285Y-124352857D02*
X181382857Y-124210000D01*
X181240000Y-124138571D01*
X181025714Y-124138571D01*
X180882857Y-124210000D01*
X180811428Y-124352857D01*
X180811428Y-125138571D01*
X179525714Y-125067142D02*
X179668571Y-125138571D01*
X179954285Y-125138571D01*
X180097142Y-125067142D01*
X180168571Y-124924285D01*
X180168571Y-124352857D01*
X180097142Y-124210000D01*
X179954285Y-124138571D01*
X179668571Y-124138571D01*
X179525714Y-124210000D01*
X179454285Y-124352857D01*
X179454285Y-124495714D01*
X180168571Y-124638571D01*
X178882857Y-125067142D02*
X178740000Y-125138571D01*
X178454285Y-125138571D01*
X178311428Y-125067142D01*
X178240000Y-124924285D01*
X178240000Y-124852857D01*
X178311428Y-124710000D01*
X178454285Y-124638571D01*
X178668571Y-124638571D01*
X178811428Y-124567142D01*
X178882857Y-124424285D01*
X178882857Y-124352857D01*
X178811428Y-124210000D01*
X178668571Y-124138571D01*
X178454285Y-124138571D01*
X178311428Y-124210000D01*
X177597142Y-125138571D02*
X177597142Y-124138571D01*
X177597142Y-124281428D02*
X177525714Y-124210000D01*
X177382857Y-124138571D01*
X177168571Y-124138571D01*
X177025714Y-124210000D01*
X176954285Y-124352857D01*
X176954285Y-125138571D01*
X176954285Y-124352857D02*
X176882857Y-124210000D01*
X176740000Y-124138571D01*
X176525714Y-124138571D01*
X176382857Y-124210000D01*
X176311428Y-124352857D01*
X176311428Y-125138571D01*
X175597142Y-125138571D02*
X175597142Y-124138571D01*
X175597142Y-123638571D02*
X175668571Y-123710000D01*
X175597142Y-123781428D01*
X175525714Y-123710000D01*
X175597142Y-123638571D01*
X175597142Y-123781428D01*
X174668571Y-125138571D02*
X174811428Y-125067142D01*
X174882857Y-124924285D01*
X174882857Y-123638571D01*
X173882857Y-125138571D02*
X174025714Y-125067142D01*
X174097142Y-124924285D01*
X174097142Y-123638571D01*
X172740000Y-125067142D02*
X172882857Y-125138571D01*
X173168571Y-125138571D01*
X173311428Y-125067142D01*
X173382857Y-124924285D01*
X173382857Y-124352857D01*
X173311428Y-124210000D01*
X173168571Y-124138571D01*
X172882857Y-124138571D01*
X172740000Y-124210000D01*
X172668571Y-124352857D01*
X172668571Y-124495714D01*
X173382857Y-124638571D01*
X172025714Y-125138571D02*
X172025714Y-124138571D01*
X172025714Y-124424285D02*
X171954285Y-124281428D01*
X171882857Y-124210000D01*
X171740000Y-124138571D01*
X171597142Y-124138571D01*
X171097142Y-124995714D02*
X171025714Y-125067142D01*
X171097142Y-125138571D01*
X171168571Y-125067142D01*
X171097142Y-124995714D01*
X171097142Y-125138571D01*
X169740000Y-125138571D02*
X169740000Y-123638571D01*
X169740000Y-125067142D02*
X169882857Y-125138571D01*
X170168571Y-125138571D01*
X170311428Y-125067142D01*
X170382857Y-124995714D01*
X170454285Y-124852857D01*
X170454285Y-124424285D01*
X170382857Y-124281428D01*
X170311428Y-124210000D01*
X170168571Y-124138571D01*
X169882857Y-124138571D01*
X169740000Y-124210000D01*
X168454285Y-125067142D02*
X168597142Y-125138571D01*
X168882857Y-125138571D01*
X169025714Y-125067142D01*
X169097142Y-124924285D01*
X169097142Y-124352857D01*
X169025714Y-124210000D01*
X168882857Y-124138571D01*
X168597142Y-124138571D01*
X168454285Y-124210000D01*
X168382857Y-124352857D01*
X168382857Y-124495714D01*
X169097142Y-124638571D01*
X167811428Y-125067142D02*
X167668571Y-125138571D01*
X167382857Y-125138571D01*
X167240000Y-125067142D01*
X167168571Y-124924285D01*
X167168571Y-124852857D01*
X167240000Y-124710000D01*
X167382857Y-124638571D01*
X167597142Y-124638571D01*
X167740000Y-124567142D01*
X167811428Y-124424285D01*
X167811428Y-124352857D01*
X167740000Y-124210000D01*
X167597142Y-124138571D01*
X167382857Y-124138571D01*
X167240000Y-124210000D01*
X166525714Y-125138571D02*
X166525714Y-124138571D01*
X166525714Y-123638571D02*
X166597142Y-123710000D01*
X166525714Y-123781428D01*
X166454285Y-123710000D01*
X166525714Y-123638571D01*
X166525714Y-123781428D01*
X165168571Y-124138571D02*
X165168571Y-125352857D01*
X165240000Y-125495714D01*
X165311428Y-125567142D01*
X165454285Y-125638571D01*
X165668571Y-125638571D01*
X165811428Y-125567142D01*
X165168571Y-125067142D02*
X165311428Y-125138571D01*
X165597142Y-125138571D01*
X165740000Y-125067142D01*
X165811428Y-124995714D01*
X165882857Y-124852857D01*
X165882857Y-124424285D01*
X165811428Y-124281428D01*
X165740000Y-124210000D01*
X165597142Y-124138571D01*
X165311428Y-124138571D01*
X165168571Y-124210000D01*
X164454285Y-124138571D02*
X164454285Y-125138571D01*
X164454285Y-124281428D02*
X164382857Y-124210000D01*
X164240000Y-124138571D01*
X164025714Y-124138571D01*
X163882857Y-124210000D01*
X163811428Y-124352857D01*
X163811428Y-125138571D01*
X154430952Y-124792571D02*
X153592857Y-124792571D01*
X154011904Y-125211619D02*
X154011904Y-124373523D01*
X152597619Y-124478285D02*
X152597619Y-125211619D01*
X152859523Y-124059238D02*
X153121428Y-124844952D01*
X152440476Y-124844952D01*
X151550000Y-124478285D02*
X151550000Y-125211619D01*
X151811904Y-124059238D02*
X152073809Y-124844952D01*
X151392857Y-124844952D01*
X149821428Y-125630666D02*
X149873809Y-125578285D01*
X149978571Y-125421142D01*
X150030952Y-125316380D01*
X150083333Y-125159238D01*
X150135714Y-124897333D01*
X150135714Y-124687809D01*
X150083333Y-124425904D01*
X150030952Y-124268761D01*
X149978571Y-124164000D01*
X149873809Y-124006857D01*
X149821428Y-123954476D01*
X149192857Y-124111619D02*
X149088095Y-124111619D01*
X148983333Y-124164000D01*
X148930952Y-124216380D01*
X148878571Y-124321142D01*
X148826190Y-124530666D01*
X148826190Y-124792571D01*
X148878571Y-125002095D01*
X148930952Y-125106857D01*
X148983333Y-125159238D01*
X149088095Y-125211619D01*
X149192857Y-125211619D01*
X149297619Y-125159238D01*
X149350000Y-125106857D01*
X149402380Y-125002095D01*
X149454761Y-124792571D01*
X149454761Y-124530666D01*
X149402380Y-124321142D01*
X149350000Y-124216380D01*
X149297619Y-124164000D01*
X149192857Y-124111619D01*
X148459523Y-125630666D02*
X148407142Y-125578285D01*
X148302380Y-125421142D01*
X148250000Y-125316380D01*
X148197619Y-125159238D01*
X148145238Y-124897333D01*
X148145238Y-124687809D01*
X148197619Y-124425904D01*
X148250000Y-124268761D01*
X148302380Y-124164000D01*
X148407142Y-124006857D01*
X148459523Y-123954476D01*
X147726190Y-124111619D02*
X146992857Y-124111619D01*
X147464285Y-125211619D01*
X146521428Y-125211619D02*
X146311904Y-125211619D01*
X146207142Y-125159238D01*
X146154761Y-125106857D01*
X146050000Y-124949714D01*
X145997619Y-124740190D01*
X145997619Y-124321142D01*
X146050000Y-124216380D01*
X146102380Y-124164000D01*
X146207142Y-124111619D01*
X146416666Y-124111619D01*
X146521428Y-124164000D01*
X146573809Y-124216380D01*
X146626190Y-124321142D01*
X146626190Y-124583047D01*
X146573809Y-124687809D01*
X146521428Y-124740190D01*
X146416666Y-124792571D01*
X146207142Y-124792571D01*
X146102380Y-124740190D01*
X146050000Y-124687809D01*
X145997619Y-124583047D01*
X145054761Y-124111619D02*
X145264285Y-124111619D01*
X145369047Y-124164000D01*
X145421428Y-124216380D01*
X145526190Y-124373523D01*
X145578571Y-124583047D01*
X145578571Y-125002095D01*
X145526190Y-125106857D01*
X145473809Y-125159238D01*
X145369047Y-125211619D01*
X145159523Y-125211619D01*
X145054761Y-125159238D01*
X145002380Y-125106857D01*
X144950000Y-125002095D01*
X144950000Y-124740190D01*
X145002380Y-124635428D01*
X145054761Y-124583047D01*
X145159523Y-124530666D01*
X145369047Y-124530666D01*
X145473809Y-124583047D01*
X145526190Y-124635428D01*
X145578571Y-124740190D01*
X144269047Y-124111619D02*
X144164285Y-124111619D01*
X144059523Y-124164000D01*
X144007142Y-124216380D01*
X143954761Y-124321142D01*
X143902380Y-124530666D01*
X143902380Y-124792571D01*
X143954761Y-125002095D01*
X144007142Y-125106857D01*
X144059523Y-125159238D01*
X144164285Y-125211619D01*
X144269047Y-125211619D01*
X144373809Y-125159238D01*
X144426190Y-125106857D01*
X144478571Y-125002095D01*
X144530952Y-124792571D01*
X144530952Y-124530666D01*
X144478571Y-124321142D01*
X144426190Y-124216380D01*
X144373809Y-124164000D01*
X144269047Y-124111619D01*
X142959523Y-124111619D02*
X143169047Y-124111619D01*
X143273809Y-124164000D01*
X143326190Y-124216380D01*
X143430952Y-124373523D01*
X143483333Y-124583047D01*
X143483333Y-125002095D01*
X143430952Y-125106857D01*
X143378571Y-125159238D01*
X143273809Y-125211619D01*
X143064285Y-125211619D01*
X142959523Y-125159238D01*
X142907142Y-125106857D01*
X142854761Y-125002095D01*
X142854761Y-124740190D01*
X142907142Y-124635428D01*
X142959523Y-124583047D01*
X143064285Y-124530666D01*
X143273809Y-124530666D01*
X143378571Y-124583047D01*
X143430952Y-124635428D01*
X143483333Y-124740190D01*
X141911904Y-124478285D02*
X141911904Y-125211619D01*
X142173809Y-124059238D02*
X142435714Y-124844952D01*
X141754761Y-124844952D01*
X140864285Y-124478285D02*
X140864285Y-125211619D01*
X141126190Y-124059238D02*
X141388095Y-124844952D01*
X140707142Y-124844952D01*
X140235714Y-125211619D02*
X140026190Y-125211619D01*
X139921428Y-125159238D01*
X139869047Y-125106857D01*
X139764285Y-124949714D01*
X139711904Y-124740190D01*
X139711904Y-124321142D01*
X139764285Y-124216380D01*
X139816666Y-124164000D01*
X139921428Y-124111619D01*
X140130952Y-124111619D01*
X140235714Y-124164000D01*
X140288095Y-124216380D01*
X140340476Y-124321142D01*
X140340476Y-124583047D01*
X140288095Y-124687809D01*
X140235714Y-124740190D01*
X140130952Y-124792571D01*
X139921428Y-124792571D01*
X139816666Y-124740190D01*
X139764285Y-124687809D01*
X139711904Y-124583047D01*
X139030952Y-124111619D02*
X138926190Y-124111619D01*
X138821428Y-124164000D01*
X138769047Y-124216380D01*
X138716666Y-124321142D01*
X138664285Y-124530666D01*
X138664285Y-124792571D01*
X138716666Y-125002095D01*
X138769047Y-125106857D01*
X138821428Y-125159238D01*
X138926190Y-125211619D01*
X139030952Y-125211619D01*
X139135714Y-125159238D01*
X139188095Y-125106857D01*
X139240476Y-125002095D01*
X139292857Y-124792571D01*
X139292857Y-124530666D01*
X139240476Y-124321142D01*
X139188095Y-124216380D01*
X139135714Y-124164000D01*
X139030952Y-124111619D01*
X137721428Y-124478285D02*
X137721428Y-125211619D01*
X137983333Y-124059238D02*
X138245238Y-124844952D01*
X137564285Y-124844952D01*
X191425714Y-105005714D02*
X191425714Y-105862857D01*
X191473333Y-105958095D01*
X191568571Y-106005714D01*
X191616190Y-106005714D01*
X191425714Y-104672380D02*
X191473333Y-104720000D01*
X191425714Y-104767619D01*
X191378095Y-104720000D01*
X191425714Y-104672380D01*
X191425714Y-104767619D01*
X190520952Y-105672380D02*
X190520952Y-105148571D01*
X190568571Y-105053333D01*
X190663809Y-105005714D01*
X190854285Y-105005714D01*
X190949523Y-105053333D01*
X190520952Y-105624761D02*
X190616190Y-105672380D01*
X190854285Y-105672380D01*
X190949523Y-105624761D01*
X190997142Y-105529523D01*
X190997142Y-105434285D01*
X190949523Y-105339047D01*
X190854285Y-105291428D01*
X190616190Y-105291428D01*
X190520952Y-105243809D01*
X190044761Y-105672380D02*
X190044761Y-105005714D01*
X190044761Y-105100952D02*
X189997142Y-105053333D01*
X189901904Y-105005714D01*
X189759047Y-105005714D01*
X189663809Y-105053333D01*
X189616190Y-105148571D01*
X189616190Y-105672380D01*
X189616190Y-105148571D02*
X189568571Y-105053333D01*
X189473333Y-105005714D01*
X189330476Y-105005714D01*
X189235238Y-105053333D01*
X189187619Y-105148571D01*
X189187619Y-105672380D01*
X188330476Y-105624761D02*
X188425714Y-105672380D01*
X188616190Y-105672380D01*
X188711428Y-105624761D01*
X188759047Y-105529523D01*
X188759047Y-105148571D01*
X188711428Y-105053333D01*
X188616190Y-105005714D01*
X188425714Y-105005714D01*
X188330476Y-105053333D01*
X188282857Y-105148571D01*
X188282857Y-105243809D01*
X188759047Y-105339047D01*
X187901904Y-105624761D02*
X187806666Y-105672380D01*
X187616190Y-105672380D01*
X187520952Y-105624761D01*
X187473333Y-105529523D01*
X187473333Y-105481904D01*
X187520952Y-105386666D01*
X187616190Y-105339047D01*
X187759047Y-105339047D01*
X187854285Y-105291428D01*
X187901904Y-105196190D01*
X187901904Y-105148571D01*
X187854285Y-105053333D01*
X187759047Y-105005714D01*
X187616190Y-105005714D01*
X187520952Y-105053333D01*
X187044761Y-105672380D02*
X187044761Y-105005714D01*
X187044761Y-105100952D02*
X186997142Y-105053333D01*
X186901904Y-105005714D01*
X186759047Y-105005714D01*
X186663809Y-105053333D01*
X186616190Y-105148571D01*
X186616190Y-105672380D01*
X186616190Y-105148571D02*
X186568571Y-105053333D01*
X186473333Y-105005714D01*
X186330476Y-105005714D01*
X186235238Y-105053333D01*
X186187619Y-105148571D01*
X186187619Y-105672380D01*
X185711428Y-105672380D02*
X185711428Y-105005714D01*
X185711428Y-104672380D02*
X185759047Y-104720000D01*
X185711428Y-104767619D01*
X185663809Y-104720000D01*
X185711428Y-104672380D01*
X185711428Y-104767619D01*
X185092380Y-105672380D02*
X185187619Y-105624761D01*
X185235238Y-105529523D01*
X185235238Y-104672380D01*
X184568571Y-105672380D02*
X184663809Y-105624761D01*
X184711428Y-105529523D01*
X184711428Y-104672380D01*
X183806666Y-105624761D02*
X183901904Y-105672380D01*
X184092380Y-105672380D01*
X184187619Y-105624761D01*
X184235238Y-105529523D01*
X184235238Y-105148571D01*
X184187619Y-105053333D01*
X184092380Y-105005714D01*
X183901904Y-105005714D01*
X183806666Y-105053333D01*
X183759047Y-105148571D01*
X183759047Y-105243809D01*
X184235238Y-105339047D01*
X183330476Y-105672380D02*
X183330476Y-105005714D01*
X183330476Y-105196190D02*
X183282857Y-105100952D01*
X183235238Y-105053333D01*
X183140000Y-105005714D01*
X183044761Y-105005714D01*
X182711428Y-105577142D02*
X182663809Y-105624761D01*
X182711428Y-105672380D01*
X182759047Y-105624761D01*
X182711428Y-105577142D01*
X182711428Y-105672380D01*
X181806666Y-105672380D02*
X181806666Y-104672380D01*
X181806666Y-105624761D02*
X181901904Y-105672380D01*
X182092380Y-105672380D01*
X182187619Y-105624761D01*
X182235238Y-105577142D01*
X182282857Y-105481904D01*
X182282857Y-105196190D01*
X182235238Y-105100952D01*
X182187619Y-105053333D01*
X182092380Y-105005714D01*
X181901904Y-105005714D01*
X181806666Y-105053333D01*
X180949523Y-105624761D02*
X181044761Y-105672380D01*
X181235238Y-105672380D01*
X181330476Y-105624761D01*
X181378095Y-105529523D01*
X181378095Y-105148571D01*
X181330476Y-105053333D01*
X181235238Y-105005714D01*
X181044761Y-105005714D01*
X180949523Y-105053333D01*
X180901904Y-105148571D01*
X180901904Y-105243809D01*
X181378095Y-105339047D01*
X180520952Y-105624761D02*
X180425714Y-105672380D01*
X180235238Y-105672380D01*
X180140000Y-105624761D01*
X180092380Y-105529523D01*
X180092380Y-105481904D01*
X180140000Y-105386666D01*
X180235238Y-105339047D01*
X180378095Y-105339047D01*
X180473333Y-105291428D01*
X180520952Y-105196190D01*
X180520952Y-105148571D01*
X180473333Y-105053333D01*
X180378095Y-105005714D01*
X180235238Y-105005714D01*
X180140000Y-105053333D01*
X179663809Y-105672380D02*
X179663809Y-105005714D01*
X179663809Y-104672380D02*
X179711428Y-104720000D01*
X179663809Y-104767619D01*
X179616190Y-104720000D01*
X179663809Y-104672380D01*
X179663809Y-104767619D01*
X178759047Y-105005714D02*
X178759047Y-105815238D01*
X178806666Y-105910476D01*
X178854285Y-105958095D01*
X178949523Y-106005714D01*
X179092380Y-106005714D01*
X179187619Y-105958095D01*
X178759047Y-105624761D02*
X178854285Y-105672380D01*
X179044761Y-105672380D01*
X179140000Y-105624761D01*
X179187619Y-105577142D01*
X179235238Y-105481904D01*
X179235238Y-105196190D01*
X179187619Y-105100952D01*
X179140000Y-105053333D01*
X179044761Y-105005714D01*
X178854285Y-105005714D01*
X178759047Y-105053333D01*
X178282857Y-105005714D02*
X178282857Y-105672380D01*
X178282857Y-105100952D02*
X178235238Y-105053333D01*
X178140000Y-105005714D01*
X177997142Y-105005714D01*
X177901904Y-105053333D01*
X177854285Y-105148571D01*
X177854285Y-105672380D01*
D13*
G04 #@! TO.C,P1*
X166160000Y-72570000D02*
X164310000Y-72570000D01*
X158660000Y-72570000D02*
X160510000Y-72570000D01*
D14*
X161160000Y-78770000D02*
G75*
G03X161160000Y-78770000I-100000J0D01*
G01*
D13*
X158660000Y-75270000D02*
X158660000Y-72570000D01*
X166160000Y-75270000D02*
X166160000Y-72570000D01*
D10*
G04 #@! TO.C,U1*
X187357000Y-85185000D02*
X187357000Y-84610000D01*
X197707000Y-85185000D02*
X197707000Y-84510000D01*
X197707000Y-74835000D02*
X197707000Y-75510000D01*
X187357000Y-74835000D02*
X187357000Y-75510000D01*
X187357000Y-85185000D02*
X188032000Y-85185000D01*
X187357000Y-74835000D02*
X188032000Y-74835000D01*
X197707000Y-74835000D02*
X197032000Y-74835000D01*
X197707000Y-85185000D02*
X197032000Y-85185000D01*
X187357000Y-84610000D02*
X186082000Y-84610000D01*
D15*
G04 #@! TO.C,F1*
X170856000Y-72844000D02*
X168856000Y-72844000D01*
X168856000Y-74984000D02*
X170856000Y-74984000D01*
D10*
G04 #@! TO.C,Y1*
X201746000Y-79856000D02*
X202746000Y-79856000D01*
X201646000Y-79956000D02*
X201646000Y-79556000D01*
X204246000Y-79956000D02*
X204246000Y-79556000D01*
D15*
G04 #@! TO.C,D1*
X197110000Y-101020000D02*
X197110000Y-99620000D01*
X197110000Y-99620000D02*
X199910000Y-99620000D01*
X197110000Y-101020000D02*
X199910000Y-101020000D01*
G04 #@! TO.C,D2*
X197082000Y-105856000D02*
X197082000Y-104456000D01*
X197082000Y-104456000D02*
X199882000Y-104456000D01*
X197082000Y-105856000D02*
X199882000Y-105856000D01*
G04 #@! TO.C,D3*
X197120000Y-110570000D02*
X197120000Y-109170000D01*
X197120000Y-109170000D02*
X199920000Y-109170000D01*
X197120000Y-110570000D02*
X199920000Y-110570000D01*
G04 #@! TO.C,D4*
X179048000Y-121604000D02*
X179048000Y-120204000D01*
X179048000Y-120204000D02*
X181848000Y-120204000D01*
X179048000Y-121604000D02*
X181848000Y-121604000D01*
G04 #@! TO.C,D5*
X148822000Y-121858000D02*
X148822000Y-120458000D01*
X148822000Y-120458000D02*
X151622000Y-120458000D01*
X148822000Y-121858000D02*
X151622000Y-121858000D01*
G04 #@! TO.C,R1*
X124556000Y-101210000D02*
X125756000Y-101210000D01*
X125756000Y-99450000D02*
X124556000Y-99450000D01*
G04 #@! TO.C,R2*
X124622000Y-106036000D02*
X125822000Y-106036000D01*
X125822000Y-104276000D02*
X124622000Y-104276000D01*
G04 #@! TO.C,R3*
X124622000Y-110862000D02*
X125822000Y-110862000D01*
X125822000Y-109102000D02*
X124622000Y-109102000D01*
G04 #@! TO.C,R4*
X169834000Y-121784000D02*
X171034000Y-121784000D01*
X171034000Y-120024000D02*
X169834000Y-120024000D01*
G04 #@! TO.C,R5*
X139862000Y-122038000D02*
X141062000Y-122038000D01*
X141062000Y-120278000D02*
X139862000Y-120278000D01*
G04 #@! TO.C,R8*
X181264000Y-79874000D02*
X182464000Y-79874000D01*
X182464000Y-78114000D02*
X181264000Y-78114000D01*
G04 #@! TO.C,R9*
X181264000Y-82414000D02*
X182464000Y-82414000D01*
X182464000Y-80654000D02*
X181264000Y-80654000D01*
G04 #@! TO.C,R10*
X203800000Y-74304000D02*
X202600000Y-74304000D01*
X202600000Y-76064000D02*
X203800000Y-76064000D01*
G04 #@! TO.C,C1*
X203112000Y-85590000D02*
X203112000Y-84590000D01*
X204812000Y-84590000D02*
X204812000Y-85590000D01*
G04 #@! TO.C,C2*
X200826000Y-85590000D02*
X200826000Y-84590000D01*
X202526000Y-84590000D02*
X202526000Y-85590000D01*
G04 #@! TO.C,C3*
X181364000Y-82970000D02*
X182364000Y-82970000D01*
X182364000Y-84670000D02*
X181364000Y-84670000D01*
G04 #@! TO.C,C4*
X136267000Y-72764000D02*
X133017000Y-72764000D01*
X136267000Y-75064000D02*
X133017000Y-75064000D01*
X136267000Y-72764000D02*
X136267000Y-75064000D01*
G04 #@! TO.C,C5*
X136362000Y-75812000D02*
X133112000Y-75812000D01*
X136362000Y-78112000D02*
X133112000Y-78112000D01*
X136362000Y-75812000D02*
X136362000Y-78112000D01*
G04 #@! TO.C,C0*
X196886000Y-94876000D02*
X200136000Y-94876000D01*
X196886000Y-92576000D02*
X200136000Y-92576000D01*
X196886000Y-94876000D02*
X196886000Y-92576000D01*
G04 #@! TO.C,D6*
X177568000Y-72960000D02*
X177568000Y-74360000D01*
X177568000Y-74360000D02*
X174768000Y-74360000D01*
X177568000Y-72960000D02*
X174768000Y-72960000D01*
G04 #@! TO.C,D7*
X177568000Y-75500000D02*
X177568000Y-76900000D01*
X177568000Y-76900000D02*
X174768000Y-76900000D01*
X177568000Y-75500000D02*
X174768000Y-75500000D01*
G04 #@! TO.C,R6*
X181264000Y-74540000D02*
X182464000Y-74540000D01*
X182464000Y-72780000D02*
X181264000Y-72780000D01*
G04 #@! TO.C,R7*
X181264000Y-77080000D02*
X182464000Y-77080000D01*
X182464000Y-75320000D02*
X181264000Y-75320000D01*
G04 #@! TO.C,R11*
X133687078Y-79046000D02*
X133169922Y-79046000D01*
X133687078Y-80466000D02*
X133169922Y-80466000D01*
G04 #@! TO.C,R12*
X125988578Y-74370000D02*
X125471422Y-74370000D01*
X125988578Y-72950000D02*
X125471422Y-72950000D01*
G04 #@! TO.C,R13*
X126067078Y-75490000D02*
X125549922Y-75490000D01*
X126067078Y-76910000D02*
X125549922Y-76910000D01*
G04 #@! TO.C,R14*
X126067078Y-79450000D02*
X125549922Y-79450000D01*
X126067078Y-78030000D02*
X125549922Y-78030000D01*
G04 #@! TO.C,R15*
X125988578Y-80570000D02*
X125471422Y-80570000D01*
X125988578Y-81990000D02*
X125471422Y-81990000D01*
D16*
G04 #@! TO.C,G\002A\002A\002A*
G36*
X148629002Y-106144837D02*
X148767623Y-106123154D01*
X148842804Y-106101520D01*
X149021301Y-106021706D01*
X149179393Y-105916723D01*
X149314834Y-105788830D01*
X149425380Y-105640290D01*
X149508785Y-105473364D01*
X149532474Y-105406899D01*
X149561757Y-105282371D01*
X149577405Y-105142347D01*
X149578798Y-105000603D01*
X149565316Y-104870914D01*
X149558181Y-104836001D01*
X149501683Y-104665886D01*
X149416371Y-104507120D01*
X149306093Y-104363581D01*
X149174695Y-104239146D01*
X149026027Y-104137692D01*
X148863934Y-104063097D01*
X148760933Y-104032632D01*
X148657815Y-104016252D01*
X148537021Y-104009193D01*
X148412707Y-104011437D01*
X148299028Y-104022967D01*
X148246179Y-104033258D01*
X148081811Y-104089799D01*
X147926000Y-104175846D01*
X147783886Y-104287214D01*
X147660606Y-104419715D01*
X147561301Y-104569161D01*
X147541451Y-104607401D01*
X147480592Y-104760168D01*
X147446278Y-104920270D01*
X147436482Y-105090000D01*
X147453729Y-105277374D01*
X147478991Y-105370303D01*
X147880399Y-105370303D01*
X147882483Y-105342661D01*
X147890381Y-105312792D01*
X147906569Y-105276094D01*
X147933519Y-105227965D01*
X147973705Y-105163805D01*
X148029602Y-105079010D01*
X148066666Y-105023797D01*
X148123805Y-104938670D01*
X148173851Y-104863491D01*
X148213935Y-104802625D01*
X148241186Y-104760436D01*
X148252733Y-104741285D01*
X148252933Y-104740679D01*
X148262609Y-104720071D01*
X148287500Y-104681650D01*
X148321397Y-104633834D01*
X148358092Y-104585041D01*
X148391379Y-104543687D01*
X148415049Y-104518192D01*
X148419510Y-104514797D01*
X148476186Y-104498903D01*
X148537722Y-104506821D01*
X148568748Y-104522188D01*
X148589655Y-104544189D01*
X148625071Y-104589361D01*
X148671119Y-104652434D01*
X148723922Y-104728137D01*
X148764868Y-104788888D01*
X148860483Y-104933013D01*
X148938682Y-105051817D01*
X149000817Y-105148168D01*
X149048239Y-105224936D01*
X149082300Y-105284990D01*
X149104352Y-105331200D01*
X149115747Y-105366434D01*
X149117836Y-105393562D01*
X149111971Y-105415453D01*
X149099504Y-105434976D01*
X149081786Y-105455001D01*
X149079714Y-105457209D01*
X149037785Y-105483598D01*
X148982836Y-105496755D01*
X148930281Y-105494371D01*
X148904772Y-105483441D01*
X148891281Y-105466614D01*
X148862772Y-105426639D01*
X148822744Y-105368726D01*
X148774699Y-105298081D01*
X148722138Y-105219912D01*
X148668561Y-105139427D01*
X148617468Y-105061834D01*
X148572361Y-104992340D01*
X148536740Y-104936153D01*
X148535011Y-104933367D01*
X148511714Y-104901360D01*
X148494509Y-104887144D01*
X148493842Y-104887099D01*
X148481247Y-104900741D01*
X148453451Y-104938565D01*
X148413476Y-104996204D01*
X148364345Y-105069294D01*
X148309080Y-105153469D01*
X148303733Y-105161710D01*
X148246536Y-105249170D01*
X148193809Y-105328332D01*
X148148970Y-105394182D01*
X148115437Y-105441701D01*
X148096626Y-105465873D01*
X148096300Y-105466211D01*
X148053534Y-105489144D01*
X147996636Y-105495674D01*
X147941207Y-105485619D01*
X147911366Y-105468376D01*
X147886327Y-105423270D01*
X147880399Y-105370303D01*
X147478991Y-105370303D01*
X147501852Y-105454395D01*
X147578696Y-105618198D01*
X147682110Y-105765917D01*
X147809939Y-105894687D01*
X147960030Y-106001642D01*
X148130231Y-106083918D01*
X148202133Y-106108865D01*
X148334109Y-106137832D01*
X148480448Y-106149776D01*
X148629002Y-106144837D01*
X148629002Y-106144837D01*
G37*
X148629002Y-106144837D02*
X148767623Y-106123154D01*
X148842804Y-106101520D01*
X149021301Y-106021706D01*
X149179393Y-105916723D01*
X149314834Y-105788830D01*
X149425380Y-105640290D01*
X149508785Y-105473364D01*
X149532474Y-105406899D01*
X149561757Y-105282371D01*
X149577405Y-105142347D01*
X149578798Y-105000603D01*
X149565316Y-104870914D01*
X149558181Y-104836001D01*
X149501683Y-104665886D01*
X149416371Y-104507120D01*
X149306093Y-104363581D01*
X149174695Y-104239146D01*
X149026027Y-104137692D01*
X148863934Y-104063097D01*
X148760933Y-104032632D01*
X148657815Y-104016252D01*
X148537021Y-104009193D01*
X148412707Y-104011437D01*
X148299028Y-104022967D01*
X148246179Y-104033258D01*
X148081811Y-104089799D01*
X147926000Y-104175846D01*
X147783886Y-104287214D01*
X147660606Y-104419715D01*
X147561301Y-104569161D01*
X147541451Y-104607401D01*
X147480592Y-104760168D01*
X147446278Y-104920270D01*
X147436482Y-105090000D01*
X147453729Y-105277374D01*
X147478991Y-105370303D01*
X147880399Y-105370303D01*
X147882483Y-105342661D01*
X147890381Y-105312792D01*
X147906569Y-105276094D01*
X147933519Y-105227965D01*
X147973705Y-105163805D01*
X148029602Y-105079010D01*
X148066666Y-105023797D01*
X148123805Y-104938670D01*
X148173851Y-104863491D01*
X148213935Y-104802625D01*
X148241186Y-104760436D01*
X148252733Y-104741285D01*
X148252933Y-104740679D01*
X148262609Y-104720071D01*
X148287500Y-104681650D01*
X148321397Y-104633834D01*
X148358092Y-104585041D01*
X148391379Y-104543687D01*
X148415049Y-104518192D01*
X148419510Y-104514797D01*
X148476186Y-104498903D01*
X148537722Y-104506821D01*
X148568748Y-104522188D01*
X148589655Y-104544189D01*
X148625071Y-104589361D01*
X148671119Y-104652434D01*
X148723922Y-104728137D01*
X148764868Y-104788888D01*
X148860483Y-104933013D01*
X148938682Y-105051817D01*
X149000817Y-105148168D01*
X149048239Y-105224936D01*
X149082300Y-105284990D01*
X149104352Y-105331200D01*
X149115747Y-105366434D01*
X149117836Y-105393562D01*
X149111971Y-105415453D01*
X149099504Y-105434976D01*
X149081786Y-105455001D01*
X149079714Y-105457209D01*
X149037785Y-105483598D01*
X148982836Y-105496755D01*
X148930281Y-105494371D01*
X148904772Y-105483441D01*
X148891281Y-105466614D01*
X148862772Y-105426639D01*
X148822744Y-105368726D01*
X148774699Y-105298081D01*
X148722138Y-105219912D01*
X148668561Y-105139427D01*
X148617468Y-105061834D01*
X148572361Y-104992340D01*
X148536740Y-104936153D01*
X148535011Y-104933367D01*
X148511714Y-104901360D01*
X148494509Y-104887144D01*
X148493842Y-104887099D01*
X148481247Y-104900741D01*
X148453451Y-104938565D01*
X148413476Y-104996204D01*
X148364345Y-105069294D01*
X148309080Y-105153469D01*
X148303733Y-105161710D01*
X148246536Y-105249170D01*
X148193809Y-105328332D01*
X148148970Y-105394182D01*
X148115437Y-105441701D01*
X148096626Y-105465873D01*
X148096300Y-105466211D01*
X148053534Y-105489144D01*
X147996636Y-105495674D01*
X147941207Y-105485619D01*
X147911366Y-105468376D01*
X147886327Y-105423270D01*
X147880399Y-105370303D01*
X147478991Y-105370303D01*
X147501852Y-105454395D01*
X147578696Y-105618198D01*
X147682110Y-105765917D01*
X147809939Y-105894687D01*
X147960030Y-106001642D01*
X148130231Y-106083918D01*
X148202133Y-106108865D01*
X148334109Y-106137832D01*
X148480448Y-106149776D01*
X148629002Y-106144837D01*
G36*
X147014837Y-104950998D02*
X146993154Y-104812377D01*
X146971520Y-104737196D01*
X146891706Y-104558699D01*
X146786723Y-104400607D01*
X146658830Y-104265166D01*
X146510290Y-104154620D01*
X146343364Y-104071215D01*
X146276899Y-104047526D01*
X146152371Y-104018243D01*
X146012347Y-104002595D01*
X145870603Y-104001202D01*
X145740914Y-104014684D01*
X145706001Y-104021819D01*
X145535886Y-104078317D01*
X145377120Y-104163629D01*
X145233581Y-104273907D01*
X145109146Y-104405305D01*
X145007692Y-104553973D01*
X144933097Y-104716066D01*
X144902632Y-104819067D01*
X144886252Y-104922185D01*
X144879193Y-105042979D01*
X144881437Y-105167293D01*
X144892967Y-105280972D01*
X144903258Y-105333821D01*
X144959799Y-105498189D01*
X145045846Y-105654000D01*
X145157214Y-105796114D01*
X145289715Y-105919394D01*
X145439161Y-106018699D01*
X145477401Y-106038549D01*
X145630168Y-106099408D01*
X145790270Y-106133722D01*
X145960000Y-106143518D01*
X146147374Y-106126271D01*
X146240303Y-106101009D01*
X146240303Y-105699601D01*
X146212661Y-105697517D01*
X146182792Y-105689619D01*
X146146094Y-105673431D01*
X146097965Y-105646481D01*
X146033805Y-105606295D01*
X145949010Y-105550398D01*
X145893797Y-105513334D01*
X145808670Y-105456195D01*
X145733491Y-105406149D01*
X145672625Y-105366065D01*
X145630436Y-105338814D01*
X145611285Y-105327267D01*
X145610679Y-105327067D01*
X145590071Y-105317391D01*
X145551650Y-105292500D01*
X145503834Y-105258603D01*
X145455041Y-105221908D01*
X145413687Y-105188621D01*
X145388192Y-105164951D01*
X145384797Y-105160490D01*
X145368903Y-105103814D01*
X145376821Y-105042278D01*
X145392188Y-105011252D01*
X145414189Y-104990345D01*
X145459361Y-104954929D01*
X145522434Y-104908881D01*
X145598137Y-104856078D01*
X145658888Y-104815132D01*
X145803013Y-104719517D01*
X145921817Y-104641318D01*
X146018168Y-104579183D01*
X146094936Y-104531761D01*
X146154990Y-104497700D01*
X146201200Y-104475648D01*
X146236434Y-104464253D01*
X146263562Y-104462164D01*
X146285453Y-104468029D01*
X146304976Y-104480496D01*
X146325001Y-104498214D01*
X146327209Y-104500286D01*
X146353598Y-104542215D01*
X146366755Y-104597164D01*
X146364371Y-104649719D01*
X146353441Y-104675228D01*
X146336614Y-104688719D01*
X146296639Y-104717228D01*
X146238726Y-104757256D01*
X146168081Y-104805301D01*
X146089912Y-104857862D01*
X146009427Y-104911439D01*
X145931834Y-104962532D01*
X145862340Y-105007639D01*
X145806153Y-105043260D01*
X145803367Y-105044989D01*
X145771360Y-105068286D01*
X145757144Y-105085491D01*
X145757099Y-105086158D01*
X145770741Y-105098753D01*
X145808565Y-105126549D01*
X145866204Y-105166524D01*
X145939294Y-105215655D01*
X146023469Y-105270920D01*
X146031710Y-105276267D01*
X146119170Y-105333464D01*
X146198332Y-105386191D01*
X146264182Y-105431030D01*
X146311701Y-105464563D01*
X146335873Y-105483374D01*
X146336211Y-105483700D01*
X146359144Y-105526466D01*
X146365674Y-105583364D01*
X146355619Y-105638793D01*
X146338376Y-105668634D01*
X146293270Y-105693673D01*
X146240303Y-105699601D01*
X146240303Y-106101009D01*
X146324395Y-106078148D01*
X146488198Y-106001304D01*
X146635917Y-105897890D01*
X146764687Y-105770061D01*
X146871642Y-105619970D01*
X146953918Y-105449769D01*
X146978865Y-105377867D01*
X147007832Y-105245891D01*
X147019776Y-105099552D01*
X147014837Y-104950998D01*
X147014837Y-104950998D01*
G37*
X147014837Y-104950998D02*
X146993154Y-104812377D01*
X146971520Y-104737196D01*
X146891706Y-104558699D01*
X146786723Y-104400607D01*
X146658830Y-104265166D01*
X146510290Y-104154620D01*
X146343364Y-104071215D01*
X146276899Y-104047526D01*
X146152371Y-104018243D01*
X146012347Y-104002595D01*
X145870603Y-104001202D01*
X145740914Y-104014684D01*
X145706001Y-104021819D01*
X145535886Y-104078317D01*
X145377120Y-104163629D01*
X145233581Y-104273907D01*
X145109146Y-104405305D01*
X145007692Y-104553973D01*
X144933097Y-104716066D01*
X144902632Y-104819067D01*
X144886252Y-104922185D01*
X144879193Y-105042979D01*
X144881437Y-105167293D01*
X144892967Y-105280972D01*
X144903258Y-105333821D01*
X144959799Y-105498189D01*
X145045846Y-105654000D01*
X145157214Y-105796114D01*
X145289715Y-105919394D01*
X145439161Y-106018699D01*
X145477401Y-106038549D01*
X145630168Y-106099408D01*
X145790270Y-106133722D01*
X145960000Y-106143518D01*
X146147374Y-106126271D01*
X146240303Y-106101009D01*
X146240303Y-105699601D01*
X146212661Y-105697517D01*
X146182792Y-105689619D01*
X146146094Y-105673431D01*
X146097965Y-105646481D01*
X146033805Y-105606295D01*
X145949010Y-105550398D01*
X145893797Y-105513334D01*
X145808670Y-105456195D01*
X145733491Y-105406149D01*
X145672625Y-105366065D01*
X145630436Y-105338814D01*
X145611285Y-105327267D01*
X145610679Y-105327067D01*
X145590071Y-105317391D01*
X145551650Y-105292500D01*
X145503834Y-105258603D01*
X145455041Y-105221908D01*
X145413687Y-105188621D01*
X145388192Y-105164951D01*
X145384797Y-105160490D01*
X145368903Y-105103814D01*
X145376821Y-105042278D01*
X145392188Y-105011252D01*
X145414189Y-104990345D01*
X145459361Y-104954929D01*
X145522434Y-104908881D01*
X145598137Y-104856078D01*
X145658888Y-104815132D01*
X145803013Y-104719517D01*
X145921817Y-104641318D01*
X146018168Y-104579183D01*
X146094936Y-104531761D01*
X146154990Y-104497700D01*
X146201200Y-104475648D01*
X146236434Y-104464253D01*
X146263562Y-104462164D01*
X146285453Y-104468029D01*
X146304976Y-104480496D01*
X146325001Y-104498214D01*
X146327209Y-104500286D01*
X146353598Y-104542215D01*
X146366755Y-104597164D01*
X146364371Y-104649719D01*
X146353441Y-104675228D01*
X146336614Y-104688719D01*
X146296639Y-104717228D01*
X146238726Y-104757256D01*
X146168081Y-104805301D01*
X146089912Y-104857862D01*
X146009427Y-104911439D01*
X145931834Y-104962532D01*
X145862340Y-105007639D01*
X145806153Y-105043260D01*
X145803367Y-105044989D01*
X145771360Y-105068286D01*
X145757144Y-105085491D01*
X145757099Y-105086158D01*
X145770741Y-105098753D01*
X145808565Y-105126549D01*
X145866204Y-105166524D01*
X145939294Y-105215655D01*
X146023469Y-105270920D01*
X146031710Y-105276267D01*
X146119170Y-105333464D01*
X146198332Y-105386191D01*
X146264182Y-105431030D01*
X146311701Y-105464563D01*
X146335873Y-105483374D01*
X146336211Y-105483700D01*
X146359144Y-105526466D01*
X146365674Y-105583364D01*
X146355619Y-105638793D01*
X146338376Y-105668634D01*
X146293270Y-105693673D01*
X146240303Y-105699601D01*
X146240303Y-106101009D01*
X146324395Y-106078148D01*
X146488198Y-106001304D01*
X146635917Y-105897890D01*
X146764687Y-105770061D01*
X146871642Y-105619970D01*
X146953918Y-105449769D01*
X146978865Y-105377867D01*
X147007832Y-105245891D01*
X147019776Y-105099552D01*
X147014837Y-104950998D01*
G36*
X143310998Y-103975163D02*
X143172377Y-103996846D01*
X143097196Y-104018480D01*
X142918699Y-104098294D01*
X142760607Y-104203277D01*
X142625166Y-104331170D01*
X142514620Y-104479710D01*
X142431215Y-104646636D01*
X142407526Y-104713101D01*
X142378243Y-104837629D01*
X142362595Y-104977653D01*
X142361202Y-105119397D01*
X142374684Y-105249086D01*
X142381819Y-105283999D01*
X142438317Y-105454114D01*
X142523629Y-105612880D01*
X142633907Y-105756419D01*
X142765305Y-105880854D01*
X142913973Y-105982308D01*
X143076066Y-106056903D01*
X143179067Y-106087368D01*
X143282185Y-106103748D01*
X143402979Y-106110807D01*
X143527293Y-106108563D01*
X143640972Y-106097033D01*
X143693821Y-106086742D01*
X143858189Y-106030201D01*
X144014000Y-105944154D01*
X144156114Y-105832786D01*
X144279394Y-105700285D01*
X144378699Y-105550839D01*
X144398549Y-105512599D01*
X144459408Y-105359832D01*
X144493722Y-105199730D01*
X144503518Y-105030000D01*
X144486271Y-104842626D01*
X144461009Y-104749697D01*
X144059601Y-104749697D01*
X144057517Y-104777339D01*
X144049619Y-104807208D01*
X144033431Y-104843906D01*
X144006481Y-104892035D01*
X143966295Y-104956195D01*
X143910398Y-105040990D01*
X143873334Y-105096203D01*
X143816195Y-105181330D01*
X143766149Y-105256509D01*
X143726065Y-105317375D01*
X143698814Y-105359564D01*
X143687267Y-105378715D01*
X143687067Y-105379321D01*
X143677391Y-105399929D01*
X143652500Y-105438350D01*
X143618603Y-105486166D01*
X143581908Y-105534959D01*
X143548621Y-105576313D01*
X143524951Y-105601808D01*
X143520490Y-105605203D01*
X143463814Y-105621097D01*
X143402278Y-105613179D01*
X143371252Y-105597812D01*
X143350345Y-105575811D01*
X143314929Y-105530639D01*
X143268881Y-105467566D01*
X143216078Y-105391863D01*
X143175132Y-105331112D01*
X143079517Y-105186987D01*
X143001318Y-105068183D01*
X142939183Y-104971832D01*
X142891761Y-104895064D01*
X142857700Y-104835010D01*
X142835648Y-104788800D01*
X142824253Y-104753566D01*
X142822164Y-104726438D01*
X142828029Y-104704547D01*
X142840496Y-104685024D01*
X142858214Y-104664999D01*
X142860286Y-104662791D01*
X142902215Y-104636402D01*
X142957164Y-104623245D01*
X143009719Y-104625629D01*
X143035228Y-104636559D01*
X143048719Y-104653386D01*
X143077228Y-104693361D01*
X143117256Y-104751274D01*
X143165301Y-104821919D01*
X143217862Y-104900088D01*
X143271439Y-104980573D01*
X143322532Y-105058166D01*
X143367639Y-105127660D01*
X143403260Y-105183847D01*
X143404989Y-105186633D01*
X143428286Y-105218640D01*
X143445491Y-105232856D01*
X143446158Y-105232901D01*
X143458753Y-105219259D01*
X143486549Y-105181435D01*
X143526524Y-105123796D01*
X143575655Y-105050706D01*
X143630920Y-104966531D01*
X143636267Y-104958290D01*
X143693464Y-104870830D01*
X143746191Y-104791668D01*
X143791030Y-104725818D01*
X143824563Y-104678299D01*
X143843374Y-104654127D01*
X143843700Y-104653789D01*
X143886466Y-104630856D01*
X143943364Y-104624326D01*
X143998793Y-104634381D01*
X144028634Y-104651624D01*
X144053673Y-104696730D01*
X144059601Y-104749697D01*
X144461009Y-104749697D01*
X144438148Y-104665605D01*
X144361304Y-104501802D01*
X144257890Y-104354083D01*
X144130061Y-104225313D01*
X143979970Y-104118358D01*
X143809769Y-104036082D01*
X143737867Y-104011135D01*
X143605891Y-103982168D01*
X143459552Y-103970224D01*
X143310998Y-103975163D01*
X143310998Y-103975163D01*
G37*
X143310998Y-103975163D02*
X143172377Y-103996846D01*
X143097196Y-104018480D01*
X142918699Y-104098294D01*
X142760607Y-104203277D01*
X142625166Y-104331170D01*
X142514620Y-104479710D01*
X142431215Y-104646636D01*
X142407526Y-104713101D01*
X142378243Y-104837629D01*
X142362595Y-104977653D01*
X142361202Y-105119397D01*
X142374684Y-105249086D01*
X142381819Y-105283999D01*
X142438317Y-105454114D01*
X142523629Y-105612880D01*
X142633907Y-105756419D01*
X142765305Y-105880854D01*
X142913973Y-105982308D01*
X143076066Y-106056903D01*
X143179067Y-106087368D01*
X143282185Y-106103748D01*
X143402979Y-106110807D01*
X143527293Y-106108563D01*
X143640972Y-106097033D01*
X143693821Y-106086742D01*
X143858189Y-106030201D01*
X144014000Y-105944154D01*
X144156114Y-105832786D01*
X144279394Y-105700285D01*
X144378699Y-105550839D01*
X144398549Y-105512599D01*
X144459408Y-105359832D01*
X144493722Y-105199730D01*
X144503518Y-105030000D01*
X144486271Y-104842626D01*
X144461009Y-104749697D01*
X144059601Y-104749697D01*
X144057517Y-104777339D01*
X144049619Y-104807208D01*
X144033431Y-104843906D01*
X144006481Y-104892035D01*
X143966295Y-104956195D01*
X143910398Y-105040990D01*
X143873334Y-105096203D01*
X143816195Y-105181330D01*
X143766149Y-105256509D01*
X143726065Y-105317375D01*
X143698814Y-105359564D01*
X143687267Y-105378715D01*
X143687067Y-105379321D01*
X143677391Y-105399929D01*
X143652500Y-105438350D01*
X143618603Y-105486166D01*
X143581908Y-105534959D01*
X143548621Y-105576313D01*
X143524951Y-105601808D01*
X143520490Y-105605203D01*
X143463814Y-105621097D01*
X143402278Y-105613179D01*
X143371252Y-105597812D01*
X143350345Y-105575811D01*
X143314929Y-105530639D01*
X143268881Y-105467566D01*
X143216078Y-105391863D01*
X143175132Y-105331112D01*
X143079517Y-105186987D01*
X143001318Y-105068183D01*
X142939183Y-104971832D01*
X142891761Y-104895064D01*
X142857700Y-104835010D01*
X142835648Y-104788800D01*
X142824253Y-104753566D01*
X142822164Y-104726438D01*
X142828029Y-104704547D01*
X142840496Y-104685024D01*
X142858214Y-104664999D01*
X142860286Y-104662791D01*
X142902215Y-104636402D01*
X142957164Y-104623245D01*
X143009719Y-104625629D01*
X143035228Y-104636559D01*
X143048719Y-104653386D01*
X143077228Y-104693361D01*
X143117256Y-104751274D01*
X143165301Y-104821919D01*
X143217862Y-104900088D01*
X143271439Y-104980573D01*
X143322532Y-105058166D01*
X143367639Y-105127660D01*
X143403260Y-105183847D01*
X143404989Y-105186633D01*
X143428286Y-105218640D01*
X143445491Y-105232856D01*
X143446158Y-105232901D01*
X143458753Y-105219259D01*
X143486549Y-105181435D01*
X143526524Y-105123796D01*
X143575655Y-105050706D01*
X143630920Y-104966531D01*
X143636267Y-104958290D01*
X143693464Y-104870830D01*
X143746191Y-104791668D01*
X143791030Y-104725818D01*
X143824563Y-104678299D01*
X143843374Y-104654127D01*
X143843700Y-104653789D01*
X143886466Y-104630856D01*
X143943364Y-104624326D01*
X143998793Y-104634381D01*
X144028634Y-104651624D01*
X144053673Y-104696730D01*
X144059601Y-104749697D01*
X144461009Y-104749697D01*
X144438148Y-104665605D01*
X144361304Y-104501802D01*
X144257890Y-104354083D01*
X144130061Y-104225313D01*
X143979970Y-104118358D01*
X143809769Y-104036082D01*
X143737867Y-104011135D01*
X143605891Y-103982168D01*
X143459552Y-103970224D01*
X143310998Y-103975163D01*
G36*
X139775163Y-105169002D02*
X139796846Y-105307623D01*
X139818480Y-105382804D01*
X139898294Y-105561301D01*
X140003277Y-105719393D01*
X140131170Y-105854834D01*
X140279710Y-105965380D01*
X140446636Y-106048785D01*
X140513101Y-106072474D01*
X140637629Y-106101757D01*
X140777653Y-106117405D01*
X140919397Y-106118798D01*
X141049086Y-106105316D01*
X141083999Y-106098181D01*
X141254114Y-106041683D01*
X141412880Y-105956371D01*
X141556419Y-105846093D01*
X141680854Y-105714695D01*
X141782308Y-105566027D01*
X141856903Y-105403934D01*
X141887368Y-105300933D01*
X141903748Y-105197815D01*
X141910807Y-105077021D01*
X141908563Y-104952707D01*
X141897033Y-104839028D01*
X141886742Y-104786179D01*
X141830201Y-104621811D01*
X141744154Y-104466000D01*
X141632786Y-104323886D01*
X141500285Y-104200606D01*
X141350839Y-104101301D01*
X141312599Y-104081451D01*
X141159832Y-104020592D01*
X140999730Y-103986278D01*
X140830000Y-103976482D01*
X140642626Y-103993729D01*
X140549697Y-104018991D01*
X140549697Y-104420399D01*
X140577339Y-104422483D01*
X140607208Y-104430381D01*
X140643906Y-104446569D01*
X140692035Y-104473519D01*
X140756195Y-104513705D01*
X140840990Y-104569602D01*
X140896203Y-104606666D01*
X140981330Y-104663805D01*
X141056509Y-104713851D01*
X141117375Y-104753935D01*
X141159564Y-104781186D01*
X141178715Y-104792733D01*
X141179321Y-104792933D01*
X141199929Y-104802609D01*
X141238350Y-104827500D01*
X141286166Y-104861397D01*
X141334959Y-104898092D01*
X141376313Y-104931379D01*
X141401808Y-104955049D01*
X141405203Y-104959510D01*
X141421097Y-105016186D01*
X141413179Y-105077722D01*
X141397812Y-105108748D01*
X141375811Y-105129655D01*
X141330639Y-105165071D01*
X141267566Y-105211119D01*
X141191863Y-105263922D01*
X141131112Y-105304868D01*
X140986987Y-105400483D01*
X140868183Y-105478682D01*
X140771832Y-105540817D01*
X140695064Y-105588239D01*
X140635010Y-105622300D01*
X140588800Y-105644352D01*
X140553566Y-105655747D01*
X140526438Y-105657836D01*
X140504547Y-105651971D01*
X140485024Y-105639504D01*
X140464999Y-105621786D01*
X140462791Y-105619714D01*
X140436402Y-105577785D01*
X140423245Y-105522836D01*
X140425629Y-105470281D01*
X140436559Y-105444772D01*
X140453386Y-105431281D01*
X140493361Y-105402772D01*
X140551274Y-105362744D01*
X140621919Y-105314699D01*
X140700088Y-105262138D01*
X140780573Y-105208561D01*
X140858166Y-105157468D01*
X140927660Y-105112361D01*
X140983847Y-105076740D01*
X140986633Y-105075011D01*
X141018640Y-105051714D01*
X141032856Y-105034509D01*
X141032901Y-105033842D01*
X141019259Y-105021247D01*
X140981435Y-104993451D01*
X140923796Y-104953476D01*
X140850706Y-104904345D01*
X140766531Y-104849080D01*
X140758290Y-104843733D01*
X140670830Y-104786536D01*
X140591668Y-104733809D01*
X140525818Y-104688970D01*
X140478299Y-104655437D01*
X140454127Y-104636626D01*
X140453789Y-104636300D01*
X140430856Y-104593534D01*
X140424326Y-104536636D01*
X140434381Y-104481207D01*
X140451624Y-104451366D01*
X140496730Y-104426327D01*
X140549697Y-104420399D01*
X140549697Y-104018991D01*
X140465605Y-104041852D01*
X140301802Y-104118696D01*
X140154083Y-104222110D01*
X140025313Y-104349939D01*
X139918358Y-104500030D01*
X139836082Y-104670231D01*
X139811135Y-104742133D01*
X139782168Y-104874109D01*
X139770224Y-105020448D01*
X139775163Y-105169002D01*
X139775163Y-105169002D01*
G37*
X139775163Y-105169002D02*
X139796846Y-105307623D01*
X139818480Y-105382804D01*
X139898294Y-105561301D01*
X140003277Y-105719393D01*
X140131170Y-105854834D01*
X140279710Y-105965380D01*
X140446636Y-106048785D01*
X140513101Y-106072474D01*
X140637629Y-106101757D01*
X140777653Y-106117405D01*
X140919397Y-106118798D01*
X141049086Y-106105316D01*
X141083999Y-106098181D01*
X141254114Y-106041683D01*
X141412880Y-105956371D01*
X141556419Y-105846093D01*
X141680854Y-105714695D01*
X141782308Y-105566027D01*
X141856903Y-105403934D01*
X141887368Y-105300933D01*
X141903748Y-105197815D01*
X141910807Y-105077021D01*
X141908563Y-104952707D01*
X141897033Y-104839028D01*
X141886742Y-104786179D01*
X141830201Y-104621811D01*
X141744154Y-104466000D01*
X141632786Y-104323886D01*
X141500285Y-104200606D01*
X141350839Y-104101301D01*
X141312599Y-104081451D01*
X141159832Y-104020592D01*
X140999730Y-103986278D01*
X140830000Y-103976482D01*
X140642626Y-103993729D01*
X140549697Y-104018991D01*
X140549697Y-104420399D01*
X140577339Y-104422483D01*
X140607208Y-104430381D01*
X140643906Y-104446569D01*
X140692035Y-104473519D01*
X140756195Y-104513705D01*
X140840990Y-104569602D01*
X140896203Y-104606666D01*
X140981330Y-104663805D01*
X141056509Y-104713851D01*
X141117375Y-104753935D01*
X141159564Y-104781186D01*
X141178715Y-104792733D01*
X141179321Y-104792933D01*
X141199929Y-104802609D01*
X141238350Y-104827500D01*
X141286166Y-104861397D01*
X141334959Y-104898092D01*
X141376313Y-104931379D01*
X141401808Y-104955049D01*
X141405203Y-104959510D01*
X141421097Y-105016186D01*
X141413179Y-105077722D01*
X141397812Y-105108748D01*
X141375811Y-105129655D01*
X141330639Y-105165071D01*
X141267566Y-105211119D01*
X141191863Y-105263922D01*
X141131112Y-105304868D01*
X140986987Y-105400483D01*
X140868183Y-105478682D01*
X140771832Y-105540817D01*
X140695064Y-105588239D01*
X140635010Y-105622300D01*
X140588800Y-105644352D01*
X140553566Y-105655747D01*
X140526438Y-105657836D01*
X140504547Y-105651971D01*
X140485024Y-105639504D01*
X140464999Y-105621786D01*
X140462791Y-105619714D01*
X140436402Y-105577785D01*
X140423245Y-105522836D01*
X140425629Y-105470281D01*
X140436559Y-105444772D01*
X140453386Y-105431281D01*
X140493361Y-105402772D01*
X140551274Y-105362744D01*
X140621919Y-105314699D01*
X140700088Y-105262138D01*
X140780573Y-105208561D01*
X140858166Y-105157468D01*
X140927660Y-105112361D01*
X140983847Y-105076740D01*
X140986633Y-105075011D01*
X141018640Y-105051714D01*
X141032856Y-105034509D01*
X141032901Y-105033842D01*
X141019259Y-105021247D01*
X140981435Y-104993451D01*
X140923796Y-104953476D01*
X140850706Y-104904345D01*
X140766531Y-104849080D01*
X140758290Y-104843733D01*
X140670830Y-104786536D01*
X140591668Y-104733809D01*
X140525818Y-104688970D01*
X140478299Y-104655437D01*
X140454127Y-104636626D01*
X140453789Y-104636300D01*
X140430856Y-104593534D01*
X140424326Y-104536636D01*
X140434381Y-104481207D01*
X140451624Y-104451366D01*
X140496730Y-104426327D01*
X140549697Y-104420399D01*
X140549697Y-104018991D01*
X140465605Y-104041852D01*
X140301802Y-104118696D01*
X140154083Y-104222110D01*
X140025313Y-104349939D01*
X139918358Y-104500030D01*
X139836082Y-104670231D01*
X139811135Y-104742133D01*
X139782168Y-104874109D01*
X139770224Y-105020448D01*
X139775163Y-105169002D01*
G36*
X155250860Y-108425143D02*
X155147543Y-108434821D01*
X155085143Y-108446959D01*
X154827231Y-108537386D01*
X154598328Y-108655683D01*
X154397944Y-108802233D01*
X154225593Y-108977419D01*
X154080785Y-109181626D01*
X154026772Y-109278631D01*
X153933710Y-109501444D01*
X153875759Y-109737458D01*
X153853052Y-109980312D01*
X153865724Y-110223641D01*
X153913906Y-110461083D01*
X153997327Y-110685408D01*
X154117870Y-110896457D01*
X154270836Y-111087587D01*
X154451561Y-111254692D01*
X154655382Y-111393665D01*
X154877634Y-111500401D01*
X154954111Y-111527811D01*
X155087085Y-111560423D01*
X155245482Y-111581779D01*
X155415887Y-111591441D01*
X155584882Y-111588968D01*
X155739052Y-111573922D01*
X155828095Y-111556406D01*
X156058179Y-111478044D01*
X156274569Y-111364613D01*
X156472287Y-111220125D01*
X156646357Y-111048591D01*
X156791803Y-110854024D01*
X156831882Y-110782644D01*
X156310932Y-110782644D01*
X156285097Y-110847837D01*
X156284588Y-110848825D01*
X156245919Y-110905383D01*
X156196395Y-110935857D01*
X156125201Y-110945198D01*
X156077805Y-110943469D01*
X155993968Y-110930091D01*
X155934235Y-110900348D01*
X155918837Y-110887472D01*
X155877534Y-110838620D01*
X155836404Y-110773473D01*
X155823457Y-110748032D01*
X155809019Y-110713675D01*
X155798040Y-110676458D01*
X155789916Y-110630096D01*
X155784041Y-110568305D01*
X155779810Y-110484801D01*
X155776618Y-110373299D01*
X155773969Y-110234044D01*
X155770319Y-110072211D01*
X155765379Y-109949049D01*
X155759036Y-109862926D01*
X155751176Y-109812212D01*
X155743512Y-109795900D01*
X155691042Y-109781422D01*
X155626615Y-109786295D01*
X155572336Y-109808302D01*
X155565500Y-109813775D01*
X155551673Y-109830081D01*
X155541769Y-109854229D01*
X155535152Y-109892513D01*
X155531184Y-109951225D01*
X155529227Y-110036657D01*
X155528643Y-110155102D01*
X155528635Y-110177549D01*
X155528442Y-110300034D01*
X155527276Y-110388850D01*
X155524257Y-110450642D01*
X155518506Y-110492060D01*
X155509142Y-110519749D01*
X155495287Y-110540357D01*
X155478233Y-110558361D01*
X155446710Y-110585506D01*
X155412693Y-110599883D01*
X155363370Y-110604544D01*
X155291765Y-110602802D01*
X155155698Y-110596841D01*
X155145619Y-110204203D01*
X155135540Y-109811566D01*
X155080103Y-109792098D01*
X155000441Y-109784445D01*
X154969230Y-109792076D01*
X154913794Y-109811522D01*
X154902952Y-110153785D01*
X154898400Y-110269453D01*
X154892667Y-110372778D01*
X154886301Y-110456266D01*
X154879847Y-110512426D01*
X154875382Y-110531885D01*
X154842333Y-110573293D01*
X154786135Y-110597335D01*
X154699855Y-110606605D01*
X154674863Y-110606921D01*
X154613647Y-110607093D01*
X154568707Y-110604024D01*
X154537537Y-110592336D01*
X154517631Y-110566653D01*
X154506483Y-110521597D01*
X154501588Y-110451790D01*
X154500440Y-110351856D01*
X154500540Y-110232820D01*
X154501839Y-110109396D01*
X154505432Y-109992048D01*
X154510861Y-109890088D01*
X154517669Y-109812829D01*
X154522825Y-109779278D01*
X154565909Y-109670005D01*
X154640669Y-109580096D01*
X154740387Y-109516610D01*
X154789455Y-109499138D01*
X154889158Y-109482883D01*
X155003461Y-109482045D01*
X155116197Y-109495432D01*
X155211200Y-109521851D01*
X155233384Y-109531911D01*
X155282191Y-109555313D01*
X155316176Y-109561302D01*
X155353986Y-109549651D01*
X155394620Y-109529922D01*
X155433311Y-109513133D01*
X155476628Y-109501142D01*
X155532479Y-109492990D01*
X155608773Y-109487716D01*
X155713419Y-109484360D01*
X155780619Y-109483072D01*
X155890459Y-109481970D01*
X155988861Y-109482333D01*
X156067395Y-109484031D01*
X156117635Y-109486931D01*
X156128357Y-109488496D01*
X156173714Y-109498959D01*
X156173714Y-110043861D01*
X156174193Y-110223112D01*
X156176057Y-110366336D01*
X156179945Y-110477815D01*
X156186496Y-110561833D01*
X156196349Y-110622674D01*
X156210143Y-110664619D01*
X156228519Y-110691953D01*
X156252115Y-110708959D01*
X156274287Y-110717724D01*
X156307450Y-110740818D01*
X156310932Y-110782644D01*
X156831882Y-110782644D01*
X156868296Y-110717794D01*
X156932541Y-110578579D01*
X156977696Y-110455227D01*
X157006778Y-110334495D01*
X157022805Y-110203139D01*
X157028795Y-110047914D01*
X157029056Y-110012238D01*
X157025657Y-109849839D01*
X157012400Y-109713962D01*
X156986532Y-109591447D01*
X156945301Y-109469129D01*
X156888259Y-109338710D01*
X156795542Y-109175651D01*
X156173714Y-109175651D01*
X156156732Y-109260175D01*
X156111586Y-109324789D01*
X156046979Y-109365887D01*
X155971612Y-109379863D01*
X155894186Y-109363111D01*
X155829465Y-109318313D01*
X155781720Y-109246547D01*
X155767973Y-109168946D01*
X155784620Y-109094212D01*
X155828055Y-109031045D01*
X155894670Y-108988149D01*
X155972127Y-108974064D01*
X156059911Y-108991724D01*
X156126437Y-109040689D01*
X156165682Y-109114937D01*
X156173714Y-109175651D01*
X156795542Y-109175651D01*
X156760878Y-109114690D01*
X156603829Y-108917064D01*
X156419607Y-108747915D01*
X156210708Y-108609324D01*
X155979625Y-108503375D01*
X155831016Y-108456246D01*
X155744207Y-108439896D01*
X155631477Y-108428470D01*
X155504136Y-108422108D01*
X155373494Y-108420953D01*
X155250860Y-108425143D01*
X155250860Y-108425143D01*
G37*
X155250860Y-108425143D02*
X155147543Y-108434821D01*
X155085143Y-108446959D01*
X154827231Y-108537386D01*
X154598328Y-108655683D01*
X154397944Y-108802233D01*
X154225593Y-108977419D01*
X154080785Y-109181626D01*
X154026772Y-109278631D01*
X153933710Y-109501444D01*
X153875759Y-109737458D01*
X153853052Y-109980312D01*
X153865724Y-110223641D01*
X153913906Y-110461083D01*
X153997327Y-110685408D01*
X154117870Y-110896457D01*
X154270836Y-111087587D01*
X154451561Y-111254692D01*
X154655382Y-111393665D01*
X154877634Y-111500401D01*
X154954111Y-111527811D01*
X155087085Y-111560423D01*
X155245482Y-111581779D01*
X155415887Y-111591441D01*
X155584882Y-111588968D01*
X155739052Y-111573922D01*
X155828095Y-111556406D01*
X156058179Y-111478044D01*
X156274569Y-111364613D01*
X156472287Y-111220125D01*
X156646357Y-111048591D01*
X156791803Y-110854024D01*
X156831882Y-110782644D01*
X156310932Y-110782644D01*
X156285097Y-110847837D01*
X156284588Y-110848825D01*
X156245919Y-110905383D01*
X156196395Y-110935857D01*
X156125201Y-110945198D01*
X156077805Y-110943469D01*
X155993968Y-110930091D01*
X155934235Y-110900348D01*
X155918837Y-110887472D01*
X155877534Y-110838620D01*
X155836404Y-110773473D01*
X155823457Y-110748032D01*
X155809019Y-110713675D01*
X155798040Y-110676458D01*
X155789916Y-110630096D01*
X155784041Y-110568305D01*
X155779810Y-110484801D01*
X155776618Y-110373299D01*
X155773969Y-110234044D01*
X155770319Y-110072211D01*
X155765379Y-109949049D01*
X155759036Y-109862926D01*
X155751176Y-109812212D01*
X155743512Y-109795900D01*
X155691042Y-109781422D01*
X155626615Y-109786295D01*
X155572336Y-109808302D01*
X155565500Y-109813775D01*
X155551673Y-109830081D01*
X155541769Y-109854229D01*
X155535152Y-109892513D01*
X155531184Y-109951225D01*
X155529227Y-110036657D01*
X155528643Y-110155102D01*
X155528635Y-110177549D01*
X155528442Y-110300034D01*
X155527276Y-110388850D01*
X155524257Y-110450642D01*
X155518506Y-110492060D01*
X155509142Y-110519749D01*
X155495287Y-110540357D01*
X155478233Y-110558361D01*
X155446710Y-110585506D01*
X155412693Y-110599883D01*
X155363370Y-110604544D01*
X155291765Y-110602802D01*
X155155698Y-110596841D01*
X155145619Y-110204203D01*
X155135540Y-109811566D01*
X155080103Y-109792098D01*
X155000441Y-109784445D01*
X154969230Y-109792076D01*
X154913794Y-109811522D01*
X154902952Y-110153785D01*
X154898400Y-110269453D01*
X154892667Y-110372778D01*
X154886301Y-110456266D01*
X154879847Y-110512426D01*
X154875382Y-110531885D01*
X154842333Y-110573293D01*
X154786135Y-110597335D01*
X154699855Y-110606605D01*
X154674863Y-110606921D01*
X154613647Y-110607093D01*
X154568707Y-110604024D01*
X154537537Y-110592336D01*
X154517631Y-110566653D01*
X154506483Y-110521597D01*
X154501588Y-110451790D01*
X154500440Y-110351856D01*
X154500540Y-110232820D01*
X154501839Y-110109396D01*
X154505432Y-109992048D01*
X154510861Y-109890088D01*
X154517669Y-109812829D01*
X154522825Y-109779278D01*
X154565909Y-109670005D01*
X154640669Y-109580096D01*
X154740387Y-109516610D01*
X154789455Y-109499138D01*
X154889158Y-109482883D01*
X155003461Y-109482045D01*
X155116197Y-109495432D01*
X155211200Y-109521851D01*
X155233384Y-109531911D01*
X155282191Y-109555313D01*
X155316176Y-109561302D01*
X155353986Y-109549651D01*
X155394620Y-109529922D01*
X155433311Y-109513133D01*
X155476628Y-109501142D01*
X155532479Y-109492990D01*
X155608773Y-109487716D01*
X155713419Y-109484360D01*
X155780619Y-109483072D01*
X155890459Y-109481970D01*
X155988861Y-109482333D01*
X156067395Y-109484031D01*
X156117635Y-109486931D01*
X156128357Y-109488496D01*
X156173714Y-109498959D01*
X156173714Y-110043861D01*
X156174193Y-110223112D01*
X156176057Y-110366336D01*
X156179945Y-110477815D01*
X156186496Y-110561833D01*
X156196349Y-110622674D01*
X156210143Y-110664619D01*
X156228519Y-110691953D01*
X156252115Y-110708959D01*
X156274287Y-110717724D01*
X156307450Y-110740818D01*
X156310932Y-110782644D01*
X156831882Y-110782644D01*
X156868296Y-110717794D01*
X156932541Y-110578579D01*
X156977696Y-110455227D01*
X157006778Y-110334495D01*
X157022805Y-110203139D01*
X157028795Y-110047914D01*
X157029056Y-110012238D01*
X157025657Y-109849839D01*
X157012400Y-109713962D01*
X156986532Y-109591447D01*
X156945301Y-109469129D01*
X156888259Y-109338710D01*
X156795542Y-109175651D01*
X156173714Y-109175651D01*
X156156732Y-109260175D01*
X156111586Y-109324789D01*
X156046979Y-109365887D01*
X155971612Y-109379863D01*
X155894186Y-109363111D01*
X155829465Y-109318313D01*
X155781720Y-109246547D01*
X155767973Y-109168946D01*
X155784620Y-109094212D01*
X155828055Y-109031045D01*
X155894670Y-108988149D01*
X155972127Y-108974064D01*
X156059911Y-108991724D01*
X156126437Y-109040689D01*
X156165682Y-109114937D01*
X156173714Y-109175651D01*
X156795542Y-109175651D01*
X156760878Y-109114690D01*
X156603829Y-108917064D01*
X156419607Y-108747915D01*
X156210708Y-108609324D01*
X155979625Y-108503375D01*
X155831016Y-108456246D01*
X155744207Y-108439896D01*
X155631477Y-108428470D01*
X155504136Y-108422108D01*
X155373494Y-108420953D01*
X155250860Y-108425143D01*
G36*
X175363939Y-119838197D02*
X175037024Y-119840020D01*
X174733983Y-119843624D01*
X174470498Y-119849008D01*
X174262252Y-119856174D01*
X174124927Y-119865120D01*
X174074423Y-119875300D01*
X174100533Y-119922294D01*
X174189102Y-120020350D01*
X174325550Y-120154284D01*
X174465125Y-120282180D01*
X174677427Y-120472050D01*
X174901459Y-120673548D01*
X175102206Y-120855139D01*
X175183800Y-120929431D01*
X175331700Y-121059112D01*
X175454367Y-121156727D01*
X175530532Y-121205645D01*
X175540575Y-121208351D01*
X175592889Y-121175893D01*
X175707443Y-121085286D01*
X175871664Y-120947120D01*
X176072976Y-120771985D01*
X176298803Y-120570470D01*
X176309177Y-120561100D01*
X176531352Y-120357381D01*
X176723147Y-120175924D01*
X176873318Y-120027835D01*
X176970620Y-119924221D01*
X177003808Y-119876189D01*
X177003504Y-119875300D01*
X176948575Y-119864657D01*
X176807744Y-119855795D01*
X176596694Y-119848713D01*
X176331105Y-119843413D01*
X176026662Y-119839893D01*
X175699046Y-119838155D01*
X175363939Y-119838197D01*
X175363939Y-119838197D01*
G37*
X175363939Y-119838197D02*
X175037024Y-119840020D01*
X174733983Y-119843624D01*
X174470498Y-119849008D01*
X174262252Y-119856174D01*
X174124927Y-119865120D01*
X174074423Y-119875300D01*
X174100533Y-119922294D01*
X174189102Y-120020350D01*
X174325550Y-120154284D01*
X174465125Y-120282180D01*
X174677427Y-120472050D01*
X174901459Y-120673548D01*
X175102206Y-120855139D01*
X175183800Y-120929431D01*
X175331700Y-121059112D01*
X175454367Y-121156727D01*
X175530532Y-121205645D01*
X175540575Y-121208351D01*
X175592889Y-121175893D01*
X175707443Y-121085286D01*
X175871664Y-120947120D01*
X176072976Y-120771985D01*
X176298803Y-120570470D01*
X176309177Y-120561100D01*
X176531352Y-120357381D01*
X176723147Y-120175924D01*
X176873318Y-120027835D01*
X176970620Y-119924221D01*
X177003808Y-119876189D01*
X177003504Y-119875300D01*
X176948575Y-119864657D01*
X176807744Y-119855795D01*
X176596694Y-119848713D01*
X176331105Y-119843413D01*
X176026662Y-119839893D01*
X175699046Y-119838155D01*
X175363939Y-119838197D01*
G36*
X173869703Y-120086993D02*
X173853144Y-120228155D01*
X173842580Y-120465957D01*
X173837885Y-120802474D01*
X173837600Y-120929400D01*
X173839716Y-121217181D01*
X173845585Y-121466129D01*
X173854492Y-121659987D01*
X173865723Y-121782498D01*
X173876704Y-121818400D01*
X173925190Y-121784319D01*
X174030143Y-121691073D01*
X174177009Y-121552152D01*
X174351236Y-121381046D01*
X174386018Y-121346225D01*
X174856229Y-120874051D01*
X174401701Y-120457225D01*
X174221702Y-120296086D01*
X174065906Y-120163914D01*
X173950789Y-120074195D01*
X173892827Y-120040412D01*
X173892387Y-120040400D01*
X173869703Y-120086993D01*
X173869703Y-120086993D01*
G37*
X173869703Y-120086993D02*
X173853144Y-120228155D01*
X173842580Y-120465957D01*
X173837885Y-120802474D01*
X173837600Y-120929400D01*
X173839716Y-121217181D01*
X173845585Y-121466129D01*
X173854492Y-121659987D01*
X173865723Y-121782498D01*
X173876704Y-121818400D01*
X173925190Y-121784319D01*
X174030143Y-121691073D01*
X174177009Y-121552152D01*
X174351236Y-121381046D01*
X174386018Y-121346225D01*
X174856229Y-120874051D01*
X174401701Y-120457225D01*
X174221702Y-120296086D01*
X174065906Y-120163914D01*
X173950789Y-120074195D01*
X173892827Y-120040412D01*
X173892387Y-120040400D01*
X173869703Y-120086993D01*
G36*
X177067058Y-120127457D02*
X176950653Y-120218129D01*
X176794314Y-120351863D01*
X176614675Y-120514958D01*
X176609610Y-120519685D01*
X176418528Y-120700935D01*
X176294150Y-120827826D01*
X176226753Y-120912946D01*
X176206613Y-120968880D01*
X176224008Y-121008213D01*
X176228610Y-121012850D01*
X176368883Y-121143426D01*
X176535364Y-121293733D01*
X176710823Y-121448820D01*
X176878031Y-121593737D01*
X177019758Y-121713533D01*
X177118774Y-121793258D01*
X177156984Y-121818400D01*
X177167950Y-121770350D01*
X177177404Y-121637199D01*
X177184708Y-121435441D01*
X177189224Y-121181569D01*
X177190400Y-120954800D01*
X177188579Y-120622295D01*
X177182589Y-120380654D01*
X177171643Y-120219194D01*
X177154955Y-120127234D01*
X177131735Y-120094094D01*
X177126900Y-120093547D01*
X177067058Y-120127457D01*
X177067058Y-120127457D01*
G37*
X177067058Y-120127457D02*
X176950653Y-120218129D01*
X176794314Y-120351863D01*
X176614675Y-120514958D01*
X176609610Y-120519685D01*
X176418528Y-120700935D01*
X176294150Y-120827826D01*
X176226753Y-120912946D01*
X176206613Y-120968880D01*
X176224008Y-121008213D01*
X176228610Y-121012850D01*
X176368883Y-121143426D01*
X176535364Y-121293733D01*
X176710823Y-121448820D01*
X176878031Y-121593737D01*
X177019758Y-121713533D01*
X177118774Y-121793258D01*
X177156984Y-121818400D01*
X177167950Y-121770350D01*
X177177404Y-121637199D01*
X177184708Y-121435441D01*
X177189224Y-121181569D01*
X177190400Y-120954800D01*
X177188579Y-120622295D01*
X177182589Y-120380654D01*
X177171643Y-120219194D01*
X177154955Y-120127234D01*
X177131735Y-120094094D01*
X177126900Y-120093547D01*
X177067058Y-120127457D01*
G36*
X174509982Y-121476870D02*
X174016052Y-121970800D01*
X177007593Y-121970800D01*
X176578297Y-121566460D01*
X176399514Y-121402717D01*
X176239682Y-121264789D01*
X176117444Y-121168244D01*
X176055333Y-121129724D01*
X175939953Y-121143300D01*
X175823953Y-121229263D01*
X175658386Y-121340369D01*
X175490061Y-121353964D01*
X175311659Y-121269381D01*
X175197598Y-121172070D01*
X175003911Y-120982940D01*
X174509982Y-121476870D01*
X174509982Y-121476870D01*
G37*
X174509982Y-121476870D02*
X174016052Y-121970800D01*
X177007593Y-121970800D01*
X176578297Y-121566460D01*
X176399514Y-121402717D01*
X176239682Y-121264789D01*
X176117444Y-121168244D01*
X176055333Y-121129724D01*
X175939953Y-121143300D01*
X175823953Y-121229263D01*
X175658386Y-121340369D01*
X175490061Y-121353964D01*
X175311659Y-121269381D01*
X175197598Y-121172070D01*
X175003911Y-120982940D01*
X174509982Y-121476870D01*
G36*
X145913792Y-119901371D02*
X145898241Y-119903524D01*
X145882899Y-119908469D01*
X145863706Y-119917205D01*
X145859578Y-119919233D01*
X145835470Y-119933043D01*
X145811445Y-119950877D01*
X145786886Y-119973455D01*
X145761179Y-120001496D01*
X145733707Y-120035719D01*
X145703856Y-120076843D01*
X145671009Y-120125587D01*
X145636008Y-120180342D01*
X145607315Y-120226931D01*
X145583869Y-120266978D01*
X145564989Y-120301944D01*
X145549998Y-120333294D01*
X145538213Y-120362491D01*
X145528957Y-120390997D01*
X145521549Y-120420277D01*
X145519024Y-120432168D01*
X145513301Y-120482343D01*
X145517092Y-120529613D01*
X145530424Y-120574114D01*
X145553326Y-120615983D01*
X145558817Y-120623727D01*
X145573547Y-120641193D01*
X145594939Y-120663081D01*
X145621515Y-120688070D01*
X145651801Y-120714840D01*
X145684318Y-120742069D01*
X145717590Y-120768437D01*
X145736651Y-120782814D01*
X145771792Y-120811504D01*
X145798152Y-120839545D01*
X145816714Y-120868247D01*
X145828462Y-120898924D01*
X145830727Y-120908341D01*
X145834771Y-120950495D01*
X145829997Y-120997192D01*
X145816427Y-121048387D01*
X145794084Y-121104033D01*
X145762990Y-121164085D01*
X145723167Y-121228495D01*
X145674638Y-121297218D01*
X145617423Y-121370207D01*
X145597191Y-121394569D01*
X145529009Y-121472759D01*
X145463964Y-121541523D01*
X145402028Y-121600879D01*
X145343178Y-121650847D01*
X145287385Y-121691446D01*
X145234625Y-121722694D01*
X145184872Y-121744611D01*
X145138100Y-121757216D01*
X145100357Y-121760623D01*
X145073694Y-121759164D01*
X145049756Y-121754197D01*
X145026851Y-121744833D01*
X145003286Y-121730181D01*
X144977367Y-121709351D01*
X144947401Y-121681451D01*
X144944580Y-121678693D01*
X144898045Y-121634257D01*
X144856150Y-121596749D01*
X144819222Y-121566437D01*
X144787591Y-121543592D01*
X144762569Y-121528964D01*
X144719190Y-121512323D01*
X144674643Y-121504699D01*
X144628561Y-121506163D01*
X144580578Y-121516785D01*
X144530329Y-121536635D01*
X144477445Y-121565784D01*
X144439979Y-121590820D01*
X144416465Y-121608399D01*
X144387636Y-121631259D01*
X144355373Y-121657793D01*
X144321556Y-121686393D01*
X144288065Y-121715451D01*
X144256782Y-121743361D01*
X144229585Y-121768514D01*
X144211219Y-121786392D01*
X144170621Y-121831106D01*
X144139644Y-121873742D01*
X144118214Y-121914508D01*
X144106255Y-121953613D01*
X144103693Y-121991263D01*
X144110455Y-122027668D01*
X144118042Y-122047067D01*
X144127479Y-122062141D01*
X144143619Y-122082163D01*
X144165271Y-122106008D01*
X144191242Y-122132552D01*
X144220341Y-122160671D01*
X144251375Y-122189239D01*
X144283153Y-122217132D01*
X144314482Y-122243226D01*
X144344170Y-122266397D01*
X144370299Y-122285033D01*
X144445366Y-122329453D01*
X144524544Y-122364952D01*
X144607236Y-122391386D01*
X144692845Y-122408610D01*
X144780772Y-122416482D01*
X144870420Y-122414856D01*
X144898996Y-122412346D01*
X144992452Y-122397670D01*
X145086719Y-122373120D01*
X145181725Y-122338747D01*
X145277396Y-122294597D01*
X145373661Y-122240720D01*
X145470444Y-122177165D01*
X145567675Y-122103980D01*
X145665278Y-122021213D01*
X145763183Y-121928913D01*
X145861315Y-121827129D01*
X145959601Y-121715908D01*
X145976474Y-121695882D01*
X146063028Y-121588343D01*
X146140353Y-121483513D01*
X146208675Y-121380964D01*
X146268218Y-121280270D01*
X146319208Y-121181002D01*
X146361871Y-121082733D01*
X146396430Y-120985035D01*
X146423112Y-120887481D01*
X146436723Y-120821823D01*
X146440045Y-120800788D01*
X146442487Y-120778348D01*
X146444152Y-120752618D01*
X146445145Y-120721713D01*
X146445569Y-120683747D01*
X146445597Y-120659961D01*
X146445094Y-120611187D01*
X146443486Y-120569970D01*
X146440420Y-120533932D01*
X146435546Y-120500696D01*
X146428510Y-120467887D01*
X146418960Y-120433127D01*
X146406545Y-120394039D01*
X146405902Y-120392106D01*
X146378550Y-120322722D01*
X146343677Y-120254912D01*
X146302517Y-120190535D01*
X146256307Y-120131449D01*
X146206286Y-120079511D01*
X146185792Y-120061410D01*
X146167133Y-120045598D01*
X146143933Y-120025735D01*
X146119133Y-120004349D01*
X146095674Y-119983967D01*
X146095431Y-119983755D01*
X146059621Y-119954066D01*
X146028233Y-119931727D01*
X145999856Y-119916018D01*
X145973076Y-119906215D01*
X145946482Y-119901597D01*
X145933610Y-119901012D01*
X145913792Y-119901371D01*
X145913792Y-119901371D01*
G37*
X145913792Y-119901371D02*
X145898241Y-119903524D01*
X145882899Y-119908469D01*
X145863706Y-119917205D01*
X145859578Y-119919233D01*
X145835470Y-119933043D01*
X145811445Y-119950877D01*
X145786886Y-119973455D01*
X145761179Y-120001496D01*
X145733707Y-120035719D01*
X145703856Y-120076843D01*
X145671009Y-120125587D01*
X145636008Y-120180342D01*
X145607315Y-120226931D01*
X145583869Y-120266978D01*
X145564989Y-120301944D01*
X145549998Y-120333294D01*
X145538213Y-120362491D01*
X145528957Y-120390997D01*
X145521549Y-120420277D01*
X145519024Y-120432168D01*
X145513301Y-120482343D01*
X145517092Y-120529613D01*
X145530424Y-120574114D01*
X145553326Y-120615983D01*
X145558817Y-120623727D01*
X145573547Y-120641193D01*
X145594939Y-120663081D01*
X145621515Y-120688070D01*
X145651801Y-120714840D01*
X145684318Y-120742069D01*
X145717590Y-120768437D01*
X145736651Y-120782814D01*
X145771792Y-120811504D01*
X145798152Y-120839545D01*
X145816714Y-120868247D01*
X145828462Y-120898924D01*
X145830727Y-120908341D01*
X145834771Y-120950495D01*
X145829997Y-120997192D01*
X145816427Y-121048387D01*
X145794084Y-121104033D01*
X145762990Y-121164085D01*
X145723167Y-121228495D01*
X145674638Y-121297218D01*
X145617423Y-121370207D01*
X145597191Y-121394569D01*
X145529009Y-121472759D01*
X145463964Y-121541523D01*
X145402028Y-121600879D01*
X145343178Y-121650847D01*
X145287385Y-121691446D01*
X145234625Y-121722694D01*
X145184872Y-121744611D01*
X145138100Y-121757216D01*
X145100357Y-121760623D01*
X145073694Y-121759164D01*
X145049756Y-121754197D01*
X145026851Y-121744833D01*
X145003286Y-121730181D01*
X144977367Y-121709351D01*
X144947401Y-121681451D01*
X144944580Y-121678693D01*
X144898045Y-121634257D01*
X144856150Y-121596749D01*
X144819222Y-121566437D01*
X144787591Y-121543592D01*
X144762569Y-121528964D01*
X144719190Y-121512323D01*
X144674643Y-121504699D01*
X144628561Y-121506163D01*
X144580578Y-121516785D01*
X144530329Y-121536635D01*
X144477445Y-121565784D01*
X144439979Y-121590820D01*
X144416465Y-121608399D01*
X144387636Y-121631259D01*
X144355373Y-121657793D01*
X144321556Y-121686393D01*
X144288065Y-121715451D01*
X144256782Y-121743361D01*
X144229585Y-121768514D01*
X144211219Y-121786392D01*
X144170621Y-121831106D01*
X144139644Y-121873742D01*
X144118214Y-121914508D01*
X144106255Y-121953613D01*
X144103693Y-121991263D01*
X144110455Y-122027668D01*
X144118042Y-122047067D01*
X144127479Y-122062141D01*
X144143619Y-122082163D01*
X144165271Y-122106008D01*
X144191242Y-122132552D01*
X144220341Y-122160671D01*
X144251375Y-122189239D01*
X144283153Y-122217132D01*
X144314482Y-122243226D01*
X144344170Y-122266397D01*
X144370299Y-122285033D01*
X144445366Y-122329453D01*
X144524544Y-122364952D01*
X144607236Y-122391386D01*
X144692845Y-122408610D01*
X144780772Y-122416482D01*
X144870420Y-122414856D01*
X144898996Y-122412346D01*
X144992452Y-122397670D01*
X145086719Y-122373120D01*
X145181725Y-122338747D01*
X145277396Y-122294597D01*
X145373661Y-122240720D01*
X145470444Y-122177165D01*
X145567675Y-122103980D01*
X145665278Y-122021213D01*
X145763183Y-121928913D01*
X145861315Y-121827129D01*
X145959601Y-121715908D01*
X145976474Y-121695882D01*
X146063028Y-121588343D01*
X146140353Y-121483513D01*
X146208675Y-121380964D01*
X146268218Y-121280270D01*
X146319208Y-121181002D01*
X146361871Y-121082733D01*
X146396430Y-120985035D01*
X146423112Y-120887481D01*
X146436723Y-120821823D01*
X146440045Y-120800788D01*
X146442487Y-120778348D01*
X146444152Y-120752618D01*
X146445145Y-120721713D01*
X146445569Y-120683747D01*
X146445597Y-120659961D01*
X146445094Y-120611187D01*
X146443486Y-120569970D01*
X146440420Y-120533932D01*
X146435546Y-120500696D01*
X146428510Y-120467887D01*
X146418960Y-120433127D01*
X146406545Y-120394039D01*
X146405902Y-120392106D01*
X146378550Y-120322722D01*
X146343677Y-120254912D01*
X146302517Y-120190535D01*
X146256307Y-120131449D01*
X146206286Y-120079511D01*
X146185792Y-120061410D01*
X146167133Y-120045598D01*
X146143933Y-120025735D01*
X146119133Y-120004349D01*
X146095674Y-119983967D01*
X146095431Y-119983755D01*
X146059621Y-119954066D01*
X146028233Y-119931727D01*
X145999856Y-119916018D01*
X145973076Y-119906215D01*
X145946482Y-119901597D01*
X145933610Y-119901012D01*
X145913792Y-119901371D01*
G04 #@! TO.C,P1*
D10*
X163158095Y-79562380D02*
X163158095Y-78562380D01*
X162777142Y-78562380D01*
X162681904Y-78610000D01*
X162634285Y-78657619D01*
X162586666Y-78752857D01*
X162586666Y-78895714D01*
X162634285Y-78990952D01*
X162681904Y-79038571D01*
X162777142Y-79086190D01*
X163158095Y-79086190D01*
X161634285Y-79562380D02*
X162205714Y-79562380D01*
X161920000Y-79562380D02*
X161920000Y-78562380D01*
X162015238Y-78705238D01*
X162110476Y-78800476D01*
X162205714Y-78848095D01*
G04 #@! TO.C,U1*
X199135904Y-73366380D02*
X199135904Y-74175904D01*
X199088285Y-74271142D01*
X199040666Y-74318761D01*
X198945428Y-74366380D01*
X198754952Y-74366380D01*
X198659714Y-74318761D01*
X198612095Y-74271142D01*
X198564476Y-74175904D01*
X198564476Y-73366380D01*
X197564476Y-74366380D02*
X198135904Y-74366380D01*
X197850190Y-74366380D02*
X197850190Y-73366380D01*
X197945428Y-73509238D01*
X198040666Y-73604476D01*
X198135904Y-73652095D01*
G04 #@! TO.C,F1*
X173043333Y-73988571D02*
X173376666Y-73988571D01*
X173376666Y-74512380D02*
X173376666Y-73512380D01*
X172900476Y-73512380D01*
X171995714Y-74512380D02*
X172567142Y-74512380D01*
X172281428Y-74512380D02*
X172281428Y-73512380D01*
X172376666Y-73655238D01*
X172471904Y-73750476D01*
X172567142Y-73798095D01*
G04 #@! TO.C,Y1*
X204184190Y-77192190D02*
X204184190Y-77668380D01*
X204517523Y-76668380D02*
X204184190Y-77192190D01*
X203850857Y-76668380D01*
X202993714Y-77668380D02*
X203565142Y-77668380D01*
X203279428Y-77668380D02*
X203279428Y-76668380D01*
X203374666Y-76811238D01*
X203469904Y-76906476D01*
X203565142Y-76954095D01*
G04 #@! TO.C,D1*
X203204095Y-100772380D02*
X203204095Y-99772380D01*
X202966000Y-99772380D01*
X202823142Y-99820000D01*
X202727904Y-99915238D01*
X202680285Y-100010476D01*
X202632666Y-100200952D01*
X202632666Y-100343809D01*
X202680285Y-100534285D01*
X202727904Y-100629523D01*
X202823142Y-100724761D01*
X202966000Y-100772380D01*
X203204095Y-100772380D01*
X201680285Y-100772380D02*
X202251714Y-100772380D01*
X201966000Y-100772380D02*
X201966000Y-99772380D01*
X202061238Y-99915238D01*
X202156476Y-100010476D01*
X202251714Y-100058095D01*
G04 #@! TO.C,D2*
X203176095Y-105608380D02*
X203176095Y-104608380D01*
X202938000Y-104608380D01*
X202795142Y-104656000D01*
X202699904Y-104751238D01*
X202652285Y-104846476D01*
X202604666Y-105036952D01*
X202604666Y-105179809D01*
X202652285Y-105370285D01*
X202699904Y-105465523D01*
X202795142Y-105560761D01*
X202938000Y-105608380D01*
X203176095Y-105608380D01*
X202223714Y-104703619D02*
X202176095Y-104656000D01*
X202080857Y-104608380D01*
X201842761Y-104608380D01*
X201747523Y-104656000D01*
X201699904Y-104703619D01*
X201652285Y-104798857D01*
X201652285Y-104894095D01*
X201699904Y-105036952D01*
X202271333Y-105608380D01*
X201652285Y-105608380D01*
G04 #@! TO.C,D3*
X203214095Y-110322380D02*
X203214095Y-109322380D01*
X202976000Y-109322380D01*
X202833142Y-109370000D01*
X202737904Y-109465238D01*
X202690285Y-109560476D01*
X202642666Y-109750952D01*
X202642666Y-109893809D01*
X202690285Y-110084285D01*
X202737904Y-110179523D01*
X202833142Y-110274761D01*
X202976000Y-110322380D01*
X203214095Y-110322380D01*
X202309333Y-109322380D02*
X201690285Y-109322380D01*
X202023619Y-109703333D01*
X201880761Y-109703333D01*
X201785523Y-109750952D01*
X201737904Y-109798571D01*
X201690285Y-109893809D01*
X201690285Y-110131904D01*
X201737904Y-110227142D01*
X201785523Y-110274761D01*
X201880761Y-110322380D01*
X202166476Y-110322380D01*
X202261714Y-110274761D01*
X202309333Y-110227142D01*
G04 #@! TO.C,D4*
X185142095Y-121356380D02*
X185142095Y-120356380D01*
X184904000Y-120356380D01*
X184761142Y-120404000D01*
X184665904Y-120499238D01*
X184618285Y-120594476D01*
X184570666Y-120784952D01*
X184570666Y-120927809D01*
X184618285Y-121118285D01*
X184665904Y-121213523D01*
X184761142Y-121308761D01*
X184904000Y-121356380D01*
X185142095Y-121356380D01*
X183713523Y-120689714D02*
X183713523Y-121356380D01*
X183951619Y-120308761D02*
X184189714Y-121023047D01*
X183570666Y-121023047D01*
G04 #@! TO.C,D5*
X154916095Y-121610380D02*
X154916095Y-120610380D01*
X154678000Y-120610380D01*
X154535142Y-120658000D01*
X154439904Y-120753238D01*
X154392285Y-120848476D01*
X154344666Y-121038952D01*
X154344666Y-121181809D01*
X154392285Y-121372285D01*
X154439904Y-121467523D01*
X154535142Y-121562761D01*
X154678000Y-121610380D01*
X154916095Y-121610380D01*
X153439904Y-120610380D02*
X153916095Y-120610380D01*
X153963714Y-121086571D01*
X153916095Y-121038952D01*
X153820857Y-120991333D01*
X153582761Y-120991333D01*
X153487523Y-121038952D01*
X153439904Y-121086571D01*
X153392285Y-121181809D01*
X153392285Y-121419904D01*
X153439904Y-121515142D01*
X153487523Y-121562761D01*
X153582761Y-121610380D01*
X153820857Y-121610380D01*
X153916095Y-121562761D01*
X153963714Y-121515142D01*
G04 #@! TO.C,R1*
X122528666Y-100782380D02*
X122862000Y-100306190D01*
X123100095Y-100782380D02*
X123100095Y-99782380D01*
X122719142Y-99782380D01*
X122623904Y-99830000D01*
X122576285Y-99877619D01*
X122528666Y-99972857D01*
X122528666Y-100115714D01*
X122576285Y-100210952D01*
X122623904Y-100258571D01*
X122719142Y-100306190D01*
X123100095Y-100306190D01*
X121576285Y-100782380D02*
X122147714Y-100782380D01*
X121862000Y-100782380D02*
X121862000Y-99782380D01*
X121957238Y-99925238D01*
X122052476Y-100020476D01*
X122147714Y-100068095D01*
G04 #@! TO.C,R2*
X122594666Y-105608380D02*
X122928000Y-105132190D01*
X123166095Y-105608380D02*
X123166095Y-104608380D01*
X122785142Y-104608380D01*
X122689904Y-104656000D01*
X122642285Y-104703619D01*
X122594666Y-104798857D01*
X122594666Y-104941714D01*
X122642285Y-105036952D01*
X122689904Y-105084571D01*
X122785142Y-105132190D01*
X123166095Y-105132190D01*
X122213714Y-104703619D02*
X122166095Y-104656000D01*
X122070857Y-104608380D01*
X121832761Y-104608380D01*
X121737523Y-104656000D01*
X121689904Y-104703619D01*
X121642285Y-104798857D01*
X121642285Y-104894095D01*
X121689904Y-105036952D01*
X122261333Y-105608380D01*
X121642285Y-105608380D01*
G04 #@! TO.C,R3*
X122594666Y-110434380D02*
X122928000Y-109958190D01*
X123166095Y-110434380D02*
X123166095Y-109434380D01*
X122785142Y-109434380D01*
X122689904Y-109482000D01*
X122642285Y-109529619D01*
X122594666Y-109624857D01*
X122594666Y-109767714D01*
X122642285Y-109862952D01*
X122689904Y-109910571D01*
X122785142Y-109958190D01*
X123166095Y-109958190D01*
X122261333Y-109434380D02*
X121642285Y-109434380D01*
X121975619Y-109815333D01*
X121832761Y-109815333D01*
X121737523Y-109862952D01*
X121689904Y-109910571D01*
X121642285Y-110005809D01*
X121642285Y-110243904D01*
X121689904Y-110339142D01*
X121737523Y-110386761D01*
X121832761Y-110434380D01*
X122118476Y-110434380D01*
X122213714Y-110386761D01*
X122261333Y-110339142D01*
G04 #@! TO.C,R4*
X167552666Y-121356380D02*
X167886000Y-120880190D01*
X168124095Y-121356380D02*
X168124095Y-120356380D01*
X167743142Y-120356380D01*
X167647904Y-120404000D01*
X167600285Y-120451619D01*
X167552666Y-120546857D01*
X167552666Y-120689714D01*
X167600285Y-120784952D01*
X167647904Y-120832571D01*
X167743142Y-120880190D01*
X168124095Y-120880190D01*
X166695523Y-120689714D02*
X166695523Y-121356380D01*
X166933619Y-120308761D02*
X167171714Y-121023047D01*
X166552666Y-121023047D01*
G04 #@! TO.C,R5*
X137834666Y-121610380D02*
X138168000Y-121134190D01*
X138406095Y-121610380D02*
X138406095Y-120610380D01*
X138025142Y-120610380D01*
X137929904Y-120658000D01*
X137882285Y-120705619D01*
X137834666Y-120800857D01*
X137834666Y-120943714D01*
X137882285Y-121038952D01*
X137929904Y-121086571D01*
X138025142Y-121134190D01*
X138406095Y-121134190D01*
X136929904Y-120610380D02*
X137406095Y-120610380D01*
X137453714Y-121086571D01*
X137406095Y-121038952D01*
X137310857Y-120991333D01*
X137072761Y-120991333D01*
X136977523Y-121038952D01*
X136929904Y-121086571D01*
X136882285Y-121181809D01*
X136882285Y-121419904D01*
X136929904Y-121515142D01*
X136977523Y-121562761D01*
X137072761Y-121610380D01*
X137310857Y-121610380D01*
X137406095Y-121562761D01*
X137453714Y-121515142D01*
G04 #@! TO.C,R8*
X184824666Y-79446380D02*
X185158000Y-78970190D01*
X185396095Y-79446380D02*
X185396095Y-78446380D01*
X185015142Y-78446380D01*
X184919904Y-78494000D01*
X184872285Y-78541619D01*
X184824666Y-78636857D01*
X184824666Y-78779714D01*
X184872285Y-78874952D01*
X184919904Y-78922571D01*
X185015142Y-78970190D01*
X185396095Y-78970190D01*
X184253238Y-78874952D02*
X184348476Y-78827333D01*
X184396095Y-78779714D01*
X184443714Y-78684476D01*
X184443714Y-78636857D01*
X184396095Y-78541619D01*
X184348476Y-78494000D01*
X184253238Y-78446380D01*
X184062761Y-78446380D01*
X183967523Y-78494000D01*
X183919904Y-78541619D01*
X183872285Y-78636857D01*
X183872285Y-78684476D01*
X183919904Y-78779714D01*
X183967523Y-78827333D01*
X184062761Y-78874952D01*
X184253238Y-78874952D01*
X184348476Y-78922571D01*
X184396095Y-78970190D01*
X184443714Y-79065428D01*
X184443714Y-79255904D01*
X184396095Y-79351142D01*
X184348476Y-79398761D01*
X184253238Y-79446380D01*
X184062761Y-79446380D01*
X183967523Y-79398761D01*
X183919904Y-79351142D01*
X183872285Y-79255904D01*
X183872285Y-79065428D01*
X183919904Y-78970190D01*
X183967523Y-78922571D01*
X184062761Y-78874952D01*
G04 #@! TO.C,R9*
X184824666Y-81986380D02*
X185158000Y-81510190D01*
X185396095Y-81986380D02*
X185396095Y-80986380D01*
X185015142Y-80986380D01*
X184919904Y-81034000D01*
X184872285Y-81081619D01*
X184824666Y-81176857D01*
X184824666Y-81319714D01*
X184872285Y-81414952D01*
X184919904Y-81462571D01*
X185015142Y-81510190D01*
X185396095Y-81510190D01*
X184348476Y-81986380D02*
X184158000Y-81986380D01*
X184062761Y-81938761D01*
X184015142Y-81891142D01*
X183919904Y-81748285D01*
X183872285Y-81557809D01*
X183872285Y-81176857D01*
X183919904Y-81081619D01*
X183967523Y-81034000D01*
X184062761Y-80986380D01*
X184253238Y-80986380D01*
X184348476Y-81034000D01*
X184396095Y-81081619D01*
X184443714Y-81176857D01*
X184443714Y-81414952D01*
X184396095Y-81510190D01*
X184348476Y-81557809D01*
X184253238Y-81605428D01*
X184062761Y-81605428D01*
X183967523Y-81557809D01*
X183919904Y-81510190D01*
X183872285Y-81414952D01*
G04 #@! TO.C,R10*
X203334857Y-73858380D02*
X203668190Y-73382190D01*
X203906285Y-73858380D02*
X203906285Y-72858380D01*
X203525333Y-72858380D01*
X203430095Y-72906000D01*
X203382476Y-72953619D01*
X203334857Y-73048857D01*
X203334857Y-73191714D01*
X203382476Y-73286952D01*
X203430095Y-73334571D01*
X203525333Y-73382190D01*
X203906285Y-73382190D01*
X202382476Y-73858380D02*
X202953904Y-73858380D01*
X202668190Y-73858380D02*
X202668190Y-72858380D01*
X202763428Y-73001238D01*
X202858666Y-73096476D01*
X202953904Y-73144095D01*
X201763428Y-72858380D02*
X201668190Y-72858380D01*
X201572952Y-72906000D01*
X201525333Y-72953619D01*
X201477714Y-73048857D01*
X201430095Y-73239333D01*
X201430095Y-73477428D01*
X201477714Y-73667904D01*
X201525333Y-73763142D01*
X201572952Y-73810761D01*
X201668190Y-73858380D01*
X201763428Y-73858380D01*
X201858666Y-73810761D01*
X201906285Y-73763142D01*
X201953904Y-73667904D01*
X202001523Y-73477428D01*
X202001523Y-73239333D01*
X201953904Y-73048857D01*
X201906285Y-72953619D01*
X201858666Y-72906000D01*
X201763428Y-72858380D01*
G04 #@! TO.C,C1*
X204128666Y-82907142D02*
X204176285Y-82954761D01*
X204319142Y-83002380D01*
X204414380Y-83002380D01*
X204557238Y-82954761D01*
X204652476Y-82859523D01*
X204700095Y-82764285D01*
X204747714Y-82573809D01*
X204747714Y-82430952D01*
X204700095Y-82240476D01*
X204652476Y-82145238D01*
X204557238Y-82050000D01*
X204414380Y-82002380D01*
X204319142Y-82002380D01*
X204176285Y-82050000D01*
X204128666Y-82097619D01*
X203176285Y-83002380D02*
X203747714Y-83002380D01*
X203462000Y-83002380D02*
X203462000Y-82002380D01*
X203557238Y-82145238D01*
X203652476Y-82240476D01*
X203747714Y-82288095D01*
G04 #@! TO.C,C2*
X201842666Y-82907142D02*
X201890285Y-82954761D01*
X202033142Y-83002380D01*
X202128380Y-83002380D01*
X202271238Y-82954761D01*
X202366476Y-82859523D01*
X202414095Y-82764285D01*
X202461714Y-82573809D01*
X202461714Y-82430952D01*
X202414095Y-82240476D01*
X202366476Y-82145238D01*
X202271238Y-82050000D01*
X202128380Y-82002380D01*
X202033142Y-82002380D01*
X201890285Y-82050000D01*
X201842666Y-82097619D01*
X201461714Y-82097619D02*
X201414095Y-82050000D01*
X201318857Y-82002380D01*
X201080761Y-82002380D01*
X200985523Y-82050000D01*
X200937904Y-82097619D01*
X200890285Y-82192857D01*
X200890285Y-82288095D01*
X200937904Y-82430952D01*
X201509333Y-83002380D01*
X200890285Y-83002380D01*
G04 #@! TO.C,C3*
X184824666Y-84177142D02*
X184872285Y-84224761D01*
X185015142Y-84272380D01*
X185110380Y-84272380D01*
X185253238Y-84224761D01*
X185348476Y-84129523D01*
X185396095Y-84034285D01*
X185443714Y-83843809D01*
X185443714Y-83700952D01*
X185396095Y-83510476D01*
X185348476Y-83415238D01*
X185253238Y-83320000D01*
X185110380Y-83272380D01*
X185015142Y-83272380D01*
X184872285Y-83320000D01*
X184824666Y-83367619D01*
X184491333Y-83272380D02*
X183872285Y-83272380D01*
X184205619Y-83653333D01*
X184062761Y-83653333D01*
X183967523Y-83700952D01*
X183919904Y-83748571D01*
X183872285Y-83843809D01*
X183872285Y-84081904D01*
X183919904Y-84177142D01*
X183967523Y-84224761D01*
X184062761Y-84272380D01*
X184348476Y-84272380D01*
X184443714Y-84224761D01*
X184491333Y-84177142D01*
G04 #@! TO.C,C4*
X130881666Y-74271142D02*
X130929285Y-74318761D01*
X131072142Y-74366380D01*
X131167380Y-74366380D01*
X131310238Y-74318761D01*
X131405476Y-74223523D01*
X131453095Y-74128285D01*
X131500714Y-73937809D01*
X131500714Y-73794952D01*
X131453095Y-73604476D01*
X131405476Y-73509238D01*
X131310238Y-73414000D01*
X131167380Y-73366380D01*
X131072142Y-73366380D01*
X130929285Y-73414000D01*
X130881666Y-73461619D01*
X130024523Y-73699714D02*
X130024523Y-74366380D01*
X130262619Y-73318761D02*
X130500714Y-74033047D01*
X129881666Y-74033047D01*
G04 #@! TO.C,C5*
X130976666Y-77319142D02*
X131024285Y-77366761D01*
X131167142Y-77414380D01*
X131262380Y-77414380D01*
X131405238Y-77366761D01*
X131500476Y-77271523D01*
X131548095Y-77176285D01*
X131595714Y-76985809D01*
X131595714Y-76842952D01*
X131548095Y-76652476D01*
X131500476Y-76557238D01*
X131405238Y-76462000D01*
X131262380Y-76414380D01*
X131167142Y-76414380D01*
X131024285Y-76462000D01*
X130976666Y-76509619D01*
X130071904Y-76414380D02*
X130548095Y-76414380D01*
X130595714Y-76890571D01*
X130548095Y-76842952D01*
X130452857Y-76795333D01*
X130214761Y-76795333D01*
X130119523Y-76842952D01*
X130071904Y-76890571D01*
X130024285Y-76985809D01*
X130024285Y-77223904D01*
X130071904Y-77319142D01*
X130119523Y-77366761D01*
X130214761Y-77414380D01*
X130452857Y-77414380D01*
X130548095Y-77366761D01*
X130595714Y-77319142D01*
G04 #@! TO.C,C0*
X202858666Y-94083142D02*
X202906285Y-94130761D01*
X203049142Y-94178380D01*
X203144380Y-94178380D01*
X203287238Y-94130761D01*
X203382476Y-94035523D01*
X203430095Y-93940285D01*
X203477714Y-93749809D01*
X203477714Y-93606952D01*
X203430095Y-93416476D01*
X203382476Y-93321238D01*
X203287238Y-93226000D01*
X203144380Y-93178380D01*
X203049142Y-93178380D01*
X202906285Y-93226000D01*
X202858666Y-93273619D01*
X202239619Y-93178380D02*
X202144380Y-93178380D01*
X202049142Y-93226000D01*
X202001523Y-93273619D01*
X201953904Y-93368857D01*
X201906285Y-93559333D01*
X201906285Y-93797428D01*
X201953904Y-93987904D01*
X202001523Y-94083142D01*
X202049142Y-94130761D01*
X202144380Y-94178380D01*
X202239619Y-94178380D01*
X202334857Y-94130761D01*
X202382476Y-94083142D01*
X202430095Y-93987904D01*
X202477714Y-93797428D01*
X202477714Y-93559333D01*
X202430095Y-93368857D01*
X202382476Y-93273619D01*
X202334857Y-93226000D01*
X202239619Y-93178380D01*
G04 #@! TO.C,D6*
X179554095Y-74112380D02*
X179554095Y-73112380D01*
X179316000Y-73112380D01*
X179173142Y-73160000D01*
X179077904Y-73255238D01*
X179030285Y-73350476D01*
X178982666Y-73540952D01*
X178982666Y-73683809D01*
X179030285Y-73874285D01*
X179077904Y-73969523D01*
X179173142Y-74064761D01*
X179316000Y-74112380D01*
X179554095Y-74112380D01*
X178125523Y-73112380D02*
X178316000Y-73112380D01*
X178411238Y-73160000D01*
X178458857Y-73207619D01*
X178554095Y-73350476D01*
X178601714Y-73540952D01*
X178601714Y-73921904D01*
X178554095Y-74017142D01*
X178506476Y-74064761D01*
X178411238Y-74112380D01*
X178220761Y-74112380D01*
X178125523Y-74064761D01*
X178077904Y-74017142D01*
X178030285Y-73921904D01*
X178030285Y-73683809D01*
X178077904Y-73588571D01*
X178125523Y-73540952D01*
X178220761Y-73493333D01*
X178411238Y-73493333D01*
X178506476Y-73540952D01*
X178554095Y-73588571D01*
X178601714Y-73683809D01*
G04 #@! TO.C,D7*
X179554095Y-76652380D02*
X179554095Y-75652380D01*
X179316000Y-75652380D01*
X179173142Y-75700000D01*
X179077904Y-75795238D01*
X179030285Y-75890476D01*
X178982666Y-76080952D01*
X178982666Y-76223809D01*
X179030285Y-76414285D01*
X179077904Y-76509523D01*
X179173142Y-76604761D01*
X179316000Y-76652380D01*
X179554095Y-76652380D01*
X178649333Y-75652380D02*
X177982666Y-75652380D01*
X178411238Y-76652380D01*
G04 #@! TO.C,R6*
X184824666Y-74112380D02*
X185158000Y-73636190D01*
X185396095Y-74112380D02*
X185396095Y-73112380D01*
X185015142Y-73112380D01*
X184919904Y-73160000D01*
X184872285Y-73207619D01*
X184824666Y-73302857D01*
X184824666Y-73445714D01*
X184872285Y-73540952D01*
X184919904Y-73588571D01*
X185015142Y-73636190D01*
X185396095Y-73636190D01*
X183967523Y-73112380D02*
X184158000Y-73112380D01*
X184253238Y-73160000D01*
X184300857Y-73207619D01*
X184396095Y-73350476D01*
X184443714Y-73540952D01*
X184443714Y-73921904D01*
X184396095Y-74017142D01*
X184348476Y-74064761D01*
X184253238Y-74112380D01*
X184062761Y-74112380D01*
X183967523Y-74064761D01*
X183919904Y-74017142D01*
X183872285Y-73921904D01*
X183872285Y-73683809D01*
X183919904Y-73588571D01*
X183967523Y-73540952D01*
X184062761Y-73493333D01*
X184253238Y-73493333D01*
X184348476Y-73540952D01*
X184396095Y-73588571D01*
X184443714Y-73683809D01*
G04 #@! TO.C,R7*
X184824666Y-76652380D02*
X185158000Y-76176190D01*
X185396095Y-76652380D02*
X185396095Y-75652380D01*
X185015142Y-75652380D01*
X184919904Y-75700000D01*
X184872285Y-75747619D01*
X184824666Y-75842857D01*
X184824666Y-75985714D01*
X184872285Y-76080952D01*
X184919904Y-76128571D01*
X185015142Y-76176190D01*
X185396095Y-76176190D01*
X184491333Y-75652380D02*
X183824666Y-75652380D01*
X184253238Y-76652380D01*
G04 #@! TO.C,R11*
X130690857Y-80208380D02*
X131024190Y-79732190D01*
X131262285Y-80208380D02*
X131262285Y-79208380D01*
X130881333Y-79208380D01*
X130786095Y-79256000D01*
X130738476Y-79303619D01*
X130690857Y-79398857D01*
X130690857Y-79541714D01*
X130738476Y-79636952D01*
X130786095Y-79684571D01*
X130881333Y-79732190D01*
X131262285Y-79732190D01*
X129738476Y-80208380D02*
X130309904Y-80208380D01*
X130024190Y-80208380D02*
X130024190Y-79208380D01*
X130119428Y-79351238D01*
X130214666Y-79446476D01*
X130309904Y-79494095D01*
X128786095Y-80208380D02*
X129357523Y-80208380D01*
X129071809Y-80208380D02*
X129071809Y-79208380D01*
X129167047Y-79351238D01*
X129262285Y-79446476D01*
X129357523Y-79494095D01*
G04 #@! TO.C,R12*
X122992357Y-74112380D02*
X123325690Y-73636190D01*
X123563785Y-74112380D02*
X123563785Y-73112380D01*
X123182833Y-73112380D01*
X123087595Y-73160000D01*
X123039976Y-73207619D01*
X122992357Y-73302857D01*
X122992357Y-73445714D01*
X123039976Y-73540952D01*
X123087595Y-73588571D01*
X123182833Y-73636190D01*
X123563785Y-73636190D01*
X122039976Y-74112380D02*
X122611404Y-74112380D01*
X122325690Y-74112380D02*
X122325690Y-73112380D01*
X122420928Y-73255238D01*
X122516166Y-73350476D01*
X122611404Y-73398095D01*
X121659023Y-73207619D02*
X121611404Y-73160000D01*
X121516166Y-73112380D01*
X121278071Y-73112380D01*
X121182833Y-73160000D01*
X121135214Y-73207619D01*
X121087595Y-73302857D01*
X121087595Y-73398095D01*
X121135214Y-73540952D01*
X121706642Y-74112380D01*
X121087595Y-74112380D01*
G04 #@! TO.C,R13*
X123227857Y-76652380D02*
X123561190Y-76176190D01*
X123799285Y-76652380D02*
X123799285Y-75652380D01*
X123418333Y-75652380D01*
X123323095Y-75700000D01*
X123275476Y-75747619D01*
X123227857Y-75842857D01*
X123227857Y-75985714D01*
X123275476Y-76080952D01*
X123323095Y-76128571D01*
X123418333Y-76176190D01*
X123799285Y-76176190D01*
X122275476Y-76652380D02*
X122846904Y-76652380D01*
X122561190Y-76652380D02*
X122561190Y-75652380D01*
X122656428Y-75795238D01*
X122751666Y-75890476D01*
X122846904Y-75938095D01*
X121942142Y-75652380D02*
X121323095Y-75652380D01*
X121656428Y-76033333D01*
X121513571Y-76033333D01*
X121418333Y-76080952D01*
X121370714Y-76128571D01*
X121323095Y-76223809D01*
X121323095Y-76461904D01*
X121370714Y-76557142D01*
X121418333Y-76604761D01*
X121513571Y-76652380D01*
X121799285Y-76652380D01*
X121894523Y-76604761D01*
X121942142Y-76557142D01*
G04 #@! TO.C,R14*
X123149357Y-79192380D02*
X123482690Y-78716190D01*
X123720785Y-79192380D02*
X123720785Y-78192380D01*
X123339833Y-78192380D01*
X123244595Y-78240000D01*
X123196976Y-78287619D01*
X123149357Y-78382857D01*
X123149357Y-78525714D01*
X123196976Y-78620952D01*
X123244595Y-78668571D01*
X123339833Y-78716190D01*
X123720785Y-78716190D01*
X122196976Y-79192380D02*
X122768404Y-79192380D01*
X122482690Y-79192380D02*
X122482690Y-78192380D01*
X122577928Y-78335238D01*
X122673166Y-78430476D01*
X122768404Y-78478095D01*
X121339833Y-78525714D02*
X121339833Y-79192380D01*
X121577928Y-78144761D02*
X121816023Y-78859047D01*
X121196976Y-78859047D01*
G04 #@! TO.C,R15*
X123070857Y-81732380D02*
X123404190Y-81256190D01*
X123642285Y-81732380D02*
X123642285Y-80732380D01*
X123261333Y-80732380D01*
X123166095Y-80780000D01*
X123118476Y-80827619D01*
X123070857Y-80922857D01*
X123070857Y-81065714D01*
X123118476Y-81160952D01*
X123166095Y-81208571D01*
X123261333Y-81256190D01*
X123642285Y-81256190D01*
X122118476Y-81732380D02*
X122689904Y-81732380D01*
X122404190Y-81732380D02*
X122404190Y-80732380D01*
X122499428Y-80875238D01*
X122594666Y-80970476D01*
X122689904Y-81018095D01*
X121213714Y-80732380D02*
X121689904Y-80732380D01*
X121737523Y-81208571D01*
X121689904Y-81160952D01*
X121594666Y-81113333D01*
X121356571Y-81113333D01*
X121261333Y-81160952D01*
X121213714Y-81208571D01*
X121166095Y-81303809D01*
X121166095Y-81541904D01*
X121213714Y-81637142D01*
X121261333Y-81684761D01*
X121356571Y-81732380D01*
X121594666Y-81732380D01*
X121689904Y-81684761D01*
X121737523Y-81637142D01*
G04 #@! TD*
M02*
