M48
;DRILL file {KiCad (5.0.1-3-g963ef8bb5)} date Friday, 28 June 2019 at 13:00:35
;FORMAT={-:-/ absolute / metric / decimal}
FMAT,2
METRIC,TZ
T1C0.400
T2C0.650
T3C0.700
T4C0.950
%
G90
G05
M71
T1
X122.18Y-74.422
X125.73Y-77.47
X128.016Y-73.406
X128.016Y-77.724
X128.778Y-76.2
X129.032Y-74.93
X131.064Y-79.248
X132.334Y-81.236
X135.89Y-79.756
X137.414Y-73.152
X153.63Y-79.502
X156.464Y-73.152
X156.464Y-74.168
X167.386Y-74.168
X169.926Y-78.232
X172.466Y-73.152
X172.83Y-81.12
X173.228Y-72.644
X178.816Y-78.994
X179.578Y-83.82
X182.626Y-87.63
X184.658Y-82.55
X184.912Y-85.046
X185.166Y-77.216
X185.42Y-75.946
X185.674Y-80.772
X186.69Y-73.914
X187.21Y-93.96
X187.452Y-73.914
X188.468Y-87.122
X189.23Y-81.534
X189.23Y-83.058
X189.5Y-96.23
X190.246Y-83.566
X190.5Y-72.136
X191.008Y-75.438
X191.262Y-72.644
X191.516Y-87.376
X192.024Y-89.662
X192.278Y-78.994
X194.818Y-88.392
X195.326Y-84.328
X195.834Y-76.81
X196.088Y-78.442
X196.532Y-72.898
X196.85Y-77.47
X198.374Y-84.836
X199.898Y-76.2
X200.1Y-98.2
X200.914Y-96.012
X201.676Y-87.884
X201.676Y-111.252
X202.94Y-125.12
X202.946Y-76.454
T4
X154.178Y-73.914
X141.224Y-74.168
X141.224Y-76.708
X141.224Y-79.248
X147.828Y-74.168
X147.828Y-76.708
T2
X159.985Y-77.1G85X159.985Y-77.5
G05
X164.835Y-77.5G85X164.835Y-77.1
G05
T3
X159.685Y-74.02G85X159.685Y-74.52
G05
X165.135Y-74.02G85X165.135Y-74.52
G05
T0
M30
