%FSLAX45Y45*%
G04 Gerber Fmt 4.5, Leading zero omitted, Abs format (unit mm)*
G04 Created by KiCad (PCBNEW (5.0.1-3-g963ef8bb5)) date Friday, 28 June 2019 at 12:59:35*
%MOMM*%
%LPD*%
G01*
G04 APERTURE LIST*
%ADD10C,0.150000*%
%ADD11C,0.200000*%
%ADD12C,0.300000*%
G04 APERTURE END LIST*
D10*
X11931000Y-12311000D02*
X11931000Y-7605000D01*
X20035000Y-12815000D02*
X12434000Y-12815000D01*
X20034000Y-7100000D02*
X12433000Y-7100000D01*
X20538000Y-12313000D02*
X20538000Y-7605000D01*
X12435000Y-12815000D02*
G75*
G02X11931000Y-12311000I0J504000D01*
G01*
X20538000Y-12311000D02*
G75*
G02X20034000Y-12815000I-504000J0D01*
G01*
X20034000Y-7100000D02*
G75*
G02X20538000Y-7604000I0J-504000D01*
G01*
X11931000Y-7604000D02*
G75*
G02X12435000Y-7100000I504000J0D01*
G01*
D11*
D12*
X12209928Y-13288214D02*
X12209928Y-12988214D01*
X12281357Y-12988214D01*
X12324214Y-13002500D01*
X12352786Y-13031071D01*
X12367071Y-13059643D01*
X12381357Y-13116786D01*
X12381357Y-13159643D01*
X12367071Y-13216786D01*
X12352786Y-13245357D01*
X12324214Y-13273929D01*
X12281357Y-13288214D01*
X12209928Y-13288214D01*
X12509928Y-13288214D02*
X12509928Y-13088214D01*
X12509928Y-13145357D02*
X12524214Y-13116786D01*
X12538500Y-13102500D01*
X12567071Y-13088214D01*
X12595643Y-13088214D01*
X12695643Y-13288214D02*
X12695643Y-13088214D01*
X12695643Y-12988214D02*
X12681357Y-13002500D01*
X12695643Y-13016786D01*
X12709928Y-13002500D01*
X12695643Y-12988214D01*
X12695643Y-13016786D01*
X12881357Y-13288214D02*
X12852786Y-13273929D01*
X12838500Y-13245357D01*
X12838500Y-12988214D01*
X13038500Y-13288214D02*
X13009928Y-13273929D01*
X12995643Y-13245357D01*
X12995643Y-12988214D01*
X13381357Y-13288214D02*
X13381357Y-12988214D01*
X13481357Y-13202500D01*
X13581357Y-12988214D01*
X13581357Y-13288214D01*
X13852786Y-13288214D02*
X13852786Y-13131071D01*
X13838500Y-13102500D01*
X13809928Y-13088214D01*
X13752786Y-13088214D01*
X13724214Y-13102500D01*
X13852786Y-13273929D02*
X13824214Y-13288214D01*
X13752786Y-13288214D01*
X13724214Y-13273929D01*
X13709928Y-13245357D01*
X13709928Y-13216786D01*
X13724214Y-13188214D01*
X13752786Y-13173929D01*
X13824214Y-13173929D01*
X13852786Y-13159643D01*
X13995643Y-13088214D02*
X13995643Y-13388214D01*
X13995643Y-13102500D02*
X14024214Y-13088214D01*
X14081357Y-13088214D01*
X14109928Y-13102500D01*
X14124214Y-13116786D01*
X14138500Y-13145357D01*
X14138500Y-13231071D01*
X14124214Y-13259643D01*
X14109928Y-13273929D01*
X14081357Y-13288214D01*
X14024214Y-13288214D01*
X13995643Y-13273929D01*
X14267071Y-13259643D02*
X14281357Y-13273929D01*
X14267071Y-13288214D01*
X14252786Y-13273929D01*
X14267071Y-13259643D01*
X14267071Y-13288214D01*
X14267071Y-13102500D02*
X14281357Y-13116786D01*
X14267071Y-13131071D01*
X14252786Y-13116786D01*
X14267071Y-13102500D01*
X14267071Y-13131071D01*
M02*
