G04 #@! TF.FileFunction,Paste,Bot*
%FSLAX46Y46*%
G04 Gerber Fmt 4.6, Leading zero omitted, Abs format (unit mm)*
G04 Created by KiCad (PCBNEW 4.0.4-stable) date Saturday, 28 October 2017 'AMt' 09:45:45*
%MOMM*%
%LPD*%
G01*
G04 APERTURE LIST*
%ADD10C,0.100000*%
%ADD11R,1.500000X0.550000*%
%ADD12R,0.550000X1.500000*%
%ADD13R,0.400000X1.350000*%
%ADD14R,1.140000X2.030000*%
%ADD15R,1.200000X1.400000*%
%ADD16R,1.200000X1.200000*%
%ADD17R,0.700000X1.300000*%
%ADD18R,1.250000X1.000000*%
%ADD19R,1.000000X1.250000*%
%ADD20R,1.550000X1.800000*%
G04 APERTURE END LIST*
D10*
D11*
X186832000Y-84010000D03*
X186832000Y-83210000D03*
X186832000Y-82410000D03*
X186832000Y-81610000D03*
X186832000Y-80810000D03*
X186832000Y-80010000D03*
X186832000Y-79210000D03*
X186832000Y-78410000D03*
X186832000Y-77610000D03*
X186832000Y-76810000D03*
X186832000Y-76010000D03*
D12*
X188532000Y-74310000D03*
X189332000Y-74310000D03*
X190132000Y-74310000D03*
X190932000Y-74310000D03*
X191732000Y-74310000D03*
X192532000Y-74310000D03*
X193332000Y-74310000D03*
X194132000Y-74310000D03*
X194932000Y-74310000D03*
X195732000Y-74310000D03*
X196532000Y-74310000D03*
D11*
X198232000Y-76010000D03*
X198232000Y-76810000D03*
X198232000Y-77610000D03*
X198232000Y-78410000D03*
X198232000Y-79210000D03*
X198232000Y-80010000D03*
X198232000Y-80810000D03*
X198232000Y-81610000D03*
X198232000Y-82410000D03*
X198232000Y-83210000D03*
X198232000Y-84010000D03*
D12*
X196532000Y-85710000D03*
X195732000Y-85710000D03*
X194932000Y-85710000D03*
X194132000Y-85710000D03*
X193332000Y-85710000D03*
X192532000Y-85710000D03*
X191732000Y-85710000D03*
X190932000Y-85710000D03*
X190132000Y-85710000D03*
X189332000Y-85710000D03*
X188532000Y-85710000D03*
D13*
X160751100Y-77000540D03*
X161401100Y-77000540D03*
X162051100Y-77000540D03*
X162701100Y-77000540D03*
X163351100Y-77000540D03*
D14*
X168218000Y-73914000D03*
X170618000Y-73914000D03*
D15*
X202146000Y-80856000D03*
X202146000Y-78656000D03*
X203746000Y-80856000D03*
X203746000Y-78656000D03*
D16*
X194140000Y-100330000D03*
X191940000Y-100330000D03*
X194140000Y-105156000D03*
X191940000Y-105156000D03*
X194140000Y-109982000D03*
X191940000Y-109982000D03*
X181948000Y-120904000D03*
X179748000Y-120904000D03*
X151722000Y-121158000D03*
X149522000Y-121158000D03*
D17*
X131252000Y-100330000D03*
X129352000Y-100330000D03*
X131252000Y-105156000D03*
X129352000Y-105156000D03*
X131252000Y-109982000D03*
X129352000Y-109982000D03*
X171384000Y-120904000D03*
X169484000Y-120904000D03*
X141412000Y-121158000D03*
X139512000Y-121158000D03*
X182814000Y-78994000D03*
X180914000Y-78994000D03*
X182814000Y-81534000D03*
X180914000Y-81534000D03*
X202250000Y-75184000D03*
X204150000Y-75184000D03*
D18*
X203962000Y-84090000D03*
X203962000Y-86090000D03*
X201676000Y-84090000D03*
X201676000Y-86090000D03*
D19*
X182864000Y-83820000D03*
X180864000Y-83820000D03*
D20*
X154845000Y-73914000D03*
X152495000Y-73914000D03*
X154845000Y-76962000D03*
X152495000Y-76962000D03*
X192119000Y-93726000D03*
X194469000Y-93726000D03*
D16*
X174668000Y-73660000D03*
X176868000Y-73660000D03*
X174668000Y-76200000D03*
X176868000Y-76200000D03*
D17*
X182814000Y-73660000D03*
X180914000Y-73660000D03*
X182814000Y-76200000D03*
X180914000Y-76200000D03*
M02*
