G04 #@! TF.FileFunction,Copper,L1,Top,Signal*
%FSLAX46Y46*%
G04 Gerber Fmt 4.6, Leading zero omitted, Abs format (unit mm)*
G04 Created by KiCad (PCBNEW 4.0.4-stable) date Saturday, 28 October 2017 'AMt' 09:45:45*
%MOMM*%
%LPD*%
G01*
G04 APERTURE LIST*
%ADD10C,0.100000*%
%ADD11C,0.010000*%
%ADD12O,1.250000X0.950000*%
%ADD13O,1.000000X1.550000*%
%ADD14C,0.200000*%
%ADD15C,0.300000*%
%ADD16R,2.000000X2.000000*%
%ADD17C,2.000000*%
%ADD18C,0.600000*%
%ADD19C,0.300000*%
%ADD20C,0.250000*%
%ADD21C,0.254000*%
G04 APERTURE END LIST*
D10*
D11*
G36*
X181259444Y-98075703D02*
X181354512Y-98125955D01*
X181417686Y-98197177D01*
X181377816Y-98299655D01*
X181248875Y-98446588D01*
X181104435Y-98624870D01*
X181084972Y-98741567D01*
X181115149Y-98785282D01*
X181188115Y-98951215D01*
X181216874Y-99214875D01*
X181201785Y-99510629D01*
X181143206Y-99772840D01*
X181109312Y-99850606D01*
X180904763Y-100081120D01*
X180593238Y-100266049D01*
X180236145Y-100377714D01*
X179910867Y-100390760D01*
X179690387Y-100377746D01*
X179552049Y-100400413D01*
X179536615Y-100413132D01*
X179551131Y-100521742D01*
X179731005Y-100621727D01*
X180072403Y-100711389D01*
X180300939Y-100751579D01*
X180785058Y-100861398D01*
X181118127Y-101020015D01*
X181313323Y-101234952D01*
X181360951Y-101356692D01*
X181368681Y-101684460D01*
X181244640Y-102007077D01*
X181016101Y-102261265D01*
X180953356Y-102302390D01*
X180644553Y-102418379D01*
X180241411Y-102484779D01*
X179813179Y-102495740D01*
X179429105Y-102445411D01*
X179388060Y-102434634D01*
X179135331Y-102315353D01*
X178896021Y-102125244D01*
X178717383Y-101910176D01*
X178646669Y-101716020D01*
X178646666Y-101714937D01*
X178656649Y-101674555D01*
X179426972Y-101674555D01*
X179557274Y-101861284D01*
X179596838Y-101891532D01*
X179886069Y-102004513D01*
X180216712Y-102006258D01*
X180430232Y-101935687D01*
X180560120Y-101783515D01*
X180586654Y-101572017D01*
X180503816Y-101380431D01*
X180474554Y-101352269D01*
X180312852Y-101272119D01*
X180076989Y-101208321D01*
X180049306Y-101203514D01*
X179766739Y-101212154D01*
X179553978Y-101316120D01*
X179433298Y-101481544D01*
X179426972Y-101674555D01*
X178656649Y-101674555D01*
X178699127Y-101502745D01*
X178822665Y-101281685D01*
X178949777Y-101154417D01*
X179012945Y-101077229D01*
X178978860Y-100940186D01*
X178939977Y-100860737D01*
X178870032Y-100684772D01*
X178890287Y-100533012D01*
X178975863Y-100369368D01*
X179072997Y-100187452D01*
X179080056Y-100070995D01*
X178996602Y-99941791D01*
X178973303Y-99912835D01*
X178849921Y-99642374D01*
X178817749Y-99314000D01*
X179578000Y-99314000D01*
X179612450Y-99570564D01*
X179698497Y-99759718D01*
X179711047Y-99773619D01*
X179918773Y-99886381D01*
X180156496Y-99891262D01*
X180323066Y-99805066D01*
X180390121Y-99648789D01*
X180420097Y-99398862D01*
X180412992Y-99126861D01*
X180368809Y-98904361D01*
X180323066Y-98822933D01*
X180125859Y-98730977D01*
X179887381Y-98750565D01*
X179711047Y-98854380D01*
X179620556Y-99029431D01*
X179578550Y-99282643D01*
X179578000Y-99314000D01*
X178817749Y-99314000D01*
X178816000Y-99296153D01*
X178833280Y-99013788D01*
X178907352Y-98815686D01*
X179071561Y-98618407D01*
X179097189Y-98592544D01*
X179466027Y-98333893D01*
X179895821Y-98232574D01*
X180360796Y-98283977D01*
X180597527Y-98331705D01*
X180741834Y-98313273D01*
X180861003Y-98218789D01*
X180870110Y-98209105D01*
X181064446Y-98064744D01*
X181259444Y-98075703D01*
X181259444Y-98075703D01*
G37*
X181259444Y-98075703D02*
X181354512Y-98125955D01*
X181417686Y-98197177D01*
X181377816Y-98299655D01*
X181248875Y-98446588D01*
X181104435Y-98624870D01*
X181084972Y-98741567D01*
X181115149Y-98785282D01*
X181188115Y-98951215D01*
X181216874Y-99214875D01*
X181201785Y-99510629D01*
X181143206Y-99772840D01*
X181109312Y-99850606D01*
X180904763Y-100081120D01*
X180593238Y-100266049D01*
X180236145Y-100377714D01*
X179910867Y-100390760D01*
X179690387Y-100377746D01*
X179552049Y-100400413D01*
X179536615Y-100413132D01*
X179551131Y-100521742D01*
X179731005Y-100621727D01*
X180072403Y-100711389D01*
X180300939Y-100751579D01*
X180785058Y-100861398D01*
X181118127Y-101020015D01*
X181313323Y-101234952D01*
X181360951Y-101356692D01*
X181368681Y-101684460D01*
X181244640Y-102007077D01*
X181016101Y-102261265D01*
X180953356Y-102302390D01*
X180644553Y-102418379D01*
X180241411Y-102484779D01*
X179813179Y-102495740D01*
X179429105Y-102445411D01*
X179388060Y-102434634D01*
X179135331Y-102315353D01*
X178896021Y-102125244D01*
X178717383Y-101910176D01*
X178646669Y-101716020D01*
X178646666Y-101714937D01*
X178656649Y-101674555D01*
X179426972Y-101674555D01*
X179557274Y-101861284D01*
X179596838Y-101891532D01*
X179886069Y-102004513D01*
X180216712Y-102006258D01*
X180430232Y-101935687D01*
X180560120Y-101783515D01*
X180586654Y-101572017D01*
X180503816Y-101380431D01*
X180474554Y-101352269D01*
X180312852Y-101272119D01*
X180076989Y-101208321D01*
X180049306Y-101203514D01*
X179766739Y-101212154D01*
X179553978Y-101316120D01*
X179433298Y-101481544D01*
X179426972Y-101674555D01*
X178656649Y-101674555D01*
X178699127Y-101502745D01*
X178822665Y-101281685D01*
X178949777Y-101154417D01*
X179012945Y-101077229D01*
X178978860Y-100940186D01*
X178939977Y-100860737D01*
X178870032Y-100684772D01*
X178890287Y-100533012D01*
X178975863Y-100369368D01*
X179072997Y-100187452D01*
X179080056Y-100070995D01*
X178996602Y-99941791D01*
X178973303Y-99912835D01*
X178849921Y-99642374D01*
X178817749Y-99314000D01*
X179578000Y-99314000D01*
X179612450Y-99570564D01*
X179698497Y-99759718D01*
X179711047Y-99773619D01*
X179918773Y-99886381D01*
X180156496Y-99891262D01*
X180323066Y-99805066D01*
X180390121Y-99648789D01*
X180420097Y-99398862D01*
X180412992Y-99126861D01*
X180368809Y-98904361D01*
X180323066Y-98822933D01*
X180125859Y-98730977D01*
X179887381Y-98750565D01*
X179711047Y-98854380D01*
X179620556Y-99029431D01*
X179578550Y-99282643D01*
X179578000Y-99314000D01*
X178817749Y-99314000D01*
X178816000Y-99296153D01*
X178833280Y-99013788D01*
X178907352Y-98815686D01*
X179071561Y-98618407D01*
X179097189Y-98592544D01*
X179466027Y-98333893D01*
X179895821Y-98232574D01*
X180360796Y-98283977D01*
X180597527Y-98331705D01*
X180741834Y-98313273D01*
X180861003Y-98218789D01*
X180870110Y-98209105D01*
X181064446Y-98064744D01*
X181259444Y-98075703D01*
G36*
X140716000Y-98509666D02*
X140775530Y-98536781D01*
X140819201Y-98590425D01*
X140849460Y-98694053D01*
X140868754Y-98871126D01*
X140879532Y-99145099D01*
X140884241Y-99539430D01*
X140885329Y-100077578D01*
X140885333Y-100132409D01*
X140882328Y-100728042D01*
X140872144Y-101179153D01*
X140853024Y-101510468D01*
X140823212Y-101746710D01*
X140780951Y-101912606D01*
X140754253Y-101977639D01*
X140545125Y-102252226D01*
X140258366Y-102409299D01*
X139939843Y-102428888D01*
X139805833Y-102390593D01*
X139730583Y-102284137D01*
X139700000Y-102093017D01*
X139738344Y-101887336D01*
X139870082Y-101793715D01*
X139875829Y-101792166D01*
X139989632Y-101739002D01*
X140074891Y-101632997D01*
X140135437Y-101452910D01*
X140175096Y-101177495D01*
X140197699Y-100785508D01*
X140207074Y-100255707D01*
X140208000Y-99949193D01*
X140209114Y-99434753D01*
X140214423Y-99064583D01*
X140226874Y-98813627D01*
X140249414Y-98656825D01*
X140284991Y-98569119D01*
X140336552Y-98525452D01*
X140377333Y-98509666D01*
X140602515Y-98489567D01*
X140716000Y-98509666D01*
X140716000Y-98509666D01*
G37*
X140716000Y-98509666D02*
X140775530Y-98536781D01*
X140819201Y-98590425D01*
X140849460Y-98694053D01*
X140868754Y-98871126D01*
X140879532Y-99145099D01*
X140884241Y-99539430D01*
X140885329Y-100077578D01*
X140885333Y-100132409D01*
X140882328Y-100728042D01*
X140872144Y-101179153D01*
X140853024Y-101510468D01*
X140823212Y-101746710D01*
X140780951Y-101912606D01*
X140754253Y-101977639D01*
X140545125Y-102252226D01*
X140258366Y-102409299D01*
X139939843Y-102428888D01*
X139805833Y-102390593D01*
X139730583Y-102284137D01*
X139700000Y-102093017D01*
X139738344Y-101887336D01*
X139870082Y-101793715D01*
X139875829Y-101792166D01*
X139989632Y-101739002D01*
X140074891Y-101632997D01*
X140135437Y-101452910D01*
X140175096Y-101177495D01*
X140197699Y-100785508D01*
X140207074Y-100255707D01*
X140208000Y-99949193D01*
X140209114Y-99434753D01*
X140214423Y-99064583D01*
X140226874Y-98813627D01*
X140249414Y-98656825D01*
X140284991Y-98569119D01*
X140336552Y-98525452D01*
X140377333Y-98509666D01*
X140602515Y-98489567D01*
X140716000Y-98509666D01*
G36*
X142742223Y-98517956D02*
X143110381Y-98619024D01*
X143236405Y-98686113D01*
X143434943Y-98876524D01*
X143570351Y-99158552D01*
X143649380Y-99555122D01*
X143678783Y-100089160D01*
X143679333Y-100189913D01*
X143671845Y-100600676D01*
X143646697Y-100871483D01*
X143599860Y-101031161D01*
X143553432Y-101091087D01*
X143389028Y-101151825D01*
X143196217Y-101134510D01*
X143045340Y-101055432D01*
X143002000Y-100963386D01*
X142970307Y-100852618D01*
X142866196Y-100875904D01*
X142702097Y-101010686D01*
X142436541Y-101163688D01*
X142104913Y-101229830D01*
X141794091Y-101193517D01*
X141758701Y-101180018D01*
X141570431Y-101045466D01*
X141483534Y-100933008D01*
X141406878Y-100680098D01*
X141397218Y-100385552D01*
X141400589Y-100368696D01*
X142078426Y-100368696D01*
X142146588Y-100539228D01*
X142172266Y-100567066D01*
X142374850Y-100662617D01*
X142625955Y-100600053D01*
X142729161Y-100536865D01*
X142871006Y-100380799D01*
X142917333Y-100240532D01*
X142876257Y-100120552D01*
X142725067Y-100077767D01*
X142657767Y-100076000D01*
X142355193Y-100115661D01*
X142155020Y-100220367D01*
X142078426Y-100368696D01*
X141400589Y-100368696D01*
X141450288Y-100120199D01*
X141541500Y-99970537D01*
X141764199Y-99841470D01*
X142087427Y-99733284D01*
X142442383Y-99665819D01*
X142642166Y-99653138D01*
X142840134Y-99628545D01*
X142913602Y-99540566D01*
X142917333Y-99496455D01*
X142843413Y-99273431D01*
X142646795Y-99127929D01*
X142365192Y-99083227D01*
X142264943Y-99093739D01*
X141935942Y-99146281D01*
X141739797Y-99163727D01*
X141642157Y-99137728D01*
X141608673Y-99059937D01*
X141605000Y-98933369D01*
X141627172Y-98762511D01*
X141723992Y-98657021D01*
X141940916Y-98567695D01*
X141943666Y-98566777D01*
X142328244Y-98498225D01*
X142742223Y-98517956D01*
X142742223Y-98517956D01*
G37*
X142742223Y-98517956D02*
X143110381Y-98619024D01*
X143236405Y-98686113D01*
X143434943Y-98876524D01*
X143570351Y-99158552D01*
X143649380Y-99555122D01*
X143678783Y-100089160D01*
X143679333Y-100189913D01*
X143671845Y-100600676D01*
X143646697Y-100871483D01*
X143599860Y-101031161D01*
X143553432Y-101091087D01*
X143389028Y-101151825D01*
X143196217Y-101134510D01*
X143045340Y-101055432D01*
X143002000Y-100963386D01*
X142970307Y-100852618D01*
X142866196Y-100875904D01*
X142702097Y-101010686D01*
X142436541Y-101163688D01*
X142104913Y-101229830D01*
X141794091Y-101193517D01*
X141758701Y-101180018D01*
X141570431Y-101045466D01*
X141483534Y-100933008D01*
X141406878Y-100680098D01*
X141397218Y-100385552D01*
X141400589Y-100368696D01*
X142078426Y-100368696D01*
X142146588Y-100539228D01*
X142172266Y-100567066D01*
X142374850Y-100662617D01*
X142625955Y-100600053D01*
X142729161Y-100536865D01*
X142871006Y-100380799D01*
X142917333Y-100240532D01*
X142876257Y-100120552D01*
X142725067Y-100077767D01*
X142657767Y-100076000D01*
X142355193Y-100115661D01*
X142155020Y-100220367D01*
X142078426Y-100368696D01*
X141400589Y-100368696D01*
X141450288Y-100120199D01*
X141541500Y-99970537D01*
X141764199Y-99841470D01*
X142087427Y-99733284D01*
X142442383Y-99665819D01*
X142642166Y-99653138D01*
X142840134Y-99628545D01*
X142913602Y-99540566D01*
X142917333Y-99496455D01*
X142843413Y-99273431D01*
X142646795Y-99127929D01*
X142365192Y-99083227D01*
X142264943Y-99093739D01*
X141935942Y-99146281D01*
X141739797Y-99163727D01*
X141642157Y-99137728D01*
X141608673Y-99059937D01*
X141605000Y-98933369D01*
X141627172Y-98762511D01*
X141723992Y-98657021D01*
X141940916Y-98567695D01*
X141943666Y-98566777D01*
X142328244Y-98498225D01*
X142742223Y-98517956D01*
G36*
X150579620Y-98629217D02*
X150899641Y-98884020D01*
X150908389Y-98894290D01*
X151117967Y-99231216D01*
X151185352Y-99559457D01*
X151104875Y-99849159D01*
X151093197Y-99867774D01*
X151014045Y-99969614D01*
X150913557Y-100031467D01*
X150751238Y-100063206D01*
X150486589Y-100074704D01*
X150239048Y-100076000D01*
X149842539Y-100087887D01*
X149603451Y-100129127D01*
X149511175Y-100208089D01*
X149555103Y-100333142D01*
X149706631Y-100496035D01*
X149977759Y-100637601D01*
X150337322Y-100657819D01*
X150695801Y-100575100D01*
X150954620Y-100538750D01*
X151139666Y-100616665D01*
X151214473Y-100792755D01*
X151214666Y-100804081D01*
X151137175Y-100959865D01*
X150931169Y-101087923D01*
X150636350Y-101179946D01*
X150292419Y-101227625D01*
X149939079Y-101222650D01*
X149616032Y-101156711D01*
X149584031Y-101145371D01*
X149340628Y-101038925D01*
X149149714Y-100929018D01*
X149126415Y-100911201D01*
X148935450Y-100656610D01*
X148811643Y-100296119D01*
X148762690Y-99882377D01*
X148793980Y-99496455D01*
X149521333Y-99496455D01*
X149545800Y-99587345D01*
X149645226Y-99634669D01*
X149858647Y-99651523D01*
X149987000Y-99652666D01*
X150253774Y-99647069D01*
X150392687Y-99617908D01*
X150445138Y-99546631D01*
X150452666Y-99443978D01*
X150377260Y-99233911D01*
X150180271Y-99095477D01*
X149978066Y-99060000D01*
X149774080Y-99128590D01*
X149599787Y-99292095D01*
X149521534Y-99487112D01*
X149521333Y-99496455D01*
X148793980Y-99496455D01*
X148796285Y-99468032D01*
X148876073Y-99198496D01*
X149101136Y-98858242D01*
X149422854Y-98625375D01*
X149802395Y-98505707D01*
X150200927Y-98505050D01*
X150579620Y-98629217D01*
X150579620Y-98629217D01*
G37*
X150579620Y-98629217D02*
X150899641Y-98884020D01*
X150908389Y-98894290D01*
X151117967Y-99231216D01*
X151185352Y-99559457D01*
X151104875Y-99849159D01*
X151093197Y-99867774D01*
X151014045Y-99969614D01*
X150913557Y-100031467D01*
X150751238Y-100063206D01*
X150486589Y-100074704D01*
X150239048Y-100076000D01*
X149842539Y-100087887D01*
X149603451Y-100129127D01*
X149511175Y-100208089D01*
X149555103Y-100333142D01*
X149706631Y-100496035D01*
X149977759Y-100637601D01*
X150337322Y-100657819D01*
X150695801Y-100575100D01*
X150954620Y-100538750D01*
X151139666Y-100616665D01*
X151214473Y-100792755D01*
X151214666Y-100804081D01*
X151137175Y-100959865D01*
X150931169Y-101087923D01*
X150636350Y-101179946D01*
X150292419Y-101227625D01*
X149939079Y-101222650D01*
X149616032Y-101156711D01*
X149584031Y-101145371D01*
X149340628Y-101038925D01*
X149149714Y-100929018D01*
X149126415Y-100911201D01*
X148935450Y-100656610D01*
X148811643Y-100296119D01*
X148762690Y-99882377D01*
X148793980Y-99496455D01*
X149521333Y-99496455D01*
X149545800Y-99587345D01*
X149645226Y-99634669D01*
X149858647Y-99651523D01*
X149987000Y-99652666D01*
X150253774Y-99647069D01*
X150392687Y-99617908D01*
X150445138Y-99546631D01*
X150452666Y-99443978D01*
X150377260Y-99233911D01*
X150180271Y-99095477D01*
X149978066Y-99060000D01*
X149774080Y-99128590D01*
X149599787Y-99292095D01*
X149521534Y-99487112D01*
X149521333Y-99496455D01*
X148793980Y-99496455D01*
X148796285Y-99468032D01*
X148876073Y-99198496D01*
X149101136Y-98858242D01*
X149422854Y-98625375D01*
X149802395Y-98505707D01*
X150200927Y-98505050D01*
X150579620Y-98629217D01*
G36*
X152856574Y-98497651D02*
X153159407Y-98549120D01*
X153374629Y-98641223D01*
X153416071Y-98679086D01*
X153473588Y-98851188D01*
X153460204Y-98969436D01*
X153411882Y-99065135D01*
X153316623Y-99108453D01*
X153129748Y-99109423D01*
X152921626Y-99090398D01*
X152620867Y-99070743D01*
X152439304Y-99094584D01*
X152330910Y-99168329D01*
X152326794Y-99173189D01*
X152257189Y-99306223D01*
X152307870Y-99416248D01*
X152495253Y-99518885D01*
X152793779Y-99617691D01*
X153190309Y-99765313D01*
X153439380Y-99944376D01*
X153562526Y-100175561D01*
X153585333Y-100377899D01*
X153536012Y-100736196D01*
X153374864Y-100984514D01*
X153115571Y-101141501D01*
X152648781Y-101249597D01*
X152144425Y-101196601D01*
X151934333Y-101131891D01*
X151720333Y-101056579D01*
X151586660Y-101012898D01*
X151568876Y-101008608D01*
X151557837Y-100934989D01*
X151568876Y-100774500D01*
X151584419Y-100662536D01*
X151621284Y-100595226D01*
X151711793Y-100567226D01*
X151888268Y-100573193D01*
X152183031Y-100607782D01*
X152403285Y-100636548D01*
X152674378Y-100653345D01*
X152836525Y-100608144D01*
X152900485Y-100550720D01*
X152960527Y-100391742D01*
X152858715Y-100250068D01*
X152592062Y-100122627D01*
X152436733Y-100074432D01*
X152030389Y-99923196D01*
X151774914Y-99731961D01*
X151653606Y-99485091D01*
X151638000Y-99326693D01*
X151702427Y-98963645D01*
X151899745Y-98704252D01*
X152225303Y-98543603D01*
X152525436Y-98493562D01*
X152856574Y-98497651D01*
X152856574Y-98497651D01*
G37*
X152856574Y-98497651D02*
X153159407Y-98549120D01*
X153374629Y-98641223D01*
X153416071Y-98679086D01*
X153473588Y-98851188D01*
X153460204Y-98969436D01*
X153411882Y-99065135D01*
X153316623Y-99108453D01*
X153129748Y-99109423D01*
X152921626Y-99090398D01*
X152620867Y-99070743D01*
X152439304Y-99094584D01*
X152330910Y-99168329D01*
X152326794Y-99173189D01*
X152257189Y-99306223D01*
X152307870Y-99416248D01*
X152495253Y-99518885D01*
X152793779Y-99617691D01*
X153190309Y-99765313D01*
X153439380Y-99944376D01*
X153562526Y-100175561D01*
X153585333Y-100377899D01*
X153536012Y-100736196D01*
X153374864Y-100984514D01*
X153115571Y-101141501D01*
X152648781Y-101249597D01*
X152144425Y-101196601D01*
X151934333Y-101131891D01*
X151720333Y-101056579D01*
X151586660Y-101012898D01*
X151568876Y-101008608D01*
X151557837Y-100934989D01*
X151568876Y-100774500D01*
X151584419Y-100662536D01*
X151621284Y-100595226D01*
X151711793Y-100567226D01*
X151888268Y-100573193D01*
X152183031Y-100607782D01*
X152403285Y-100636548D01*
X152674378Y-100653345D01*
X152836525Y-100608144D01*
X152900485Y-100550720D01*
X152960527Y-100391742D01*
X152858715Y-100250068D01*
X152592062Y-100122627D01*
X152436733Y-100074432D01*
X152030389Y-99923196D01*
X151774914Y-99731961D01*
X151653606Y-99485091D01*
X151638000Y-99326693D01*
X151702427Y-98963645D01*
X151899745Y-98704252D01*
X152225303Y-98543603D01*
X152525436Y-98493562D01*
X152856574Y-98497651D01*
G36*
X164549620Y-98629217D02*
X164869641Y-98884020D01*
X164878389Y-98894290D01*
X165087967Y-99231216D01*
X165155352Y-99559457D01*
X165074875Y-99849159D01*
X165063197Y-99867774D01*
X164984045Y-99969614D01*
X164883557Y-100031467D01*
X164721238Y-100063206D01*
X164456589Y-100074704D01*
X164209048Y-100076000D01*
X163812539Y-100087887D01*
X163573451Y-100129127D01*
X163481175Y-100208089D01*
X163525103Y-100333142D01*
X163676631Y-100496035D01*
X163947759Y-100637601D01*
X164307322Y-100657819D01*
X164665801Y-100575100D01*
X164924620Y-100538750D01*
X165109666Y-100616665D01*
X165184473Y-100792755D01*
X165184666Y-100804081D01*
X165107175Y-100959865D01*
X164901169Y-101087923D01*
X164606350Y-101179946D01*
X164262419Y-101227625D01*
X163909079Y-101222650D01*
X163586032Y-101156711D01*
X163554031Y-101145371D01*
X163310628Y-101038925D01*
X163119714Y-100929018D01*
X163096415Y-100911201D01*
X162905450Y-100656610D01*
X162781643Y-100296119D01*
X162732690Y-99882377D01*
X162763980Y-99496455D01*
X163491333Y-99496455D01*
X163515800Y-99587345D01*
X163615226Y-99634669D01*
X163828647Y-99651523D01*
X163957000Y-99652666D01*
X164223774Y-99647069D01*
X164362687Y-99617908D01*
X164415138Y-99546631D01*
X164422666Y-99443978D01*
X164347260Y-99233911D01*
X164150271Y-99095477D01*
X163948066Y-99060000D01*
X163744080Y-99128590D01*
X163569787Y-99292095D01*
X163491534Y-99487112D01*
X163491333Y-99496455D01*
X162763980Y-99496455D01*
X162766285Y-99468032D01*
X162846073Y-99198496D01*
X163071136Y-98858242D01*
X163392854Y-98625375D01*
X163772395Y-98505707D01*
X164170927Y-98505050D01*
X164549620Y-98629217D01*
X164549620Y-98629217D01*
G37*
X164549620Y-98629217D02*
X164869641Y-98884020D01*
X164878389Y-98894290D01*
X165087967Y-99231216D01*
X165155352Y-99559457D01*
X165074875Y-99849159D01*
X165063197Y-99867774D01*
X164984045Y-99969614D01*
X164883557Y-100031467D01*
X164721238Y-100063206D01*
X164456589Y-100074704D01*
X164209048Y-100076000D01*
X163812539Y-100087887D01*
X163573451Y-100129127D01*
X163481175Y-100208089D01*
X163525103Y-100333142D01*
X163676631Y-100496035D01*
X163947759Y-100637601D01*
X164307322Y-100657819D01*
X164665801Y-100575100D01*
X164924620Y-100538750D01*
X165109666Y-100616665D01*
X165184473Y-100792755D01*
X165184666Y-100804081D01*
X165107175Y-100959865D01*
X164901169Y-101087923D01*
X164606350Y-101179946D01*
X164262419Y-101227625D01*
X163909079Y-101222650D01*
X163586032Y-101156711D01*
X163554031Y-101145371D01*
X163310628Y-101038925D01*
X163119714Y-100929018D01*
X163096415Y-100911201D01*
X162905450Y-100656610D01*
X162781643Y-100296119D01*
X162732690Y-99882377D01*
X162763980Y-99496455D01*
X163491333Y-99496455D01*
X163515800Y-99587345D01*
X163615226Y-99634669D01*
X163828647Y-99651523D01*
X163957000Y-99652666D01*
X164223774Y-99647069D01*
X164362687Y-99617908D01*
X164415138Y-99546631D01*
X164422666Y-99443978D01*
X164347260Y-99233911D01*
X164150271Y-99095477D01*
X163948066Y-99060000D01*
X163744080Y-99128590D01*
X163569787Y-99292095D01*
X163491534Y-99487112D01*
X163491333Y-99496455D01*
X162763980Y-99496455D01*
X162766285Y-99468032D01*
X162846073Y-99198496D01*
X163071136Y-98858242D01*
X163392854Y-98625375D01*
X163772395Y-98505707D01*
X164170927Y-98505050D01*
X164549620Y-98629217D01*
G36*
X170916365Y-96567580D02*
X171153666Y-96650992D01*
X171176345Y-98807996D01*
X171182450Y-99473041D01*
X171184346Y-99988881D01*
X171180950Y-100375617D01*
X171171179Y-100653349D01*
X171153947Y-100842176D01*
X171128172Y-100962198D01*
X171092770Y-101033516D01*
X171054330Y-101070833D01*
X170804720Y-101170239D01*
X170568993Y-101114600D01*
X170492431Y-101053669D01*
X170394177Y-100985446D01*
X170270958Y-100994350D01*
X170065177Y-101085833D01*
X170045148Y-101096002D01*
X169698310Y-101230400D01*
X169400713Y-101239126D01*
X169206333Y-101180096D01*
X169042056Y-101074989D01*
X168840413Y-100899534D01*
X168783000Y-100841342D01*
X168660038Y-100699493D01*
X168582472Y-100559959D01*
X168537567Y-100376816D01*
X168512590Y-100104142D01*
X168499495Y-99818863D01*
X168497528Y-99737333D01*
X169248666Y-99737333D01*
X169298364Y-100109728D01*
X169432297Y-100382468D01*
X169627730Y-100538902D01*
X169861924Y-100562377D01*
X170112141Y-100436241D01*
X170153376Y-100399908D01*
X170289198Y-100174211D01*
X170356600Y-99858946D01*
X170354297Y-99518854D01*
X170281002Y-99218674D01*
X170180000Y-99060000D01*
X169940579Y-98908823D01*
X169703082Y-98907059D01*
X169492695Y-99036389D01*
X169334602Y-99278499D01*
X169253988Y-99615071D01*
X169248666Y-99737333D01*
X168497528Y-99737333D01*
X168490259Y-99436118D01*
X168503053Y-99174008D01*
X168544753Y-98984513D01*
X168622236Y-98819613D01*
X168648996Y-98774997D01*
X168902652Y-98489018D01*
X169220770Y-98308915D01*
X169562458Y-98242783D01*
X169886824Y-98298721D01*
X170147209Y-98478351D01*
X170215269Y-98547671D01*
X170262081Y-98561469D01*
X170293409Y-98496417D01*
X170315014Y-98329185D01*
X170332659Y-98036445D01*
X170349333Y-97660126D01*
X170377250Y-97173681D01*
X170419660Y-96836417D01*
X170486996Y-96628229D01*
X170589694Y-96529014D01*
X170738187Y-96518668D01*
X170916365Y-96567580D01*
X170916365Y-96567580D01*
G37*
X170916365Y-96567580D02*
X171153666Y-96650992D01*
X171176345Y-98807996D01*
X171182450Y-99473041D01*
X171184346Y-99988881D01*
X171180950Y-100375617D01*
X171171179Y-100653349D01*
X171153947Y-100842176D01*
X171128172Y-100962198D01*
X171092770Y-101033516D01*
X171054330Y-101070833D01*
X170804720Y-101170239D01*
X170568993Y-101114600D01*
X170492431Y-101053669D01*
X170394177Y-100985446D01*
X170270958Y-100994350D01*
X170065177Y-101085833D01*
X170045148Y-101096002D01*
X169698310Y-101230400D01*
X169400713Y-101239126D01*
X169206333Y-101180096D01*
X169042056Y-101074989D01*
X168840413Y-100899534D01*
X168783000Y-100841342D01*
X168660038Y-100699493D01*
X168582472Y-100559959D01*
X168537567Y-100376816D01*
X168512590Y-100104142D01*
X168499495Y-99818863D01*
X168497528Y-99737333D01*
X169248666Y-99737333D01*
X169298364Y-100109728D01*
X169432297Y-100382468D01*
X169627730Y-100538902D01*
X169861924Y-100562377D01*
X170112141Y-100436241D01*
X170153376Y-100399908D01*
X170289198Y-100174211D01*
X170356600Y-99858946D01*
X170354297Y-99518854D01*
X170281002Y-99218674D01*
X170180000Y-99060000D01*
X169940579Y-98908823D01*
X169703082Y-98907059D01*
X169492695Y-99036389D01*
X169334602Y-99278499D01*
X169253988Y-99615071D01*
X169248666Y-99737333D01*
X168497528Y-99737333D01*
X168490259Y-99436118D01*
X168503053Y-99174008D01*
X168544753Y-98984513D01*
X168622236Y-98819613D01*
X168648996Y-98774997D01*
X168902652Y-98489018D01*
X169220770Y-98308915D01*
X169562458Y-98242783D01*
X169886824Y-98298721D01*
X170147209Y-98478351D01*
X170215269Y-98547671D01*
X170262081Y-98561469D01*
X170293409Y-98496417D01*
X170315014Y-98329185D01*
X170332659Y-98036445D01*
X170349333Y-97660126D01*
X170377250Y-97173681D01*
X170419660Y-96836417D01*
X170486996Y-96628229D01*
X170589694Y-96529014D01*
X170738187Y-96518668D01*
X170916365Y-96567580D01*
G36*
X173607313Y-98299553D02*
X173945371Y-98480118D01*
X174210890Y-98776752D01*
X174296593Y-98944496D01*
X174399131Y-99280875D01*
X174379283Y-99535609D01*
X174244000Y-99737333D01*
X174136713Y-99820460D01*
X173991296Y-99871468D01*
X173767544Y-99897668D01*
X173425251Y-99906368D01*
X173312666Y-99906666D01*
X172950089Y-99909710D01*
X172724729Y-99923422D01*
X172604514Y-99954670D01*
X172557370Y-100010322D01*
X172550666Y-100069854D01*
X172626326Y-100289269D01*
X172828617Y-100452867D01*
X173120502Y-100548279D01*
X173464949Y-100563134D01*
X173809801Y-100490434D01*
X174076345Y-100453331D01*
X174257507Y-100543202D01*
X174328455Y-100747073D01*
X174328666Y-100761526D01*
X174250941Y-100926326D01*
X174043314Y-101063433D01*
X173744110Y-101164496D01*
X173391651Y-101221166D01*
X173024261Y-101225092D01*
X172680264Y-101167924D01*
X172593000Y-101139701D01*
X172199023Y-100911485D01*
X171916560Y-100567348D01*
X171754601Y-100126139D01*
X171722134Y-99606705D01*
X171749164Y-99370431D01*
X171795767Y-99232312D01*
X172550666Y-99232312D01*
X172568606Y-99322432D01*
X172647280Y-99372680D01*
X172823968Y-99394326D01*
X173101000Y-99398666D01*
X173442938Y-99383718D01*
X173622612Y-99339223D01*
X173651333Y-99299500D01*
X173577135Y-99118808D01*
X173394654Y-98967571D01*
X173164061Y-98892495D01*
X173124644Y-98890666D01*
X172821744Y-98936354D01*
X172619590Y-99060430D01*
X172550666Y-99232312D01*
X171795767Y-99232312D01*
X171887388Y-98960772D01*
X172134521Y-98636843D01*
X172460321Y-98403701D01*
X172834547Y-98266400D01*
X173226958Y-98229999D01*
X173607313Y-98299553D01*
X173607313Y-98299553D01*
G37*
X173607313Y-98299553D02*
X173945371Y-98480118D01*
X174210890Y-98776752D01*
X174296593Y-98944496D01*
X174399131Y-99280875D01*
X174379283Y-99535609D01*
X174244000Y-99737333D01*
X174136713Y-99820460D01*
X173991296Y-99871468D01*
X173767544Y-99897668D01*
X173425251Y-99906368D01*
X173312666Y-99906666D01*
X172950089Y-99909710D01*
X172724729Y-99923422D01*
X172604514Y-99954670D01*
X172557370Y-100010322D01*
X172550666Y-100069854D01*
X172626326Y-100289269D01*
X172828617Y-100452867D01*
X173120502Y-100548279D01*
X173464949Y-100563134D01*
X173809801Y-100490434D01*
X174076345Y-100453331D01*
X174257507Y-100543202D01*
X174328455Y-100747073D01*
X174328666Y-100761526D01*
X174250941Y-100926326D01*
X174043314Y-101063433D01*
X173744110Y-101164496D01*
X173391651Y-101221166D01*
X173024261Y-101225092D01*
X172680264Y-101167924D01*
X172593000Y-101139701D01*
X172199023Y-100911485D01*
X171916560Y-100567348D01*
X171754601Y-100126139D01*
X171722134Y-99606705D01*
X171749164Y-99370431D01*
X171795767Y-99232312D01*
X172550666Y-99232312D01*
X172568606Y-99322432D01*
X172647280Y-99372680D01*
X172823968Y-99394326D01*
X173101000Y-99398666D01*
X173442938Y-99383718D01*
X173622612Y-99339223D01*
X173651333Y-99299500D01*
X173577135Y-99118808D01*
X173394654Y-98967571D01*
X173164061Y-98892495D01*
X173124644Y-98890666D01*
X172821744Y-98936354D01*
X172619590Y-99060430D01*
X172550666Y-99232312D01*
X171795767Y-99232312D01*
X171887388Y-98960772D01*
X172134521Y-98636843D01*
X172460321Y-98403701D01*
X172834547Y-98266400D01*
X173226958Y-98229999D01*
X173607313Y-98299553D01*
G36*
X176118867Y-98249021D02*
X176445481Y-98297127D01*
X176701781Y-98388155D01*
X176841251Y-98518531D01*
X176844167Y-98525612D01*
X176866012Y-98722375D01*
X176747830Y-98847426D01*
X176483235Y-98904390D01*
X176177096Y-98904209D01*
X175852244Y-98897881D01*
X175651923Y-98926025D01*
X175533557Y-98995739D01*
X175516800Y-99014292D01*
X175457927Y-99152477D01*
X175534603Y-99277017D01*
X175758024Y-99397202D01*
X176123885Y-99517935D01*
X176504682Y-99665061D01*
X176739944Y-99860758D01*
X176851712Y-100129280D01*
X176868666Y-100337420D01*
X176793816Y-100685915D01*
X176585776Y-100961549D01*
X176269313Y-101152485D01*
X175869194Y-101246886D01*
X175410183Y-101232914D01*
X175126113Y-101170310D01*
X174830950Y-101036756D01*
X174662979Y-100856332D01*
X174640211Y-100652118D01*
X174667834Y-100583064D01*
X174789322Y-100449910D01*
X174949749Y-100456075D01*
X175141905Y-100498745D01*
X175419347Y-100541291D01*
X175559659Y-100557725D01*
X175846512Y-100571462D01*
X176018524Y-100532350D01*
X176099193Y-100466004D01*
X176159176Y-100312869D01*
X176068010Y-100170496D01*
X175819015Y-100032467D01*
X175545937Y-99934587D01*
X175264163Y-99826191D01*
X175034506Y-99703571D01*
X174945515Y-99632609D01*
X174822580Y-99382273D01*
X174809276Y-99070370D01*
X174894617Y-98754184D01*
X175067617Y-98490998D01*
X175182302Y-98397963D01*
X175440760Y-98295866D01*
X175768454Y-98247410D01*
X176118867Y-98249021D01*
X176118867Y-98249021D01*
G37*
X176118867Y-98249021D02*
X176445481Y-98297127D01*
X176701781Y-98388155D01*
X176841251Y-98518531D01*
X176844167Y-98525612D01*
X176866012Y-98722375D01*
X176747830Y-98847426D01*
X176483235Y-98904390D01*
X176177096Y-98904209D01*
X175852244Y-98897881D01*
X175651923Y-98926025D01*
X175533557Y-98995739D01*
X175516800Y-99014292D01*
X175457927Y-99152477D01*
X175534603Y-99277017D01*
X175758024Y-99397202D01*
X176123885Y-99517935D01*
X176504682Y-99665061D01*
X176739944Y-99860758D01*
X176851712Y-100129280D01*
X176868666Y-100337420D01*
X176793816Y-100685915D01*
X176585776Y-100961549D01*
X176269313Y-101152485D01*
X175869194Y-101246886D01*
X175410183Y-101232914D01*
X175126113Y-101170310D01*
X174830950Y-101036756D01*
X174662979Y-100856332D01*
X174640211Y-100652118D01*
X174667834Y-100583064D01*
X174789322Y-100449910D01*
X174949749Y-100456075D01*
X175141905Y-100498745D01*
X175419347Y-100541291D01*
X175559659Y-100557725D01*
X175846512Y-100571462D01*
X176018524Y-100532350D01*
X176099193Y-100466004D01*
X176159176Y-100312869D01*
X176068010Y-100170496D01*
X175819015Y-100032467D01*
X175545937Y-99934587D01*
X175264163Y-99826191D01*
X175034506Y-99703571D01*
X174945515Y-99632609D01*
X174822580Y-99382273D01*
X174809276Y-99070370D01*
X174894617Y-98754184D01*
X175067617Y-98490998D01*
X175182302Y-98397963D01*
X175440760Y-98295866D01*
X175768454Y-98247410D01*
X176118867Y-98249021D01*
G36*
X146011696Y-98576456D02*
X146249100Y-98763376D01*
X146302075Y-98844738D01*
X146407455Y-99041642D01*
X146645116Y-98775654D01*
X146831071Y-98601710D01*
X147025908Y-98525096D01*
X147269093Y-98509666D01*
X147547419Y-98533085D01*
X147753915Y-98628683D01*
X147932205Y-98786229D01*
X148209000Y-99062792D01*
X148237180Y-100074022D01*
X148265360Y-101085253D01*
X148054566Y-101138159D01*
X147820294Y-101143268D01*
X147666552Y-101096220D01*
X147584482Y-101037669D01*
X147532445Y-100945046D01*
X147503724Y-100783420D01*
X147491602Y-100517864D01*
X147489333Y-100174621D01*
X147480720Y-99735429D01*
X147448387Y-99438916D01*
X147382592Y-99259007D01*
X147273590Y-99169624D01*
X147111641Y-99144692D01*
X147104522Y-99144666D01*
X146910615Y-99180032D01*
X146776408Y-99300567D01*
X146693024Y-99527933D01*
X146651584Y-99883789D01*
X146642666Y-100271553D01*
X146641125Y-100648169D01*
X146630728Y-100889105D01*
X146602817Y-101028016D01*
X146548733Y-101098556D01*
X146459818Y-101134379D01*
X146417895Y-101145187D01*
X146211367Y-101174643D01*
X146069054Y-101126302D01*
X145978233Y-100977971D01*
X145926179Y-100707463D01*
X145900167Y-100292586D01*
X145898414Y-100239255D01*
X145868992Y-99772502D01*
X145808235Y-99451833D01*
X145706491Y-99255390D01*
X145554107Y-99161317D01*
X145415000Y-99144666D01*
X145219000Y-99179974D01*
X145083538Y-99300388D01*
X144999572Y-99527647D01*
X144958059Y-99883489D01*
X144949333Y-100264108D01*
X144944366Y-100654375D01*
X144926280Y-100906255D01*
X144890294Y-101050486D01*
X144831626Y-101117811D01*
X144815408Y-101125274D01*
X144538258Y-101173777D01*
X144322088Y-101100147D01*
X144279915Y-101059204D01*
X144235207Y-100917127D01*
X144209094Y-100618318D01*
X144201323Y-100158387D01*
X144206048Y-99768037D01*
X144229666Y-98594333D01*
X144519039Y-98566742D01*
X144764591Y-98581115D01*
X144886540Y-98678759D01*
X144962702Y-98771643D01*
X145058351Y-98732233D01*
X145105167Y-98691779D01*
X145386967Y-98533915D01*
X145706731Y-98497721D01*
X146011696Y-98576456D01*
X146011696Y-98576456D01*
G37*
X146011696Y-98576456D02*
X146249100Y-98763376D01*
X146302075Y-98844738D01*
X146407455Y-99041642D01*
X146645116Y-98775654D01*
X146831071Y-98601710D01*
X147025908Y-98525096D01*
X147269093Y-98509666D01*
X147547419Y-98533085D01*
X147753915Y-98628683D01*
X147932205Y-98786229D01*
X148209000Y-99062792D01*
X148237180Y-100074022D01*
X148265360Y-101085253D01*
X148054566Y-101138159D01*
X147820294Y-101143268D01*
X147666552Y-101096220D01*
X147584482Y-101037669D01*
X147532445Y-100945046D01*
X147503724Y-100783420D01*
X147491602Y-100517864D01*
X147489333Y-100174621D01*
X147480720Y-99735429D01*
X147448387Y-99438916D01*
X147382592Y-99259007D01*
X147273590Y-99169624D01*
X147111641Y-99144692D01*
X147104522Y-99144666D01*
X146910615Y-99180032D01*
X146776408Y-99300567D01*
X146693024Y-99527933D01*
X146651584Y-99883789D01*
X146642666Y-100271553D01*
X146641125Y-100648169D01*
X146630728Y-100889105D01*
X146602817Y-101028016D01*
X146548733Y-101098556D01*
X146459818Y-101134379D01*
X146417895Y-101145187D01*
X146211367Y-101174643D01*
X146069054Y-101126302D01*
X145978233Y-100977971D01*
X145926179Y-100707463D01*
X145900167Y-100292586D01*
X145898414Y-100239255D01*
X145868992Y-99772502D01*
X145808235Y-99451833D01*
X145706491Y-99255390D01*
X145554107Y-99161317D01*
X145415000Y-99144666D01*
X145219000Y-99179974D01*
X145083538Y-99300388D01*
X144999572Y-99527647D01*
X144958059Y-99883489D01*
X144949333Y-100264108D01*
X144944366Y-100654375D01*
X144926280Y-100906255D01*
X144890294Y-101050486D01*
X144831626Y-101117811D01*
X144815408Y-101125274D01*
X144538258Y-101173777D01*
X144322088Y-101100147D01*
X144279915Y-101059204D01*
X144235207Y-100917127D01*
X144209094Y-100618318D01*
X144201323Y-100158387D01*
X144206048Y-99768037D01*
X144229666Y-98594333D01*
X144519039Y-98566742D01*
X144764591Y-98581115D01*
X144886540Y-98678759D01*
X144962702Y-98771643D01*
X145058351Y-98732233D01*
X145105167Y-98691779D01*
X145386967Y-98533915D01*
X145706731Y-98497721D01*
X146011696Y-98576456D01*
G36*
X155833029Y-98576456D02*
X156070433Y-98763376D01*
X156123409Y-98844738D01*
X156228789Y-99041642D01*
X156466449Y-98775654D01*
X156652404Y-98601710D01*
X156847241Y-98525096D01*
X157090426Y-98509666D01*
X157368752Y-98533085D01*
X157575249Y-98628683D01*
X157753538Y-98786229D01*
X158030333Y-99062792D01*
X158058513Y-100074022D01*
X158086694Y-101085253D01*
X157875899Y-101138159D01*
X157641627Y-101143268D01*
X157487885Y-101096220D01*
X157405815Y-101037669D01*
X157353778Y-100945046D01*
X157325057Y-100783420D01*
X157312936Y-100517864D01*
X157310666Y-100174621D01*
X157302054Y-99735429D01*
X157269721Y-99438916D01*
X157203925Y-99259007D01*
X157094924Y-99169624D01*
X156932975Y-99144692D01*
X156925855Y-99144666D01*
X156731949Y-99180032D01*
X156597742Y-99300567D01*
X156514357Y-99527933D01*
X156472917Y-99883789D01*
X156464000Y-100271553D01*
X156462458Y-100648169D01*
X156452061Y-100889105D01*
X156424150Y-101028016D01*
X156370066Y-101098556D01*
X156281151Y-101134379D01*
X156239228Y-101145187D01*
X156032700Y-101174643D01*
X155890387Y-101126302D01*
X155799566Y-100977971D01*
X155747512Y-100707463D01*
X155721501Y-100292586D01*
X155719747Y-100239255D01*
X155690325Y-99772502D01*
X155629568Y-99451833D01*
X155527824Y-99255390D01*
X155375440Y-99161317D01*
X155236333Y-99144666D01*
X155040333Y-99179974D01*
X154904871Y-99300388D01*
X154820905Y-99527647D01*
X154779392Y-99883489D01*
X154770666Y-100264108D01*
X154765700Y-100654375D01*
X154747614Y-100906255D01*
X154711627Y-101050486D01*
X154652960Y-101117811D01*
X154636741Y-101125274D01*
X154359591Y-101173777D01*
X154143421Y-101100147D01*
X154101248Y-101059204D01*
X154056541Y-100917127D01*
X154030427Y-100618318D01*
X154022656Y-100158387D01*
X154027381Y-99768037D01*
X154051000Y-98594333D01*
X154340372Y-98566742D01*
X154585924Y-98581115D01*
X154707873Y-98678759D01*
X154784035Y-98771643D01*
X154879684Y-98732233D01*
X154926500Y-98691779D01*
X155208300Y-98533915D01*
X155528064Y-98497721D01*
X155833029Y-98576456D01*
X155833029Y-98576456D01*
G37*
X155833029Y-98576456D02*
X156070433Y-98763376D01*
X156123409Y-98844738D01*
X156228789Y-99041642D01*
X156466449Y-98775654D01*
X156652404Y-98601710D01*
X156847241Y-98525096D01*
X157090426Y-98509666D01*
X157368752Y-98533085D01*
X157575249Y-98628683D01*
X157753538Y-98786229D01*
X158030333Y-99062792D01*
X158058513Y-100074022D01*
X158086694Y-101085253D01*
X157875899Y-101138159D01*
X157641627Y-101143268D01*
X157487885Y-101096220D01*
X157405815Y-101037669D01*
X157353778Y-100945046D01*
X157325057Y-100783420D01*
X157312936Y-100517864D01*
X157310666Y-100174621D01*
X157302054Y-99735429D01*
X157269721Y-99438916D01*
X157203925Y-99259007D01*
X157094924Y-99169624D01*
X156932975Y-99144692D01*
X156925855Y-99144666D01*
X156731949Y-99180032D01*
X156597742Y-99300567D01*
X156514357Y-99527933D01*
X156472917Y-99883789D01*
X156464000Y-100271553D01*
X156462458Y-100648169D01*
X156452061Y-100889105D01*
X156424150Y-101028016D01*
X156370066Y-101098556D01*
X156281151Y-101134379D01*
X156239228Y-101145187D01*
X156032700Y-101174643D01*
X155890387Y-101126302D01*
X155799566Y-100977971D01*
X155747512Y-100707463D01*
X155721501Y-100292586D01*
X155719747Y-100239255D01*
X155690325Y-99772502D01*
X155629568Y-99451833D01*
X155527824Y-99255390D01*
X155375440Y-99161317D01*
X155236333Y-99144666D01*
X155040333Y-99179974D01*
X154904871Y-99300388D01*
X154820905Y-99527647D01*
X154779392Y-99883489D01*
X154770666Y-100264108D01*
X154765700Y-100654375D01*
X154747614Y-100906255D01*
X154711627Y-101050486D01*
X154652960Y-101117811D01*
X154636741Y-101125274D01*
X154359591Y-101173777D01*
X154143421Y-101100147D01*
X154101248Y-101059204D01*
X154056541Y-100917127D01*
X154030427Y-100618318D01*
X154022656Y-100158387D01*
X154027381Y-99768037D01*
X154051000Y-98594333D01*
X154340372Y-98566742D01*
X154585924Y-98581115D01*
X154707873Y-98678759D01*
X154784035Y-98771643D01*
X154879684Y-98732233D01*
X154926500Y-98691779D01*
X155208300Y-98533915D01*
X155528064Y-98497721D01*
X155833029Y-98576456D01*
G36*
X158985539Y-98470427D02*
X159131189Y-98502148D01*
X159342666Y-98555226D01*
X159342666Y-99764346D01*
X159336031Y-100328478D01*
X159315741Y-100731204D01*
X159281223Y-100979947D01*
X159241066Y-101075066D01*
X159038759Y-101165151D01*
X158774035Y-101121744D01*
X158771166Y-101120593D01*
X158726948Y-101052281D01*
X158695735Y-100877047D01*
X158676118Y-100577480D01*
X158666689Y-100136168D01*
X158665333Y-99812287D01*
X158667802Y-99291849D01*
X158680349Y-98919043D01*
X158710686Y-98672183D01*
X158766522Y-98529583D01*
X158855570Y-98469560D01*
X158985539Y-98470427D01*
X158985539Y-98470427D01*
G37*
X158985539Y-98470427D02*
X159131189Y-98502148D01*
X159342666Y-98555226D01*
X159342666Y-99764346D01*
X159336031Y-100328478D01*
X159315741Y-100731204D01*
X159281223Y-100979947D01*
X159241066Y-101075066D01*
X159038759Y-101165151D01*
X158774035Y-101121744D01*
X158771166Y-101120593D01*
X158726948Y-101052281D01*
X158695735Y-100877047D01*
X158676118Y-100577480D01*
X158666689Y-100136168D01*
X158665333Y-99812287D01*
X158667802Y-99291849D01*
X158680349Y-98919043D01*
X158710686Y-98672183D01*
X158766522Y-98529583D01*
X158855570Y-98469560D01*
X158985539Y-98470427D01*
G36*
X160595605Y-96907333D02*
X160658344Y-97024370D01*
X160701388Y-97227031D01*
X160729182Y-97533298D01*
X160746170Y-97961154D01*
X160756799Y-98528581D01*
X160762445Y-98984456D01*
X160768735Y-99619016D01*
X160770321Y-100105334D01*
X160765970Y-100464464D01*
X160754452Y-100717464D01*
X160734536Y-100885387D01*
X160704989Y-100989289D01*
X160664581Y-101050226D01*
X160640430Y-101070790D01*
X160399458Y-101169972D01*
X160179879Y-101121769D01*
X160121600Y-101075066D01*
X160086176Y-100982838D01*
X160058978Y-100777389D01*
X160039414Y-100446370D01*
X160026889Y-99977430D01*
X160020810Y-99358219D01*
X160020000Y-98960013D01*
X160020000Y-96946559D01*
X160244771Y-96890145D01*
X160393263Y-96858203D01*
X160508726Y-96857939D01*
X160595605Y-96907333D01*
X160595605Y-96907333D01*
G37*
X160595605Y-96907333D02*
X160658344Y-97024370D01*
X160701388Y-97227031D01*
X160729182Y-97533298D01*
X160746170Y-97961154D01*
X160756799Y-98528581D01*
X160762445Y-98984456D01*
X160768735Y-99619016D01*
X160770321Y-100105334D01*
X160765970Y-100464464D01*
X160754452Y-100717464D01*
X160734536Y-100885387D01*
X160704989Y-100989289D01*
X160664581Y-101050226D01*
X160640430Y-101070790D01*
X160399458Y-101169972D01*
X160179879Y-101121769D01*
X160121600Y-101075066D01*
X160086176Y-100982838D01*
X160058978Y-100777389D01*
X160039414Y-100446370D01*
X160026889Y-99977430D01*
X160020810Y-99358219D01*
X160020000Y-98960013D01*
X160020000Y-96946559D01*
X160244771Y-96890145D01*
X160393263Y-96858203D01*
X160508726Y-96857939D01*
X160595605Y-96907333D01*
G36*
X162034938Y-96907333D02*
X162097677Y-97024370D01*
X162140721Y-97227031D01*
X162168515Y-97533298D01*
X162185504Y-97961154D01*
X162196133Y-98528581D01*
X162201779Y-98984456D01*
X162208069Y-99619016D01*
X162209654Y-100105334D01*
X162205304Y-100464464D01*
X162193786Y-100717464D01*
X162173869Y-100885387D01*
X162144322Y-100989289D01*
X162103914Y-101050226D01*
X162079763Y-101070790D01*
X161838792Y-101169972D01*
X161619212Y-101121769D01*
X161560933Y-101075066D01*
X161525509Y-100982838D01*
X161498312Y-100777389D01*
X161478747Y-100446370D01*
X161466222Y-99977430D01*
X161460144Y-99358219D01*
X161459333Y-98960013D01*
X161459333Y-96946559D01*
X161684104Y-96890145D01*
X161832597Y-96858203D01*
X161948060Y-96857939D01*
X162034938Y-96907333D01*
X162034938Y-96907333D01*
G37*
X162034938Y-96907333D02*
X162097677Y-97024370D01*
X162140721Y-97227031D01*
X162168515Y-97533298D01*
X162185504Y-97961154D01*
X162196133Y-98528581D01*
X162201779Y-98984456D01*
X162208069Y-99619016D01*
X162209654Y-100105334D01*
X162205304Y-100464464D01*
X162193786Y-100717464D01*
X162173869Y-100885387D01*
X162144322Y-100989289D01*
X162103914Y-101050226D01*
X162079763Y-101070790D01*
X161838792Y-101169972D01*
X161619212Y-101121769D01*
X161560933Y-101075066D01*
X161525509Y-100982838D01*
X161498312Y-100777389D01*
X161478747Y-100446370D01*
X161466222Y-99977430D01*
X161460144Y-99358219D01*
X161459333Y-98960013D01*
X161459333Y-96946559D01*
X161684104Y-96890145D01*
X161832597Y-96858203D01*
X161948060Y-96857939D01*
X162034938Y-96907333D01*
G36*
X167270660Y-98524148D02*
X167424084Y-98663658D01*
X167456491Y-98755642D01*
X167423049Y-98959282D01*
X167260186Y-99100440D01*
X167044492Y-99144666D01*
X166788153Y-99223598D01*
X166589192Y-99405162D01*
X166479388Y-99552614D01*
X166413727Y-99705224D01*
X166381138Y-99911705D01*
X166370555Y-100220767D01*
X166370000Y-100369771D01*
X166363594Y-100732195D01*
X166340544Y-100958088D01*
X166295096Y-101079901D01*
X166236075Y-101125274D01*
X165978452Y-101171148D01*
X165772422Y-101073092D01*
X165741047Y-101043619D01*
X165682603Y-100951749D01*
X165643381Y-100795202D01*
X165620125Y-100545150D01*
X165609581Y-100172765D01*
X165608000Y-99865210D01*
X165612008Y-99451132D01*
X165622928Y-99091455D01*
X165639104Y-98824180D01*
X165658881Y-98687306D01*
X165659391Y-98685924D01*
X165778399Y-98578654D01*
X165975444Y-98545435D01*
X166177971Y-98582885D01*
X166313426Y-98687625D01*
X166326292Y-98717002D01*
X166371980Y-98828797D01*
X166435956Y-98818771D01*
X166541510Y-98719156D01*
X166785194Y-98550135D01*
X167042970Y-98485720D01*
X167270660Y-98524148D01*
X167270660Y-98524148D01*
G37*
X167270660Y-98524148D02*
X167424084Y-98663658D01*
X167456491Y-98755642D01*
X167423049Y-98959282D01*
X167260186Y-99100440D01*
X167044492Y-99144666D01*
X166788153Y-99223598D01*
X166589192Y-99405162D01*
X166479388Y-99552614D01*
X166413727Y-99705224D01*
X166381138Y-99911705D01*
X166370555Y-100220767D01*
X166370000Y-100369771D01*
X166363594Y-100732195D01*
X166340544Y-100958088D01*
X166295096Y-101079901D01*
X166236075Y-101125274D01*
X165978452Y-101171148D01*
X165772422Y-101073092D01*
X165741047Y-101043619D01*
X165682603Y-100951749D01*
X165643381Y-100795202D01*
X165620125Y-100545150D01*
X165609581Y-100172765D01*
X165608000Y-99865210D01*
X165612008Y-99451132D01*
X165622928Y-99091455D01*
X165639104Y-98824180D01*
X165658881Y-98687306D01*
X165659391Y-98685924D01*
X165778399Y-98578654D01*
X165975444Y-98545435D01*
X166177971Y-98582885D01*
X166313426Y-98687625D01*
X166326292Y-98717002D01*
X166371980Y-98828797D01*
X166435956Y-98818771D01*
X166541510Y-98719156D01*
X166785194Y-98550135D01*
X167042970Y-98485720D01*
X167270660Y-98524148D01*
G36*
X167800178Y-100375316D02*
X167960797Y-100496924D01*
X168042889Y-100681452D01*
X168011647Y-100894091D01*
X167933245Y-101010744D01*
X167719041Y-101157542D01*
X167502698Y-101136763D01*
X167356788Y-101021833D01*
X167229617Y-100799794D01*
X167270313Y-100590966D01*
X167382588Y-100460087D01*
X167595839Y-100351434D01*
X167800178Y-100375316D01*
X167800178Y-100375316D01*
G37*
X167800178Y-100375316D02*
X167960797Y-100496924D01*
X168042889Y-100681452D01*
X168011647Y-100894091D01*
X167933245Y-101010744D01*
X167719041Y-101157542D01*
X167502698Y-101136763D01*
X167356788Y-101021833D01*
X167229617Y-100799794D01*
X167270313Y-100590966D01*
X167382588Y-100460087D01*
X167595839Y-100351434D01*
X167800178Y-100375316D01*
G36*
X178017777Y-98249634D02*
X178223333Y-98301226D01*
X178223333Y-99637346D01*
X178217795Y-100223883D01*
X178200726Y-100651066D01*
X178171447Y-100928523D01*
X178129276Y-101065886D01*
X178121733Y-101075066D01*
X177937225Y-101158187D01*
X177687685Y-101155458D01*
X177567166Y-101120593D01*
X177524824Y-101055162D01*
X177494355Y-100886696D01*
X177474483Y-100597975D01*
X177463930Y-100171782D01*
X177461333Y-99693649D01*
X177462338Y-99180050D01*
X177467395Y-98810638D01*
X177479567Y-98560270D01*
X177501919Y-98403804D01*
X177537514Y-98316097D01*
X177589414Y-98272005D01*
X177636777Y-98253727D01*
X177859652Y-98229906D01*
X178017777Y-98249634D01*
X178017777Y-98249634D01*
G37*
X178017777Y-98249634D02*
X178223333Y-98301226D01*
X178223333Y-99637346D01*
X178217795Y-100223883D01*
X178200726Y-100651066D01*
X178171447Y-100928523D01*
X178129276Y-101065886D01*
X178121733Y-101075066D01*
X177937225Y-101158187D01*
X177687685Y-101155458D01*
X177567166Y-101120593D01*
X177524824Y-101055162D01*
X177494355Y-100886696D01*
X177474483Y-100597975D01*
X177463930Y-100171782D01*
X177461333Y-99693649D01*
X177462338Y-99180050D01*
X177467395Y-98810638D01*
X177479567Y-98560270D01*
X177501919Y-98403804D01*
X177537514Y-98316097D01*
X177589414Y-98272005D01*
X177636777Y-98253727D01*
X177859652Y-98229906D01*
X178017777Y-98249634D01*
G36*
X183736814Y-98289203D02*
X184073354Y-98499447D01*
X184108130Y-98532889D01*
X184261908Y-98704199D01*
X184368159Y-98881523D01*
X184435392Y-99100314D01*
X184472118Y-99396024D01*
X184486847Y-99804106D01*
X184488666Y-100118139D01*
X184486615Y-100535303D01*
X184476945Y-100813771D01*
X184454380Y-100984161D01*
X184413642Y-101077094D01*
X184349456Y-101123190D01*
X184313222Y-101136272D01*
X184090347Y-101160093D01*
X183932222Y-101140365D01*
X183840136Y-101110242D01*
X183780699Y-101054003D01*
X183746767Y-100939426D01*
X183731202Y-100734284D01*
X183726860Y-100406355D01*
X183726666Y-100212804D01*
X183722349Y-99801946D01*
X183705237Y-99521227D01*
X183669094Y-99331578D01*
X183607683Y-99193932D01*
X183551188Y-99113751D01*
X183320899Y-98930969D01*
X183063719Y-98906072D01*
X182814504Y-99041539D01*
X182795333Y-99060000D01*
X182717352Y-99158401D01*
X182667417Y-99290080D01*
X182639564Y-99491731D01*
X182627824Y-99800048D01*
X182626000Y-100101400D01*
X182615305Y-100572060D01*
X182583945Y-100896605D01*
X182533004Y-101064649D01*
X182524400Y-101075066D01*
X182335067Y-101163159D01*
X182097160Y-101157848D01*
X181967608Y-101105498D01*
X181925003Y-101034226D01*
X181896512Y-100870819D01*
X181880961Y-100595596D01*
X181877171Y-100188876D01*
X181882941Y-99688628D01*
X181906333Y-98340333D01*
X182195706Y-98312742D01*
X182447065Y-98329197D01*
X182554178Y-98408627D01*
X182619413Y-98475029D01*
X182731830Y-98465911D01*
X182938478Y-98376089D01*
X182964148Y-98363452D01*
X183364212Y-98243447D01*
X183736814Y-98289203D01*
X183736814Y-98289203D01*
G37*
X183736814Y-98289203D02*
X184073354Y-98499447D01*
X184108130Y-98532889D01*
X184261908Y-98704199D01*
X184368159Y-98881523D01*
X184435392Y-99100314D01*
X184472118Y-99396024D01*
X184486847Y-99804106D01*
X184488666Y-100118139D01*
X184486615Y-100535303D01*
X184476945Y-100813771D01*
X184454380Y-100984161D01*
X184413642Y-101077094D01*
X184349456Y-101123190D01*
X184313222Y-101136272D01*
X184090347Y-101160093D01*
X183932222Y-101140365D01*
X183840136Y-101110242D01*
X183780699Y-101054003D01*
X183746767Y-100939426D01*
X183731202Y-100734284D01*
X183726860Y-100406355D01*
X183726666Y-100212804D01*
X183722349Y-99801946D01*
X183705237Y-99521227D01*
X183669094Y-99331578D01*
X183607683Y-99193932D01*
X183551188Y-99113751D01*
X183320899Y-98930969D01*
X183063719Y-98906072D01*
X182814504Y-99041539D01*
X182795333Y-99060000D01*
X182717352Y-99158401D01*
X182667417Y-99290080D01*
X182639564Y-99491731D01*
X182627824Y-99800048D01*
X182626000Y-100101400D01*
X182615305Y-100572060D01*
X182583945Y-100896605D01*
X182533004Y-101064649D01*
X182524400Y-101075066D01*
X182335067Y-101163159D01*
X182097160Y-101157848D01*
X181967608Y-101105498D01*
X181925003Y-101034226D01*
X181896512Y-100870819D01*
X181880961Y-100595596D01*
X181877171Y-100188876D01*
X181882941Y-99688628D01*
X181906333Y-98340333D01*
X182195706Y-98312742D01*
X182447065Y-98329197D01*
X182554178Y-98408627D01*
X182619413Y-98475029D01*
X182731830Y-98465911D01*
X182938478Y-98376089D01*
X182964148Y-98363452D01*
X183364212Y-98243447D01*
X183736814Y-98289203D01*
G36*
X140760633Y-97213002D02*
X140868583Y-97365137D01*
X140862272Y-97557486D01*
X140797291Y-97667067D01*
X140606192Y-97778107D01*
X140358706Y-97742086D01*
X140271500Y-97698551D01*
X140140227Y-97546858D01*
X140148291Y-97365005D01*
X140288349Y-97207442D01*
X140341575Y-97178932D01*
X140573329Y-97138471D01*
X140760633Y-97213002D01*
X140760633Y-97213002D01*
G37*
X140760633Y-97213002D02*
X140868583Y-97365137D01*
X140862272Y-97557486D01*
X140797291Y-97667067D01*
X140606192Y-97778107D01*
X140358706Y-97742086D01*
X140271500Y-97698551D01*
X140140227Y-97546858D01*
X140148291Y-97365005D01*
X140288349Y-97207442D01*
X140341575Y-97178932D01*
X140573329Y-97138471D01*
X140760633Y-97213002D01*
G36*
X159217967Y-97213002D02*
X159325916Y-97365137D01*
X159319605Y-97557486D01*
X159254624Y-97667067D01*
X159063526Y-97778107D01*
X158816040Y-97742086D01*
X158728833Y-97698551D01*
X158597560Y-97546858D01*
X158605624Y-97365005D01*
X158745682Y-97207442D01*
X158798908Y-97178932D01*
X159030662Y-97138471D01*
X159217967Y-97213002D01*
X159217967Y-97213002D01*
G37*
X159217967Y-97213002D02*
X159325916Y-97365137D01*
X159319605Y-97557486D01*
X159254624Y-97667067D01*
X159063526Y-97778107D01*
X158816040Y-97742086D01*
X158728833Y-97698551D01*
X158597560Y-97546858D01*
X158605624Y-97365005D01*
X158745682Y-97207442D01*
X158798908Y-97178932D01*
X159030662Y-97138471D01*
X159217967Y-97213002D01*
G36*
X177910292Y-96884232D02*
X178090883Y-96968949D01*
X178201726Y-97112756D01*
X178199209Y-97291889D01*
X178172027Y-97345500D01*
X177999074Y-97482025D01*
X177765224Y-97515217D01*
X177549130Y-97437656D01*
X177514310Y-97407549D01*
X177405298Y-97270142D01*
X177376666Y-97197333D01*
X177430520Y-97086003D01*
X177514310Y-96987117D01*
X177703564Y-96882367D01*
X177910292Y-96884232D01*
X177910292Y-96884232D01*
G37*
X177910292Y-96884232D02*
X178090883Y-96968949D01*
X178201726Y-97112756D01*
X178199209Y-97291889D01*
X178172027Y-97345500D01*
X177999074Y-97482025D01*
X177765224Y-97515217D01*
X177549130Y-97437656D01*
X177514310Y-97407549D01*
X177405298Y-97270142D01*
X177376666Y-97197333D01*
X177430520Y-97086003D01*
X177514310Y-96987117D01*
X177703564Y-96882367D01*
X177910292Y-96884232D01*
G36*
X132714521Y-96058935D02*
X132912446Y-96223408D01*
X133007232Y-96494563D01*
X133011333Y-96573713D01*
X133007101Y-96654357D01*
X132984763Y-96731082D01*
X132929855Y-96815233D01*
X132827912Y-96918152D01*
X132664470Y-97051183D01*
X132425066Y-97225669D01*
X132095236Y-97452953D01*
X131660515Y-97744378D01*
X131106439Y-98111287D01*
X130755344Y-98342934D01*
X128499355Y-99830687D01*
X130755344Y-101316852D01*
X131379747Y-101728784D01*
X131876934Y-102059277D01*
X132261374Y-102319624D01*
X132547536Y-102521116D01*
X132749891Y-102675045D01*
X132882907Y-102792702D01*
X132961054Y-102885380D01*
X132998802Y-102964370D01*
X133010619Y-103040963D01*
X133011333Y-103077387D01*
X132935303Y-103374918D01*
X132715736Y-103590511D01*
X132571326Y-103657083D01*
X132441851Y-103628192D01*
X132177381Y-103497958D01*
X131778382Y-103266646D01*
X131245321Y-102934522D01*
X130835659Y-102670247D01*
X129984319Y-102114778D01*
X129264752Y-101642972D01*
X128666607Y-101246436D01*
X128179528Y-100916781D01*
X127793164Y-100645616D01*
X127497160Y-100424551D01*
X127281164Y-100245194D01*
X127134822Y-100099155D01*
X127047781Y-99978043D01*
X127009688Y-99873469D01*
X127010189Y-99777041D01*
X127038931Y-99680368D01*
X127066763Y-99615815D01*
X127159474Y-99519366D01*
X127375713Y-99345771D01*
X127695762Y-99108186D01*
X128099902Y-98819763D01*
X128568412Y-98493656D01*
X129081573Y-98143017D01*
X129619667Y-97781001D01*
X130162973Y-97420760D01*
X130691773Y-97075448D01*
X131186346Y-96758219D01*
X131626975Y-96482226D01*
X131993938Y-96260621D01*
X132267518Y-96106559D01*
X132427994Y-96033193D01*
X132443173Y-96029600D01*
X132714521Y-96058935D01*
X132714521Y-96058935D01*
G37*
X132714521Y-96058935D02*
X132912446Y-96223408D01*
X133007232Y-96494563D01*
X133011333Y-96573713D01*
X133007101Y-96654357D01*
X132984763Y-96731082D01*
X132929855Y-96815233D01*
X132827912Y-96918152D01*
X132664470Y-97051183D01*
X132425066Y-97225669D01*
X132095236Y-97452953D01*
X131660515Y-97744378D01*
X131106439Y-98111287D01*
X130755344Y-98342934D01*
X128499355Y-99830687D01*
X130755344Y-101316852D01*
X131379747Y-101728784D01*
X131876934Y-102059277D01*
X132261374Y-102319624D01*
X132547536Y-102521116D01*
X132749891Y-102675045D01*
X132882907Y-102792702D01*
X132961054Y-102885380D01*
X132998802Y-102964370D01*
X133010619Y-103040963D01*
X133011333Y-103077387D01*
X132935303Y-103374918D01*
X132715736Y-103590511D01*
X132571326Y-103657083D01*
X132441851Y-103628192D01*
X132177381Y-103497958D01*
X131778382Y-103266646D01*
X131245321Y-102934522D01*
X130835659Y-102670247D01*
X129984319Y-102114778D01*
X129264752Y-101642972D01*
X128666607Y-101246436D01*
X128179528Y-100916781D01*
X127793164Y-100645616D01*
X127497160Y-100424551D01*
X127281164Y-100245194D01*
X127134822Y-100099155D01*
X127047781Y-99978043D01*
X127009688Y-99873469D01*
X127010189Y-99777041D01*
X127038931Y-99680368D01*
X127066763Y-99615815D01*
X127159474Y-99519366D01*
X127375713Y-99345771D01*
X127695762Y-99108186D01*
X128099902Y-98819763D01*
X128568412Y-98493656D01*
X129081573Y-98143017D01*
X129619667Y-97781001D01*
X130162973Y-97420760D01*
X130691773Y-97075448D01*
X131186346Y-96758219D01*
X131626975Y-96482226D01*
X131993938Y-96260621D01*
X132267518Y-96106559D01*
X132427994Y-96033193D01*
X132443173Y-96029600D01*
X132714521Y-96058935D01*
G36*
X190898827Y-96029600D02*
X191037149Y-96087255D01*
X191292077Y-96227943D01*
X191643892Y-96438510D01*
X192072875Y-96705803D01*
X192559306Y-97016668D01*
X193083466Y-97357952D01*
X193625636Y-97716501D01*
X194166096Y-98079163D01*
X194685126Y-98432783D01*
X195163009Y-98764209D01*
X195580023Y-99060287D01*
X195916450Y-99307864D01*
X196152570Y-99493786D01*
X196268665Y-99604900D01*
X196275236Y-99615815D01*
X196317702Y-99731686D01*
X196326423Y-99843433D01*
X196289402Y-99961619D01*
X196194642Y-100096808D01*
X196030145Y-100259564D01*
X195783912Y-100460450D01*
X195443947Y-100710029D01*
X194998252Y-101018866D01*
X194434828Y-101397525D01*
X193741679Y-101856568D01*
X193696222Y-101886554D01*
X192998889Y-102346365D01*
X192429024Y-102721267D01*
X191972743Y-103019593D01*
X191616163Y-103249671D01*
X191345399Y-103419832D01*
X191146567Y-103538406D01*
X191005784Y-103613724D01*
X190909166Y-103654115D01*
X190842827Y-103667911D01*
X190792885Y-103663440D01*
X190754000Y-103651845D01*
X190487801Y-103485018D01*
X190346575Y-103219282D01*
X190330667Y-103077387D01*
X190335576Y-102998214D01*
X190359950Y-102921690D01*
X190418259Y-102836524D01*
X190524972Y-102731422D01*
X190694559Y-102595095D01*
X190941488Y-102416249D01*
X191280231Y-102183594D01*
X191725255Y-101885837D01*
X192291031Y-101511686D01*
X192586655Y-101316852D01*
X194842644Y-99830687D01*
X192586655Y-98342934D01*
X191962662Y-97930903D01*
X191465775Y-97600435D01*
X191081530Y-97340187D01*
X190795464Y-97138816D01*
X190593111Y-96984979D01*
X190460009Y-96867333D01*
X190381692Y-96774535D01*
X190343697Y-96695240D01*
X190331561Y-96618107D01*
X190330666Y-96573713D01*
X190395767Y-96280840D01*
X190571258Y-96087702D01*
X190827426Y-96022757D01*
X190898827Y-96029600D01*
X190898827Y-96029600D01*
G37*
X190898827Y-96029600D02*
X191037149Y-96087255D01*
X191292077Y-96227943D01*
X191643892Y-96438510D01*
X192072875Y-96705803D01*
X192559306Y-97016668D01*
X193083466Y-97357952D01*
X193625636Y-97716501D01*
X194166096Y-98079163D01*
X194685126Y-98432783D01*
X195163009Y-98764209D01*
X195580023Y-99060287D01*
X195916450Y-99307864D01*
X196152570Y-99493786D01*
X196268665Y-99604900D01*
X196275236Y-99615815D01*
X196317702Y-99731686D01*
X196326423Y-99843433D01*
X196289402Y-99961619D01*
X196194642Y-100096808D01*
X196030145Y-100259564D01*
X195783912Y-100460450D01*
X195443947Y-100710029D01*
X194998252Y-101018866D01*
X194434828Y-101397525D01*
X193741679Y-101856568D01*
X193696222Y-101886554D01*
X192998889Y-102346365D01*
X192429024Y-102721267D01*
X191972743Y-103019593D01*
X191616163Y-103249671D01*
X191345399Y-103419832D01*
X191146567Y-103538406D01*
X191005784Y-103613724D01*
X190909166Y-103654115D01*
X190842827Y-103667911D01*
X190792885Y-103663440D01*
X190754000Y-103651845D01*
X190487801Y-103485018D01*
X190346575Y-103219282D01*
X190330667Y-103077387D01*
X190335576Y-102998214D01*
X190359950Y-102921690D01*
X190418259Y-102836524D01*
X190524972Y-102731422D01*
X190694559Y-102595095D01*
X190941488Y-102416249D01*
X191280231Y-102183594D01*
X191725255Y-101885837D01*
X192291031Y-101511686D01*
X192586655Y-101316852D01*
X194842644Y-99830687D01*
X192586655Y-98342934D01*
X191962662Y-97930903D01*
X191465775Y-97600435D01*
X191081530Y-97340187D01*
X190795464Y-97138816D01*
X190593111Y-96984979D01*
X190460009Y-96867333D01*
X190381692Y-96774535D01*
X190343697Y-96695240D01*
X190331561Y-96618107D01*
X190330666Y-96573713D01*
X190395767Y-96280840D01*
X190571258Y-96087702D01*
X190827426Y-96022757D01*
X190898827Y-96029600D01*
D12*
X159551100Y-77000540D03*
X164551100Y-77000540D03*
D13*
X158551100Y-74300540D03*
X165551100Y-74300540D03*
D14*
X140462000Y-97536000D03*
X140462000Y-99314000D03*
X142494000Y-98806000D03*
X144526000Y-99314000D03*
X149098000Y-99822000D03*
X152400000Y-99822000D03*
X154432000Y-99822000D03*
D15*
X140462000Y-97536000D03*
X140462000Y-100838000D03*
X141986000Y-101092000D03*
X144526000Y-100838000D03*
X149860000Y-100838000D03*
X152146000Y-100838000D03*
X154432000Y-100838000D03*
X159004000Y-100838000D03*
X159004000Y-97536000D03*
X160274000Y-100584000D03*
X161798000Y-100584000D03*
X164592000Y-100838000D03*
X166116000Y-100838000D03*
X167640000Y-100838000D03*
X170688000Y-100584000D03*
X172974000Y-100838000D03*
X175514000Y-101092000D03*
X177800000Y-100838000D03*
X177800000Y-97282000D03*
X179324000Y-100838000D03*
X182118000Y-100838000D03*
X128016000Y-99822000D03*
X195326000Y-99822000D03*
D16*
X135382000Y-73914000D03*
D17*
X135382000Y-76454000D03*
X135382000Y-78994000D03*
D16*
X123952000Y-73914000D03*
D17*
X123952000Y-76454000D03*
X123952000Y-78994000D03*
X123952000Y-81534000D03*
X123952000Y-84074000D03*
D16*
X129540000Y-73914000D03*
D17*
X129540000Y-76454000D03*
X129540000Y-78994000D03*
X129540000Y-81534000D03*
D16*
X146558000Y-73914000D03*
X140970000Y-73914000D03*
D17*
X140970000Y-76454000D03*
D18*
X191008000Y-75438000D03*
X199898000Y-76200000D03*
X195580000Y-91440000D03*
X195834000Y-84582000D03*
X198374000Y-84836000D03*
X201676000Y-87884000D03*
X163322000Y-78232000D03*
X179578000Y-83820000D03*
X185674000Y-80772000D03*
X137922000Y-73152000D03*
X195580000Y-109982000D03*
X198882000Y-109982000D03*
X190754000Y-81026000D03*
X191516000Y-80518000D03*
X187960000Y-77216000D03*
X184150000Y-74168000D03*
X187198000Y-97536000D03*
X191516000Y-87376000D03*
X188468000Y-98552000D03*
X195072000Y-73152000D03*
X195834000Y-72898000D03*
X194056000Y-73152000D03*
X179832000Y-72898000D03*
X193040000Y-73152000D03*
X200152000Y-81534000D03*
X194564000Y-89662000D03*
X193548000Y-89662000D03*
X192786000Y-89662000D03*
X192024000Y-89662000D03*
X189230000Y-81534000D03*
D19*
X185674000Y-80772000D02*
X186182000Y-80772000D01*
X191008000Y-75946000D02*
X191008000Y-75438000D01*
X190500000Y-76454000D02*
X191008000Y-75946000D01*
X187706000Y-76454000D02*
X190500000Y-76454000D01*
X186944000Y-77216000D02*
X187706000Y-76454000D01*
X186944000Y-80010000D02*
X186944000Y-77216000D01*
X186182000Y-80772000D02*
X186944000Y-80010000D01*
X199898000Y-76200000D02*
X199390000Y-76708000D01*
X199390000Y-76708000D02*
X199390000Y-84836000D01*
X198374000Y-84836000D02*
X199390000Y-84836000D01*
X201676000Y-87884000D02*
X201676000Y-90932000D01*
X201168000Y-91440000D02*
X195580000Y-91440000D01*
X201676000Y-90932000D02*
X201168000Y-91440000D01*
X198374000Y-84836000D02*
X196088000Y-84836000D01*
X196088000Y-84836000D02*
X195834000Y-84582000D01*
X198374000Y-87630000D02*
X198374000Y-84836000D01*
X198628000Y-87884000D02*
X198374000Y-87630000D01*
X201676000Y-87884000D02*
X198628000Y-87884000D01*
X179578000Y-83820000D02*
X164338000Y-83820000D01*
X163322000Y-82804000D02*
X163322000Y-78232000D01*
X164338000Y-83820000D02*
X163322000Y-82804000D01*
X179578000Y-80772000D02*
X179578000Y-83820000D01*
X180086000Y-80264000D02*
X179578000Y-80772000D01*
X185166000Y-80264000D02*
X180086000Y-80264000D01*
X185674000Y-80772000D02*
X185166000Y-80264000D01*
X135382000Y-76454000D02*
X135890000Y-76454000D01*
X135890000Y-76454000D02*
X136906000Y-75438000D01*
X136906000Y-74168000D02*
X137922000Y-73152000D01*
X136906000Y-75438000D02*
X136906000Y-74168000D01*
X135382000Y-76454000D02*
X135382000Y-76200000D01*
X135382000Y-76200000D02*
X134620000Y-75438000D01*
X133350000Y-73914000D02*
X129540000Y-73914000D01*
X133858000Y-74422000D02*
X133350000Y-73914000D01*
X133858000Y-74930000D02*
X133858000Y-74422000D01*
X134366000Y-75438000D02*
X133858000Y-74930000D01*
X134620000Y-75438000D02*
X134366000Y-75438000D01*
D20*
X165551100Y-76256900D02*
X165551100Y-74300540D01*
X164807460Y-77000540D02*
X165551100Y-76256900D01*
X164551100Y-77000540D02*
X164807460Y-77000540D01*
X159551100Y-77000540D02*
X164551100Y-77000540D01*
X198882000Y-109982000D02*
X195580000Y-109982000D01*
X188468000Y-80772000D02*
X188468000Y-81026000D01*
X190500000Y-80772000D02*
X188468000Y-80772000D01*
X190754000Y-81026000D02*
X190500000Y-80772000D01*
X135382000Y-92202000D02*
X135382000Y-78994000D01*
X137414000Y-94234000D02*
X135382000Y-92202000D01*
X179324000Y-94234000D02*
X137414000Y-94234000D01*
X179832000Y-94742000D02*
X179324000Y-94234000D01*
X189992000Y-94742000D02*
X179832000Y-94742000D01*
X191008000Y-93726000D02*
X189992000Y-94742000D01*
X191008000Y-84074000D02*
X191008000Y-93726000D01*
X188468000Y-81534000D02*
X191008000Y-84074000D01*
X188468000Y-81026000D02*
X188468000Y-81534000D01*
X191516000Y-80518000D02*
X191262000Y-80264000D01*
X191262000Y-80264000D02*
X188468000Y-80264000D01*
X188468000Y-80264000D02*
X187960000Y-80772000D01*
X187960000Y-80772000D02*
X187960000Y-81534000D01*
X187960000Y-81534000D02*
X190500000Y-84074000D01*
X190500000Y-84074000D02*
X190500000Y-93472000D01*
X190500000Y-93472000D02*
X189738000Y-94234000D01*
X189738000Y-94234000D02*
X180086000Y-94234000D01*
X180086000Y-94234000D02*
X179578000Y-93726000D01*
X179578000Y-93726000D02*
X137922000Y-93726000D01*
X137922000Y-93726000D02*
X135890000Y-91694000D01*
X135890000Y-91694000D02*
X135890000Y-81534000D01*
X135890000Y-81534000D02*
X140970000Y-76454000D01*
X187960000Y-77216000D02*
X187452000Y-77724000D01*
X187452000Y-77724000D02*
X187452000Y-81534000D01*
X187452000Y-81534000D02*
X189992000Y-84074000D01*
X189992000Y-84074000D02*
X189992000Y-93218000D01*
X189992000Y-93218000D02*
X189484000Y-93726000D01*
X189484000Y-93726000D02*
X180340000Y-93726000D01*
X180340000Y-93726000D02*
X179832000Y-93218000D01*
X179832000Y-93218000D02*
X138176000Y-93218000D01*
X138176000Y-93218000D02*
X136398000Y-91440000D01*
X136398000Y-91440000D02*
X136398000Y-84328000D01*
X136398000Y-84328000D02*
X142494000Y-78232000D01*
X142494000Y-78232000D02*
X142494000Y-75438000D01*
X142494000Y-75438000D02*
X140970000Y-73914000D01*
X146558000Y-73914000D02*
X148336000Y-73914000D01*
X183896000Y-73914000D02*
X184150000Y-74168000D01*
X179832000Y-73914000D02*
X183896000Y-73914000D01*
X178816000Y-72898000D02*
X179832000Y-73914000D01*
X149352000Y-72898000D02*
X178816000Y-72898000D01*
X148336000Y-73914000D02*
X149352000Y-72898000D01*
X186690000Y-100838000D02*
X181610000Y-100838000D01*
X187198000Y-100330000D02*
X186690000Y-100838000D01*
X187198000Y-97536000D02*
X187198000Y-100330000D01*
X140462000Y-99314000D02*
X140462000Y-97536000D01*
X140462000Y-100838000D02*
X140462000Y-99314000D01*
X141986000Y-101092000D02*
X140716000Y-101092000D01*
X140716000Y-101092000D02*
X140462000Y-100838000D01*
X143256000Y-99314000D02*
X143256000Y-100330000D01*
X142240000Y-100838000D02*
X141986000Y-101092000D01*
X142748000Y-100838000D02*
X142240000Y-100838000D01*
X143002000Y-100584000D02*
X142748000Y-100838000D01*
X143256000Y-100330000D02*
X143002000Y-100584000D01*
X144526000Y-99314000D02*
X143256000Y-99314000D01*
X142748000Y-98806000D02*
X142494000Y-98806000D01*
X143256000Y-99314000D02*
X142748000Y-98806000D01*
X144526000Y-99314000D02*
X144526000Y-100838000D01*
X149098000Y-99822000D02*
X148336000Y-99822000D01*
X144780000Y-99314000D02*
X144526000Y-99314000D01*
X145288000Y-98806000D02*
X144780000Y-99314000D01*
X145542000Y-98806000D02*
X145288000Y-98806000D01*
X146050000Y-99314000D02*
X145542000Y-98806000D01*
X146558000Y-99314000D02*
X146050000Y-99314000D01*
X147066000Y-98806000D02*
X146558000Y-99314000D01*
X147320000Y-98806000D02*
X147066000Y-98806000D01*
X148336000Y-99822000D02*
X147320000Y-98806000D01*
X149860000Y-100838000D02*
X149606000Y-100838000D01*
X149098000Y-100330000D02*
X149098000Y-99822000D01*
X149606000Y-100838000D02*
X149098000Y-100330000D01*
X152146000Y-100838000D02*
X149860000Y-100838000D01*
X152400000Y-99822000D02*
X152908000Y-99822000D01*
X152908000Y-100838000D02*
X152146000Y-100838000D01*
X153162000Y-100584000D02*
X152908000Y-100838000D01*
X153162000Y-100076000D02*
X153162000Y-100584000D01*
X152908000Y-99822000D02*
X153162000Y-100076000D01*
X154432000Y-99822000D02*
X152400000Y-99822000D01*
X154432000Y-100838000D02*
X154432000Y-99822000D01*
X159004000Y-100838000D02*
X154432000Y-100838000D01*
X157734000Y-100838000D02*
X159004000Y-100838000D01*
X159004000Y-100838000D02*
X157734000Y-100838000D01*
X159004000Y-100838000D02*
X159004000Y-97536000D01*
X160274000Y-100584000D02*
X160020000Y-100838000D01*
X160020000Y-100838000D02*
X159004000Y-100838000D01*
X161798000Y-100584000D02*
X160274000Y-100584000D01*
X164592000Y-100838000D02*
X161798000Y-100838000D01*
X161798000Y-100838000D02*
X161798000Y-100584000D01*
X166116000Y-100838000D02*
X164592000Y-100838000D01*
X167640000Y-100838000D02*
X166116000Y-100838000D01*
X170688000Y-100584000D02*
X170688000Y-100838000D01*
X170688000Y-100838000D02*
X167640000Y-100838000D01*
X172974000Y-100838000D02*
X170942000Y-100838000D01*
X170942000Y-100838000D02*
X170688000Y-100584000D01*
X175514000Y-101092000D02*
X173228000Y-101092000D01*
X173228000Y-101092000D02*
X172974000Y-100838000D01*
X177800000Y-100838000D02*
X177546000Y-101092000D01*
X177546000Y-101092000D02*
X175514000Y-101092000D01*
X177800000Y-97282000D02*
X177800000Y-100838000D01*
X179324000Y-100838000D02*
X177800000Y-100838000D01*
X182118000Y-100838000D02*
X181610000Y-100838000D01*
X181610000Y-100838000D02*
X179324000Y-100838000D01*
X128016000Y-99822000D02*
X125984000Y-99822000D01*
X191516000Y-93980000D02*
X191516000Y-87376000D01*
X190246000Y-95250000D02*
X191516000Y-93980000D01*
X179578000Y-95250000D02*
X190246000Y-95250000D01*
X179070000Y-94742000D02*
X179578000Y-95250000D01*
X126238000Y-94742000D02*
X179070000Y-94742000D01*
X125476000Y-95504000D02*
X126238000Y-94742000D01*
X125476000Y-99314000D02*
X125476000Y-95504000D01*
X125984000Y-99822000D02*
X125476000Y-99314000D01*
X195326000Y-99314000D02*
X195326000Y-99822000D01*
X195072000Y-99060000D02*
X195326000Y-99314000D01*
X194310000Y-99060000D02*
X195072000Y-99060000D01*
X188976000Y-99060000D02*
X194310000Y-99060000D01*
X188468000Y-98552000D02*
X188976000Y-99060000D01*
X127127000Y-72009000D02*
X194437000Y-72009000D01*
X194437000Y-72009000D02*
X194818000Y-72390000D01*
X122428000Y-75438000D02*
X123952000Y-73914000D01*
X122428000Y-76962000D02*
X122428000Y-75438000D01*
X123190000Y-77724000D02*
X122428000Y-76962000D01*
X125476000Y-77724000D02*
X123190000Y-77724000D01*
X126746000Y-76454000D02*
X125476000Y-77724000D01*
X126746000Y-72390000D02*
X126746000Y-76454000D01*
X127127000Y-72009000D02*
X126746000Y-72390000D01*
X194818000Y-72898000D02*
X194818000Y-72390000D01*
X195072000Y-73152000D02*
X194818000Y-72898000D01*
X123952000Y-76454000D02*
X124206000Y-76454000D01*
X124206000Y-76454000D02*
X126238000Y-74422000D01*
X126238000Y-74422000D02*
X126238000Y-71882000D01*
X126238000Y-71882000D02*
X126492000Y-71628000D01*
X126492000Y-71628000D02*
X195072000Y-71628000D01*
X195072000Y-71628000D02*
X195834000Y-72390000D01*
X195834000Y-72390000D02*
X195834000Y-72898000D01*
X125476000Y-78994000D02*
X123952000Y-78994000D01*
X127254000Y-77216000D02*
X125476000Y-78994000D01*
X127254000Y-72644000D02*
X127254000Y-77216000D01*
X127508000Y-72390000D02*
X127254000Y-72644000D01*
X194056000Y-72390000D02*
X127508000Y-72390000D01*
X194056000Y-73152000D02*
X194056000Y-72390000D01*
X179832000Y-72898000D02*
X192786000Y-72898000D01*
X192786000Y-72898000D02*
X193040000Y-73152000D01*
X120142000Y-87884000D02*
X123952000Y-84074000D01*
X120142000Y-126238000D02*
X120142000Y-87884000D01*
X121666000Y-127762000D02*
X120142000Y-126238000D01*
X203708000Y-127762000D02*
X121666000Y-127762000D01*
X204470000Y-127000000D02*
X203708000Y-127762000D01*
X204470000Y-83058000D02*
X204470000Y-127000000D01*
X203962000Y-82550000D02*
X204470000Y-83058000D01*
X201168000Y-82550000D02*
X203962000Y-82550000D01*
X200152000Y-81534000D02*
X201168000Y-82550000D01*
X125476000Y-79756000D02*
X128778000Y-76454000D01*
X125476000Y-85598000D02*
X125476000Y-79756000D01*
X120650000Y-90424000D02*
X125476000Y-85598000D01*
X120650000Y-125984000D02*
X120650000Y-90424000D01*
X121920000Y-127254000D02*
X120650000Y-125984000D01*
X203454000Y-127254000D02*
X121920000Y-127254000D01*
X203962000Y-126746000D02*
X203454000Y-127254000D01*
X203962000Y-94742000D02*
X203962000Y-126746000D01*
X203200000Y-93980000D02*
X203962000Y-94742000D01*
X200660000Y-93980000D02*
X203200000Y-93980000D01*
X199898000Y-93218000D02*
X200660000Y-93980000D01*
X194564000Y-93218000D02*
X199898000Y-93218000D01*
X194564000Y-89662000D02*
X194564000Y-93218000D01*
X128778000Y-76454000D02*
X129540000Y-76454000D01*
X127762000Y-78994000D02*
X129540000Y-78994000D01*
X126492000Y-80264000D02*
X127762000Y-78994000D01*
X126492000Y-86106000D02*
X126492000Y-80264000D01*
X121158000Y-91440000D02*
X126492000Y-86106000D01*
X121158000Y-125730000D02*
X121158000Y-91440000D01*
X122174000Y-126746000D02*
X121158000Y-125730000D01*
X202946000Y-126746000D02*
X122174000Y-126746000D01*
X203454000Y-126238000D02*
X202946000Y-126746000D01*
X203454000Y-94996000D02*
X203454000Y-126238000D01*
X202946000Y-94488000D02*
X203454000Y-94996000D01*
X200406000Y-94488000D02*
X202946000Y-94488000D01*
X199644000Y-93726000D02*
X200406000Y-94488000D01*
X194056000Y-93726000D02*
X199644000Y-93726000D01*
X193802000Y-93472000D02*
X194056000Y-93726000D01*
X193802000Y-89916000D02*
X193802000Y-93472000D01*
X193548000Y-89662000D02*
X193802000Y-89916000D01*
X128016000Y-81534000D02*
X129540000Y-81534000D01*
X127254000Y-82296000D02*
X128016000Y-81534000D01*
X127254000Y-86360000D02*
X127254000Y-82296000D01*
X121666000Y-91948000D02*
X127254000Y-86360000D01*
X121666000Y-125476000D02*
X121666000Y-91948000D01*
X122428000Y-126238000D02*
X121666000Y-125476000D01*
X202438000Y-126238000D02*
X122428000Y-126238000D01*
X202946000Y-125730000D02*
X202438000Y-126238000D01*
X202946000Y-95504000D02*
X202946000Y-125730000D01*
X202438000Y-94996000D02*
X202946000Y-95504000D01*
X200152000Y-94996000D02*
X202438000Y-94996000D01*
X199390000Y-94234000D02*
X200152000Y-94996000D01*
X193548000Y-94234000D02*
X199390000Y-94234000D01*
X193040000Y-93726000D02*
X193548000Y-94234000D01*
X193040000Y-89916000D02*
X193040000Y-93726000D01*
X192786000Y-89662000D02*
X193040000Y-89916000D01*
X192024000Y-88392000D02*
X192024000Y-89662000D01*
X189230000Y-81534000D02*
X192024000Y-84328000D01*
X192278000Y-88138000D02*
X192278000Y-86614000D01*
X192024000Y-88392000D02*
X192278000Y-88138000D01*
X192278000Y-84582000D02*
X192278000Y-86614000D01*
X192024000Y-84328000D02*
X192278000Y-84582000D01*
D21*
G36*
X203733338Y-72020046D02*
X204147333Y-72296669D01*
X204423953Y-72710660D01*
X204535000Y-73268931D01*
X204535000Y-82048198D01*
X204499401Y-82012599D01*
X204252839Y-81847852D01*
X203962000Y-81790000D01*
X201482802Y-81790000D01*
X201087122Y-81394320D01*
X201087162Y-81348833D01*
X200945117Y-81005057D01*
X200682327Y-80741808D01*
X200338799Y-80599162D01*
X199966833Y-80598838D01*
X199623057Y-80740883D01*
X199359808Y-81003673D01*
X199217162Y-81347201D01*
X199216838Y-81719167D01*
X199358883Y-82062943D01*
X199621673Y-82326192D01*
X199965201Y-82468838D01*
X200012077Y-82468879D01*
X200630599Y-83087401D01*
X200877161Y-83252148D01*
X201168000Y-83310000D01*
X203647198Y-83310000D01*
X203710000Y-83372802D01*
X203710000Y-93424290D01*
X203490839Y-93277852D01*
X203200000Y-93220000D01*
X200974802Y-93220000D01*
X200435401Y-92680599D01*
X200188839Y-92515852D01*
X199898000Y-92458000D01*
X195324000Y-92458000D01*
X195324000Y-90224463D01*
X195356192Y-90192327D01*
X195498838Y-89848799D01*
X195499162Y-89476833D01*
X195357117Y-89133057D01*
X195094327Y-88869808D01*
X194750799Y-88727162D01*
X194378833Y-88726838D01*
X194055629Y-88860383D01*
X193734799Y-88727162D01*
X193362833Y-88726838D01*
X193166943Y-88807778D01*
X192972799Y-88727162D01*
X192784000Y-88726998D01*
X192784000Y-88706802D01*
X192815401Y-88675401D01*
X192980148Y-88428840D01*
X193038000Y-88138000D01*
X193038000Y-84582000D01*
X192980148Y-84291161D01*
X192980148Y-84291160D01*
X192815401Y-84044599D01*
X190731783Y-81960981D01*
X190939167Y-81961162D01*
X191282943Y-81819117D01*
X191546192Y-81556327D01*
X191589071Y-81453064D01*
X191701167Y-81453162D01*
X192044943Y-81311117D01*
X192308192Y-81048327D01*
X192450838Y-80704799D01*
X192451162Y-80332833D01*
X192309117Y-79989057D01*
X192046327Y-79725808D01*
X191702799Y-79583162D01*
X191584578Y-79583059D01*
X191552839Y-79561852D01*
X191262000Y-79504000D01*
X188468000Y-79504000D01*
X188212000Y-79554922D01*
X188212000Y-78123547D01*
X188488943Y-78009117D01*
X188752192Y-77746327D01*
X188894838Y-77402799D01*
X188895162Y-77030833D01*
X188753117Y-76687057D01*
X188490327Y-76423808D01*
X188146799Y-76281162D01*
X187774833Y-76280838D01*
X187431057Y-76422883D01*
X187167808Y-76685673D01*
X187025162Y-77029201D01*
X187025121Y-77076077D01*
X186914599Y-77186599D01*
X186749852Y-77433161D01*
X186692000Y-77724000D01*
X186692000Y-81534000D01*
X186749852Y-81824839D01*
X186914599Y-82071401D01*
X189232000Y-84388802D01*
X189232000Y-92903198D01*
X189169198Y-92966000D01*
X180654802Y-92966000D01*
X180369401Y-92680599D01*
X180122839Y-92515852D01*
X179832000Y-92458000D01*
X138490802Y-92458000D01*
X137158000Y-91125198D01*
X137158000Y-84642802D01*
X143031401Y-78769401D01*
X143196148Y-78522839D01*
X143254000Y-78232000D01*
X143254000Y-75438000D01*
X143203078Y-75182000D01*
X143196148Y-75147160D01*
X143031401Y-74900599D01*
X142617440Y-74486638D01*
X142617440Y-73150000D01*
X144910560Y-73150000D01*
X144910560Y-74914000D01*
X144954838Y-75149317D01*
X145093910Y-75365441D01*
X145306110Y-75510431D01*
X145558000Y-75561440D01*
X147558000Y-75561440D01*
X147793317Y-75517162D01*
X148009441Y-75378090D01*
X148154431Y-75165890D01*
X148205440Y-74914000D01*
X148205440Y-74674000D01*
X148336000Y-74674000D01*
X148626839Y-74616148D01*
X148873401Y-74451401D01*
X149666802Y-73658000D01*
X157483714Y-73658000D01*
X157416100Y-73997916D01*
X157416100Y-74603164D01*
X157502497Y-75037510D01*
X157748534Y-75405730D01*
X158116754Y-75651767D01*
X158551100Y-75738164D01*
X158985446Y-75651767D01*
X159353666Y-75405730D01*
X159599703Y-75037510D01*
X159686100Y-74603164D01*
X159686100Y-73997916D01*
X159618486Y-73658000D01*
X164483714Y-73658000D01*
X164416100Y-73997916D01*
X164416100Y-74603164D01*
X164502497Y-75037510D01*
X164748534Y-75405730D01*
X164791100Y-75434172D01*
X164791100Y-75903532D01*
X164725785Y-75890540D01*
X164376415Y-75890540D01*
X163951636Y-75975034D01*
X163591526Y-76215651D01*
X163574896Y-76240540D01*
X160527304Y-76240540D01*
X160510674Y-76215651D01*
X160150564Y-75975034D01*
X159725785Y-75890540D01*
X159376415Y-75890540D01*
X158951636Y-75975034D01*
X158591526Y-76215651D01*
X158350909Y-76575761D01*
X158266415Y-77000540D01*
X158350909Y-77425319D01*
X158591526Y-77785429D01*
X158951636Y-78026046D01*
X159376415Y-78110540D01*
X159725785Y-78110540D01*
X160150564Y-78026046D01*
X160510674Y-77785429D01*
X160527304Y-77760540D01*
X163574896Y-77760540D01*
X163591526Y-77785429D01*
X163951636Y-78026046D01*
X164376415Y-78110540D01*
X164725785Y-78110540D01*
X165150564Y-78026046D01*
X165510674Y-77785429D01*
X165751291Y-77425319D01*
X165824245Y-77058557D01*
X166088501Y-76794301D01*
X166253248Y-76547739D01*
X166311100Y-76256900D01*
X166311100Y-75434172D01*
X166353666Y-75405730D01*
X166599703Y-75037510D01*
X166686100Y-74603164D01*
X166686100Y-73997916D01*
X166618486Y-73658000D01*
X178501198Y-73658000D01*
X179294599Y-74451401D01*
X179541161Y-74616148D01*
X179832000Y-74674000D01*
X183347403Y-74674000D01*
X183356883Y-74696943D01*
X183619673Y-74960192D01*
X183963201Y-75102838D01*
X184335167Y-75103162D01*
X184678943Y-74961117D01*
X184942192Y-74698327D01*
X185084838Y-74354799D01*
X185085162Y-73982833D01*
X184950944Y-73658000D01*
X192237403Y-73658000D01*
X192246883Y-73680943D01*
X192509673Y-73944192D01*
X192853201Y-74086838D01*
X193225167Y-74087162D01*
X193548371Y-73953617D01*
X193869201Y-74086838D01*
X194241167Y-74087162D01*
X194564371Y-73953617D01*
X194885201Y-74086838D01*
X195257167Y-74087162D01*
X195600943Y-73945117D01*
X195713360Y-73832896D01*
X196019167Y-73833162D01*
X196362943Y-73691117D01*
X196626192Y-73428327D01*
X196768838Y-73084799D01*
X196769162Y-72712833D01*
X196627117Y-72369057D01*
X196580556Y-72322415D01*
X196536148Y-72099161D01*
X196409087Y-71909000D01*
X203175069Y-71909000D01*
X203733338Y-72020046D01*
X203733338Y-72020046D01*
G37*
X203733338Y-72020046D02*
X204147333Y-72296669D01*
X204423953Y-72710660D01*
X204535000Y-73268931D01*
X204535000Y-82048198D01*
X204499401Y-82012599D01*
X204252839Y-81847852D01*
X203962000Y-81790000D01*
X201482802Y-81790000D01*
X201087122Y-81394320D01*
X201087162Y-81348833D01*
X200945117Y-81005057D01*
X200682327Y-80741808D01*
X200338799Y-80599162D01*
X199966833Y-80598838D01*
X199623057Y-80740883D01*
X199359808Y-81003673D01*
X199217162Y-81347201D01*
X199216838Y-81719167D01*
X199358883Y-82062943D01*
X199621673Y-82326192D01*
X199965201Y-82468838D01*
X200012077Y-82468879D01*
X200630599Y-83087401D01*
X200877161Y-83252148D01*
X201168000Y-83310000D01*
X203647198Y-83310000D01*
X203710000Y-83372802D01*
X203710000Y-93424290D01*
X203490839Y-93277852D01*
X203200000Y-93220000D01*
X200974802Y-93220000D01*
X200435401Y-92680599D01*
X200188839Y-92515852D01*
X199898000Y-92458000D01*
X195324000Y-92458000D01*
X195324000Y-90224463D01*
X195356192Y-90192327D01*
X195498838Y-89848799D01*
X195499162Y-89476833D01*
X195357117Y-89133057D01*
X195094327Y-88869808D01*
X194750799Y-88727162D01*
X194378833Y-88726838D01*
X194055629Y-88860383D01*
X193734799Y-88727162D01*
X193362833Y-88726838D01*
X193166943Y-88807778D01*
X192972799Y-88727162D01*
X192784000Y-88726998D01*
X192784000Y-88706802D01*
X192815401Y-88675401D01*
X192980148Y-88428840D01*
X193038000Y-88138000D01*
X193038000Y-84582000D01*
X192980148Y-84291161D01*
X192980148Y-84291160D01*
X192815401Y-84044599D01*
X190731783Y-81960981D01*
X190939167Y-81961162D01*
X191282943Y-81819117D01*
X191546192Y-81556327D01*
X191589071Y-81453064D01*
X191701167Y-81453162D01*
X192044943Y-81311117D01*
X192308192Y-81048327D01*
X192450838Y-80704799D01*
X192451162Y-80332833D01*
X192309117Y-79989057D01*
X192046327Y-79725808D01*
X191702799Y-79583162D01*
X191584578Y-79583059D01*
X191552839Y-79561852D01*
X191262000Y-79504000D01*
X188468000Y-79504000D01*
X188212000Y-79554922D01*
X188212000Y-78123547D01*
X188488943Y-78009117D01*
X188752192Y-77746327D01*
X188894838Y-77402799D01*
X188895162Y-77030833D01*
X188753117Y-76687057D01*
X188490327Y-76423808D01*
X188146799Y-76281162D01*
X187774833Y-76280838D01*
X187431057Y-76422883D01*
X187167808Y-76685673D01*
X187025162Y-77029201D01*
X187025121Y-77076077D01*
X186914599Y-77186599D01*
X186749852Y-77433161D01*
X186692000Y-77724000D01*
X186692000Y-81534000D01*
X186749852Y-81824839D01*
X186914599Y-82071401D01*
X189232000Y-84388802D01*
X189232000Y-92903198D01*
X189169198Y-92966000D01*
X180654802Y-92966000D01*
X180369401Y-92680599D01*
X180122839Y-92515852D01*
X179832000Y-92458000D01*
X138490802Y-92458000D01*
X137158000Y-91125198D01*
X137158000Y-84642802D01*
X143031401Y-78769401D01*
X143196148Y-78522839D01*
X143254000Y-78232000D01*
X143254000Y-75438000D01*
X143203078Y-75182000D01*
X143196148Y-75147160D01*
X143031401Y-74900599D01*
X142617440Y-74486638D01*
X142617440Y-73150000D01*
X144910560Y-73150000D01*
X144910560Y-74914000D01*
X144954838Y-75149317D01*
X145093910Y-75365441D01*
X145306110Y-75510431D01*
X145558000Y-75561440D01*
X147558000Y-75561440D01*
X147793317Y-75517162D01*
X148009441Y-75378090D01*
X148154431Y-75165890D01*
X148205440Y-74914000D01*
X148205440Y-74674000D01*
X148336000Y-74674000D01*
X148626839Y-74616148D01*
X148873401Y-74451401D01*
X149666802Y-73658000D01*
X157483714Y-73658000D01*
X157416100Y-73997916D01*
X157416100Y-74603164D01*
X157502497Y-75037510D01*
X157748534Y-75405730D01*
X158116754Y-75651767D01*
X158551100Y-75738164D01*
X158985446Y-75651767D01*
X159353666Y-75405730D01*
X159599703Y-75037510D01*
X159686100Y-74603164D01*
X159686100Y-73997916D01*
X159618486Y-73658000D01*
X164483714Y-73658000D01*
X164416100Y-73997916D01*
X164416100Y-74603164D01*
X164502497Y-75037510D01*
X164748534Y-75405730D01*
X164791100Y-75434172D01*
X164791100Y-75903532D01*
X164725785Y-75890540D01*
X164376415Y-75890540D01*
X163951636Y-75975034D01*
X163591526Y-76215651D01*
X163574896Y-76240540D01*
X160527304Y-76240540D01*
X160510674Y-76215651D01*
X160150564Y-75975034D01*
X159725785Y-75890540D01*
X159376415Y-75890540D01*
X158951636Y-75975034D01*
X158591526Y-76215651D01*
X158350909Y-76575761D01*
X158266415Y-77000540D01*
X158350909Y-77425319D01*
X158591526Y-77785429D01*
X158951636Y-78026046D01*
X159376415Y-78110540D01*
X159725785Y-78110540D01*
X160150564Y-78026046D01*
X160510674Y-77785429D01*
X160527304Y-77760540D01*
X163574896Y-77760540D01*
X163591526Y-77785429D01*
X163951636Y-78026046D01*
X164376415Y-78110540D01*
X164725785Y-78110540D01*
X165150564Y-78026046D01*
X165510674Y-77785429D01*
X165751291Y-77425319D01*
X165824245Y-77058557D01*
X166088501Y-76794301D01*
X166253248Y-76547739D01*
X166311100Y-76256900D01*
X166311100Y-75434172D01*
X166353666Y-75405730D01*
X166599703Y-75037510D01*
X166686100Y-74603164D01*
X166686100Y-73997916D01*
X166618486Y-73658000D01*
X178501198Y-73658000D01*
X179294599Y-74451401D01*
X179541161Y-74616148D01*
X179832000Y-74674000D01*
X183347403Y-74674000D01*
X183356883Y-74696943D01*
X183619673Y-74960192D01*
X183963201Y-75102838D01*
X184335167Y-75103162D01*
X184678943Y-74961117D01*
X184942192Y-74698327D01*
X185084838Y-74354799D01*
X185085162Y-73982833D01*
X184950944Y-73658000D01*
X192237403Y-73658000D01*
X192246883Y-73680943D01*
X192509673Y-73944192D01*
X192853201Y-74086838D01*
X193225167Y-74087162D01*
X193548371Y-73953617D01*
X193869201Y-74086838D01*
X194241167Y-74087162D01*
X194564371Y-73953617D01*
X194885201Y-74086838D01*
X195257167Y-74087162D01*
X195600943Y-73945117D01*
X195713360Y-73832896D01*
X196019167Y-73833162D01*
X196362943Y-73691117D01*
X196626192Y-73428327D01*
X196768838Y-73084799D01*
X196769162Y-72712833D01*
X196627117Y-72369057D01*
X196580556Y-72322415D01*
X196536148Y-72099161D01*
X196409087Y-71909000D01*
X203175069Y-71909000D01*
X203733338Y-72020046D01*
G36*
X135509000Y-73787000D02*
X135529000Y-73787000D01*
X135529000Y-74041000D01*
X135509000Y-74041000D01*
X135509000Y-74061000D01*
X135255000Y-74061000D01*
X135255000Y-74041000D01*
X135235000Y-74041000D01*
X135235000Y-73787000D01*
X135255000Y-73787000D01*
X135255000Y-73767000D01*
X135509000Y-73767000D01*
X135509000Y-73787000D01*
X135509000Y-73787000D01*
G37*
X135509000Y-73787000D02*
X135529000Y-73787000D01*
X135529000Y-74041000D01*
X135509000Y-74041000D01*
X135509000Y-74061000D01*
X135255000Y-74061000D01*
X135255000Y-74041000D01*
X135235000Y-74041000D01*
X135235000Y-73787000D01*
X135255000Y-73787000D01*
X135255000Y-73767000D01*
X135509000Y-73767000D01*
X135509000Y-73787000D01*
M02*
