G04 #@! TF.FileFunction,Legend,Top*
%FSLAX46Y46*%
G04 Gerber Fmt 4.6, Leading zero omitted, Abs format (unit mm)*
G04 Created by KiCad (PCBNEW 4.0.4-stable) date Saturday, 28 October 2017 'AMt' 09:45:45*
%MOMM*%
%LPD*%
G01*
G04 APERTURE LIST*
%ADD10C,0.100000*%
%ADD11C,0.010000*%
G04 APERTURE END LIST*
D10*
D11*
G36*
X170969430Y-96115114D02*
X171276277Y-96225196D01*
X171492776Y-96430437D01*
X171525330Y-96490986D01*
X171564876Y-96660715D01*
X171596217Y-96953057D01*
X171615345Y-97321343D01*
X171619333Y-97585615D01*
X171619333Y-98473929D01*
X171809833Y-98291113D01*
X172239115Y-97991075D01*
X172737989Y-97828801D01*
X173271612Y-97808762D01*
X173805144Y-97935427D01*
X173980254Y-98012667D01*
X174229529Y-98152419D01*
X174410849Y-98282940D01*
X174473068Y-98355150D01*
X174528600Y-98413188D01*
X174619218Y-98330642D01*
X174646740Y-98292653D01*
X174901547Y-98062495D01*
X175269267Y-97900207D01*
X175704699Y-97813044D01*
X176162643Y-97808261D01*
X176597899Y-97893113D01*
X176756160Y-97954065D01*
X176976521Y-98047880D01*
X177102427Y-98069403D01*
X177192068Y-98019656D01*
X177246649Y-97962667D01*
X177336649Y-97843885D01*
X177304978Y-97783536D01*
X177252051Y-97760297D01*
X177106024Y-97624716D01*
X177010039Y-97386762D01*
X176993307Y-97197333D01*
X177376666Y-97197333D01*
X177447110Y-97340016D01*
X177611730Y-97470453D01*
X177800461Y-97535184D01*
X177820547Y-97536000D01*
X178023148Y-97480590D01*
X178153166Y-97395877D01*
X178272285Y-97264304D01*
X178308000Y-97190258D01*
X178236599Y-97050720D01*
X178067959Y-96924406D01*
X177870423Y-96859983D01*
X177842333Y-96858666D01*
X177642466Y-96910856D01*
X177465060Y-97034583D01*
X177377853Y-97180583D01*
X177376666Y-97197333D01*
X176993307Y-97197333D01*
X176985679Y-97110986D01*
X177000249Y-97007133D01*
X177129384Y-96769013D01*
X177371446Y-96571235D01*
X177670036Y-96452860D01*
X177825371Y-96435649D01*
X178180659Y-96506355D01*
X178476247Y-96697905D01*
X178647527Y-96945411D01*
X178710359Y-97154771D01*
X178685566Y-97341266D01*
X178618489Y-97499737D01*
X178507853Y-97687413D01*
X178408630Y-97785748D01*
X178391501Y-97790000D01*
X178377306Y-97847929D01*
X178453326Y-97991509D01*
X178484145Y-98035105D01*
X178665359Y-98280211D01*
X178960862Y-98079678D01*
X179416751Y-97863134D01*
X179938179Y-97793732D01*
X180204185Y-97809928D01*
X180528486Y-97807467D01*
X180723078Y-97735676D01*
X180981101Y-97636836D01*
X181293093Y-97638273D01*
X181552066Y-97726500D01*
X181768728Y-97796638D01*
X182108088Y-97843482D01*
X182524522Y-97862213D01*
X182795333Y-97857837D01*
X183259391Y-97842115D01*
X183590131Y-97841356D01*
X183823292Y-97860868D01*
X183994613Y-97905954D01*
X184139833Y-97981922D01*
X184272607Y-98077149D01*
X184551396Y-98343353D01*
X184751106Y-98670116D01*
X184882416Y-99086492D01*
X184956007Y-99621536D01*
X184976241Y-99991333D01*
X184985093Y-100423078D01*
X184974708Y-100727754D01*
X184940759Y-100946971D01*
X184878918Y-101122335D01*
X184853153Y-101174791D01*
X184627898Y-101441549D01*
X184304212Y-101574847D01*
X183893250Y-101570313D01*
X183858981Y-101564249D01*
X183628780Y-101491602D01*
X183461466Y-101356708D01*
X183345557Y-101134734D01*
X183269572Y-100800846D01*
X183222031Y-100330209D01*
X183211926Y-100164610D01*
X183162852Y-99271666D01*
X183148426Y-100057552D01*
X183128708Y-100455909D01*
X183088798Y-100812052D01*
X183035469Y-101070920D01*
X183017414Y-101122467D01*
X182821378Y-101387789D01*
X182522790Y-101551456D01*
X182170103Y-101588442D01*
X182125673Y-101583066D01*
X181952996Y-101576468D01*
X181868468Y-101655278D01*
X181823983Y-101829093D01*
X181680948Y-102178142D01*
X181410697Y-102497385D01*
X181054804Y-102743490D01*
X180872707Y-102820574D01*
X180417806Y-102920402D01*
X179912030Y-102944854D01*
X179434925Y-102893273D01*
X179218935Y-102834191D01*
X178756645Y-102606550D01*
X178431698Y-102308015D01*
X178254473Y-101950364D01*
X178234159Y-101789902D01*
X178659038Y-101789902D01*
X178775582Y-102061200D01*
X178823052Y-102115052D01*
X179125114Y-102343562D01*
X179492481Y-102472644D01*
X179962989Y-102513686D01*
X180136200Y-102510294D01*
X180486514Y-102485742D01*
X180729605Y-102433359D01*
X180927260Y-102335761D01*
X181039423Y-102256180D01*
X181306747Y-101975161D01*
X181419296Y-101677478D01*
X181387269Y-101384639D01*
X181220866Y-101118153D01*
X180930286Y-100899528D01*
X180525728Y-100750273D01*
X180306769Y-100711161D01*
X179936831Y-100657464D01*
X179709846Y-100605139D01*
X179599680Y-100546385D01*
X179582399Y-100504330D01*
X181186666Y-100504330D01*
X181251245Y-100581719D01*
X181271333Y-100584000D01*
X181345637Y-100515084D01*
X181356000Y-100452003D01*
X181314954Y-100364368D01*
X181271333Y-100372333D01*
X181189896Y-100480576D01*
X181186666Y-100504330D01*
X179582399Y-100504330D01*
X179578000Y-100493627D01*
X179653944Y-100447656D01*
X179847212Y-100419188D01*
X179981487Y-100414666D01*
X180418424Y-100350868D01*
X180784906Y-100176498D01*
X181061249Y-99917095D01*
X181091953Y-99858294D01*
X181857943Y-99858294D01*
X181865935Y-100271695D01*
X181883645Y-100638338D01*
X181911020Y-100923224D01*
X181948008Y-101091352D01*
X181969833Y-101120593D01*
X182270154Y-101167690D01*
X182492075Y-101125274D01*
X182554304Y-101072919D01*
X182594357Y-100953341D01*
X182616578Y-100736704D01*
X182625310Y-100393170D01*
X182626000Y-100205359D01*
X182630405Y-99796158D01*
X182647834Y-99516841D01*
X182684608Y-99328089D01*
X182747046Y-99190586D01*
X182801478Y-99113751D01*
X183016008Y-98930380D01*
X183242563Y-98914945D01*
X183486547Y-99067333D01*
X183518848Y-99098484D01*
X183612136Y-99203315D01*
X183672400Y-99318665D01*
X183706795Y-99482372D01*
X183722477Y-99732274D01*
X183726599Y-100106207D01*
X183726666Y-100197538D01*
X183728244Y-100594375D01*
X183737614Y-100853795D01*
X183761737Y-101007712D01*
X183807568Y-101088041D01*
X183882067Y-101126696D01*
X183932222Y-101140365D01*
X184167090Y-101159268D01*
X184313222Y-101136272D01*
X184387268Y-101102162D01*
X184436947Y-101035827D01*
X184467090Y-100907630D01*
X184482522Y-100687929D01*
X184488071Y-100347086D01*
X184488666Y-100059121D01*
X184485126Y-99609475D01*
X184471139Y-99291821D01*
X184441649Y-99068901D01*
X184391604Y-98903458D01*
X184315951Y-98758237D01*
X184311159Y-98750440D01*
X184056179Y-98463965D01*
X183732795Y-98279922D01*
X183384342Y-98209826D01*
X183054156Y-98265190D01*
X182875775Y-98369062D01*
X182731478Y-98472037D01*
X182635189Y-98464880D01*
X182527729Y-98369062D01*
X182304954Y-98232988D01*
X182081076Y-98239483D01*
X181965600Y-98314933D01*
X181924210Y-98437119D01*
X181892802Y-98687549D01*
X181871324Y-99031221D01*
X181859722Y-99433136D01*
X181857943Y-99858294D01*
X181091953Y-99858294D01*
X181227769Y-99598197D01*
X181264780Y-99245343D01*
X181156141Y-98890666D01*
X181093547Y-98733816D01*
X181125806Y-98606402D01*
X181251304Y-98453046D01*
X181373852Y-98281926D01*
X181408521Y-98150861D01*
X181402585Y-98135546D01*
X181264990Y-98051735D01*
X181066364Y-98061951D01*
X180878886Y-98155679D01*
X180818547Y-98220636D01*
X180697899Y-98341144D01*
X180560960Y-98324336D01*
X180522979Y-98305303D01*
X180206757Y-98217430D01*
X179827682Y-98228371D01*
X179445242Y-98324548D01*
X179118931Y-98492385D01*
X178940070Y-98666542D01*
X178850542Y-98895510D01*
X178813633Y-99206685D01*
X178827751Y-99534891D01*
X178891304Y-99814951D01*
X178971552Y-99955352D01*
X179069344Y-100074026D01*
X179070891Y-100174340D01*
X178972770Y-100327797D01*
X178952399Y-100355536D01*
X178840934Y-100530909D01*
X178831871Y-100663818D01*
X178903375Y-100816659D01*
X178979193Y-100984394D01*
X178950951Y-101105095D01*
X178837862Y-101231773D01*
X178680124Y-101493924D01*
X178659038Y-101789902D01*
X178234159Y-101789902D01*
X178223333Y-101704387D01*
X178191686Y-101600832D01*
X178066927Y-101572537D01*
X177938183Y-101582625D01*
X177706764Y-101571124D01*
X177457628Y-101503921D01*
X177246902Y-101403361D01*
X177130715Y-101291790D01*
X177122666Y-101257957D01*
X177060564Y-101251833D01*
X176901396Y-101326844D01*
X176769109Y-101408298D01*
X176567178Y-101528749D01*
X176375644Y-101599317D01*
X176137545Y-101632856D01*
X175795918Y-101642219D01*
X175731942Y-101642333D01*
X175265321Y-101623043D01*
X174929710Y-101561728D01*
X174764639Y-101496401D01*
X174564640Y-101406291D01*
X174420021Y-101401153D01*
X174239882Y-101480654D01*
X174214306Y-101494385D01*
X173952965Y-101585595D01*
X173575522Y-101631996D01*
X173270333Y-101640316D01*
X172732775Y-101608463D01*
X172309431Y-101500071D01*
X171957230Y-101301334D01*
X171799881Y-101168942D01*
X171618894Y-101000328D01*
X171523464Y-101209774D01*
X171328715Y-101436864D01*
X170996486Y-101565496D01*
X170555570Y-101596400D01*
X170200382Y-101602451D01*
X169818206Y-101631032D01*
X169708096Y-101644317D01*
X169391571Y-101666176D01*
X169137710Y-101617385D01*
X168930674Y-101525880D01*
X168710044Y-101401301D01*
X168558810Y-101293813D01*
X168529538Y-101262205D01*
X168433204Y-101251337D01*
X168252440Y-101348524D01*
X168198302Y-101387995D01*
X167865364Y-101554059D01*
X167519770Y-101579956D01*
X167203357Y-101472686D01*
X166957961Y-101239252D01*
X166918838Y-101173873D01*
X166814037Y-100978051D01*
X166755352Y-101162954D01*
X166606499Y-101376663D01*
X166348534Y-101521516D01*
X166032261Y-101584345D01*
X165708483Y-101551980D01*
X165530207Y-101480538D01*
X165376415Y-101418359D01*
X165218871Y-101429904D01*
X164987089Y-101520740D01*
X164979873Y-101524012D01*
X164513077Y-101658446D01*
X164000783Y-101678956D01*
X163497273Y-101591720D01*
X163056831Y-101402919D01*
X162893718Y-101286510D01*
X162715147Y-101152549D01*
X162611627Y-101129185D01*
X162553718Y-101183930D01*
X162486371Y-101315486D01*
X162476629Y-101353576D01*
X162401654Y-101431839D01*
X162221727Y-101514295D01*
X161999011Y-101577815D01*
X161815182Y-101599683D01*
X161587379Y-101554973D01*
X161336114Y-101446273D01*
X161311166Y-101431594D01*
X161137038Y-101341290D01*
X161041968Y-101322838D01*
X161036000Y-101333654D01*
X160962564Y-101423569D01*
X160783046Y-101514522D01*
X160558633Y-101581176D01*
X160392811Y-101599999D01*
X160164363Y-101560525D01*
X159931128Y-101470825D01*
X159741555Y-101391417D01*
X159586779Y-101401594D01*
X159416149Y-101478783D01*
X159055518Y-101576921D01*
X158844649Y-101562184D01*
X158497099Y-101516064D01*
X158192164Y-101520059D01*
X157880266Y-101563712D01*
X157563048Y-101571309D01*
X157276335Y-101497402D01*
X157072827Y-101360385D01*
X157014386Y-101261502D01*
X156970078Y-101179588D01*
X156893437Y-101198530D01*
X156746715Y-101330426D01*
X156721750Y-101355274D01*
X156413187Y-101552674D01*
X156049807Y-101600045D01*
X155660886Y-101494336D01*
X155613128Y-101470825D01*
X155440678Y-101377999D01*
X155354577Y-101324582D01*
X155352958Y-101322659D01*
X155343351Y-101235816D01*
X155325492Y-101015870D01*
X155302165Y-100698690D01*
X155282491Y-100414666D01*
X155222399Y-99525666D01*
X155208199Y-100301908D01*
X155196363Y-100661507D01*
X155176721Y-100966287D01*
X155152696Y-101169479D01*
X155141406Y-101215206D01*
X155009772Y-101370380D01*
X154777311Y-101506867D01*
X154511739Y-101589623D01*
X154397855Y-101600000D01*
X154177690Y-101569107D01*
X153957428Y-101493456D01*
X153797888Y-101398592D01*
X153754666Y-101329875D01*
X153696029Y-101326877D01*
X153549769Y-101409479D01*
X153493573Y-101449298D01*
X153332742Y-101549142D01*
X153151892Y-101607714D01*
X152900958Y-101635115D01*
X152541073Y-101641464D01*
X152065604Y-101621078D01*
X151734346Y-101559295D01*
X151601744Y-101504192D01*
X151432841Y-101425117D01*
X151290288Y-101417698D01*
X151098467Y-101484508D01*
X151009078Y-101524368D01*
X150568087Y-101652675D01*
X150077600Y-101679839D01*
X149592266Y-101611561D01*
X149166736Y-101453544D01*
X148953274Y-101309896D01*
X148723603Y-101112341D01*
X148495832Y-101356170D01*
X148259615Y-101541956D01*
X147987999Y-101599810D01*
X147967348Y-101600000D01*
X147628805Y-101558315D01*
X147358637Y-101446775D01*
X147202770Y-101285649D01*
X147191865Y-101257759D01*
X147146944Y-101179399D01*
X147067020Y-101202881D01*
X146915179Y-101340556D01*
X146900417Y-101355274D01*
X146591854Y-101552674D01*
X146228474Y-101600045D01*
X145839553Y-101494336D01*
X145791795Y-101470825D01*
X145619344Y-101377999D01*
X145533244Y-101324582D01*
X145531625Y-101322659D01*
X145522018Y-101235816D01*
X145504159Y-101015870D01*
X145480832Y-100698690D01*
X145461158Y-100414666D01*
X145401066Y-99525666D01*
X145386866Y-100351166D01*
X145375000Y-100749548D01*
X145351217Y-101016326D01*
X145308637Y-101189158D01*
X145240378Y-101305697D01*
X145205486Y-101343846D01*
X144900797Y-101535760D01*
X144539201Y-101585625D01*
X144376269Y-101559045D01*
X144109605Y-101517135D01*
X143891000Y-101510028D01*
X143455005Y-101535269D01*
X142964202Y-101573181D01*
X142500378Y-101616947D01*
X142222851Y-101649063D01*
X141819582Y-101652602D01*
X141576318Y-101577167D01*
X141327932Y-101453256D01*
X141284554Y-101776663D01*
X141163810Y-102164934D01*
X140935224Y-102484364D01*
X140631331Y-102718952D01*
X140284664Y-102852694D01*
X139927756Y-102869589D01*
X139593142Y-102753634D01*
X139473812Y-102667319D01*
X139281535Y-102402175D01*
X139223509Y-102093117D01*
X139646529Y-102093117D01*
X139697658Y-102276028D01*
X139862006Y-102408580D01*
X140065140Y-102446666D01*
X140317976Y-102408375D01*
X140516159Y-102323038D01*
X140639444Y-102218220D01*
X140732242Y-102084173D01*
X140798207Y-101897860D01*
X140840994Y-101636244D01*
X140864259Y-101276289D01*
X140871656Y-100794959D01*
X140869191Y-100474682D01*
X141363449Y-100474682D01*
X141363468Y-100526849D01*
X141440965Y-100866349D01*
X141633030Y-101106072D01*
X141909338Y-101233878D01*
X142239563Y-101237622D01*
X142593382Y-101105164D01*
X142676950Y-101052772D01*
X142868324Y-100928491D01*
X142964845Y-100896429D01*
X143010115Y-100951318D01*
X143027344Y-101010439D01*
X143138651Y-101144536D01*
X143351095Y-101173848D01*
X143545408Y-101125274D01*
X143606600Y-101074112D01*
X143646359Y-100957289D01*
X143668804Y-100745437D01*
X143678054Y-100409190D01*
X143679016Y-100172774D01*
X143667778Y-99803251D01*
X144187333Y-99803251D01*
X144194389Y-100360662D01*
X144215901Y-100755759D01*
X144252382Y-100994984D01*
X144288933Y-101075066D01*
X144494910Y-101169554D01*
X144768557Y-101141618D01*
X144815408Y-101125274D01*
X144880166Y-101069968D01*
X144920786Y-100943616D01*
X144942168Y-100715249D01*
X144949209Y-100353898D01*
X144949333Y-100278608D01*
X144954203Y-99891253D01*
X144973383Y-99634016D01*
X145013728Y-99467846D01*
X145082095Y-99353689D01*
X145118666Y-99314000D01*
X145349221Y-99164497D01*
X145577469Y-99183751D01*
X145725833Y-99284788D01*
X145799293Y-99377195D01*
X145845673Y-99517395D01*
X145870684Y-99741227D01*
X145880033Y-100084528D01*
X145880666Y-100256842D01*
X145882543Y-100637966D01*
X145893305Y-100882924D01*
X145920645Y-101024880D01*
X145972260Y-101097000D01*
X146055844Y-101132445D01*
X146085636Y-101140218D01*
X146302287Y-101183434D01*
X146449219Y-101167969D01*
X146542163Y-101069476D01*
X146596851Y-100863609D01*
X146629014Y-100526020D01*
X146642666Y-100278152D01*
X146678959Y-99797287D01*
X146737153Y-99464620D01*
X146824726Y-99259631D01*
X146949155Y-99161798D01*
X147055200Y-99145963D01*
X147219985Y-99167439D01*
X147333963Y-99246230D01*
X147408590Y-99409351D01*
X147455323Y-99683819D01*
X147485621Y-100096650D01*
X147489333Y-100169671D01*
X147520288Y-100617816D01*
X147569372Y-100918962D01*
X147648828Y-101095338D01*
X147770899Y-101169176D01*
X147947827Y-101162707D01*
X148026562Y-101145187D01*
X148251333Y-101088773D01*
X148251333Y-100154849D01*
X148244728Y-99872979D01*
X148759649Y-99872979D01*
X148817287Y-100361840D01*
X148997248Y-100741800D01*
X149309092Y-101030286D01*
X149435345Y-101104563D01*
X149798706Y-101226185D01*
X150221598Y-101261959D01*
X150633197Y-101212433D01*
X150939500Y-101092927D01*
X151155011Y-100916553D01*
X151199756Y-100761794D01*
X151570102Y-100761794D01*
X151585633Y-100931357D01*
X151707131Y-101055431D01*
X151824102Y-101119700D01*
X152167121Y-101224209D01*
X152569467Y-101254076D01*
X152952807Y-101208495D01*
X153163694Y-101133456D01*
X153365860Y-100993628D01*
X153498156Y-100842689D01*
X153568989Y-100594513D01*
X153580444Y-100288254D01*
X153532557Y-100036984D01*
X153411753Y-99899452D01*
X153260842Y-99803251D01*
X154008666Y-99803251D01*
X154015722Y-100360662D01*
X154037234Y-100755759D01*
X154073716Y-100994984D01*
X154110266Y-101075066D01*
X154316243Y-101169554D01*
X154589890Y-101141618D01*
X154636741Y-101125274D01*
X154701499Y-101069968D01*
X154742119Y-100943616D01*
X154763501Y-100715249D01*
X154770543Y-100353898D01*
X154770666Y-100278608D01*
X154775536Y-99891253D01*
X154794716Y-99634016D01*
X154835062Y-99467846D01*
X154903428Y-99353689D01*
X154940000Y-99314000D01*
X155170555Y-99164497D01*
X155398802Y-99183751D01*
X155547166Y-99284788D01*
X155620626Y-99377195D01*
X155667007Y-99517395D01*
X155692017Y-99741227D01*
X155701366Y-100084528D01*
X155702000Y-100256842D01*
X155703877Y-100637966D01*
X155714638Y-100882924D01*
X155741978Y-101024880D01*
X155793593Y-101097000D01*
X155877177Y-101132445D01*
X155906969Y-101140218D01*
X156123621Y-101183434D01*
X156270552Y-101167969D01*
X156363496Y-101069476D01*
X156418184Y-100863609D01*
X156450348Y-100526020D01*
X156464000Y-100278152D01*
X156500292Y-99797287D01*
X156558486Y-99464620D01*
X156646059Y-99259631D01*
X156770488Y-99161798D01*
X156876533Y-99145963D01*
X157041319Y-99167439D01*
X157155296Y-99246230D01*
X157229923Y-99409351D01*
X157276657Y-99683819D01*
X157306954Y-100096650D01*
X157310666Y-100169671D01*
X157341621Y-100617816D01*
X157390705Y-100918962D01*
X157470161Y-101095338D01*
X157592232Y-101169176D01*
X157769161Y-101162707D01*
X157847895Y-101145187D01*
X158072666Y-101088773D01*
X158072666Y-100154849D01*
X158064713Y-99815433D01*
X158580666Y-99815433D01*
X158587864Y-100370762D01*
X158609787Y-100763454D01*
X158646926Y-100999608D01*
X158682266Y-101075066D01*
X158871629Y-101163168D01*
X159109579Y-101157813D01*
X159239181Y-101105422D01*
X159283098Y-101032184D01*
X159311888Y-100864916D01*
X159326832Y-100583467D01*
X159329209Y-100167684D01*
X159323847Y-99773218D01*
X159321589Y-99651854D01*
X160034152Y-99651854D01*
X160034929Y-100180431D01*
X160042612Y-100572698D01*
X160057852Y-100845120D01*
X160081303Y-101014162D01*
X160113618Y-101096290D01*
X160124293Y-101105921D01*
X160343706Y-101171291D01*
X160574249Y-101140253D01*
X160680400Y-101075066D01*
X160715823Y-100982838D01*
X160743021Y-100777389D01*
X160762585Y-100446370D01*
X160775110Y-99977430D01*
X160778306Y-99651854D01*
X161473485Y-99651854D01*
X161474263Y-100180431D01*
X161481945Y-100572698D01*
X161497186Y-100845120D01*
X161520637Y-101014162D01*
X161552951Y-101096290D01*
X161563626Y-101105921D01*
X161783039Y-101171291D01*
X162013582Y-101140253D01*
X162119733Y-101075066D01*
X162155156Y-100982838D01*
X162182354Y-100777389D01*
X162201918Y-100446370D01*
X162214443Y-99977430D01*
X162215468Y-99872979D01*
X162729649Y-99872979D01*
X162787287Y-100361840D01*
X162967248Y-100741800D01*
X163279092Y-101030286D01*
X163405345Y-101104563D01*
X163768706Y-101226185D01*
X164191598Y-101261959D01*
X164603197Y-101212433D01*
X164909500Y-101092927D01*
X165125011Y-100916553D01*
X165173543Y-100748699D01*
X165056821Y-100583304D01*
X165054979Y-100581770D01*
X164923038Y-100519673D01*
X164731444Y-100536153D01*
X164600656Y-100571403D01*
X164259781Y-100652339D01*
X164011551Y-100648469D01*
X163799260Y-100554789D01*
X163714418Y-100493188D01*
X163530177Y-100323775D01*
X163482457Y-100204106D01*
X163579194Y-100127431D01*
X163828328Y-100086996D01*
X164204952Y-100076000D01*
X164640261Y-100061696D01*
X164930652Y-100008893D01*
X165098876Y-99902753D01*
X165138154Y-99803251D01*
X165608000Y-99803251D01*
X165615056Y-100360662D01*
X165636567Y-100755759D01*
X165673049Y-100994984D01*
X165709600Y-101075066D01*
X165896028Y-101162245D01*
X166129537Y-101160971D01*
X166254928Y-101111870D01*
X166304677Y-101000126D01*
X166347264Y-100755237D01*
X166347429Y-100753333D01*
X167216666Y-100753333D01*
X167290118Y-100965805D01*
X167466894Y-101127617D01*
X167640000Y-101176666D01*
X167826308Y-101119404D01*
X167930285Y-101043619D01*
X168042398Y-100833110D01*
X168023561Y-100607958D01*
X167895980Y-100422754D01*
X167681862Y-100332087D01*
X167640000Y-100330000D01*
X167427527Y-100403451D01*
X167265715Y-100580227D01*
X167216666Y-100753333D01*
X166347429Y-100753333D01*
X166376951Y-100413385D01*
X166381928Y-100311152D01*
X166419989Y-99854627D01*
X166501734Y-99537343D01*
X166644647Y-99331246D01*
X166866213Y-99208282D01*
X167104281Y-99152133D01*
X167315103Y-99104830D01*
X167406627Y-99020968D01*
X167428105Y-98847720D01*
X167428333Y-98804563D01*
X167412816Y-98604296D01*
X167332264Y-98515710D01*
X167140194Y-98482168D01*
X166796093Y-98528714D01*
X166611028Y-98632869D01*
X166454706Y-98728198D01*
X166373309Y-98738309D01*
X166370000Y-98726846D01*
X166297250Y-98600717D01*
X166122846Y-98521691D01*
X165912555Y-98511500D01*
X165808956Y-98541474D01*
X165729056Y-98583830D01*
X165673754Y-98644441D01*
X165638525Y-98751708D01*
X165618848Y-98934033D01*
X165610198Y-99219817D01*
X165608051Y-99637462D01*
X165608000Y-99803251D01*
X165138154Y-99803251D01*
X165167688Y-99728436D01*
X165159840Y-99471103D01*
X165157692Y-99454660D01*
X165045678Y-99114815D01*
X164815967Y-98821123D01*
X164598937Y-98633106D01*
X164383678Y-98535848D01*
X164087039Y-98492632D01*
X164068890Y-98491254D01*
X163599793Y-98526044D01*
X163221622Y-98699355D01*
X162944186Y-99001065D01*
X162777292Y-99421056D01*
X162729649Y-99872979D01*
X162215468Y-99872979D01*
X162220522Y-99358219D01*
X162221333Y-98960013D01*
X162221333Y-96946559D01*
X162016363Y-96895115D01*
X161791321Y-96865959D01*
X161656530Y-96873452D01*
X161608062Y-96892759D01*
X161570460Y-96943015D01*
X161542034Y-97044143D01*
X161521100Y-97216066D01*
X161505968Y-97478708D01*
X161494954Y-97851992D01*
X161486368Y-98355842D01*
X161478960Y-98970502D01*
X161473485Y-99651854D01*
X160778306Y-99651854D01*
X160781189Y-99358219D01*
X160782000Y-98960013D01*
X160782000Y-96946559D01*
X160577030Y-96895115D01*
X160351987Y-96865959D01*
X160217196Y-96873452D01*
X160168729Y-96892759D01*
X160131126Y-96943015D01*
X160102701Y-97044143D01*
X160081766Y-97216066D01*
X160066635Y-97478708D01*
X160055620Y-97851992D01*
X160047035Y-98355842D01*
X160039626Y-98970502D01*
X160034152Y-99651854D01*
X159321589Y-99651854D01*
X159300333Y-98509666D01*
X159062380Y-98482382D01*
X158883790Y-98474521D01*
X158755486Y-98513404D01*
X158669273Y-98621706D01*
X158616957Y-98822102D01*
X158590344Y-99137267D01*
X158581240Y-99589877D01*
X158580666Y-99815433D01*
X158064713Y-99815433D01*
X158060276Y-99626135D01*
X158016917Y-99236714D01*
X157933307Y-98957938D01*
X157800161Y-98761161D01*
X157608197Y-98617736D01*
X157567438Y-98595766D01*
X157187369Y-98474706D01*
X156835369Y-98520429D01*
X156532906Y-98710750D01*
X156260475Y-98954167D01*
X156017058Y-98710750D01*
X155715680Y-98512991D01*
X155385987Y-98473526D01*
X155061122Y-98594555D01*
X154993751Y-98642811D01*
X154846172Y-98736792D01*
X154772547Y-98740366D01*
X154770666Y-98730457D01*
X154697926Y-98601844D01*
X154523319Y-98521508D01*
X154312266Y-98511486D01*
X154209623Y-98541474D01*
X154129723Y-98583830D01*
X154074421Y-98644441D01*
X154039192Y-98751708D01*
X154019514Y-98934033D01*
X154010864Y-99219817D01*
X154008718Y-99637462D01*
X154008666Y-99803251D01*
X153260842Y-99803251D01*
X153177285Y-99749987D01*
X152880163Y-99616097D01*
X152591470Y-99529485D01*
X152342305Y-99444518D01*
X152255519Y-99328398D01*
X152323793Y-99176805D01*
X152427627Y-99103340D01*
X152602841Y-99079894D01*
X152894859Y-99100842D01*
X152916755Y-99103349D01*
X153197302Y-99128883D01*
X153359029Y-99116474D01*
X153450053Y-99056558D01*
X153493505Y-98988714D01*
X153518967Y-98803386D01*
X153402061Y-98648602D01*
X153168693Y-98536003D01*
X152844769Y-98477227D01*
X152456195Y-98483914D01*
X152388065Y-98492062D01*
X152022015Y-98600994D01*
X151771721Y-98825086D01*
X151636332Y-99107386D01*
X151589593Y-99422104D01*
X151684472Y-99679274D01*
X151929647Y-99890658D01*
X152333792Y-100068019D01*
X152348633Y-100072993D01*
X152630822Y-100180989D01*
X152843009Y-100288495D01*
X152937952Y-100370600D01*
X152929353Y-100524545D01*
X152785248Y-100621045D01*
X152533508Y-100647182D01*
X152378023Y-100630172D01*
X152012766Y-100573431D01*
X151781184Y-100556124D01*
X151651106Y-100583491D01*
X151590363Y-100660775D01*
X151570102Y-100761794D01*
X151199756Y-100761794D01*
X151203543Y-100748699D01*
X151086821Y-100583304D01*
X151084979Y-100581770D01*
X150953038Y-100519673D01*
X150761444Y-100536153D01*
X150630656Y-100571403D01*
X150289781Y-100652339D01*
X150041551Y-100648469D01*
X149829260Y-100554789D01*
X149744418Y-100493188D01*
X149560177Y-100323775D01*
X149512457Y-100204106D01*
X149609194Y-100127431D01*
X149858328Y-100086996D01*
X150234952Y-100076000D01*
X150670261Y-100061696D01*
X150960652Y-100008893D01*
X151128876Y-99902753D01*
X151197688Y-99728436D01*
X151189840Y-99471103D01*
X151187692Y-99454660D01*
X151075678Y-99114815D01*
X150845967Y-98821123D01*
X150628937Y-98633106D01*
X150413678Y-98535848D01*
X150117039Y-98492632D01*
X150098890Y-98491254D01*
X149629793Y-98526044D01*
X149251622Y-98699355D01*
X148974186Y-99001065D01*
X148807292Y-99421056D01*
X148759649Y-99872979D01*
X148244728Y-99872979D01*
X148238943Y-99626135D01*
X148195584Y-99236714D01*
X148111973Y-98957938D01*
X147978827Y-98761161D01*
X147786863Y-98617736D01*
X147746104Y-98595766D01*
X147366036Y-98474706D01*
X147014036Y-98520429D01*
X146711573Y-98710750D01*
X146439142Y-98954167D01*
X146195724Y-98710750D01*
X145894347Y-98512991D01*
X145564654Y-98473526D01*
X145239788Y-98594555D01*
X145172418Y-98642811D01*
X145024839Y-98736792D01*
X144951213Y-98740366D01*
X144949333Y-98730457D01*
X144876592Y-98601844D01*
X144701985Y-98521508D01*
X144490933Y-98511486D01*
X144388290Y-98541474D01*
X144308390Y-98583830D01*
X144253087Y-98644441D01*
X144217859Y-98751708D01*
X144198181Y-98934033D01*
X144189531Y-99219817D01*
X144187385Y-99637462D01*
X144187333Y-99803251D01*
X143667778Y-99803251D01*
X143662937Y-99644099D01*
X143607476Y-99252271D01*
X143501160Y-98967119D01*
X143332515Y-98758471D01*
X143090069Y-98596157D01*
X143076835Y-98589249D01*
X142789665Y-98501460D01*
X142435264Y-98475904D01*
X142077013Y-98508723D01*
X141778291Y-98596054D01*
X141650506Y-98676128D01*
X141510796Y-98823300D01*
X141495343Y-98940693D01*
X141586146Y-99090868D01*
X141671187Y-99176230D01*
X141788797Y-99196976D01*
X141994340Y-99157898D01*
X142085668Y-99134091D01*
X142343417Y-99077100D01*
X142514530Y-99083185D01*
X142671316Y-99157026D01*
X142697188Y-99173659D01*
X142854134Y-99326789D01*
X142917333Y-99485285D01*
X142891968Y-99589708D01*
X142787347Y-99639258D01*
X142560678Y-99652603D01*
X142533613Y-99652666D01*
X142111113Y-99700647D01*
X141743283Y-99831694D01*
X141483943Y-100026461D01*
X141479720Y-100031491D01*
X141399374Y-100215084D01*
X141363449Y-100474682D01*
X140869191Y-100474682D01*
X140866839Y-100169216D01*
X140866108Y-100117276D01*
X140843000Y-98509666D01*
X140605046Y-98482382D01*
X140443556Y-98472227D01*
X140322800Y-98497713D01*
X140236884Y-98579530D01*
X140179912Y-98738368D01*
X140145988Y-98994919D01*
X140129219Y-99369872D01*
X140123710Y-99883919D01*
X140123333Y-100173129D01*
X140122823Y-100712988D01*
X140119260Y-101107780D01*
X140109593Y-101381771D01*
X140090771Y-101559228D01*
X140059744Y-101664416D01*
X140013460Y-101721602D01*
X139948870Y-101755051D01*
X139923213Y-101764943D01*
X139718439Y-101907028D01*
X139646529Y-102093117D01*
X139223509Y-102093117D01*
X139222473Y-102087604D01*
X139296849Y-101777048D01*
X139469090Y-101552741D01*
X139699999Y-101354122D01*
X139699999Y-100043239D01*
X139707815Y-99414919D01*
X139733049Y-98937150D01*
X139778381Y-98591792D01*
X139846492Y-98360703D01*
X139940060Y-98225745D01*
X139971990Y-98202214D01*
X139994083Y-98099115D01*
X139882026Y-97913906D01*
X139721541Y-97598619D01*
X139725042Y-97451333D01*
X140123333Y-97451333D01*
X140192602Y-97647057D01*
X140364270Y-97762757D01*
X140584131Y-97782814D01*
X140797976Y-97691609D01*
X140836952Y-97656952D01*
X140943638Y-97520928D01*
X140970000Y-97451333D01*
X140898868Y-97307253D01*
X140731437Y-97177528D01*
X140536652Y-97113497D01*
X140515219Y-97112666D01*
X140281522Y-97176888D01*
X140142728Y-97342979D01*
X140123333Y-97451333D01*
X139725042Y-97451333D01*
X139729021Y-97283973D01*
X139903577Y-96983283D01*
X139947487Y-96936820D01*
X140242241Y-96747333D01*
X140573760Y-96695835D01*
X140897046Y-96773650D01*
X141167101Y-96972102D01*
X141309527Y-97199411D01*
X141372359Y-97408771D01*
X141347566Y-97595266D01*
X141280489Y-97753737D01*
X141165709Y-97941742D01*
X141056734Y-98039901D01*
X141037221Y-98044000D01*
X141011984Y-98092345D01*
X141102859Y-98214406D01*
X141110330Y-98221960D01*
X141239763Y-98336905D01*
X141344043Y-98348422D01*
X141501068Y-98260463D01*
X141527588Y-98243127D01*
X141792012Y-98140453D01*
X142159289Y-98085306D01*
X142569845Y-98077346D01*
X142964106Y-98116233D01*
X143282498Y-98201626D01*
X143383000Y-98253711D01*
X143568421Y-98386983D01*
X143686037Y-98491595D01*
X143692788Y-98500230D01*
X143776369Y-98494812D01*
X143914947Y-98383171D01*
X143956739Y-98337369D01*
X144145894Y-98167091D01*
X144363284Y-98107903D01*
X144493617Y-98107036D01*
X144755862Y-98116003D01*
X144969588Y-98122752D01*
X144991666Y-98123379D01*
X145178076Y-98115750D01*
X145445567Y-98091034D01*
X145552522Y-98078347D01*
X145930425Y-98074931D01*
X146208688Y-98165495D01*
X146407629Y-98250755D01*
X146561618Y-98245075D01*
X146723128Y-98173174D01*
X147095406Y-98066341D01*
X147508735Y-98081934D01*
X147909139Y-98206305D01*
X148242641Y-98425808D01*
X148385556Y-98593474D01*
X148522255Y-98802103D01*
X148767001Y-98557357D01*
X149181619Y-98255565D01*
X149661918Y-98089961D01*
X150168845Y-98063920D01*
X150663347Y-98180818D01*
X151002309Y-98364136D01*
X151369904Y-98623241D01*
X151525119Y-98448935D01*
X151822559Y-98229313D01*
X152222034Y-98091286D01*
X152673358Y-98042265D01*
X153126345Y-98089663D01*
X153392038Y-98173219D01*
X153614197Y-98250833D01*
X153782873Y-98248000D01*
X153990845Y-98165043D01*
X154299129Y-98074525D01*
X154504359Y-98083612D01*
X154668549Y-98118839D01*
X154824415Y-98130671D01*
X155028876Y-98118766D01*
X155338853Y-98082777D01*
X155373855Y-98078347D01*
X155751758Y-98074931D01*
X156030022Y-98165495D01*
X156228962Y-98250755D01*
X156382951Y-98245075D01*
X156544462Y-98173174D01*
X156943579Y-98057240D01*
X157378472Y-98084280D01*
X157807168Y-98246840D01*
X158093833Y-98448332D01*
X158206238Y-98515453D01*
X158242000Y-98486503D01*
X158296566Y-98357985D01*
X158375102Y-98261659D01*
X158454936Y-98156170D01*
X158443850Y-98095869D01*
X159456437Y-98095869D01*
X159469666Y-98128666D01*
X159545748Y-98209437D01*
X159559330Y-98213333D01*
X159595695Y-98147827D01*
X159596666Y-98128666D01*
X159531578Y-98047253D01*
X159507003Y-98044000D01*
X159456437Y-98095869D01*
X158443850Y-98095869D01*
X158435283Y-98049279D01*
X158332768Y-97905527D01*
X158199898Y-97635506D01*
X158173274Y-97400975D01*
X158594841Y-97400975D01*
X158621492Y-97603060D01*
X158759611Y-97735510D01*
X158959895Y-97781858D01*
X159173043Y-97725637D01*
X159289252Y-97632910D01*
X159384613Y-97435844D01*
X159324640Y-97261230D01*
X159122754Y-97145540D01*
X159108556Y-97141801D01*
X158851517Y-97140726D01*
X158661790Y-97258802D01*
X158594841Y-97400975D01*
X158173274Y-97400975D01*
X158165456Y-97332111D01*
X158234927Y-97067860D01*
X158265859Y-97020663D01*
X158537285Y-96796453D01*
X158882454Y-96698435D01*
X159251120Y-96737474D01*
X159369035Y-96782131D01*
X159526125Y-96826600D01*
X159662660Y-96772222D01*
X159792504Y-96655131D01*
X160062264Y-96492229D01*
X160401580Y-96430247D01*
X160740174Y-96474612D01*
X160932494Y-96567134D01*
X161088266Y-96652741D01*
X161217716Y-96626030D01*
X161308838Y-96567134D01*
X161581138Y-96460541D01*
X161915678Y-96440517D01*
X162233925Y-96504915D01*
X162402453Y-96597038D01*
X162492976Y-96683719D01*
X162553110Y-96792571D01*
X162590727Y-96959750D01*
X162613694Y-97221414D01*
X162629883Y-97613722D01*
X162630963Y-97646923D01*
X162659594Y-98535102D01*
X163138963Y-98281801D01*
X163445730Y-98135185D01*
X163695860Y-98065958D01*
X163971998Y-98055201D01*
X164097879Y-98062292D01*
X164575412Y-98151357D01*
X164898124Y-98308908D01*
X165218823Y-98521733D01*
X165402195Y-98308550D01*
X165529368Y-98191544D01*
X165689584Y-98124078D01*
X165923423Y-98098382D01*
X166271463Y-98106690D01*
X166412333Y-98115179D01*
X166598513Y-98111654D01*
X166866112Y-98089711D01*
X166974810Y-98077306D01*
X167354422Y-98073893D01*
X167625021Y-98183470D01*
X167815068Y-98420157D01*
X167859970Y-98516481D01*
X167923717Y-98856004D01*
X167844878Y-99165658D01*
X167647291Y-99408700D01*
X167354789Y-99548390D01*
X167177803Y-99568000D01*
X166974874Y-99643727D01*
X166845661Y-99863130D01*
X166796489Y-100214543D01*
X166796333Y-100272011D01*
X166802217Y-100451280D01*
X166829632Y-100474890D01*
X166901956Y-100356506D01*
X166911486Y-100339319D01*
X167145900Y-100081415D01*
X167480642Y-99934260D01*
X167691654Y-99909666D01*
X167844364Y-99898349D01*
X167928503Y-99840754D01*
X167972653Y-99694701D01*
X167985529Y-99587840D01*
X168436570Y-99587840D01*
X168453810Y-100035904D01*
X168534408Y-100441752D01*
X168642574Y-100691185D01*
X168930886Y-101027501D01*
X169272911Y-101215506D01*
X169645862Y-101248716D01*
X170026954Y-101120649D01*
X170067963Y-101096700D01*
X170255578Y-100996513D01*
X170365166Y-100991344D01*
X170438163Y-101054683D01*
X170611463Y-101151847D01*
X170846594Y-101170256D01*
X171054055Y-101107132D01*
X171094399Y-101075066D01*
X171127680Y-100958856D01*
X171154876Y-100701770D01*
X171175987Y-100332160D01*
X171191012Y-99878374D01*
X171191268Y-99863772D01*
X171733756Y-99863772D01*
X171777010Y-100248962D01*
X171872930Y-100556543D01*
X171923626Y-100641291D01*
X172254841Y-100954674D01*
X172681375Y-101164922D01*
X173156724Y-101261417D01*
X173634384Y-101233544D01*
X173990000Y-101113035D01*
X174218213Y-100944080D01*
X174310847Y-100754834D01*
X174620133Y-100754834D01*
X174629170Y-100860670D01*
X174772650Y-101021358D01*
X175036742Y-101145179D01*
X175375323Y-101224828D01*
X175742272Y-101252998D01*
X176091467Y-101222383D01*
X176359731Y-101134816D01*
X176672078Y-100893805D01*
X176838133Y-100567831D01*
X176868666Y-100307312D01*
X176845114Y-100189846D01*
X177473349Y-100189846D01*
X177476678Y-100585986D01*
X177495333Y-100858776D01*
X177534330Y-101031166D01*
X177598684Y-101126105D01*
X177693410Y-101166545D01*
X177814241Y-101175370D01*
X178023206Y-101145922D01*
X178089408Y-101125274D01*
X178139915Y-101084716D01*
X178176173Y-100991884D01*
X178200411Y-100822836D01*
X178214861Y-100553635D01*
X178221751Y-100160339D01*
X178223333Y-99687554D01*
X178223333Y-98301226D01*
X178018363Y-98249781D01*
X177836437Y-98208490D01*
X177703199Y-98203555D01*
X177610541Y-98256044D01*
X177550352Y-98387022D01*
X177514523Y-98617553D01*
X177494945Y-98968703D01*
X177483508Y-99461538D01*
X177480331Y-99647406D01*
X177473349Y-100189846D01*
X176845114Y-100189846D01*
X176804074Y-99985159D01*
X176602969Y-99730106D01*
X176254356Y-99531319D01*
X175988427Y-99439904D01*
X175745570Y-99356333D01*
X176868666Y-99356333D01*
X176911000Y-99398666D01*
X176953333Y-99356333D01*
X176911000Y-99314000D01*
X176868666Y-99356333D01*
X175745570Y-99356333D01*
X175701349Y-99341116D01*
X175553027Y-99245531D01*
X175514000Y-99144364D01*
X175587514Y-98989002D01*
X175805354Y-98916400D01*
X176163467Y-98927724D01*
X176233327Y-98937374D01*
X176577336Y-98946144D01*
X176788918Y-98849434D01*
X176868040Y-98647260D01*
X176868666Y-98621979D01*
X176791744Y-98466092D01*
X176588263Y-98342252D01*
X176299156Y-98257576D01*
X175965350Y-98219182D01*
X175627778Y-98234187D01*
X175327369Y-98309709D01*
X175257228Y-98341766D01*
X174995495Y-98560523D01*
X174812574Y-98872070D01*
X174752000Y-99171377D01*
X174832717Y-99463471D01*
X175061754Y-99715155D01*
X175419442Y-99907298D01*
X175554796Y-99952195D01*
X175921629Y-100085000D01*
X176122683Y-100221315D01*
X176156693Y-100359840D01*
X176061137Y-100472610D01*
X175912042Y-100542293D01*
X175698118Y-100559416D01*
X175385382Y-100523383D01*
X175034973Y-100454531D01*
X174831128Y-100434817D01*
X174714364Y-100506703D01*
X174675444Y-100568844D01*
X174620133Y-100754834D01*
X174310847Y-100754834D01*
X174313272Y-100749880D01*
X174263547Y-100563442D01*
X174205179Y-100502248D01*
X174085687Y-100441263D01*
X173915095Y-100445966D01*
X173696530Y-100498531D01*
X173326913Y-100552137D01*
X172993686Y-100511314D01*
X172732117Y-100389470D01*
X172577473Y-100200016D01*
X172550666Y-100062877D01*
X172566597Y-99988953D01*
X172635425Y-99942735D01*
X172788705Y-99917876D01*
X173057991Y-99908028D01*
X173327166Y-99906666D01*
X173783320Y-99892484D01*
X174095952Y-99841800D01*
X174289122Y-99742412D01*
X174386891Y-99582116D01*
X174413333Y-99355731D01*
X174335081Y-98976481D01*
X174119806Y-98652425D01*
X173796728Y-98406555D01*
X173395066Y-98261863D01*
X172991655Y-98237068D01*
X172553001Y-98325517D01*
X172198781Y-98534746D01*
X171920898Y-98838606D01*
X171805610Y-99098987D01*
X171743260Y-99460578D01*
X171733756Y-99863772D01*
X171191268Y-99863772D01*
X171199953Y-99368762D01*
X171202808Y-98831672D01*
X171199578Y-98295455D01*
X171190263Y-97788460D01*
X171174863Y-97339036D01*
X171153378Y-96975533D01*
X171125808Y-96726299D01*
X171094399Y-96621599D01*
X170907116Y-96535205D01*
X170648307Y-96529720D01*
X170483258Y-96571391D01*
X170423855Y-96620633D01*
X170384544Y-96733088D01*
X170361564Y-96937246D01*
X170351154Y-97261594D01*
X170349333Y-97586147D01*
X170349333Y-98549511D01*
X170074166Y-98381738D01*
X169697811Y-98241612D01*
X169315462Y-98255317D01*
X168962102Y-98412384D01*
X168672717Y-98702342D01*
X168598291Y-98823422D01*
X168484220Y-99162150D01*
X168436570Y-99587840D01*
X167985529Y-99587840D01*
X168001922Y-99451803D01*
X168126497Y-98884236D01*
X168365314Y-98422375D01*
X168706767Y-98079255D01*
X169139251Y-97867909D01*
X169466440Y-97807141D01*
X169926000Y-97769031D01*
X169926000Y-97193773D01*
X169934032Y-96811093D01*
X169967509Y-96557650D01*
X170040494Y-96393733D01*
X170167056Y-96279628D01*
X170270722Y-96220535D01*
X170618743Y-96110219D01*
X170969430Y-96115114D01*
X170969430Y-96115114D01*
G37*
X170969430Y-96115114D02*
X171276277Y-96225196D01*
X171492776Y-96430437D01*
X171525330Y-96490986D01*
X171564876Y-96660715D01*
X171596217Y-96953057D01*
X171615345Y-97321343D01*
X171619333Y-97585615D01*
X171619333Y-98473929D01*
X171809833Y-98291113D01*
X172239115Y-97991075D01*
X172737989Y-97828801D01*
X173271612Y-97808762D01*
X173805144Y-97935427D01*
X173980254Y-98012667D01*
X174229529Y-98152419D01*
X174410849Y-98282940D01*
X174473068Y-98355150D01*
X174528600Y-98413188D01*
X174619218Y-98330642D01*
X174646740Y-98292653D01*
X174901547Y-98062495D01*
X175269267Y-97900207D01*
X175704699Y-97813044D01*
X176162643Y-97808261D01*
X176597899Y-97893113D01*
X176756160Y-97954065D01*
X176976521Y-98047880D01*
X177102427Y-98069403D01*
X177192068Y-98019656D01*
X177246649Y-97962667D01*
X177336649Y-97843885D01*
X177304978Y-97783536D01*
X177252051Y-97760297D01*
X177106024Y-97624716D01*
X177010039Y-97386762D01*
X176993307Y-97197333D01*
X177376666Y-97197333D01*
X177447110Y-97340016D01*
X177611730Y-97470453D01*
X177800461Y-97535184D01*
X177820547Y-97536000D01*
X178023148Y-97480590D01*
X178153166Y-97395877D01*
X178272285Y-97264304D01*
X178308000Y-97190258D01*
X178236599Y-97050720D01*
X178067959Y-96924406D01*
X177870423Y-96859983D01*
X177842333Y-96858666D01*
X177642466Y-96910856D01*
X177465060Y-97034583D01*
X177377853Y-97180583D01*
X177376666Y-97197333D01*
X176993307Y-97197333D01*
X176985679Y-97110986D01*
X177000249Y-97007133D01*
X177129384Y-96769013D01*
X177371446Y-96571235D01*
X177670036Y-96452860D01*
X177825371Y-96435649D01*
X178180659Y-96506355D01*
X178476247Y-96697905D01*
X178647527Y-96945411D01*
X178710359Y-97154771D01*
X178685566Y-97341266D01*
X178618489Y-97499737D01*
X178507853Y-97687413D01*
X178408630Y-97785748D01*
X178391501Y-97790000D01*
X178377306Y-97847929D01*
X178453326Y-97991509D01*
X178484145Y-98035105D01*
X178665359Y-98280211D01*
X178960862Y-98079678D01*
X179416751Y-97863134D01*
X179938179Y-97793732D01*
X180204185Y-97809928D01*
X180528486Y-97807467D01*
X180723078Y-97735676D01*
X180981101Y-97636836D01*
X181293093Y-97638273D01*
X181552066Y-97726500D01*
X181768728Y-97796638D01*
X182108088Y-97843482D01*
X182524522Y-97862213D01*
X182795333Y-97857837D01*
X183259391Y-97842115D01*
X183590131Y-97841356D01*
X183823292Y-97860868D01*
X183994613Y-97905954D01*
X184139833Y-97981922D01*
X184272607Y-98077149D01*
X184551396Y-98343353D01*
X184751106Y-98670116D01*
X184882416Y-99086492D01*
X184956007Y-99621536D01*
X184976241Y-99991333D01*
X184985093Y-100423078D01*
X184974708Y-100727754D01*
X184940759Y-100946971D01*
X184878918Y-101122335D01*
X184853153Y-101174791D01*
X184627898Y-101441549D01*
X184304212Y-101574847D01*
X183893250Y-101570313D01*
X183858981Y-101564249D01*
X183628780Y-101491602D01*
X183461466Y-101356708D01*
X183345557Y-101134734D01*
X183269572Y-100800846D01*
X183222031Y-100330209D01*
X183211926Y-100164610D01*
X183162852Y-99271666D01*
X183148426Y-100057552D01*
X183128708Y-100455909D01*
X183088798Y-100812052D01*
X183035469Y-101070920D01*
X183017414Y-101122467D01*
X182821378Y-101387789D01*
X182522790Y-101551456D01*
X182170103Y-101588442D01*
X182125673Y-101583066D01*
X181952996Y-101576468D01*
X181868468Y-101655278D01*
X181823983Y-101829093D01*
X181680948Y-102178142D01*
X181410697Y-102497385D01*
X181054804Y-102743490D01*
X180872707Y-102820574D01*
X180417806Y-102920402D01*
X179912030Y-102944854D01*
X179434925Y-102893273D01*
X179218935Y-102834191D01*
X178756645Y-102606550D01*
X178431698Y-102308015D01*
X178254473Y-101950364D01*
X178234159Y-101789902D01*
X178659038Y-101789902D01*
X178775582Y-102061200D01*
X178823052Y-102115052D01*
X179125114Y-102343562D01*
X179492481Y-102472644D01*
X179962989Y-102513686D01*
X180136200Y-102510294D01*
X180486514Y-102485742D01*
X180729605Y-102433359D01*
X180927260Y-102335761D01*
X181039423Y-102256180D01*
X181306747Y-101975161D01*
X181419296Y-101677478D01*
X181387269Y-101384639D01*
X181220866Y-101118153D01*
X180930286Y-100899528D01*
X180525728Y-100750273D01*
X180306769Y-100711161D01*
X179936831Y-100657464D01*
X179709846Y-100605139D01*
X179599680Y-100546385D01*
X179582399Y-100504330D01*
X181186666Y-100504330D01*
X181251245Y-100581719D01*
X181271333Y-100584000D01*
X181345637Y-100515084D01*
X181356000Y-100452003D01*
X181314954Y-100364368D01*
X181271333Y-100372333D01*
X181189896Y-100480576D01*
X181186666Y-100504330D01*
X179582399Y-100504330D01*
X179578000Y-100493627D01*
X179653944Y-100447656D01*
X179847212Y-100419188D01*
X179981487Y-100414666D01*
X180418424Y-100350868D01*
X180784906Y-100176498D01*
X181061249Y-99917095D01*
X181091953Y-99858294D01*
X181857943Y-99858294D01*
X181865935Y-100271695D01*
X181883645Y-100638338D01*
X181911020Y-100923224D01*
X181948008Y-101091352D01*
X181969833Y-101120593D01*
X182270154Y-101167690D01*
X182492075Y-101125274D01*
X182554304Y-101072919D01*
X182594357Y-100953341D01*
X182616578Y-100736704D01*
X182625310Y-100393170D01*
X182626000Y-100205359D01*
X182630405Y-99796158D01*
X182647834Y-99516841D01*
X182684608Y-99328089D01*
X182747046Y-99190586D01*
X182801478Y-99113751D01*
X183016008Y-98930380D01*
X183242563Y-98914945D01*
X183486547Y-99067333D01*
X183518848Y-99098484D01*
X183612136Y-99203315D01*
X183672400Y-99318665D01*
X183706795Y-99482372D01*
X183722477Y-99732274D01*
X183726599Y-100106207D01*
X183726666Y-100197538D01*
X183728244Y-100594375D01*
X183737614Y-100853795D01*
X183761737Y-101007712D01*
X183807568Y-101088041D01*
X183882067Y-101126696D01*
X183932222Y-101140365D01*
X184167090Y-101159268D01*
X184313222Y-101136272D01*
X184387268Y-101102162D01*
X184436947Y-101035827D01*
X184467090Y-100907630D01*
X184482522Y-100687929D01*
X184488071Y-100347086D01*
X184488666Y-100059121D01*
X184485126Y-99609475D01*
X184471139Y-99291821D01*
X184441649Y-99068901D01*
X184391604Y-98903458D01*
X184315951Y-98758237D01*
X184311159Y-98750440D01*
X184056179Y-98463965D01*
X183732795Y-98279922D01*
X183384342Y-98209826D01*
X183054156Y-98265190D01*
X182875775Y-98369062D01*
X182731478Y-98472037D01*
X182635189Y-98464880D01*
X182527729Y-98369062D01*
X182304954Y-98232988D01*
X182081076Y-98239483D01*
X181965600Y-98314933D01*
X181924210Y-98437119D01*
X181892802Y-98687549D01*
X181871324Y-99031221D01*
X181859722Y-99433136D01*
X181857943Y-99858294D01*
X181091953Y-99858294D01*
X181227769Y-99598197D01*
X181264780Y-99245343D01*
X181156141Y-98890666D01*
X181093547Y-98733816D01*
X181125806Y-98606402D01*
X181251304Y-98453046D01*
X181373852Y-98281926D01*
X181408521Y-98150861D01*
X181402585Y-98135546D01*
X181264990Y-98051735D01*
X181066364Y-98061951D01*
X180878886Y-98155679D01*
X180818547Y-98220636D01*
X180697899Y-98341144D01*
X180560960Y-98324336D01*
X180522979Y-98305303D01*
X180206757Y-98217430D01*
X179827682Y-98228371D01*
X179445242Y-98324548D01*
X179118931Y-98492385D01*
X178940070Y-98666542D01*
X178850542Y-98895510D01*
X178813633Y-99206685D01*
X178827751Y-99534891D01*
X178891304Y-99814951D01*
X178971552Y-99955352D01*
X179069344Y-100074026D01*
X179070891Y-100174340D01*
X178972770Y-100327797D01*
X178952399Y-100355536D01*
X178840934Y-100530909D01*
X178831871Y-100663818D01*
X178903375Y-100816659D01*
X178979193Y-100984394D01*
X178950951Y-101105095D01*
X178837862Y-101231773D01*
X178680124Y-101493924D01*
X178659038Y-101789902D01*
X178234159Y-101789902D01*
X178223333Y-101704387D01*
X178191686Y-101600832D01*
X178066927Y-101572537D01*
X177938183Y-101582625D01*
X177706764Y-101571124D01*
X177457628Y-101503921D01*
X177246902Y-101403361D01*
X177130715Y-101291790D01*
X177122666Y-101257957D01*
X177060564Y-101251833D01*
X176901396Y-101326844D01*
X176769109Y-101408298D01*
X176567178Y-101528749D01*
X176375644Y-101599317D01*
X176137545Y-101632856D01*
X175795918Y-101642219D01*
X175731942Y-101642333D01*
X175265321Y-101623043D01*
X174929710Y-101561728D01*
X174764639Y-101496401D01*
X174564640Y-101406291D01*
X174420021Y-101401153D01*
X174239882Y-101480654D01*
X174214306Y-101494385D01*
X173952965Y-101585595D01*
X173575522Y-101631996D01*
X173270333Y-101640316D01*
X172732775Y-101608463D01*
X172309431Y-101500071D01*
X171957230Y-101301334D01*
X171799881Y-101168942D01*
X171618894Y-101000328D01*
X171523464Y-101209774D01*
X171328715Y-101436864D01*
X170996486Y-101565496D01*
X170555570Y-101596400D01*
X170200382Y-101602451D01*
X169818206Y-101631032D01*
X169708096Y-101644317D01*
X169391571Y-101666176D01*
X169137710Y-101617385D01*
X168930674Y-101525880D01*
X168710044Y-101401301D01*
X168558810Y-101293813D01*
X168529538Y-101262205D01*
X168433204Y-101251337D01*
X168252440Y-101348524D01*
X168198302Y-101387995D01*
X167865364Y-101554059D01*
X167519770Y-101579956D01*
X167203357Y-101472686D01*
X166957961Y-101239252D01*
X166918838Y-101173873D01*
X166814037Y-100978051D01*
X166755352Y-101162954D01*
X166606499Y-101376663D01*
X166348534Y-101521516D01*
X166032261Y-101584345D01*
X165708483Y-101551980D01*
X165530207Y-101480538D01*
X165376415Y-101418359D01*
X165218871Y-101429904D01*
X164987089Y-101520740D01*
X164979873Y-101524012D01*
X164513077Y-101658446D01*
X164000783Y-101678956D01*
X163497273Y-101591720D01*
X163056831Y-101402919D01*
X162893718Y-101286510D01*
X162715147Y-101152549D01*
X162611627Y-101129185D01*
X162553718Y-101183930D01*
X162486371Y-101315486D01*
X162476629Y-101353576D01*
X162401654Y-101431839D01*
X162221727Y-101514295D01*
X161999011Y-101577815D01*
X161815182Y-101599683D01*
X161587379Y-101554973D01*
X161336114Y-101446273D01*
X161311166Y-101431594D01*
X161137038Y-101341290D01*
X161041968Y-101322838D01*
X161036000Y-101333654D01*
X160962564Y-101423569D01*
X160783046Y-101514522D01*
X160558633Y-101581176D01*
X160392811Y-101599999D01*
X160164363Y-101560525D01*
X159931128Y-101470825D01*
X159741555Y-101391417D01*
X159586779Y-101401594D01*
X159416149Y-101478783D01*
X159055518Y-101576921D01*
X158844649Y-101562184D01*
X158497099Y-101516064D01*
X158192164Y-101520059D01*
X157880266Y-101563712D01*
X157563048Y-101571309D01*
X157276335Y-101497402D01*
X157072827Y-101360385D01*
X157014386Y-101261502D01*
X156970078Y-101179588D01*
X156893437Y-101198530D01*
X156746715Y-101330426D01*
X156721750Y-101355274D01*
X156413187Y-101552674D01*
X156049807Y-101600045D01*
X155660886Y-101494336D01*
X155613128Y-101470825D01*
X155440678Y-101377999D01*
X155354577Y-101324582D01*
X155352958Y-101322659D01*
X155343351Y-101235816D01*
X155325492Y-101015870D01*
X155302165Y-100698690D01*
X155282491Y-100414666D01*
X155222399Y-99525666D01*
X155208199Y-100301908D01*
X155196363Y-100661507D01*
X155176721Y-100966287D01*
X155152696Y-101169479D01*
X155141406Y-101215206D01*
X155009772Y-101370380D01*
X154777311Y-101506867D01*
X154511739Y-101589623D01*
X154397855Y-101600000D01*
X154177690Y-101569107D01*
X153957428Y-101493456D01*
X153797888Y-101398592D01*
X153754666Y-101329875D01*
X153696029Y-101326877D01*
X153549769Y-101409479D01*
X153493573Y-101449298D01*
X153332742Y-101549142D01*
X153151892Y-101607714D01*
X152900958Y-101635115D01*
X152541073Y-101641464D01*
X152065604Y-101621078D01*
X151734346Y-101559295D01*
X151601744Y-101504192D01*
X151432841Y-101425117D01*
X151290288Y-101417698D01*
X151098467Y-101484508D01*
X151009078Y-101524368D01*
X150568087Y-101652675D01*
X150077600Y-101679839D01*
X149592266Y-101611561D01*
X149166736Y-101453544D01*
X148953274Y-101309896D01*
X148723603Y-101112341D01*
X148495832Y-101356170D01*
X148259615Y-101541956D01*
X147987999Y-101599810D01*
X147967348Y-101600000D01*
X147628805Y-101558315D01*
X147358637Y-101446775D01*
X147202770Y-101285649D01*
X147191865Y-101257759D01*
X147146944Y-101179399D01*
X147067020Y-101202881D01*
X146915179Y-101340556D01*
X146900417Y-101355274D01*
X146591854Y-101552674D01*
X146228474Y-101600045D01*
X145839553Y-101494336D01*
X145791795Y-101470825D01*
X145619344Y-101377999D01*
X145533244Y-101324582D01*
X145531625Y-101322659D01*
X145522018Y-101235816D01*
X145504159Y-101015870D01*
X145480832Y-100698690D01*
X145461158Y-100414666D01*
X145401066Y-99525666D01*
X145386866Y-100351166D01*
X145375000Y-100749548D01*
X145351217Y-101016326D01*
X145308637Y-101189158D01*
X145240378Y-101305697D01*
X145205486Y-101343846D01*
X144900797Y-101535760D01*
X144539201Y-101585625D01*
X144376269Y-101559045D01*
X144109605Y-101517135D01*
X143891000Y-101510028D01*
X143455005Y-101535269D01*
X142964202Y-101573181D01*
X142500378Y-101616947D01*
X142222851Y-101649063D01*
X141819582Y-101652602D01*
X141576318Y-101577167D01*
X141327932Y-101453256D01*
X141284554Y-101776663D01*
X141163810Y-102164934D01*
X140935224Y-102484364D01*
X140631331Y-102718952D01*
X140284664Y-102852694D01*
X139927756Y-102869589D01*
X139593142Y-102753634D01*
X139473812Y-102667319D01*
X139281535Y-102402175D01*
X139223509Y-102093117D01*
X139646529Y-102093117D01*
X139697658Y-102276028D01*
X139862006Y-102408580D01*
X140065140Y-102446666D01*
X140317976Y-102408375D01*
X140516159Y-102323038D01*
X140639444Y-102218220D01*
X140732242Y-102084173D01*
X140798207Y-101897860D01*
X140840994Y-101636244D01*
X140864259Y-101276289D01*
X140871656Y-100794959D01*
X140869191Y-100474682D01*
X141363449Y-100474682D01*
X141363468Y-100526849D01*
X141440965Y-100866349D01*
X141633030Y-101106072D01*
X141909338Y-101233878D01*
X142239563Y-101237622D01*
X142593382Y-101105164D01*
X142676950Y-101052772D01*
X142868324Y-100928491D01*
X142964845Y-100896429D01*
X143010115Y-100951318D01*
X143027344Y-101010439D01*
X143138651Y-101144536D01*
X143351095Y-101173848D01*
X143545408Y-101125274D01*
X143606600Y-101074112D01*
X143646359Y-100957289D01*
X143668804Y-100745437D01*
X143678054Y-100409190D01*
X143679016Y-100172774D01*
X143667778Y-99803251D01*
X144187333Y-99803251D01*
X144194389Y-100360662D01*
X144215901Y-100755759D01*
X144252382Y-100994984D01*
X144288933Y-101075066D01*
X144494910Y-101169554D01*
X144768557Y-101141618D01*
X144815408Y-101125274D01*
X144880166Y-101069968D01*
X144920786Y-100943616D01*
X144942168Y-100715249D01*
X144949209Y-100353898D01*
X144949333Y-100278608D01*
X144954203Y-99891253D01*
X144973383Y-99634016D01*
X145013728Y-99467846D01*
X145082095Y-99353689D01*
X145118666Y-99314000D01*
X145349221Y-99164497D01*
X145577469Y-99183751D01*
X145725833Y-99284788D01*
X145799293Y-99377195D01*
X145845673Y-99517395D01*
X145870684Y-99741227D01*
X145880033Y-100084528D01*
X145880666Y-100256842D01*
X145882543Y-100637966D01*
X145893305Y-100882924D01*
X145920645Y-101024880D01*
X145972260Y-101097000D01*
X146055844Y-101132445D01*
X146085636Y-101140218D01*
X146302287Y-101183434D01*
X146449219Y-101167969D01*
X146542163Y-101069476D01*
X146596851Y-100863609D01*
X146629014Y-100526020D01*
X146642666Y-100278152D01*
X146678959Y-99797287D01*
X146737153Y-99464620D01*
X146824726Y-99259631D01*
X146949155Y-99161798D01*
X147055200Y-99145963D01*
X147219985Y-99167439D01*
X147333963Y-99246230D01*
X147408590Y-99409351D01*
X147455323Y-99683819D01*
X147485621Y-100096650D01*
X147489333Y-100169671D01*
X147520288Y-100617816D01*
X147569372Y-100918962D01*
X147648828Y-101095338D01*
X147770899Y-101169176D01*
X147947827Y-101162707D01*
X148026562Y-101145187D01*
X148251333Y-101088773D01*
X148251333Y-100154849D01*
X148244728Y-99872979D01*
X148759649Y-99872979D01*
X148817287Y-100361840D01*
X148997248Y-100741800D01*
X149309092Y-101030286D01*
X149435345Y-101104563D01*
X149798706Y-101226185D01*
X150221598Y-101261959D01*
X150633197Y-101212433D01*
X150939500Y-101092927D01*
X151155011Y-100916553D01*
X151199756Y-100761794D01*
X151570102Y-100761794D01*
X151585633Y-100931357D01*
X151707131Y-101055431D01*
X151824102Y-101119700D01*
X152167121Y-101224209D01*
X152569467Y-101254076D01*
X152952807Y-101208495D01*
X153163694Y-101133456D01*
X153365860Y-100993628D01*
X153498156Y-100842689D01*
X153568989Y-100594513D01*
X153580444Y-100288254D01*
X153532557Y-100036984D01*
X153411753Y-99899452D01*
X153260842Y-99803251D01*
X154008666Y-99803251D01*
X154015722Y-100360662D01*
X154037234Y-100755759D01*
X154073716Y-100994984D01*
X154110266Y-101075066D01*
X154316243Y-101169554D01*
X154589890Y-101141618D01*
X154636741Y-101125274D01*
X154701499Y-101069968D01*
X154742119Y-100943616D01*
X154763501Y-100715249D01*
X154770543Y-100353898D01*
X154770666Y-100278608D01*
X154775536Y-99891253D01*
X154794716Y-99634016D01*
X154835062Y-99467846D01*
X154903428Y-99353689D01*
X154940000Y-99314000D01*
X155170555Y-99164497D01*
X155398802Y-99183751D01*
X155547166Y-99284788D01*
X155620626Y-99377195D01*
X155667007Y-99517395D01*
X155692017Y-99741227D01*
X155701366Y-100084528D01*
X155702000Y-100256842D01*
X155703877Y-100637966D01*
X155714638Y-100882924D01*
X155741978Y-101024880D01*
X155793593Y-101097000D01*
X155877177Y-101132445D01*
X155906969Y-101140218D01*
X156123621Y-101183434D01*
X156270552Y-101167969D01*
X156363496Y-101069476D01*
X156418184Y-100863609D01*
X156450348Y-100526020D01*
X156464000Y-100278152D01*
X156500292Y-99797287D01*
X156558486Y-99464620D01*
X156646059Y-99259631D01*
X156770488Y-99161798D01*
X156876533Y-99145963D01*
X157041319Y-99167439D01*
X157155296Y-99246230D01*
X157229923Y-99409351D01*
X157276657Y-99683819D01*
X157306954Y-100096650D01*
X157310666Y-100169671D01*
X157341621Y-100617816D01*
X157390705Y-100918962D01*
X157470161Y-101095338D01*
X157592232Y-101169176D01*
X157769161Y-101162707D01*
X157847895Y-101145187D01*
X158072666Y-101088773D01*
X158072666Y-100154849D01*
X158064713Y-99815433D01*
X158580666Y-99815433D01*
X158587864Y-100370762D01*
X158609787Y-100763454D01*
X158646926Y-100999608D01*
X158682266Y-101075066D01*
X158871629Y-101163168D01*
X159109579Y-101157813D01*
X159239181Y-101105422D01*
X159283098Y-101032184D01*
X159311888Y-100864916D01*
X159326832Y-100583467D01*
X159329209Y-100167684D01*
X159323847Y-99773218D01*
X159321589Y-99651854D01*
X160034152Y-99651854D01*
X160034929Y-100180431D01*
X160042612Y-100572698D01*
X160057852Y-100845120D01*
X160081303Y-101014162D01*
X160113618Y-101096290D01*
X160124293Y-101105921D01*
X160343706Y-101171291D01*
X160574249Y-101140253D01*
X160680400Y-101075066D01*
X160715823Y-100982838D01*
X160743021Y-100777389D01*
X160762585Y-100446370D01*
X160775110Y-99977430D01*
X160778306Y-99651854D01*
X161473485Y-99651854D01*
X161474263Y-100180431D01*
X161481945Y-100572698D01*
X161497186Y-100845120D01*
X161520637Y-101014162D01*
X161552951Y-101096290D01*
X161563626Y-101105921D01*
X161783039Y-101171291D01*
X162013582Y-101140253D01*
X162119733Y-101075066D01*
X162155156Y-100982838D01*
X162182354Y-100777389D01*
X162201918Y-100446370D01*
X162214443Y-99977430D01*
X162215468Y-99872979D01*
X162729649Y-99872979D01*
X162787287Y-100361840D01*
X162967248Y-100741800D01*
X163279092Y-101030286D01*
X163405345Y-101104563D01*
X163768706Y-101226185D01*
X164191598Y-101261959D01*
X164603197Y-101212433D01*
X164909500Y-101092927D01*
X165125011Y-100916553D01*
X165173543Y-100748699D01*
X165056821Y-100583304D01*
X165054979Y-100581770D01*
X164923038Y-100519673D01*
X164731444Y-100536153D01*
X164600656Y-100571403D01*
X164259781Y-100652339D01*
X164011551Y-100648469D01*
X163799260Y-100554789D01*
X163714418Y-100493188D01*
X163530177Y-100323775D01*
X163482457Y-100204106D01*
X163579194Y-100127431D01*
X163828328Y-100086996D01*
X164204952Y-100076000D01*
X164640261Y-100061696D01*
X164930652Y-100008893D01*
X165098876Y-99902753D01*
X165138154Y-99803251D01*
X165608000Y-99803251D01*
X165615056Y-100360662D01*
X165636567Y-100755759D01*
X165673049Y-100994984D01*
X165709600Y-101075066D01*
X165896028Y-101162245D01*
X166129537Y-101160971D01*
X166254928Y-101111870D01*
X166304677Y-101000126D01*
X166347264Y-100755237D01*
X166347429Y-100753333D01*
X167216666Y-100753333D01*
X167290118Y-100965805D01*
X167466894Y-101127617D01*
X167640000Y-101176666D01*
X167826308Y-101119404D01*
X167930285Y-101043619D01*
X168042398Y-100833110D01*
X168023561Y-100607958D01*
X167895980Y-100422754D01*
X167681862Y-100332087D01*
X167640000Y-100330000D01*
X167427527Y-100403451D01*
X167265715Y-100580227D01*
X167216666Y-100753333D01*
X166347429Y-100753333D01*
X166376951Y-100413385D01*
X166381928Y-100311152D01*
X166419989Y-99854627D01*
X166501734Y-99537343D01*
X166644647Y-99331246D01*
X166866213Y-99208282D01*
X167104281Y-99152133D01*
X167315103Y-99104830D01*
X167406627Y-99020968D01*
X167428105Y-98847720D01*
X167428333Y-98804563D01*
X167412816Y-98604296D01*
X167332264Y-98515710D01*
X167140194Y-98482168D01*
X166796093Y-98528714D01*
X166611028Y-98632869D01*
X166454706Y-98728198D01*
X166373309Y-98738309D01*
X166370000Y-98726846D01*
X166297250Y-98600717D01*
X166122846Y-98521691D01*
X165912555Y-98511500D01*
X165808956Y-98541474D01*
X165729056Y-98583830D01*
X165673754Y-98644441D01*
X165638525Y-98751708D01*
X165618848Y-98934033D01*
X165610198Y-99219817D01*
X165608051Y-99637462D01*
X165608000Y-99803251D01*
X165138154Y-99803251D01*
X165167688Y-99728436D01*
X165159840Y-99471103D01*
X165157692Y-99454660D01*
X165045678Y-99114815D01*
X164815967Y-98821123D01*
X164598937Y-98633106D01*
X164383678Y-98535848D01*
X164087039Y-98492632D01*
X164068890Y-98491254D01*
X163599793Y-98526044D01*
X163221622Y-98699355D01*
X162944186Y-99001065D01*
X162777292Y-99421056D01*
X162729649Y-99872979D01*
X162215468Y-99872979D01*
X162220522Y-99358219D01*
X162221333Y-98960013D01*
X162221333Y-96946559D01*
X162016363Y-96895115D01*
X161791321Y-96865959D01*
X161656530Y-96873452D01*
X161608062Y-96892759D01*
X161570460Y-96943015D01*
X161542034Y-97044143D01*
X161521100Y-97216066D01*
X161505968Y-97478708D01*
X161494954Y-97851992D01*
X161486368Y-98355842D01*
X161478960Y-98970502D01*
X161473485Y-99651854D01*
X160778306Y-99651854D01*
X160781189Y-99358219D01*
X160782000Y-98960013D01*
X160782000Y-96946559D01*
X160577030Y-96895115D01*
X160351987Y-96865959D01*
X160217196Y-96873452D01*
X160168729Y-96892759D01*
X160131126Y-96943015D01*
X160102701Y-97044143D01*
X160081766Y-97216066D01*
X160066635Y-97478708D01*
X160055620Y-97851992D01*
X160047035Y-98355842D01*
X160039626Y-98970502D01*
X160034152Y-99651854D01*
X159321589Y-99651854D01*
X159300333Y-98509666D01*
X159062380Y-98482382D01*
X158883790Y-98474521D01*
X158755486Y-98513404D01*
X158669273Y-98621706D01*
X158616957Y-98822102D01*
X158590344Y-99137267D01*
X158581240Y-99589877D01*
X158580666Y-99815433D01*
X158064713Y-99815433D01*
X158060276Y-99626135D01*
X158016917Y-99236714D01*
X157933307Y-98957938D01*
X157800161Y-98761161D01*
X157608197Y-98617736D01*
X157567438Y-98595766D01*
X157187369Y-98474706D01*
X156835369Y-98520429D01*
X156532906Y-98710750D01*
X156260475Y-98954167D01*
X156017058Y-98710750D01*
X155715680Y-98512991D01*
X155385987Y-98473526D01*
X155061122Y-98594555D01*
X154993751Y-98642811D01*
X154846172Y-98736792D01*
X154772547Y-98740366D01*
X154770666Y-98730457D01*
X154697926Y-98601844D01*
X154523319Y-98521508D01*
X154312266Y-98511486D01*
X154209623Y-98541474D01*
X154129723Y-98583830D01*
X154074421Y-98644441D01*
X154039192Y-98751708D01*
X154019514Y-98934033D01*
X154010864Y-99219817D01*
X154008718Y-99637462D01*
X154008666Y-99803251D01*
X153260842Y-99803251D01*
X153177285Y-99749987D01*
X152880163Y-99616097D01*
X152591470Y-99529485D01*
X152342305Y-99444518D01*
X152255519Y-99328398D01*
X152323793Y-99176805D01*
X152427627Y-99103340D01*
X152602841Y-99079894D01*
X152894859Y-99100842D01*
X152916755Y-99103349D01*
X153197302Y-99128883D01*
X153359029Y-99116474D01*
X153450053Y-99056558D01*
X153493505Y-98988714D01*
X153518967Y-98803386D01*
X153402061Y-98648602D01*
X153168693Y-98536003D01*
X152844769Y-98477227D01*
X152456195Y-98483914D01*
X152388065Y-98492062D01*
X152022015Y-98600994D01*
X151771721Y-98825086D01*
X151636332Y-99107386D01*
X151589593Y-99422104D01*
X151684472Y-99679274D01*
X151929647Y-99890658D01*
X152333792Y-100068019D01*
X152348633Y-100072993D01*
X152630822Y-100180989D01*
X152843009Y-100288495D01*
X152937952Y-100370600D01*
X152929353Y-100524545D01*
X152785248Y-100621045D01*
X152533508Y-100647182D01*
X152378023Y-100630172D01*
X152012766Y-100573431D01*
X151781184Y-100556124D01*
X151651106Y-100583491D01*
X151590363Y-100660775D01*
X151570102Y-100761794D01*
X151199756Y-100761794D01*
X151203543Y-100748699D01*
X151086821Y-100583304D01*
X151084979Y-100581770D01*
X150953038Y-100519673D01*
X150761444Y-100536153D01*
X150630656Y-100571403D01*
X150289781Y-100652339D01*
X150041551Y-100648469D01*
X149829260Y-100554789D01*
X149744418Y-100493188D01*
X149560177Y-100323775D01*
X149512457Y-100204106D01*
X149609194Y-100127431D01*
X149858328Y-100086996D01*
X150234952Y-100076000D01*
X150670261Y-100061696D01*
X150960652Y-100008893D01*
X151128876Y-99902753D01*
X151197688Y-99728436D01*
X151189840Y-99471103D01*
X151187692Y-99454660D01*
X151075678Y-99114815D01*
X150845967Y-98821123D01*
X150628937Y-98633106D01*
X150413678Y-98535848D01*
X150117039Y-98492632D01*
X150098890Y-98491254D01*
X149629793Y-98526044D01*
X149251622Y-98699355D01*
X148974186Y-99001065D01*
X148807292Y-99421056D01*
X148759649Y-99872979D01*
X148244728Y-99872979D01*
X148238943Y-99626135D01*
X148195584Y-99236714D01*
X148111973Y-98957938D01*
X147978827Y-98761161D01*
X147786863Y-98617736D01*
X147746104Y-98595766D01*
X147366036Y-98474706D01*
X147014036Y-98520429D01*
X146711573Y-98710750D01*
X146439142Y-98954167D01*
X146195724Y-98710750D01*
X145894347Y-98512991D01*
X145564654Y-98473526D01*
X145239788Y-98594555D01*
X145172418Y-98642811D01*
X145024839Y-98736792D01*
X144951213Y-98740366D01*
X144949333Y-98730457D01*
X144876592Y-98601844D01*
X144701985Y-98521508D01*
X144490933Y-98511486D01*
X144388290Y-98541474D01*
X144308390Y-98583830D01*
X144253087Y-98644441D01*
X144217859Y-98751708D01*
X144198181Y-98934033D01*
X144189531Y-99219817D01*
X144187385Y-99637462D01*
X144187333Y-99803251D01*
X143667778Y-99803251D01*
X143662937Y-99644099D01*
X143607476Y-99252271D01*
X143501160Y-98967119D01*
X143332515Y-98758471D01*
X143090069Y-98596157D01*
X143076835Y-98589249D01*
X142789665Y-98501460D01*
X142435264Y-98475904D01*
X142077013Y-98508723D01*
X141778291Y-98596054D01*
X141650506Y-98676128D01*
X141510796Y-98823300D01*
X141495343Y-98940693D01*
X141586146Y-99090868D01*
X141671187Y-99176230D01*
X141788797Y-99196976D01*
X141994340Y-99157898D01*
X142085668Y-99134091D01*
X142343417Y-99077100D01*
X142514530Y-99083185D01*
X142671316Y-99157026D01*
X142697188Y-99173659D01*
X142854134Y-99326789D01*
X142917333Y-99485285D01*
X142891968Y-99589708D01*
X142787347Y-99639258D01*
X142560678Y-99652603D01*
X142533613Y-99652666D01*
X142111113Y-99700647D01*
X141743283Y-99831694D01*
X141483943Y-100026461D01*
X141479720Y-100031491D01*
X141399374Y-100215084D01*
X141363449Y-100474682D01*
X140869191Y-100474682D01*
X140866839Y-100169216D01*
X140866108Y-100117276D01*
X140843000Y-98509666D01*
X140605046Y-98482382D01*
X140443556Y-98472227D01*
X140322800Y-98497713D01*
X140236884Y-98579530D01*
X140179912Y-98738368D01*
X140145988Y-98994919D01*
X140129219Y-99369872D01*
X140123710Y-99883919D01*
X140123333Y-100173129D01*
X140122823Y-100712988D01*
X140119260Y-101107780D01*
X140109593Y-101381771D01*
X140090771Y-101559228D01*
X140059744Y-101664416D01*
X140013460Y-101721602D01*
X139948870Y-101755051D01*
X139923213Y-101764943D01*
X139718439Y-101907028D01*
X139646529Y-102093117D01*
X139223509Y-102093117D01*
X139222473Y-102087604D01*
X139296849Y-101777048D01*
X139469090Y-101552741D01*
X139699999Y-101354122D01*
X139699999Y-100043239D01*
X139707815Y-99414919D01*
X139733049Y-98937150D01*
X139778381Y-98591792D01*
X139846492Y-98360703D01*
X139940060Y-98225745D01*
X139971990Y-98202214D01*
X139994083Y-98099115D01*
X139882026Y-97913906D01*
X139721541Y-97598619D01*
X139725042Y-97451333D01*
X140123333Y-97451333D01*
X140192602Y-97647057D01*
X140364270Y-97762757D01*
X140584131Y-97782814D01*
X140797976Y-97691609D01*
X140836952Y-97656952D01*
X140943638Y-97520928D01*
X140970000Y-97451333D01*
X140898868Y-97307253D01*
X140731437Y-97177528D01*
X140536652Y-97113497D01*
X140515219Y-97112666D01*
X140281522Y-97176888D01*
X140142728Y-97342979D01*
X140123333Y-97451333D01*
X139725042Y-97451333D01*
X139729021Y-97283973D01*
X139903577Y-96983283D01*
X139947487Y-96936820D01*
X140242241Y-96747333D01*
X140573760Y-96695835D01*
X140897046Y-96773650D01*
X141167101Y-96972102D01*
X141309527Y-97199411D01*
X141372359Y-97408771D01*
X141347566Y-97595266D01*
X141280489Y-97753737D01*
X141165709Y-97941742D01*
X141056734Y-98039901D01*
X141037221Y-98044000D01*
X141011984Y-98092345D01*
X141102859Y-98214406D01*
X141110330Y-98221960D01*
X141239763Y-98336905D01*
X141344043Y-98348422D01*
X141501068Y-98260463D01*
X141527588Y-98243127D01*
X141792012Y-98140453D01*
X142159289Y-98085306D01*
X142569845Y-98077346D01*
X142964106Y-98116233D01*
X143282498Y-98201626D01*
X143383000Y-98253711D01*
X143568421Y-98386983D01*
X143686037Y-98491595D01*
X143692788Y-98500230D01*
X143776369Y-98494812D01*
X143914947Y-98383171D01*
X143956739Y-98337369D01*
X144145894Y-98167091D01*
X144363284Y-98107903D01*
X144493617Y-98107036D01*
X144755862Y-98116003D01*
X144969588Y-98122752D01*
X144991666Y-98123379D01*
X145178076Y-98115750D01*
X145445567Y-98091034D01*
X145552522Y-98078347D01*
X145930425Y-98074931D01*
X146208688Y-98165495D01*
X146407629Y-98250755D01*
X146561618Y-98245075D01*
X146723128Y-98173174D01*
X147095406Y-98066341D01*
X147508735Y-98081934D01*
X147909139Y-98206305D01*
X148242641Y-98425808D01*
X148385556Y-98593474D01*
X148522255Y-98802103D01*
X148767001Y-98557357D01*
X149181619Y-98255565D01*
X149661918Y-98089961D01*
X150168845Y-98063920D01*
X150663347Y-98180818D01*
X151002309Y-98364136D01*
X151369904Y-98623241D01*
X151525119Y-98448935D01*
X151822559Y-98229313D01*
X152222034Y-98091286D01*
X152673358Y-98042265D01*
X153126345Y-98089663D01*
X153392038Y-98173219D01*
X153614197Y-98250833D01*
X153782873Y-98248000D01*
X153990845Y-98165043D01*
X154299129Y-98074525D01*
X154504359Y-98083612D01*
X154668549Y-98118839D01*
X154824415Y-98130671D01*
X155028876Y-98118766D01*
X155338853Y-98082777D01*
X155373855Y-98078347D01*
X155751758Y-98074931D01*
X156030022Y-98165495D01*
X156228962Y-98250755D01*
X156382951Y-98245075D01*
X156544462Y-98173174D01*
X156943579Y-98057240D01*
X157378472Y-98084280D01*
X157807168Y-98246840D01*
X158093833Y-98448332D01*
X158206238Y-98515453D01*
X158242000Y-98486503D01*
X158296566Y-98357985D01*
X158375102Y-98261659D01*
X158454936Y-98156170D01*
X158443850Y-98095869D01*
X159456437Y-98095869D01*
X159469666Y-98128666D01*
X159545748Y-98209437D01*
X159559330Y-98213333D01*
X159595695Y-98147827D01*
X159596666Y-98128666D01*
X159531578Y-98047253D01*
X159507003Y-98044000D01*
X159456437Y-98095869D01*
X158443850Y-98095869D01*
X158435283Y-98049279D01*
X158332768Y-97905527D01*
X158199898Y-97635506D01*
X158173274Y-97400975D01*
X158594841Y-97400975D01*
X158621492Y-97603060D01*
X158759611Y-97735510D01*
X158959895Y-97781858D01*
X159173043Y-97725637D01*
X159289252Y-97632910D01*
X159384613Y-97435844D01*
X159324640Y-97261230D01*
X159122754Y-97145540D01*
X159108556Y-97141801D01*
X158851517Y-97140726D01*
X158661790Y-97258802D01*
X158594841Y-97400975D01*
X158173274Y-97400975D01*
X158165456Y-97332111D01*
X158234927Y-97067860D01*
X158265859Y-97020663D01*
X158537285Y-96796453D01*
X158882454Y-96698435D01*
X159251120Y-96737474D01*
X159369035Y-96782131D01*
X159526125Y-96826600D01*
X159662660Y-96772222D01*
X159792504Y-96655131D01*
X160062264Y-96492229D01*
X160401580Y-96430247D01*
X160740174Y-96474612D01*
X160932494Y-96567134D01*
X161088266Y-96652741D01*
X161217716Y-96626030D01*
X161308838Y-96567134D01*
X161581138Y-96460541D01*
X161915678Y-96440517D01*
X162233925Y-96504915D01*
X162402453Y-96597038D01*
X162492976Y-96683719D01*
X162553110Y-96792571D01*
X162590727Y-96959750D01*
X162613694Y-97221414D01*
X162629883Y-97613722D01*
X162630963Y-97646923D01*
X162659594Y-98535102D01*
X163138963Y-98281801D01*
X163445730Y-98135185D01*
X163695860Y-98065958D01*
X163971998Y-98055201D01*
X164097879Y-98062292D01*
X164575412Y-98151357D01*
X164898124Y-98308908D01*
X165218823Y-98521733D01*
X165402195Y-98308550D01*
X165529368Y-98191544D01*
X165689584Y-98124078D01*
X165923423Y-98098382D01*
X166271463Y-98106690D01*
X166412333Y-98115179D01*
X166598513Y-98111654D01*
X166866112Y-98089711D01*
X166974810Y-98077306D01*
X167354422Y-98073893D01*
X167625021Y-98183470D01*
X167815068Y-98420157D01*
X167859970Y-98516481D01*
X167923717Y-98856004D01*
X167844878Y-99165658D01*
X167647291Y-99408700D01*
X167354789Y-99548390D01*
X167177803Y-99568000D01*
X166974874Y-99643727D01*
X166845661Y-99863130D01*
X166796489Y-100214543D01*
X166796333Y-100272011D01*
X166802217Y-100451280D01*
X166829632Y-100474890D01*
X166901956Y-100356506D01*
X166911486Y-100339319D01*
X167145900Y-100081415D01*
X167480642Y-99934260D01*
X167691654Y-99909666D01*
X167844364Y-99898349D01*
X167928503Y-99840754D01*
X167972653Y-99694701D01*
X167985529Y-99587840D01*
X168436570Y-99587840D01*
X168453810Y-100035904D01*
X168534408Y-100441752D01*
X168642574Y-100691185D01*
X168930886Y-101027501D01*
X169272911Y-101215506D01*
X169645862Y-101248716D01*
X170026954Y-101120649D01*
X170067963Y-101096700D01*
X170255578Y-100996513D01*
X170365166Y-100991344D01*
X170438163Y-101054683D01*
X170611463Y-101151847D01*
X170846594Y-101170256D01*
X171054055Y-101107132D01*
X171094399Y-101075066D01*
X171127680Y-100958856D01*
X171154876Y-100701770D01*
X171175987Y-100332160D01*
X171191012Y-99878374D01*
X171191268Y-99863772D01*
X171733756Y-99863772D01*
X171777010Y-100248962D01*
X171872930Y-100556543D01*
X171923626Y-100641291D01*
X172254841Y-100954674D01*
X172681375Y-101164922D01*
X173156724Y-101261417D01*
X173634384Y-101233544D01*
X173990000Y-101113035D01*
X174218213Y-100944080D01*
X174310847Y-100754834D01*
X174620133Y-100754834D01*
X174629170Y-100860670D01*
X174772650Y-101021358D01*
X175036742Y-101145179D01*
X175375323Y-101224828D01*
X175742272Y-101252998D01*
X176091467Y-101222383D01*
X176359731Y-101134816D01*
X176672078Y-100893805D01*
X176838133Y-100567831D01*
X176868666Y-100307312D01*
X176845114Y-100189846D01*
X177473349Y-100189846D01*
X177476678Y-100585986D01*
X177495333Y-100858776D01*
X177534330Y-101031166D01*
X177598684Y-101126105D01*
X177693410Y-101166545D01*
X177814241Y-101175370D01*
X178023206Y-101145922D01*
X178089408Y-101125274D01*
X178139915Y-101084716D01*
X178176173Y-100991884D01*
X178200411Y-100822836D01*
X178214861Y-100553635D01*
X178221751Y-100160339D01*
X178223333Y-99687554D01*
X178223333Y-98301226D01*
X178018363Y-98249781D01*
X177836437Y-98208490D01*
X177703199Y-98203555D01*
X177610541Y-98256044D01*
X177550352Y-98387022D01*
X177514523Y-98617553D01*
X177494945Y-98968703D01*
X177483508Y-99461538D01*
X177480331Y-99647406D01*
X177473349Y-100189846D01*
X176845114Y-100189846D01*
X176804074Y-99985159D01*
X176602969Y-99730106D01*
X176254356Y-99531319D01*
X175988427Y-99439904D01*
X175745570Y-99356333D01*
X176868666Y-99356333D01*
X176911000Y-99398666D01*
X176953333Y-99356333D01*
X176911000Y-99314000D01*
X176868666Y-99356333D01*
X175745570Y-99356333D01*
X175701349Y-99341116D01*
X175553027Y-99245531D01*
X175514000Y-99144364D01*
X175587514Y-98989002D01*
X175805354Y-98916400D01*
X176163467Y-98927724D01*
X176233327Y-98937374D01*
X176577336Y-98946144D01*
X176788918Y-98849434D01*
X176868040Y-98647260D01*
X176868666Y-98621979D01*
X176791744Y-98466092D01*
X176588263Y-98342252D01*
X176299156Y-98257576D01*
X175965350Y-98219182D01*
X175627778Y-98234187D01*
X175327369Y-98309709D01*
X175257228Y-98341766D01*
X174995495Y-98560523D01*
X174812574Y-98872070D01*
X174752000Y-99171377D01*
X174832717Y-99463471D01*
X175061754Y-99715155D01*
X175419442Y-99907298D01*
X175554796Y-99952195D01*
X175921629Y-100085000D01*
X176122683Y-100221315D01*
X176156693Y-100359840D01*
X176061137Y-100472610D01*
X175912042Y-100542293D01*
X175698118Y-100559416D01*
X175385382Y-100523383D01*
X175034973Y-100454531D01*
X174831128Y-100434817D01*
X174714364Y-100506703D01*
X174675444Y-100568844D01*
X174620133Y-100754834D01*
X174310847Y-100754834D01*
X174313272Y-100749880D01*
X174263547Y-100563442D01*
X174205179Y-100502248D01*
X174085687Y-100441263D01*
X173915095Y-100445966D01*
X173696530Y-100498531D01*
X173326913Y-100552137D01*
X172993686Y-100511314D01*
X172732117Y-100389470D01*
X172577473Y-100200016D01*
X172550666Y-100062877D01*
X172566597Y-99988953D01*
X172635425Y-99942735D01*
X172788705Y-99917876D01*
X173057991Y-99908028D01*
X173327166Y-99906666D01*
X173783320Y-99892484D01*
X174095952Y-99841800D01*
X174289122Y-99742412D01*
X174386891Y-99582116D01*
X174413333Y-99355731D01*
X174335081Y-98976481D01*
X174119806Y-98652425D01*
X173796728Y-98406555D01*
X173395066Y-98261863D01*
X172991655Y-98237068D01*
X172553001Y-98325517D01*
X172198781Y-98534746D01*
X171920898Y-98838606D01*
X171805610Y-99098987D01*
X171743260Y-99460578D01*
X171733756Y-99863772D01*
X171191268Y-99863772D01*
X171199953Y-99368762D01*
X171202808Y-98831672D01*
X171199578Y-98295455D01*
X171190263Y-97788460D01*
X171174863Y-97339036D01*
X171153378Y-96975533D01*
X171125808Y-96726299D01*
X171094399Y-96621599D01*
X170907116Y-96535205D01*
X170648307Y-96529720D01*
X170483258Y-96571391D01*
X170423855Y-96620633D01*
X170384544Y-96733088D01*
X170361564Y-96937246D01*
X170351154Y-97261594D01*
X170349333Y-97586147D01*
X170349333Y-98549511D01*
X170074166Y-98381738D01*
X169697811Y-98241612D01*
X169315462Y-98255317D01*
X168962102Y-98412384D01*
X168672717Y-98702342D01*
X168598291Y-98823422D01*
X168484220Y-99162150D01*
X168436570Y-99587840D01*
X167985529Y-99587840D01*
X168001922Y-99451803D01*
X168126497Y-98884236D01*
X168365314Y-98422375D01*
X168706767Y-98079255D01*
X169139251Y-97867909D01*
X169466440Y-97807141D01*
X169926000Y-97769031D01*
X169926000Y-97193773D01*
X169934032Y-96811093D01*
X169967509Y-96557650D01*
X170040494Y-96393733D01*
X170167056Y-96279628D01*
X170270722Y-96220535D01*
X170618743Y-96110219D01*
X170969430Y-96115114D01*
G36*
X180034754Y-101231517D02*
X180357754Y-101307720D01*
X180536400Y-101423951D01*
X180593889Y-101595727D01*
X180594000Y-101605566D01*
X180519880Y-101804746D01*
X180327210Y-101941912D01*
X180060527Y-102000624D01*
X179764366Y-101964444D01*
X179691278Y-101938782D01*
X179501319Y-101788606D01*
X179440468Y-101577222D01*
X179523014Y-101361214D01*
X179540289Y-101340891D01*
X179678250Y-101236516D01*
X179866452Y-101212815D01*
X180034754Y-101231517D01*
X180034754Y-101231517D01*
G37*
X180034754Y-101231517D02*
X180357754Y-101307720D01*
X180536400Y-101423951D01*
X180593889Y-101595727D01*
X180594000Y-101605566D01*
X180519880Y-101804746D01*
X180327210Y-101941912D01*
X180060527Y-102000624D01*
X179764366Y-101964444D01*
X179691278Y-101938782D01*
X179501319Y-101788606D01*
X179440468Y-101577222D01*
X179523014Y-101361214D01*
X179540289Y-101340891D01*
X179678250Y-101236516D01*
X179866452Y-101212815D01*
X180034754Y-101231517D01*
G36*
X180170602Y-98759732D02*
X180331693Y-98917558D01*
X180417508Y-99190470D01*
X180424666Y-99314000D01*
X180372672Y-99615967D01*
X180237227Y-99819256D01*
X180049136Y-99904777D01*
X179839205Y-99853441D01*
X179718122Y-99751833D01*
X179606853Y-99526533D01*
X179583174Y-99245225D01*
X179645822Y-98984368D01*
X179732833Y-98861455D01*
X179961795Y-98735022D01*
X180170602Y-98759732D01*
X180170602Y-98759732D01*
G37*
X180170602Y-98759732D02*
X180331693Y-98917558D01*
X180417508Y-99190470D01*
X180424666Y-99314000D01*
X180372672Y-99615967D01*
X180237227Y-99819256D01*
X180049136Y-99904777D01*
X179839205Y-99853441D01*
X179718122Y-99751833D01*
X179606853Y-99526533D01*
X179583174Y-99245225D01*
X179645822Y-98984368D01*
X179732833Y-98861455D01*
X179961795Y-98735022D01*
X180170602Y-98759732D01*
G36*
X142902354Y-100132380D02*
X142898120Y-100271739D01*
X142793797Y-100449397D01*
X142748000Y-100499333D01*
X142523605Y-100643102D01*
X142304007Y-100648351D01*
X142164239Y-100552398D01*
X142104232Y-100386792D01*
X142189977Y-100240892D01*
X142397907Y-100132335D01*
X142704454Y-100078753D01*
X142800916Y-100076000D01*
X142902354Y-100132380D01*
X142902354Y-100132380D01*
G37*
X142902354Y-100132380D02*
X142898120Y-100271739D01*
X142793797Y-100449397D01*
X142748000Y-100499333D01*
X142523605Y-100643102D01*
X142304007Y-100648351D01*
X142164239Y-100552398D01*
X142104232Y-100386792D01*
X142189977Y-100240892D01*
X142397907Y-100132335D01*
X142704454Y-100078753D01*
X142800916Y-100076000D01*
X142902354Y-100132380D01*
G36*
X150244244Y-99133236D02*
X150401393Y-99309122D01*
X150452666Y-99489380D01*
X150430652Y-99584002D01*
X150338142Y-99633288D01*
X150135438Y-99651159D01*
X149987000Y-99652666D01*
X149717319Y-99645026D01*
X149576844Y-99612732D01*
X149525776Y-99541723D01*
X149521333Y-99488134D01*
X149593697Y-99312266D01*
X149768635Y-99153991D01*
X149982918Y-99065290D01*
X150042124Y-99060000D01*
X150244244Y-99133236D01*
X150244244Y-99133236D01*
G37*
X150244244Y-99133236D02*
X150401393Y-99309122D01*
X150452666Y-99489380D01*
X150430652Y-99584002D01*
X150338142Y-99633288D01*
X150135438Y-99651159D01*
X149987000Y-99652666D01*
X149717319Y-99645026D01*
X149576844Y-99612732D01*
X149525776Y-99541723D01*
X149521333Y-99488134D01*
X149593697Y-99312266D01*
X149768635Y-99153991D01*
X149982918Y-99065290D01*
X150042124Y-99060000D01*
X150244244Y-99133236D01*
G36*
X164214244Y-99133236D02*
X164371393Y-99309122D01*
X164422666Y-99489380D01*
X164400652Y-99584002D01*
X164308142Y-99633288D01*
X164105438Y-99651159D01*
X163957000Y-99652666D01*
X163687319Y-99645026D01*
X163546844Y-99612732D01*
X163495776Y-99541723D01*
X163491333Y-99488134D01*
X163563697Y-99312266D01*
X163738635Y-99153991D01*
X163952918Y-99065290D01*
X164012124Y-99060000D01*
X164214244Y-99133236D01*
X164214244Y-99133236D01*
G37*
X164214244Y-99133236D02*
X164371393Y-99309122D01*
X164422666Y-99489380D01*
X164400652Y-99584002D01*
X164308142Y-99633288D01*
X164105438Y-99651159D01*
X163957000Y-99652666D01*
X163687319Y-99645026D01*
X163546844Y-99612732D01*
X163495776Y-99541723D01*
X163491333Y-99488134D01*
X163563697Y-99312266D01*
X163738635Y-99153991D01*
X163952918Y-99065290D01*
X164012124Y-99060000D01*
X164214244Y-99133236D01*
G36*
X170014835Y-98951757D02*
X170146479Y-99087611D01*
X170277631Y-99286107D01*
X170337982Y-99525517D01*
X170349333Y-99778242D01*
X170336866Y-100061871D01*
X170284862Y-100238979D01*
X170171414Y-100371461D01*
X170126248Y-100408521D01*
X169902085Y-100551545D01*
X169720815Y-100563408D01*
X169520930Y-100446268D01*
X169501134Y-100430451D01*
X169361894Y-100251858D01*
X169288729Y-99972881D01*
X169276510Y-99858951D01*
X169281114Y-99737333D01*
X169756666Y-99737333D01*
X169771190Y-99994627D01*
X169811607Y-100116019D01*
X169841333Y-100118333D01*
X169895796Y-100007149D01*
X169924626Y-99797138D01*
X169926000Y-99737333D01*
X169906029Y-99513567D01*
X169856520Y-99371053D01*
X169841333Y-99356333D01*
X169789307Y-99398514D01*
X169760708Y-99587691D01*
X169756666Y-99737333D01*
X169281114Y-99737333D01*
X169292601Y-99433951D01*
X169423488Y-99131588D01*
X169670649Y-98948667D01*
X169703779Y-98936129D01*
X169880819Y-98896514D01*
X170014835Y-98951757D01*
X170014835Y-98951757D01*
G37*
X170014835Y-98951757D02*
X170146479Y-99087611D01*
X170277631Y-99286107D01*
X170337982Y-99525517D01*
X170349333Y-99778242D01*
X170336866Y-100061871D01*
X170284862Y-100238979D01*
X170171414Y-100371461D01*
X170126248Y-100408521D01*
X169902085Y-100551545D01*
X169720815Y-100563408D01*
X169520930Y-100446268D01*
X169501134Y-100430451D01*
X169361894Y-100251858D01*
X169288729Y-99972881D01*
X169276510Y-99858951D01*
X169281114Y-99737333D01*
X169756666Y-99737333D01*
X169771190Y-99994627D01*
X169811607Y-100116019D01*
X169841333Y-100118333D01*
X169895796Y-100007149D01*
X169924626Y-99797138D01*
X169926000Y-99737333D01*
X169906029Y-99513567D01*
X169856520Y-99371053D01*
X169841333Y-99356333D01*
X169789307Y-99398514D01*
X169760708Y-99587691D01*
X169756666Y-99737333D01*
X169281114Y-99737333D01*
X169292601Y-99433951D01*
X169423488Y-99131588D01*
X169670649Y-98948667D01*
X169703779Y-98936129D01*
X169880819Y-98896514D01*
X170014835Y-98951757D01*
G36*
X173300590Y-98936395D02*
X173481920Y-99046650D01*
X173604445Y-99181034D01*
X173618164Y-99299150D01*
X173617474Y-99300288D01*
X173502886Y-99362885D01*
X173290878Y-99396702D01*
X173035596Y-99402948D01*
X172791183Y-99382832D01*
X172611786Y-99337562D01*
X172550666Y-99276467D01*
X172623312Y-99127290D01*
X172799731Y-98987859D01*
X173017644Y-98901097D01*
X173110459Y-98890666D01*
X173300590Y-98936395D01*
X173300590Y-98936395D01*
G37*
X173300590Y-98936395D02*
X173481920Y-99046650D01*
X173604445Y-99181034D01*
X173618164Y-99299150D01*
X173617474Y-99300288D01*
X173502886Y-99362885D01*
X173290878Y-99396702D01*
X173035596Y-99402948D01*
X172791183Y-99382832D01*
X172611786Y-99337562D01*
X172550666Y-99276467D01*
X172623312Y-99127290D01*
X172799731Y-98987859D01*
X173017644Y-98901097D01*
X173110459Y-98890666D01*
X173300590Y-98936395D01*
G36*
X132758134Y-95586916D02*
X132879244Y-95649147D01*
X132989628Y-95725364D01*
X133182873Y-95917066D01*
X133357101Y-96168588D01*
X133380653Y-96213225D01*
X133476892Y-96439862D01*
X133488988Y-96617486D01*
X133423167Y-96840289D01*
X133422249Y-96842761D01*
X133373691Y-96945323D01*
X133294753Y-97052868D01*
X133169260Y-97178025D01*
X132981034Y-97333421D01*
X132713899Y-97531683D01*
X132351679Y-97785439D01*
X131878198Y-98107316D01*
X131341099Y-98467334D01*
X130830652Y-98810036D01*
X130369351Y-99123225D01*
X129975145Y-99394434D01*
X129665984Y-99611193D01*
X129459818Y-99761036D01*
X129374595Y-99831495D01*
X129373337Y-99834158D01*
X129440550Y-99893039D01*
X129631591Y-100031932D01*
X129928396Y-100238436D01*
X130312900Y-100500148D01*
X130767039Y-100804668D01*
X131272746Y-101139594D01*
X131324947Y-101173945D01*
X131918386Y-101566253D01*
X132384929Y-101880269D01*
X132740726Y-102128320D01*
X133001928Y-102322733D01*
X133184684Y-102475834D01*
X133305143Y-102599950D01*
X133379456Y-102707408D01*
X133405833Y-102762250D01*
X133477743Y-102968630D01*
X133482597Y-103141299D01*
X133418301Y-103362575D01*
X133388532Y-103442071D01*
X133253351Y-103713583D01*
X133067177Y-103887097D01*
X132895146Y-103977582D01*
X132640102Y-104085586D01*
X132470117Y-104124501D01*
X132319308Y-104101990D01*
X132200991Y-104058302D01*
X132091909Y-103996365D01*
X131858996Y-103851479D01*
X131519290Y-103634662D01*
X131089829Y-103356930D01*
X130587651Y-103029301D01*
X130029793Y-102662790D01*
X129449324Y-102279046D01*
X128731512Y-101801286D01*
X128143359Y-101404314D01*
X127672122Y-101077293D01*
X127305058Y-100809385D01*
X127029423Y-100589753D01*
X126832474Y-100407561D01*
X126701468Y-100251970D01*
X126623660Y-100112144D01*
X126586307Y-99977246D01*
X126576667Y-99836438D01*
X126576667Y-99836117D01*
X126577799Y-99812528D01*
X127006149Y-99812528D01*
X127018810Y-99911010D01*
X127073920Y-100020762D01*
X127181833Y-100150175D01*
X127352903Y-100307640D01*
X127597482Y-100501548D01*
X127925924Y-100740289D01*
X128348582Y-101032254D01*
X128875810Y-101385833D01*
X129517960Y-101809417D01*
X130285386Y-102311397D01*
X130835659Y-102670247D01*
X131369364Y-103016249D01*
X131782331Y-103276420D01*
X132094747Y-103458812D01*
X132326799Y-103571478D01*
X132498672Y-103622469D01*
X132630554Y-103619839D01*
X132742631Y-103571638D01*
X132855090Y-103485921D01*
X132863167Y-103479009D01*
X132972847Y-103298694D01*
X133011333Y-103077387D01*
X133006424Y-102998214D01*
X132982049Y-102921690D01*
X132923740Y-102836524D01*
X132817027Y-102731422D01*
X132647441Y-102595095D01*
X132400511Y-102416249D01*
X132061769Y-102183594D01*
X131616745Y-101885837D01*
X131050969Y-101511686D01*
X130755344Y-101316852D01*
X128499355Y-99830687D01*
X130755344Y-98342934D01*
X131379337Y-97930903D01*
X131876224Y-97600435D01*
X132260469Y-97340187D01*
X132546536Y-97138816D01*
X132748889Y-96984979D01*
X132881991Y-96867333D01*
X132960308Y-96774535D01*
X132998302Y-96695240D01*
X133010439Y-96618107D01*
X133011333Y-96573713D01*
X132946233Y-96280840D01*
X132770742Y-96087702D01*
X132514574Y-96022757D01*
X132443173Y-96029600D01*
X132304851Y-96087255D01*
X132049923Y-96227943D01*
X131698108Y-96438510D01*
X131269125Y-96705803D01*
X130782694Y-97016668D01*
X130258533Y-97357952D01*
X129716364Y-97716501D01*
X129175904Y-98079163D01*
X128656873Y-98432783D01*
X128178991Y-98764209D01*
X127761977Y-99060287D01*
X127425550Y-99307864D01*
X127189429Y-99493786D01*
X127073335Y-99604900D01*
X127066763Y-99615815D01*
X127025585Y-99716927D01*
X127006149Y-99812528D01*
X126577799Y-99812528D01*
X126583570Y-99692376D01*
X126612729Y-99558806D01*
X126676816Y-99424601D01*
X126788505Y-99278955D01*
X126960469Y-99111062D01*
X127205381Y-98910117D01*
X127535914Y-98665312D01*
X127964740Y-98365843D01*
X128504534Y-98000904D01*
X129167968Y-97559688D01*
X129517509Y-97328567D01*
X130244948Y-96849093D01*
X130846283Y-96456928D01*
X131336198Y-96145293D01*
X131729376Y-95907406D01*
X132040500Y-95736489D01*
X132284255Y-95625762D01*
X132475323Y-95568443D01*
X132628388Y-95557755D01*
X132758134Y-95586916D01*
X132758134Y-95586916D01*
G37*
X132758134Y-95586916D02*
X132879244Y-95649147D01*
X132989628Y-95725364D01*
X133182873Y-95917066D01*
X133357101Y-96168588D01*
X133380653Y-96213225D01*
X133476892Y-96439862D01*
X133488988Y-96617486D01*
X133423167Y-96840289D01*
X133422249Y-96842761D01*
X133373691Y-96945323D01*
X133294753Y-97052868D01*
X133169260Y-97178025D01*
X132981034Y-97333421D01*
X132713899Y-97531683D01*
X132351679Y-97785439D01*
X131878198Y-98107316D01*
X131341099Y-98467334D01*
X130830652Y-98810036D01*
X130369351Y-99123225D01*
X129975145Y-99394434D01*
X129665984Y-99611193D01*
X129459818Y-99761036D01*
X129374595Y-99831495D01*
X129373337Y-99834158D01*
X129440550Y-99893039D01*
X129631591Y-100031932D01*
X129928396Y-100238436D01*
X130312900Y-100500148D01*
X130767039Y-100804668D01*
X131272746Y-101139594D01*
X131324947Y-101173945D01*
X131918386Y-101566253D01*
X132384929Y-101880269D01*
X132740726Y-102128320D01*
X133001928Y-102322733D01*
X133184684Y-102475834D01*
X133305143Y-102599950D01*
X133379456Y-102707408D01*
X133405833Y-102762250D01*
X133477743Y-102968630D01*
X133482597Y-103141299D01*
X133418301Y-103362575D01*
X133388532Y-103442071D01*
X133253351Y-103713583D01*
X133067177Y-103887097D01*
X132895146Y-103977582D01*
X132640102Y-104085586D01*
X132470117Y-104124501D01*
X132319308Y-104101990D01*
X132200991Y-104058302D01*
X132091909Y-103996365D01*
X131858996Y-103851479D01*
X131519290Y-103634662D01*
X131089829Y-103356930D01*
X130587651Y-103029301D01*
X130029793Y-102662790D01*
X129449324Y-102279046D01*
X128731512Y-101801286D01*
X128143359Y-101404314D01*
X127672122Y-101077293D01*
X127305058Y-100809385D01*
X127029423Y-100589753D01*
X126832474Y-100407561D01*
X126701468Y-100251970D01*
X126623660Y-100112144D01*
X126586307Y-99977246D01*
X126576667Y-99836438D01*
X126576667Y-99836117D01*
X126577799Y-99812528D01*
X127006149Y-99812528D01*
X127018810Y-99911010D01*
X127073920Y-100020762D01*
X127181833Y-100150175D01*
X127352903Y-100307640D01*
X127597482Y-100501548D01*
X127925924Y-100740289D01*
X128348582Y-101032254D01*
X128875810Y-101385833D01*
X129517960Y-101809417D01*
X130285386Y-102311397D01*
X130835659Y-102670247D01*
X131369364Y-103016249D01*
X131782331Y-103276420D01*
X132094747Y-103458812D01*
X132326799Y-103571478D01*
X132498672Y-103622469D01*
X132630554Y-103619839D01*
X132742631Y-103571638D01*
X132855090Y-103485921D01*
X132863167Y-103479009D01*
X132972847Y-103298694D01*
X133011333Y-103077387D01*
X133006424Y-102998214D01*
X132982049Y-102921690D01*
X132923740Y-102836524D01*
X132817027Y-102731422D01*
X132647441Y-102595095D01*
X132400511Y-102416249D01*
X132061769Y-102183594D01*
X131616745Y-101885837D01*
X131050969Y-101511686D01*
X130755344Y-101316852D01*
X128499355Y-99830687D01*
X130755344Y-98342934D01*
X131379337Y-97930903D01*
X131876224Y-97600435D01*
X132260469Y-97340187D01*
X132546536Y-97138816D01*
X132748889Y-96984979D01*
X132881991Y-96867333D01*
X132960308Y-96774535D01*
X132998302Y-96695240D01*
X133010439Y-96618107D01*
X133011333Y-96573713D01*
X132946233Y-96280840D01*
X132770742Y-96087702D01*
X132514574Y-96022757D01*
X132443173Y-96029600D01*
X132304851Y-96087255D01*
X132049923Y-96227943D01*
X131698108Y-96438510D01*
X131269125Y-96705803D01*
X130782694Y-97016668D01*
X130258533Y-97357952D01*
X129716364Y-97716501D01*
X129175904Y-98079163D01*
X128656873Y-98432783D01*
X128178991Y-98764209D01*
X127761977Y-99060287D01*
X127425550Y-99307864D01*
X127189429Y-99493786D01*
X127073335Y-99604900D01*
X127066763Y-99615815D01*
X127025585Y-99716927D01*
X127006149Y-99812528D01*
X126577799Y-99812528D01*
X126583570Y-99692376D01*
X126612729Y-99558806D01*
X126676816Y-99424601D01*
X126788505Y-99278955D01*
X126960469Y-99111062D01*
X127205381Y-98910117D01*
X127535914Y-98665312D01*
X127964740Y-98365843D01*
X128504534Y-98000904D01*
X129167968Y-97559688D01*
X129517509Y-97328567D01*
X130244948Y-96849093D01*
X130846283Y-96456928D01*
X131336198Y-96145293D01*
X131729376Y-95907406D01*
X132040500Y-95736489D01*
X132284255Y-95625762D01*
X132475323Y-95568443D01*
X132628388Y-95557755D01*
X132758134Y-95586916D01*
G36*
X190888241Y-95572932D02*
X191085108Y-95636574D01*
X191336502Y-95754474D01*
X191657107Y-95933414D01*
X192061605Y-96180172D01*
X192564681Y-96501530D01*
X193181017Y-96904267D01*
X193824490Y-97328567D01*
X194548944Y-97808428D01*
X195143938Y-98207050D01*
X195622145Y-98535241D01*
X195996240Y-98803804D01*
X196278894Y-99023548D01*
X196482780Y-99205276D01*
X196620573Y-99359796D01*
X196704945Y-99497913D01*
X196748569Y-99630433D01*
X196764118Y-99768161D01*
X196765333Y-99836117D01*
X196756008Y-99975968D01*
X196719596Y-100109789D01*
X196643444Y-100248289D01*
X196514898Y-100402178D01*
X196321303Y-100582164D01*
X196050006Y-100798958D01*
X195688354Y-101063267D01*
X195223692Y-101385802D01*
X194643365Y-101777271D01*
X193934722Y-102248384D01*
X193844333Y-102308215D01*
X193241574Y-102704652D01*
X192676219Y-103071848D01*
X192165389Y-103399033D01*
X191726203Y-103675436D01*
X191375783Y-103890284D01*
X191131250Y-104032807D01*
X191009724Y-104092233D01*
X191008000Y-104092655D01*
X190782093Y-104086251D01*
X190498146Y-104001919D01*
X190446854Y-103979571D01*
X190194288Y-103828841D01*
X190033866Y-103623840D01*
X189953468Y-103442071D01*
X189869974Y-103193291D01*
X189856202Y-103015541D01*
X189910056Y-102826500D01*
X189936167Y-102762250D01*
X189992448Y-102658638D01*
X190086248Y-102544954D01*
X190233718Y-102408869D01*
X190451007Y-102238057D01*
X190754266Y-102020192D01*
X191159644Y-101742946D01*
X191683290Y-101393992D01*
X192017053Y-101173945D01*
X192526884Y-100836683D01*
X192986936Y-100528599D01*
X193379142Y-100262094D01*
X193685438Y-100049569D01*
X193887759Y-99903427D01*
X193968042Y-99836069D01*
X193968663Y-99834158D01*
X193900333Y-99774836D01*
X193708745Y-99634524D01*
X193411851Y-99425688D01*
X193027598Y-99160797D01*
X192573936Y-98852318D01*
X192068815Y-98512719D01*
X192000901Y-98467334D01*
X191412950Y-98073028D01*
X190950880Y-97758257D01*
X190598515Y-97510390D01*
X190339677Y-97316803D01*
X190158192Y-97164866D01*
X190037882Y-97041953D01*
X189962572Y-96935437D01*
X189919751Y-96842761D01*
X189853263Y-96619132D01*
X189856171Y-96573713D01*
X190330666Y-96573713D01*
X190334898Y-96654357D01*
X190357236Y-96731082D01*
X190412145Y-96815233D01*
X190514088Y-96918152D01*
X190677529Y-97051183D01*
X190916933Y-97225669D01*
X191246764Y-97452953D01*
X191681485Y-97744378D01*
X192235561Y-98111287D01*
X192586655Y-98342934D01*
X194842644Y-99830687D01*
X192586655Y-101316852D01*
X191962252Y-101728784D01*
X191465066Y-102059277D01*
X191080626Y-102319624D01*
X190794464Y-102521116D01*
X190592109Y-102675045D01*
X190459093Y-102792702D01*
X190380946Y-102885380D01*
X190343198Y-102964370D01*
X190331380Y-103040963D01*
X190330667Y-103077387D01*
X190395600Y-103355281D01*
X190563029Y-103557075D01*
X190791892Y-103652556D01*
X191041131Y-103611514D01*
X191050333Y-103606919D01*
X191158943Y-103541092D01*
X191391313Y-103393152D01*
X191729995Y-103174444D01*
X192157541Y-102896311D01*
X192656505Y-102570099D01*
X193209439Y-102207151D01*
X193696222Y-101886554D01*
X194397445Y-101422411D01*
X194968229Y-101039278D01*
X195420574Y-100726594D01*
X195766477Y-100473793D01*
X196017936Y-100270313D01*
X196186947Y-100105590D01*
X196285510Y-99969060D01*
X196325621Y-99850160D01*
X196319279Y-99738326D01*
X196278480Y-99622995D01*
X196275236Y-99615815D01*
X196182526Y-99519366D01*
X195966286Y-99345771D01*
X195646237Y-99108186D01*
X195242098Y-98819763D01*
X194773588Y-98493656D01*
X194260427Y-98143017D01*
X193722333Y-97781001D01*
X193179027Y-97420760D01*
X192650227Y-97075448D01*
X192155653Y-96758219D01*
X191715025Y-96482226D01*
X191348062Y-96260621D01*
X191074482Y-96106559D01*
X190914006Y-96033193D01*
X190898827Y-96029600D01*
X190627478Y-96058935D01*
X190429554Y-96223408D01*
X190334768Y-96494563D01*
X190330666Y-96573713D01*
X189856171Y-96573713D01*
X189864638Y-96441522D01*
X189960099Y-96215738D01*
X189961347Y-96213225D01*
X190123577Y-95961419D01*
X190319244Y-95751444D01*
X190352372Y-95725364D01*
X190477966Y-95639767D01*
X190599353Y-95581309D01*
X190731217Y-95556771D01*
X190888241Y-95572932D01*
X190888241Y-95572932D01*
G37*
X190888241Y-95572932D02*
X191085108Y-95636574D01*
X191336502Y-95754474D01*
X191657107Y-95933414D01*
X192061605Y-96180172D01*
X192564681Y-96501530D01*
X193181017Y-96904267D01*
X193824490Y-97328567D01*
X194548944Y-97808428D01*
X195143938Y-98207050D01*
X195622145Y-98535241D01*
X195996240Y-98803804D01*
X196278894Y-99023548D01*
X196482780Y-99205276D01*
X196620573Y-99359796D01*
X196704945Y-99497913D01*
X196748569Y-99630433D01*
X196764118Y-99768161D01*
X196765333Y-99836117D01*
X196756008Y-99975968D01*
X196719596Y-100109789D01*
X196643444Y-100248289D01*
X196514898Y-100402178D01*
X196321303Y-100582164D01*
X196050006Y-100798958D01*
X195688354Y-101063267D01*
X195223692Y-101385802D01*
X194643365Y-101777271D01*
X193934722Y-102248384D01*
X193844333Y-102308215D01*
X193241574Y-102704652D01*
X192676219Y-103071848D01*
X192165389Y-103399033D01*
X191726203Y-103675436D01*
X191375783Y-103890284D01*
X191131250Y-104032807D01*
X191009724Y-104092233D01*
X191008000Y-104092655D01*
X190782093Y-104086251D01*
X190498146Y-104001919D01*
X190446854Y-103979571D01*
X190194288Y-103828841D01*
X190033866Y-103623840D01*
X189953468Y-103442071D01*
X189869974Y-103193291D01*
X189856202Y-103015541D01*
X189910056Y-102826500D01*
X189936167Y-102762250D01*
X189992448Y-102658638D01*
X190086248Y-102544954D01*
X190233718Y-102408869D01*
X190451007Y-102238057D01*
X190754266Y-102020192D01*
X191159644Y-101742946D01*
X191683290Y-101393992D01*
X192017053Y-101173945D01*
X192526884Y-100836683D01*
X192986936Y-100528599D01*
X193379142Y-100262094D01*
X193685438Y-100049569D01*
X193887759Y-99903427D01*
X193968042Y-99836069D01*
X193968663Y-99834158D01*
X193900333Y-99774836D01*
X193708745Y-99634524D01*
X193411851Y-99425688D01*
X193027598Y-99160797D01*
X192573936Y-98852318D01*
X192068815Y-98512719D01*
X192000901Y-98467334D01*
X191412950Y-98073028D01*
X190950880Y-97758257D01*
X190598515Y-97510390D01*
X190339677Y-97316803D01*
X190158192Y-97164866D01*
X190037882Y-97041953D01*
X189962572Y-96935437D01*
X189919751Y-96842761D01*
X189853263Y-96619132D01*
X189856171Y-96573713D01*
X190330666Y-96573713D01*
X190334898Y-96654357D01*
X190357236Y-96731082D01*
X190412145Y-96815233D01*
X190514088Y-96918152D01*
X190677529Y-97051183D01*
X190916933Y-97225669D01*
X191246764Y-97452953D01*
X191681485Y-97744378D01*
X192235561Y-98111287D01*
X192586655Y-98342934D01*
X194842644Y-99830687D01*
X192586655Y-101316852D01*
X191962252Y-101728784D01*
X191465066Y-102059277D01*
X191080626Y-102319624D01*
X190794464Y-102521116D01*
X190592109Y-102675045D01*
X190459093Y-102792702D01*
X190380946Y-102885380D01*
X190343198Y-102964370D01*
X190331380Y-103040963D01*
X190330667Y-103077387D01*
X190395600Y-103355281D01*
X190563029Y-103557075D01*
X190791892Y-103652556D01*
X191041131Y-103611514D01*
X191050333Y-103606919D01*
X191158943Y-103541092D01*
X191391313Y-103393152D01*
X191729995Y-103174444D01*
X192157541Y-102896311D01*
X192656505Y-102570099D01*
X193209439Y-102207151D01*
X193696222Y-101886554D01*
X194397445Y-101422411D01*
X194968229Y-101039278D01*
X195420574Y-100726594D01*
X195766477Y-100473793D01*
X196017936Y-100270313D01*
X196186947Y-100105590D01*
X196285510Y-99969060D01*
X196325621Y-99850160D01*
X196319279Y-99738326D01*
X196278480Y-99622995D01*
X196275236Y-99615815D01*
X196182526Y-99519366D01*
X195966286Y-99345771D01*
X195646237Y-99108186D01*
X195242098Y-98819763D01*
X194773588Y-98493656D01*
X194260427Y-98143017D01*
X193722333Y-97781001D01*
X193179027Y-97420760D01*
X192650227Y-97075448D01*
X192155653Y-96758219D01*
X191715025Y-96482226D01*
X191348062Y-96260621D01*
X191074482Y-96106559D01*
X190914006Y-96033193D01*
X190898827Y-96029600D01*
X190627478Y-96058935D01*
X190429554Y-96223408D01*
X190334768Y-96494563D01*
X190330666Y-96573713D01*
X189856171Y-96573713D01*
X189864638Y-96441522D01*
X189960099Y-96215738D01*
X189961347Y-96213225D01*
X190123577Y-95961419D01*
X190319244Y-95751444D01*
X190352372Y-95725364D01*
X190477966Y-95639767D01*
X190599353Y-95581309D01*
X190731217Y-95556771D01*
X190888241Y-95572932D01*
M02*
