M48
;DRILL file {KiCad 4.0.4-stable} date Saturday, 28 October 2017 'AMt' 09:45:51
;FORMAT={-:-/ absolute / metric / decimal}
FMAT,2
METRIC,TZ
T1C0.400
T2C0.500
T3C0.550
T4C0.950
%
G90
G05
M71
T1
X137.922Y-73.152
X163.322Y-78.232
X179.578Y-83.82
X179.832Y-72.898
X184.15Y-74.168
X185.674Y-80.772
X187.198Y-97.536
X187.96Y-77.216
X188.468Y-98.552
X189.23Y-81.534
X190.754Y-81.026
X191.008Y-75.438
X191.516Y-80.518
X191.516Y-87.376
X192.024Y-89.662
X192.786Y-89.662
X193.04Y-73.152
X193.548Y-89.662
X194.056Y-73.152
X194.564Y-89.662
X195.072Y-73.152
X195.58Y-91.44
X195.58Y-109.982
X195.834Y-72.898
X195.834Y-84.582
X198.374Y-84.836
X198.882Y-109.982
X199.898Y-76.2
X200.152Y-81.534
X201.676Y-87.884
T4
X123.952Y-73.914
X123.952Y-76.454
X123.952Y-78.994
X123.952Y-81.534
X123.952Y-84.074
X129.54Y-73.914
X129.54Y-76.454
X129.54Y-78.994
X129.54Y-81.534
X135.382Y-73.914
X135.382Y-76.454
X135.382Y-78.994
X140.97Y-73.914
X140.97Y-76.454
X146.558Y-73.914
T2
X158.551Y-73.976G85X158.551Y-74.626
G05
X165.551Y-73.976G85X165.551Y-74.626
G05
T3
X159.701Y-77.001G85X159.401Y-77.001
G05
X164.701Y-77.001G85X164.401Y-77.001
G05
T0
M30
