G04 #@! TF.GenerationSoftware,KiCad,Pcbnew,(5.0.1-3-g963ef8bb5)*
G04 #@! TF.CreationDate,2019-02-08T08:33:02+00:00*
G04 #@! TF.ProjectId,invitation,696E7669746174696F6E2E6B69636164,rev?*
G04 #@! TF.SameCoordinates,Original*
G04 #@! TF.FileFunction,Soldermask,Bot*
G04 #@! TF.FilePolarity,Negative*
%FSLAX46Y46*%
G04 Gerber Fmt 4.6, Leading zero omitted, Abs format (unit mm)*
G04 Created by KiCad (PCBNEW (5.0.1-3-g963ef8bb5)) date Friday, 08 February 2019 at 08:33:02*
%MOMM*%
%LPD*%
G01*
G04 APERTURE LIST*
%ADD10C,0.100000*%
G04 APERTURE END LIST*
D10*
G36*
X141962000Y-122008000D02*
X140862000Y-122008000D01*
X140862000Y-120308000D01*
X141962000Y-120308000D01*
X141962000Y-122008000D01*
X141962000Y-122008000D01*
G37*
G36*
X140062000Y-122008000D02*
X138962000Y-122008000D01*
X138962000Y-120308000D01*
X140062000Y-120308000D01*
X140062000Y-122008000D01*
X140062000Y-122008000D01*
G37*
G36*
X152522000Y-121958000D02*
X150922000Y-121958000D01*
X150922000Y-120358000D01*
X152522000Y-120358000D01*
X152522000Y-121958000D01*
X152522000Y-121958000D01*
G37*
G36*
X150322000Y-121958000D02*
X148722000Y-121958000D01*
X148722000Y-120358000D01*
X150322000Y-120358000D01*
X150322000Y-121958000D01*
X150322000Y-121958000D01*
G37*
G36*
X171934000Y-121754000D02*
X170834000Y-121754000D01*
X170834000Y-120054000D01*
X171934000Y-120054000D01*
X171934000Y-121754000D01*
X171934000Y-121754000D01*
G37*
G36*
X170034000Y-121754000D02*
X168934000Y-121754000D01*
X168934000Y-120054000D01*
X170034000Y-120054000D01*
X170034000Y-121754000D01*
X170034000Y-121754000D01*
G37*
G36*
X182748000Y-121704000D02*
X181148000Y-121704000D01*
X181148000Y-120104000D01*
X182748000Y-120104000D01*
X182748000Y-121704000D01*
X182748000Y-121704000D01*
G37*
G36*
X180548000Y-121704000D02*
X178948000Y-121704000D01*
X178948000Y-120104000D01*
X180548000Y-120104000D01*
X180548000Y-121704000D01*
X180548000Y-121704000D01*
G37*
G36*
X131802000Y-110832000D02*
X130702000Y-110832000D01*
X130702000Y-109132000D01*
X131802000Y-109132000D01*
X131802000Y-110832000D01*
X131802000Y-110832000D01*
G37*
G36*
X129902000Y-110832000D02*
X128802000Y-110832000D01*
X128802000Y-109132000D01*
X129902000Y-109132000D01*
X129902000Y-110832000D01*
X129902000Y-110832000D01*
G37*
G36*
X194940000Y-110782000D02*
X193340000Y-110782000D01*
X193340000Y-109182000D01*
X194940000Y-109182000D01*
X194940000Y-110782000D01*
X194940000Y-110782000D01*
G37*
G36*
X192740000Y-110782000D02*
X191140000Y-110782000D01*
X191140000Y-109182000D01*
X192740000Y-109182000D01*
X192740000Y-110782000D01*
X192740000Y-110782000D01*
G37*
G36*
X131802000Y-106006000D02*
X130702000Y-106006000D01*
X130702000Y-104306000D01*
X131802000Y-104306000D01*
X131802000Y-106006000D01*
X131802000Y-106006000D01*
G37*
G36*
X129902000Y-106006000D02*
X128802000Y-106006000D01*
X128802000Y-104306000D01*
X129902000Y-104306000D01*
X129902000Y-106006000D01*
X129902000Y-106006000D01*
G37*
G36*
X192740000Y-105956000D02*
X191140000Y-105956000D01*
X191140000Y-104356000D01*
X192740000Y-104356000D01*
X192740000Y-105956000D01*
X192740000Y-105956000D01*
G37*
G36*
X194940000Y-105956000D02*
X193340000Y-105956000D01*
X193340000Y-104356000D01*
X194940000Y-104356000D01*
X194940000Y-105956000D01*
X194940000Y-105956000D01*
G37*
G36*
X131802000Y-101180000D02*
X130702000Y-101180000D01*
X130702000Y-99480000D01*
X131802000Y-99480000D01*
X131802000Y-101180000D01*
X131802000Y-101180000D01*
G37*
G36*
X129902000Y-101180000D02*
X128802000Y-101180000D01*
X128802000Y-99480000D01*
X129902000Y-99480000D01*
X129902000Y-101180000D01*
X129902000Y-101180000D01*
G37*
G36*
X194940000Y-101130000D02*
X193340000Y-101130000D01*
X193340000Y-99530000D01*
X194940000Y-99530000D01*
X194940000Y-101130000D01*
X194940000Y-101130000D01*
G37*
G36*
X192740000Y-101130000D02*
X191140000Y-101130000D01*
X191140000Y-99530000D01*
X192740000Y-99530000D01*
X192740000Y-101130000D01*
X192740000Y-101130000D01*
G37*
G36*
X195444000Y-94826000D02*
X193494000Y-94826000D01*
X193494000Y-92626000D01*
X195444000Y-92626000D01*
X195444000Y-94826000D01*
X195444000Y-94826000D01*
G37*
G36*
X193094000Y-94826000D02*
X191144000Y-94826000D01*
X191144000Y-92626000D01*
X193094000Y-92626000D01*
X193094000Y-94826000D01*
X193094000Y-94826000D01*
G37*
G36*
X202501000Y-86790000D02*
X200851000Y-86790000D01*
X200851000Y-85390000D01*
X202501000Y-85390000D01*
X202501000Y-86790000D01*
X202501000Y-86790000D01*
G37*
G36*
X204787000Y-86790000D02*
X203137000Y-86790000D01*
X203137000Y-85390000D01*
X204787000Y-85390000D01*
X204787000Y-86790000D01*
X204787000Y-86790000D01*
G37*
G36*
X197007000Y-86660000D02*
X188057000Y-86660000D01*
X188057000Y-84760000D01*
X197007000Y-84760000D01*
X197007000Y-86660000D01*
X197007000Y-86660000D01*
G37*
G36*
X204787000Y-84790000D02*
X203137000Y-84790000D01*
X203137000Y-83390000D01*
X204787000Y-83390000D01*
X204787000Y-84790000D01*
X204787000Y-84790000D01*
G37*
G36*
X202501000Y-84790000D02*
X200851000Y-84790000D01*
X200851000Y-83390000D01*
X202501000Y-83390000D01*
X202501000Y-84790000D01*
X202501000Y-84790000D01*
G37*
G36*
X183564000Y-84645000D02*
X182164000Y-84645000D01*
X182164000Y-82995000D01*
X183564000Y-82995000D01*
X183564000Y-84645000D01*
X183564000Y-84645000D01*
G37*
G36*
X181564000Y-84645000D02*
X180164000Y-84645000D01*
X180164000Y-82995000D01*
X181564000Y-82995000D01*
X181564000Y-84645000D01*
X181564000Y-84645000D01*
G37*
G36*
X187782000Y-84485000D02*
X185882000Y-84485000D01*
X185882000Y-75535000D01*
X187782000Y-75535000D01*
X187782000Y-84485000D01*
X187782000Y-84485000D01*
G37*
G36*
X199182000Y-84485000D02*
X197282000Y-84485000D01*
X197282000Y-75535000D01*
X199182000Y-75535000D01*
X199182000Y-84485000D01*
X199182000Y-84485000D01*
G37*
G36*
X181464000Y-82384000D02*
X180364000Y-82384000D01*
X180364000Y-80684000D01*
X181464000Y-80684000D01*
X181464000Y-82384000D01*
X181464000Y-82384000D01*
G37*
G36*
X183364000Y-82384000D02*
X182264000Y-82384000D01*
X182264000Y-80684000D01*
X183364000Y-80684000D01*
X183364000Y-82384000D01*
X183364000Y-82384000D01*
G37*
G36*
X125253497Y-80385997D02*
X125306153Y-80401970D01*
X125354665Y-80427900D01*
X125397196Y-80462804D01*
X125432100Y-80505335D01*
X125458030Y-80553847D01*
X125474003Y-80606503D01*
X125480000Y-80667390D01*
X125480000Y-81892610D01*
X125474003Y-81953497D01*
X125458030Y-82006153D01*
X125432100Y-82054665D01*
X125397196Y-82097196D01*
X125354665Y-82132100D01*
X125306153Y-82158030D01*
X125253497Y-82174003D01*
X125192610Y-82180000D01*
X124392390Y-82180000D01*
X124331503Y-82174003D01*
X124278847Y-82158030D01*
X124230335Y-82132100D01*
X124187804Y-82097196D01*
X124152900Y-82054665D01*
X124126970Y-82006153D01*
X124110997Y-81953497D01*
X124105000Y-81892610D01*
X124105000Y-80667390D01*
X124110997Y-80606503D01*
X124126970Y-80553847D01*
X124152900Y-80505335D01*
X124187804Y-80462804D01*
X124230335Y-80427900D01*
X124278847Y-80401970D01*
X124331503Y-80385997D01*
X124392390Y-80380000D01*
X125192610Y-80380000D01*
X125253497Y-80385997D01*
X125253497Y-80385997D01*
G37*
G36*
X127128497Y-80385997D02*
X127181153Y-80401970D01*
X127229665Y-80427900D01*
X127272196Y-80462804D01*
X127307100Y-80505335D01*
X127333030Y-80553847D01*
X127349003Y-80606503D01*
X127355000Y-80667390D01*
X127355000Y-81892610D01*
X127349003Y-81953497D01*
X127333030Y-82006153D01*
X127307100Y-82054665D01*
X127272196Y-82097196D01*
X127229665Y-82132100D01*
X127181153Y-82158030D01*
X127128497Y-82174003D01*
X127067610Y-82180000D01*
X126267390Y-82180000D01*
X126206503Y-82174003D01*
X126153847Y-82158030D01*
X126105335Y-82132100D01*
X126062804Y-82097196D01*
X126027900Y-82054665D01*
X126001970Y-82006153D01*
X125985997Y-81953497D01*
X125980000Y-81892610D01*
X125980000Y-80667390D01*
X125985997Y-80606503D01*
X126001970Y-80553847D01*
X126027900Y-80505335D01*
X126062804Y-80462804D01*
X126105335Y-80427900D01*
X126153847Y-80401970D01*
X126206503Y-80385997D01*
X126267390Y-80380000D01*
X127067610Y-80380000D01*
X127128497Y-80385997D01*
X127128497Y-80385997D01*
G37*
G36*
X204546000Y-81756000D02*
X201346000Y-81756000D01*
X201346000Y-79956000D01*
X204546000Y-79956000D01*
X204546000Y-81756000D01*
X204546000Y-81756000D01*
G37*
G36*
X134826997Y-78861997D02*
X134879653Y-78877970D01*
X134928165Y-78903900D01*
X134970696Y-78938804D01*
X135005600Y-78981335D01*
X135031530Y-79029847D01*
X135047503Y-79082503D01*
X135053500Y-79143390D01*
X135053500Y-80368610D01*
X135047503Y-80429497D01*
X135031530Y-80482153D01*
X135005600Y-80530665D01*
X134970696Y-80573196D01*
X134928165Y-80608100D01*
X134879653Y-80634030D01*
X134826997Y-80650003D01*
X134766110Y-80656000D01*
X133965890Y-80656000D01*
X133905003Y-80650003D01*
X133852347Y-80634030D01*
X133803835Y-80608100D01*
X133761304Y-80573196D01*
X133726400Y-80530665D01*
X133700470Y-80482153D01*
X133684497Y-80429497D01*
X133678500Y-80368610D01*
X133678500Y-79143390D01*
X133684497Y-79082503D01*
X133700470Y-79029847D01*
X133726400Y-78981335D01*
X133761304Y-78938804D01*
X133803835Y-78903900D01*
X133852347Y-78877970D01*
X133905003Y-78861997D01*
X133965890Y-78856000D01*
X134766110Y-78856000D01*
X134826997Y-78861997D01*
X134826997Y-78861997D01*
G37*
G36*
X132951997Y-78861997D02*
X133004653Y-78877970D01*
X133053165Y-78903900D01*
X133095696Y-78938804D01*
X133130600Y-78981335D01*
X133156530Y-79029847D01*
X133172503Y-79082503D01*
X133178500Y-79143390D01*
X133178500Y-80368610D01*
X133172503Y-80429497D01*
X133156530Y-80482153D01*
X133130600Y-80530665D01*
X133095696Y-80573196D01*
X133053165Y-80608100D01*
X133004653Y-80634030D01*
X132951997Y-80650003D01*
X132891110Y-80656000D01*
X132090890Y-80656000D01*
X132030003Y-80650003D01*
X131977347Y-80634030D01*
X131928835Y-80608100D01*
X131886304Y-80573196D01*
X131851400Y-80530665D01*
X131825470Y-80482153D01*
X131809497Y-80429497D01*
X131803500Y-80368610D01*
X131803500Y-79143390D01*
X131809497Y-79082503D01*
X131825470Y-79029847D01*
X131851400Y-78981335D01*
X131886304Y-78938804D01*
X131928835Y-78903900D01*
X131977347Y-78877970D01*
X132030003Y-78861997D01*
X132090890Y-78856000D01*
X132891110Y-78856000D01*
X132951997Y-78861997D01*
X132951997Y-78861997D01*
G37*
G36*
X142424000Y-75368000D02*
X141753123Y-75368000D01*
X141728737Y-75370402D01*
X141705288Y-75377515D01*
X141683677Y-75389066D01*
X141664735Y-75404612D01*
X141649189Y-75423554D01*
X141637638Y-75445165D01*
X141630525Y-75468614D01*
X141628123Y-75493000D01*
X141630525Y-75517386D01*
X141637638Y-75540835D01*
X141649189Y-75562446D01*
X141664735Y-75581388D01*
X141683677Y-75596934D01*
X141705288Y-75608485D01*
X141792412Y-75644573D01*
X141988958Y-75775901D01*
X142156099Y-75943042D01*
X142287427Y-76139588D01*
X142377885Y-76357974D01*
X142424000Y-76589809D01*
X142424000Y-76826191D01*
X142377885Y-77058026D01*
X142287427Y-77276412D01*
X142156099Y-77472958D01*
X141988958Y-77640099D01*
X141792412Y-77771427D01*
X141572505Y-77862515D01*
X141550894Y-77874066D01*
X141531952Y-77889611D01*
X141516406Y-77908554D01*
X141504855Y-77930164D01*
X141497742Y-77953613D01*
X141495340Y-77978000D01*
X141497742Y-78002386D01*
X141504855Y-78025835D01*
X141516406Y-78047446D01*
X141531951Y-78066388D01*
X141550894Y-78081934D01*
X141572505Y-78093485D01*
X141792412Y-78184573D01*
X141988958Y-78315901D01*
X142156099Y-78483042D01*
X142287427Y-78679588D01*
X142377885Y-78897974D01*
X142424000Y-79129809D01*
X142424000Y-79366191D01*
X142377885Y-79598026D01*
X142287427Y-79816412D01*
X142156099Y-80012958D01*
X141988958Y-80180099D01*
X141792412Y-80311427D01*
X141574026Y-80401885D01*
X141342191Y-80448000D01*
X141105809Y-80448000D01*
X140873974Y-80401885D01*
X140655588Y-80311427D01*
X140459042Y-80180099D01*
X140291901Y-80012958D01*
X140160573Y-79816412D01*
X140070115Y-79598026D01*
X140024000Y-79366191D01*
X140024000Y-79129809D01*
X140070115Y-78897974D01*
X140160573Y-78679588D01*
X140291901Y-78483042D01*
X140459042Y-78315901D01*
X140655588Y-78184573D01*
X140875495Y-78093485D01*
X140897106Y-78081934D01*
X140916048Y-78066389D01*
X140931594Y-78047446D01*
X140943145Y-78025836D01*
X140950258Y-78002387D01*
X140952660Y-77978000D01*
X140950258Y-77953614D01*
X140943145Y-77930165D01*
X140931594Y-77908554D01*
X140916049Y-77889612D01*
X140897106Y-77874066D01*
X140875495Y-77862515D01*
X140655588Y-77771427D01*
X140459042Y-77640099D01*
X140291901Y-77472958D01*
X140160573Y-77276412D01*
X140070115Y-77058026D01*
X140024000Y-76826191D01*
X140024000Y-76589809D01*
X140070115Y-76357974D01*
X140160573Y-76139588D01*
X140291901Y-75943042D01*
X140459042Y-75775901D01*
X140655588Y-75644573D01*
X140742712Y-75608485D01*
X140764323Y-75596934D01*
X140783265Y-75581388D01*
X140798811Y-75562446D01*
X140810362Y-75540835D01*
X140817475Y-75517386D01*
X140819877Y-75493000D01*
X140817475Y-75468614D01*
X140810362Y-75445165D01*
X140798811Y-75423554D01*
X140783265Y-75404612D01*
X140764323Y-75389066D01*
X140742712Y-75377515D01*
X140719263Y-75370402D01*
X140694877Y-75368000D01*
X140024000Y-75368000D01*
X140024000Y-72968000D01*
X142424000Y-72968000D01*
X142424000Y-75368000D01*
X142424000Y-75368000D01*
G37*
G36*
X181464000Y-79844000D02*
X180364000Y-79844000D01*
X180364000Y-78144000D01*
X181464000Y-78144000D01*
X181464000Y-79844000D01*
X181464000Y-79844000D01*
G37*
G36*
X183364000Y-79844000D02*
X182264000Y-79844000D01*
X182264000Y-78144000D01*
X183364000Y-78144000D01*
X183364000Y-79844000D01*
X183364000Y-79844000D01*
G37*
G36*
X127206997Y-77845997D02*
X127259653Y-77861970D01*
X127308165Y-77887900D01*
X127350696Y-77922804D01*
X127385600Y-77965335D01*
X127411530Y-78013847D01*
X127427503Y-78066503D01*
X127433500Y-78127390D01*
X127433500Y-79352610D01*
X127427503Y-79413497D01*
X127411530Y-79466153D01*
X127385600Y-79514665D01*
X127350696Y-79557196D01*
X127308165Y-79592100D01*
X127259653Y-79618030D01*
X127206997Y-79634003D01*
X127146110Y-79640000D01*
X126345890Y-79640000D01*
X126285003Y-79634003D01*
X126232347Y-79618030D01*
X126183835Y-79592100D01*
X126141304Y-79557196D01*
X126106400Y-79514665D01*
X126080470Y-79466153D01*
X126064497Y-79413497D01*
X126058500Y-79352610D01*
X126058500Y-78127390D01*
X126064497Y-78066503D01*
X126080470Y-78013847D01*
X126106400Y-77965335D01*
X126141304Y-77922804D01*
X126183835Y-77887900D01*
X126232347Y-77861970D01*
X126285003Y-77845997D01*
X126345890Y-77840000D01*
X127146110Y-77840000D01*
X127206997Y-77845997D01*
X127206997Y-77845997D01*
G37*
G36*
X125331997Y-77845997D02*
X125384653Y-77861970D01*
X125433165Y-77887900D01*
X125475696Y-77922804D01*
X125510600Y-77965335D01*
X125536530Y-78013847D01*
X125552503Y-78066503D01*
X125558500Y-78127390D01*
X125558500Y-79352610D01*
X125552503Y-79413497D01*
X125536530Y-79466153D01*
X125510600Y-79514665D01*
X125475696Y-79557196D01*
X125433165Y-79592100D01*
X125384653Y-79618030D01*
X125331997Y-79634003D01*
X125271110Y-79640000D01*
X124470890Y-79640000D01*
X124410003Y-79634003D01*
X124357347Y-79618030D01*
X124308835Y-79592100D01*
X124266304Y-79557196D01*
X124231400Y-79514665D01*
X124205470Y-79466153D01*
X124189497Y-79413497D01*
X124183500Y-79352610D01*
X124183500Y-78127390D01*
X124189497Y-78066503D01*
X124205470Y-78013847D01*
X124231400Y-77965335D01*
X124266304Y-77922804D01*
X124308835Y-77887900D01*
X124357347Y-77861970D01*
X124410003Y-77845997D01*
X124470890Y-77840000D01*
X125271110Y-77840000D01*
X125331997Y-77845997D01*
X125331997Y-77845997D01*
G37*
G36*
X204546000Y-79556000D02*
X201346000Y-79556000D01*
X201346000Y-77756000D01*
X204546000Y-77756000D01*
X204546000Y-79556000D01*
X204546000Y-79556000D01*
G37*
G36*
X133912000Y-78062000D02*
X131962000Y-78062000D01*
X131962000Y-75862000D01*
X133912000Y-75862000D01*
X133912000Y-78062000D01*
X133912000Y-78062000D01*
G37*
G36*
X136262000Y-78062000D02*
X134312000Y-78062000D01*
X134312000Y-75862000D01*
X136262000Y-75862000D01*
X136262000Y-78062000D01*
X136262000Y-78062000D01*
G37*
G36*
X149028000Y-75368000D02*
X148357123Y-75368000D01*
X148332737Y-75370402D01*
X148309288Y-75377515D01*
X148287677Y-75389066D01*
X148268735Y-75404612D01*
X148253189Y-75423554D01*
X148241638Y-75445165D01*
X148234525Y-75468614D01*
X148232123Y-75493000D01*
X148234525Y-75517386D01*
X148241638Y-75540835D01*
X148253189Y-75562446D01*
X148268735Y-75581388D01*
X148287677Y-75596934D01*
X148309288Y-75608485D01*
X148396412Y-75644573D01*
X148592958Y-75775901D01*
X148760099Y-75943042D01*
X148891427Y-76139588D01*
X148981885Y-76357974D01*
X149028000Y-76589809D01*
X149028000Y-76826191D01*
X148981885Y-77058026D01*
X148891427Y-77276412D01*
X148760099Y-77472958D01*
X148592958Y-77640099D01*
X148396412Y-77771427D01*
X148178026Y-77861885D01*
X147946191Y-77908000D01*
X147709809Y-77908000D01*
X147477974Y-77861885D01*
X147259588Y-77771427D01*
X147063042Y-77640099D01*
X146895901Y-77472958D01*
X146764573Y-77276412D01*
X146674115Y-77058026D01*
X146628000Y-76826191D01*
X146628000Y-76589809D01*
X146674115Y-76357974D01*
X146764573Y-76139588D01*
X146895901Y-75943042D01*
X147063042Y-75775901D01*
X147259588Y-75644573D01*
X147346712Y-75608485D01*
X147368323Y-75596934D01*
X147387265Y-75581388D01*
X147402811Y-75562446D01*
X147414362Y-75540835D01*
X147421475Y-75517386D01*
X147423877Y-75493000D01*
X147421475Y-75468614D01*
X147414362Y-75445165D01*
X147402811Y-75423554D01*
X147387265Y-75404612D01*
X147368323Y-75389066D01*
X147346712Y-75377515D01*
X147323263Y-75370402D01*
X147298877Y-75368000D01*
X146628000Y-75368000D01*
X146628000Y-72968000D01*
X149028000Y-72968000D01*
X149028000Y-75368000D01*
X149028000Y-75368000D01*
G37*
G36*
X164005100Y-76203965D02*
X164007502Y-76228351D01*
X164014615Y-76251800D01*
X164026166Y-76273411D01*
X164041712Y-76292353D01*
X164060654Y-76307899D01*
X164082265Y-76319450D01*
X164105714Y-76326563D01*
X164130100Y-76328965D01*
X164154486Y-76326563D01*
X164189025Y-76314205D01*
X164337857Y-76234653D01*
X164337859Y-76234652D01*
X164493372Y-76187478D01*
X164493373Y-76187478D01*
X164493376Y-76187477D01*
X164614575Y-76175540D01*
X164995625Y-76175540D01*
X165116824Y-76187477D01*
X165116827Y-76187478D01*
X165116828Y-76187478D01*
X165272341Y-76234652D01*
X165415663Y-76311259D01*
X165541285Y-76414355D01*
X165644381Y-76539977D01*
X165644382Y-76539979D01*
X165720987Y-76683297D01*
X165768163Y-76838816D01*
X165784091Y-77000540D01*
X165768163Y-77162264D01*
X165768162Y-77162267D01*
X165768162Y-77162268D01*
X165720988Y-77317781D01*
X165644381Y-77461103D01*
X165541285Y-77586725D01*
X165415663Y-77689821D01*
X165380292Y-77708727D01*
X165291851Y-77756000D01*
X165272341Y-77766428D01*
X165116828Y-77813602D01*
X165116827Y-77813602D01*
X165116824Y-77813603D01*
X164995625Y-77825540D01*
X164614575Y-77825540D01*
X164493376Y-77813603D01*
X164493373Y-77813602D01*
X164493372Y-77813602D01*
X164337859Y-77766428D01*
X164327386Y-77760830D01*
X164189025Y-77686875D01*
X164166385Y-77677497D01*
X164142352Y-77672717D01*
X164117848Y-77672717D01*
X164093814Y-77677497D01*
X164071175Y-77686875D01*
X164050801Y-77700489D01*
X164033474Y-77717816D01*
X164019860Y-77738190D01*
X164010482Y-77760830D01*
X164005100Y-77797115D01*
X164005100Y-77875540D01*
X160605100Y-77875540D01*
X160605100Y-77797115D01*
X160602698Y-77772729D01*
X160595585Y-77749280D01*
X160584034Y-77727669D01*
X160568488Y-77708727D01*
X160549546Y-77693181D01*
X160527935Y-77681630D01*
X160504486Y-77674517D01*
X160480100Y-77672115D01*
X160455714Y-77674517D01*
X160421175Y-77686875D01*
X160282814Y-77760830D01*
X160272341Y-77766428D01*
X160116828Y-77813602D01*
X160116827Y-77813602D01*
X160116824Y-77813603D01*
X159995625Y-77825540D01*
X159614575Y-77825540D01*
X159493376Y-77813603D01*
X159493373Y-77813602D01*
X159493372Y-77813602D01*
X159337859Y-77766428D01*
X159318350Y-77756000D01*
X159229908Y-77708727D01*
X159194537Y-77689821D01*
X159068915Y-77586725D01*
X158965819Y-77461103D01*
X158889212Y-77317781D01*
X158842038Y-77162268D01*
X158842038Y-77162267D01*
X158842037Y-77162264D01*
X158826109Y-77000540D01*
X158842037Y-76838816D01*
X158889213Y-76683297D01*
X158965818Y-76539979D01*
X158965819Y-76539977D01*
X159068915Y-76414355D01*
X159194537Y-76311259D01*
X159337859Y-76234652D01*
X159493372Y-76187478D01*
X159493373Y-76187478D01*
X159493376Y-76187477D01*
X159614575Y-76175540D01*
X159995625Y-76175540D01*
X160116824Y-76187477D01*
X160116827Y-76187478D01*
X160116828Y-76187478D01*
X160272341Y-76234652D01*
X160272343Y-76234653D01*
X160421175Y-76314205D01*
X160443815Y-76323583D01*
X160467848Y-76328363D01*
X160492352Y-76328363D01*
X160516386Y-76323583D01*
X160539025Y-76314205D01*
X160559399Y-76300591D01*
X160576726Y-76283264D01*
X160590340Y-76262890D01*
X160599718Y-76240250D01*
X160605100Y-76203965D01*
X160605100Y-76125540D01*
X164005100Y-76125540D01*
X164005100Y-76203965D01*
X164005100Y-76203965D01*
G37*
G36*
X127206997Y-75305997D02*
X127259653Y-75321970D01*
X127308165Y-75347900D01*
X127350696Y-75382804D01*
X127385600Y-75425335D01*
X127411530Y-75473847D01*
X127427503Y-75526503D01*
X127433500Y-75587390D01*
X127433500Y-76812610D01*
X127427503Y-76873497D01*
X127411530Y-76926153D01*
X127385600Y-76974665D01*
X127350696Y-77017196D01*
X127308165Y-77052100D01*
X127259653Y-77078030D01*
X127206997Y-77094003D01*
X127146110Y-77100000D01*
X126345890Y-77100000D01*
X126285003Y-77094003D01*
X126232347Y-77078030D01*
X126183835Y-77052100D01*
X126141304Y-77017196D01*
X126106400Y-76974665D01*
X126080470Y-76926153D01*
X126064497Y-76873497D01*
X126058500Y-76812610D01*
X126058500Y-75587390D01*
X126064497Y-75526503D01*
X126080470Y-75473847D01*
X126106400Y-75425335D01*
X126141304Y-75382804D01*
X126183835Y-75347900D01*
X126232347Y-75321970D01*
X126285003Y-75305997D01*
X126345890Y-75300000D01*
X127146110Y-75300000D01*
X127206997Y-75305997D01*
X127206997Y-75305997D01*
G37*
G36*
X125331997Y-75305997D02*
X125384653Y-75321970D01*
X125433165Y-75347900D01*
X125475696Y-75382804D01*
X125510600Y-75425335D01*
X125536530Y-75473847D01*
X125552503Y-75526503D01*
X125558500Y-75587390D01*
X125558500Y-76812610D01*
X125552503Y-76873497D01*
X125536530Y-76926153D01*
X125510600Y-76974665D01*
X125475696Y-77017196D01*
X125433165Y-77052100D01*
X125384653Y-77078030D01*
X125331997Y-77094003D01*
X125271110Y-77100000D01*
X124470890Y-77100000D01*
X124410003Y-77094003D01*
X124357347Y-77078030D01*
X124308835Y-77052100D01*
X124266304Y-77017196D01*
X124231400Y-76974665D01*
X124205470Y-76926153D01*
X124189497Y-76873497D01*
X124183500Y-76812610D01*
X124183500Y-75587390D01*
X124189497Y-75526503D01*
X124205470Y-75473847D01*
X124231400Y-75425335D01*
X124266304Y-75382804D01*
X124308835Y-75347900D01*
X124357347Y-75321970D01*
X124410003Y-75305997D01*
X124470890Y-75300000D01*
X125271110Y-75300000D01*
X125331997Y-75305997D01*
X125331997Y-75305997D01*
G37*
G36*
X183364000Y-77050000D02*
X182264000Y-77050000D01*
X182264000Y-75350000D01*
X183364000Y-75350000D01*
X183364000Y-77050000D01*
X183364000Y-77050000D01*
G37*
G36*
X181464000Y-77050000D02*
X180364000Y-77050000D01*
X180364000Y-75350000D01*
X181464000Y-75350000D01*
X181464000Y-77050000D01*
X181464000Y-77050000D01*
G37*
G36*
X177668000Y-77000000D02*
X176068000Y-77000000D01*
X176068000Y-75400000D01*
X177668000Y-75400000D01*
X177668000Y-77000000D01*
X177668000Y-77000000D01*
G37*
G36*
X175468000Y-77000000D02*
X173868000Y-77000000D01*
X173868000Y-75400000D01*
X175468000Y-75400000D01*
X175468000Y-77000000D01*
X175468000Y-77000000D01*
G37*
G36*
X204700000Y-76034000D02*
X203600000Y-76034000D01*
X203600000Y-74334000D01*
X204700000Y-74334000D01*
X204700000Y-76034000D01*
X204700000Y-76034000D01*
G37*
G36*
X202800000Y-76034000D02*
X201700000Y-76034000D01*
X201700000Y-74334000D01*
X202800000Y-74334000D01*
X202800000Y-76034000D01*
X202800000Y-76034000D01*
G37*
G36*
X158971730Y-73187839D02*
X159131955Y-73236443D01*
X159279620Y-73315371D01*
X159409049Y-73421591D01*
X159515269Y-73551020D01*
X159565807Y-73645572D01*
X159594197Y-73698685D01*
X159642800Y-73858911D01*
X159642800Y-73858914D01*
X159642801Y-73858916D01*
X159655100Y-73983789D01*
X159655100Y-74617292D01*
X159642801Y-74742170D01*
X159594197Y-74902395D01*
X159515269Y-75050060D01*
X159409049Y-75179489D01*
X159279624Y-75285706D01*
X159217722Y-75318793D01*
X159131954Y-75364637D01*
X159089500Y-75377515D01*
X158971729Y-75413241D01*
X158805100Y-75429652D01*
X158638470Y-75413241D01*
X158478245Y-75364637D01*
X158330580Y-75285709D01*
X158201151Y-75179489D01*
X158094934Y-75050064D01*
X158061847Y-74988162D01*
X158016003Y-74902394D01*
X158002204Y-74856903D01*
X157967399Y-74742169D01*
X157955100Y-74617291D01*
X157955100Y-73983788D01*
X157967399Y-73858910D01*
X157996020Y-73764563D01*
X158016003Y-73698685D01*
X158073349Y-73591400D01*
X158094934Y-73551018D01*
X158201152Y-73421591D01*
X158330581Y-73315371D01*
X158478246Y-73236443D01*
X158638471Y-73187839D01*
X158805100Y-73171428D01*
X158971730Y-73187839D01*
X158971730Y-73187839D01*
G37*
G36*
X165971730Y-73187839D02*
X166131955Y-73236443D01*
X166279620Y-73315371D01*
X166409049Y-73421591D01*
X166515269Y-73551020D01*
X166565807Y-73645572D01*
X166594197Y-73698685D01*
X166642800Y-73858911D01*
X166642800Y-73858914D01*
X166642801Y-73858916D01*
X166655100Y-73983789D01*
X166655100Y-74617292D01*
X166642801Y-74742170D01*
X166594197Y-74902395D01*
X166515269Y-75050060D01*
X166409049Y-75179489D01*
X166279624Y-75285706D01*
X166217722Y-75318793D01*
X166131954Y-75364637D01*
X166089500Y-75377515D01*
X165971729Y-75413241D01*
X165805100Y-75429652D01*
X165638470Y-75413241D01*
X165478245Y-75364637D01*
X165330580Y-75285709D01*
X165201151Y-75179489D01*
X165094934Y-75050064D01*
X165061847Y-74988162D01*
X165016003Y-74902394D01*
X165002204Y-74856903D01*
X164967399Y-74742169D01*
X164955100Y-74617291D01*
X164955100Y-73983788D01*
X164967399Y-73858910D01*
X164996020Y-73764563D01*
X165016003Y-73698685D01*
X165073349Y-73591400D01*
X165094934Y-73551018D01*
X165201152Y-73421591D01*
X165330581Y-73315371D01*
X165478246Y-73236443D01*
X165638471Y-73187839D01*
X165805100Y-73171428D01*
X165971730Y-73187839D01*
X165971730Y-73187839D01*
G37*
G36*
X197007000Y-75260000D02*
X188057000Y-75260000D01*
X188057000Y-73360000D01*
X197007000Y-73360000D01*
X197007000Y-75260000D01*
X197007000Y-75260000D01*
G37*
G36*
X169426000Y-75129000D02*
X167886000Y-75129000D01*
X167886000Y-72699000D01*
X169426000Y-72699000D01*
X169426000Y-75129000D01*
X169426000Y-75129000D01*
G37*
G36*
X171826000Y-75129000D02*
X170286000Y-75129000D01*
X170286000Y-72699000D01*
X171826000Y-72699000D01*
X171826000Y-75129000D01*
X171826000Y-75129000D01*
G37*
G36*
X155378000Y-75114000D02*
X152978000Y-75114000D01*
X152978000Y-72714000D01*
X155378000Y-72714000D01*
X155378000Y-75114000D01*
X155378000Y-75114000D01*
G37*
G36*
X136167000Y-75014000D02*
X134217000Y-75014000D01*
X134217000Y-72814000D01*
X136167000Y-72814000D01*
X136167000Y-75014000D01*
X136167000Y-75014000D01*
G37*
G36*
X133817000Y-75014000D02*
X131867000Y-75014000D01*
X131867000Y-72814000D01*
X133817000Y-72814000D01*
X133817000Y-75014000D01*
X133817000Y-75014000D01*
G37*
G36*
X127128497Y-72765997D02*
X127181153Y-72781970D01*
X127229665Y-72807900D01*
X127272196Y-72842804D01*
X127307100Y-72885335D01*
X127333030Y-72933847D01*
X127349003Y-72986503D01*
X127355000Y-73047390D01*
X127355000Y-74272610D01*
X127349003Y-74333497D01*
X127333030Y-74386153D01*
X127307100Y-74434665D01*
X127272196Y-74477196D01*
X127229665Y-74512100D01*
X127181153Y-74538030D01*
X127128497Y-74554003D01*
X127067610Y-74560000D01*
X126267390Y-74560000D01*
X126206503Y-74554003D01*
X126153847Y-74538030D01*
X126105335Y-74512100D01*
X126062804Y-74477196D01*
X126027900Y-74434665D01*
X126001970Y-74386153D01*
X125985997Y-74333497D01*
X125980000Y-74272610D01*
X125980000Y-73047390D01*
X125985997Y-72986503D01*
X126001970Y-72933847D01*
X126027900Y-72885335D01*
X126062804Y-72842804D01*
X126105335Y-72807900D01*
X126153847Y-72781970D01*
X126206503Y-72765997D01*
X126267390Y-72760000D01*
X127067610Y-72760000D01*
X127128497Y-72765997D01*
X127128497Y-72765997D01*
G37*
G36*
X125253497Y-72765997D02*
X125306153Y-72781970D01*
X125354665Y-72807900D01*
X125397196Y-72842804D01*
X125432100Y-72885335D01*
X125458030Y-72933847D01*
X125474003Y-72986503D01*
X125480000Y-73047390D01*
X125480000Y-74272610D01*
X125474003Y-74333497D01*
X125458030Y-74386153D01*
X125432100Y-74434665D01*
X125397196Y-74477196D01*
X125354665Y-74512100D01*
X125306153Y-74538030D01*
X125253497Y-74554003D01*
X125192610Y-74560000D01*
X124392390Y-74560000D01*
X124331503Y-74554003D01*
X124278847Y-74538030D01*
X124230335Y-74512100D01*
X124187804Y-74477196D01*
X124152900Y-74434665D01*
X124126970Y-74386153D01*
X124110997Y-74333497D01*
X124105000Y-74272610D01*
X124105000Y-73047390D01*
X124110997Y-72986503D01*
X124126970Y-72933847D01*
X124152900Y-72885335D01*
X124187804Y-72842804D01*
X124230335Y-72807900D01*
X124278847Y-72781970D01*
X124331503Y-72765997D01*
X124392390Y-72760000D01*
X125192610Y-72760000D01*
X125253497Y-72765997D01*
X125253497Y-72765997D01*
G37*
G36*
X183364000Y-74510000D02*
X182264000Y-74510000D01*
X182264000Y-72810000D01*
X183364000Y-72810000D01*
X183364000Y-74510000D01*
X183364000Y-74510000D01*
G37*
G36*
X181464000Y-74510000D02*
X180364000Y-74510000D01*
X180364000Y-72810000D01*
X181464000Y-72810000D01*
X181464000Y-74510000D01*
X181464000Y-74510000D01*
G37*
G36*
X177668000Y-74460000D02*
X176068000Y-74460000D01*
X176068000Y-72860000D01*
X177668000Y-72860000D01*
X177668000Y-74460000D01*
X177668000Y-74460000D01*
G37*
G36*
X175468000Y-74460000D02*
X173868000Y-74460000D01*
X173868000Y-72860000D01*
X175468000Y-72860000D01*
X175468000Y-74460000D01*
X175468000Y-74460000D01*
G37*
M02*
