G04 #@! TF.GenerationSoftware,KiCad,Pcbnew,(5.0.1-3-g963ef8bb5)*
G04 #@! TF.CreationDate,2019-02-08T08:33:02+00:00*
G04 #@! TF.ProjectId,invitation,696E7669746174696F6E2E6B69636164,rev?*
G04 #@! TF.SameCoordinates,Original*
G04 #@! TF.FileFunction,Legend,Top*
G04 #@! TF.FilePolarity,Positive*
%FSLAX46Y46*%
G04 Gerber Fmt 4.6, Leading zero omitted, Abs format (unit mm)*
G04 Created by KiCad (PCBNEW (5.0.1-3-g963ef8bb5)) date Friday, 08 February 2019 at 08:33:02*
%MOMM*%
%LPD*%
G01*
G04 APERTURE LIST*
%ADD10C,0.010000*%
G04 APERTURE END LIST*
D10*
G04 #@! TO.C,G\002A\002A\002A*
G36*
X162437000Y-73215082D02*
X162980605Y-73222205D01*
X163400328Y-73240313D01*
X163741503Y-73274162D01*
X164049466Y-73328506D01*
X164369552Y-73408101D01*
X164425513Y-73423664D01*
X165144027Y-73625666D01*
X165117372Y-74261971D01*
X165110335Y-74610067D01*
X165130521Y-74840150D01*
X165186601Y-75002520D01*
X165265352Y-75120290D01*
X165519182Y-75335011D01*
X165800358Y-75406110D01*
X166076121Y-75348273D01*
X166313711Y-75176185D01*
X166480368Y-74904529D01*
X166543333Y-74547992D01*
X166543333Y-74337198D01*
X166945500Y-74610917D01*
X167325239Y-74905990D01*
X167754249Y-75297843D01*
X168188819Y-75741737D01*
X168585234Y-76192933D01*
X168899782Y-76606693D01*
X168909491Y-76621013D01*
X169445903Y-77551692D01*
X169867455Y-78570662D01*
X170024855Y-79086709D01*
X170150061Y-79725788D01*
X170219037Y-80466013D01*
X170231785Y-81248808D01*
X170188304Y-82015594D01*
X170088593Y-82707794D01*
X170024855Y-82981290D01*
X169645087Y-84078866D01*
X169125244Y-85092712D01*
X168476367Y-86011798D01*
X167709499Y-86825096D01*
X166835679Y-87521578D01*
X165865950Y-88090217D01*
X164811353Y-88519983D01*
X164341957Y-88657413D01*
X163933423Y-88739815D01*
X163424346Y-88807336D01*
X162865846Y-88856656D01*
X162309041Y-88884455D01*
X161805051Y-88887413D01*
X161404994Y-88862211D01*
X161336333Y-88852611D01*
X160186404Y-88587156D01*
X159111272Y-88176009D01*
X158121437Y-87628550D01*
X157227394Y-86954156D01*
X156439641Y-86162205D01*
X155768675Y-85262077D01*
X155224995Y-84263149D01*
X154819096Y-83174799D01*
X154764478Y-82981290D01*
X154681314Y-82640809D01*
X154625090Y-82316570D01*
X154591062Y-81960926D01*
X154574484Y-81526233D01*
X154570564Y-81034000D01*
X154570564Y-81033999D01*
X156298666Y-81033999D01*
X156311168Y-81653629D01*
X156356941Y-82160782D01*
X156448386Y-82611024D01*
X156597903Y-83059921D01*
X156817895Y-83563037D01*
X156902254Y-83738523D01*
X157117318Y-84160454D01*
X157314852Y-84491404D01*
X157534126Y-84785872D01*
X157814411Y-85098358D01*
X158069801Y-85358864D01*
X158427501Y-85705541D01*
X158728920Y-85963686D01*
X159028746Y-86172676D01*
X159381664Y-86371889D01*
X159695685Y-86529588D01*
X160089979Y-86712641D01*
X160469203Y-86872055D01*
X160785151Y-86988468D01*
X160960875Y-87037804D01*
X161282021Y-87078789D01*
X161720248Y-87105409D01*
X162223906Y-87117550D01*
X162741344Y-87115101D01*
X163220911Y-87097949D01*
X163610958Y-87065981D01*
X163758943Y-87043903D01*
X164025349Y-86970049D01*
X164388465Y-86837801D01*
X164795175Y-86667669D01*
X165099190Y-86526411D01*
X165521120Y-86311348D01*
X165852070Y-86113814D01*
X166146539Y-85894540D01*
X166459025Y-85614255D01*
X166719531Y-85358864D01*
X167066387Y-85000954D01*
X167324563Y-84699462D01*
X167533329Y-84399889D01*
X167731954Y-84047736D01*
X167887078Y-83738523D01*
X168131410Y-83207346D01*
X168301428Y-82747597D01*
X168409532Y-82303711D01*
X168468124Y-81820123D01*
X168489604Y-81241267D01*
X168490666Y-81034000D01*
X168478164Y-80414370D01*
X168432392Y-79907217D01*
X168340947Y-79456975D01*
X168191429Y-79008078D01*
X167971437Y-78504962D01*
X167887078Y-78329476D01*
X167672015Y-77907545D01*
X167474481Y-77576595D01*
X167255206Y-77282127D01*
X166974921Y-76969641D01*
X166719531Y-76709135D01*
X166361621Y-76362279D01*
X166060129Y-76104103D01*
X165760556Y-75895337D01*
X165408402Y-75696712D01*
X165099190Y-75541588D01*
X164568012Y-75297256D01*
X164108264Y-75127238D01*
X163664378Y-75019134D01*
X163180790Y-74960542D01*
X162601933Y-74939062D01*
X162394666Y-74937999D01*
X161775036Y-74950501D01*
X161267883Y-74996274D01*
X160817642Y-75087719D01*
X160368745Y-75237237D01*
X159865628Y-75457228D01*
X159690143Y-75541588D01*
X159268212Y-75756651D01*
X158937262Y-75954185D01*
X158642794Y-76173459D01*
X158330308Y-76453744D01*
X158069801Y-76709135D01*
X157722945Y-77067045D01*
X157464769Y-77368537D01*
X157256004Y-77668110D01*
X157057378Y-78020263D01*
X156902254Y-78329476D01*
X156657922Y-78860653D01*
X156487904Y-79320402D01*
X156379800Y-79764288D01*
X156321209Y-80247876D01*
X156299728Y-80826732D01*
X156298666Y-81033999D01*
X154570564Y-81033999D01*
X154575595Y-80488816D01*
X154593853Y-80065108D01*
X154630082Y-79715230D01*
X154689026Y-79391535D01*
X154764478Y-79086709D01*
X155148081Y-77974675D01*
X155674162Y-76948896D01*
X156337064Y-76018243D01*
X157131133Y-75191587D01*
X157390255Y-74968353D01*
X157648008Y-74761132D01*
X157856407Y-74603586D01*
X157981382Y-74521103D01*
X157999051Y-74514666D01*
X158051426Y-74588590D01*
X158105244Y-74770856D01*
X158114171Y-74815038D01*
X158232189Y-75100136D01*
X158441094Y-75282554D01*
X158757192Y-75402199D01*
X159051244Y-75354538D01*
X159327931Y-75138797D01*
X159330826Y-75135565D01*
X159436343Y-74994046D01*
X159492749Y-74834044D01*
X159511664Y-74602192D01*
X159507459Y-74324378D01*
X159499659Y-74043777D01*
X159515564Y-73850473D01*
X159581737Y-73718459D01*
X159724741Y-73621727D01*
X159971139Y-73534268D01*
X160347495Y-73430075D01*
X160448751Y-73402762D01*
X160772858Y-73322436D01*
X161076110Y-73267719D01*
X161403667Y-73234348D01*
X161800692Y-73218059D01*
X162312346Y-73214589D01*
X162437000Y-73215082D01*
X162437000Y-73215082D01*
G37*
X162437000Y-73215082D02*
X162980605Y-73222205D01*
X163400328Y-73240313D01*
X163741503Y-73274162D01*
X164049466Y-73328506D01*
X164369552Y-73408101D01*
X164425513Y-73423664D01*
X165144027Y-73625666D01*
X165117372Y-74261971D01*
X165110335Y-74610067D01*
X165130521Y-74840150D01*
X165186601Y-75002520D01*
X165265352Y-75120290D01*
X165519182Y-75335011D01*
X165800358Y-75406110D01*
X166076121Y-75348273D01*
X166313711Y-75176185D01*
X166480368Y-74904529D01*
X166543333Y-74547992D01*
X166543333Y-74337198D01*
X166945500Y-74610917D01*
X167325239Y-74905990D01*
X167754249Y-75297843D01*
X168188819Y-75741737D01*
X168585234Y-76192933D01*
X168899782Y-76606693D01*
X168909491Y-76621013D01*
X169445903Y-77551692D01*
X169867455Y-78570662D01*
X170024855Y-79086709D01*
X170150061Y-79725788D01*
X170219037Y-80466013D01*
X170231785Y-81248808D01*
X170188304Y-82015594D01*
X170088593Y-82707794D01*
X170024855Y-82981290D01*
X169645087Y-84078866D01*
X169125244Y-85092712D01*
X168476367Y-86011798D01*
X167709499Y-86825096D01*
X166835679Y-87521578D01*
X165865950Y-88090217D01*
X164811353Y-88519983D01*
X164341957Y-88657413D01*
X163933423Y-88739815D01*
X163424346Y-88807336D01*
X162865846Y-88856656D01*
X162309041Y-88884455D01*
X161805051Y-88887413D01*
X161404994Y-88862211D01*
X161336333Y-88852611D01*
X160186404Y-88587156D01*
X159111272Y-88176009D01*
X158121437Y-87628550D01*
X157227394Y-86954156D01*
X156439641Y-86162205D01*
X155768675Y-85262077D01*
X155224995Y-84263149D01*
X154819096Y-83174799D01*
X154764478Y-82981290D01*
X154681314Y-82640809D01*
X154625090Y-82316570D01*
X154591062Y-81960926D01*
X154574484Y-81526233D01*
X154570564Y-81034000D01*
X154570564Y-81033999D01*
X156298666Y-81033999D01*
X156311168Y-81653629D01*
X156356941Y-82160782D01*
X156448386Y-82611024D01*
X156597903Y-83059921D01*
X156817895Y-83563037D01*
X156902254Y-83738523D01*
X157117318Y-84160454D01*
X157314852Y-84491404D01*
X157534126Y-84785872D01*
X157814411Y-85098358D01*
X158069801Y-85358864D01*
X158427501Y-85705541D01*
X158728920Y-85963686D01*
X159028746Y-86172676D01*
X159381664Y-86371889D01*
X159695685Y-86529588D01*
X160089979Y-86712641D01*
X160469203Y-86872055D01*
X160785151Y-86988468D01*
X160960875Y-87037804D01*
X161282021Y-87078789D01*
X161720248Y-87105409D01*
X162223906Y-87117550D01*
X162741344Y-87115101D01*
X163220911Y-87097949D01*
X163610958Y-87065981D01*
X163758943Y-87043903D01*
X164025349Y-86970049D01*
X164388465Y-86837801D01*
X164795175Y-86667669D01*
X165099190Y-86526411D01*
X165521120Y-86311348D01*
X165852070Y-86113814D01*
X166146539Y-85894540D01*
X166459025Y-85614255D01*
X166719531Y-85358864D01*
X167066387Y-85000954D01*
X167324563Y-84699462D01*
X167533329Y-84399889D01*
X167731954Y-84047736D01*
X167887078Y-83738523D01*
X168131410Y-83207346D01*
X168301428Y-82747597D01*
X168409532Y-82303711D01*
X168468124Y-81820123D01*
X168489604Y-81241267D01*
X168490666Y-81034000D01*
X168478164Y-80414370D01*
X168432392Y-79907217D01*
X168340947Y-79456975D01*
X168191429Y-79008078D01*
X167971437Y-78504962D01*
X167887078Y-78329476D01*
X167672015Y-77907545D01*
X167474481Y-77576595D01*
X167255206Y-77282127D01*
X166974921Y-76969641D01*
X166719531Y-76709135D01*
X166361621Y-76362279D01*
X166060129Y-76104103D01*
X165760556Y-75895337D01*
X165408402Y-75696712D01*
X165099190Y-75541588D01*
X164568012Y-75297256D01*
X164108264Y-75127238D01*
X163664378Y-75019134D01*
X163180790Y-74960542D01*
X162601933Y-74939062D01*
X162394666Y-74937999D01*
X161775036Y-74950501D01*
X161267883Y-74996274D01*
X160817642Y-75087719D01*
X160368745Y-75237237D01*
X159865628Y-75457228D01*
X159690143Y-75541588D01*
X159268212Y-75756651D01*
X158937262Y-75954185D01*
X158642794Y-76173459D01*
X158330308Y-76453744D01*
X158069801Y-76709135D01*
X157722945Y-77067045D01*
X157464769Y-77368537D01*
X157256004Y-77668110D01*
X157057378Y-78020263D01*
X156902254Y-78329476D01*
X156657922Y-78860653D01*
X156487904Y-79320402D01*
X156379800Y-79764288D01*
X156321209Y-80247876D01*
X156299728Y-80826732D01*
X156298666Y-81033999D01*
X154570564Y-81033999D01*
X154575595Y-80488816D01*
X154593853Y-80065108D01*
X154630082Y-79715230D01*
X154689026Y-79391535D01*
X154764478Y-79086709D01*
X155148081Y-77974675D01*
X155674162Y-76948896D01*
X156337064Y-76018243D01*
X157131133Y-75191587D01*
X157390255Y-74968353D01*
X157648008Y-74761132D01*
X157856407Y-74603586D01*
X157981382Y-74521103D01*
X157999051Y-74514666D01*
X158051426Y-74588590D01*
X158105244Y-74770856D01*
X158114171Y-74815038D01*
X158232189Y-75100136D01*
X158441094Y-75282554D01*
X158757192Y-75402199D01*
X159051244Y-75354538D01*
X159327931Y-75138797D01*
X159330826Y-75135565D01*
X159436343Y-74994046D01*
X159492749Y-74834044D01*
X159511664Y-74602192D01*
X159507459Y-74324378D01*
X159499659Y-74043777D01*
X159515564Y-73850473D01*
X159581737Y-73718459D01*
X159724741Y-73621727D01*
X159971139Y-73534268D01*
X160347495Y-73430075D01*
X160448751Y-73402762D01*
X160772858Y-73322436D01*
X161076110Y-73267719D01*
X161403667Y-73234348D01*
X161800692Y-73218059D01*
X162312346Y-73214589D01*
X162437000Y-73215082D01*
G36*
X185389594Y-91951695D02*
X186081794Y-92051406D01*
X186355290Y-92115144D01*
X187460838Y-92497655D01*
X188479722Y-93021085D01*
X189401809Y-93675300D01*
X190216964Y-94450168D01*
X190915055Y-95335554D01*
X191485948Y-96321326D01*
X191919510Y-97397350D01*
X192038188Y-97798042D01*
X192163394Y-98437121D01*
X192232371Y-99177347D01*
X192245118Y-99960142D01*
X192201637Y-100726928D01*
X192101927Y-101419127D01*
X192038188Y-101692623D01*
X191658420Y-102790200D01*
X191138577Y-103804045D01*
X190489701Y-104723131D01*
X189722832Y-105536429D01*
X188849012Y-106232912D01*
X187879283Y-106801550D01*
X186824686Y-107231317D01*
X186355290Y-107368747D01*
X185946756Y-107451148D01*
X185437679Y-107518669D01*
X184879179Y-107567989D01*
X184322374Y-107595788D01*
X183818384Y-107598747D01*
X183418328Y-107573545D01*
X183349666Y-107563944D01*
X182199737Y-107298489D01*
X181124606Y-106887342D01*
X180134770Y-106339883D01*
X179240727Y-105665489D01*
X178452974Y-104873538D01*
X177782009Y-103973410D01*
X177238328Y-102974482D01*
X176832429Y-101886133D01*
X176777811Y-101692623D01*
X176652605Y-101053545D01*
X176583628Y-100313319D01*
X176574379Y-99745333D01*
X178312000Y-99745333D01*
X178324501Y-100364963D01*
X178370274Y-100872116D01*
X178461719Y-101322357D01*
X178611237Y-101771254D01*
X178831228Y-102274371D01*
X178915588Y-102449856D01*
X179130651Y-102871787D01*
X179328185Y-103202737D01*
X179547459Y-103497205D01*
X179827744Y-103809691D01*
X180083135Y-104070198D01*
X180440834Y-104416874D01*
X180742254Y-104675019D01*
X181042079Y-104884010D01*
X181394997Y-105083222D01*
X181709018Y-105240922D01*
X182103312Y-105423974D01*
X182482536Y-105583389D01*
X182798484Y-105699801D01*
X182974209Y-105749137D01*
X183295354Y-105790123D01*
X183733581Y-105816742D01*
X184237239Y-105828884D01*
X184754677Y-105826435D01*
X185234245Y-105809282D01*
X185624291Y-105777314D01*
X185772277Y-105755237D01*
X186038682Y-105681382D01*
X186401798Y-105549134D01*
X186808508Y-105379002D01*
X187112523Y-105237745D01*
X187534454Y-105022681D01*
X187865404Y-104825147D01*
X188159872Y-104605873D01*
X188472358Y-104325588D01*
X188732864Y-104070198D01*
X189079720Y-103712287D01*
X189337896Y-103410795D01*
X189546662Y-103111222D01*
X189745287Y-102759069D01*
X189900411Y-102449856D01*
X190144743Y-101918679D01*
X190314761Y-101458930D01*
X190422865Y-101015045D01*
X190481457Y-100531456D01*
X190502937Y-99952600D01*
X190504000Y-99745333D01*
X190491498Y-99125703D01*
X190445725Y-98618550D01*
X190354280Y-98168308D01*
X190204762Y-97719412D01*
X189984771Y-97216295D01*
X189900411Y-97040809D01*
X189685348Y-96618879D01*
X189487814Y-96287929D01*
X189268540Y-95993460D01*
X188988255Y-95680974D01*
X188732864Y-95420468D01*
X188374954Y-95073612D01*
X188073462Y-94815436D01*
X187773889Y-94606670D01*
X187421736Y-94408045D01*
X187112523Y-94252921D01*
X186581346Y-94008589D01*
X186121597Y-93838571D01*
X185677711Y-93730467D01*
X185194123Y-93671875D01*
X184615267Y-93650395D01*
X184408000Y-93649333D01*
X183788370Y-93661835D01*
X183281217Y-93707607D01*
X182830975Y-93799052D01*
X182382078Y-93948570D01*
X181878962Y-94168562D01*
X181703476Y-94252921D01*
X181281545Y-94467984D01*
X180950595Y-94665518D01*
X180656127Y-94884793D01*
X180343641Y-95165078D01*
X180083135Y-95420468D01*
X179736279Y-95778378D01*
X179478103Y-96079870D01*
X179269337Y-96379443D01*
X179070712Y-96731597D01*
X178915588Y-97040809D01*
X178671256Y-97571987D01*
X178501238Y-98031735D01*
X178393134Y-98475621D01*
X178334542Y-98959209D01*
X178313062Y-99538066D01*
X178312000Y-99745333D01*
X176574379Y-99745333D01*
X176570881Y-99530524D01*
X176614362Y-98763738D01*
X176714072Y-98071538D01*
X176777811Y-97798042D01*
X177160322Y-96692494D01*
X177683752Y-95673610D01*
X178337967Y-94751523D01*
X179112835Y-93936368D01*
X179998221Y-93238277D01*
X180983993Y-92667384D01*
X182060016Y-92233822D01*
X182460709Y-92115144D01*
X183099788Y-91989938D01*
X183840013Y-91920962D01*
X184622808Y-91908214D01*
X185389594Y-91951695D01*
X185389594Y-91951695D01*
G37*
X185389594Y-91951695D02*
X186081794Y-92051406D01*
X186355290Y-92115144D01*
X187460838Y-92497655D01*
X188479722Y-93021085D01*
X189401809Y-93675300D01*
X190216964Y-94450168D01*
X190915055Y-95335554D01*
X191485948Y-96321326D01*
X191919510Y-97397350D01*
X192038188Y-97798042D01*
X192163394Y-98437121D01*
X192232371Y-99177347D01*
X192245118Y-99960142D01*
X192201637Y-100726928D01*
X192101927Y-101419127D01*
X192038188Y-101692623D01*
X191658420Y-102790200D01*
X191138577Y-103804045D01*
X190489701Y-104723131D01*
X189722832Y-105536429D01*
X188849012Y-106232912D01*
X187879283Y-106801550D01*
X186824686Y-107231317D01*
X186355290Y-107368747D01*
X185946756Y-107451148D01*
X185437679Y-107518669D01*
X184879179Y-107567989D01*
X184322374Y-107595788D01*
X183818384Y-107598747D01*
X183418328Y-107573545D01*
X183349666Y-107563944D01*
X182199737Y-107298489D01*
X181124606Y-106887342D01*
X180134770Y-106339883D01*
X179240727Y-105665489D01*
X178452974Y-104873538D01*
X177782009Y-103973410D01*
X177238328Y-102974482D01*
X176832429Y-101886133D01*
X176777811Y-101692623D01*
X176652605Y-101053545D01*
X176583628Y-100313319D01*
X176574379Y-99745333D01*
X178312000Y-99745333D01*
X178324501Y-100364963D01*
X178370274Y-100872116D01*
X178461719Y-101322357D01*
X178611237Y-101771254D01*
X178831228Y-102274371D01*
X178915588Y-102449856D01*
X179130651Y-102871787D01*
X179328185Y-103202737D01*
X179547459Y-103497205D01*
X179827744Y-103809691D01*
X180083135Y-104070198D01*
X180440834Y-104416874D01*
X180742254Y-104675019D01*
X181042079Y-104884010D01*
X181394997Y-105083222D01*
X181709018Y-105240922D01*
X182103312Y-105423974D01*
X182482536Y-105583389D01*
X182798484Y-105699801D01*
X182974209Y-105749137D01*
X183295354Y-105790123D01*
X183733581Y-105816742D01*
X184237239Y-105828884D01*
X184754677Y-105826435D01*
X185234245Y-105809282D01*
X185624291Y-105777314D01*
X185772277Y-105755237D01*
X186038682Y-105681382D01*
X186401798Y-105549134D01*
X186808508Y-105379002D01*
X187112523Y-105237745D01*
X187534454Y-105022681D01*
X187865404Y-104825147D01*
X188159872Y-104605873D01*
X188472358Y-104325588D01*
X188732864Y-104070198D01*
X189079720Y-103712287D01*
X189337896Y-103410795D01*
X189546662Y-103111222D01*
X189745287Y-102759069D01*
X189900411Y-102449856D01*
X190144743Y-101918679D01*
X190314761Y-101458930D01*
X190422865Y-101015045D01*
X190481457Y-100531456D01*
X190502937Y-99952600D01*
X190504000Y-99745333D01*
X190491498Y-99125703D01*
X190445725Y-98618550D01*
X190354280Y-98168308D01*
X190204762Y-97719412D01*
X189984771Y-97216295D01*
X189900411Y-97040809D01*
X189685348Y-96618879D01*
X189487814Y-96287929D01*
X189268540Y-95993460D01*
X188988255Y-95680974D01*
X188732864Y-95420468D01*
X188374954Y-95073612D01*
X188073462Y-94815436D01*
X187773889Y-94606670D01*
X187421736Y-94408045D01*
X187112523Y-94252921D01*
X186581346Y-94008589D01*
X186121597Y-93838571D01*
X185677711Y-93730467D01*
X185194123Y-93671875D01*
X184615267Y-93650395D01*
X184408000Y-93649333D01*
X183788370Y-93661835D01*
X183281217Y-93707607D01*
X182830975Y-93799052D01*
X182382078Y-93948570D01*
X181878962Y-94168562D01*
X181703476Y-94252921D01*
X181281545Y-94467984D01*
X180950595Y-94665518D01*
X180656127Y-94884793D01*
X180343641Y-95165078D01*
X180083135Y-95420468D01*
X179736279Y-95778378D01*
X179478103Y-96079870D01*
X179269337Y-96379443D01*
X179070712Y-96731597D01*
X178915588Y-97040809D01*
X178671256Y-97571987D01*
X178501238Y-98031735D01*
X178393134Y-98475621D01*
X178334542Y-98959209D01*
X178313062Y-99538066D01*
X178312000Y-99745333D01*
X176574379Y-99745333D01*
X176570881Y-99530524D01*
X176614362Y-98763738D01*
X176714072Y-98071538D01*
X176777811Y-97798042D01*
X177160322Y-96692494D01*
X177683752Y-95673610D01*
X178337967Y-94751523D01*
X179112835Y-93936368D01*
X179998221Y-93238277D01*
X180983993Y-92667384D01*
X182060016Y-92233822D01*
X182460709Y-92115144D01*
X183099788Y-91989938D01*
X183840013Y-91920962D01*
X184622808Y-91908214D01*
X185389594Y-91951695D01*
G36*
X141193594Y-92036362D02*
X141885794Y-92136072D01*
X142159290Y-92199811D01*
X143264838Y-92582322D01*
X144283722Y-93105752D01*
X145205809Y-93759967D01*
X146020964Y-94534835D01*
X146719055Y-95420221D01*
X147289948Y-96405993D01*
X147723510Y-97482016D01*
X147842188Y-97882709D01*
X147967394Y-98521788D01*
X148036371Y-99262013D01*
X148049118Y-100044808D01*
X148005637Y-100811594D01*
X147905927Y-101503794D01*
X147842188Y-101777290D01*
X147462420Y-102874866D01*
X146942577Y-103888712D01*
X146293701Y-104807798D01*
X145526832Y-105621096D01*
X144653012Y-106317578D01*
X143683283Y-106886217D01*
X142628686Y-107315983D01*
X142159290Y-107453413D01*
X141750756Y-107535815D01*
X141241679Y-107603336D01*
X140683179Y-107652656D01*
X140126374Y-107680455D01*
X139622384Y-107683413D01*
X139222328Y-107658211D01*
X139153666Y-107648611D01*
X138003737Y-107383156D01*
X136928606Y-106972009D01*
X135938770Y-106424550D01*
X135044727Y-105750156D01*
X134256974Y-104958205D01*
X133586009Y-104058077D01*
X133042328Y-103059149D01*
X132636429Y-101970799D01*
X132581811Y-101777290D01*
X132498647Y-101436809D01*
X132442423Y-101112570D01*
X132408395Y-100756926D01*
X132391818Y-100322233D01*
X132387897Y-99830000D01*
X132387897Y-99829999D01*
X134116000Y-99829999D01*
X134128501Y-100449629D01*
X134174274Y-100956782D01*
X134265719Y-101407024D01*
X134415237Y-101855921D01*
X134635228Y-102359037D01*
X134719588Y-102534523D01*
X134934651Y-102956454D01*
X135132185Y-103287404D01*
X135351459Y-103581872D01*
X135631744Y-103894358D01*
X135887135Y-104154864D01*
X136244834Y-104501541D01*
X136546254Y-104759686D01*
X136846079Y-104968676D01*
X137198997Y-105167889D01*
X137513018Y-105325588D01*
X137907312Y-105508641D01*
X138286536Y-105668055D01*
X138602484Y-105784468D01*
X138778209Y-105833804D01*
X139099354Y-105874789D01*
X139537581Y-105901409D01*
X140041239Y-105913550D01*
X140558677Y-105911101D01*
X141038245Y-105893949D01*
X141428291Y-105861981D01*
X141576277Y-105839903D01*
X141842682Y-105766049D01*
X142205798Y-105633801D01*
X142612508Y-105463669D01*
X142916523Y-105322411D01*
X143338454Y-105107348D01*
X143669404Y-104909814D01*
X143963872Y-104690540D01*
X144276358Y-104410255D01*
X144536864Y-104154864D01*
X144883720Y-103796954D01*
X145141896Y-103495462D01*
X145350662Y-103195889D01*
X145549287Y-102843736D01*
X145704411Y-102534523D01*
X145948743Y-102003346D01*
X146118761Y-101543597D01*
X146226865Y-101099711D01*
X146285457Y-100616123D01*
X146306937Y-100037267D01*
X146308000Y-99830000D01*
X146295498Y-99210370D01*
X146249725Y-98703217D01*
X146158280Y-98252975D01*
X146008762Y-97804078D01*
X145788771Y-97300962D01*
X145704411Y-97125476D01*
X145489348Y-96703545D01*
X145291814Y-96372595D01*
X145072540Y-96078127D01*
X144792255Y-95765641D01*
X144536864Y-95505135D01*
X144178954Y-95158279D01*
X143877462Y-94900103D01*
X143577889Y-94691337D01*
X143225736Y-94492712D01*
X142916523Y-94337588D01*
X142385346Y-94093256D01*
X141925597Y-93923238D01*
X141481711Y-93815134D01*
X140998123Y-93756542D01*
X140419267Y-93735062D01*
X140212000Y-93733999D01*
X139592370Y-93746501D01*
X139085217Y-93792274D01*
X138634975Y-93883719D01*
X138186078Y-94033237D01*
X137682962Y-94253228D01*
X137507476Y-94337588D01*
X137085545Y-94552651D01*
X136754595Y-94750185D01*
X136460127Y-94969459D01*
X136147641Y-95249744D01*
X135887135Y-95505135D01*
X135540279Y-95863045D01*
X135282103Y-96164537D01*
X135073337Y-96464110D01*
X134874712Y-96816263D01*
X134719588Y-97125476D01*
X134475256Y-97656653D01*
X134305238Y-98116402D01*
X134197134Y-98560288D01*
X134138542Y-99043876D01*
X134117062Y-99622732D01*
X134116000Y-99829999D01*
X132387897Y-99829999D01*
X132392929Y-99284816D01*
X132411186Y-98861108D01*
X132447415Y-98511230D01*
X132506359Y-98187535D01*
X132581811Y-97882709D01*
X132964322Y-96777161D01*
X133487752Y-95758277D01*
X134141967Y-94836190D01*
X134916835Y-94021035D01*
X135802221Y-93322944D01*
X136787993Y-92752051D01*
X137864016Y-92318489D01*
X138264709Y-92199811D01*
X138903788Y-92074605D01*
X139644013Y-92005628D01*
X140426808Y-91992881D01*
X141193594Y-92036362D01*
X141193594Y-92036362D01*
G37*
X141193594Y-92036362D02*
X141885794Y-92136072D01*
X142159290Y-92199811D01*
X143264838Y-92582322D01*
X144283722Y-93105752D01*
X145205809Y-93759967D01*
X146020964Y-94534835D01*
X146719055Y-95420221D01*
X147289948Y-96405993D01*
X147723510Y-97482016D01*
X147842188Y-97882709D01*
X147967394Y-98521788D01*
X148036371Y-99262013D01*
X148049118Y-100044808D01*
X148005637Y-100811594D01*
X147905927Y-101503794D01*
X147842188Y-101777290D01*
X147462420Y-102874866D01*
X146942577Y-103888712D01*
X146293701Y-104807798D01*
X145526832Y-105621096D01*
X144653012Y-106317578D01*
X143683283Y-106886217D01*
X142628686Y-107315983D01*
X142159290Y-107453413D01*
X141750756Y-107535815D01*
X141241679Y-107603336D01*
X140683179Y-107652656D01*
X140126374Y-107680455D01*
X139622384Y-107683413D01*
X139222328Y-107658211D01*
X139153666Y-107648611D01*
X138003737Y-107383156D01*
X136928606Y-106972009D01*
X135938770Y-106424550D01*
X135044727Y-105750156D01*
X134256974Y-104958205D01*
X133586009Y-104058077D01*
X133042328Y-103059149D01*
X132636429Y-101970799D01*
X132581811Y-101777290D01*
X132498647Y-101436809D01*
X132442423Y-101112570D01*
X132408395Y-100756926D01*
X132391818Y-100322233D01*
X132387897Y-99830000D01*
X132387897Y-99829999D01*
X134116000Y-99829999D01*
X134128501Y-100449629D01*
X134174274Y-100956782D01*
X134265719Y-101407024D01*
X134415237Y-101855921D01*
X134635228Y-102359037D01*
X134719588Y-102534523D01*
X134934651Y-102956454D01*
X135132185Y-103287404D01*
X135351459Y-103581872D01*
X135631744Y-103894358D01*
X135887135Y-104154864D01*
X136244834Y-104501541D01*
X136546254Y-104759686D01*
X136846079Y-104968676D01*
X137198997Y-105167889D01*
X137513018Y-105325588D01*
X137907312Y-105508641D01*
X138286536Y-105668055D01*
X138602484Y-105784468D01*
X138778209Y-105833804D01*
X139099354Y-105874789D01*
X139537581Y-105901409D01*
X140041239Y-105913550D01*
X140558677Y-105911101D01*
X141038245Y-105893949D01*
X141428291Y-105861981D01*
X141576277Y-105839903D01*
X141842682Y-105766049D01*
X142205798Y-105633801D01*
X142612508Y-105463669D01*
X142916523Y-105322411D01*
X143338454Y-105107348D01*
X143669404Y-104909814D01*
X143963872Y-104690540D01*
X144276358Y-104410255D01*
X144536864Y-104154864D01*
X144883720Y-103796954D01*
X145141896Y-103495462D01*
X145350662Y-103195889D01*
X145549287Y-102843736D01*
X145704411Y-102534523D01*
X145948743Y-102003346D01*
X146118761Y-101543597D01*
X146226865Y-101099711D01*
X146285457Y-100616123D01*
X146306937Y-100037267D01*
X146308000Y-99830000D01*
X146295498Y-99210370D01*
X146249725Y-98703217D01*
X146158280Y-98252975D01*
X146008762Y-97804078D01*
X145788771Y-97300962D01*
X145704411Y-97125476D01*
X145489348Y-96703545D01*
X145291814Y-96372595D01*
X145072540Y-96078127D01*
X144792255Y-95765641D01*
X144536864Y-95505135D01*
X144178954Y-95158279D01*
X143877462Y-94900103D01*
X143577889Y-94691337D01*
X143225736Y-94492712D01*
X142916523Y-94337588D01*
X142385346Y-94093256D01*
X141925597Y-93923238D01*
X141481711Y-93815134D01*
X140998123Y-93756542D01*
X140419267Y-93735062D01*
X140212000Y-93733999D01*
X139592370Y-93746501D01*
X139085217Y-93792274D01*
X138634975Y-93883719D01*
X138186078Y-94033237D01*
X137682962Y-94253228D01*
X137507476Y-94337588D01*
X137085545Y-94552651D01*
X136754595Y-94750185D01*
X136460127Y-94969459D01*
X136147641Y-95249744D01*
X135887135Y-95505135D01*
X135540279Y-95863045D01*
X135282103Y-96164537D01*
X135073337Y-96464110D01*
X134874712Y-96816263D01*
X134719588Y-97125476D01*
X134475256Y-97656653D01*
X134305238Y-98116402D01*
X134197134Y-98560288D01*
X134138542Y-99043876D01*
X134117062Y-99622732D01*
X134116000Y-99829999D01*
X132387897Y-99829999D01*
X132392929Y-99284816D01*
X132411186Y-98861108D01*
X132447415Y-98511230D01*
X132506359Y-98187535D01*
X132581811Y-97882709D01*
X132964322Y-96777161D01*
X133487752Y-95758277D01*
X134141967Y-94836190D01*
X134916835Y-94021035D01*
X135802221Y-93322944D01*
X136787993Y-92752051D01*
X137864016Y-92318489D01*
X138264709Y-92199811D01*
X138903788Y-92074605D01*
X139644013Y-92005628D01*
X140426808Y-91992881D01*
X141193594Y-92036362D01*
G36*
X162910594Y-90406870D02*
X163340460Y-90417530D01*
X163682823Y-90440116D01*
X163978574Y-90478568D01*
X164268602Y-90536830D01*
X164593800Y-90618843D01*
X164602245Y-90621101D01*
X165825399Y-91024887D01*
X166941632Y-91555625D01*
X167963944Y-92220718D01*
X168905339Y-93027568D01*
X169009610Y-93130389D01*
X169833336Y-94063263D01*
X170514449Y-95075550D01*
X171060350Y-96180252D01*
X171478444Y-97390373D01*
X171518898Y-97537754D01*
X171601520Y-97864277D01*
X171660298Y-98154665D01*
X171699173Y-98449808D01*
X171722088Y-98790598D01*
X171732984Y-99217924D01*
X171735805Y-99772678D01*
X171735806Y-99787666D01*
X171733129Y-100345927D01*
X171722469Y-100775794D01*
X171699883Y-101118157D01*
X171661431Y-101413907D01*
X171603169Y-101703936D01*
X171521156Y-102029133D01*
X171518898Y-102037579D01*
X171115112Y-103260733D01*
X170584374Y-104376965D01*
X169919281Y-105399278D01*
X169112431Y-106340673D01*
X169009610Y-106444943D01*
X168051792Y-107290108D01*
X167023249Y-107981531D01*
X165926183Y-108518260D01*
X164762796Y-108899348D01*
X163535291Y-109123844D01*
X162648666Y-109187045D01*
X162171402Y-109193272D01*
X161704426Y-109186821D01*
X161299734Y-109169172D01*
X161009317Y-109141804D01*
X160997666Y-109140042D01*
X159765920Y-108863649D01*
X158586850Y-108429746D01*
X157475287Y-107845875D01*
X156446064Y-107119576D01*
X155695056Y-106444172D01*
X154871917Y-105512730D01*
X154191071Y-104501386D01*
X153645188Y-103397268D01*
X153226938Y-102187505D01*
X153185768Y-102037579D01*
X153103145Y-101711055D01*
X153044368Y-101420667D01*
X153005493Y-101125524D01*
X152982578Y-100784735D01*
X152971681Y-100357408D01*
X152968861Y-99802654D01*
X152968860Y-99787666D01*
X152969253Y-99705512D01*
X154695799Y-99705512D01*
X154704792Y-100323067D01*
X154738210Y-100894170D01*
X154796053Y-101365320D01*
X154815370Y-101466155D01*
X154960332Y-101990682D01*
X155181391Y-102592193D01*
X155454187Y-103211357D01*
X155754356Y-103788843D01*
X155805015Y-103876330D01*
X156020894Y-104184724D01*
X156337161Y-104562984D01*
X156720183Y-104977477D01*
X157136328Y-105394571D01*
X157551963Y-105780632D01*
X157933455Y-106102028D01*
X158247171Y-106325126D01*
X158263669Y-106334984D01*
X158784654Y-106615158D01*
X159361038Y-106881161D01*
X159935665Y-107109229D01*
X160451381Y-107275600D01*
X160635578Y-107321126D01*
X161037158Y-107381357D01*
X161556206Y-107420416D01*
X162142179Y-107438253D01*
X162744533Y-107434815D01*
X163312725Y-107410049D01*
X163796212Y-107363904D01*
X164030821Y-107324629D01*
X164555349Y-107179667D01*
X165156860Y-106958608D01*
X165776023Y-106685812D01*
X166353509Y-106385643D01*
X166440997Y-106334984D01*
X166749391Y-106119105D01*
X167127650Y-105802838D01*
X167542144Y-105419816D01*
X167959237Y-105003671D01*
X168345299Y-104588036D01*
X168666695Y-104206544D01*
X168889792Y-103892828D01*
X168899650Y-103876330D01*
X169202002Y-103311474D01*
X169481014Y-102695114D01*
X169712325Y-102086580D01*
X169871574Y-101545203D01*
X169889295Y-101466155D01*
X169953577Y-101030268D01*
X169993434Y-100480322D01*
X170008867Y-99869820D01*
X169999874Y-99252266D01*
X169966456Y-98681162D01*
X169908613Y-98210013D01*
X169889295Y-98109178D01*
X169744334Y-97584650D01*
X169523274Y-96983139D01*
X169250479Y-96363976D01*
X168950310Y-95786490D01*
X168899650Y-95699002D01*
X168683772Y-95390608D01*
X168367505Y-95012349D01*
X167984482Y-94597855D01*
X167568337Y-94180762D01*
X167152702Y-93794700D01*
X166771210Y-93473304D01*
X166457494Y-93250207D01*
X166440997Y-93240349D01*
X165876141Y-92937997D01*
X165259780Y-92658985D01*
X164651246Y-92427674D01*
X164109869Y-92268425D01*
X164030821Y-92250704D01*
X163594935Y-92186422D01*
X163044988Y-92146565D01*
X162434487Y-92131132D01*
X161816932Y-92140125D01*
X161245829Y-92173543D01*
X160774679Y-92231386D01*
X160673844Y-92250704D01*
X160149317Y-92395665D01*
X159547806Y-92616725D01*
X158928642Y-92889520D01*
X158351156Y-93189689D01*
X158263669Y-93240349D01*
X157955275Y-93456227D01*
X157577015Y-93772494D01*
X157162522Y-94155517D01*
X156745428Y-94571662D01*
X156359367Y-94987297D01*
X156037971Y-95368789D01*
X155814873Y-95682505D01*
X155805015Y-95699002D01*
X155502664Y-96263858D01*
X155223652Y-96880219D01*
X154992340Y-97488753D01*
X154833092Y-98030130D01*
X154815370Y-98109178D01*
X154751088Y-98545064D01*
X154711231Y-99095011D01*
X154695799Y-99705512D01*
X152969253Y-99705512D01*
X152971537Y-99229405D01*
X152982197Y-98799539D01*
X153004782Y-98457176D01*
X153043235Y-98161425D01*
X153101496Y-97871397D01*
X153183510Y-97546199D01*
X153185768Y-97537754D01*
X153589554Y-96314600D01*
X154120292Y-95198367D01*
X154785385Y-94176055D01*
X155592235Y-93234660D01*
X155695056Y-93130389D01*
X156627929Y-92306663D01*
X157640216Y-91625550D01*
X158744919Y-91079649D01*
X159955039Y-90661555D01*
X160102420Y-90621101D01*
X160428944Y-90538479D01*
X160719332Y-90479701D01*
X161014475Y-90440826D01*
X161355264Y-90417911D01*
X161782591Y-90407015D01*
X162337345Y-90404194D01*
X162352333Y-90404193D01*
X162910594Y-90406870D01*
X162910594Y-90406870D01*
G37*
X162910594Y-90406870D02*
X163340460Y-90417530D01*
X163682823Y-90440116D01*
X163978574Y-90478568D01*
X164268602Y-90536830D01*
X164593800Y-90618843D01*
X164602245Y-90621101D01*
X165825399Y-91024887D01*
X166941632Y-91555625D01*
X167963944Y-92220718D01*
X168905339Y-93027568D01*
X169009610Y-93130389D01*
X169833336Y-94063263D01*
X170514449Y-95075550D01*
X171060350Y-96180252D01*
X171478444Y-97390373D01*
X171518898Y-97537754D01*
X171601520Y-97864277D01*
X171660298Y-98154665D01*
X171699173Y-98449808D01*
X171722088Y-98790598D01*
X171732984Y-99217924D01*
X171735805Y-99772678D01*
X171735806Y-99787666D01*
X171733129Y-100345927D01*
X171722469Y-100775794D01*
X171699883Y-101118157D01*
X171661431Y-101413907D01*
X171603169Y-101703936D01*
X171521156Y-102029133D01*
X171518898Y-102037579D01*
X171115112Y-103260733D01*
X170584374Y-104376965D01*
X169919281Y-105399278D01*
X169112431Y-106340673D01*
X169009610Y-106444943D01*
X168051792Y-107290108D01*
X167023249Y-107981531D01*
X165926183Y-108518260D01*
X164762796Y-108899348D01*
X163535291Y-109123844D01*
X162648666Y-109187045D01*
X162171402Y-109193272D01*
X161704426Y-109186821D01*
X161299734Y-109169172D01*
X161009317Y-109141804D01*
X160997666Y-109140042D01*
X159765920Y-108863649D01*
X158586850Y-108429746D01*
X157475287Y-107845875D01*
X156446064Y-107119576D01*
X155695056Y-106444172D01*
X154871917Y-105512730D01*
X154191071Y-104501386D01*
X153645188Y-103397268D01*
X153226938Y-102187505D01*
X153185768Y-102037579D01*
X153103145Y-101711055D01*
X153044368Y-101420667D01*
X153005493Y-101125524D01*
X152982578Y-100784735D01*
X152971681Y-100357408D01*
X152968861Y-99802654D01*
X152968860Y-99787666D01*
X152969253Y-99705512D01*
X154695799Y-99705512D01*
X154704792Y-100323067D01*
X154738210Y-100894170D01*
X154796053Y-101365320D01*
X154815370Y-101466155D01*
X154960332Y-101990682D01*
X155181391Y-102592193D01*
X155454187Y-103211357D01*
X155754356Y-103788843D01*
X155805015Y-103876330D01*
X156020894Y-104184724D01*
X156337161Y-104562984D01*
X156720183Y-104977477D01*
X157136328Y-105394571D01*
X157551963Y-105780632D01*
X157933455Y-106102028D01*
X158247171Y-106325126D01*
X158263669Y-106334984D01*
X158784654Y-106615158D01*
X159361038Y-106881161D01*
X159935665Y-107109229D01*
X160451381Y-107275600D01*
X160635578Y-107321126D01*
X161037158Y-107381357D01*
X161556206Y-107420416D01*
X162142179Y-107438253D01*
X162744533Y-107434815D01*
X163312725Y-107410049D01*
X163796212Y-107363904D01*
X164030821Y-107324629D01*
X164555349Y-107179667D01*
X165156860Y-106958608D01*
X165776023Y-106685812D01*
X166353509Y-106385643D01*
X166440997Y-106334984D01*
X166749391Y-106119105D01*
X167127650Y-105802838D01*
X167542144Y-105419816D01*
X167959237Y-105003671D01*
X168345299Y-104588036D01*
X168666695Y-104206544D01*
X168889792Y-103892828D01*
X168899650Y-103876330D01*
X169202002Y-103311474D01*
X169481014Y-102695114D01*
X169712325Y-102086580D01*
X169871574Y-101545203D01*
X169889295Y-101466155D01*
X169953577Y-101030268D01*
X169993434Y-100480322D01*
X170008867Y-99869820D01*
X169999874Y-99252266D01*
X169966456Y-98681162D01*
X169908613Y-98210013D01*
X169889295Y-98109178D01*
X169744334Y-97584650D01*
X169523274Y-96983139D01*
X169250479Y-96363976D01*
X168950310Y-95786490D01*
X168899650Y-95699002D01*
X168683772Y-95390608D01*
X168367505Y-95012349D01*
X167984482Y-94597855D01*
X167568337Y-94180762D01*
X167152702Y-93794700D01*
X166771210Y-93473304D01*
X166457494Y-93250207D01*
X166440997Y-93240349D01*
X165876141Y-92937997D01*
X165259780Y-92658985D01*
X164651246Y-92427674D01*
X164109869Y-92268425D01*
X164030821Y-92250704D01*
X163594935Y-92186422D01*
X163044988Y-92146565D01*
X162434487Y-92131132D01*
X161816932Y-92140125D01*
X161245829Y-92173543D01*
X160774679Y-92231386D01*
X160673844Y-92250704D01*
X160149317Y-92395665D01*
X159547806Y-92616725D01*
X158928642Y-92889520D01*
X158351156Y-93189689D01*
X158263669Y-93240349D01*
X157955275Y-93456227D01*
X157577015Y-93772494D01*
X157162522Y-94155517D01*
X156745428Y-94571662D01*
X156359367Y-94987297D01*
X156037971Y-95368789D01*
X155814873Y-95682505D01*
X155805015Y-95699002D01*
X155502664Y-96263858D01*
X155223652Y-96880219D01*
X154992340Y-97488753D01*
X154833092Y-98030130D01*
X154815370Y-98109178D01*
X154751088Y-98545064D01*
X154711231Y-99095011D01*
X154695799Y-99705512D01*
X152969253Y-99705512D01*
X152971537Y-99229405D01*
X152982197Y-98799539D01*
X153004782Y-98457176D01*
X153043235Y-98161425D01*
X153101496Y-97871397D01*
X153183510Y-97546199D01*
X153185768Y-97537754D01*
X153589554Y-96314600D01*
X154120292Y-95198367D01*
X154785385Y-94176055D01*
X155592235Y-93234660D01*
X155695056Y-93130389D01*
X156627929Y-92306663D01*
X157640216Y-91625550D01*
X158744919Y-91079649D01*
X159955039Y-90661555D01*
X160102420Y-90621101D01*
X160428944Y-90538479D01*
X160719332Y-90479701D01*
X161014475Y-90440826D01*
X161355264Y-90417911D01*
X161782591Y-90407015D01*
X162337345Y-90404194D01*
X162352333Y-90404193D01*
X162910594Y-90406870D01*
G36*
X163291594Y-110747695D02*
X163983794Y-110847406D01*
X164257290Y-110911144D01*
X165362838Y-111293655D01*
X166381722Y-111817085D01*
X167303809Y-112471300D01*
X168118964Y-113246168D01*
X168817055Y-114131554D01*
X169387948Y-115117326D01*
X169821510Y-116193350D01*
X169940188Y-116594042D01*
X170065394Y-117233121D01*
X170134371Y-117973347D01*
X170147118Y-118756142D01*
X170103637Y-119522928D01*
X170003927Y-120215127D01*
X169940188Y-120488623D01*
X169560420Y-121586200D01*
X169040577Y-122600045D01*
X168391701Y-123519131D01*
X167624832Y-124332429D01*
X166751012Y-125028912D01*
X165781283Y-125597550D01*
X164726686Y-126027317D01*
X164257290Y-126164747D01*
X163848756Y-126247148D01*
X163339679Y-126314669D01*
X162781179Y-126363989D01*
X162224374Y-126391788D01*
X161720384Y-126394747D01*
X161320328Y-126369545D01*
X161251666Y-126359944D01*
X160101737Y-126094489D01*
X159026606Y-125683342D01*
X158036770Y-125135883D01*
X157142727Y-124461489D01*
X156354974Y-123669538D01*
X155684009Y-122769410D01*
X155140328Y-121770482D01*
X154734429Y-120682133D01*
X154679811Y-120488623D01*
X154596647Y-120148143D01*
X154540423Y-119823903D01*
X154506395Y-119468260D01*
X154489818Y-119033566D01*
X154485897Y-118541333D01*
X156214000Y-118541333D01*
X156226501Y-119160963D01*
X156272274Y-119668116D01*
X156363719Y-120118357D01*
X156513237Y-120567254D01*
X156733228Y-121070371D01*
X156817588Y-121245856D01*
X157032651Y-121667787D01*
X157230185Y-121998737D01*
X157449459Y-122293205D01*
X157729744Y-122605691D01*
X157985135Y-122866198D01*
X158342834Y-123212874D01*
X158644254Y-123471019D01*
X158944079Y-123680010D01*
X159296997Y-123879222D01*
X159611018Y-124036922D01*
X160005312Y-124219974D01*
X160384536Y-124379389D01*
X160700484Y-124495801D01*
X160876209Y-124545137D01*
X161197354Y-124586123D01*
X161635581Y-124612742D01*
X162139239Y-124624884D01*
X162656677Y-124622435D01*
X163136245Y-124605282D01*
X163526291Y-124573314D01*
X163674277Y-124551237D01*
X163940682Y-124477382D01*
X164303798Y-124345134D01*
X164710508Y-124175002D01*
X165014523Y-124033745D01*
X165888390Y-123521941D01*
X166636226Y-122898359D01*
X167265002Y-122156030D01*
X167781685Y-121287984D01*
X167802411Y-121245856D01*
X168046743Y-120714679D01*
X168216761Y-120254930D01*
X168324865Y-119811045D01*
X168383457Y-119327456D01*
X168404937Y-118748600D01*
X168406000Y-118541333D01*
X168393498Y-117921703D01*
X168347725Y-117414550D01*
X168256280Y-116964308D01*
X168106762Y-116515412D01*
X167886771Y-116012295D01*
X167802411Y-115836809D01*
X167587348Y-115414879D01*
X167389814Y-115083929D01*
X167170540Y-114789460D01*
X166890255Y-114476974D01*
X166634864Y-114216468D01*
X166276954Y-113869612D01*
X165975462Y-113611436D01*
X165675889Y-113402670D01*
X165323736Y-113204045D01*
X165014523Y-113048921D01*
X164483346Y-112804589D01*
X164023597Y-112634571D01*
X163579711Y-112526467D01*
X163096123Y-112467875D01*
X162517267Y-112446395D01*
X162310000Y-112445333D01*
X161690370Y-112457835D01*
X161183217Y-112503607D01*
X160732975Y-112595052D01*
X160284078Y-112744570D01*
X159780962Y-112964562D01*
X159605476Y-113048921D01*
X159183545Y-113263984D01*
X158852595Y-113461518D01*
X158558127Y-113680793D01*
X158245641Y-113961078D01*
X157985135Y-114216468D01*
X157638279Y-114574378D01*
X157380103Y-114875870D01*
X157171337Y-115175443D01*
X156972712Y-115527597D01*
X156817588Y-115836809D01*
X156573256Y-116367987D01*
X156403238Y-116827735D01*
X156295134Y-117271621D01*
X156236542Y-117755209D01*
X156215062Y-118334066D01*
X156214000Y-118541333D01*
X154485897Y-118541333D01*
X154490929Y-117996150D01*
X154509186Y-117572442D01*
X154545415Y-117222563D01*
X154604359Y-116898869D01*
X154679811Y-116594042D01*
X155062322Y-115488494D01*
X155585752Y-114469610D01*
X156239967Y-113547523D01*
X157014835Y-112732368D01*
X157900221Y-112034277D01*
X158885993Y-111463384D01*
X159962016Y-111029822D01*
X160362709Y-110911144D01*
X161001788Y-110785938D01*
X161742013Y-110716962D01*
X162524808Y-110704214D01*
X163291594Y-110747695D01*
X163291594Y-110747695D01*
G37*
X163291594Y-110747695D02*
X163983794Y-110847406D01*
X164257290Y-110911144D01*
X165362838Y-111293655D01*
X166381722Y-111817085D01*
X167303809Y-112471300D01*
X168118964Y-113246168D01*
X168817055Y-114131554D01*
X169387948Y-115117326D01*
X169821510Y-116193350D01*
X169940188Y-116594042D01*
X170065394Y-117233121D01*
X170134371Y-117973347D01*
X170147118Y-118756142D01*
X170103637Y-119522928D01*
X170003927Y-120215127D01*
X169940188Y-120488623D01*
X169560420Y-121586200D01*
X169040577Y-122600045D01*
X168391701Y-123519131D01*
X167624832Y-124332429D01*
X166751012Y-125028912D01*
X165781283Y-125597550D01*
X164726686Y-126027317D01*
X164257290Y-126164747D01*
X163848756Y-126247148D01*
X163339679Y-126314669D01*
X162781179Y-126363989D01*
X162224374Y-126391788D01*
X161720384Y-126394747D01*
X161320328Y-126369545D01*
X161251666Y-126359944D01*
X160101737Y-126094489D01*
X159026606Y-125683342D01*
X158036770Y-125135883D01*
X157142727Y-124461489D01*
X156354974Y-123669538D01*
X155684009Y-122769410D01*
X155140328Y-121770482D01*
X154734429Y-120682133D01*
X154679811Y-120488623D01*
X154596647Y-120148143D01*
X154540423Y-119823903D01*
X154506395Y-119468260D01*
X154489818Y-119033566D01*
X154485897Y-118541333D01*
X156214000Y-118541333D01*
X156226501Y-119160963D01*
X156272274Y-119668116D01*
X156363719Y-120118357D01*
X156513237Y-120567254D01*
X156733228Y-121070371D01*
X156817588Y-121245856D01*
X157032651Y-121667787D01*
X157230185Y-121998737D01*
X157449459Y-122293205D01*
X157729744Y-122605691D01*
X157985135Y-122866198D01*
X158342834Y-123212874D01*
X158644254Y-123471019D01*
X158944079Y-123680010D01*
X159296997Y-123879222D01*
X159611018Y-124036922D01*
X160005312Y-124219974D01*
X160384536Y-124379389D01*
X160700484Y-124495801D01*
X160876209Y-124545137D01*
X161197354Y-124586123D01*
X161635581Y-124612742D01*
X162139239Y-124624884D01*
X162656677Y-124622435D01*
X163136245Y-124605282D01*
X163526291Y-124573314D01*
X163674277Y-124551237D01*
X163940682Y-124477382D01*
X164303798Y-124345134D01*
X164710508Y-124175002D01*
X165014523Y-124033745D01*
X165888390Y-123521941D01*
X166636226Y-122898359D01*
X167265002Y-122156030D01*
X167781685Y-121287984D01*
X167802411Y-121245856D01*
X168046743Y-120714679D01*
X168216761Y-120254930D01*
X168324865Y-119811045D01*
X168383457Y-119327456D01*
X168404937Y-118748600D01*
X168406000Y-118541333D01*
X168393498Y-117921703D01*
X168347725Y-117414550D01*
X168256280Y-116964308D01*
X168106762Y-116515412D01*
X167886771Y-116012295D01*
X167802411Y-115836809D01*
X167587348Y-115414879D01*
X167389814Y-115083929D01*
X167170540Y-114789460D01*
X166890255Y-114476974D01*
X166634864Y-114216468D01*
X166276954Y-113869612D01*
X165975462Y-113611436D01*
X165675889Y-113402670D01*
X165323736Y-113204045D01*
X165014523Y-113048921D01*
X164483346Y-112804589D01*
X164023597Y-112634571D01*
X163579711Y-112526467D01*
X163096123Y-112467875D01*
X162517267Y-112446395D01*
X162310000Y-112445333D01*
X161690370Y-112457835D01*
X161183217Y-112503607D01*
X160732975Y-112595052D01*
X160284078Y-112744570D01*
X159780962Y-112964562D01*
X159605476Y-113048921D01*
X159183545Y-113263984D01*
X158852595Y-113461518D01*
X158558127Y-113680793D01*
X158245641Y-113961078D01*
X157985135Y-114216468D01*
X157638279Y-114574378D01*
X157380103Y-114875870D01*
X157171337Y-115175443D01*
X156972712Y-115527597D01*
X156817588Y-115836809D01*
X156573256Y-116367987D01*
X156403238Y-116827735D01*
X156295134Y-117271621D01*
X156236542Y-117755209D01*
X156215062Y-118334066D01*
X156214000Y-118541333D01*
X154485897Y-118541333D01*
X154490929Y-117996150D01*
X154509186Y-117572442D01*
X154545415Y-117222563D01*
X154604359Y-116898869D01*
X154679811Y-116594042D01*
X155062322Y-115488494D01*
X155585752Y-114469610D01*
X156239967Y-113547523D01*
X157014835Y-112732368D01*
X157900221Y-112034277D01*
X158885993Y-111463384D01*
X159962016Y-111029822D01*
X160362709Y-110911144D01*
X161001788Y-110785938D01*
X161742013Y-110716962D01*
X162524808Y-110704214D01*
X163291594Y-110747695D01*
G04 #@! TD*
M02*
