%FSLAX45Y45*%
G04 Gerber Fmt 4.5, Leading zero omitted, Abs format (unit mm)*
G04 Created by KiCad (PCBNEW (5.0.1-3-g963ef8bb5)) date Friday, 08 February 2019 at 08:33:56*
%MOMM*%
%LPD*%
G01*
G04 APERTURE LIST*
%ADD10C,0.150000*%
%ADD11C,0.200000*%
%ADD12C,0.300000*%
G04 APERTURE END LIST*
D10*
X11924500Y-12519900D02*
G75*
G03X12224500Y-12819900I300000J0D01*
G01*
X20424500Y-12819900D02*
G75*
G03X20524500Y-12719900I0J100000D01*
G01*
X20424500Y-12819900D02*
X12224500Y-12819900D01*
X20524500Y-7319900D02*
X20524500Y-12719900D01*
X20324500Y-7119900D02*
X12124500Y-7119900D01*
X20524500Y-7319900D02*
G75*
G03X20324500Y-7119900I-200000J0D01*
G01*
X11924500Y-12519900D02*
X11924500Y-7319900D01*
X12124500Y-7119900D02*
G75*
G03X11924500Y-7319900I0J-200000D01*
G01*
D11*
D12*
X12203428Y-13293114D02*
X12203428Y-12993114D01*
X12274857Y-12993114D01*
X12317714Y-13007400D01*
X12346286Y-13035971D01*
X12360571Y-13064543D01*
X12374857Y-13121686D01*
X12374857Y-13164543D01*
X12360571Y-13221686D01*
X12346286Y-13250257D01*
X12317714Y-13278829D01*
X12274857Y-13293114D01*
X12203428Y-13293114D01*
X12503428Y-13293114D02*
X12503428Y-13093114D01*
X12503428Y-13150257D02*
X12517714Y-13121686D01*
X12532000Y-13107400D01*
X12560571Y-13093114D01*
X12589143Y-13093114D01*
X12689143Y-13293114D02*
X12689143Y-13093114D01*
X12689143Y-12993114D02*
X12674857Y-13007400D01*
X12689143Y-13021686D01*
X12703428Y-13007400D01*
X12689143Y-12993114D01*
X12689143Y-13021686D01*
X12874857Y-13293114D02*
X12846286Y-13278829D01*
X12832000Y-13250257D01*
X12832000Y-12993114D01*
X13032000Y-13293114D02*
X13003428Y-13278829D01*
X12989143Y-13250257D01*
X12989143Y-12993114D01*
X13374857Y-13293114D02*
X13374857Y-12993114D01*
X13474857Y-13207400D01*
X13574857Y-12993114D01*
X13574857Y-13293114D01*
X13846286Y-13293114D02*
X13846286Y-13135971D01*
X13832000Y-13107400D01*
X13803428Y-13093114D01*
X13746286Y-13093114D01*
X13717714Y-13107400D01*
X13846286Y-13278829D02*
X13817714Y-13293114D01*
X13746286Y-13293114D01*
X13717714Y-13278829D01*
X13703428Y-13250257D01*
X13703428Y-13221686D01*
X13717714Y-13193114D01*
X13746286Y-13178829D01*
X13817714Y-13178829D01*
X13846286Y-13164543D01*
X13989143Y-13093114D02*
X13989143Y-13393114D01*
X13989143Y-13107400D02*
X14017714Y-13093114D01*
X14074857Y-13093114D01*
X14103428Y-13107400D01*
X14117714Y-13121686D01*
X14132000Y-13150257D01*
X14132000Y-13235971D01*
X14117714Y-13264543D01*
X14103428Y-13278829D01*
X14074857Y-13293114D01*
X14017714Y-13293114D01*
X13989143Y-13278829D01*
X14260571Y-13264543D02*
X14274857Y-13278829D01*
X14260571Y-13293114D01*
X14246286Y-13278829D01*
X14260571Y-13264543D01*
X14260571Y-13293114D01*
X14260571Y-13107400D02*
X14274857Y-13121686D01*
X14260571Y-13135971D01*
X14246286Y-13121686D01*
X14260571Y-13107400D01*
X14260571Y-13135971D01*
M02*
