G04 #@! TF.GenerationSoftware,KiCad,Pcbnew,(5.0.1-3-g963ef8bb5)*
G04 #@! TF.CreationDate,2019-02-08T08:33:02+00:00*
G04 #@! TF.ProjectId,invitation,696E7669746174696F6E2E6B69636164,rev?*
G04 #@! TF.SameCoordinates,Original*
G04 #@! TF.FileFunction,Copper,L1,Top,Signal*
G04 #@! TF.FilePolarity,Positive*
%FSLAX46Y46*%
G04 Gerber Fmt 4.6, Leading zero omitted, Abs format (unit mm)*
G04 Created by KiCad (PCBNEW (5.0.1-3-g963ef8bb5)) date Friday, 08 February 2019 at 08:33:02*
%MOMM*%
%LPD*%
G01*
G04 APERTURE LIST*
G04 #@! TA.AperFunction,EtchedComponent*
%ADD10C,0.010000*%
G04 #@! TD*
G04 #@! TA.AperFunction,ComponentPad*
%ADD11O,1.550000X1.250000*%
G04 #@! TD*
G04 #@! TA.AperFunction,ComponentPad*
%ADD12O,1.300000X1.850000*%
G04 #@! TD*
G04 #@! TA.AperFunction,ComponentPad*
%ADD13R,2.000000X2.000000*%
G04 #@! TD*
G04 #@! TA.AperFunction,ComponentPad*
%ADD14C,2.000000*%
G04 #@! TD*
G04 #@! TA.AperFunction,BGAPad,CuDef*
%ADD15C,1.000000*%
G04 #@! TD*
G04 #@! TA.AperFunction,ViaPad*
%ADD16C,0.600000*%
G04 #@! TD*
G04 #@! TA.AperFunction,Conductor*
%ADD17C,0.300000*%
G04 #@! TD*
G04 #@! TA.AperFunction,Conductor*
%ADD18C,0.250000*%
G04 #@! TD*
G04 #@! TA.AperFunction,Conductor*
%ADD19C,0.254000*%
G04 #@! TD*
G04 APERTURE END LIST*
D10*
G04 #@! TO.C,P4*
G36*
X141298524Y-94596623D02*
X142158751Y-94849985D01*
X142988777Y-95253521D01*
X143606156Y-95676492D01*
X144254718Y-96290941D01*
X144795698Y-97026365D01*
X145215985Y-97863208D01*
X145378988Y-98320666D01*
X145523824Y-98980546D01*
X145583546Y-99712240D01*
X145558850Y-100455010D01*
X145450431Y-101148117D01*
X145342265Y-101524023D01*
X144944227Y-102424278D01*
X144426619Y-103206619D01*
X143783835Y-103878375D01*
X143199750Y-104325088D01*
X142411837Y-104754090D01*
X141546952Y-105049501D01*
X140642274Y-105202800D01*
X139734985Y-105205470D01*
X139480333Y-105177353D01*
X138617030Y-104988883D01*
X137827459Y-104664771D01*
X137089326Y-104193590D01*
X136429631Y-103613534D01*
X135810799Y-102895863D01*
X135352219Y-102132238D01*
X135048125Y-101308739D01*
X134892751Y-100411446D01*
X134868502Y-99844666D01*
X134876944Y-99735927D01*
X137325387Y-99735927D01*
X137388497Y-100052699D01*
X137446827Y-100155489D01*
X137553218Y-100254502D01*
X137778784Y-100428787D01*
X138100456Y-100661749D01*
X138495163Y-100936790D01*
X138939836Y-101237313D01*
X139076660Y-101328060D01*
X139554503Y-101643731D01*
X140012321Y-101946398D01*
X140421168Y-102216907D01*
X140752095Y-102436104D01*
X140976156Y-102584835D01*
X141004333Y-102603597D01*
X141400732Y-102816528D01*
X141732554Y-102879422D01*
X142011570Y-102793388D01*
X142120709Y-102708574D01*
X142252652Y-102498926D01*
X142318441Y-102224180D01*
X142306519Y-101961405D01*
X142251870Y-101833864D01*
X142167733Y-101766408D01*
X141967861Y-101623860D01*
X141678293Y-101423723D01*
X141325067Y-101183499D01*
X140934223Y-100920693D01*
X140531798Y-100652807D01*
X140143832Y-100397344D01*
X139796364Y-100171809D01*
X139515431Y-99993704D01*
X139501500Y-99985057D01*
X139341465Y-99868573D01*
X139270385Y-99782547D01*
X139270158Y-99779214D01*
X139338370Y-99716237D01*
X139527487Y-99577256D01*
X139815683Y-99377383D01*
X140181133Y-99131728D01*
X140602010Y-98855400D01*
X140643213Y-98828666D01*
X141080511Y-98542680D01*
X141476326Y-98279046D01*
X141805572Y-98054852D01*
X142043168Y-97887186D01*
X142164029Y-97793134D01*
X142165721Y-97791500D01*
X142280383Y-97577670D01*
X142313033Y-97293184D01*
X142262760Y-97016035D01*
X142176544Y-96866833D01*
X141951014Y-96741639D01*
X141686177Y-96712000D01*
X141547969Y-96722415D01*
X141398624Y-96761908D01*
X141215133Y-96842846D01*
X140974490Y-96977597D01*
X140653686Y-97178529D01*
X140229713Y-97458010D01*
X139953648Y-97643333D01*
X139528012Y-97929025D01*
X139152120Y-98179258D01*
X138847790Y-98379679D01*
X138636841Y-98515933D01*
X138541091Y-98573665D01*
X138538057Y-98574666D01*
X138430683Y-98623895D01*
X138235696Y-98750588D01*
X137995107Y-98923260D01*
X137750932Y-99110423D01*
X137545182Y-99280590D01*
X137419870Y-99402273D01*
X137404422Y-99424281D01*
X137325387Y-99735927D01*
X134876944Y-99735927D01*
X134941902Y-98899286D01*
X135163536Y-98029751D01*
X135379902Y-97517177D01*
X135866606Y-96706790D01*
X136459805Y-96015990D01*
X137142413Y-95448600D01*
X137897341Y-95008444D01*
X138707504Y-94699345D01*
X139555813Y-94525126D01*
X140425182Y-94489611D01*
X141298524Y-94596623D01*
X141298524Y-94596623D01*
G37*
X141298524Y-94596623D02*
X142158751Y-94849985D01*
X142988777Y-95253521D01*
X143606156Y-95676492D01*
X144254718Y-96290941D01*
X144795698Y-97026365D01*
X145215985Y-97863208D01*
X145378988Y-98320666D01*
X145523824Y-98980546D01*
X145583546Y-99712240D01*
X145558850Y-100455010D01*
X145450431Y-101148117D01*
X145342265Y-101524023D01*
X144944227Y-102424278D01*
X144426619Y-103206619D01*
X143783835Y-103878375D01*
X143199750Y-104325088D01*
X142411837Y-104754090D01*
X141546952Y-105049501D01*
X140642274Y-105202800D01*
X139734985Y-105205470D01*
X139480333Y-105177353D01*
X138617030Y-104988883D01*
X137827459Y-104664771D01*
X137089326Y-104193590D01*
X136429631Y-103613534D01*
X135810799Y-102895863D01*
X135352219Y-102132238D01*
X135048125Y-101308739D01*
X134892751Y-100411446D01*
X134868502Y-99844666D01*
X134876944Y-99735927D01*
X137325387Y-99735927D01*
X137388497Y-100052699D01*
X137446827Y-100155489D01*
X137553218Y-100254502D01*
X137778784Y-100428787D01*
X138100456Y-100661749D01*
X138495163Y-100936790D01*
X138939836Y-101237313D01*
X139076660Y-101328060D01*
X139554503Y-101643731D01*
X140012321Y-101946398D01*
X140421168Y-102216907D01*
X140752095Y-102436104D01*
X140976156Y-102584835D01*
X141004333Y-102603597D01*
X141400732Y-102816528D01*
X141732554Y-102879422D01*
X142011570Y-102793388D01*
X142120709Y-102708574D01*
X142252652Y-102498926D01*
X142318441Y-102224180D01*
X142306519Y-101961405D01*
X142251870Y-101833864D01*
X142167733Y-101766408D01*
X141967861Y-101623860D01*
X141678293Y-101423723D01*
X141325067Y-101183499D01*
X140934223Y-100920693D01*
X140531798Y-100652807D01*
X140143832Y-100397344D01*
X139796364Y-100171809D01*
X139515431Y-99993704D01*
X139501500Y-99985057D01*
X139341465Y-99868573D01*
X139270385Y-99782547D01*
X139270158Y-99779214D01*
X139338370Y-99716237D01*
X139527487Y-99577256D01*
X139815683Y-99377383D01*
X140181133Y-99131728D01*
X140602010Y-98855400D01*
X140643213Y-98828666D01*
X141080511Y-98542680D01*
X141476326Y-98279046D01*
X141805572Y-98054852D01*
X142043168Y-97887186D01*
X142164029Y-97793134D01*
X142165721Y-97791500D01*
X142280383Y-97577670D01*
X142313033Y-97293184D01*
X142262760Y-97016035D01*
X142176544Y-96866833D01*
X141951014Y-96741639D01*
X141686177Y-96712000D01*
X141547969Y-96722415D01*
X141398624Y-96761908D01*
X141215133Y-96842846D01*
X140974490Y-96977597D01*
X140653686Y-97178529D01*
X140229713Y-97458010D01*
X139953648Y-97643333D01*
X139528012Y-97929025D01*
X139152120Y-98179258D01*
X138847790Y-98379679D01*
X138636841Y-98515933D01*
X138541091Y-98573665D01*
X138538057Y-98574666D01*
X138430683Y-98623895D01*
X138235696Y-98750588D01*
X137995107Y-98923260D01*
X137750932Y-99110423D01*
X137545182Y-99280590D01*
X137419870Y-99402273D01*
X137404422Y-99424281D01*
X137325387Y-99735927D01*
X134876944Y-99735927D01*
X134941902Y-98899286D01*
X135163536Y-98029751D01*
X135379902Y-97517177D01*
X135866606Y-96706790D01*
X136459805Y-96015990D01*
X137142413Y-95448600D01*
X137897341Y-95008444D01*
X138707504Y-94699345D01*
X139555813Y-94525126D01*
X140425182Y-94489611D01*
X141298524Y-94596623D01*
G04 #@! TO.C,P5*
G36*
X185465430Y-94528083D02*
X185640000Y-94563759D01*
X186490574Y-94846248D01*
X187284402Y-95272807D01*
X188002096Y-95824200D01*
X188624271Y-96481187D01*
X189131540Y-97224531D01*
X189504517Y-98034993D01*
X189656842Y-98550000D01*
X189749012Y-99135878D01*
X189780937Y-99800906D01*
X189752598Y-100467350D01*
X189663974Y-101057475D01*
X189657504Y-101085522D01*
X189372416Y-101940486D01*
X188947311Y-102723025D01*
X188400216Y-103420660D01*
X187749156Y-104020916D01*
X187012157Y-104511315D01*
X186207244Y-104879380D01*
X185352443Y-105112635D01*
X184465779Y-105198602D01*
X183775451Y-105156941D01*
X182849520Y-104953480D01*
X181989725Y-104601006D01*
X181210505Y-104111756D01*
X180526302Y-103497966D01*
X179951557Y-102771874D01*
X179500712Y-101945717D01*
X179275678Y-101344000D01*
X179130842Y-100684120D01*
X179071120Y-99952425D01*
X179095816Y-99209655D01*
X179204234Y-98516549D01*
X179312401Y-98140643D01*
X179625471Y-97440486D01*
X182336225Y-97440486D01*
X182348147Y-97703261D01*
X182402796Y-97830802D01*
X182486933Y-97898257D01*
X182686805Y-98040805D01*
X182976373Y-98240943D01*
X183329599Y-98481167D01*
X183720443Y-98743973D01*
X184122868Y-99011859D01*
X184510833Y-99267321D01*
X184858302Y-99492857D01*
X185139235Y-99670962D01*
X185153166Y-99679609D01*
X185313201Y-99796093D01*
X185384281Y-99882118D01*
X185384507Y-99885451D01*
X185316296Y-99948429D01*
X185127179Y-100087409D01*
X184838982Y-100287282D01*
X184473533Y-100532938D01*
X184052656Y-100809266D01*
X184011453Y-100836000D01*
X183574154Y-101121986D01*
X183178340Y-101385620D01*
X182849093Y-101609813D01*
X182611498Y-101777480D01*
X182490637Y-101871532D01*
X182488945Y-101873166D01*
X182374283Y-102086996D01*
X182341632Y-102371481D01*
X182391906Y-102648631D01*
X182478122Y-102797833D01*
X182703651Y-102923026D01*
X182968489Y-102952666D01*
X183106697Y-102942250D01*
X183256042Y-102902758D01*
X183439532Y-102821820D01*
X183680176Y-102687069D01*
X184000979Y-102486137D01*
X184424952Y-102206655D01*
X184701018Y-102021333D01*
X185126654Y-101735641D01*
X185502546Y-101485408D01*
X185806875Y-101284987D01*
X186017824Y-101148733D01*
X186113575Y-101091000D01*
X186116609Y-101090000D01*
X186223982Y-101040771D01*
X186418970Y-100914077D01*
X186659558Y-100741405D01*
X186903734Y-100554243D01*
X187109484Y-100384076D01*
X187234795Y-100262393D01*
X187250244Y-100240384D01*
X187329251Y-99929879D01*
X187267487Y-99614365D01*
X187209063Y-99510924D01*
X187099058Y-99406386D01*
X186873195Y-99229309D01*
X186557830Y-98999070D01*
X186179317Y-98735052D01*
X185875563Y-98530325D01*
X185154937Y-98052250D01*
X184560919Y-97661255D01*
X184079163Y-97350581D01*
X183695322Y-97113469D01*
X183395051Y-96943162D01*
X183164004Y-96832901D01*
X182987833Y-96775927D01*
X182852193Y-96765482D01*
X182742738Y-96794807D01*
X182645121Y-96857143D01*
X182544996Y-96945733D01*
X182533956Y-96956091D01*
X182402013Y-97165740D01*
X182336225Y-97440486D01*
X179625471Y-97440486D01*
X179711470Y-97248158D01*
X180236389Y-96457699D01*
X180875851Y-95780493D01*
X181618552Y-95227765D01*
X182453183Y-94810740D01*
X182785505Y-94692291D01*
X183408148Y-94545880D01*
X184108269Y-94467640D01*
X184816989Y-94460674D01*
X185465430Y-94528083D01*
X185465430Y-94528083D01*
G37*
X185465430Y-94528083D02*
X185640000Y-94563759D01*
X186490574Y-94846248D01*
X187284402Y-95272807D01*
X188002096Y-95824200D01*
X188624271Y-96481187D01*
X189131540Y-97224531D01*
X189504517Y-98034993D01*
X189656842Y-98550000D01*
X189749012Y-99135878D01*
X189780937Y-99800906D01*
X189752598Y-100467350D01*
X189663974Y-101057475D01*
X189657504Y-101085522D01*
X189372416Y-101940486D01*
X188947311Y-102723025D01*
X188400216Y-103420660D01*
X187749156Y-104020916D01*
X187012157Y-104511315D01*
X186207244Y-104879380D01*
X185352443Y-105112635D01*
X184465779Y-105198602D01*
X183775451Y-105156941D01*
X182849520Y-104953480D01*
X181989725Y-104601006D01*
X181210505Y-104111756D01*
X180526302Y-103497966D01*
X179951557Y-102771874D01*
X179500712Y-101945717D01*
X179275678Y-101344000D01*
X179130842Y-100684120D01*
X179071120Y-99952425D01*
X179095816Y-99209655D01*
X179204234Y-98516549D01*
X179312401Y-98140643D01*
X179625471Y-97440486D01*
X182336225Y-97440486D01*
X182348147Y-97703261D01*
X182402796Y-97830802D01*
X182486933Y-97898257D01*
X182686805Y-98040805D01*
X182976373Y-98240943D01*
X183329599Y-98481167D01*
X183720443Y-98743973D01*
X184122868Y-99011859D01*
X184510833Y-99267321D01*
X184858302Y-99492857D01*
X185139235Y-99670962D01*
X185153166Y-99679609D01*
X185313201Y-99796093D01*
X185384281Y-99882118D01*
X185384507Y-99885451D01*
X185316296Y-99948429D01*
X185127179Y-100087409D01*
X184838982Y-100287282D01*
X184473533Y-100532938D01*
X184052656Y-100809266D01*
X184011453Y-100836000D01*
X183574154Y-101121986D01*
X183178340Y-101385620D01*
X182849093Y-101609813D01*
X182611498Y-101777480D01*
X182490637Y-101871532D01*
X182488945Y-101873166D01*
X182374283Y-102086996D01*
X182341632Y-102371481D01*
X182391906Y-102648631D01*
X182478122Y-102797833D01*
X182703651Y-102923026D01*
X182968489Y-102952666D01*
X183106697Y-102942250D01*
X183256042Y-102902758D01*
X183439532Y-102821820D01*
X183680176Y-102687069D01*
X184000979Y-102486137D01*
X184424952Y-102206655D01*
X184701018Y-102021333D01*
X185126654Y-101735641D01*
X185502546Y-101485408D01*
X185806875Y-101284987D01*
X186017824Y-101148733D01*
X186113575Y-101091000D01*
X186116609Y-101090000D01*
X186223982Y-101040771D01*
X186418970Y-100914077D01*
X186659558Y-100741405D01*
X186903734Y-100554243D01*
X187109484Y-100384076D01*
X187234795Y-100262393D01*
X187250244Y-100240384D01*
X187329251Y-99929879D01*
X187267487Y-99614365D01*
X187209063Y-99510924D01*
X187099058Y-99406386D01*
X186873195Y-99229309D01*
X186557830Y-98999070D01*
X186179317Y-98735052D01*
X185875563Y-98530325D01*
X185154937Y-98052250D01*
X184560919Y-97661255D01*
X184079163Y-97350581D01*
X183695322Y-97113469D01*
X183395051Y-96943162D01*
X183164004Y-96832901D01*
X182987833Y-96775927D01*
X182852193Y-96765482D01*
X182742738Y-96794807D01*
X182645121Y-96857143D01*
X182544996Y-96945733D01*
X182533956Y-96956091D01*
X182402013Y-97165740D01*
X182336225Y-97440486D01*
X179625471Y-97440486D01*
X179711470Y-97248158D01*
X180236389Y-96457699D01*
X180875851Y-95780493D01*
X181618552Y-95227765D01*
X182453183Y-94810740D01*
X182785505Y-94692291D01*
X183408148Y-94545880D01*
X184108269Y-94467640D01*
X184816989Y-94460674D01*
X185465430Y-94528083D01*
G04 #@! TO.C,P10*
G36*
X162801355Y-75664523D02*
X163656624Y-75796793D01*
X164450157Y-76048128D01*
X164697489Y-76159902D01*
X165508040Y-76647812D01*
X166201962Y-77246440D01*
X166773513Y-77938526D01*
X167216949Y-78706810D01*
X167526528Y-79534033D01*
X167696507Y-80402935D01*
X167721142Y-81296258D01*
X167594692Y-82196740D01*
X167311413Y-83087123D01*
X167132371Y-83477666D01*
X166651562Y-84246290D01*
X166039353Y-84923130D01*
X165316369Y-85490980D01*
X164503239Y-85932632D01*
X163936333Y-86143821D01*
X163504168Y-86245948D01*
X162987377Y-86320323D01*
X162443376Y-86363005D01*
X161929580Y-86370052D01*
X161503406Y-86337525D01*
X161395478Y-86318235D01*
X160465632Y-86037513D01*
X159616165Y-85619451D01*
X158860966Y-85076321D01*
X158213927Y-84420395D01*
X157688940Y-83663944D01*
X157299894Y-82819242D01*
X157242291Y-82649161D01*
X157226610Y-82582473D01*
X159315482Y-82582473D01*
X159344807Y-82691928D01*
X159407143Y-82789545D01*
X159495733Y-82889670D01*
X159506091Y-82900709D01*
X159715740Y-83032652D01*
X159990486Y-83098441D01*
X160253261Y-83086519D01*
X160380802Y-83031870D01*
X160448257Y-82947733D01*
X160590805Y-82747861D01*
X160790943Y-82458293D01*
X161031167Y-82105067D01*
X161293973Y-81714223D01*
X161561859Y-81311798D01*
X161817321Y-80923832D01*
X162042857Y-80576364D01*
X162220962Y-80295431D01*
X162229609Y-80281500D01*
X162346093Y-80121465D01*
X162432118Y-80050385D01*
X162435451Y-80050158D01*
X162498429Y-80118370D01*
X162637409Y-80307487D01*
X162837282Y-80595683D01*
X163082938Y-80961133D01*
X163359266Y-81382010D01*
X163386000Y-81423213D01*
X163671986Y-81860511D01*
X163935620Y-82256326D01*
X164159813Y-82585572D01*
X164327480Y-82823168D01*
X164421532Y-82944029D01*
X164423166Y-82945721D01*
X164636996Y-83060383D01*
X164921481Y-83093033D01*
X165198631Y-83042760D01*
X165347833Y-82956544D01*
X165473026Y-82731014D01*
X165502666Y-82466177D01*
X165492250Y-82327969D01*
X165452758Y-82178624D01*
X165371820Y-81995133D01*
X165237069Y-81754490D01*
X165036137Y-81433686D01*
X164756655Y-81009713D01*
X164571333Y-80733648D01*
X164285641Y-80308012D01*
X164035408Y-79932120D01*
X163834987Y-79627790D01*
X163698733Y-79416841D01*
X163641000Y-79321091D01*
X163640000Y-79318057D01*
X163590771Y-79210683D01*
X163464077Y-79015696D01*
X163291405Y-78775107D01*
X163104243Y-78530932D01*
X162934076Y-78325182D01*
X162812393Y-78199870D01*
X162790384Y-78184422D01*
X162479879Y-78105414D01*
X162164365Y-78167179D01*
X162060924Y-78225603D01*
X161956386Y-78335608D01*
X161779309Y-78561470D01*
X161549070Y-78876836D01*
X161285052Y-79255349D01*
X161080325Y-79559103D01*
X160602250Y-80279729D01*
X160211255Y-80873747D01*
X159900581Y-81355503D01*
X159663469Y-81739343D01*
X159493162Y-82039614D01*
X159382901Y-82270662D01*
X159325927Y-82446833D01*
X159315482Y-82582473D01*
X157226610Y-82582473D01*
X157095880Y-82026518D01*
X157017640Y-81326397D01*
X157010674Y-80617677D01*
X157078083Y-79969236D01*
X157113759Y-79794666D01*
X157396248Y-78944091D01*
X157822807Y-78150264D01*
X158374200Y-77432570D01*
X159031187Y-76810395D01*
X159774531Y-76303126D01*
X160584993Y-75930149D01*
X161100000Y-75777823D01*
X161932947Y-75656479D01*
X162801355Y-75664523D01*
X162801355Y-75664523D01*
G37*
X162801355Y-75664523D02*
X163656624Y-75796793D01*
X164450157Y-76048128D01*
X164697489Y-76159902D01*
X165508040Y-76647812D01*
X166201962Y-77246440D01*
X166773513Y-77938526D01*
X167216949Y-78706810D01*
X167526528Y-79534033D01*
X167696507Y-80402935D01*
X167721142Y-81296258D01*
X167594692Y-82196740D01*
X167311413Y-83087123D01*
X167132371Y-83477666D01*
X166651562Y-84246290D01*
X166039353Y-84923130D01*
X165316369Y-85490980D01*
X164503239Y-85932632D01*
X163936333Y-86143821D01*
X163504168Y-86245948D01*
X162987377Y-86320323D01*
X162443376Y-86363005D01*
X161929580Y-86370052D01*
X161503406Y-86337525D01*
X161395478Y-86318235D01*
X160465632Y-86037513D01*
X159616165Y-85619451D01*
X158860966Y-85076321D01*
X158213927Y-84420395D01*
X157688940Y-83663944D01*
X157299894Y-82819242D01*
X157242291Y-82649161D01*
X157226610Y-82582473D01*
X159315482Y-82582473D01*
X159344807Y-82691928D01*
X159407143Y-82789545D01*
X159495733Y-82889670D01*
X159506091Y-82900709D01*
X159715740Y-83032652D01*
X159990486Y-83098441D01*
X160253261Y-83086519D01*
X160380802Y-83031870D01*
X160448257Y-82947733D01*
X160590805Y-82747861D01*
X160790943Y-82458293D01*
X161031167Y-82105067D01*
X161293973Y-81714223D01*
X161561859Y-81311798D01*
X161817321Y-80923832D01*
X162042857Y-80576364D01*
X162220962Y-80295431D01*
X162229609Y-80281500D01*
X162346093Y-80121465D01*
X162432118Y-80050385D01*
X162435451Y-80050158D01*
X162498429Y-80118370D01*
X162637409Y-80307487D01*
X162837282Y-80595683D01*
X163082938Y-80961133D01*
X163359266Y-81382010D01*
X163386000Y-81423213D01*
X163671986Y-81860511D01*
X163935620Y-82256326D01*
X164159813Y-82585572D01*
X164327480Y-82823168D01*
X164421532Y-82944029D01*
X164423166Y-82945721D01*
X164636996Y-83060383D01*
X164921481Y-83093033D01*
X165198631Y-83042760D01*
X165347833Y-82956544D01*
X165473026Y-82731014D01*
X165502666Y-82466177D01*
X165492250Y-82327969D01*
X165452758Y-82178624D01*
X165371820Y-81995133D01*
X165237069Y-81754490D01*
X165036137Y-81433686D01*
X164756655Y-81009713D01*
X164571333Y-80733648D01*
X164285641Y-80308012D01*
X164035408Y-79932120D01*
X163834987Y-79627790D01*
X163698733Y-79416841D01*
X163641000Y-79321091D01*
X163640000Y-79318057D01*
X163590771Y-79210683D01*
X163464077Y-79015696D01*
X163291405Y-78775107D01*
X163104243Y-78530932D01*
X162934076Y-78325182D01*
X162812393Y-78199870D01*
X162790384Y-78184422D01*
X162479879Y-78105414D01*
X162164365Y-78167179D01*
X162060924Y-78225603D01*
X161956386Y-78335608D01*
X161779309Y-78561470D01*
X161549070Y-78876836D01*
X161285052Y-79255349D01*
X161080325Y-79559103D01*
X160602250Y-80279729D01*
X160211255Y-80873747D01*
X159900581Y-81355503D01*
X159663469Y-81739343D01*
X159493162Y-82039614D01*
X159382901Y-82270662D01*
X159325927Y-82446833D01*
X159315482Y-82582473D01*
X157226610Y-82582473D01*
X157095880Y-82026518D01*
X157017640Y-81326397D01*
X157010674Y-80617677D01*
X157078083Y-79969236D01*
X157113759Y-79794666D01*
X157396248Y-78944091D01*
X157822807Y-78150264D01*
X158374200Y-77432570D01*
X159031187Y-76810395D01*
X159774531Y-76303126D01*
X160584993Y-75930149D01*
X161100000Y-75777823D01*
X161932947Y-75656479D01*
X162801355Y-75664523D01*
G04 #@! TO.C,P11*
G36*
X162905010Y-113175816D02*
X163598117Y-113284234D01*
X163974023Y-113392401D01*
X164866508Y-113791470D01*
X165656966Y-114316389D01*
X166334172Y-114955851D01*
X166886901Y-115698552D01*
X167303925Y-116533183D01*
X167422374Y-116865505D01*
X167568786Y-117488148D01*
X167647025Y-118188269D01*
X167653991Y-118896989D01*
X167586583Y-119545430D01*
X167550906Y-119720000D01*
X167268418Y-120570574D01*
X166841858Y-121364402D01*
X166290466Y-122082096D01*
X165633478Y-122704271D01*
X164890135Y-123211540D01*
X164079673Y-123584517D01*
X163564666Y-123736842D01*
X163049079Y-123818740D01*
X162445109Y-123854036D01*
X161823536Y-123842816D01*
X161255143Y-123785166D01*
X160990895Y-123733712D01*
X160169057Y-123451008D01*
X159390004Y-123020770D01*
X158679430Y-122463932D01*
X158063032Y-121801429D01*
X157566506Y-121054195D01*
X157467256Y-120863000D01*
X157162961Y-120099162D01*
X156991393Y-119298651D01*
X156942412Y-118450000D01*
X157028648Y-117513130D01*
X157154958Y-117048489D01*
X159162000Y-117048489D01*
X159172415Y-117186697D01*
X159211908Y-117336042D01*
X159292846Y-117519532D01*
X159427597Y-117760176D01*
X159628529Y-118080979D01*
X159908010Y-118504952D01*
X160093333Y-118781018D01*
X160379025Y-119206654D01*
X160629258Y-119582546D01*
X160829679Y-119886875D01*
X160965933Y-120097824D01*
X161023665Y-120193575D01*
X161024666Y-120196609D01*
X161073048Y-120299647D01*
X161197500Y-120491751D01*
X161366985Y-120730831D01*
X161550463Y-120974799D01*
X161716897Y-121181566D01*
X161835247Y-121309044D01*
X161857554Y-121326019D01*
X162140934Y-121405489D01*
X162448611Y-121365899D01*
X162603742Y-121289063D01*
X162708279Y-121179058D01*
X162885357Y-120953195D01*
X163115595Y-120637830D01*
X163379614Y-120259317D01*
X163584341Y-119955563D01*
X164062416Y-119234937D01*
X164453411Y-118640919D01*
X164764085Y-118159163D01*
X165001196Y-117775322D01*
X165171503Y-117475051D01*
X165281764Y-117244004D01*
X165338738Y-117067833D01*
X165349184Y-116932193D01*
X165319859Y-116822738D01*
X165257523Y-116725121D01*
X165168933Y-116624996D01*
X165158574Y-116613956D01*
X164948926Y-116482013D01*
X164674180Y-116416225D01*
X164411405Y-116428147D01*
X164283864Y-116482796D01*
X164216408Y-116566933D01*
X164073860Y-116766805D01*
X163873723Y-117056373D01*
X163633499Y-117409599D01*
X163370693Y-117800443D01*
X163102807Y-118202868D01*
X162847344Y-118590833D01*
X162621809Y-118938302D01*
X162443704Y-119219235D01*
X162435057Y-119233166D01*
X162318573Y-119393201D01*
X162232547Y-119464281D01*
X162229214Y-119464507D01*
X162166237Y-119396296D01*
X162027256Y-119207179D01*
X161827383Y-118918982D01*
X161581728Y-118553533D01*
X161305400Y-118132656D01*
X161278666Y-118091453D01*
X160992680Y-117654154D01*
X160729046Y-117258340D01*
X160504852Y-116929093D01*
X160337186Y-116691498D01*
X160243134Y-116570637D01*
X160241500Y-116568945D01*
X160027670Y-116454283D01*
X159743184Y-116421632D01*
X159466035Y-116471906D01*
X159316833Y-116558122D01*
X159191639Y-116783651D01*
X159162000Y-117048489D01*
X157154958Y-117048489D01*
X157269260Y-116628025D01*
X157653484Y-115809012D01*
X158170551Y-115070417D01*
X158809696Y-114426568D01*
X159560153Y-113891791D01*
X160411155Y-113480412D01*
X160770666Y-113355678D01*
X161430546Y-113210842D01*
X162162240Y-113151120D01*
X162905010Y-113175816D01*
X162905010Y-113175816D01*
G37*
X162905010Y-113175816D02*
X163598117Y-113284234D01*
X163974023Y-113392401D01*
X164866508Y-113791470D01*
X165656966Y-114316389D01*
X166334172Y-114955851D01*
X166886901Y-115698552D01*
X167303925Y-116533183D01*
X167422374Y-116865505D01*
X167568786Y-117488148D01*
X167647025Y-118188269D01*
X167653991Y-118896989D01*
X167586583Y-119545430D01*
X167550906Y-119720000D01*
X167268418Y-120570574D01*
X166841858Y-121364402D01*
X166290466Y-122082096D01*
X165633478Y-122704271D01*
X164890135Y-123211540D01*
X164079673Y-123584517D01*
X163564666Y-123736842D01*
X163049079Y-123818740D01*
X162445109Y-123854036D01*
X161823536Y-123842816D01*
X161255143Y-123785166D01*
X160990895Y-123733712D01*
X160169057Y-123451008D01*
X159390004Y-123020770D01*
X158679430Y-122463932D01*
X158063032Y-121801429D01*
X157566506Y-121054195D01*
X157467256Y-120863000D01*
X157162961Y-120099162D01*
X156991393Y-119298651D01*
X156942412Y-118450000D01*
X157028648Y-117513130D01*
X157154958Y-117048489D01*
X159162000Y-117048489D01*
X159172415Y-117186697D01*
X159211908Y-117336042D01*
X159292846Y-117519532D01*
X159427597Y-117760176D01*
X159628529Y-118080979D01*
X159908010Y-118504952D01*
X160093333Y-118781018D01*
X160379025Y-119206654D01*
X160629258Y-119582546D01*
X160829679Y-119886875D01*
X160965933Y-120097824D01*
X161023665Y-120193575D01*
X161024666Y-120196609D01*
X161073048Y-120299647D01*
X161197500Y-120491751D01*
X161366985Y-120730831D01*
X161550463Y-120974799D01*
X161716897Y-121181566D01*
X161835247Y-121309044D01*
X161857554Y-121326019D01*
X162140934Y-121405489D01*
X162448611Y-121365899D01*
X162603742Y-121289063D01*
X162708279Y-121179058D01*
X162885357Y-120953195D01*
X163115595Y-120637830D01*
X163379614Y-120259317D01*
X163584341Y-119955563D01*
X164062416Y-119234937D01*
X164453411Y-118640919D01*
X164764085Y-118159163D01*
X165001196Y-117775322D01*
X165171503Y-117475051D01*
X165281764Y-117244004D01*
X165338738Y-117067833D01*
X165349184Y-116932193D01*
X165319859Y-116822738D01*
X165257523Y-116725121D01*
X165168933Y-116624996D01*
X165158574Y-116613956D01*
X164948926Y-116482013D01*
X164674180Y-116416225D01*
X164411405Y-116428147D01*
X164283864Y-116482796D01*
X164216408Y-116566933D01*
X164073860Y-116766805D01*
X163873723Y-117056373D01*
X163633499Y-117409599D01*
X163370693Y-117800443D01*
X163102807Y-118202868D01*
X162847344Y-118590833D01*
X162621809Y-118938302D01*
X162443704Y-119219235D01*
X162435057Y-119233166D01*
X162318573Y-119393201D01*
X162232547Y-119464281D01*
X162229214Y-119464507D01*
X162166237Y-119396296D01*
X162027256Y-119207179D01*
X161827383Y-118918982D01*
X161581728Y-118553533D01*
X161305400Y-118132656D01*
X161278666Y-118091453D01*
X160992680Y-117654154D01*
X160729046Y-117258340D01*
X160504852Y-116929093D01*
X160337186Y-116691498D01*
X160243134Y-116570637D01*
X160241500Y-116568945D01*
X160027670Y-116454283D01*
X159743184Y-116421632D01*
X159466035Y-116471906D01*
X159316833Y-116558122D01*
X159191639Y-116783651D01*
X159162000Y-117048489D01*
X157154958Y-117048489D01*
X157269260Y-116628025D01*
X157653484Y-115809012D01*
X158170551Y-115070417D01*
X158809696Y-114426568D01*
X159560153Y-113891791D01*
X160411155Y-113480412D01*
X160770666Y-113355678D01*
X161430546Y-113210842D01*
X162162240Y-113151120D01*
X162905010Y-113175816D01*
G04 #@! TO.C,P2*
G36*
X163067989Y-93151201D02*
X163501919Y-93191849D01*
X163764000Y-93242826D01*
X164847228Y-93622621D01*
X165808623Y-94119468D01*
X166650234Y-94734977D01*
X167374111Y-95470760D01*
X167982303Y-96328427D01*
X168209156Y-96735848D01*
X168600018Y-97671662D01*
X168843413Y-98662924D01*
X168938779Y-99682909D01*
X168885560Y-100704891D01*
X168683194Y-101702146D01*
X168332826Y-102644313D01*
X167826547Y-103530719D01*
X167184089Y-104333465D01*
X166425043Y-105035306D01*
X165568997Y-105618994D01*
X164635539Y-106067283D01*
X164314333Y-106182405D01*
X163755842Y-106319377D01*
X163090574Y-106409073D01*
X162374876Y-106449650D01*
X161665095Y-106439264D01*
X161017579Y-106376071D01*
X160643600Y-106302505D01*
X159677246Y-105973386D01*
X158768411Y-105496974D01*
X157937995Y-104890122D01*
X157206899Y-104169680D01*
X156596025Y-103352499D01*
X156427691Y-103052704D01*
X158615684Y-103052704D01*
X158724192Y-103326517D01*
X158726331Y-103330663D01*
X158888738Y-103568206D01*
X159096741Y-103696200D01*
X159395756Y-103735429D01*
X159594817Y-103728169D01*
X159946935Y-103671980D01*
X160197812Y-103547063D01*
X160262485Y-103492980D01*
X160435956Y-103287802D01*
X160608703Y-103014187D01*
X160663082Y-102907333D01*
X160723722Y-102763033D01*
X160769832Y-102606721D01*
X160803954Y-102412002D01*
X160828629Y-102152482D01*
X160846398Y-101801765D01*
X160859804Y-101333456D01*
X160870929Y-100748583D01*
X160886258Y-100068888D01*
X160907006Y-99551606D01*
X160933648Y-99189888D01*
X160966662Y-98976888D01*
X160998847Y-98908379D01*
X161219224Y-98847570D01*
X161489817Y-98868040D01*
X161717787Y-98960468D01*
X161746499Y-98983455D01*
X161804575Y-99051939D01*
X161846168Y-99153363D01*
X161873959Y-99314156D01*
X161890625Y-99560745D01*
X161898845Y-99919560D01*
X161901297Y-100417029D01*
X161901333Y-100511304D01*
X161902144Y-101025743D01*
X161907042Y-101398767D01*
X161919720Y-101658297D01*
X161943875Y-101832250D01*
X161983201Y-101948545D01*
X162041394Y-102035101D01*
X162113019Y-102110716D01*
X162245418Y-102224726D01*
X162388291Y-102285107D01*
X162595445Y-102304683D01*
X162896186Y-102297367D01*
X163467666Y-102272333D01*
X163510000Y-100623254D01*
X163552333Y-98974175D01*
X163785166Y-98892410D01*
X164119745Y-98860268D01*
X164250833Y-98892318D01*
X164483666Y-98973991D01*
X164529200Y-100411495D01*
X164548321Y-100897300D01*
X164572398Y-101331265D01*
X164599137Y-101681918D01*
X164626243Y-101917788D01*
X164644995Y-101999518D01*
X164783800Y-102173431D01*
X165019833Y-102274407D01*
X165382209Y-102313341D01*
X165487175Y-102314666D01*
X165744282Y-102315388D01*
X165933030Y-102302498D01*
X166063945Y-102253411D01*
X166147551Y-102145542D01*
X166194371Y-101956306D01*
X166214930Y-101663119D01*
X166219751Y-101243395D01*
X166219333Y-100743442D01*
X166213876Y-100225063D01*
X166198785Y-99732202D01*
X166175983Y-99303971D01*
X166147390Y-98979480D01*
X166125735Y-98838569D01*
X165944782Y-98379621D01*
X165630791Y-98002004D01*
X165211973Y-97735360D01*
X165005887Y-97661981D01*
X164587134Y-97593707D01*
X164107063Y-97590189D01*
X163633572Y-97646416D01*
X163234558Y-97757373D01*
X163141386Y-97799628D01*
X162936399Y-97897912D01*
X162793662Y-97923069D01*
X162634860Y-97874133D01*
X162464195Y-97791270D01*
X162301693Y-97720757D01*
X162119763Y-97670396D01*
X161885189Y-97636156D01*
X161564753Y-97614005D01*
X161125238Y-97599912D01*
X160843000Y-97594502D01*
X160381670Y-97589872D01*
X159968385Y-97591398D01*
X159638540Y-97598528D01*
X159427533Y-97610709D01*
X159382500Y-97617282D01*
X159192000Y-97661226D01*
X159192000Y-99949817D01*
X159189987Y-100702671D01*
X159182159Y-101304210D01*
X159165831Y-101772423D01*
X159138318Y-102125300D01*
X159096935Y-102380829D01*
X159038997Y-102557000D01*
X158961819Y-102671803D01*
X158862718Y-102743226D01*
X158769595Y-102780038D01*
X158630308Y-102877036D01*
X158615684Y-103052704D01*
X156427691Y-103052704D01*
X156274755Y-102780333D01*
X156004926Y-102195631D01*
X155815275Y-101677555D01*
X155693130Y-101170480D01*
X155625817Y-100618783D01*
X155600661Y-99966839D01*
X155599565Y-99817000D01*
X155613839Y-99134921D01*
X155669521Y-98564241D01*
X155778167Y-98049675D01*
X155951334Y-97535941D01*
X156190910Y-96988181D01*
X156580324Y-96303333D01*
X159192000Y-96303333D01*
X159263325Y-96658333D01*
X159452937Y-96929713D01*
X159724287Y-97102325D01*
X160040830Y-97161025D01*
X160366017Y-97090667D01*
X160637846Y-96902512D01*
X160838377Y-96601097D01*
X160896111Y-96275173D01*
X160826194Y-95961289D01*
X160643770Y-95695990D01*
X160363987Y-95515824D01*
X160038666Y-95456666D01*
X159669972Y-95530839D01*
X159390564Y-95736493D01*
X159225737Y-96048334D01*
X159192000Y-96303333D01*
X156580324Y-96303333D01*
X156725910Y-96047298D01*
X157385516Y-95217269D01*
X158159248Y-94506841D01*
X159036628Y-93924761D01*
X160007175Y-93479775D01*
X160631333Y-93281834D01*
X160995930Y-93213163D01*
X161469395Y-93165173D01*
X162004227Y-93138455D01*
X162552925Y-93133600D01*
X163067989Y-93151201D01*
X163067989Y-93151201D01*
G37*
X163067989Y-93151201D02*
X163501919Y-93191849D01*
X163764000Y-93242826D01*
X164847228Y-93622621D01*
X165808623Y-94119468D01*
X166650234Y-94734977D01*
X167374111Y-95470760D01*
X167982303Y-96328427D01*
X168209156Y-96735848D01*
X168600018Y-97671662D01*
X168843413Y-98662924D01*
X168938779Y-99682909D01*
X168885560Y-100704891D01*
X168683194Y-101702146D01*
X168332826Y-102644313D01*
X167826547Y-103530719D01*
X167184089Y-104333465D01*
X166425043Y-105035306D01*
X165568997Y-105618994D01*
X164635539Y-106067283D01*
X164314333Y-106182405D01*
X163755842Y-106319377D01*
X163090574Y-106409073D01*
X162374876Y-106449650D01*
X161665095Y-106439264D01*
X161017579Y-106376071D01*
X160643600Y-106302505D01*
X159677246Y-105973386D01*
X158768411Y-105496974D01*
X157937995Y-104890122D01*
X157206899Y-104169680D01*
X156596025Y-103352499D01*
X156427691Y-103052704D01*
X158615684Y-103052704D01*
X158724192Y-103326517D01*
X158726331Y-103330663D01*
X158888738Y-103568206D01*
X159096741Y-103696200D01*
X159395756Y-103735429D01*
X159594817Y-103728169D01*
X159946935Y-103671980D01*
X160197812Y-103547063D01*
X160262485Y-103492980D01*
X160435956Y-103287802D01*
X160608703Y-103014187D01*
X160663082Y-102907333D01*
X160723722Y-102763033D01*
X160769832Y-102606721D01*
X160803954Y-102412002D01*
X160828629Y-102152482D01*
X160846398Y-101801765D01*
X160859804Y-101333456D01*
X160870929Y-100748583D01*
X160886258Y-100068888D01*
X160907006Y-99551606D01*
X160933648Y-99189888D01*
X160966662Y-98976888D01*
X160998847Y-98908379D01*
X161219224Y-98847570D01*
X161489817Y-98868040D01*
X161717787Y-98960468D01*
X161746499Y-98983455D01*
X161804575Y-99051939D01*
X161846168Y-99153363D01*
X161873959Y-99314156D01*
X161890625Y-99560745D01*
X161898845Y-99919560D01*
X161901297Y-100417029D01*
X161901333Y-100511304D01*
X161902144Y-101025743D01*
X161907042Y-101398767D01*
X161919720Y-101658297D01*
X161943875Y-101832250D01*
X161983201Y-101948545D01*
X162041394Y-102035101D01*
X162113019Y-102110716D01*
X162245418Y-102224726D01*
X162388291Y-102285107D01*
X162595445Y-102304683D01*
X162896186Y-102297367D01*
X163467666Y-102272333D01*
X163510000Y-100623254D01*
X163552333Y-98974175D01*
X163785166Y-98892410D01*
X164119745Y-98860268D01*
X164250833Y-98892318D01*
X164483666Y-98973991D01*
X164529200Y-100411495D01*
X164548321Y-100897300D01*
X164572398Y-101331265D01*
X164599137Y-101681918D01*
X164626243Y-101917788D01*
X164644995Y-101999518D01*
X164783800Y-102173431D01*
X165019833Y-102274407D01*
X165382209Y-102313341D01*
X165487175Y-102314666D01*
X165744282Y-102315388D01*
X165933030Y-102302498D01*
X166063945Y-102253411D01*
X166147551Y-102145542D01*
X166194371Y-101956306D01*
X166214930Y-101663119D01*
X166219751Y-101243395D01*
X166219333Y-100743442D01*
X166213876Y-100225063D01*
X166198785Y-99732202D01*
X166175983Y-99303971D01*
X166147390Y-98979480D01*
X166125735Y-98838569D01*
X165944782Y-98379621D01*
X165630791Y-98002004D01*
X165211973Y-97735360D01*
X165005887Y-97661981D01*
X164587134Y-97593707D01*
X164107063Y-97590189D01*
X163633572Y-97646416D01*
X163234558Y-97757373D01*
X163141386Y-97799628D01*
X162936399Y-97897912D01*
X162793662Y-97923069D01*
X162634860Y-97874133D01*
X162464195Y-97791270D01*
X162301693Y-97720757D01*
X162119763Y-97670396D01*
X161885189Y-97636156D01*
X161564753Y-97614005D01*
X161125238Y-97599912D01*
X160843000Y-97594502D01*
X160381670Y-97589872D01*
X159968385Y-97591398D01*
X159638540Y-97598528D01*
X159427533Y-97610709D01*
X159382500Y-97617282D01*
X159192000Y-97661226D01*
X159192000Y-99949817D01*
X159189987Y-100702671D01*
X159182159Y-101304210D01*
X159165831Y-101772423D01*
X159138318Y-102125300D01*
X159096935Y-102380829D01*
X159038997Y-102557000D01*
X158961819Y-102671803D01*
X158862718Y-102743226D01*
X158769595Y-102780038D01*
X158630308Y-102877036D01*
X158615684Y-103052704D01*
X156427691Y-103052704D01*
X156274755Y-102780333D01*
X156004926Y-102195631D01*
X155815275Y-101677555D01*
X155693130Y-101170480D01*
X155625817Y-100618783D01*
X155600661Y-99966839D01*
X155599565Y-99817000D01*
X155613839Y-99134921D01*
X155669521Y-98564241D01*
X155778167Y-98049675D01*
X155951334Y-97535941D01*
X156190910Y-96988181D01*
X156580324Y-96303333D01*
X159192000Y-96303333D01*
X159263325Y-96658333D01*
X159452937Y-96929713D01*
X159724287Y-97102325D01*
X160040830Y-97161025D01*
X160366017Y-97090667D01*
X160637846Y-96902512D01*
X160838377Y-96601097D01*
X160896111Y-96275173D01*
X160826194Y-95961289D01*
X160643770Y-95695990D01*
X160363987Y-95515824D01*
X160038666Y-95456666D01*
X159669972Y-95530839D01*
X159390564Y-95736493D01*
X159225737Y-96048334D01*
X159192000Y-96303333D01*
X156580324Y-96303333D01*
X156725910Y-96047298D01*
X157385516Y-95217269D01*
X158159248Y-94506841D01*
X159036628Y-93924761D01*
X160007175Y-93479775D01*
X160631333Y-93281834D01*
X160995930Y-93213163D01*
X161469395Y-93165173D01*
X162004227Y-93138455D01*
X162552925Y-93133600D01*
X163067989Y-93151201D01*
G04 #@! TD*
D11*
G04 #@! TO.P,P1,6*
G04 #@! TO.N,Net-(P1-Pad6)*
X159805100Y-77000540D03*
X164805100Y-77000540D03*
D12*
X158805100Y-74300540D03*
X165805100Y-74300540D03*
G04 #@! TD*
D13*
G04 #@! TO.P,P3,1*
G04 #@! TO.N,GND*
X141224000Y-74168000D03*
D14*
G04 #@! TO.P,P3,2*
G04 #@! TO.N,VCC*
X141224000Y-76708000D03*
G04 #@! TO.P,P3,3*
G04 #@! TO.N,SCLK*
X141224000Y-79248000D03*
G04 #@! TD*
D13*
G04 #@! TO.P,P8,1*
G04 #@! TO.N,RESET*
X154178000Y-73914000D03*
G04 #@! TD*
G04 #@! TO.P,P9,1*
G04 #@! TO.N,MOSI*
X147828000Y-74168000D03*
D14*
G04 #@! TO.P,P9,2*
G04 #@! TO.N,MISO*
X147828000Y-76708000D03*
G04 #@! TD*
D15*
G04 #@! TO.P,P4,1*
G04 #@! TO.N,leftArrSens*
X142740000Y-99760000D03*
G04 #@! TD*
G04 #@! TO.P,P5,1*
G04 #@! TO.N,rightArrSens*
X181830000Y-99820000D03*
G04 #@! TD*
G04 #@! TO.P,P10,1*
G04 #@! TO.N,upArrSens*
X162370000Y-83520000D03*
G04 #@! TD*
G04 #@! TO.P,P11,1*
G04 #@! TO.N,downArrSens*
X162210000Y-115910000D03*
G04 #@! TD*
G04 #@! TO.P,P2,1*
G04 #@! TO.N,homeSens*
X163510000Y-95880000D03*
G04 #@! TD*
D16*
G04 #@! TO.N,GND*
X191008000Y-75438000D03*
X199898000Y-76200000D03*
X195580000Y-91440000D03*
X198374000Y-84836000D03*
X201676000Y-87884000D03*
X179578000Y-83820000D03*
X185674000Y-80772000D03*
X172720000Y-78232000D03*
X161500000Y-72650000D03*
X195326000Y-84328000D03*
G04 #@! TO.N,VCC*
X195834000Y-76810000D03*
X172466000Y-73152000D03*
X163322000Y-72898000D03*
X188468000Y-87122000D03*
X202946000Y-76454000D03*
X194818000Y-88392000D03*
G04 #@! TO.N,interactLED*
X195580000Y-109982000D03*
X198882000Y-109982000D03*
G04 #@! TO.N,SCLK*
X189230000Y-83058000D03*
G04 #@! TO.N,MISO*
X185420000Y-75946000D03*
G04 #@! TO.N,MOSI*
X185166000Y-77216000D03*
G04 #@! TO.N,RESET*
X190500000Y-72136000D03*
X186690000Y-73914000D03*
G04 #@! TO.N,TXLED*
X196532000Y-72898000D03*
X191262000Y-72644000D03*
G04 #@! TO.N,Net-(C0-Pad1)*
X192024000Y-89662000D03*
X189230000Y-81534000D03*
G04 #@! TO.N,homeSens*
X135890000Y-79756000D03*
X187210000Y-93960000D03*
G04 #@! TO.N,leftArrSens*
X191516000Y-87376000D03*
X128016000Y-73406000D03*
G04 #@! TO.N,rightArrSens*
X189500000Y-96230000D03*
G04 #@! TO.N,upArrSens*
X153630000Y-79502000D03*
X125730000Y-77470000D03*
G04 #@! TO.N,downArrSens*
X184658000Y-82550000D03*
X192278000Y-78994000D03*
X128016000Y-77724000D03*
X128778000Y-76200000D03*
G04 #@! TO.N,downArrBtn*
X190246000Y-83566000D03*
X132334000Y-81236000D03*
X196088000Y-78442000D03*
X196850000Y-77470000D03*
G04 #@! TO.N,powerLED*
X194564000Y-101854000D03*
X187452000Y-73914000D03*
G04 #@! TO.N,homeBtn*
X129032000Y-74930000D03*
X131064000Y-79248000D03*
X121202000Y-74422000D03*
G04 #@! TO.N,rightArrBtn*
X182626000Y-87630000D03*
X184912000Y-85046000D03*
G04 #@! TD*
D17*
G04 #@! TO.N,GND*
X185674000Y-80772000D02*
X186182000Y-80772000D01*
X191008000Y-75946000D02*
X191008000Y-75438000D01*
X190500000Y-76454000D02*
X191008000Y-75946000D01*
X187706000Y-76454000D02*
X190500000Y-76454000D01*
X186944000Y-77216000D02*
X187706000Y-76454000D01*
X186944000Y-80010000D02*
X186944000Y-77216000D01*
X186182000Y-80772000D02*
X186944000Y-80010000D01*
X199898000Y-76200000D02*
X199390000Y-76708000D01*
X199390000Y-76708000D02*
X199390000Y-84836000D01*
X198374000Y-84836000D02*
X199390000Y-84836000D01*
X201676000Y-87884000D02*
X201676000Y-90932000D01*
X201168000Y-91440000D02*
X195580000Y-91440000D01*
X201676000Y-90932000D02*
X201168000Y-91440000D01*
X198374000Y-84836000D02*
X196088000Y-84836000D01*
X198374000Y-87630000D02*
X198374000Y-84836000D01*
X198628000Y-87884000D02*
X198374000Y-87630000D01*
X201676000Y-87884000D02*
X198628000Y-87884000D01*
X185166000Y-80264000D02*
X180086000Y-80264000D01*
X185674000Y-80772000D02*
X185166000Y-80264000D01*
X177546000Y-78232000D02*
X179832000Y-80518000D01*
X179832000Y-80518000D02*
X179578000Y-80772000D01*
X180086000Y-80264000D02*
X179832000Y-80518000D01*
X172720000Y-78232000D02*
X177546000Y-78232000D01*
X195326000Y-84328000D02*
X195834000Y-84328000D01*
X195834000Y-84328000D02*
X196088000Y-84582000D01*
X196088000Y-84582000D02*
X196088000Y-84836000D01*
X179578000Y-83312000D02*
X179578000Y-83820000D01*
X179578000Y-80772000D02*
X179578000Y-83312000D01*
X195026001Y-84627999D02*
X195326000Y-84328000D01*
X195026001Y-86868000D02*
X195026001Y-84627999D01*
X195580000Y-87421999D02*
X195026001Y-86868000D01*
X192786000Y-91948000D02*
X195580000Y-89154000D01*
X191262000Y-91948000D02*
X192786000Y-91948000D01*
X195580000Y-89154000D02*
X195580000Y-87421999D01*
X191008000Y-86614000D02*
X192024000Y-86614000D01*
X189738000Y-87884000D02*
X191008000Y-86614000D01*
X187706000Y-87884000D02*
X189738000Y-87884000D01*
X187198000Y-87376000D02*
X187706000Y-87884000D01*
X191770000Y-83312000D02*
X191770000Y-84074000D01*
X187198000Y-86614000D02*
X187198000Y-87376000D01*
X190754000Y-91440000D02*
X191262000Y-91948000D01*
X187960000Y-85852000D02*
X187198000Y-86614000D01*
X189992000Y-85852000D02*
X187960000Y-85852000D01*
X190754000Y-88900000D02*
X190754000Y-91440000D01*
X191770000Y-84074000D02*
X189992000Y-85852000D01*
X190754000Y-82296000D02*
X191770000Y-83312000D01*
X187198000Y-83312000D02*
X188214000Y-82296000D01*
X188214000Y-82296000D02*
X190754000Y-82296000D01*
X179578000Y-83312000D02*
X187198000Y-83312000D01*
X191262000Y-88392000D02*
X192278000Y-88392000D01*
X191262000Y-88392000D02*
X190754000Y-88900000D01*
X192278000Y-86868000D02*
X192024000Y-86614000D01*
X192278000Y-88392000D02*
X192278000Y-86868000D01*
X167380000Y-75686000D02*
X167380000Y-73440000D01*
X167380000Y-73440000D02*
X166774030Y-72834030D01*
X169926000Y-78232000D02*
X167380000Y-75686000D01*
X172720000Y-78232000D02*
X169926000Y-78232000D01*
X164751853Y-72834030D02*
X164338000Y-72834030D01*
X164365970Y-72834030D02*
X164084000Y-73116000D01*
X165100000Y-72834030D02*
X164365970Y-72834030D01*
X164252990Y-72947010D02*
X164084000Y-73116000D01*
X166774030Y-72834030D02*
X165100000Y-72834030D01*
X165100000Y-72834030D02*
X164751853Y-72834030D01*
X162510000Y-73660000D02*
X161500000Y-72650000D01*
X163540000Y-73660000D02*
X162510000Y-73660000D01*
X164084000Y-73116000D02*
X163540000Y-73660000D01*
G04 #@! TO.N,VCC*
X196133999Y-76510001D02*
X196133999Y-76408001D01*
X195834000Y-76810000D02*
X196133999Y-76510001D01*
X196133999Y-76408001D02*
X197358000Y-75184000D01*
X197358000Y-75184000D02*
X200152000Y-75184000D01*
X200152000Y-75184000D02*
X201422000Y-76454000D01*
X202184000Y-76454000D02*
X202946000Y-76454000D01*
X201422000Y-76454000D02*
X202184000Y-76454000D01*
X189484000Y-87122000D02*
X188468000Y-87122000D01*
X191008000Y-85598000D02*
X189484000Y-87122000D01*
X192786000Y-88646000D02*
X192786000Y-85852000D01*
X192786000Y-85852000D02*
X192532000Y-85598000D01*
X191262000Y-90932000D02*
X191262000Y-89154000D01*
X192532000Y-88900000D02*
X192786000Y-88646000D01*
X191262000Y-89154000D02*
X191516000Y-88900000D01*
X195834000Y-76810000D02*
X193802000Y-78842000D01*
X192532000Y-90932000D02*
X191262000Y-90932000D01*
X191516000Y-88900000D02*
X192532000Y-88900000D01*
X193802000Y-89662000D02*
X192532000Y-90932000D01*
X193802000Y-78842000D02*
X193802000Y-89662000D01*
X192532000Y-85598000D02*
X191008000Y-85598000D01*
X194564000Y-88138000D02*
X194818000Y-88392000D01*
X194564000Y-78994000D02*
X194564000Y-88138000D01*
X195834000Y-77724000D02*
X194564000Y-78994000D01*
X195834000Y-76810000D02*
X195834000Y-77724000D01*
X171834000Y-72520000D02*
X172466000Y-73152000D01*
X168656000Y-72520000D02*
X171834000Y-72520000D01*
X163812980Y-72407020D02*
X168543020Y-72407020D01*
X168543020Y-72407020D02*
X168656000Y-72520000D01*
X163812980Y-72407020D02*
X163322000Y-72898000D01*
D18*
G04 #@! TO.N,Net-(P1-Pad6)*
X159805100Y-77000540D02*
X159550540Y-77000540D01*
X159550540Y-77000540D02*
X158805100Y-76255100D01*
X158805100Y-76255100D02*
X158805100Y-74300540D01*
X159551100Y-77000540D02*
X164551100Y-77000540D01*
X164551100Y-77000540D02*
X164807460Y-77000540D01*
X164807460Y-77000540D02*
X165551100Y-76256900D01*
X165551100Y-76256900D02*
X165551100Y-74300540D01*
G04 #@! TO.N,interactLED*
X198882000Y-109982000D02*
X195580000Y-109982000D01*
G04 #@! TO.N,SCLK*
X189230000Y-83566000D02*
X189230000Y-83058000D01*
X188976000Y-83820000D02*
X189230000Y-83566000D01*
X180848000Y-83820000D02*
X188976000Y-83820000D01*
X156826000Y-84836000D02*
X158830000Y-86840000D01*
X179832000Y-84836000D02*
X180848000Y-83820000D01*
X165236000Y-87110000D02*
X167510000Y-84836000D01*
X159090000Y-87110000D02*
X165236000Y-87110000D01*
X158830000Y-86850000D02*
X159090000Y-87110000D01*
X158830000Y-86840000D02*
X158830000Y-86850000D01*
X167510000Y-84836000D02*
X179832000Y-84836000D01*
X146812000Y-84836000D02*
X156826000Y-84836000D01*
X141224000Y-79248000D02*
X146812000Y-84836000D01*
G04 #@! TO.N,MISO*
X185166000Y-75692000D02*
X185420000Y-75946000D01*
X149750213Y-74023787D02*
X152146000Y-71628000D01*
X185166000Y-71628000D02*
X185166000Y-75692000D01*
X149750213Y-76200000D02*
X149750213Y-74023787D01*
X149242213Y-76708000D02*
X149750213Y-76200000D01*
X152146000Y-71628000D02*
X185166000Y-71628000D01*
X147828000Y-76708000D02*
X149242213Y-76708000D01*
G04 #@! TO.N,MOSI*
X184658000Y-76708000D02*
X185166000Y-77216000D01*
X184658000Y-72136000D02*
X184658000Y-76708000D01*
X169418000Y-72068991D02*
X184590991Y-72068991D01*
X169354019Y-72005010D02*
X169418000Y-72068991D01*
X163322000Y-72005010D02*
X169354019Y-72005010D01*
X148590000Y-78486000D02*
X150368000Y-76708000D01*
X163322000Y-72068991D02*
X163322000Y-72005010D01*
X146558000Y-78486000D02*
X148590000Y-78486000D01*
X146304000Y-74442000D02*
X146304000Y-78232000D01*
X146304000Y-78232000D02*
X146558000Y-78486000D01*
X146578000Y-74168000D02*
X146304000Y-74442000D01*
X184590991Y-72068991D02*
X184658000Y-72136000D01*
X152975009Y-72068991D02*
X163322000Y-72068991D01*
X150368000Y-76708000D02*
X150368000Y-74676000D01*
X150368000Y-74676000D02*
X152975009Y-72068991D01*
X147828000Y-74168000D02*
X146578000Y-74168000D01*
G04 #@! TO.N,RESET*
X189484000Y-72136000D02*
X190500000Y-72136000D01*
X189484000Y-72390000D02*
X189484000Y-72136000D01*
X189230000Y-72644000D02*
X189484000Y-72390000D01*
X188677999Y-72853999D02*
X188887998Y-72644000D01*
X188214000Y-72853999D02*
X188677999Y-72853999D01*
X188214000Y-73152000D02*
X188214000Y-72853999D01*
X188887998Y-72644000D02*
X189230000Y-72644000D01*
X187397038Y-73152000D02*
X188214000Y-73152000D01*
X186690000Y-73859038D02*
X187397038Y-73152000D01*
X186690000Y-73914000D02*
X186690000Y-73859038D01*
G04 #@! TO.N,TXLED*
X196278000Y-72644000D02*
X196532000Y-72898000D01*
X191262000Y-72644000D02*
X196278000Y-72644000D01*
G04 #@! TO.N,Net-(C0-Pad1)*
X189484000Y-81788000D02*
X189230000Y-81534000D01*
X193294000Y-82804000D02*
X192278000Y-81788000D01*
X193294000Y-89154000D02*
X193294000Y-82804000D01*
X192278000Y-81788000D02*
X189484000Y-81788000D01*
X192786000Y-89662000D02*
X193294000Y-89154000D01*
X192024000Y-89662000D02*
X192786000Y-89662000D01*
G04 #@! TO.N,homeSens*
X163510000Y-97460000D02*
X163510000Y-95880000D01*
X164134000Y-97460000D02*
X164210000Y-97536000D01*
X163510000Y-97460000D02*
X164134000Y-97460000D01*
X163830000Y-97536000D02*
X164210000Y-97536000D01*
X135890000Y-78994000D02*
X135890000Y-79756000D01*
X135382000Y-78486000D02*
X135890000Y-78994000D01*
X130810000Y-72898000D02*
X130810000Y-77978000D01*
X130048000Y-72136000D02*
X130810000Y-72898000D01*
X120142000Y-72898000D02*
X120904000Y-72136000D01*
X120904000Y-72136000D02*
X130048000Y-72136000D01*
X120142000Y-103886000D02*
X120142000Y-72898000D01*
X149860000Y-107188000D02*
X123444000Y-107188000D01*
X158750000Y-98298000D02*
X149860000Y-107188000D01*
X131318000Y-78486000D02*
X135382000Y-78486000D01*
X158750000Y-98270000D02*
X158750000Y-98298000D01*
X159230000Y-97790000D02*
X158750000Y-98270000D01*
X159240000Y-97790000D02*
X159230000Y-97790000D01*
X130810000Y-77978000D02*
X131318000Y-78486000D01*
X159570000Y-97460000D02*
X159240000Y-97790000D01*
X123444000Y-107188000D02*
X120142000Y-103886000D01*
X163510000Y-97460000D02*
X159570000Y-97460000D01*
X180868000Y-93960000D02*
X187210000Y-93960000D01*
X177292000Y-97536000D02*
X180868000Y-93960000D01*
X164210000Y-97536000D02*
X177292000Y-97536000D01*
G04 #@! TO.N,leftArrSens*
X139750000Y-93510000D02*
X139750000Y-96010000D01*
X139750000Y-96010000D02*
X142630000Y-96010000D01*
X142740000Y-96120000D02*
X142740000Y-99760000D01*
X142630000Y-96010000D02*
X142740000Y-96120000D01*
X190246000Y-88138000D02*
X191008000Y-87376000D01*
X179018000Y-94742000D02*
X179650000Y-94110000D01*
X191008000Y-87376000D02*
X191516000Y-87376000D01*
X139750000Y-93510000D02*
X146668000Y-93510000D01*
X179650000Y-94110000D02*
X179650000Y-94090000D01*
X179650000Y-94090000D02*
X180960000Y-92780000D01*
X180960000Y-92780000D02*
X190246000Y-92780000D01*
X190246000Y-92780000D02*
X190246000Y-88138000D01*
X133720000Y-93510000D02*
X139750000Y-93510000D01*
X132488000Y-94742000D02*
X133720000Y-93510000D01*
X121158000Y-94742000D02*
X132488000Y-94742000D01*
X121412000Y-72898000D02*
X120650000Y-73660000D01*
X120650000Y-73660000D02*
X120650000Y-94234000D01*
X120650000Y-94234000D02*
X121158000Y-94742000D01*
X127508000Y-72898000D02*
X121412000Y-72898000D01*
X128016000Y-73406000D02*
X127508000Y-72898000D01*
X146668000Y-93510000D02*
X146668000Y-93362000D01*
X146668000Y-93362000D02*
X150368000Y-89662000D01*
X169418000Y-89662000D02*
X174498000Y-94742000D01*
X150368000Y-89662000D02*
X169418000Y-89662000D01*
X174498000Y-94742000D02*
X179018000Y-94742000D01*
G04 #@! TO.N,rightArrSens*
X181830000Y-96930000D02*
X182530000Y-96230000D01*
X182530000Y-96230000D02*
X189500000Y-96230000D01*
X181830000Y-99820000D02*
X181830000Y-96930000D01*
G04 #@! TO.N,upArrSens*
X144272000Y-78740000D02*
X145034000Y-79502000D01*
X143002000Y-72136000D02*
X144272000Y-73406000D01*
X138152003Y-73429997D02*
X139446000Y-72136000D01*
X138152003Y-78763997D02*
X138152003Y-73429997D01*
X144272000Y-73406000D02*
X144272000Y-78740000D01*
X136606001Y-80309999D02*
X138152003Y-78763997D01*
X139446000Y-72136000D02*
X143002000Y-72136000D01*
X156360000Y-79502000D02*
X156360000Y-81170000D01*
X158710000Y-83520000D02*
X162370000Y-83520000D01*
X156360000Y-81170000D02*
X158710000Y-83520000D01*
X153630000Y-79502000D02*
X156360000Y-79502000D01*
X145034000Y-79502000D02*
X153630000Y-79502000D01*
X125730000Y-77894264D02*
X126238000Y-78402264D01*
X125730000Y-77470000D02*
X125730000Y-77894264D01*
X126238000Y-78402264D02*
X126238000Y-80309999D01*
X126238000Y-80309999D02*
X136606001Y-80309999D01*
G04 #@! TO.N,downArrSens*
X184957999Y-82250001D02*
X187243999Y-82250001D01*
X184658000Y-82550000D02*
X184957999Y-82250001D01*
X190500000Y-78994000D02*
X192278000Y-78994000D01*
X187243999Y-82250001D02*
X190500000Y-78994000D01*
X196596000Y-74676000D02*
X192278000Y-78994000D01*
X203067002Y-74676000D02*
X196596000Y-74676000D01*
X202946000Y-79756000D02*
X202946000Y-79502000D01*
X202946000Y-79248000D02*
X202946000Y-79756000D01*
X202946000Y-119380000D02*
X202946000Y-79756000D01*
X168100000Y-119380000D02*
X166680000Y-119380000D01*
X168100000Y-119380000D02*
X202946000Y-119380000D01*
X166680000Y-119380000D02*
X165850000Y-118550000D01*
X165850000Y-118550000D02*
X165850000Y-116400000D01*
X165360000Y-115910000D02*
X162210000Y-115910000D01*
X165850000Y-116400000D02*
X165360000Y-115910000D01*
X203708000Y-78486000D02*
X202946000Y-79248000D01*
X203708000Y-75316998D02*
X203708000Y-78486000D01*
X203708000Y-75316998D02*
X203067002Y-74676000D01*
X128016000Y-76962000D02*
X128778000Y-76200000D01*
X128016000Y-77724000D02*
X128016000Y-76962000D01*
G04 #@! TO.N,downArrBtn*
X146304000Y-85598000D02*
X156038000Y-85598000D01*
X141732000Y-81026000D02*
X146304000Y-85598000D01*
X180086000Y-85598000D02*
X181356000Y-84328000D01*
X189992000Y-83820000D02*
X190246000Y-83566000D01*
X156038000Y-85598000D02*
X158400000Y-87960000D01*
X158400000Y-87960000D02*
X165988000Y-87960000D01*
X165988000Y-87960000D02*
X168350000Y-85598000D01*
X168350000Y-85598000D02*
X180086000Y-85598000D01*
X189484000Y-84328000D02*
X189992000Y-83820000D01*
X133140000Y-81236000D02*
X133350000Y-81026000D01*
X132334000Y-81236000D02*
X133140000Y-81236000D01*
X133350000Y-81026000D02*
X141732000Y-81026000D01*
X181356000Y-84328000D02*
X189484000Y-84328000D01*
X196088000Y-78232000D02*
X196850000Y-77470000D01*
X196088000Y-78442000D02*
X196088000Y-78232000D01*
G04 #@! TO.N,powerLED*
X197358000Y-73660000D02*
X197866000Y-73152000D01*
X197866000Y-73152000D02*
X203454000Y-73152000D01*
X152908000Y-126492000D02*
X152908000Y-111506000D01*
X152908000Y-111506000D02*
X153924000Y-110490000D01*
X153924000Y-110490000D02*
X188468000Y-110490000D01*
X188468000Y-110490000D02*
X191008000Y-107950000D01*
X191008000Y-107950000D02*
X195072000Y-107950000D01*
X195072000Y-107950000D02*
X196088000Y-106934000D01*
X196088000Y-103378000D02*
X194564000Y-101854000D01*
X196088000Y-106934000D02*
X196088000Y-103378000D01*
X204216000Y-126492000D02*
X152908000Y-126492000D01*
X203454000Y-73152000D02*
X204216000Y-73914000D01*
X204216000Y-73914000D02*
X204216000Y-126492000D01*
X188468000Y-73660000D02*
X188214000Y-73914000D01*
X188214000Y-73914000D02*
X187452000Y-73914000D01*
X188468000Y-73660000D02*
X197358000Y-73660000D01*
G04 #@! TO.N,homeBtn*
X129331999Y-75229999D02*
X130002001Y-75229999D01*
X129032000Y-74930000D02*
X129331999Y-75229999D01*
X130002001Y-78186001D02*
X131064000Y-79248000D01*
X130002001Y-75229999D02*
X130002001Y-78186001D01*
X121202000Y-74422000D02*
X123190000Y-74422000D01*
X123190000Y-74422000D02*
X123698000Y-74930000D01*
X123698000Y-74930000D02*
X129032000Y-74930000D01*
G04 #@! TO.N,rightArrBtn*
X184912000Y-85344000D02*
X184912000Y-85046000D01*
X182626000Y-87630000D02*
X184912000Y-85344000D01*
G04 #@! TD*
D19*
G04 #@! TO.N,GND*
G36*
X200812253Y-76954411D02*
X200856047Y-77019953D01*
X200921589Y-77063747D01*
X200921591Y-77063749D01*
X200995156Y-77112903D01*
X201115708Y-77193454D01*
X201344684Y-77239000D01*
X201344688Y-77239000D01*
X201421999Y-77254378D01*
X201499310Y-77239000D01*
X202408710Y-77239000D01*
X202416365Y-77246655D01*
X202760017Y-77389000D01*
X202948001Y-77389000D01*
X202948001Y-78171197D01*
X202461530Y-78657669D01*
X202398071Y-78700071D01*
X202230096Y-78951464D01*
X202186000Y-79173149D01*
X202186000Y-79173153D01*
X202171112Y-79248000D01*
X202186000Y-79322847D01*
X202186000Y-79830852D01*
X202186001Y-79830857D01*
X202186000Y-118620000D01*
X168291299Y-118620000D01*
X168286994Y-118181979D01*
X168280279Y-118149874D01*
X168283066Y-118117191D01*
X168204827Y-117417070D01*
X168193129Y-117380253D01*
X168191793Y-117341650D01*
X168045382Y-116719007D01*
X168030463Y-116686244D01*
X168025225Y-116650631D01*
X167906776Y-116318310D01*
X167886741Y-116284791D01*
X167876438Y-116247126D01*
X167459414Y-115412495D01*
X167424655Y-115367683D01*
X167400323Y-115316456D01*
X166847594Y-114573755D01*
X166806018Y-114536197D01*
X166773567Y-114490521D01*
X166096361Y-113851059D01*
X166049905Y-113821908D01*
X166011015Y-113783239D01*
X165220557Y-113258320D01*
X165171245Y-113238058D01*
X165127753Y-113207217D01*
X164235268Y-112808148D01*
X164191182Y-112798098D01*
X164151002Y-112777357D01*
X163775096Y-112669191D01*
X163734899Y-112665813D01*
X163697025Y-112651923D01*
X163003918Y-112543505D01*
X162964599Y-112545125D01*
X162926277Y-112536169D01*
X162183507Y-112511473D01*
X162146964Y-112517487D01*
X162110175Y-112513241D01*
X161378481Y-112572963D01*
X161336739Y-112584866D01*
X161293340Y-112585722D01*
X160633460Y-112730559D01*
X160598588Y-112745815D01*
X160560883Y-112751037D01*
X160201372Y-112875771D01*
X160168971Y-112894769D01*
X160132613Y-112904205D01*
X159281611Y-113315584D01*
X159238266Y-113348305D01*
X159188742Y-113370587D01*
X158438285Y-113905364D01*
X158400821Y-113945153D01*
X158355492Y-113975682D01*
X157716346Y-114619531D01*
X157685969Y-114665356D01*
X157646259Y-114703377D01*
X157129192Y-115441972D01*
X157106905Y-115492636D01*
X157074075Y-115537194D01*
X156689851Y-116356207D01*
X156676488Y-116410274D01*
X156651673Y-116460136D01*
X156537371Y-116880600D01*
X156537371Y-116880602D01*
X156411061Y-117345242D01*
X156407207Y-117400938D01*
X156391342Y-117454467D01*
X156305106Y-118391338D01*
X156310130Y-118439206D01*
X156303475Y-118486877D01*
X156352456Y-119335528D01*
X156364874Y-119383360D01*
X156365604Y-119432772D01*
X156537172Y-120233283D01*
X156558585Y-120282891D01*
X156568404Y-120336020D01*
X156872699Y-121099858D01*
X156890243Y-121126904D01*
X156899229Y-121157865D01*
X156998479Y-121349060D01*
X157020226Y-121376220D01*
X157033458Y-121408398D01*
X157529984Y-122155631D01*
X157566943Y-122192780D01*
X157594473Y-122237380D01*
X158210871Y-122899883D01*
X158251789Y-122929410D01*
X158284669Y-122967682D01*
X158995243Y-123524520D01*
X159041224Y-123547781D01*
X159080605Y-123581013D01*
X159859659Y-124011251D01*
X159912741Y-124028151D01*
X159960876Y-124056203D01*
X160782715Y-124338907D01*
X160827109Y-124344935D01*
X160868572Y-124361914D01*
X161132821Y-124413368D01*
X161162341Y-124413249D01*
X161190562Y-124421899D01*
X161758954Y-124479549D01*
X161785715Y-124476992D01*
X161811985Y-124482712D01*
X162433558Y-124493932D01*
X162457924Y-124489541D01*
X162482447Y-124492946D01*
X163086416Y-124457650D01*
X163117442Y-124449572D01*
X163149481Y-124450816D01*
X163665068Y-124368918D01*
X163704417Y-124354381D01*
X163746187Y-124350560D01*
X164261195Y-124198235D01*
X164302191Y-124176687D01*
X164347230Y-124165906D01*
X165157692Y-123792929D01*
X165201308Y-123761285D01*
X165250886Y-123740178D01*
X165994229Y-123232909D01*
X166030139Y-123196290D01*
X166073547Y-123168964D01*
X166730535Y-122546788D01*
X166759837Y-122505417D01*
X166797978Y-122472009D01*
X167349370Y-121754315D01*
X167372458Y-121707567D01*
X167405622Y-121667338D01*
X167832182Y-120873510D01*
X167848393Y-120820490D01*
X167875797Y-120772293D01*
X168085791Y-120140000D01*
X202871148Y-120140000D01*
X202946000Y-120154889D01*
X203020852Y-120140000D01*
X203242537Y-120095904D01*
X203456001Y-119953272D01*
X203456001Y-125732000D01*
X153668000Y-125732000D01*
X153668000Y-111820801D01*
X154238802Y-111250000D01*
X188393153Y-111250000D01*
X188468000Y-111264888D01*
X188542847Y-111250000D01*
X188542852Y-111250000D01*
X188764537Y-111205904D01*
X189015929Y-111037929D01*
X189058331Y-110974470D01*
X190236785Y-109796017D01*
X194645000Y-109796017D01*
X194645000Y-110167983D01*
X194787345Y-110511635D01*
X195050365Y-110774655D01*
X195394017Y-110917000D01*
X195765983Y-110917000D01*
X196109635Y-110774655D01*
X196142290Y-110742000D01*
X198319710Y-110742000D01*
X198352365Y-110774655D01*
X198696017Y-110917000D01*
X199067983Y-110917000D01*
X199411635Y-110774655D01*
X199674655Y-110511635D01*
X199817000Y-110167983D01*
X199817000Y-109796017D01*
X199674655Y-109452365D01*
X199411635Y-109189345D01*
X199067983Y-109047000D01*
X198696017Y-109047000D01*
X198352365Y-109189345D01*
X198319710Y-109222000D01*
X196142290Y-109222000D01*
X196109635Y-109189345D01*
X195765983Y-109047000D01*
X195394017Y-109047000D01*
X195050365Y-109189345D01*
X194787345Y-109452365D01*
X194645000Y-109796017D01*
X190236785Y-109796017D01*
X191322803Y-108710000D01*
X194997153Y-108710000D01*
X195072000Y-108724888D01*
X195146847Y-108710000D01*
X195146852Y-108710000D01*
X195368537Y-108665904D01*
X195619929Y-108497929D01*
X195662331Y-108434470D01*
X196572473Y-107524329D01*
X196635929Y-107481929D01*
X196803904Y-107230537D01*
X196848000Y-107008852D01*
X196848000Y-107008847D01*
X196862888Y-106934000D01*
X196848000Y-106859153D01*
X196848000Y-103452846D01*
X196862888Y-103377999D01*
X196848000Y-103303152D01*
X196848000Y-103303148D01*
X196803904Y-103081463D01*
X196754662Y-103007767D01*
X196678329Y-102893526D01*
X196678327Y-102893524D01*
X196635929Y-102830071D01*
X196572476Y-102787673D01*
X195499000Y-101714198D01*
X195499000Y-101668017D01*
X195356655Y-101324365D01*
X195093635Y-101061345D01*
X194749983Y-100919000D01*
X194378017Y-100919000D01*
X194034365Y-101061345D01*
X193771345Y-101324365D01*
X193629000Y-101668017D01*
X193629000Y-102039983D01*
X193771345Y-102383635D01*
X194034365Y-102646655D01*
X194378017Y-102789000D01*
X194424198Y-102789000D01*
X195328001Y-103692804D01*
X195328000Y-106619198D01*
X194757199Y-107190000D01*
X191082846Y-107190000D01*
X191007999Y-107175112D01*
X190933152Y-107190000D01*
X190933148Y-107190000D01*
X190711463Y-107234096D01*
X190711461Y-107234097D01*
X190711462Y-107234097D01*
X190523526Y-107359671D01*
X190523524Y-107359673D01*
X190460071Y-107402071D01*
X190417673Y-107465524D01*
X188153199Y-109730000D01*
X153998847Y-109730000D01*
X153924000Y-109715112D01*
X153849153Y-109730000D01*
X153849148Y-109730000D01*
X153627463Y-109774096D01*
X153376071Y-109942071D01*
X153333671Y-110005527D01*
X152423528Y-110915671D01*
X152360072Y-110958071D01*
X152317672Y-111021527D01*
X152317671Y-111021528D01*
X152192097Y-111209463D01*
X152133112Y-111506000D01*
X152148001Y-111580852D01*
X152148000Y-126417148D01*
X152133111Y-126492000D01*
X152192096Y-126788537D01*
X152360071Y-127039929D01*
X152611463Y-127207904D01*
X152642462Y-127214070D01*
X152908000Y-127266889D01*
X152982852Y-127252000D01*
X204141148Y-127252000D01*
X204216000Y-127266889D01*
X204481539Y-127214070D01*
X204512537Y-127207904D01*
X204520359Y-127202678D01*
X204500074Y-127304655D01*
X204440225Y-127394226D01*
X204350655Y-127454074D01*
X204175070Y-127489000D01*
X122286248Y-127489000D01*
X121726244Y-127423711D01*
X120122024Y-126020018D01*
X120015000Y-125666653D01*
X120015000Y-104833801D01*
X122853671Y-107672473D01*
X122896071Y-107735929D01*
X123147463Y-107903904D01*
X123369148Y-107948000D01*
X123369152Y-107948000D01*
X123443999Y-107962888D01*
X123518846Y-107948000D01*
X149785153Y-107948000D01*
X149860000Y-107962888D01*
X149934847Y-107948000D01*
X149934852Y-107948000D01*
X150156537Y-107903904D01*
X150407929Y-107735929D01*
X150450331Y-107672470D01*
X155498081Y-102624721D01*
X155693648Y-103048503D01*
X155708747Y-103069268D01*
X155716708Y-103093676D01*
X155869644Y-103366047D01*
X155869646Y-103366049D01*
X156037978Y-103665841D01*
X156065307Y-103697768D01*
X156083420Y-103735691D01*
X156694294Y-104552872D01*
X156730404Y-104585352D01*
X156757684Y-104625538D01*
X157488780Y-105345980D01*
X157528342Y-105371996D01*
X157560381Y-105406849D01*
X158390796Y-106013701D01*
X158434112Y-106033816D01*
X158471273Y-106063815D01*
X159380107Y-106540227D01*
X159427843Y-106554289D01*
X159470914Y-106579214D01*
X160437268Y-106908333D01*
X160480109Y-106914017D01*
X160520072Y-106930471D01*
X160894051Y-107004037D01*
X160925405Y-107003971D01*
X160955415Y-107013045D01*
X161602931Y-107076238D01*
X161629564Y-107073591D01*
X161655731Y-107079195D01*
X162365512Y-107089581D01*
X162388228Y-107085407D01*
X162411103Y-107088624D01*
X163126801Y-107048047D01*
X163151071Y-107041773D01*
X163176089Y-107043334D01*
X163841357Y-106953638D01*
X163873908Y-106942475D01*
X163908287Y-106940956D01*
X164466777Y-106803984D01*
X164497130Y-106789811D01*
X164530263Y-106784878D01*
X164851469Y-106669757D01*
X164880178Y-106652529D01*
X164912602Y-106644202D01*
X165846060Y-106195913D01*
X165884872Y-106166770D01*
X165929541Y-106147774D01*
X166785587Y-105564085D01*
X166818938Y-105530102D01*
X166859538Y-105505215D01*
X167618584Y-104803374D01*
X167646900Y-104764390D01*
X167683766Y-104733369D01*
X168326224Y-103930623D01*
X168349352Y-103886044D01*
X168382287Y-103848135D01*
X168888566Y-102961729D01*
X168905185Y-102912012D01*
X168932691Y-102867387D01*
X169283059Y-101925220D01*
X169291035Y-101875695D01*
X169310411Y-101829423D01*
X169512777Y-100832168D01*
X169512961Y-100784437D01*
X169524694Y-100738173D01*
X169577913Y-99716191D01*
X169571183Y-99669880D01*
X169576000Y-99623331D01*
X169480634Y-98603345D01*
X169467062Y-98557793D01*
X169464951Y-98510311D01*
X169412329Y-98296000D01*
X177217153Y-98296000D01*
X177292000Y-98310888D01*
X177366847Y-98296000D01*
X177366852Y-98296000D01*
X177588537Y-98251904D01*
X177839929Y-98083929D01*
X177882331Y-98020470D01*
X179513636Y-96389165D01*
X179178319Y-96894109D01*
X179158057Y-96943422D01*
X179127218Y-96986911D01*
X179041219Y-97179239D01*
X179041218Y-97179241D01*
X179041218Y-97179242D01*
X178728148Y-97879399D01*
X178718099Y-97923483D01*
X178697357Y-97963664D01*
X178589191Y-98339570D01*
X178585813Y-98379767D01*
X178571923Y-98417641D01*
X178463505Y-99110747D01*
X178465125Y-99150066D01*
X178456169Y-99188388D01*
X178431473Y-99931158D01*
X178437487Y-99967701D01*
X178433241Y-100004490D01*
X178492963Y-100736184D01*
X178504867Y-100777929D01*
X178505723Y-100821326D01*
X178650559Y-101481207D01*
X178668878Y-101523078D01*
X178676228Y-101568186D01*
X178901262Y-102169903D01*
X178925289Y-102208723D01*
X178938920Y-102252294D01*
X179389765Y-103078452D01*
X179424819Y-103120418D01*
X179449741Y-103169091D01*
X180024486Y-103895183D01*
X180066136Y-103930612D01*
X180098932Y-103974364D01*
X180783135Y-104588153D01*
X180830319Y-104616108D01*
X180870187Y-104653774D01*
X181649407Y-105143024D01*
X181700970Y-105162687D01*
X181746964Y-105193177D01*
X182606759Y-105545651D01*
X182661278Y-105556289D01*
X182712165Y-105578567D01*
X183638096Y-105782028D01*
X183688313Y-105783030D01*
X183736897Y-105795779D01*
X184427225Y-105837440D01*
X184477275Y-105830587D01*
X184527541Y-105835615D01*
X185414205Y-105749648D01*
X185466470Y-105733881D01*
X185520924Y-105730060D01*
X186375725Y-105496805D01*
X186422512Y-105473465D01*
X186473393Y-105461415D01*
X187278306Y-105093350D01*
X187319603Y-105063540D01*
X187366698Y-105044139D01*
X188103697Y-104553740D01*
X188139661Y-104517914D01*
X188182973Y-104491450D01*
X188834033Y-103891194D01*
X188864529Y-103849335D01*
X188903827Y-103815598D01*
X189450922Y-103117963D01*
X189475247Y-103069921D01*
X189509687Y-103028529D01*
X189934792Y-102245990D01*
X189951560Y-102192029D01*
X189979552Y-102142936D01*
X190264640Y-101287972D01*
X190268492Y-101257441D01*
X190281126Y-101229382D01*
X190287596Y-101201334D01*
X190288360Y-101176193D01*
X190296877Y-101152523D01*
X190385501Y-100562398D01*
X190383873Y-100527998D01*
X190392020Y-100494540D01*
X190420359Y-99828096D01*
X190415873Y-99799170D01*
X190420201Y-99770218D01*
X190388276Y-99105190D01*
X190379829Y-99071307D01*
X190381236Y-99036417D01*
X190289066Y-98450539D01*
X190274425Y-98410724D01*
X190270560Y-98368479D01*
X190118235Y-97853472D01*
X190096688Y-97812477D01*
X190085906Y-97767436D01*
X189789022Y-97122320D01*
X190029635Y-97022655D01*
X190292655Y-96759635D01*
X190435000Y-96415983D01*
X190435000Y-96044017D01*
X190292655Y-95700365D01*
X190029635Y-95437345D01*
X189685983Y-95295000D01*
X189314017Y-95295000D01*
X188970365Y-95437345D01*
X188937710Y-95470000D01*
X188548107Y-95470000D01*
X188466788Y-95384131D01*
X188425415Y-95354827D01*
X188392009Y-95316689D01*
X187686506Y-94774662D01*
X187739635Y-94752655D01*
X188002655Y-94489635D01*
X188145000Y-94145983D01*
X188145000Y-93774017D01*
X188048067Y-93540000D01*
X190171148Y-93540000D01*
X190246000Y-93554889D01*
X190320852Y-93540000D01*
X190542537Y-93495904D01*
X190793929Y-93327929D01*
X190961904Y-93076537D01*
X190984673Y-92962071D01*
X191006000Y-92854852D01*
X191006000Y-92854851D01*
X191020889Y-92780000D01*
X191006000Y-92705148D01*
X191006000Y-91681458D01*
X191262000Y-91732379D01*
X191339316Y-91717000D01*
X192454688Y-91717000D01*
X192532000Y-91732378D01*
X192609312Y-91717000D01*
X192609316Y-91717000D01*
X192838292Y-91671454D01*
X193097953Y-91497953D01*
X193141749Y-91432408D01*
X194302411Y-90271747D01*
X194367953Y-90227953D01*
X194411747Y-90162411D01*
X194411749Y-90162409D01*
X194461885Y-90087375D01*
X194541454Y-89968292D01*
X194587000Y-89739316D01*
X194587000Y-89739312D01*
X194602378Y-89662001D01*
X194587000Y-89584690D01*
X194587000Y-89308353D01*
X194632017Y-89327000D01*
X195003983Y-89327000D01*
X195347635Y-89184655D01*
X195610655Y-88921635D01*
X195753000Y-88577983D01*
X195753000Y-88206017D01*
X195610655Y-87862365D01*
X195349000Y-87600710D01*
X195349000Y-79319157D01*
X195495934Y-79172224D01*
X195558365Y-79234655D01*
X195902017Y-79377000D01*
X196273983Y-79377000D01*
X196617635Y-79234655D01*
X196880655Y-78971635D01*
X197023000Y-78627983D01*
X197023000Y-78405000D01*
X197035983Y-78405000D01*
X197379635Y-78262655D01*
X197642655Y-77999635D01*
X197785000Y-77655983D01*
X197785000Y-77284017D01*
X197642655Y-76940365D01*
X197379635Y-76677345D01*
X197093382Y-76558775D01*
X197683158Y-75969000D01*
X199826843Y-75969000D01*
X200812253Y-76954411D01*
X200812253Y-76954411D01*
G37*
X200812253Y-76954411D02*
X200856047Y-77019953D01*
X200921589Y-77063747D01*
X200921591Y-77063749D01*
X200995156Y-77112903D01*
X201115708Y-77193454D01*
X201344684Y-77239000D01*
X201344688Y-77239000D01*
X201421999Y-77254378D01*
X201499310Y-77239000D01*
X202408710Y-77239000D01*
X202416365Y-77246655D01*
X202760017Y-77389000D01*
X202948001Y-77389000D01*
X202948001Y-78171197D01*
X202461530Y-78657669D01*
X202398071Y-78700071D01*
X202230096Y-78951464D01*
X202186000Y-79173149D01*
X202186000Y-79173153D01*
X202171112Y-79248000D01*
X202186000Y-79322847D01*
X202186000Y-79830852D01*
X202186001Y-79830857D01*
X202186000Y-118620000D01*
X168291299Y-118620000D01*
X168286994Y-118181979D01*
X168280279Y-118149874D01*
X168283066Y-118117191D01*
X168204827Y-117417070D01*
X168193129Y-117380253D01*
X168191793Y-117341650D01*
X168045382Y-116719007D01*
X168030463Y-116686244D01*
X168025225Y-116650631D01*
X167906776Y-116318310D01*
X167886741Y-116284791D01*
X167876438Y-116247126D01*
X167459414Y-115412495D01*
X167424655Y-115367683D01*
X167400323Y-115316456D01*
X166847594Y-114573755D01*
X166806018Y-114536197D01*
X166773567Y-114490521D01*
X166096361Y-113851059D01*
X166049905Y-113821908D01*
X166011015Y-113783239D01*
X165220557Y-113258320D01*
X165171245Y-113238058D01*
X165127753Y-113207217D01*
X164235268Y-112808148D01*
X164191182Y-112798098D01*
X164151002Y-112777357D01*
X163775096Y-112669191D01*
X163734899Y-112665813D01*
X163697025Y-112651923D01*
X163003918Y-112543505D01*
X162964599Y-112545125D01*
X162926277Y-112536169D01*
X162183507Y-112511473D01*
X162146964Y-112517487D01*
X162110175Y-112513241D01*
X161378481Y-112572963D01*
X161336739Y-112584866D01*
X161293340Y-112585722D01*
X160633460Y-112730559D01*
X160598588Y-112745815D01*
X160560883Y-112751037D01*
X160201372Y-112875771D01*
X160168971Y-112894769D01*
X160132613Y-112904205D01*
X159281611Y-113315584D01*
X159238266Y-113348305D01*
X159188742Y-113370587D01*
X158438285Y-113905364D01*
X158400821Y-113945153D01*
X158355492Y-113975682D01*
X157716346Y-114619531D01*
X157685969Y-114665356D01*
X157646259Y-114703377D01*
X157129192Y-115441972D01*
X157106905Y-115492636D01*
X157074075Y-115537194D01*
X156689851Y-116356207D01*
X156676488Y-116410274D01*
X156651673Y-116460136D01*
X156537371Y-116880600D01*
X156537371Y-116880602D01*
X156411061Y-117345242D01*
X156407207Y-117400938D01*
X156391342Y-117454467D01*
X156305106Y-118391338D01*
X156310130Y-118439206D01*
X156303475Y-118486877D01*
X156352456Y-119335528D01*
X156364874Y-119383360D01*
X156365604Y-119432772D01*
X156537172Y-120233283D01*
X156558585Y-120282891D01*
X156568404Y-120336020D01*
X156872699Y-121099858D01*
X156890243Y-121126904D01*
X156899229Y-121157865D01*
X156998479Y-121349060D01*
X157020226Y-121376220D01*
X157033458Y-121408398D01*
X157529984Y-122155631D01*
X157566943Y-122192780D01*
X157594473Y-122237380D01*
X158210871Y-122899883D01*
X158251789Y-122929410D01*
X158284669Y-122967682D01*
X158995243Y-123524520D01*
X159041224Y-123547781D01*
X159080605Y-123581013D01*
X159859659Y-124011251D01*
X159912741Y-124028151D01*
X159960876Y-124056203D01*
X160782715Y-124338907D01*
X160827109Y-124344935D01*
X160868572Y-124361914D01*
X161132821Y-124413368D01*
X161162341Y-124413249D01*
X161190562Y-124421899D01*
X161758954Y-124479549D01*
X161785715Y-124476992D01*
X161811985Y-124482712D01*
X162433558Y-124493932D01*
X162457924Y-124489541D01*
X162482447Y-124492946D01*
X163086416Y-124457650D01*
X163117442Y-124449572D01*
X163149481Y-124450816D01*
X163665068Y-124368918D01*
X163704417Y-124354381D01*
X163746187Y-124350560D01*
X164261195Y-124198235D01*
X164302191Y-124176687D01*
X164347230Y-124165906D01*
X165157692Y-123792929D01*
X165201308Y-123761285D01*
X165250886Y-123740178D01*
X165994229Y-123232909D01*
X166030139Y-123196290D01*
X166073547Y-123168964D01*
X166730535Y-122546788D01*
X166759837Y-122505417D01*
X166797978Y-122472009D01*
X167349370Y-121754315D01*
X167372458Y-121707567D01*
X167405622Y-121667338D01*
X167832182Y-120873510D01*
X167848393Y-120820490D01*
X167875797Y-120772293D01*
X168085791Y-120140000D01*
X202871148Y-120140000D01*
X202946000Y-120154889D01*
X203020852Y-120140000D01*
X203242537Y-120095904D01*
X203456001Y-119953272D01*
X203456001Y-125732000D01*
X153668000Y-125732000D01*
X153668000Y-111820801D01*
X154238802Y-111250000D01*
X188393153Y-111250000D01*
X188468000Y-111264888D01*
X188542847Y-111250000D01*
X188542852Y-111250000D01*
X188764537Y-111205904D01*
X189015929Y-111037929D01*
X189058331Y-110974470D01*
X190236785Y-109796017D01*
X194645000Y-109796017D01*
X194645000Y-110167983D01*
X194787345Y-110511635D01*
X195050365Y-110774655D01*
X195394017Y-110917000D01*
X195765983Y-110917000D01*
X196109635Y-110774655D01*
X196142290Y-110742000D01*
X198319710Y-110742000D01*
X198352365Y-110774655D01*
X198696017Y-110917000D01*
X199067983Y-110917000D01*
X199411635Y-110774655D01*
X199674655Y-110511635D01*
X199817000Y-110167983D01*
X199817000Y-109796017D01*
X199674655Y-109452365D01*
X199411635Y-109189345D01*
X199067983Y-109047000D01*
X198696017Y-109047000D01*
X198352365Y-109189345D01*
X198319710Y-109222000D01*
X196142290Y-109222000D01*
X196109635Y-109189345D01*
X195765983Y-109047000D01*
X195394017Y-109047000D01*
X195050365Y-109189345D01*
X194787345Y-109452365D01*
X194645000Y-109796017D01*
X190236785Y-109796017D01*
X191322803Y-108710000D01*
X194997153Y-108710000D01*
X195072000Y-108724888D01*
X195146847Y-108710000D01*
X195146852Y-108710000D01*
X195368537Y-108665904D01*
X195619929Y-108497929D01*
X195662331Y-108434470D01*
X196572473Y-107524329D01*
X196635929Y-107481929D01*
X196803904Y-107230537D01*
X196848000Y-107008852D01*
X196848000Y-107008847D01*
X196862888Y-106934000D01*
X196848000Y-106859153D01*
X196848000Y-103452846D01*
X196862888Y-103377999D01*
X196848000Y-103303152D01*
X196848000Y-103303148D01*
X196803904Y-103081463D01*
X196754662Y-103007767D01*
X196678329Y-102893526D01*
X196678327Y-102893524D01*
X196635929Y-102830071D01*
X196572476Y-102787673D01*
X195499000Y-101714198D01*
X195499000Y-101668017D01*
X195356655Y-101324365D01*
X195093635Y-101061345D01*
X194749983Y-100919000D01*
X194378017Y-100919000D01*
X194034365Y-101061345D01*
X193771345Y-101324365D01*
X193629000Y-101668017D01*
X193629000Y-102039983D01*
X193771345Y-102383635D01*
X194034365Y-102646655D01*
X194378017Y-102789000D01*
X194424198Y-102789000D01*
X195328001Y-103692804D01*
X195328000Y-106619198D01*
X194757199Y-107190000D01*
X191082846Y-107190000D01*
X191007999Y-107175112D01*
X190933152Y-107190000D01*
X190933148Y-107190000D01*
X190711463Y-107234096D01*
X190711461Y-107234097D01*
X190711462Y-107234097D01*
X190523526Y-107359671D01*
X190523524Y-107359673D01*
X190460071Y-107402071D01*
X190417673Y-107465524D01*
X188153199Y-109730000D01*
X153998847Y-109730000D01*
X153924000Y-109715112D01*
X153849153Y-109730000D01*
X153849148Y-109730000D01*
X153627463Y-109774096D01*
X153376071Y-109942071D01*
X153333671Y-110005527D01*
X152423528Y-110915671D01*
X152360072Y-110958071D01*
X152317672Y-111021527D01*
X152317671Y-111021528D01*
X152192097Y-111209463D01*
X152133112Y-111506000D01*
X152148001Y-111580852D01*
X152148000Y-126417148D01*
X152133111Y-126492000D01*
X152192096Y-126788537D01*
X152360071Y-127039929D01*
X152611463Y-127207904D01*
X152642462Y-127214070D01*
X152908000Y-127266889D01*
X152982852Y-127252000D01*
X204141148Y-127252000D01*
X204216000Y-127266889D01*
X204481539Y-127214070D01*
X204512537Y-127207904D01*
X204520359Y-127202678D01*
X204500074Y-127304655D01*
X204440225Y-127394226D01*
X204350655Y-127454074D01*
X204175070Y-127489000D01*
X122286248Y-127489000D01*
X121726244Y-127423711D01*
X120122024Y-126020018D01*
X120015000Y-125666653D01*
X120015000Y-104833801D01*
X122853671Y-107672473D01*
X122896071Y-107735929D01*
X123147463Y-107903904D01*
X123369148Y-107948000D01*
X123369152Y-107948000D01*
X123443999Y-107962888D01*
X123518846Y-107948000D01*
X149785153Y-107948000D01*
X149860000Y-107962888D01*
X149934847Y-107948000D01*
X149934852Y-107948000D01*
X150156537Y-107903904D01*
X150407929Y-107735929D01*
X150450331Y-107672470D01*
X155498081Y-102624721D01*
X155693648Y-103048503D01*
X155708747Y-103069268D01*
X155716708Y-103093676D01*
X155869644Y-103366047D01*
X155869646Y-103366049D01*
X156037978Y-103665841D01*
X156065307Y-103697768D01*
X156083420Y-103735691D01*
X156694294Y-104552872D01*
X156730404Y-104585352D01*
X156757684Y-104625538D01*
X157488780Y-105345980D01*
X157528342Y-105371996D01*
X157560381Y-105406849D01*
X158390796Y-106013701D01*
X158434112Y-106033816D01*
X158471273Y-106063815D01*
X159380107Y-106540227D01*
X159427843Y-106554289D01*
X159470914Y-106579214D01*
X160437268Y-106908333D01*
X160480109Y-106914017D01*
X160520072Y-106930471D01*
X160894051Y-107004037D01*
X160925405Y-107003971D01*
X160955415Y-107013045D01*
X161602931Y-107076238D01*
X161629564Y-107073591D01*
X161655731Y-107079195D01*
X162365512Y-107089581D01*
X162388228Y-107085407D01*
X162411103Y-107088624D01*
X163126801Y-107048047D01*
X163151071Y-107041773D01*
X163176089Y-107043334D01*
X163841357Y-106953638D01*
X163873908Y-106942475D01*
X163908287Y-106940956D01*
X164466777Y-106803984D01*
X164497130Y-106789811D01*
X164530263Y-106784878D01*
X164851469Y-106669757D01*
X164880178Y-106652529D01*
X164912602Y-106644202D01*
X165846060Y-106195913D01*
X165884872Y-106166770D01*
X165929541Y-106147774D01*
X166785587Y-105564085D01*
X166818938Y-105530102D01*
X166859538Y-105505215D01*
X167618584Y-104803374D01*
X167646900Y-104764390D01*
X167683766Y-104733369D01*
X168326224Y-103930623D01*
X168349352Y-103886044D01*
X168382287Y-103848135D01*
X168888566Y-102961729D01*
X168905185Y-102912012D01*
X168932691Y-102867387D01*
X169283059Y-101925220D01*
X169291035Y-101875695D01*
X169310411Y-101829423D01*
X169512777Y-100832168D01*
X169512961Y-100784437D01*
X169524694Y-100738173D01*
X169577913Y-99716191D01*
X169571183Y-99669880D01*
X169576000Y-99623331D01*
X169480634Y-98603345D01*
X169467062Y-98557793D01*
X169464951Y-98510311D01*
X169412329Y-98296000D01*
X177217153Y-98296000D01*
X177292000Y-98310888D01*
X177366847Y-98296000D01*
X177366852Y-98296000D01*
X177588537Y-98251904D01*
X177839929Y-98083929D01*
X177882331Y-98020470D01*
X179513636Y-96389165D01*
X179178319Y-96894109D01*
X179158057Y-96943422D01*
X179127218Y-96986911D01*
X179041219Y-97179239D01*
X179041218Y-97179241D01*
X179041218Y-97179242D01*
X178728148Y-97879399D01*
X178718099Y-97923483D01*
X178697357Y-97963664D01*
X178589191Y-98339570D01*
X178585813Y-98379767D01*
X178571923Y-98417641D01*
X178463505Y-99110747D01*
X178465125Y-99150066D01*
X178456169Y-99188388D01*
X178431473Y-99931158D01*
X178437487Y-99967701D01*
X178433241Y-100004490D01*
X178492963Y-100736184D01*
X178504867Y-100777929D01*
X178505723Y-100821326D01*
X178650559Y-101481207D01*
X178668878Y-101523078D01*
X178676228Y-101568186D01*
X178901262Y-102169903D01*
X178925289Y-102208723D01*
X178938920Y-102252294D01*
X179389765Y-103078452D01*
X179424819Y-103120418D01*
X179449741Y-103169091D01*
X180024486Y-103895183D01*
X180066136Y-103930612D01*
X180098932Y-103974364D01*
X180783135Y-104588153D01*
X180830319Y-104616108D01*
X180870187Y-104653774D01*
X181649407Y-105143024D01*
X181700970Y-105162687D01*
X181746964Y-105193177D01*
X182606759Y-105545651D01*
X182661278Y-105556289D01*
X182712165Y-105578567D01*
X183638096Y-105782028D01*
X183688313Y-105783030D01*
X183736897Y-105795779D01*
X184427225Y-105837440D01*
X184477275Y-105830587D01*
X184527541Y-105835615D01*
X185414205Y-105749648D01*
X185466470Y-105733881D01*
X185520924Y-105730060D01*
X186375725Y-105496805D01*
X186422512Y-105473465D01*
X186473393Y-105461415D01*
X187278306Y-105093350D01*
X187319603Y-105063540D01*
X187366698Y-105044139D01*
X188103697Y-104553740D01*
X188139661Y-104517914D01*
X188182973Y-104491450D01*
X188834033Y-103891194D01*
X188864529Y-103849335D01*
X188903827Y-103815598D01*
X189450922Y-103117963D01*
X189475247Y-103069921D01*
X189509687Y-103028529D01*
X189934792Y-102245990D01*
X189951560Y-102192029D01*
X189979552Y-102142936D01*
X190264640Y-101287972D01*
X190268492Y-101257441D01*
X190281126Y-101229382D01*
X190287596Y-101201334D01*
X190288360Y-101176193D01*
X190296877Y-101152523D01*
X190385501Y-100562398D01*
X190383873Y-100527998D01*
X190392020Y-100494540D01*
X190420359Y-99828096D01*
X190415873Y-99799170D01*
X190420201Y-99770218D01*
X190388276Y-99105190D01*
X190379829Y-99071307D01*
X190381236Y-99036417D01*
X190289066Y-98450539D01*
X190274425Y-98410724D01*
X190270560Y-98368479D01*
X190118235Y-97853472D01*
X190096688Y-97812477D01*
X190085906Y-97767436D01*
X189789022Y-97122320D01*
X190029635Y-97022655D01*
X190292655Y-96759635D01*
X190435000Y-96415983D01*
X190435000Y-96044017D01*
X190292655Y-95700365D01*
X190029635Y-95437345D01*
X189685983Y-95295000D01*
X189314017Y-95295000D01*
X188970365Y-95437345D01*
X188937710Y-95470000D01*
X188548107Y-95470000D01*
X188466788Y-95384131D01*
X188425415Y-95354827D01*
X188392009Y-95316689D01*
X187686506Y-94774662D01*
X187739635Y-94752655D01*
X188002655Y-94489635D01*
X188145000Y-94145983D01*
X188145000Y-93774017D01*
X188048067Y-93540000D01*
X190171148Y-93540000D01*
X190246000Y-93554889D01*
X190320852Y-93540000D01*
X190542537Y-93495904D01*
X190793929Y-93327929D01*
X190961904Y-93076537D01*
X190984673Y-92962071D01*
X191006000Y-92854852D01*
X191006000Y-92854851D01*
X191020889Y-92780000D01*
X191006000Y-92705148D01*
X191006000Y-91681458D01*
X191262000Y-91732379D01*
X191339316Y-91717000D01*
X192454688Y-91717000D01*
X192532000Y-91732378D01*
X192609312Y-91717000D01*
X192609316Y-91717000D01*
X192838292Y-91671454D01*
X193097953Y-91497953D01*
X193141749Y-91432408D01*
X194302411Y-90271747D01*
X194367953Y-90227953D01*
X194411747Y-90162411D01*
X194411749Y-90162409D01*
X194461885Y-90087375D01*
X194541454Y-89968292D01*
X194587000Y-89739316D01*
X194587000Y-89739312D01*
X194602378Y-89662001D01*
X194587000Y-89584690D01*
X194587000Y-89308353D01*
X194632017Y-89327000D01*
X195003983Y-89327000D01*
X195347635Y-89184655D01*
X195610655Y-88921635D01*
X195753000Y-88577983D01*
X195753000Y-88206017D01*
X195610655Y-87862365D01*
X195349000Y-87600710D01*
X195349000Y-79319157D01*
X195495934Y-79172224D01*
X195558365Y-79234655D01*
X195902017Y-79377000D01*
X196273983Y-79377000D01*
X196617635Y-79234655D01*
X196880655Y-78971635D01*
X197023000Y-78627983D01*
X197023000Y-78405000D01*
X197035983Y-78405000D01*
X197379635Y-78262655D01*
X197642655Y-77999635D01*
X197785000Y-77655983D01*
X197785000Y-77284017D01*
X197642655Y-76940365D01*
X197379635Y-76677345D01*
X197093382Y-76558775D01*
X197683158Y-75969000D01*
X199826843Y-75969000D01*
X200812253Y-76954411D01*
G36*
X123107672Y-75414475D02*
X123150071Y-75477929D01*
X123213524Y-75520327D01*
X123213526Y-75520329D01*
X123279211Y-75564218D01*
X123401463Y-75645904D01*
X123623148Y-75690000D01*
X123623152Y-75690000D01*
X123697999Y-75704888D01*
X123772846Y-75690000D01*
X127977212Y-75690000D01*
X127843000Y-76014017D01*
X127843000Y-76060199D01*
X127531528Y-76371671D01*
X127468072Y-76414071D01*
X127425672Y-76477527D01*
X127425671Y-76477528D01*
X127333015Y-76616198D01*
X127300097Y-76665463D01*
X127256000Y-76887148D01*
X127256000Y-76887153D01*
X127241112Y-76962000D01*
X127256000Y-77036847D01*
X127256000Y-77161710D01*
X127223345Y-77194365D01*
X127081000Y-77538017D01*
X127081000Y-77909983D01*
X127223345Y-78253635D01*
X127486365Y-78516655D01*
X127830017Y-78659000D01*
X128201983Y-78659000D01*
X128545635Y-78516655D01*
X128808655Y-78253635D01*
X128951000Y-77909983D01*
X128951000Y-77538017D01*
X128823236Y-77229566D01*
X128917801Y-77135000D01*
X128963983Y-77135000D01*
X129242002Y-77019841D01*
X129242002Y-78111149D01*
X129227113Y-78186001D01*
X129242002Y-78260853D01*
X129254798Y-78325182D01*
X129286098Y-78482538D01*
X129409002Y-78666476D01*
X129454073Y-78733930D01*
X129517528Y-78776330D01*
X130129000Y-79387802D01*
X130129000Y-79433983D01*
X130177055Y-79549999D01*
X126998000Y-79549999D01*
X126998000Y-78477110D01*
X127012888Y-78402263D01*
X126998000Y-78327416D01*
X126998000Y-78327412D01*
X126953904Y-78105727D01*
X126903500Y-78030292D01*
X126828329Y-77917790D01*
X126828327Y-77917788D01*
X126785929Y-77854335D01*
X126722475Y-77811937D01*
X126636156Y-77725618D01*
X126665000Y-77655983D01*
X126665000Y-77284017D01*
X126522655Y-76940365D01*
X126259635Y-76677345D01*
X125915983Y-76535000D01*
X125544017Y-76535000D01*
X125200365Y-76677345D01*
X124937345Y-76940365D01*
X124795000Y-77284017D01*
X124795000Y-77655983D01*
X124937345Y-77999635D01*
X124985686Y-78047976D01*
X125014096Y-78190801D01*
X125182072Y-78442193D01*
X125245527Y-78484592D01*
X125478000Y-78717066D01*
X125478001Y-80235142D01*
X125463111Y-80309999D01*
X125522096Y-80606536D01*
X125690071Y-80857928D01*
X125941463Y-81025903D01*
X126163148Y-81069999D01*
X126238000Y-81084888D01*
X126312852Y-81069999D01*
X131399000Y-81069999D01*
X131399000Y-81421983D01*
X131541345Y-81765635D01*
X131804365Y-82028655D01*
X132148017Y-82171000D01*
X132519983Y-82171000D01*
X132863635Y-82028655D01*
X132896290Y-81996000D01*
X133065153Y-81996000D01*
X133140000Y-82010888D01*
X133214847Y-81996000D01*
X133214852Y-81996000D01*
X133436537Y-81951904D01*
X133684830Y-81786000D01*
X141417199Y-81786000D01*
X145713673Y-86082476D01*
X145756071Y-86145929D01*
X145819524Y-86188327D01*
X145819526Y-86188329D01*
X145906122Y-86246190D01*
X146007463Y-86313904D01*
X146229148Y-86358000D01*
X146229152Y-86358000D01*
X146303999Y-86372888D01*
X146378846Y-86358000D01*
X155723199Y-86358000D01*
X157809673Y-88444476D01*
X157852071Y-88507929D01*
X157915524Y-88550327D01*
X157915526Y-88550329D01*
X157998952Y-88606072D01*
X158103463Y-88675904D01*
X158325148Y-88720000D01*
X158325152Y-88720000D01*
X158399999Y-88734888D01*
X158474846Y-88720000D01*
X165913153Y-88720000D01*
X165988000Y-88734888D01*
X166062847Y-88720000D01*
X166062852Y-88720000D01*
X166284537Y-88675904D01*
X166535929Y-88507929D01*
X166578331Y-88444470D01*
X168664803Y-86358000D01*
X180011153Y-86358000D01*
X180086000Y-86372888D01*
X180160847Y-86358000D01*
X180160852Y-86358000D01*
X180382537Y-86313904D01*
X180633929Y-86145929D01*
X180676331Y-86082470D01*
X181670802Y-85088000D01*
X183977000Y-85088000D01*
X183977000Y-85204198D01*
X182486199Y-86695000D01*
X182440017Y-86695000D01*
X182096365Y-86837345D01*
X181833345Y-87100365D01*
X181691000Y-87444017D01*
X181691000Y-87815983D01*
X181833345Y-88159635D01*
X182096365Y-88422655D01*
X182440017Y-88565000D01*
X182811983Y-88565000D01*
X183155635Y-88422655D01*
X183418655Y-88159635D01*
X183561000Y-87815983D01*
X183561000Y-87769801D01*
X185396473Y-85934329D01*
X185459929Y-85891929D01*
X185604044Y-85676246D01*
X185704655Y-85575635D01*
X185847000Y-85231983D01*
X185847000Y-85088000D01*
X189409153Y-85088000D01*
X189484000Y-85102888D01*
X189558847Y-85088000D01*
X189558852Y-85088000D01*
X189780537Y-85043904D01*
X190031929Y-84875929D01*
X190074330Y-84812471D01*
X190385802Y-84501000D01*
X190431983Y-84501000D01*
X190775635Y-84358655D01*
X191038655Y-84095635D01*
X191181000Y-83751983D01*
X191181000Y-83380017D01*
X191038655Y-83036365D01*
X190775635Y-82773345D01*
X190431983Y-82631000D01*
X190065168Y-82631000D01*
X190030788Y-82548000D01*
X191963199Y-82548000D01*
X192534001Y-83118803D01*
X192534001Y-84798020D01*
X192532000Y-84797622D01*
X192454688Y-84813000D01*
X191085310Y-84813000D01*
X191007999Y-84797622D01*
X190930688Y-84813000D01*
X190930684Y-84813000D01*
X190701708Y-84858546D01*
X190684632Y-84869956D01*
X190507591Y-84988251D01*
X190507589Y-84988253D01*
X190442047Y-85032047D01*
X190398253Y-85097589D01*
X189158843Y-86337000D01*
X189005290Y-86337000D01*
X188997635Y-86329345D01*
X188653983Y-86187000D01*
X188282017Y-86187000D01*
X187938365Y-86329345D01*
X187675345Y-86592365D01*
X187533000Y-86936017D01*
X187533000Y-87307983D01*
X187675345Y-87651635D01*
X187938365Y-87914655D01*
X188282017Y-88057000D01*
X188653983Y-88057000D01*
X188997635Y-87914655D01*
X189005290Y-87907000D01*
X189406688Y-87907000D01*
X189484000Y-87922378D01*
X189515238Y-87916165D01*
X189471112Y-88138000D01*
X189486001Y-88212852D01*
X189486000Y-92020000D01*
X181034848Y-92020000D01*
X180960000Y-92005112D01*
X180885152Y-92020000D01*
X180885148Y-92020000D01*
X180711605Y-92054520D01*
X180663462Y-92064096D01*
X180476418Y-92189076D01*
X180412071Y-92232071D01*
X180369671Y-92295527D01*
X179165529Y-93499670D01*
X179102071Y-93542071D01*
X179019397Y-93665801D01*
X178703199Y-93982000D01*
X174812802Y-93982000D01*
X170008331Y-89177530D01*
X169965929Y-89114071D01*
X169714537Y-88946096D01*
X169492852Y-88902000D01*
X169492847Y-88902000D01*
X169418000Y-88887112D01*
X169343153Y-88902000D01*
X150442846Y-88902000D01*
X150367999Y-88887112D01*
X150293152Y-88902000D01*
X150293148Y-88902000D01*
X150071463Y-88946096D01*
X149820071Y-89114071D01*
X149777671Y-89177527D01*
X146205199Y-92750000D01*
X139824852Y-92750000D01*
X139750000Y-92735111D01*
X139675148Y-92750000D01*
X133794846Y-92750000D01*
X133719999Y-92735112D01*
X133645152Y-92750000D01*
X133645148Y-92750000D01*
X133423463Y-92794096D01*
X133172071Y-92962071D01*
X133129671Y-93025527D01*
X132173199Y-93982000D01*
X121472802Y-93982000D01*
X121410000Y-93919198D01*
X121410000Y-75347880D01*
X121731635Y-75214655D01*
X121764290Y-75182000D01*
X122875198Y-75182000D01*
X123107672Y-75414475D01*
X123107672Y-75414475D01*
G37*
X123107672Y-75414475D02*
X123150071Y-75477929D01*
X123213524Y-75520327D01*
X123213526Y-75520329D01*
X123279211Y-75564218D01*
X123401463Y-75645904D01*
X123623148Y-75690000D01*
X123623152Y-75690000D01*
X123697999Y-75704888D01*
X123772846Y-75690000D01*
X127977212Y-75690000D01*
X127843000Y-76014017D01*
X127843000Y-76060199D01*
X127531528Y-76371671D01*
X127468072Y-76414071D01*
X127425672Y-76477527D01*
X127425671Y-76477528D01*
X127333015Y-76616198D01*
X127300097Y-76665463D01*
X127256000Y-76887148D01*
X127256000Y-76887153D01*
X127241112Y-76962000D01*
X127256000Y-77036847D01*
X127256000Y-77161710D01*
X127223345Y-77194365D01*
X127081000Y-77538017D01*
X127081000Y-77909983D01*
X127223345Y-78253635D01*
X127486365Y-78516655D01*
X127830017Y-78659000D01*
X128201983Y-78659000D01*
X128545635Y-78516655D01*
X128808655Y-78253635D01*
X128951000Y-77909983D01*
X128951000Y-77538017D01*
X128823236Y-77229566D01*
X128917801Y-77135000D01*
X128963983Y-77135000D01*
X129242002Y-77019841D01*
X129242002Y-78111149D01*
X129227113Y-78186001D01*
X129242002Y-78260853D01*
X129254798Y-78325182D01*
X129286098Y-78482538D01*
X129409002Y-78666476D01*
X129454073Y-78733930D01*
X129517528Y-78776330D01*
X130129000Y-79387802D01*
X130129000Y-79433983D01*
X130177055Y-79549999D01*
X126998000Y-79549999D01*
X126998000Y-78477110D01*
X127012888Y-78402263D01*
X126998000Y-78327416D01*
X126998000Y-78327412D01*
X126953904Y-78105727D01*
X126903500Y-78030292D01*
X126828329Y-77917790D01*
X126828327Y-77917788D01*
X126785929Y-77854335D01*
X126722475Y-77811937D01*
X126636156Y-77725618D01*
X126665000Y-77655983D01*
X126665000Y-77284017D01*
X126522655Y-76940365D01*
X126259635Y-76677345D01*
X125915983Y-76535000D01*
X125544017Y-76535000D01*
X125200365Y-76677345D01*
X124937345Y-76940365D01*
X124795000Y-77284017D01*
X124795000Y-77655983D01*
X124937345Y-77999635D01*
X124985686Y-78047976D01*
X125014096Y-78190801D01*
X125182072Y-78442193D01*
X125245527Y-78484592D01*
X125478000Y-78717066D01*
X125478001Y-80235142D01*
X125463111Y-80309999D01*
X125522096Y-80606536D01*
X125690071Y-80857928D01*
X125941463Y-81025903D01*
X126163148Y-81069999D01*
X126238000Y-81084888D01*
X126312852Y-81069999D01*
X131399000Y-81069999D01*
X131399000Y-81421983D01*
X131541345Y-81765635D01*
X131804365Y-82028655D01*
X132148017Y-82171000D01*
X132519983Y-82171000D01*
X132863635Y-82028655D01*
X132896290Y-81996000D01*
X133065153Y-81996000D01*
X133140000Y-82010888D01*
X133214847Y-81996000D01*
X133214852Y-81996000D01*
X133436537Y-81951904D01*
X133684830Y-81786000D01*
X141417199Y-81786000D01*
X145713673Y-86082476D01*
X145756071Y-86145929D01*
X145819524Y-86188327D01*
X145819526Y-86188329D01*
X145906122Y-86246190D01*
X146007463Y-86313904D01*
X146229148Y-86358000D01*
X146229152Y-86358000D01*
X146303999Y-86372888D01*
X146378846Y-86358000D01*
X155723199Y-86358000D01*
X157809673Y-88444476D01*
X157852071Y-88507929D01*
X157915524Y-88550327D01*
X157915526Y-88550329D01*
X157998952Y-88606072D01*
X158103463Y-88675904D01*
X158325148Y-88720000D01*
X158325152Y-88720000D01*
X158399999Y-88734888D01*
X158474846Y-88720000D01*
X165913153Y-88720000D01*
X165988000Y-88734888D01*
X166062847Y-88720000D01*
X166062852Y-88720000D01*
X166284537Y-88675904D01*
X166535929Y-88507929D01*
X166578331Y-88444470D01*
X168664803Y-86358000D01*
X180011153Y-86358000D01*
X180086000Y-86372888D01*
X180160847Y-86358000D01*
X180160852Y-86358000D01*
X180382537Y-86313904D01*
X180633929Y-86145929D01*
X180676331Y-86082470D01*
X181670802Y-85088000D01*
X183977000Y-85088000D01*
X183977000Y-85204198D01*
X182486199Y-86695000D01*
X182440017Y-86695000D01*
X182096365Y-86837345D01*
X181833345Y-87100365D01*
X181691000Y-87444017D01*
X181691000Y-87815983D01*
X181833345Y-88159635D01*
X182096365Y-88422655D01*
X182440017Y-88565000D01*
X182811983Y-88565000D01*
X183155635Y-88422655D01*
X183418655Y-88159635D01*
X183561000Y-87815983D01*
X183561000Y-87769801D01*
X185396473Y-85934329D01*
X185459929Y-85891929D01*
X185604044Y-85676246D01*
X185704655Y-85575635D01*
X185847000Y-85231983D01*
X185847000Y-85088000D01*
X189409153Y-85088000D01*
X189484000Y-85102888D01*
X189558847Y-85088000D01*
X189558852Y-85088000D01*
X189780537Y-85043904D01*
X190031929Y-84875929D01*
X190074330Y-84812471D01*
X190385802Y-84501000D01*
X190431983Y-84501000D01*
X190775635Y-84358655D01*
X191038655Y-84095635D01*
X191181000Y-83751983D01*
X191181000Y-83380017D01*
X191038655Y-83036365D01*
X190775635Y-82773345D01*
X190431983Y-82631000D01*
X190065168Y-82631000D01*
X190030788Y-82548000D01*
X191963199Y-82548000D01*
X192534001Y-83118803D01*
X192534001Y-84798020D01*
X192532000Y-84797622D01*
X192454688Y-84813000D01*
X191085310Y-84813000D01*
X191007999Y-84797622D01*
X190930688Y-84813000D01*
X190930684Y-84813000D01*
X190701708Y-84858546D01*
X190684632Y-84869956D01*
X190507591Y-84988251D01*
X190507589Y-84988253D01*
X190442047Y-85032047D01*
X190398253Y-85097589D01*
X189158843Y-86337000D01*
X189005290Y-86337000D01*
X188997635Y-86329345D01*
X188653983Y-86187000D01*
X188282017Y-86187000D01*
X187938365Y-86329345D01*
X187675345Y-86592365D01*
X187533000Y-86936017D01*
X187533000Y-87307983D01*
X187675345Y-87651635D01*
X187938365Y-87914655D01*
X188282017Y-88057000D01*
X188653983Y-88057000D01*
X188997635Y-87914655D01*
X189005290Y-87907000D01*
X189406688Y-87907000D01*
X189484000Y-87922378D01*
X189515238Y-87916165D01*
X189471112Y-88138000D01*
X189486001Y-88212852D01*
X189486000Y-92020000D01*
X181034848Y-92020000D01*
X180960000Y-92005112D01*
X180885152Y-92020000D01*
X180885148Y-92020000D01*
X180711605Y-92054520D01*
X180663462Y-92064096D01*
X180476418Y-92189076D01*
X180412071Y-92232071D01*
X180369671Y-92295527D01*
X179165529Y-93499670D01*
X179102071Y-93542071D01*
X179019397Y-93665801D01*
X178703199Y-93982000D01*
X174812802Y-93982000D01*
X170008331Y-89177530D01*
X169965929Y-89114071D01*
X169714537Y-88946096D01*
X169492852Y-88902000D01*
X169492847Y-88902000D01*
X169418000Y-88887112D01*
X169343153Y-88902000D01*
X150442846Y-88902000D01*
X150367999Y-88887112D01*
X150293152Y-88902000D01*
X150293148Y-88902000D01*
X150071463Y-88946096D01*
X149820071Y-89114071D01*
X149777671Y-89177527D01*
X146205199Y-92750000D01*
X139824852Y-92750000D01*
X139750000Y-92735111D01*
X139675148Y-92750000D01*
X133794846Y-92750000D01*
X133719999Y-92735112D01*
X133645152Y-92750000D01*
X133645148Y-92750000D01*
X133423463Y-92794096D01*
X133172071Y-92962071D01*
X133129671Y-93025527D01*
X132173199Y-93982000D01*
X121472802Y-93982000D01*
X121410000Y-93919198D01*
X121410000Y-75347880D01*
X121731635Y-75214655D01*
X121764290Y-75182000D01*
X122875198Y-75182000D01*
X123107672Y-75414475D01*
G36*
X192001001Y-86564857D02*
X191701983Y-86441000D01*
X191330017Y-86441000D01*
X191236367Y-86479791D01*
X191333158Y-86383000D01*
X192001001Y-86383000D01*
X192001001Y-86564857D01*
X192001001Y-86564857D01*
G37*
X192001001Y-86564857D02*
X191701983Y-86441000D01*
X191330017Y-86441000D01*
X191236367Y-86479791D01*
X191333158Y-86383000D01*
X192001001Y-86383000D01*
X192001001Y-86564857D01*
G36*
X143512000Y-73720802D02*
X143512001Y-78665148D01*
X143497112Y-78740000D01*
X143556097Y-79036537D01*
X143676605Y-79216889D01*
X143724072Y-79287929D01*
X143787528Y-79330329D01*
X144443671Y-79986473D01*
X144486071Y-80049929D01*
X144549527Y-80092329D01*
X144737462Y-80217904D01*
X144785605Y-80227480D01*
X144959148Y-80262000D01*
X144959152Y-80262000D01*
X145034000Y-80276888D01*
X145108848Y-80262000D01*
X153067710Y-80262000D01*
X153100365Y-80294655D01*
X153444017Y-80437000D01*
X153815983Y-80437000D01*
X154159635Y-80294655D01*
X154192290Y-80262000D01*
X155600000Y-80262000D01*
X155600001Y-81095149D01*
X155585112Y-81170000D01*
X155600001Y-81244852D01*
X155614970Y-81320107D01*
X155644097Y-81466537D01*
X155758094Y-81637145D01*
X155812072Y-81717929D01*
X155875528Y-81760329D01*
X156529643Y-82414444D01*
X156603602Y-82728970D01*
X156603603Y-82728973D01*
X156619283Y-82795655D01*
X156632098Y-82823798D01*
X156636113Y-82854461D01*
X156693716Y-83024542D01*
X156710671Y-83053957D01*
X156718586Y-83086976D01*
X157107632Y-83931678D01*
X157140703Y-83977230D01*
X157163157Y-84028844D01*
X157316374Y-84249614D01*
X157122537Y-84120096D01*
X156900852Y-84076000D01*
X156900847Y-84076000D01*
X156826000Y-84061112D01*
X156751153Y-84076000D01*
X147126803Y-84076000D01*
X142790177Y-79739376D01*
X142859000Y-79573222D01*
X142859000Y-78922778D01*
X142610086Y-78321847D01*
X142266239Y-77978000D01*
X142610086Y-77634153D01*
X142859000Y-77033222D01*
X142859000Y-76382778D01*
X142610086Y-75781847D01*
X142548956Y-75720717D01*
X142583698Y-75706327D01*
X142762327Y-75527699D01*
X142859000Y-75294310D01*
X142859000Y-74453750D01*
X142700250Y-74295000D01*
X141351000Y-74295000D01*
X141351000Y-74315000D01*
X141097000Y-74315000D01*
X141097000Y-74295000D01*
X139747750Y-74295000D01*
X139589000Y-74453750D01*
X139589000Y-75294310D01*
X139685673Y-75527699D01*
X139864302Y-75706327D01*
X139899044Y-75720717D01*
X139837914Y-75781847D01*
X139589000Y-76382778D01*
X139589000Y-77033222D01*
X139837914Y-77634153D01*
X140181761Y-77978000D01*
X139837914Y-78321847D01*
X139589000Y-78922778D01*
X139589000Y-79573222D01*
X139837914Y-80174153D01*
X139929761Y-80266000D01*
X137724801Y-80266000D01*
X138636476Y-79354326D01*
X138699932Y-79311926D01*
X138867907Y-79060534D01*
X138912003Y-78838849D01*
X138912003Y-78838844D01*
X138926891Y-78763997D01*
X138912003Y-78689150D01*
X138912003Y-73744798D01*
X139589000Y-73067802D01*
X139589000Y-73882250D01*
X139747750Y-74041000D01*
X141097000Y-74041000D01*
X141097000Y-74021000D01*
X141351000Y-74021000D01*
X141351000Y-74041000D01*
X142700250Y-74041000D01*
X142859000Y-73882250D01*
X142859000Y-73067801D01*
X143512000Y-73720802D01*
X143512000Y-73720802D01*
G37*
X143512000Y-73720802D02*
X143512001Y-78665148D01*
X143497112Y-78740000D01*
X143556097Y-79036537D01*
X143676605Y-79216889D01*
X143724072Y-79287929D01*
X143787528Y-79330329D01*
X144443671Y-79986473D01*
X144486071Y-80049929D01*
X144549527Y-80092329D01*
X144737462Y-80217904D01*
X144785605Y-80227480D01*
X144959148Y-80262000D01*
X144959152Y-80262000D01*
X145034000Y-80276888D01*
X145108848Y-80262000D01*
X153067710Y-80262000D01*
X153100365Y-80294655D01*
X153444017Y-80437000D01*
X153815983Y-80437000D01*
X154159635Y-80294655D01*
X154192290Y-80262000D01*
X155600000Y-80262000D01*
X155600001Y-81095149D01*
X155585112Y-81170000D01*
X155600001Y-81244852D01*
X155614970Y-81320107D01*
X155644097Y-81466537D01*
X155758094Y-81637145D01*
X155812072Y-81717929D01*
X155875528Y-81760329D01*
X156529643Y-82414444D01*
X156603602Y-82728970D01*
X156603603Y-82728973D01*
X156619283Y-82795655D01*
X156632098Y-82823798D01*
X156636113Y-82854461D01*
X156693716Y-83024542D01*
X156710671Y-83053957D01*
X156718586Y-83086976D01*
X157107632Y-83931678D01*
X157140703Y-83977230D01*
X157163157Y-84028844D01*
X157316374Y-84249614D01*
X157122537Y-84120096D01*
X156900852Y-84076000D01*
X156900847Y-84076000D01*
X156826000Y-84061112D01*
X156751153Y-84076000D01*
X147126803Y-84076000D01*
X142790177Y-79739376D01*
X142859000Y-79573222D01*
X142859000Y-78922778D01*
X142610086Y-78321847D01*
X142266239Y-77978000D01*
X142610086Y-77634153D01*
X142859000Y-77033222D01*
X142859000Y-76382778D01*
X142610086Y-75781847D01*
X142548956Y-75720717D01*
X142583698Y-75706327D01*
X142762327Y-75527699D01*
X142859000Y-75294310D01*
X142859000Y-74453750D01*
X142700250Y-74295000D01*
X141351000Y-74295000D01*
X141351000Y-74315000D01*
X141097000Y-74315000D01*
X141097000Y-74295000D01*
X139747750Y-74295000D01*
X139589000Y-74453750D01*
X139589000Y-75294310D01*
X139685673Y-75527699D01*
X139864302Y-75706327D01*
X139899044Y-75720717D01*
X139837914Y-75781847D01*
X139589000Y-76382778D01*
X139589000Y-77033222D01*
X139837914Y-77634153D01*
X140181761Y-77978000D01*
X139837914Y-78321847D01*
X139589000Y-78922778D01*
X139589000Y-79573222D01*
X139837914Y-80174153D01*
X139929761Y-80266000D01*
X137724801Y-80266000D01*
X138636476Y-79354326D01*
X138699932Y-79311926D01*
X138867907Y-79060534D01*
X138912003Y-78838849D01*
X138912003Y-78838844D01*
X138926891Y-78763997D01*
X138912003Y-78689150D01*
X138912003Y-73744798D01*
X139589000Y-73067802D01*
X139589000Y-73882250D01*
X139747750Y-74041000D01*
X141097000Y-74041000D01*
X141097000Y-74021000D01*
X141351000Y-74021000D01*
X141351000Y-74041000D01*
X142700250Y-74041000D01*
X142859000Y-73882250D01*
X142859000Y-73067801D01*
X143512000Y-73720802D01*
G36*
X183898001Y-76633148D02*
X183883112Y-76708000D01*
X183898001Y-76782851D01*
X183898001Y-76782852D01*
X183941302Y-77000539D01*
X183942097Y-77004537D01*
X184058243Y-77178361D01*
X184110072Y-77255929D01*
X184173527Y-77298328D01*
X184231000Y-77355802D01*
X184231000Y-77401983D01*
X184373345Y-77745635D01*
X184636365Y-78008655D01*
X184980017Y-78151000D01*
X185351983Y-78151000D01*
X185695635Y-78008655D01*
X185958655Y-77745635D01*
X186101000Y-77401983D01*
X186101000Y-77030017D01*
X185971328Y-76716962D01*
X186212655Y-76475635D01*
X186355000Y-76131983D01*
X186355000Y-75760017D01*
X186212655Y-75416365D01*
X185949635Y-75153345D01*
X185926000Y-75143555D01*
X185926000Y-74472290D01*
X186160365Y-74706655D01*
X186504017Y-74849000D01*
X186875983Y-74849000D01*
X187071000Y-74768221D01*
X187266017Y-74849000D01*
X187637983Y-74849000D01*
X187981635Y-74706655D01*
X188014290Y-74674000D01*
X188139153Y-74674000D01*
X188214000Y-74688888D01*
X188288847Y-74674000D01*
X188288852Y-74674000D01*
X188510537Y-74629904D01*
X188761929Y-74461929D01*
X188789945Y-74420000D01*
X195777198Y-74420000D01*
X192138199Y-78059000D01*
X192092017Y-78059000D01*
X191748365Y-78201345D01*
X191715710Y-78234000D01*
X190574848Y-78234000D01*
X190500000Y-78219112D01*
X190425152Y-78234000D01*
X190425148Y-78234000D01*
X190251605Y-78268520D01*
X190203462Y-78278096D01*
X190036512Y-78389649D01*
X189952071Y-78446071D01*
X189909672Y-78509526D01*
X186929198Y-81490001D01*
X185032847Y-81490001D01*
X184957999Y-81475113D01*
X184883151Y-81490001D01*
X184883147Y-81490001D01*
X184709604Y-81524521D01*
X184661461Y-81534097D01*
X184597084Y-81577113D01*
X184540382Y-81615000D01*
X184472017Y-81615000D01*
X184128365Y-81757345D01*
X183865345Y-82020365D01*
X183723000Y-82364017D01*
X183723000Y-82735983D01*
X183857212Y-83060000D01*
X180922847Y-83060000D01*
X180848000Y-83045112D01*
X180773153Y-83060000D01*
X180773148Y-83060000D01*
X180551463Y-83104096D01*
X180300071Y-83272071D01*
X180257671Y-83335527D01*
X179517199Y-84076000D01*
X167584848Y-84076000D01*
X167520941Y-84063288D01*
X167674957Y-83817078D01*
X167689735Y-83778130D01*
X167714148Y-83744378D01*
X167893190Y-83353835D01*
X167902288Y-83315581D01*
X167921290Y-83281158D01*
X168204569Y-82390775D01*
X168210609Y-82336914D01*
X168228474Y-82285739D01*
X168354924Y-81385257D01*
X168351871Y-81331598D01*
X168360899Y-81278616D01*
X168336264Y-80385293D01*
X168324433Y-80333344D01*
X168324602Y-80280064D01*
X168154623Y-79411162D01*
X168134474Y-79362079D01*
X168125929Y-79309714D01*
X167816350Y-78482491D01*
X167788341Y-78437260D01*
X167771247Y-78386882D01*
X167327811Y-77618598D01*
X167292432Y-77578245D01*
X167266989Y-77530995D01*
X166695438Y-76838909D01*
X166653391Y-76804618D01*
X166620011Y-76761842D01*
X166283324Y-76471391D01*
X166311100Y-76331752D01*
X166311100Y-76331748D01*
X166325988Y-76256900D01*
X166311100Y-76182052D01*
X166311100Y-75782897D01*
X166731533Y-75501973D01*
X167015543Y-75076922D01*
X167090100Y-74702098D01*
X167090100Y-73898983D01*
X167015543Y-73524158D01*
X166793615Y-73192020D01*
X168248787Y-73192020D01*
X168349708Y-73259454D01*
X168578684Y-73305000D01*
X168578688Y-73305000D01*
X168656000Y-73320378D01*
X168733312Y-73305000D01*
X171508843Y-73305000D01*
X171531000Y-73327157D01*
X171531000Y-73337983D01*
X171673345Y-73681635D01*
X171936365Y-73944655D01*
X172280017Y-74087000D01*
X172651983Y-74087000D01*
X172995635Y-73944655D01*
X173258655Y-73681635D01*
X173401000Y-73337983D01*
X173401000Y-72966017D01*
X173344242Y-72828991D01*
X183898000Y-72828991D01*
X183898001Y-76633148D01*
X183898001Y-76633148D01*
G37*
X183898001Y-76633148D02*
X183883112Y-76708000D01*
X183898001Y-76782851D01*
X183898001Y-76782852D01*
X183941302Y-77000539D01*
X183942097Y-77004537D01*
X184058243Y-77178361D01*
X184110072Y-77255929D01*
X184173527Y-77298328D01*
X184231000Y-77355802D01*
X184231000Y-77401983D01*
X184373345Y-77745635D01*
X184636365Y-78008655D01*
X184980017Y-78151000D01*
X185351983Y-78151000D01*
X185695635Y-78008655D01*
X185958655Y-77745635D01*
X186101000Y-77401983D01*
X186101000Y-77030017D01*
X185971328Y-76716962D01*
X186212655Y-76475635D01*
X186355000Y-76131983D01*
X186355000Y-75760017D01*
X186212655Y-75416365D01*
X185949635Y-75153345D01*
X185926000Y-75143555D01*
X185926000Y-74472290D01*
X186160365Y-74706655D01*
X186504017Y-74849000D01*
X186875983Y-74849000D01*
X187071000Y-74768221D01*
X187266017Y-74849000D01*
X187637983Y-74849000D01*
X187981635Y-74706655D01*
X188014290Y-74674000D01*
X188139153Y-74674000D01*
X188214000Y-74688888D01*
X188288847Y-74674000D01*
X188288852Y-74674000D01*
X188510537Y-74629904D01*
X188761929Y-74461929D01*
X188789945Y-74420000D01*
X195777198Y-74420000D01*
X192138199Y-78059000D01*
X192092017Y-78059000D01*
X191748365Y-78201345D01*
X191715710Y-78234000D01*
X190574848Y-78234000D01*
X190500000Y-78219112D01*
X190425152Y-78234000D01*
X190425148Y-78234000D01*
X190251605Y-78268520D01*
X190203462Y-78278096D01*
X190036512Y-78389649D01*
X189952071Y-78446071D01*
X189909672Y-78509526D01*
X186929198Y-81490001D01*
X185032847Y-81490001D01*
X184957999Y-81475113D01*
X184883151Y-81490001D01*
X184883147Y-81490001D01*
X184709604Y-81524521D01*
X184661461Y-81534097D01*
X184597084Y-81577113D01*
X184540382Y-81615000D01*
X184472017Y-81615000D01*
X184128365Y-81757345D01*
X183865345Y-82020365D01*
X183723000Y-82364017D01*
X183723000Y-82735983D01*
X183857212Y-83060000D01*
X180922847Y-83060000D01*
X180848000Y-83045112D01*
X180773153Y-83060000D01*
X180773148Y-83060000D01*
X180551463Y-83104096D01*
X180300071Y-83272071D01*
X180257671Y-83335527D01*
X179517199Y-84076000D01*
X167584848Y-84076000D01*
X167520941Y-84063288D01*
X167674957Y-83817078D01*
X167689735Y-83778130D01*
X167714148Y-83744378D01*
X167893190Y-83353835D01*
X167902288Y-83315581D01*
X167921290Y-83281158D01*
X168204569Y-82390775D01*
X168210609Y-82336914D01*
X168228474Y-82285739D01*
X168354924Y-81385257D01*
X168351871Y-81331598D01*
X168360899Y-81278616D01*
X168336264Y-80385293D01*
X168324433Y-80333344D01*
X168324602Y-80280064D01*
X168154623Y-79411162D01*
X168134474Y-79362079D01*
X168125929Y-79309714D01*
X167816350Y-78482491D01*
X167788341Y-78437260D01*
X167771247Y-78386882D01*
X167327811Y-77618598D01*
X167292432Y-77578245D01*
X167266989Y-77530995D01*
X166695438Y-76838909D01*
X166653391Y-76804618D01*
X166620011Y-76761842D01*
X166283324Y-76471391D01*
X166311100Y-76331752D01*
X166311100Y-76331748D01*
X166325988Y-76256900D01*
X166311100Y-76182052D01*
X166311100Y-75782897D01*
X166731533Y-75501973D01*
X167015543Y-75076922D01*
X167090100Y-74702098D01*
X167090100Y-73898983D01*
X167015543Y-73524158D01*
X166793615Y-73192020D01*
X168248787Y-73192020D01*
X168349708Y-73259454D01*
X168578684Y-73305000D01*
X168578688Y-73305000D01*
X168656000Y-73320378D01*
X168733312Y-73305000D01*
X171508843Y-73305000D01*
X171531000Y-73327157D01*
X171531000Y-73337983D01*
X171673345Y-73681635D01*
X171936365Y-73944655D01*
X172280017Y-74087000D01*
X172651983Y-74087000D01*
X172995635Y-73944655D01*
X173258655Y-73681635D01*
X173401000Y-73337983D01*
X173401000Y-72966017D01*
X173344242Y-72828991D01*
X183898000Y-72828991D01*
X183898001Y-76633148D01*
G36*
X188669710Y-82296000D02*
X188437345Y-82528365D01*
X188295000Y-82872017D01*
X188295000Y-83060000D01*
X185458788Y-83060000D01*
X185479498Y-83010001D01*
X187169152Y-83010001D01*
X187243999Y-83024889D01*
X187318846Y-83010001D01*
X187318851Y-83010001D01*
X187540536Y-82965905D01*
X187791928Y-82797930D01*
X187834330Y-82734471D01*
X188471256Y-82097546D01*
X188669710Y-82296000D01*
X188669710Y-82296000D01*
G37*
X188669710Y-82296000D02*
X188437345Y-82528365D01*
X188295000Y-82872017D01*
X188295000Y-83060000D01*
X185458788Y-83060000D01*
X185479498Y-83010001D01*
X187169152Y-83010001D01*
X187243999Y-83024889D01*
X187318846Y-83010001D01*
X187318851Y-83010001D01*
X187540536Y-82965905D01*
X187791928Y-82797930D01*
X187834330Y-82734471D01*
X188471256Y-82097546D01*
X188669710Y-82296000D01*
G36*
X162387000Y-73083983D02*
X162529345Y-73427635D01*
X162792365Y-73690655D01*
X163136017Y-73833000D01*
X163507983Y-73833000D01*
X163851635Y-73690655D01*
X164114655Y-73427635D01*
X164212250Y-73192020D01*
X164816585Y-73192020D01*
X164594657Y-73524158D01*
X164520100Y-73898982D01*
X164520100Y-74702097D01*
X164594657Y-75076921D01*
X164791100Y-75370920D01*
X164791100Y-75499887D01*
X164713721Y-75464918D01*
X164676699Y-75456324D01*
X164643402Y-75438000D01*
X163849869Y-75186665D01*
X163800811Y-75181228D01*
X163754440Y-75164312D01*
X162899170Y-75032042D01*
X162852760Y-75034035D01*
X162807283Y-75024550D01*
X161938875Y-75016506D01*
X161890179Y-75025724D01*
X161840685Y-75023164D01*
X161007738Y-75144508D01*
X160964338Y-75159910D01*
X160918478Y-75164105D01*
X160403471Y-75316431D01*
X160362476Y-75337978D01*
X160317436Y-75348760D01*
X159565100Y-75694987D01*
X159565100Y-75613180D01*
X159731533Y-75501973D01*
X160015543Y-75076922D01*
X160090100Y-74702098D01*
X160090100Y-73898983D01*
X160015543Y-73524158D01*
X159731533Y-73099107D01*
X159327276Y-72828991D01*
X162387000Y-72828991D01*
X162387000Y-73083983D01*
X162387000Y-73083983D01*
G37*
X162387000Y-73083983D02*
X162529345Y-73427635D01*
X162792365Y-73690655D01*
X163136017Y-73833000D01*
X163507983Y-73833000D01*
X163851635Y-73690655D01*
X164114655Y-73427635D01*
X164212250Y-73192020D01*
X164816585Y-73192020D01*
X164594657Y-73524158D01*
X164520100Y-73898982D01*
X164520100Y-74702097D01*
X164594657Y-75076921D01*
X164791100Y-75370920D01*
X164791100Y-75499887D01*
X164713721Y-75464918D01*
X164676699Y-75456324D01*
X164643402Y-75438000D01*
X163849869Y-75186665D01*
X163800811Y-75181228D01*
X163754440Y-75164312D01*
X162899170Y-75032042D01*
X162852760Y-75034035D01*
X162807283Y-75024550D01*
X161938875Y-75016506D01*
X161890179Y-75025724D01*
X161840685Y-75023164D01*
X161007738Y-75144508D01*
X160964338Y-75159910D01*
X160918478Y-75164105D01*
X160403471Y-75316431D01*
X160362476Y-75337978D01*
X160317436Y-75348760D01*
X159565100Y-75694987D01*
X159565100Y-75613180D01*
X159731533Y-75501973D01*
X160015543Y-75076922D01*
X160090100Y-74702098D01*
X160090100Y-73898983D01*
X160015543Y-73524158D01*
X159731533Y-73099107D01*
X159327276Y-72828991D01*
X162387000Y-72828991D01*
X162387000Y-73083983D01*
G04 #@! TD*
M02*
