G04 #@! TF.GenerationSoftware,KiCad,Pcbnew,(5.0.1-3-g963ef8bb5)*
G04 #@! TF.CreationDate,2019-04-07T15:35:03+01:00*
G04 #@! TF.ProjectId,invitation,696E7669746174696F6E2E6B69636164,rev?*
G04 #@! TF.SameCoordinates,Original*
G04 #@! TF.FileFunction,Copper,L2,Bot,Signal*
G04 #@! TF.FilePolarity,Positive*
%FSLAX46Y46*%
G04 Gerber Fmt 4.6, Leading zero omitted, Abs format (unit mm)*
G04 Created by KiCad (PCBNEW (5.0.1-3-g963ef8bb5)) date Sunday, 07 April 2019 at 15:35:03*
%MOMM*%
%LPD*%
G01*
G04 APERTURE LIST*
G04 #@! TA.AperFunction,EtchedComponent*
%ADD10C,0.000100*%
G04 #@! TD*
G04 #@! TA.AperFunction,SMDPad,CuDef*
%ADD11R,0.400000X1.750000*%
G04 #@! TD*
G04 #@! TA.AperFunction,SMDPad,CuDef*
%ADD12R,1.425000X2.500000*%
G04 #@! TD*
G04 #@! TA.AperFunction,ComponentPad*
%ADD13R,1.050000X1.050000*%
G04 #@! TD*
G04 #@! TA.AperFunction,ComponentPad*
%ADD14R,1.300000X1.300000*%
G04 #@! TD*
G04 #@! TA.AperFunction,SMDPad,CuDef*
%ADD15R,1.500000X0.550000*%
G04 #@! TD*
G04 #@! TA.AperFunction,SMDPad,CuDef*
%ADD16R,0.550000X1.500000*%
G04 #@! TD*
G04 #@! TA.AperFunction,SMDPad,CuDef*
%ADD17R,1.140000X2.030000*%
G04 #@! TD*
G04 #@! TA.AperFunction,SMDPad,CuDef*
%ADD18R,1.200000X1.400000*%
G04 #@! TD*
G04 #@! TA.AperFunction,SMDPad,CuDef*
%ADD19R,1.200000X1.200000*%
G04 #@! TD*
G04 #@! TA.AperFunction,SMDPad,CuDef*
%ADD20R,0.700000X1.300000*%
G04 #@! TD*
G04 #@! TA.AperFunction,SMDPad,CuDef*
%ADD21R,1.250000X1.000000*%
G04 #@! TD*
G04 #@! TA.AperFunction,SMDPad,CuDef*
%ADD22R,1.000000X1.250000*%
G04 #@! TD*
G04 #@! TA.AperFunction,SMDPad,CuDef*
%ADD23R,1.550000X1.800000*%
G04 #@! TD*
G04 #@! TA.AperFunction,ComponentPad*
%ADD24R,2.000000X2.000000*%
G04 #@! TD*
G04 #@! TA.AperFunction,ComponentPad*
%ADD25C,2.000000*%
G04 #@! TD*
G04 #@! TA.AperFunction,Conductor*
%ADD26C,0.100000*%
G04 #@! TD*
G04 #@! TA.AperFunction,SMDPad,CuDef*
%ADD27C,0.975000*%
G04 #@! TD*
G04 #@! TA.AperFunction,ViaPad*
%ADD28C,0.600000*%
G04 #@! TD*
G04 #@! TA.AperFunction,Conductor*
%ADD29C,0.300000*%
G04 #@! TD*
G04 #@! TA.AperFunction,Conductor*
%ADD30C,0.250000*%
G04 #@! TD*
G04 #@! TA.AperFunction,Conductor*
%ADD31C,0.200000*%
G04 #@! TD*
G04 #@! TA.AperFunction,Conductor*
%ADD32C,0.254000*%
G04 #@! TD*
G04 APERTURE END LIST*
D10*
G04 #@! TO.C,P1*
G36*
X160510000Y-77825000D02*
X160510000Y-78030000D01*
X158510000Y-78030000D01*
X158510000Y-76570000D01*
X160510000Y-76570000D01*
X160510000Y-76775000D01*
X159510000Y-76775000D01*
X159510000Y-77825000D01*
X160510000Y-77825000D01*
G37*
X160510000Y-77825000D02*
X160510000Y-78030000D01*
X158510000Y-78030000D01*
X158510000Y-76570000D01*
X160510000Y-76570000D01*
X160510000Y-76775000D01*
X159510000Y-76775000D01*
X159510000Y-77825000D01*
X160510000Y-77825000D01*
G36*
X164310000Y-77825000D02*
X164310000Y-78030000D01*
X166310000Y-78030000D01*
X166310000Y-76570000D01*
X164310000Y-76570000D01*
X164310000Y-76775000D01*
X165310000Y-76775000D01*
X165310000Y-77825000D01*
X164310000Y-77825000D01*
G37*
X164310000Y-77825000D02*
X164310000Y-78030000D01*
X166310000Y-78030000D01*
X166310000Y-76570000D01*
X164310000Y-76570000D01*
X164310000Y-76775000D01*
X165310000Y-76775000D01*
X165310000Y-77825000D01*
X164310000Y-77825000D01*
G36*
X158510000Y-76320000D02*
X158510000Y-75620000D01*
X159035000Y-75620000D01*
X159035000Y-74870000D01*
X160335000Y-74870000D01*
X160335000Y-76320000D01*
X158510000Y-76320000D01*
G37*
X158510000Y-76320000D02*
X158510000Y-75620000D01*
X159035000Y-75620000D01*
X159035000Y-74870000D01*
X160335000Y-74870000D01*
X160335000Y-76320000D01*
X158510000Y-76320000D01*
G36*
X159035000Y-73570000D02*
X159035000Y-73670000D01*
X160335000Y-73670000D01*
X160335000Y-73570000D01*
X160336750Y-73557549D01*
X160338770Y-73534492D01*
X160339580Y-73511361D01*
X160339170Y-73488219D01*
X160337560Y-73465130D01*
X160334740Y-73442157D01*
X160330720Y-73419363D01*
X160325510Y-73396811D01*
X160319130Y-73374563D01*
X160311600Y-73352678D01*
X160302930Y-73331218D01*
X160293150Y-73310241D01*
X160282280Y-73289805D01*
X160270360Y-73269970D01*
X160257420Y-73250780D01*
X160243490Y-73232290D01*
X160228610Y-73214560D01*
X160212820Y-73197630D01*
X160196180Y-73181560D01*
X160178710Y-73166370D01*
X160160470Y-73152120D01*
X160141510Y-73138850D01*
X160121880Y-73126580D01*
X160101640Y-73115360D01*
X160080840Y-73105210D01*
X160059530Y-73096170D01*
X160037780Y-73088250D01*
X160015650Y-73081490D01*
X159993190Y-73075890D01*
X159970470Y-73071470D01*
X159960000Y-73070000D01*
X159460000Y-73070000D01*
X159444960Y-73071310D01*
X159420890Y-73074690D01*
X159397040Y-73079330D01*
X159373460Y-73085200D01*
X159350220Y-73092310D01*
X159327380Y-73100620D01*
X159305010Y-73110120D01*
X159283170Y-73120770D01*
X159261910Y-73132550D01*
X159241310Y-73145430D01*
X159221400Y-73159370D01*
X159202250Y-73174330D01*
X159183910Y-73190270D01*
X159166430Y-73207150D01*
X159149850Y-73224930D01*
X159134230Y-73243540D01*
X159119610Y-73262950D01*
X159106020Y-73283096D01*
X159093500Y-73303926D01*
X159082090Y-73325383D01*
X159071820Y-73347407D01*
X159062720Y-73369939D01*
X159054810Y-73392917D01*
X159048110Y-73416277D01*
X159042640Y-73439955D01*
X159038420Y-73463888D01*
X159035460Y-73488008D01*
X159033770Y-73512250D01*
X159033340Y-73536548D01*
X159034190Y-73560835D01*
X159035000Y-73570000D01*
G37*
X159035000Y-73570000D02*
X159035000Y-73670000D01*
X160335000Y-73670000D01*
X160335000Y-73570000D01*
X160336750Y-73557549D01*
X160338770Y-73534492D01*
X160339580Y-73511361D01*
X160339170Y-73488219D01*
X160337560Y-73465130D01*
X160334740Y-73442157D01*
X160330720Y-73419363D01*
X160325510Y-73396811D01*
X160319130Y-73374563D01*
X160311600Y-73352678D01*
X160302930Y-73331218D01*
X160293150Y-73310241D01*
X160282280Y-73289805D01*
X160270360Y-73269970D01*
X160257420Y-73250780D01*
X160243490Y-73232290D01*
X160228610Y-73214560D01*
X160212820Y-73197630D01*
X160196180Y-73181560D01*
X160178710Y-73166370D01*
X160160470Y-73152120D01*
X160141510Y-73138850D01*
X160121880Y-73126580D01*
X160101640Y-73115360D01*
X160080840Y-73105210D01*
X160059530Y-73096170D01*
X160037780Y-73088250D01*
X160015650Y-73081490D01*
X159993190Y-73075890D01*
X159970470Y-73071470D01*
X159960000Y-73070000D01*
X159460000Y-73070000D01*
X159444960Y-73071310D01*
X159420890Y-73074690D01*
X159397040Y-73079330D01*
X159373460Y-73085200D01*
X159350220Y-73092310D01*
X159327380Y-73100620D01*
X159305010Y-73110120D01*
X159283170Y-73120770D01*
X159261910Y-73132550D01*
X159241310Y-73145430D01*
X159221400Y-73159370D01*
X159202250Y-73174330D01*
X159183910Y-73190270D01*
X159166430Y-73207150D01*
X159149850Y-73224930D01*
X159134230Y-73243540D01*
X159119610Y-73262950D01*
X159106020Y-73283096D01*
X159093500Y-73303926D01*
X159082090Y-73325383D01*
X159071820Y-73347407D01*
X159062720Y-73369939D01*
X159054810Y-73392917D01*
X159048110Y-73416277D01*
X159042640Y-73439955D01*
X159038420Y-73463888D01*
X159035460Y-73488008D01*
X159033770Y-73512250D01*
X159033340Y-73536548D01*
X159034190Y-73560835D01*
X159035000Y-73570000D01*
G36*
X166310000Y-76320000D02*
X166310000Y-75620000D01*
X165785000Y-75620000D01*
X165785000Y-74870000D01*
X164485000Y-74870000D01*
X164485000Y-76320000D01*
X166310000Y-76320000D01*
G37*
X166310000Y-76320000D02*
X166310000Y-75620000D01*
X165785000Y-75620000D01*
X165785000Y-74870000D01*
X164485000Y-74870000D01*
X164485000Y-76320000D01*
X166310000Y-76320000D01*
G36*
X165785000Y-73570000D02*
X165785000Y-73670000D01*
X164485000Y-73670000D01*
X164485000Y-73570000D01*
X164483250Y-73557549D01*
X164481230Y-73534492D01*
X164480420Y-73511361D01*
X164480830Y-73488219D01*
X164482440Y-73465130D01*
X164485260Y-73442157D01*
X164489280Y-73419363D01*
X164494490Y-73396811D01*
X164500870Y-73374563D01*
X164508400Y-73352678D01*
X164517070Y-73331218D01*
X164526850Y-73310241D01*
X164537720Y-73289805D01*
X164549640Y-73269970D01*
X164562580Y-73250780D01*
X164576510Y-73232290D01*
X164591390Y-73214560D01*
X164607180Y-73197630D01*
X164623820Y-73181560D01*
X164641290Y-73166370D01*
X164659530Y-73152120D01*
X164678490Y-73138850D01*
X164698120Y-73126580D01*
X164718360Y-73115360D01*
X164739160Y-73105210D01*
X164760470Y-73096170D01*
X164782220Y-73088250D01*
X164804350Y-73081490D01*
X164826810Y-73075890D01*
X164849530Y-73071470D01*
X164860000Y-73070000D01*
X165360000Y-73070000D01*
X165375040Y-73071310D01*
X165399110Y-73074690D01*
X165422960Y-73079330D01*
X165446540Y-73085200D01*
X165469780Y-73092310D01*
X165492620Y-73100620D01*
X165514990Y-73110120D01*
X165536830Y-73120770D01*
X165558090Y-73132550D01*
X165578690Y-73145430D01*
X165598600Y-73159370D01*
X165617750Y-73174330D01*
X165636090Y-73190270D01*
X165653570Y-73207150D01*
X165670150Y-73224930D01*
X165685770Y-73243540D01*
X165700390Y-73262950D01*
X165713980Y-73283096D01*
X165726500Y-73303926D01*
X165737910Y-73325383D01*
X165748180Y-73347407D01*
X165757280Y-73369939D01*
X165765190Y-73392917D01*
X165771890Y-73416277D01*
X165777360Y-73439955D01*
X165781580Y-73463888D01*
X165784540Y-73488008D01*
X165786230Y-73512250D01*
X165786660Y-73536548D01*
X165785810Y-73560835D01*
X165785000Y-73570000D01*
G37*
X165785000Y-73570000D02*
X165785000Y-73670000D01*
X164485000Y-73670000D01*
X164485000Y-73570000D01*
X164483250Y-73557549D01*
X164481230Y-73534492D01*
X164480420Y-73511361D01*
X164480830Y-73488219D01*
X164482440Y-73465130D01*
X164485260Y-73442157D01*
X164489280Y-73419363D01*
X164494490Y-73396811D01*
X164500870Y-73374563D01*
X164508400Y-73352678D01*
X164517070Y-73331218D01*
X164526850Y-73310241D01*
X164537720Y-73289805D01*
X164549640Y-73269970D01*
X164562580Y-73250780D01*
X164576510Y-73232290D01*
X164591390Y-73214560D01*
X164607180Y-73197630D01*
X164623820Y-73181560D01*
X164641290Y-73166370D01*
X164659530Y-73152120D01*
X164678490Y-73138850D01*
X164698120Y-73126580D01*
X164718360Y-73115360D01*
X164739160Y-73105210D01*
X164760470Y-73096170D01*
X164782220Y-73088250D01*
X164804350Y-73081490D01*
X164826810Y-73075890D01*
X164849530Y-73071470D01*
X164860000Y-73070000D01*
X165360000Y-73070000D01*
X165375040Y-73071310D01*
X165399110Y-73074690D01*
X165422960Y-73079330D01*
X165446540Y-73085200D01*
X165469780Y-73092310D01*
X165492620Y-73100620D01*
X165514990Y-73110120D01*
X165536830Y-73120770D01*
X165558090Y-73132550D01*
X165578690Y-73145430D01*
X165598600Y-73159370D01*
X165617750Y-73174330D01*
X165636090Y-73190270D01*
X165653570Y-73207150D01*
X165670150Y-73224930D01*
X165685770Y-73243540D01*
X165700390Y-73262950D01*
X165713980Y-73283096D01*
X165726500Y-73303926D01*
X165737910Y-73325383D01*
X165748180Y-73347407D01*
X165757280Y-73369939D01*
X165765190Y-73392917D01*
X165771890Y-73416277D01*
X165777360Y-73439955D01*
X165781580Y-73463888D01*
X165784540Y-73488008D01*
X165786230Y-73512250D01*
X165786660Y-73536548D01*
X165785810Y-73560835D01*
X165785000Y-73570000D01*
G04 #@! TD*
D11*
G04 #@! TO.P,P1,1*
G04 #@! TO.N,USBVCC*
X161110000Y-77095000D03*
G04 #@! TO.P,P1,2*
G04 #@! TO.N,/Data-*
X161760000Y-77095000D03*
G04 #@! TO.P,P1,3*
G04 #@! TO.N,/Data+*
X162410000Y-77095000D03*
G04 #@! TO.P,P1,4*
G04 #@! TO.N,Net-(P1-Pad4)*
X163060000Y-77095000D03*
G04 #@! TO.P,P1,5*
G04 #@! TO.N,GND*
X163710000Y-77095000D03*
D12*
G04 #@! TO.P,P1,S1*
G04 #@! TO.N,N/C*
X161447500Y-74020000D03*
G04 #@! TO.P,P1,S2*
X163372500Y-74020000D03*
D13*
G04 #@! TO.P,P1,S3*
X159985000Y-77300000D03*
G04 #@! TO.P,P1,S4*
X164835000Y-77300000D03*
D14*
G04 #@! TO.P,P1,S5*
X159685000Y-74270000D03*
G04 #@! TO.P,P1,S6*
X165135000Y-74270000D03*
G04 #@! TD*
D15*
G04 #@! TO.P,U1,1*
G04 #@! TO.N,rightArrBtn*
X186832000Y-84010000D03*
G04 #@! TO.P,U1,2*
G04 #@! TO.N,USBVCC*
X186832000Y-83210000D03*
G04 #@! TO.P,U1,3*
G04 #@! TO.N,D-*
X186832000Y-82410000D03*
G04 #@! TO.P,U1,4*
G04 #@! TO.N,D+*
X186832000Y-81610000D03*
G04 #@! TO.P,U1,5*
G04 #@! TO.N,GND*
X186832000Y-80810000D03*
G04 #@! TO.P,U1,6*
G04 #@! TO.N,Net-(C0-Pad1)*
X186832000Y-80010000D03*
G04 #@! TO.P,U1,7*
G04 #@! TO.N,USBVCC*
X186832000Y-79210000D03*
G04 #@! TO.P,U1,8*
G04 #@! TO.N,RXLED*
X186832000Y-78410000D03*
G04 #@! TO.P,U1,9*
G04 #@! TO.N,SCLK*
X186832000Y-77610000D03*
G04 #@! TO.P,U1,10*
G04 #@! TO.N,MOSI*
X186832000Y-76810000D03*
G04 #@! TO.P,U1,11*
G04 #@! TO.N,MISO*
X186832000Y-76010000D03*
D16*
G04 #@! TO.P,U1,12*
G04 #@! TO.N,powerLED*
X188532000Y-74310000D03*
G04 #@! TO.P,U1,13*
G04 #@! TO.N,RESET*
X189332000Y-74310000D03*
G04 #@! TO.P,U1,14*
G04 #@! TO.N,VCC*
X190132000Y-74310000D03*
G04 #@! TO.P,U1,15*
G04 #@! TO.N,GND*
X190932000Y-74310000D03*
G04 #@! TO.P,U1,16*
G04 #@! TO.N,XTal2*
X191732000Y-74310000D03*
G04 #@! TO.P,U1,17*
G04 #@! TO.N,XTal1*
X192532000Y-74310000D03*
G04 #@! TO.P,U1,18*
G04 #@! TO.N,Net-(U1-Pad18)*
X193332000Y-74310000D03*
G04 #@! TO.P,U1,19*
G04 #@! TO.N,Net-(U1-Pad19)*
X194132000Y-74310000D03*
G04 #@! TO.P,U1,20*
G04 #@! TO.N,Net-(U1-Pad20)*
X194932000Y-74310000D03*
G04 #@! TO.P,U1,21*
G04 #@! TO.N,Net-(U1-Pad21)*
X195732000Y-74310000D03*
G04 #@! TO.P,U1,22*
G04 #@! TO.N,TXLED*
X196532000Y-74310000D03*
D15*
G04 #@! TO.P,U1,23*
G04 #@! TO.N,GND*
X198232000Y-76010000D03*
G04 #@! TO.P,U1,24*
G04 #@! TO.N,VCC*
X198232000Y-76810000D03*
G04 #@! TO.P,U1,25*
G04 #@! TO.N,downArrBtn*
X198232000Y-77610000D03*
G04 #@! TO.P,U1,26*
G04 #@! TO.N,upArrSens*
X198232000Y-78410000D03*
G04 #@! TO.P,U1,27*
G04 #@! TO.N,downArrSens*
X198232000Y-79210000D03*
G04 #@! TO.P,U1,28*
G04 #@! TO.N,homeBtn*
X198232000Y-80010000D03*
G04 #@! TO.P,U1,29*
G04 #@! TO.N,nodeLED*
X198232000Y-80810000D03*
G04 #@! TO.P,U1,30*
G04 #@! TO.N,interactLED*
X198232000Y-81610000D03*
G04 #@! TO.P,U1,31*
G04 #@! TO.N,phoneLED*
X198232000Y-82410000D03*
G04 #@! TO.P,U1,32*
G04 #@! TO.N,emailLED*
X198232000Y-83210000D03*
G04 #@! TO.P,U1,33*
G04 #@! TO.N,GND*
X198232000Y-84010000D03*
D16*
G04 #@! TO.P,U1,34*
G04 #@! TO.N,VCC*
X196532000Y-85710000D03*
G04 #@! TO.P,U1,35*
G04 #@! TO.N,GND*
X195732000Y-85710000D03*
G04 #@! TO.P,U1,36*
G04 #@! TO.N,Net-(U1-Pad36)*
X194932000Y-85710000D03*
G04 #@! TO.P,U1,37*
G04 #@! TO.N,Net-(U1-Pad37)*
X194132000Y-85710000D03*
G04 #@! TO.P,U1,38*
G04 #@! TO.N,Net-(U1-Pad38)*
X193332000Y-85710000D03*
G04 #@! TO.P,U1,39*
G04 #@! TO.N,rightArrSens*
X192532000Y-85710000D03*
G04 #@! TO.P,U1,40*
G04 #@! TO.N,leftArrSens*
X191732000Y-85710000D03*
G04 #@! TO.P,U1,41*
G04 #@! TO.N,homeSens*
X190932000Y-85710000D03*
G04 #@! TO.P,U1,42*
G04 #@! TO.N,Net-(C3-Pad1)*
X190132000Y-85710000D03*
G04 #@! TO.P,U1,43*
G04 #@! TO.N,GND*
X189332000Y-85710000D03*
G04 #@! TO.P,U1,44*
G04 #@! TO.N,VCC*
X188532000Y-85710000D03*
G04 #@! TD*
D17*
G04 #@! TO.P,F1,1*
G04 #@! TO.N,USBVCC*
X168656000Y-73914000D03*
G04 #@! TO.P,F1,2*
G04 #@! TO.N,VCC*
X171056000Y-73914000D03*
G04 #@! TD*
D18*
G04 #@! TO.P,Y1,1*
G04 #@! TO.N,XTal1*
X202146000Y-80856000D03*
G04 #@! TO.P,Y1,3*
G04 #@! TO.N,N/C*
X202146000Y-78656000D03*
X203746000Y-80856000D03*
G04 #@! TO.P,Y1,2*
G04 #@! TO.N,XTal2*
X203746000Y-78656000D03*
G04 #@! TD*
D19*
G04 #@! TO.P,D1,2*
G04 #@! TO.N,powerLED*
X200010000Y-100320000D03*
G04 #@! TO.P,D1,1*
G04 #@! TO.N,Net-(D1-Pad1)*
X197810000Y-100320000D03*
G04 #@! TD*
G04 #@! TO.P,D2,2*
G04 #@! TO.N,nodeLED*
X199982000Y-105156000D03*
G04 #@! TO.P,D2,1*
G04 #@! TO.N,Net-(D2-Pad1)*
X197782000Y-105156000D03*
G04 #@! TD*
G04 #@! TO.P,D3,2*
G04 #@! TO.N,interactLED*
X200020000Y-109870000D03*
G04 #@! TO.P,D3,1*
G04 #@! TO.N,Net-(D3-Pad1)*
X197820000Y-109870000D03*
G04 #@! TD*
G04 #@! TO.P,D4,2*
G04 #@! TO.N,emailLED*
X181948000Y-120904000D03*
G04 #@! TO.P,D4,1*
G04 #@! TO.N,Net-(D4-Pad1)*
X179748000Y-120904000D03*
G04 #@! TD*
G04 #@! TO.P,D5,2*
G04 #@! TO.N,phoneLED*
X151722000Y-121158000D03*
G04 #@! TO.P,D5,1*
G04 #@! TO.N,Net-(D5-Pad1)*
X149522000Y-121158000D03*
G04 #@! TD*
D20*
G04 #@! TO.P,R1,1*
G04 #@! TO.N,Net-(D1-Pad1)*
X126106000Y-100330000D03*
G04 #@! TO.P,R1,2*
G04 #@! TO.N,GND*
X124206000Y-100330000D03*
G04 #@! TD*
G04 #@! TO.P,R2,1*
G04 #@! TO.N,Net-(D2-Pad1)*
X126172000Y-105156000D03*
G04 #@! TO.P,R2,2*
G04 #@! TO.N,GND*
X124272000Y-105156000D03*
G04 #@! TD*
G04 #@! TO.P,R3,1*
G04 #@! TO.N,Net-(D3-Pad1)*
X126172000Y-109982000D03*
G04 #@! TO.P,R3,2*
G04 #@! TO.N,GND*
X124272000Y-109982000D03*
G04 #@! TD*
G04 #@! TO.P,R4,1*
G04 #@! TO.N,Net-(D4-Pad1)*
X171384000Y-120904000D03*
G04 #@! TO.P,R4,2*
G04 #@! TO.N,GND*
X169484000Y-120904000D03*
G04 #@! TD*
G04 #@! TO.P,R5,1*
G04 #@! TO.N,Net-(D5-Pad1)*
X141412000Y-121158000D03*
G04 #@! TO.P,R5,2*
G04 #@! TO.N,GND*
X139512000Y-121158000D03*
G04 #@! TD*
G04 #@! TO.P,R8,1*
G04 #@! TO.N,D+*
X182814000Y-78994000D03*
G04 #@! TO.P,R8,2*
G04 #@! TO.N,/Data+*
X180914000Y-78994000D03*
G04 #@! TD*
G04 #@! TO.P,R9,1*
G04 #@! TO.N,D-*
X182814000Y-81534000D03*
G04 #@! TO.P,R9,2*
G04 #@! TO.N,/Data-*
X180914000Y-81534000D03*
G04 #@! TD*
G04 #@! TO.P,R10,1*
G04 #@! TO.N,RESET*
X202250000Y-75184000D03*
G04 #@! TO.P,R10,2*
G04 #@! TO.N,VCC*
X204150000Y-75184000D03*
G04 #@! TD*
D21*
G04 #@! TO.P,C1,1*
G04 #@! TO.N,XTal2*
X203962000Y-84090000D03*
G04 #@! TO.P,C1,2*
G04 #@! TO.N,GND*
X203962000Y-86090000D03*
G04 #@! TD*
G04 #@! TO.P,C2,1*
G04 #@! TO.N,XTal1*
X201676000Y-84090000D03*
G04 #@! TO.P,C2,2*
G04 #@! TO.N,GND*
X201676000Y-86090000D03*
G04 #@! TD*
D22*
G04 #@! TO.P,C3,1*
G04 #@! TO.N,Net-(C3-Pad1)*
X182864000Y-83820000D03*
G04 #@! TO.P,C3,2*
G04 #@! TO.N,GND*
X180864000Y-83820000D03*
G04 #@! TD*
D23*
G04 #@! TO.P,C4,1*
G04 #@! TO.N,VCC*
X135192000Y-73914000D03*
G04 #@! TO.P,C4,2*
G04 #@! TO.N,GND*
X132842000Y-73914000D03*
G04 #@! TD*
G04 #@! TO.P,C5,1*
G04 #@! TO.N,VCC*
X135287000Y-76962000D03*
G04 #@! TO.P,C5,2*
G04 #@! TO.N,GND*
X132937000Y-76962000D03*
G04 #@! TD*
D24*
G04 #@! TO.P,P3,1*
G04 #@! TO.N,GND*
X141224000Y-74168000D03*
D25*
G04 #@! TO.P,P3,2*
G04 #@! TO.N,VCC*
X141224000Y-76708000D03*
G04 #@! TO.P,P3,3*
G04 #@! TO.N,SCLK*
X141224000Y-79248000D03*
G04 #@! TD*
D24*
G04 #@! TO.P,P8,1*
G04 #@! TO.N,RESET*
X154178000Y-73914000D03*
G04 #@! TD*
G04 #@! TO.P,P9,1*
G04 #@! TO.N,MOSI*
X147828000Y-74168000D03*
D25*
G04 #@! TO.P,P9,2*
G04 #@! TO.N,MISO*
X147828000Y-76708000D03*
G04 #@! TD*
D23*
G04 #@! TO.P,C0,1*
G04 #@! TO.N,Net-(C0-Pad1)*
X197961000Y-93726000D03*
G04 #@! TO.P,C0,2*
G04 #@! TO.N,GND*
X200311000Y-93726000D03*
G04 #@! TD*
D19*
G04 #@! TO.P,D6,2*
G04 #@! TO.N,VCC*
X174668000Y-73660000D03*
G04 #@! TO.P,D6,1*
G04 #@! TO.N,Net-(D6-Pad1)*
X176868000Y-73660000D03*
G04 #@! TD*
G04 #@! TO.P,D7,2*
G04 #@! TO.N,VCC*
X174668000Y-76200000D03*
G04 #@! TO.P,D7,1*
G04 #@! TO.N,Net-(D7-Pad1)*
X176868000Y-76200000D03*
G04 #@! TD*
D20*
G04 #@! TO.P,R6,1*
G04 #@! TO.N,TXLED*
X182814000Y-73660000D03*
G04 #@! TO.P,R6,2*
G04 #@! TO.N,Net-(D6-Pad1)*
X180914000Y-73660000D03*
G04 #@! TD*
G04 #@! TO.P,R7,1*
G04 #@! TO.N,RXLED*
X182814000Y-76200000D03*
G04 #@! TO.P,R7,2*
G04 #@! TO.N,Net-(D7-Pad1)*
X180914000Y-76200000D03*
G04 #@! TD*
D26*
G04 #@! TO.N,homeSens*
G04 #@! TO.C,R11*
G36*
X134633642Y-79057174D02*
X134657303Y-79060684D01*
X134680507Y-79066496D01*
X134703029Y-79074554D01*
X134724653Y-79084782D01*
X134745170Y-79097079D01*
X134764383Y-79111329D01*
X134782107Y-79127393D01*
X134798171Y-79145117D01*
X134812421Y-79164330D01*
X134824718Y-79184847D01*
X134834946Y-79206471D01*
X134843004Y-79228993D01*
X134848816Y-79252197D01*
X134852326Y-79275858D01*
X134853500Y-79299750D01*
X134853500Y-80212250D01*
X134852326Y-80236142D01*
X134848816Y-80259803D01*
X134843004Y-80283007D01*
X134834946Y-80305529D01*
X134824718Y-80327153D01*
X134812421Y-80347670D01*
X134798171Y-80366883D01*
X134782107Y-80384607D01*
X134764383Y-80400671D01*
X134745170Y-80414921D01*
X134724653Y-80427218D01*
X134703029Y-80437446D01*
X134680507Y-80445504D01*
X134657303Y-80451316D01*
X134633642Y-80454826D01*
X134609750Y-80456000D01*
X134122250Y-80456000D01*
X134098358Y-80454826D01*
X134074697Y-80451316D01*
X134051493Y-80445504D01*
X134028971Y-80437446D01*
X134007347Y-80427218D01*
X133986830Y-80414921D01*
X133967617Y-80400671D01*
X133949893Y-80384607D01*
X133933829Y-80366883D01*
X133919579Y-80347670D01*
X133907282Y-80327153D01*
X133897054Y-80305529D01*
X133888996Y-80283007D01*
X133883184Y-80259803D01*
X133879674Y-80236142D01*
X133878500Y-80212250D01*
X133878500Y-79299750D01*
X133879674Y-79275858D01*
X133883184Y-79252197D01*
X133888996Y-79228993D01*
X133897054Y-79206471D01*
X133907282Y-79184847D01*
X133919579Y-79164330D01*
X133933829Y-79145117D01*
X133949893Y-79127393D01*
X133967617Y-79111329D01*
X133986830Y-79097079D01*
X134007347Y-79084782D01*
X134028971Y-79074554D01*
X134051493Y-79066496D01*
X134074697Y-79060684D01*
X134098358Y-79057174D01*
X134122250Y-79056000D01*
X134609750Y-79056000D01*
X134633642Y-79057174D01*
X134633642Y-79057174D01*
G37*
D27*
G04 #@! TD*
G04 #@! TO.P,R11,1*
G04 #@! TO.N,homeSens*
X134366000Y-79756000D03*
D26*
G04 #@! TO.N,homeBtn*
G04 #@! TO.C,R11*
G36*
X132758642Y-79057174D02*
X132782303Y-79060684D01*
X132805507Y-79066496D01*
X132828029Y-79074554D01*
X132849653Y-79084782D01*
X132870170Y-79097079D01*
X132889383Y-79111329D01*
X132907107Y-79127393D01*
X132923171Y-79145117D01*
X132937421Y-79164330D01*
X132949718Y-79184847D01*
X132959946Y-79206471D01*
X132968004Y-79228993D01*
X132973816Y-79252197D01*
X132977326Y-79275858D01*
X132978500Y-79299750D01*
X132978500Y-80212250D01*
X132977326Y-80236142D01*
X132973816Y-80259803D01*
X132968004Y-80283007D01*
X132959946Y-80305529D01*
X132949718Y-80327153D01*
X132937421Y-80347670D01*
X132923171Y-80366883D01*
X132907107Y-80384607D01*
X132889383Y-80400671D01*
X132870170Y-80414921D01*
X132849653Y-80427218D01*
X132828029Y-80437446D01*
X132805507Y-80445504D01*
X132782303Y-80451316D01*
X132758642Y-80454826D01*
X132734750Y-80456000D01*
X132247250Y-80456000D01*
X132223358Y-80454826D01*
X132199697Y-80451316D01*
X132176493Y-80445504D01*
X132153971Y-80437446D01*
X132132347Y-80427218D01*
X132111830Y-80414921D01*
X132092617Y-80400671D01*
X132074893Y-80384607D01*
X132058829Y-80366883D01*
X132044579Y-80347670D01*
X132032282Y-80327153D01*
X132022054Y-80305529D01*
X132013996Y-80283007D01*
X132008184Y-80259803D01*
X132004674Y-80236142D01*
X132003500Y-80212250D01*
X132003500Y-79299750D01*
X132004674Y-79275858D01*
X132008184Y-79252197D01*
X132013996Y-79228993D01*
X132022054Y-79206471D01*
X132032282Y-79184847D01*
X132044579Y-79164330D01*
X132058829Y-79145117D01*
X132074893Y-79127393D01*
X132092617Y-79111329D01*
X132111830Y-79097079D01*
X132132347Y-79084782D01*
X132153971Y-79074554D01*
X132176493Y-79066496D01*
X132199697Y-79060684D01*
X132223358Y-79057174D01*
X132247250Y-79056000D01*
X132734750Y-79056000D01*
X132758642Y-79057174D01*
X132758642Y-79057174D01*
G37*
D27*
G04 #@! TD*
G04 #@! TO.P,R11,2*
G04 #@! TO.N,homeBtn*
X132491000Y-79756000D03*
D26*
G04 #@! TO.N,homeBtn*
G04 #@! TO.C,R12*
G36*
X125060142Y-72961174D02*
X125083803Y-72964684D01*
X125107007Y-72970496D01*
X125129529Y-72978554D01*
X125151153Y-72988782D01*
X125171670Y-73001079D01*
X125190883Y-73015329D01*
X125208607Y-73031393D01*
X125224671Y-73049117D01*
X125238921Y-73068330D01*
X125251218Y-73088847D01*
X125261446Y-73110471D01*
X125269504Y-73132993D01*
X125275316Y-73156197D01*
X125278826Y-73179858D01*
X125280000Y-73203750D01*
X125280000Y-74116250D01*
X125278826Y-74140142D01*
X125275316Y-74163803D01*
X125269504Y-74187007D01*
X125261446Y-74209529D01*
X125251218Y-74231153D01*
X125238921Y-74251670D01*
X125224671Y-74270883D01*
X125208607Y-74288607D01*
X125190883Y-74304671D01*
X125171670Y-74318921D01*
X125151153Y-74331218D01*
X125129529Y-74341446D01*
X125107007Y-74349504D01*
X125083803Y-74355316D01*
X125060142Y-74358826D01*
X125036250Y-74360000D01*
X124548750Y-74360000D01*
X124524858Y-74358826D01*
X124501197Y-74355316D01*
X124477993Y-74349504D01*
X124455471Y-74341446D01*
X124433847Y-74331218D01*
X124413330Y-74318921D01*
X124394117Y-74304671D01*
X124376393Y-74288607D01*
X124360329Y-74270883D01*
X124346079Y-74251670D01*
X124333782Y-74231153D01*
X124323554Y-74209529D01*
X124315496Y-74187007D01*
X124309684Y-74163803D01*
X124306174Y-74140142D01*
X124305000Y-74116250D01*
X124305000Y-73203750D01*
X124306174Y-73179858D01*
X124309684Y-73156197D01*
X124315496Y-73132993D01*
X124323554Y-73110471D01*
X124333782Y-73088847D01*
X124346079Y-73068330D01*
X124360329Y-73049117D01*
X124376393Y-73031393D01*
X124394117Y-73015329D01*
X124413330Y-73001079D01*
X124433847Y-72988782D01*
X124455471Y-72978554D01*
X124477993Y-72970496D01*
X124501197Y-72964684D01*
X124524858Y-72961174D01*
X124548750Y-72960000D01*
X125036250Y-72960000D01*
X125060142Y-72961174D01*
X125060142Y-72961174D01*
G37*
D27*
G04 #@! TD*
G04 #@! TO.P,R12,2*
G04 #@! TO.N,homeBtn*
X124792500Y-73660000D03*
D26*
G04 #@! TO.N,leftArrSens*
G04 #@! TO.C,R12*
G36*
X126935142Y-72961174D02*
X126958803Y-72964684D01*
X126982007Y-72970496D01*
X127004529Y-72978554D01*
X127026153Y-72988782D01*
X127046670Y-73001079D01*
X127065883Y-73015329D01*
X127083607Y-73031393D01*
X127099671Y-73049117D01*
X127113921Y-73068330D01*
X127126218Y-73088847D01*
X127136446Y-73110471D01*
X127144504Y-73132993D01*
X127150316Y-73156197D01*
X127153826Y-73179858D01*
X127155000Y-73203750D01*
X127155000Y-74116250D01*
X127153826Y-74140142D01*
X127150316Y-74163803D01*
X127144504Y-74187007D01*
X127136446Y-74209529D01*
X127126218Y-74231153D01*
X127113921Y-74251670D01*
X127099671Y-74270883D01*
X127083607Y-74288607D01*
X127065883Y-74304671D01*
X127046670Y-74318921D01*
X127026153Y-74331218D01*
X127004529Y-74341446D01*
X126982007Y-74349504D01*
X126958803Y-74355316D01*
X126935142Y-74358826D01*
X126911250Y-74360000D01*
X126423750Y-74360000D01*
X126399858Y-74358826D01*
X126376197Y-74355316D01*
X126352993Y-74349504D01*
X126330471Y-74341446D01*
X126308847Y-74331218D01*
X126288330Y-74318921D01*
X126269117Y-74304671D01*
X126251393Y-74288607D01*
X126235329Y-74270883D01*
X126221079Y-74251670D01*
X126208782Y-74231153D01*
X126198554Y-74209529D01*
X126190496Y-74187007D01*
X126184684Y-74163803D01*
X126181174Y-74140142D01*
X126180000Y-74116250D01*
X126180000Y-73203750D01*
X126181174Y-73179858D01*
X126184684Y-73156197D01*
X126190496Y-73132993D01*
X126198554Y-73110471D01*
X126208782Y-73088847D01*
X126221079Y-73068330D01*
X126235329Y-73049117D01*
X126251393Y-73031393D01*
X126269117Y-73015329D01*
X126288330Y-73001079D01*
X126308847Y-72988782D01*
X126330471Y-72978554D01*
X126352993Y-72970496D01*
X126376197Y-72964684D01*
X126399858Y-72961174D01*
X126423750Y-72960000D01*
X126911250Y-72960000D01*
X126935142Y-72961174D01*
X126935142Y-72961174D01*
G37*
D27*
G04 #@! TD*
G04 #@! TO.P,R12,1*
G04 #@! TO.N,leftArrSens*
X126667500Y-73660000D03*
D26*
G04 #@! TO.N,rightArrSens*
G04 #@! TO.C,R13*
G36*
X127013642Y-75501174D02*
X127037303Y-75504684D01*
X127060507Y-75510496D01*
X127083029Y-75518554D01*
X127104653Y-75528782D01*
X127125170Y-75541079D01*
X127144383Y-75555329D01*
X127162107Y-75571393D01*
X127178171Y-75589117D01*
X127192421Y-75608330D01*
X127204718Y-75628847D01*
X127214946Y-75650471D01*
X127223004Y-75672993D01*
X127228816Y-75696197D01*
X127232326Y-75719858D01*
X127233500Y-75743750D01*
X127233500Y-76656250D01*
X127232326Y-76680142D01*
X127228816Y-76703803D01*
X127223004Y-76727007D01*
X127214946Y-76749529D01*
X127204718Y-76771153D01*
X127192421Y-76791670D01*
X127178171Y-76810883D01*
X127162107Y-76828607D01*
X127144383Y-76844671D01*
X127125170Y-76858921D01*
X127104653Y-76871218D01*
X127083029Y-76881446D01*
X127060507Y-76889504D01*
X127037303Y-76895316D01*
X127013642Y-76898826D01*
X126989750Y-76900000D01*
X126502250Y-76900000D01*
X126478358Y-76898826D01*
X126454697Y-76895316D01*
X126431493Y-76889504D01*
X126408971Y-76881446D01*
X126387347Y-76871218D01*
X126366830Y-76858921D01*
X126347617Y-76844671D01*
X126329893Y-76828607D01*
X126313829Y-76810883D01*
X126299579Y-76791670D01*
X126287282Y-76771153D01*
X126277054Y-76749529D01*
X126268996Y-76727007D01*
X126263184Y-76703803D01*
X126259674Y-76680142D01*
X126258500Y-76656250D01*
X126258500Y-75743750D01*
X126259674Y-75719858D01*
X126263184Y-75696197D01*
X126268996Y-75672993D01*
X126277054Y-75650471D01*
X126287282Y-75628847D01*
X126299579Y-75608330D01*
X126313829Y-75589117D01*
X126329893Y-75571393D01*
X126347617Y-75555329D01*
X126366830Y-75541079D01*
X126387347Y-75528782D01*
X126408971Y-75518554D01*
X126431493Y-75510496D01*
X126454697Y-75504684D01*
X126478358Y-75501174D01*
X126502250Y-75500000D01*
X126989750Y-75500000D01*
X127013642Y-75501174D01*
X127013642Y-75501174D01*
G37*
D27*
G04 #@! TD*
G04 #@! TO.P,R13,1*
G04 #@! TO.N,rightArrSens*
X126746000Y-76200000D03*
D26*
G04 #@! TO.N,rightArrBtn*
G04 #@! TO.C,R13*
G36*
X125138642Y-75501174D02*
X125162303Y-75504684D01*
X125185507Y-75510496D01*
X125208029Y-75518554D01*
X125229653Y-75528782D01*
X125250170Y-75541079D01*
X125269383Y-75555329D01*
X125287107Y-75571393D01*
X125303171Y-75589117D01*
X125317421Y-75608330D01*
X125329718Y-75628847D01*
X125339946Y-75650471D01*
X125348004Y-75672993D01*
X125353816Y-75696197D01*
X125357326Y-75719858D01*
X125358500Y-75743750D01*
X125358500Y-76656250D01*
X125357326Y-76680142D01*
X125353816Y-76703803D01*
X125348004Y-76727007D01*
X125339946Y-76749529D01*
X125329718Y-76771153D01*
X125317421Y-76791670D01*
X125303171Y-76810883D01*
X125287107Y-76828607D01*
X125269383Y-76844671D01*
X125250170Y-76858921D01*
X125229653Y-76871218D01*
X125208029Y-76881446D01*
X125185507Y-76889504D01*
X125162303Y-76895316D01*
X125138642Y-76898826D01*
X125114750Y-76900000D01*
X124627250Y-76900000D01*
X124603358Y-76898826D01*
X124579697Y-76895316D01*
X124556493Y-76889504D01*
X124533971Y-76881446D01*
X124512347Y-76871218D01*
X124491830Y-76858921D01*
X124472617Y-76844671D01*
X124454893Y-76828607D01*
X124438829Y-76810883D01*
X124424579Y-76791670D01*
X124412282Y-76771153D01*
X124402054Y-76749529D01*
X124393996Y-76727007D01*
X124388184Y-76703803D01*
X124384674Y-76680142D01*
X124383500Y-76656250D01*
X124383500Y-75743750D01*
X124384674Y-75719858D01*
X124388184Y-75696197D01*
X124393996Y-75672993D01*
X124402054Y-75650471D01*
X124412282Y-75628847D01*
X124424579Y-75608330D01*
X124438829Y-75589117D01*
X124454893Y-75571393D01*
X124472617Y-75555329D01*
X124491830Y-75541079D01*
X124512347Y-75528782D01*
X124533971Y-75518554D01*
X124556493Y-75510496D01*
X124579697Y-75504684D01*
X124603358Y-75501174D01*
X124627250Y-75500000D01*
X125114750Y-75500000D01*
X125138642Y-75501174D01*
X125138642Y-75501174D01*
G37*
D27*
G04 #@! TD*
G04 #@! TO.P,R13,2*
G04 #@! TO.N,rightArrBtn*
X124871000Y-76200000D03*
D26*
G04 #@! TO.N,rightArrBtn*
G04 #@! TO.C,R14*
G36*
X125138642Y-78041174D02*
X125162303Y-78044684D01*
X125185507Y-78050496D01*
X125208029Y-78058554D01*
X125229653Y-78068782D01*
X125250170Y-78081079D01*
X125269383Y-78095329D01*
X125287107Y-78111393D01*
X125303171Y-78129117D01*
X125317421Y-78148330D01*
X125329718Y-78168847D01*
X125339946Y-78190471D01*
X125348004Y-78212993D01*
X125353816Y-78236197D01*
X125357326Y-78259858D01*
X125358500Y-78283750D01*
X125358500Y-79196250D01*
X125357326Y-79220142D01*
X125353816Y-79243803D01*
X125348004Y-79267007D01*
X125339946Y-79289529D01*
X125329718Y-79311153D01*
X125317421Y-79331670D01*
X125303171Y-79350883D01*
X125287107Y-79368607D01*
X125269383Y-79384671D01*
X125250170Y-79398921D01*
X125229653Y-79411218D01*
X125208029Y-79421446D01*
X125185507Y-79429504D01*
X125162303Y-79435316D01*
X125138642Y-79438826D01*
X125114750Y-79440000D01*
X124627250Y-79440000D01*
X124603358Y-79438826D01*
X124579697Y-79435316D01*
X124556493Y-79429504D01*
X124533971Y-79421446D01*
X124512347Y-79411218D01*
X124491830Y-79398921D01*
X124472617Y-79384671D01*
X124454893Y-79368607D01*
X124438829Y-79350883D01*
X124424579Y-79331670D01*
X124412282Y-79311153D01*
X124402054Y-79289529D01*
X124393996Y-79267007D01*
X124388184Y-79243803D01*
X124384674Y-79220142D01*
X124383500Y-79196250D01*
X124383500Y-78283750D01*
X124384674Y-78259858D01*
X124388184Y-78236197D01*
X124393996Y-78212993D01*
X124402054Y-78190471D01*
X124412282Y-78168847D01*
X124424579Y-78148330D01*
X124438829Y-78129117D01*
X124454893Y-78111393D01*
X124472617Y-78095329D01*
X124491830Y-78081079D01*
X124512347Y-78068782D01*
X124533971Y-78058554D01*
X124556493Y-78050496D01*
X124579697Y-78044684D01*
X124603358Y-78041174D01*
X124627250Y-78040000D01*
X125114750Y-78040000D01*
X125138642Y-78041174D01*
X125138642Y-78041174D01*
G37*
D27*
G04 #@! TD*
G04 #@! TO.P,R14,2*
G04 #@! TO.N,rightArrBtn*
X124871000Y-78740000D03*
D26*
G04 #@! TO.N,upArrSens*
G04 #@! TO.C,R14*
G36*
X127013642Y-78041174D02*
X127037303Y-78044684D01*
X127060507Y-78050496D01*
X127083029Y-78058554D01*
X127104653Y-78068782D01*
X127125170Y-78081079D01*
X127144383Y-78095329D01*
X127162107Y-78111393D01*
X127178171Y-78129117D01*
X127192421Y-78148330D01*
X127204718Y-78168847D01*
X127214946Y-78190471D01*
X127223004Y-78212993D01*
X127228816Y-78236197D01*
X127232326Y-78259858D01*
X127233500Y-78283750D01*
X127233500Y-79196250D01*
X127232326Y-79220142D01*
X127228816Y-79243803D01*
X127223004Y-79267007D01*
X127214946Y-79289529D01*
X127204718Y-79311153D01*
X127192421Y-79331670D01*
X127178171Y-79350883D01*
X127162107Y-79368607D01*
X127144383Y-79384671D01*
X127125170Y-79398921D01*
X127104653Y-79411218D01*
X127083029Y-79421446D01*
X127060507Y-79429504D01*
X127037303Y-79435316D01*
X127013642Y-79438826D01*
X126989750Y-79440000D01*
X126502250Y-79440000D01*
X126478358Y-79438826D01*
X126454697Y-79435316D01*
X126431493Y-79429504D01*
X126408971Y-79421446D01*
X126387347Y-79411218D01*
X126366830Y-79398921D01*
X126347617Y-79384671D01*
X126329893Y-79368607D01*
X126313829Y-79350883D01*
X126299579Y-79331670D01*
X126287282Y-79311153D01*
X126277054Y-79289529D01*
X126268996Y-79267007D01*
X126263184Y-79243803D01*
X126259674Y-79220142D01*
X126258500Y-79196250D01*
X126258500Y-78283750D01*
X126259674Y-78259858D01*
X126263184Y-78236197D01*
X126268996Y-78212993D01*
X126277054Y-78190471D01*
X126287282Y-78168847D01*
X126299579Y-78148330D01*
X126313829Y-78129117D01*
X126329893Y-78111393D01*
X126347617Y-78095329D01*
X126366830Y-78081079D01*
X126387347Y-78068782D01*
X126408971Y-78058554D01*
X126431493Y-78050496D01*
X126454697Y-78044684D01*
X126478358Y-78041174D01*
X126502250Y-78040000D01*
X126989750Y-78040000D01*
X127013642Y-78041174D01*
X127013642Y-78041174D01*
G37*
D27*
G04 #@! TD*
G04 #@! TO.P,R14,1*
G04 #@! TO.N,upArrSens*
X126746000Y-78740000D03*
D26*
G04 #@! TO.N,downArrSens*
G04 #@! TO.C,R15*
G36*
X126935142Y-80581174D02*
X126958803Y-80584684D01*
X126982007Y-80590496D01*
X127004529Y-80598554D01*
X127026153Y-80608782D01*
X127046670Y-80621079D01*
X127065883Y-80635329D01*
X127083607Y-80651393D01*
X127099671Y-80669117D01*
X127113921Y-80688330D01*
X127126218Y-80708847D01*
X127136446Y-80730471D01*
X127144504Y-80752993D01*
X127150316Y-80776197D01*
X127153826Y-80799858D01*
X127155000Y-80823750D01*
X127155000Y-81736250D01*
X127153826Y-81760142D01*
X127150316Y-81783803D01*
X127144504Y-81807007D01*
X127136446Y-81829529D01*
X127126218Y-81851153D01*
X127113921Y-81871670D01*
X127099671Y-81890883D01*
X127083607Y-81908607D01*
X127065883Y-81924671D01*
X127046670Y-81938921D01*
X127026153Y-81951218D01*
X127004529Y-81961446D01*
X126982007Y-81969504D01*
X126958803Y-81975316D01*
X126935142Y-81978826D01*
X126911250Y-81980000D01*
X126423750Y-81980000D01*
X126399858Y-81978826D01*
X126376197Y-81975316D01*
X126352993Y-81969504D01*
X126330471Y-81961446D01*
X126308847Y-81951218D01*
X126288330Y-81938921D01*
X126269117Y-81924671D01*
X126251393Y-81908607D01*
X126235329Y-81890883D01*
X126221079Y-81871670D01*
X126208782Y-81851153D01*
X126198554Y-81829529D01*
X126190496Y-81807007D01*
X126184684Y-81783803D01*
X126181174Y-81760142D01*
X126180000Y-81736250D01*
X126180000Y-80823750D01*
X126181174Y-80799858D01*
X126184684Y-80776197D01*
X126190496Y-80752993D01*
X126198554Y-80730471D01*
X126208782Y-80708847D01*
X126221079Y-80688330D01*
X126235329Y-80669117D01*
X126251393Y-80651393D01*
X126269117Y-80635329D01*
X126288330Y-80621079D01*
X126308847Y-80608782D01*
X126330471Y-80598554D01*
X126352993Y-80590496D01*
X126376197Y-80584684D01*
X126399858Y-80581174D01*
X126423750Y-80580000D01*
X126911250Y-80580000D01*
X126935142Y-80581174D01*
X126935142Y-80581174D01*
G37*
D27*
G04 #@! TD*
G04 #@! TO.P,R15,1*
G04 #@! TO.N,downArrSens*
X126667500Y-81280000D03*
D26*
G04 #@! TO.N,downArrBtn*
G04 #@! TO.C,R15*
G36*
X125060142Y-80581174D02*
X125083803Y-80584684D01*
X125107007Y-80590496D01*
X125129529Y-80598554D01*
X125151153Y-80608782D01*
X125171670Y-80621079D01*
X125190883Y-80635329D01*
X125208607Y-80651393D01*
X125224671Y-80669117D01*
X125238921Y-80688330D01*
X125251218Y-80708847D01*
X125261446Y-80730471D01*
X125269504Y-80752993D01*
X125275316Y-80776197D01*
X125278826Y-80799858D01*
X125280000Y-80823750D01*
X125280000Y-81736250D01*
X125278826Y-81760142D01*
X125275316Y-81783803D01*
X125269504Y-81807007D01*
X125261446Y-81829529D01*
X125251218Y-81851153D01*
X125238921Y-81871670D01*
X125224671Y-81890883D01*
X125208607Y-81908607D01*
X125190883Y-81924671D01*
X125171670Y-81938921D01*
X125151153Y-81951218D01*
X125129529Y-81961446D01*
X125107007Y-81969504D01*
X125083803Y-81975316D01*
X125060142Y-81978826D01*
X125036250Y-81980000D01*
X124548750Y-81980000D01*
X124524858Y-81978826D01*
X124501197Y-81975316D01*
X124477993Y-81969504D01*
X124455471Y-81961446D01*
X124433847Y-81951218D01*
X124413330Y-81938921D01*
X124394117Y-81924671D01*
X124376393Y-81908607D01*
X124360329Y-81890883D01*
X124346079Y-81871670D01*
X124333782Y-81851153D01*
X124323554Y-81829529D01*
X124315496Y-81807007D01*
X124309684Y-81783803D01*
X124306174Y-81760142D01*
X124305000Y-81736250D01*
X124305000Y-80823750D01*
X124306174Y-80799858D01*
X124309684Y-80776197D01*
X124315496Y-80752993D01*
X124323554Y-80730471D01*
X124333782Y-80708847D01*
X124346079Y-80688330D01*
X124360329Y-80669117D01*
X124376393Y-80651393D01*
X124394117Y-80635329D01*
X124413330Y-80621079D01*
X124433847Y-80608782D01*
X124455471Y-80598554D01*
X124477993Y-80590496D01*
X124501197Y-80584684D01*
X124524858Y-80581174D01*
X124548750Y-80580000D01*
X125036250Y-80580000D01*
X125060142Y-80581174D01*
X125060142Y-80581174D01*
G37*
D27*
G04 #@! TD*
G04 #@! TO.P,R15,2*
G04 #@! TO.N,downArrBtn*
X124792500Y-81280000D03*
D28*
G04 #@! TO.N,GND*
X191008000Y-75438000D03*
X199898000Y-76200000D03*
X198374000Y-84836000D03*
X201676000Y-87884000D03*
X179578000Y-83820000D03*
X185674000Y-80772000D03*
X195326000Y-84328000D03*
X137414000Y-73152000D03*
X169926000Y-78232000D03*
X178816000Y-78994000D03*
X200914000Y-96012000D03*
G04 #@! TO.N,VCC*
X195834000Y-76810000D03*
X172466000Y-73152000D03*
X188468000Y-87122000D03*
X202946000Y-76454000D03*
X194818000Y-88392000D03*
X156464000Y-73152000D03*
G04 #@! TO.N,interactLED*
X202940000Y-125120000D03*
X201676000Y-111252000D03*
G04 #@! TO.N,SCLK*
X189230000Y-83058000D03*
G04 #@! TO.N,MISO*
X185420000Y-75946000D03*
G04 #@! TO.N,MOSI*
X185166000Y-77216000D03*
G04 #@! TO.N,RESET*
X190500000Y-72136000D03*
X186690000Y-73914000D03*
X173228000Y-72644000D03*
X172830000Y-81120000D03*
G04 #@! TO.N,TXLED*
X196532000Y-72898000D03*
X191262000Y-72644000D03*
G04 #@! TO.N,Net-(C0-Pad1)*
X192024000Y-89662000D03*
X189230000Y-81534000D03*
G04 #@! TO.N,homeSens*
X135890000Y-79756000D03*
X187210000Y-93960000D03*
G04 #@! TO.N,leftArrSens*
X191516000Y-87376000D03*
X128016000Y-73406000D03*
G04 #@! TO.N,rightArrSens*
X189500000Y-96230000D03*
G04 #@! TO.N,upArrSens*
X153630000Y-79502000D03*
X167386000Y-74168000D03*
X156464000Y-74168000D03*
X125730000Y-77470000D03*
G04 #@! TO.N,downArrSens*
X184658000Y-82550000D03*
X192278000Y-78994000D03*
X128016000Y-77724000D03*
X128778000Y-76200000D03*
G04 #@! TO.N,downArrBtn*
X190246000Y-83566000D03*
X132334000Y-81236000D03*
X196088000Y-78442000D03*
X196850000Y-77470000D03*
G04 #@! TO.N,powerLED*
X187452000Y-73914000D03*
X200100000Y-98200000D03*
G04 #@! TO.N,homeBtn*
X129032000Y-74930000D03*
X131064000Y-79248000D03*
X122180000Y-74422000D03*
G04 #@! TO.N,rightArrBtn*
X182626000Y-87630000D03*
X184912000Y-85046000D03*
G04 #@! TD*
D29*
G04 #@! TO.N,USBVCC*
X187668000Y-79210000D02*
X186832000Y-79210000D01*
X187706000Y-79248000D02*
X187668000Y-79210000D01*
X189992000Y-79248000D02*
X187706000Y-79248000D01*
X189992000Y-81788000D02*
X189992000Y-79248000D01*
X188214000Y-83210000D02*
X188214000Y-83058000D01*
X186832000Y-83210000D02*
X188214000Y-83210000D01*
X188976000Y-82296000D02*
X189484000Y-82296000D01*
X188214000Y-83058000D02*
X188976000Y-82296000D01*
X189484000Y-82296000D02*
X189992000Y-81788000D01*
X183896000Y-78994000D02*
X184112000Y-79210000D01*
X183896000Y-77978000D02*
X183896000Y-78994000D01*
X183388000Y-77470000D02*
X183896000Y-77978000D01*
X180340000Y-77470000D02*
X183388000Y-77470000D01*
X179832000Y-77978000D02*
X180340000Y-77470000D01*
X168218000Y-76016000D02*
X169672000Y-77470000D01*
X173482000Y-77978000D02*
X179832000Y-77978000D01*
X172974000Y-77470000D02*
X173482000Y-77978000D01*
X169672000Y-77470000D02*
X172974000Y-77470000D01*
X184112000Y-79210000D02*
X186832000Y-79210000D01*
X168218000Y-74098000D02*
X168218000Y-73914000D01*
X168218000Y-75692000D02*
X168218000Y-76016000D01*
X168656000Y-74359000D02*
X168656000Y-73914000D01*
X168218000Y-73914000D02*
X168218000Y-75438000D01*
X168218000Y-75438000D02*
X168218000Y-75692000D01*
X160528000Y-79502000D02*
X161110000Y-78920000D01*
X158242000Y-79502000D02*
X160528000Y-79502000D01*
X161110000Y-78920000D02*
X161110000Y-77095000D01*
X157480000Y-78740000D02*
X158242000Y-79502000D01*
X157480000Y-72898000D02*
X157480000Y-78740000D01*
X158242000Y-72136000D02*
X157480000Y-72898000D01*
X165862000Y-72136000D02*
X158242000Y-72136000D01*
X166624000Y-72898000D02*
X165862000Y-72136000D01*
X166624000Y-74930000D02*
X166624000Y-72898000D01*
X167132000Y-75438000D02*
X166624000Y-74930000D01*
X168218000Y-75438000D02*
X167132000Y-75438000D01*
G04 #@! TO.N,GND*
X190932000Y-75362000D02*
X190932000Y-74310000D01*
X191008000Y-75438000D02*
X190932000Y-75362000D01*
X199708000Y-76010000D02*
X198232000Y-76010000D01*
X199898000Y-76200000D02*
X199708000Y-76010000D01*
X195732000Y-84684000D02*
X195732000Y-85710000D01*
X201676000Y-86090000D02*
X201676000Y-87884000D01*
X198232000Y-84694000D02*
X198232000Y-84010000D01*
X198374000Y-84836000D02*
X198232000Y-84694000D01*
X186832000Y-80810000D02*
X185712000Y-80810000D01*
X179578000Y-83820000D02*
X180864000Y-83820000D01*
X185712000Y-80810000D02*
X185674000Y-80772000D01*
X138430000Y-74168000D02*
X141224000Y-74168000D01*
X132842000Y-72390000D02*
X133096000Y-72136000D01*
X133096000Y-72136000D02*
X136398000Y-72136000D01*
X132842000Y-73914000D02*
X132842000Y-72390000D01*
X132937000Y-74009000D02*
X132842000Y-73914000D01*
X132937000Y-76962000D02*
X132937000Y-74009000D01*
X195732000Y-85710000D02*
X195732000Y-84660000D01*
X203962000Y-86090000D02*
X201676000Y-86090000D01*
X195400000Y-84328000D02*
X195326000Y-84328000D01*
X195732000Y-84660000D02*
X195400000Y-84328000D01*
X189332000Y-87528000D02*
X189332000Y-85710000D01*
X188722000Y-88138000D02*
X189332000Y-87528000D01*
X182626000Y-86360000D02*
X186182000Y-86360000D01*
X187960000Y-88138000D02*
X188722000Y-88138000D01*
X186182000Y-86360000D02*
X187960000Y-88138000D01*
X180864000Y-84598000D02*
X182626000Y-86360000D01*
X180864000Y-83820000D02*
X180864000Y-84598000D01*
X137414000Y-73152000D02*
X138430000Y-74168000D01*
X136398000Y-72136000D02*
X137414000Y-73152000D01*
X163710000Y-78800000D02*
X163710000Y-77095000D01*
X163904000Y-78994000D02*
X163710000Y-78800000D01*
X169926000Y-78232000D02*
X167640000Y-78232000D01*
X167640000Y-78740000D02*
X167386000Y-78994000D01*
X167386000Y-78994000D02*
X163904000Y-78994000D01*
X167640000Y-78232000D02*
X167640000Y-78740000D01*
X170240000Y-78546000D02*
X169926000Y-78232000D01*
X173082000Y-78546000D02*
X170240000Y-78546000D01*
X177920000Y-78720000D02*
X173256000Y-78720000D01*
X173256000Y-78720000D02*
X173082000Y-78546000D01*
X178194000Y-78994000D02*
X177920000Y-78720000D01*
X178816000Y-78994000D02*
X178194000Y-78994000D01*
X124272000Y-100396000D02*
X124206000Y-100330000D01*
X124272000Y-105156000D02*
X124272000Y-100396000D01*
X169484000Y-120904000D02*
X169484000Y-120604000D01*
X169418000Y-120904000D02*
X169484000Y-120904000D01*
X167640000Y-119126000D02*
X169418000Y-120904000D01*
X139512000Y-121158000D02*
X139512000Y-119568000D01*
X139646000Y-119126000D02*
X139512000Y-119260000D01*
X140110000Y-119126000D02*
X139646000Y-119126000D01*
X139954000Y-119126000D02*
X140110000Y-119126000D01*
X139512000Y-119568000D02*
X139512000Y-119260000D01*
X140110000Y-119126000D02*
X167640000Y-119126000D01*
X139646000Y-119126000D02*
X124460000Y-119126000D01*
X124272000Y-118938000D02*
X124272000Y-109220000D01*
X124460000Y-119126000D02*
X124272000Y-118938000D01*
X124272000Y-109220000D02*
X124272000Y-105156000D01*
X124272000Y-109982000D02*
X124272000Y-109220000D01*
X200914000Y-94329000D02*
X200311000Y-93726000D01*
X200914000Y-96012000D02*
X200914000Y-94329000D01*
X132334000Y-71882000D02*
X132842000Y-72390000D01*
X122800000Y-83430000D02*
X122800000Y-72512000D01*
X123430000Y-71882000D02*
X132334000Y-71882000D01*
X122800000Y-72512000D02*
X123430000Y-71882000D01*
X124206000Y-84836000D02*
X122800000Y-83430000D01*
X124206000Y-100330000D02*
X124206000Y-84836000D01*
G04 #@! TO.N,VCC*
X190132000Y-75360000D02*
X190246000Y-75474000D01*
X190132000Y-74310000D02*
X190132000Y-75360000D01*
X190246000Y-75946000D02*
X191110000Y-76810000D01*
X191110000Y-76810000D02*
X195834000Y-76810000D01*
X195834000Y-76810000D02*
X198232000Y-76810000D01*
X204216000Y-75250000D02*
X204150000Y-75184000D01*
X170872000Y-73660000D02*
X170618000Y-73914000D01*
X174668000Y-74930000D02*
X174668000Y-76200000D01*
X190246000Y-75692000D02*
X190246000Y-75946000D01*
X190246000Y-75474000D02*
X190246000Y-75692000D01*
X170618000Y-73914000D02*
X170618000Y-73082000D01*
X135541000Y-76708000D02*
X135287000Y-76962000D01*
X141224000Y-76708000D02*
X135541000Y-76708000D01*
X135287000Y-74009000D02*
X135192000Y-73914000D01*
X135287000Y-76962000D02*
X135287000Y-74009000D01*
X174668000Y-73660000D02*
X172466000Y-73660000D01*
X172466000Y-73660000D02*
X172466000Y-73152000D01*
X172466000Y-73660000D02*
X170872000Y-73660000D01*
X196532000Y-85710000D02*
X196532000Y-85280000D01*
X196532000Y-85253999D02*
X196342000Y-85063999D01*
X196532000Y-85280000D02*
X196532000Y-85253999D01*
X196342000Y-85063999D02*
X196320992Y-85042991D01*
X188532000Y-87058000D02*
X188468000Y-87122000D01*
X188532000Y-85710000D02*
X188532000Y-87058000D01*
X174668000Y-74676000D02*
X174668000Y-74930000D01*
X174668000Y-73660000D02*
X174668000Y-74676000D01*
X204150000Y-75484000D02*
X203454000Y-76180000D01*
X204150000Y-75184000D02*
X204150000Y-75484000D01*
X203454000Y-76180000D02*
X203454000Y-76454000D01*
X203454000Y-76454000D02*
X202946000Y-76454000D01*
X144272000Y-72390000D02*
X155194000Y-72390000D01*
X155194000Y-72390000D02*
X155448000Y-72136000D01*
X143764000Y-72898000D02*
X144272000Y-72390000D01*
X143764000Y-76200000D02*
X143764000Y-72898000D01*
X143256000Y-76708000D02*
X143764000Y-76200000D01*
X141224000Y-76708000D02*
X143256000Y-76708000D01*
X194818000Y-88392000D02*
X196342000Y-88392000D01*
X196532000Y-88202000D02*
X196532000Y-85710000D01*
X196342000Y-88392000D02*
X196532000Y-88202000D01*
X188782527Y-72644000D02*
X188944517Y-72805990D01*
X184404000Y-74168000D02*
X185928000Y-72644000D01*
X185928000Y-72644000D02*
X188782527Y-72644000D01*
X184404000Y-74676000D02*
X184404000Y-74168000D01*
X174668000Y-74676000D02*
X184404000Y-74676000D01*
X188944517Y-72805990D02*
X189645990Y-72805990D01*
X189992000Y-73152000D02*
X190132000Y-73152000D01*
X189645990Y-72805990D02*
X189992000Y-73152000D01*
X190132000Y-73152000D02*
X190132000Y-74310000D01*
X156464000Y-73152000D02*
X156464000Y-72390000D01*
X156464000Y-72390000D02*
X156210000Y-72136000D01*
X155448000Y-72136000D02*
X156210000Y-72136000D01*
D30*
G04 #@! TO.N,Net-(D2-Pad1)*
X191770000Y-105156000D02*
X197782000Y-105156000D01*
X131252000Y-105156000D02*
X191770000Y-105156000D01*
X191770000Y-105156000D02*
X191940000Y-105156000D01*
X131252000Y-105156000D02*
X126172000Y-105156000D01*
G04 #@! TO.N,Net-(D3-Pad1)*
X197708000Y-109982000D02*
X197820000Y-109870000D01*
X131252000Y-109982000D02*
X197708000Y-109982000D01*
X131252000Y-109982000D02*
X126172000Y-109982000D01*
D31*
G04 #@! TO.N,D+*
X186357000Y-81610000D02*
X186832000Y-81610000D01*
X186182000Y-81785000D02*
X186357000Y-81610000D01*
X185605000Y-81785000D02*
X186182000Y-81785000D01*
X182814000Y-78994000D02*
X185605000Y-81785000D01*
G04 #@! TO.N,D-*
X183337230Y-81531456D02*
X183314656Y-81534000D01*
X183377907Y-81511867D02*
X183358672Y-81523953D01*
X183406056Y-81476569D02*
X183393970Y-81495804D01*
X183413559Y-81455127D02*
X183406056Y-81476569D01*
X183418646Y-81409978D02*
X183413559Y-81455127D01*
X183393970Y-81495804D02*
X183377907Y-81511867D01*
X183454298Y-81353238D02*
X183438235Y-81369301D01*
X183494975Y-81333649D02*
X183473533Y-81341152D01*
X183517550Y-81331106D02*
X183494975Y-81333649D01*
X183473533Y-81341152D02*
X183454298Y-81353238D01*
X183714656Y-81331106D02*
X183517550Y-81331106D01*
X183758672Y-81341152D02*
X183737230Y-81333649D01*
X183777907Y-81353238D02*
X183758672Y-81341152D01*
X183438235Y-81369301D02*
X183426149Y-81388536D01*
X183793970Y-81369301D02*
X183777907Y-81353238D01*
X183358672Y-81523953D02*
X183337230Y-81531456D01*
X183873533Y-81726848D02*
X183854298Y-81714762D01*
X183838235Y-81698699D02*
X183826149Y-81679464D01*
X184695028Y-81531456D02*
X184673586Y-81523953D01*
X184114656Y-81736894D02*
X183917550Y-81736894D01*
X183816103Y-81432553D02*
X183813559Y-81409978D01*
X184193970Y-81698699D02*
X184177907Y-81714762D01*
X184158672Y-81726848D02*
X184137230Y-81734351D01*
X184213559Y-81658022D02*
X184206056Y-81679464D01*
X184216156Y-81534000D02*
X184216103Y-81534000D01*
X183806056Y-81388536D02*
X183793970Y-81369301D01*
X186832000Y-82410000D02*
X186357000Y-82410000D01*
X183917550Y-81736894D02*
X183894975Y-81734351D01*
X184216156Y-81432553D02*
X184216156Y-81534000D01*
X184218699Y-81409978D02*
X184216156Y-81432553D01*
X186357000Y-82410000D02*
X186182000Y-82235000D01*
X184238288Y-81369301D02*
X184226202Y-81388536D01*
X184177907Y-81714762D02*
X184158672Y-81726848D01*
X184514709Y-81331106D02*
X184317603Y-81331106D01*
X184254351Y-81353238D02*
X184238288Y-81369301D01*
X184317603Y-81331106D02*
X184295028Y-81333649D01*
X184537283Y-81333649D02*
X184514709Y-81331106D01*
X184273586Y-81341152D02*
X184254351Y-81353238D01*
X183813559Y-81409978D02*
X183806056Y-81388536D01*
X184137230Y-81734351D02*
X184114656Y-81736894D01*
X184216103Y-81635447D02*
X184213559Y-81658022D01*
X184606109Y-81388536D02*
X184594023Y-81369301D01*
X183314656Y-81534000D02*
X182814000Y-81534000D01*
X183426149Y-81388536D02*
X183418646Y-81409978D01*
X183737230Y-81333649D02*
X183714656Y-81331106D01*
X183816103Y-81635447D02*
X183816103Y-81432553D01*
X184618699Y-81455127D02*
X184613612Y-81409978D01*
X184654351Y-81511867D02*
X184638288Y-81495804D01*
X184216103Y-81534000D02*
X184216103Y-81635447D01*
X184594023Y-81369301D02*
X184577960Y-81353238D01*
X184673586Y-81523953D02*
X184654351Y-81511867D01*
X183826149Y-81679464D02*
X183818646Y-81658022D01*
X184613612Y-81409978D02*
X184606109Y-81388536D01*
X184626202Y-81476569D02*
X184618699Y-81455127D01*
X184558725Y-81341152D02*
X184537283Y-81333649D01*
X184638288Y-81495804D02*
X184626202Y-81476569D01*
X183854298Y-81714762D02*
X183838235Y-81698699D01*
X184717603Y-81534000D02*
X184695028Y-81531456D01*
X183894975Y-81734351D02*
X183873533Y-81726848D01*
X184206056Y-81679464D02*
X184193970Y-81698699D01*
X184226202Y-81388536D02*
X184218699Y-81409978D01*
X186182000Y-82235000D02*
X185418603Y-82235000D01*
X183818646Y-81658022D02*
X183816103Y-81635447D01*
X184577960Y-81353238D02*
X184558725Y-81341152D01*
X184295028Y-81333649D02*
X184273586Y-81341152D01*
X185418603Y-82235000D02*
X184717603Y-81534000D01*
D30*
G04 #@! TO.N,nodeLED*
X195796000Y-80810000D02*
X198232000Y-80810000D01*
X195580000Y-81026000D02*
X195796000Y-80810000D01*
X195580000Y-82296000D02*
X195580000Y-81026000D01*
X195834000Y-82550000D02*
X195834000Y-84074000D01*
X195834000Y-82550000D02*
X195580000Y-82296000D01*
X196342000Y-84582000D02*
X196824828Y-84582000D01*
X195834000Y-84074000D02*
X196342000Y-84582000D01*
X197104000Y-84836000D02*
X196824828Y-84582000D01*
X197104000Y-91694000D02*
X197104000Y-84836000D01*
X197104000Y-91694000D02*
X200660000Y-91694000D01*
X200832000Y-105156000D02*
X200838000Y-105150000D01*
X199982000Y-105156000D02*
X200832000Y-105156000D01*
X200838000Y-105150000D02*
X201910000Y-105150000D01*
X201910000Y-105150000D02*
X201970000Y-105090000D01*
X201970000Y-93004000D02*
X200660000Y-91694000D01*
X201970000Y-105090000D02*
X201970000Y-93004000D01*
G04 #@! TO.N,interactLED*
X199898000Y-82296000D02*
X199212000Y-81610000D01*
X203708000Y-109982000D02*
X203708000Y-117852000D01*
X203708000Y-95758000D02*
X203708000Y-109982000D01*
X203962000Y-89408000D02*
X203962000Y-95504000D01*
X203962000Y-95504000D02*
X203708000Y-95758000D01*
X199898000Y-89408000D02*
X199898000Y-82296000D01*
X199898000Y-89408000D02*
X203962000Y-89408000D01*
X199212000Y-81610000D02*
X198232000Y-81610000D01*
X203708000Y-117852000D02*
X203360000Y-118200000D01*
X203360000Y-124700000D02*
X202940000Y-125120000D01*
X203360000Y-118200000D02*
X203360000Y-124700000D01*
X200132000Y-109982000D02*
X200020000Y-109870000D01*
X201168000Y-109982000D02*
X201168000Y-110744000D01*
X201168000Y-110744000D02*
X201676000Y-111252000D01*
X201168000Y-109982000D02*
X200132000Y-109982000D01*
G04 #@! TO.N,Net-(D1-Pad1)*
X196950000Y-100330000D02*
X191540000Y-100330000D01*
X197810000Y-100320000D02*
X196960000Y-100320000D01*
X191540000Y-100330000D02*
X131252000Y-100330000D01*
X196960000Y-100320000D02*
X196950000Y-100330000D01*
X191940000Y-100330000D02*
X191540000Y-100330000D01*
X131252000Y-100330000D02*
X126106000Y-100330000D01*
G04 #@! TO.N,Net-(D4-Pad1)*
X179748000Y-120904000D02*
X171384000Y-120904000D01*
G04 #@! TO.N,Net-(D5-Pad1)*
X149522000Y-121158000D02*
X141412000Y-121158000D01*
G04 #@! TO.N,SCLK*
X187307000Y-77610000D02*
X186832000Y-77610000D01*
X187421000Y-77724000D02*
X187307000Y-77610000D01*
X188976000Y-78486000D02*
X188214000Y-77724000D01*
X190500000Y-78486000D02*
X188976000Y-78486000D01*
X188214000Y-77724000D02*
X187421000Y-77724000D01*
X190500000Y-82296000D02*
X190500000Y-78486000D01*
X189738000Y-83058000D02*
X190500000Y-82296000D01*
X189738000Y-83058000D02*
X189230000Y-83058000D01*
G04 #@! TO.N,MISO*
X186832000Y-76010000D02*
X185484000Y-76010000D01*
X185484000Y-76010000D02*
X185420000Y-75946000D01*
G04 #@! TO.N,MOSI*
X185572000Y-76810000D02*
X186832000Y-76810000D01*
X185166000Y-77216000D02*
X185572000Y-76810000D01*
G04 #@! TO.N,RESET*
X199248000Y-71882000D02*
X198473567Y-71882000D01*
X202250000Y-74884000D02*
X199248000Y-71882000D01*
X202250000Y-75184000D02*
X202250000Y-74884000D01*
X198473567Y-71882000D02*
X191262000Y-71882000D01*
X191262000Y-71882000D02*
X191081000Y-71701000D01*
X189332000Y-73310000D02*
X189332000Y-74310000D01*
X189230000Y-73208000D02*
X189332000Y-73310000D01*
X188778000Y-73208000D02*
X189230000Y-73208000D01*
X187027736Y-73152000D02*
X188722000Y-73152000D01*
X186690000Y-73489736D02*
X187027736Y-73152000D01*
X186690000Y-73914000D02*
X186690000Y-73489736D01*
X188722000Y-73152000D02*
X188778000Y-73208000D01*
X190500000Y-71701000D02*
X190500000Y-72136000D01*
X191081000Y-71701000D02*
X190500000Y-71701000D01*
X176965000Y-71701000D02*
X176784000Y-71882000D01*
X190500000Y-71701000D02*
X176965000Y-71701000D01*
X154178000Y-75164000D02*
X151892000Y-77450000D01*
X154178000Y-73914000D02*
X154178000Y-75164000D01*
X151892000Y-77450000D02*
X151892000Y-80772000D01*
X151892000Y-80772000D02*
X152400000Y-81280000D01*
X173527999Y-71927999D02*
X173482000Y-71882000D01*
X173527999Y-72344001D02*
X173527999Y-71927999D01*
X173228000Y-72644000D02*
X173527999Y-72344001D01*
X176784000Y-71882000D02*
X173482000Y-71882000D01*
X172830000Y-81120000D02*
X172830000Y-81210000D01*
X172760000Y-81280000D02*
X171070000Y-81280000D01*
X172830000Y-81210000D02*
X172760000Y-81280000D01*
X171070000Y-81280000D02*
X171450000Y-81280000D01*
X152400000Y-81280000D02*
X171070000Y-81280000D01*
D31*
G04 #@! TO.N,/Data-*
X179938999Y-81534000D02*
X180914000Y-81534000D01*
X161860000Y-78507501D02*
X161860000Y-79098200D01*
X178893999Y-80489000D02*
X179938999Y-81534000D01*
X163250800Y-80489000D02*
X178893999Y-80489000D01*
X161860000Y-79098200D02*
X163250800Y-80489000D01*
X161760000Y-78407501D02*
X161860000Y-78507501D01*
X161760000Y-77095000D02*
X161760000Y-78407501D01*
G04 #@! TO.N,/Data+*
X162310000Y-78911800D02*
X162310000Y-78507501D01*
X172486756Y-80031478D02*
X172420000Y-80039000D01*
X172550165Y-80009290D02*
X172486756Y-80031478D01*
X162410000Y-78407501D02*
X162410000Y-77095000D01*
X172607046Y-79973549D02*
X172550165Y-80009290D01*
X172654549Y-79926046D02*
X172607046Y-79973549D01*
X172712478Y-79805756D02*
X172690290Y-79869165D01*
X172720000Y-79739000D02*
X172712478Y-79805756D01*
X172720000Y-79706479D02*
X172720000Y-79739000D01*
X172727521Y-79639722D02*
X172720000Y-79706479D01*
X172749709Y-79576313D02*
X172727521Y-79639722D01*
X172832953Y-79471929D02*
X172785450Y-79519432D01*
X172420000Y-80039000D02*
X163437200Y-80039000D01*
X173553243Y-80031478D02*
X173489834Y-80009290D01*
X173312478Y-79639722D02*
X173290290Y-79576313D01*
X172889834Y-79436188D02*
X172832953Y-79471929D01*
X173020000Y-79406479D02*
X172953243Y-79414000D01*
X172953243Y-79414000D02*
X172889834Y-79436188D01*
X173086756Y-79414000D02*
X173020000Y-79406479D01*
X173150165Y-79436188D02*
X173086756Y-79414000D01*
X163437200Y-80039000D02*
X162310000Y-78911800D01*
X173290290Y-79576313D02*
X173254549Y-79519432D01*
X173320000Y-79739000D02*
X173320000Y-79706479D01*
X173320000Y-79706479D02*
X173312478Y-79639722D01*
X173327521Y-79805756D02*
X173320000Y-79739000D01*
X173207046Y-79471929D02*
X173150165Y-79436188D01*
X173385450Y-79926046D02*
X173349709Y-79869165D01*
X173489834Y-80009290D02*
X173432953Y-79973549D01*
X172785450Y-79519432D02*
X172749709Y-79576313D01*
X172690290Y-79869165D02*
X172654549Y-79926046D01*
X173432953Y-79973549D02*
X173385450Y-79926046D01*
X173254549Y-79519432D02*
X173207046Y-79471929D01*
X162310000Y-78507501D02*
X162410000Y-78407501D01*
X173620000Y-80039000D02*
X173553243Y-80031478D01*
X180914000Y-78994000D02*
X179938999Y-78994000D01*
X173349709Y-79869165D02*
X173327521Y-79805756D01*
X178893999Y-80039000D02*
X173620000Y-80039000D01*
X179938999Y-78994000D02*
X178893999Y-80039000D01*
D30*
G04 #@! TO.N,XTal1*
X201676000Y-83566000D02*
X202400000Y-82842000D01*
X201676000Y-84090000D02*
X201676000Y-83566000D01*
X202400000Y-80810000D02*
X202400000Y-80856000D01*
X192532000Y-74310000D02*
X192532000Y-75184000D01*
X192532000Y-75184000D02*
X192786000Y-75438000D01*
X192786000Y-75438000D02*
X195580000Y-75438000D01*
X195580000Y-75438000D02*
X196850000Y-75438000D01*
X200660000Y-80772000D02*
X200744000Y-80856000D01*
X200660000Y-75438000D02*
X200660000Y-80772000D01*
X200744000Y-80856000D02*
X202146000Y-80856000D01*
X197104000Y-75438000D02*
X197866000Y-74676000D01*
X199898000Y-74676000D02*
X200660000Y-75438000D01*
X197866000Y-74676000D02*
X199898000Y-74676000D01*
X195580000Y-75438000D02*
X197104000Y-75438000D01*
X202400000Y-82842000D02*
X202400000Y-80856000D01*
G04 #@! TO.N,XTal2*
X203454000Y-77216000D02*
X203746000Y-77508000D01*
X201168000Y-75946000D02*
X202438000Y-77216000D01*
X201168000Y-75184000D02*
X201168000Y-75946000D01*
X202438000Y-77216000D02*
X203454000Y-77216000D01*
X198329999Y-72345999D02*
X201168000Y-75184000D01*
X194100001Y-72345999D02*
X198329999Y-72345999D01*
X203746000Y-77508000D02*
X203746000Y-78656000D01*
X193548000Y-72898000D02*
X194100001Y-72345999D01*
X192144000Y-72898000D02*
X193548000Y-72898000D01*
X191732000Y-73310000D02*
X192144000Y-72898000D01*
X191732000Y-74310000D02*
X191732000Y-73310000D01*
X204596000Y-78656000D02*
X204724000Y-78784000D01*
X203746000Y-78656000D02*
X204596000Y-78656000D01*
X204724000Y-78784000D02*
X204724000Y-82296000D01*
X203962000Y-83058000D02*
X203962000Y-84090000D01*
X204724000Y-82296000D02*
X203962000Y-83058000D01*
G04 #@! TO.N,phoneLED*
X151722000Y-124798000D02*
X151722000Y-121158000D01*
X152908000Y-125984000D02*
X151722000Y-124798000D01*
X202184000Y-125984000D02*
X152908000Y-125984000D01*
X202184000Y-124890000D02*
X202184000Y-125984000D01*
X202880000Y-124194000D02*
X202184000Y-124890000D01*
X202880000Y-117840000D02*
X202880000Y-124194000D01*
X199390000Y-90170000D02*
X201676000Y-90170000D01*
X203160000Y-91654000D02*
X203160000Y-117560000D01*
X201676000Y-90170000D02*
X203160000Y-91654000D01*
X199390000Y-82804000D02*
X199390000Y-90170000D01*
X198996000Y-82410000D02*
X199390000Y-82804000D01*
X203160000Y-117560000D02*
X202880000Y-117840000D01*
X198232000Y-82410000D02*
X198996000Y-82410000D01*
G04 #@! TO.N,Net-(D6-Pad1)*
X180914000Y-73660000D02*
X176868000Y-73660000D01*
G04 #@! TO.N,emailLED*
X197206000Y-84404828D02*
X197206000Y-83210000D01*
X197612000Y-84810828D02*
X197206000Y-84404828D01*
X197612000Y-90932000D02*
X197612000Y-84810828D01*
X197866000Y-91186000D02*
X197612000Y-90932000D01*
X181948000Y-120904000D02*
X181948000Y-124544000D01*
X202450000Y-106670000D02*
X202450000Y-92468000D01*
X202450000Y-92468000D02*
X201168000Y-91186000D01*
X202550000Y-106770000D02*
X202450000Y-106670000D01*
X202550000Y-117210000D02*
X202550000Y-106770000D01*
X197206000Y-83210000D02*
X198232000Y-83210000D01*
X202300000Y-117460000D02*
X202550000Y-117210000D01*
X181948000Y-124544000D02*
X182626000Y-125222000D01*
X202300000Y-123790000D02*
X202300000Y-117460000D01*
X201422000Y-124668000D02*
X202300000Y-123790000D01*
X201168000Y-91186000D02*
X197866000Y-91186000D01*
X182626000Y-125222000D02*
X201422000Y-125222000D01*
X201422000Y-125222000D02*
X201422000Y-124668000D01*
G04 #@! TO.N,Net-(D7-Pad1)*
X176868000Y-76200000D02*
X180914000Y-76200000D01*
G04 #@! TO.N,TXLED*
X196532000Y-72898000D02*
X196532000Y-74310000D01*
X190808962Y-72644000D02*
X191262000Y-72644000D01*
X190235039Y-72688001D02*
X190764961Y-72688001D01*
X189951018Y-72403980D02*
X190235039Y-72688001D01*
X189111034Y-72403980D02*
X189951018Y-72403980D01*
X184404000Y-72136000D02*
X188843054Y-72136000D01*
X188843054Y-72136000D02*
X189111034Y-72403980D01*
X190764961Y-72688001D02*
X190808962Y-72644000D01*
X184150000Y-72390000D02*
X184404000Y-72136000D01*
X184084000Y-72390000D02*
X184150000Y-72390000D01*
X182814000Y-73660000D02*
X184084000Y-72390000D01*
G04 #@! TO.N,RXLED*
X182814000Y-76200000D02*
X183134000Y-76200000D01*
X183134000Y-76200000D02*
X185344000Y-78410000D01*
X185344000Y-78410000D02*
X186832000Y-78410000D01*
G04 #@! TO.N,Net-(C3-Pad1)*
X190132000Y-84468000D02*
X190132000Y-85710000D01*
X186690000Y-85852000D02*
X188214000Y-84328000D01*
X189992000Y-84328000D02*
X190132000Y-84468000D01*
X188214000Y-84328000D02*
X189992000Y-84328000D01*
X183896000Y-85852000D02*
X186690000Y-85852000D01*
X182864000Y-84820000D02*
X183896000Y-85852000D01*
X182864000Y-83820000D02*
X182864000Y-84820000D01*
G04 #@! TO.N,Net-(C0-Pad1)*
X187706000Y-80010000D02*
X187960000Y-80264000D01*
X187706000Y-80010000D02*
X186832000Y-80010000D01*
X187960000Y-80264000D02*
X189230000Y-81534000D01*
X192119000Y-89757000D02*
X192119000Y-93726000D01*
X192024000Y-89662000D02*
X192119000Y-89757000D01*
X192119000Y-93726000D02*
X197961000Y-93726000D01*
G04 #@! TO.N,homeSens*
X135890000Y-79756000D02*
X134366000Y-79756000D01*
X190932000Y-87198000D02*
X190932000Y-85710000D01*
X190500000Y-87630000D02*
X190932000Y-87198000D01*
X189992000Y-87630000D02*
X190500000Y-87630000D01*
X187198000Y-90424000D02*
X189992000Y-87630000D01*
X187198000Y-93523736D02*
X187198000Y-90424000D01*
X187210000Y-93535736D02*
X187198000Y-93523736D01*
X187210000Y-93960000D02*
X187210000Y-93535736D01*
G04 #@! TO.N,leftArrSens*
X191732000Y-87160000D02*
X191732000Y-85710000D01*
X191516000Y-87376000D02*
X191732000Y-87160000D01*
X126746000Y-73581500D02*
X126667500Y-73660000D01*
X127762000Y-73660000D02*
X128016000Y-73406000D01*
X126667500Y-73660000D02*
X127762000Y-73660000D01*
G04 #@! TO.N,rightArrSens*
X192532000Y-85710000D02*
X192532000Y-87376000D01*
X188570000Y-95300000D02*
X189500000Y-96230000D01*
X187960000Y-90424000D02*
X187960000Y-95300000D01*
X187960000Y-95300000D02*
X188570000Y-95300000D01*
X192532000Y-87376000D02*
X191516000Y-88392000D01*
X191516000Y-88392000D02*
X189992000Y-88392000D01*
X189992000Y-88392000D02*
X187960000Y-90424000D01*
X183642000Y-86868000D02*
X186436000Y-89662000D01*
X145796000Y-86868000D02*
X183642000Y-86868000D01*
X141224000Y-82296000D02*
X145796000Y-86868000D01*
X131572000Y-82296000D02*
X141224000Y-82296000D01*
X129032000Y-79756000D02*
X131572000Y-82296000D01*
X129032000Y-77470000D02*
X129032000Y-79756000D01*
X127762000Y-76200000D02*
X129032000Y-77470000D01*
X126746000Y-76200000D02*
X127762000Y-76200000D01*
X187950000Y-95290000D02*
X187960000Y-95300000D01*
X186436000Y-95290000D02*
X187950000Y-95290000D01*
X186436000Y-89662000D02*
X186436000Y-95290000D01*
G04 #@! TO.N,upArrSens*
X167386000Y-73152000D02*
X167640000Y-72898000D01*
X167386000Y-74168000D02*
X167386000Y-73152000D01*
X167640000Y-72898000D02*
X167640000Y-72390000D01*
X187706000Y-75184000D02*
X189738000Y-77216000D01*
X169926000Y-72390000D02*
X169926000Y-76962000D01*
X176022000Y-75184000D02*
X187706000Y-75184000D01*
X175768000Y-75438000D02*
X176022000Y-75184000D01*
X189738000Y-77216000D02*
X189738000Y-77470000D01*
X167640000Y-72390000D02*
X169926000Y-72390000D01*
X169926000Y-76962000D02*
X173228000Y-76962000D01*
X173228000Y-76962000D02*
X173736000Y-77470000D01*
X173736000Y-77470000D02*
X175768000Y-77470000D01*
X175768000Y-77470000D02*
X175768000Y-75438000D01*
X189738000Y-77470000D02*
X195072000Y-77470000D01*
X153630000Y-79502000D02*
X153630000Y-78370000D01*
X156308000Y-75692000D02*
X156308000Y-74324000D01*
X153630000Y-78370000D02*
X156308000Y-75692000D01*
X156308000Y-74324000D02*
X156464000Y-74168000D01*
X195072000Y-77470000D02*
X195326000Y-77470000D01*
X196872962Y-78410000D02*
X198232000Y-78410000D01*
X195932962Y-77470000D02*
X196872962Y-78410000D01*
X195072000Y-77470000D02*
X195932962Y-77470000D01*
X126746000Y-78486000D02*
X125730000Y-77470000D01*
X126746000Y-78740000D02*
X126746000Y-78486000D01*
G04 #@! TO.N,downArrSens*
X129540000Y-76962000D02*
X129540000Y-79502000D01*
X131826000Y-81788000D02*
X178816000Y-81788000D01*
X129540000Y-79502000D02*
X131826000Y-81788000D01*
X126667500Y-81280000D02*
X128016000Y-79931500D01*
X178816000Y-81788000D02*
X179578000Y-82550000D01*
X179578000Y-82550000D02*
X184658000Y-82550000D01*
X128016000Y-79931500D02*
X128016000Y-77978000D01*
X128016000Y-77978000D02*
X128016000Y-77724000D01*
X128778000Y-76200000D02*
X129540000Y-76962000D01*
X192278000Y-78994000D02*
X192786000Y-78994000D01*
X192786000Y-78994000D02*
X193040000Y-79248000D01*
X193078000Y-79210000D02*
X198232000Y-79210000D01*
X193040000Y-79248000D02*
X193078000Y-79210000D01*
G04 #@! TO.N,downArrBtn*
X191008000Y-80518000D02*
X191008000Y-83058000D01*
X190246000Y-83566000D02*
X190670264Y-83566000D01*
X190670264Y-83566000D02*
X191008000Y-83228264D01*
X191008000Y-83228264D02*
X191008000Y-83058000D01*
X191008000Y-80518000D02*
X191008000Y-78740000D01*
X195907023Y-78261023D02*
X196088000Y-78442000D01*
X191486977Y-78261023D02*
X195907023Y-78261023D01*
X191008000Y-78740000D02*
X191486977Y-78261023D01*
X198092000Y-77470000D02*
X198232000Y-77610000D01*
X196850000Y-77470000D02*
X198092000Y-77470000D01*
X123430000Y-81280000D02*
X124792500Y-81280000D01*
X123890000Y-72390000D02*
X123330000Y-72950000D01*
X129794000Y-72390000D02*
X123890000Y-72390000D01*
X123330000Y-81180000D02*
X123430000Y-81280000D01*
X123330000Y-72950000D02*
X123330000Y-81180000D01*
X131826000Y-81026000D02*
X130048000Y-79248000D01*
X132124000Y-81026000D02*
X131826000Y-81026000D01*
X130048000Y-72644000D02*
X129794000Y-72390000D01*
X130048000Y-79248000D02*
X130048000Y-72644000D01*
X132334000Y-81236000D02*
X132124000Y-81026000D01*
G04 #@! TO.N,powerLED*
X188136000Y-73914000D02*
X188532000Y-74310000D01*
X187452000Y-73914000D02*
X188136000Y-73914000D01*
X200100000Y-100230000D02*
X200010000Y-100320000D01*
X200100000Y-98200000D02*
X200100000Y-100230000D01*
G04 #@! TO.N,homeBtn*
X124871000Y-73738500D02*
X124792500Y-73660000D01*
X124792500Y-74460000D02*
X125262500Y-74930000D01*
X124792500Y-73660000D02*
X124792500Y-74460000D01*
X125262500Y-74930000D02*
X129032000Y-74930000D01*
X131983000Y-79248000D02*
X132491000Y-79756000D01*
X131064000Y-79248000D02*
X131983000Y-79248000D01*
X199232000Y-80010000D02*
X198232000Y-80010000D01*
X200406000Y-81184000D02*
X199232000Y-80010000D01*
X204470000Y-124720000D02*
X204470000Y-88646000D01*
X204470000Y-88646000D02*
X200406000Y-88646000D01*
X122590000Y-126746000D02*
X202444000Y-126746000D01*
X202444000Y-126746000D02*
X204470000Y-124720000D01*
X120142000Y-124298000D02*
X122590000Y-126746000D01*
X120396000Y-74422000D02*
X120142000Y-74676000D01*
X200406000Y-88646000D02*
X200406000Y-81184000D01*
X120142000Y-74676000D02*
X120142000Y-124298000D01*
X122180000Y-74422000D02*
X120396000Y-74422000D01*
G04 #@! TO.N,rightArrBtn*
X124871000Y-76200000D02*
X124871000Y-78740000D01*
X185230000Y-84010000D02*
X186832000Y-84010000D01*
X184912000Y-84328000D02*
X185230000Y-84010000D01*
X184912000Y-85046000D02*
X184912000Y-84328000D01*
X124871000Y-79957388D02*
X124871000Y-78740000D01*
X124923612Y-80010000D02*
X124871000Y-79957388D01*
X125730000Y-80010000D02*
X124923612Y-80010000D01*
X140970000Y-82804000D02*
X126492000Y-82804000D01*
X125730000Y-82042000D02*
X125730000Y-80010000D01*
X182626000Y-87630000D02*
X145796000Y-87630000D01*
X126492000Y-82804000D02*
X125730000Y-82042000D01*
X145796000Y-87630000D02*
X140970000Y-82804000D01*
G04 #@! TD*
D32*
G04 #@! TO.N,GND*
G36*
X121650365Y-75214655D02*
X121994017Y-75357000D01*
X122365983Y-75357000D01*
X122570000Y-75272493D01*
X122570001Y-81105148D01*
X122555112Y-81180000D01*
X122614097Y-81476537D01*
X122739417Y-81664091D01*
X122782072Y-81727929D01*
X122842016Y-81767982D01*
X122882071Y-81827929D01*
X123133463Y-81995904D01*
X123355148Y-82040000D01*
X123355152Y-82040000D01*
X123429999Y-82054888D01*
X123504846Y-82040000D01*
X123717980Y-82040000D01*
X123725398Y-82077294D01*
X123918584Y-82366416D01*
X124207706Y-82559602D01*
X124548750Y-82627440D01*
X125036250Y-82627440D01*
X125191880Y-82596483D01*
X125245530Y-82632331D01*
X125901670Y-83288472D01*
X125944071Y-83351929D01*
X126007527Y-83394329D01*
X126195462Y-83519904D01*
X126243605Y-83529480D01*
X126417148Y-83564000D01*
X126417152Y-83564000D01*
X126492000Y-83578888D01*
X126566848Y-83564000D01*
X140655199Y-83564000D01*
X145205671Y-88114473D01*
X145248071Y-88177929D01*
X145311527Y-88220329D01*
X145499462Y-88345904D01*
X145517355Y-88349463D01*
X145721148Y-88390000D01*
X145721152Y-88390000D01*
X145796000Y-88404888D01*
X145870848Y-88390000D01*
X182063710Y-88390000D01*
X182096365Y-88422655D01*
X182440017Y-88565000D01*
X182811983Y-88565000D01*
X183155635Y-88422655D01*
X183418655Y-88159635D01*
X183547580Y-87848381D01*
X185676000Y-89976802D01*
X185676001Y-95215143D01*
X185661111Y-95290000D01*
X185720096Y-95586537D01*
X185888071Y-95837929D01*
X186139463Y-96005904D01*
X186361148Y-96050000D01*
X186436000Y-96064889D01*
X186510852Y-96050000D01*
X187834875Y-96050000D01*
X187885148Y-96060000D01*
X187960000Y-96074889D01*
X188034852Y-96060000D01*
X188255199Y-96060000D01*
X188565000Y-96369802D01*
X188565000Y-96415983D01*
X188707345Y-96759635D01*
X188970365Y-97022655D01*
X189314017Y-97165000D01*
X189685983Y-97165000D01*
X190029635Y-97022655D01*
X190292655Y-96759635D01*
X190435000Y-96415983D01*
X190435000Y-96044017D01*
X190292655Y-95700365D01*
X190029635Y-95437345D01*
X189685983Y-95295000D01*
X189639802Y-95295000D01*
X189160331Y-94815530D01*
X189117929Y-94752071D01*
X188866537Y-94584096D01*
X188720000Y-94554948D01*
X188720000Y-90738801D01*
X190306802Y-89152000D01*
X191223212Y-89152000D01*
X191089000Y-89476017D01*
X191089000Y-89847983D01*
X191231345Y-90191635D01*
X191359000Y-90319290D01*
X191359001Y-93651143D01*
X191344111Y-93726000D01*
X191403096Y-94022537D01*
X191571071Y-94273929D01*
X191822463Y-94441904D01*
X192044148Y-94486000D01*
X192119000Y-94500889D01*
X192193852Y-94486000D01*
X196538560Y-94486000D01*
X196538560Y-94626000D01*
X196587843Y-94873765D01*
X196728191Y-95083809D01*
X196938235Y-95224157D01*
X197186000Y-95273440D01*
X198736000Y-95273440D01*
X198983765Y-95224157D01*
X199135047Y-95123073D01*
X199176302Y-95164327D01*
X199409691Y-95261000D01*
X200025250Y-95261000D01*
X200184000Y-95102250D01*
X200184000Y-93853000D01*
X200164000Y-93853000D01*
X200164000Y-93599000D01*
X200184000Y-93599000D01*
X200184000Y-93579000D01*
X200438000Y-93579000D01*
X200438000Y-93599000D01*
X200458000Y-93599000D01*
X200458000Y-93853000D01*
X200438000Y-93853000D01*
X200438000Y-95102250D01*
X200596750Y-95261000D01*
X201210001Y-95261000D01*
X201210000Y-99481503D01*
X201208157Y-99472235D01*
X201067809Y-99262191D01*
X200860000Y-99123336D01*
X200860000Y-98762290D01*
X200892655Y-98729635D01*
X201035000Y-98385983D01*
X201035000Y-98014017D01*
X200892655Y-97670365D01*
X200629635Y-97407345D01*
X200285983Y-97265000D01*
X199914017Y-97265000D01*
X199570365Y-97407345D01*
X199307345Y-97670365D01*
X199165000Y-98014017D01*
X199165000Y-98385983D01*
X199307345Y-98729635D01*
X199340000Y-98762290D01*
X199340000Y-99086484D01*
X199162235Y-99121843D01*
X198952191Y-99262191D01*
X198910000Y-99325334D01*
X198867809Y-99262191D01*
X198657765Y-99121843D01*
X198410000Y-99072560D01*
X197210000Y-99072560D01*
X196962235Y-99121843D01*
X196752191Y-99262191D01*
X196611843Y-99472235D01*
X196592397Y-99570000D01*
X127081560Y-99570000D01*
X127054157Y-99432235D01*
X126913809Y-99222191D01*
X126703765Y-99081843D01*
X126456000Y-99032560D01*
X125756000Y-99032560D01*
X125508235Y-99081843D01*
X125298191Y-99222191D01*
X125157843Y-99432235D01*
X125152279Y-99460209D01*
X125094327Y-99320301D01*
X124915698Y-99141673D01*
X124682309Y-99045000D01*
X124491750Y-99045000D01*
X124333000Y-99203750D01*
X124333000Y-100203000D01*
X124353000Y-100203000D01*
X124353000Y-100457000D01*
X124333000Y-100457000D01*
X124333000Y-101456250D01*
X124491750Y-101615000D01*
X124682309Y-101615000D01*
X124915698Y-101518327D01*
X125094327Y-101339699D01*
X125152279Y-101199791D01*
X125157843Y-101227765D01*
X125298191Y-101437809D01*
X125508235Y-101578157D01*
X125756000Y-101627440D01*
X126456000Y-101627440D01*
X126703765Y-101578157D01*
X126913809Y-101437809D01*
X127054157Y-101227765D01*
X127081560Y-101090000D01*
X196596375Y-101090000D01*
X196611843Y-101167765D01*
X196752191Y-101377809D01*
X196962235Y-101518157D01*
X197210000Y-101567440D01*
X198410000Y-101567440D01*
X198657765Y-101518157D01*
X198867809Y-101377809D01*
X198910000Y-101314666D01*
X198952191Y-101377809D01*
X199162235Y-101518157D01*
X199410000Y-101567440D01*
X200610000Y-101567440D01*
X200857765Y-101518157D01*
X201067809Y-101377809D01*
X201208157Y-101167765D01*
X201210000Y-101158498D01*
X201210000Y-104390000D01*
X201196421Y-104390000D01*
X201180157Y-104308235D01*
X201039809Y-104098191D01*
X200829765Y-103957843D01*
X200582000Y-103908560D01*
X199382000Y-103908560D01*
X199134235Y-103957843D01*
X198924191Y-104098191D01*
X198882000Y-104161334D01*
X198839809Y-104098191D01*
X198629765Y-103957843D01*
X198382000Y-103908560D01*
X197182000Y-103908560D01*
X196934235Y-103957843D01*
X196724191Y-104098191D01*
X196583843Y-104308235D01*
X196566386Y-104396000D01*
X127147560Y-104396000D01*
X127120157Y-104258235D01*
X126979809Y-104048191D01*
X126769765Y-103907843D01*
X126522000Y-103858560D01*
X125822000Y-103858560D01*
X125574235Y-103907843D01*
X125364191Y-104048191D01*
X125223843Y-104258235D01*
X125218279Y-104286209D01*
X125160327Y-104146301D01*
X124981698Y-103967673D01*
X124748309Y-103871000D01*
X124557750Y-103871000D01*
X124399000Y-104029750D01*
X124399000Y-105029000D01*
X124419000Y-105029000D01*
X124419000Y-105283000D01*
X124399000Y-105283000D01*
X124399000Y-106282250D01*
X124557750Y-106441000D01*
X124748309Y-106441000D01*
X124981698Y-106344327D01*
X125160327Y-106165699D01*
X125218279Y-106025791D01*
X125223843Y-106053765D01*
X125364191Y-106263809D01*
X125574235Y-106404157D01*
X125822000Y-106453440D01*
X126522000Y-106453440D01*
X126769765Y-106404157D01*
X126979809Y-106263809D01*
X127120157Y-106053765D01*
X127147560Y-105916000D01*
X196566386Y-105916000D01*
X196583843Y-106003765D01*
X196724191Y-106213809D01*
X196934235Y-106354157D01*
X197182000Y-106403440D01*
X198382000Y-106403440D01*
X198629765Y-106354157D01*
X198839809Y-106213809D01*
X198882000Y-106150666D01*
X198924191Y-106213809D01*
X199134235Y-106354157D01*
X199382000Y-106403440D01*
X200582000Y-106403440D01*
X200829765Y-106354157D01*
X201039809Y-106213809D01*
X201180157Y-106003765D01*
X201198808Y-105910000D01*
X201690000Y-105910000D01*
X201690000Y-106595153D01*
X201675112Y-106670000D01*
X201690000Y-106744847D01*
X201690000Y-106744851D01*
X201734096Y-106966536D01*
X201790001Y-107050204D01*
X201790001Y-109544927D01*
X201715929Y-109434071D01*
X201464537Y-109266096D01*
X201258512Y-109225115D01*
X201218157Y-109022235D01*
X201077809Y-108812191D01*
X200867765Y-108671843D01*
X200620000Y-108622560D01*
X199420000Y-108622560D01*
X199172235Y-108671843D01*
X198962191Y-108812191D01*
X198920000Y-108875334D01*
X198877809Y-108812191D01*
X198667765Y-108671843D01*
X198420000Y-108622560D01*
X197220000Y-108622560D01*
X196972235Y-108671843D01*
X196762191Y-108812191D01*
X196621843Y-109022235D01*
X196582108Y-109222000D01*
X127147560Y-109222000D01*
X127120157Y-109084235D01*
X126979809Y-108874191D01*
X126769765Y-108733843D01*
X126522000Y-108684560D01*
X125822000Y-108684560D01*
X125574235Y-108733843D01*
X125364191Y-108874191D01*
X125223843Y-109084235D01*
X125218279Y-109112209D01*
X125160327Y-108972301D01*
X124981698Y-108793673D01*
X124748309Y-108697000D01*
X124557750Y-108697000D01*
X124399000Y-108855750D01*
X124399000Y-109855000D01*
X124419000Y-109855000D01*
X124419000Y-110109000D01*
X124399000Y-110109000D01*
X124399000Y-111108250D01*
X124557750Y-111267000D01*
X124748309Y-111267000D01*
X124981698Y-111170327D01*
X125160327Y-110991699D01*
X125218279Y-110851791D01*
X125223843Y-110879765D01*
X125364191Y-111089809D01*
X125574235Y-111230157D01*
X125822000Y-111279440D01*
X126522000Y-111279440D01*
X126769765Y-111230157D01*
X126979809Y-111089809D01*
X127120157Y-110879765D01*
X127147560Y-110742000D01*
X196638036Y-110742000D01*
X196762191Y-110927809D01*
X196972235Y-111068157D01*
X197220000Y-111117440D01*
X198420000Y-111117440D01*
X198667765Y-111068157D01*
X198877809Y-110927809D01*
X198920000Y-110864666D01*
X198962191Y-110927809D01*
X199172235Y-111068157D01*
X199420000Y-111117440D01*
X200503482Y-111117440D01*
X200620072Y-111291929D01*
X200683527Y-111334328D01*
X200741000Y-111391802D01*
X200741000Y-111437983D01*
X200883345Y-111781635D01*
X201146365Y-112044655D01*
X201490017Y-112187000D01*
X201790000Y-112187000D01*
X201790000Y-116886728D01*
X201752072Y-116912071D01*
X201709672Y-116975527D01*
X201709671Y-116975528D01*
X201584097Y-117163463D01*
X201525112Y-117460000D01*
X201540001Y-117534852D01*
X201540000Y-123475198D01*
X200937528Y-124077671D01*
X200874072Y-124120071D01*
X200831671Y-124183528D01*
X200828556Y-124188190D01*
X200706096Y-124371463D01*
X200688087Y-124462000D01*
X182940802Y-124462000D01*
X182708000Y-124229199D01*
X182708000Y-122119614D01*
X182795765Y-122102157D01*
X183005809Y-121961809D01*
X183146157Y-121751765D01*
X183195440Y-121504000D01*
X183195440Y-120304000D01*
X183146157Y-120056235D01*
X183005809Y-119846191D01*
X182795765Y-119705843D01*
X182548000Y-119656560D01*
X181348000Y-119656560D01*
X181100235Y-119705843D01*
X180890191Y-119846191D01*
X180848000Y-119909334D01*
X180805809Y-119846191D01*
X180595765Y-119705843D01*
X180348000Y-119656560D01*
X179148000Y-119656560D01*
X178900235Y-119705843D01*
X178690191Y-119846191D01*
X178549843Y-120056235D01*
X178532386Y-120144000D01*
X172359560Y-120144000D01*
X172332157Y-120006235D01*
X172191809Y-119796191D01*
X171981765Y-119655843D01*
X171734000Y-119606560D01*
X171034000Y-119606560D01*
X170786235Y-119655843D01*
X170576191Y-119796191D01*
X170435843Y-120006235D01*
X170430279Y-120034209D01*
X170372327Y-119894301D01*
X170193698Y-119715673D01*
X169960309Y-119619000D01*
X169769750Y-119619000D01*
X169611000Y-119777750D01*
X169611000Y-120777000D01*
X169631000Y-120777000D01*
X169631000Y-121031000D01*
X169611000Y-121031000D01*
X169611000Y-122030250D01*
X169769750Y-122189000D01*
X169960309Y-122189000D01*
X170193698Y-122092327D01*
X170372327Y-121913699D01*
X170430279Y-121773791D01*
X170435843Y-121801765D01*
X170576191Y-122011809D01*
X170786235Y-122152157D01*
X171034000Y-122201440D01*
X171734000Y-122201440D01*
X171981765Y-122152157D01*
X172191809Y-122011809D01*
X172332157Y-121801765D01*
X172359560Y-121664000D01*
X178532386Y-121664000D01*
X178549843Y-121751765D01*
X178690191Y-121961809D01*
X178900235Y-122102157D01*
X179148000Y-122151440D01*
X180348000Y-122151440D01*
X180595765Y-122102157D01*
X180805809Y-121961809D01*
X180848000Y-121898666D01*
X180890191Y-121961809D01*
X181100235Y-122102157D01*
X181188000Y-122119614D01*
X181188001Y-124469148D01*
X181173112Y-124544000D01*
X181232097Y-124840537D01*
X181355651Y-125025448D01*
X181400072Y-125091929D01*
X181463528Y-125134329D01*
X181553199Y-125224000D01*
X153222802Y-125224000D01*
X152482000Y-124483199D01*
X152482000Y-122373614D01*
X152569765Y-122356157D01*
X152779809Y-122215809D01*
X152920157Y-122005765D01*
X152969440Y-121758000D01*
X152969440Y-121189750D01*
X168499000Y-121189750D01*
X168499000Y-121680310D01*
X168595673Y-121913699D01*
X168774302Y-122092327D01*
X169007691Y-122189000D01*
X169198250Y-122189000D01*
X169357000Y-122030250D01*
X169357000Y-121031000D01*
X168657750Y-121031000D01*
X168499000Y-121189750D01*
X152969440Y-121189750D01*
X152969440Y-120558000D01*
X152920157Y-120310235D01*
X152798184Y-120127690D01*
X168499000Y-120127690D01*
X168499000Y-120618250D01*
X168657750Y-120777000D01*
X169357000Y-120777000D01*
X169357000Y-119777750D01*
X169198250Y-119619000D01*
X169007691Y-119619000D01*
X168774302Y-119715673D01*
X168595673Y-119894301D01*
X168499000Y-120127690D01*
X152798184Y-120127690D01*
X152779809Y-120100191D01*
X152569765Y-119959843D01*
X152322000Y-119910560D01*
X151122000Y-119910560D01*
X150874235Y-119959843D01*
X150664191Y-120100191D01*
X150622000Y-120163334D01*
X150579809Y-120100191D01*
X150369765Y-119959843D01*
X150122000Y-119910560D01*
X148922000Y-119910560D01*
X148674235Y-119959843D01*
X148464191Y-120100191D01*
X148323843Y-120310235D01*
X148306386Y-120398000D01*
X142387560Y-120398000D01*
X142360157Y-120260235D01*
X142219809Y-120050191D01*
X142009765Y-119909843D01*
X141762000Y-119860560D01*
X141062000Y-119860560D01*
X140814235Y-119909843D01*
X140604191Y-120050191D01*
X140463843Y-120260235D01*
X140458279Y-120288209D01*
X140400327Y-120148301D01*
X140221698Y-119969673D01*
X139988309Y-119873000D01*
X139797750Y-119873000D01*
X139639000Y-120031750D01*
X139639000Y-121031000D01*
X139659000Y-121031000D01*
X139659000Y-121285000D01*
X139639000Y-121285000D01*
X139639000Y-122284250D01*
X139797750Y-122443000D01*
X139988309Y-122443000D01*
X140221698Y-122346327D01*
X140400327Y-122167699D01*
X140458279Y-122027791D01*
X140463843Y-122055765D01*
X140604191Y-122265809D01*
X140814235Y-122406157D01*
X141062000Y-122455440D01*
X141762000Y-122455440D01*
X142009765Y-122406157D01*
X142219809Y-122265809D01*
X142360157Y-122055765D01*
X142387560Y-121918000D01*
X148306386Y-121918000D01*
X148323843Y-122005765D01*
X148464191Y-122215809D01*
X148674235Y-122356157D01*
X148922000Y-122405440D01*
X150122000Y-122405440D01*
X150369765Y-122356157D01*
X150579809Y-122215809D01*
X150622000Y-122152666D01*
X150664191Y-122215809D01*
X150874235Y-122356157D01*
X150962001Y-122373614D01*
X150962000Y-124723153D01*
X150947112Y-124798000D01*
X150962000Y-124872847D01*
X150962000Y-124872851D01*
X151006096Y-125094536D01*
X151174071Y-125345929D01*
X151237530Y-125388331D01*
X151835198Y-125986000D01*
X122904802Y-125986000D01*
X120902000Y-123983199D01*
X120902000Y-121443750D01*
X138527000Y-121443750D01*
X138527000Y-121934310D01*
X138623673Y-122167699D01*
X138802302Y-122346327D01*
X139035691Y-122443000D01*
X139226250Y-122443000D01*
X139385000Y-122284250D01*
X139385000Y-121285000D01*
X138685750Y-121285000D01*
X138527000Y-121443750D01*
X120902000Y-121443750D01*
X120902000Y-120381690D01*
X138527000Y-120381690D01*
X138527000Y-120872250D01*
X138685750Y-121031000D01*
X139385000Y-121031000D01*
X139385000Y-120031750D01*
X139226250Y-119873000D01*
X139035691Y-119873000D01*
X138802302Y-119969673D01*
X138623673Y-120148301D01*
X138527000Y-120381690D01*
X120902000Y-120381690D01*
X120902000Y-110267750D01*
X123287000Y-110267750D01*
X123287000Y-110758310D01*
X123383673Y-110991699D01*
X123562302Y-111170327D01*
X123795691Y-111267000D01*
X123986250Y-111267000D01*
X124145000Y-111108250D01*
X124145000Y-110109000D01*
X123445750Y-110109000D01*
X123287000Y-110267750D01*
X120902000Y-110267750D01*
X120902000Y-109205690D01*
X123287000Y-109205690D01*
X123287000Y-109696250D01*
X123445750Y-109855000D01*
X124145000Y-109855000D01*
X124145000Y-108855750D01*
X123986250Y-108697000D01*
X123795691Y-108697000D01*
X123562302Y-108793673D01*
X123383673Y-108972301D01*
X123287000Y-109205690D01*
X120902000Y-109205690D01*
X120902000Y-105441750D01*
X123287000Y-105441750D01*
X123287000Y-105932310D01*
X123383673Y-106165699D01*
X123562302Y-106344327D01*
X123795691Y-106441000D01*
X123986250Y-106441000D01*
X124145000Y-106282250D01*
X124145000Y-105283000D01*
X123445750Y-105283000D01*
X123287000Y-105441750D01*
X120902000Y-105441750D01*
X120902000Y-104379690D01*
X123287000Y-104379690D01*
X123287000Y-104870250D01*
X123445750Y-105029000D01*
X124145000Y-105029000D01*
X124145000Y-104029750D01*
X123986250Y-103871000D01*
X123795691Y-103871000D01*
X123562302Y-103967673D01*
X123383673Y-104146301D01*
X123287000Y-104379690D01*
X120902000Y-104379690D01*
X120902000Y-100615750D01*
X123221000Y-100615750D01*
X123221000Y-101106310D01*
X123317673Y-101339699D01*
X123496302Y-101518327D01*
X123729691Y-101615000D01*
X123920250Y-101615000D01*
X124079000Y-101456250D01*
X124079000Y-100457000D01*
X123379750Y-100457000D01*
X123221000Y-100615750D01*
X120902000Y-100615750D01*
X120902000Y-99553690D01*
X123221000Y-99553690D01*
X123221000Y-100044250D01*
X123379750Y-100203000D01*
X124079000Y-100203000D01*
X124079000Y-99203750D01*
X123920250Y-99045000D01*
X123729691Y-99045000D01*
X123496302Y-99141673D01*
X123317673Y-99320301D01*
X123221000Y-99553690D01*
X120902000Y-99553690D01*
X120902000Y-75182000D01*
X121617710Y-75182000D01*
X121650365Y-75214655D01*
X121650365Y-75214655D01*
G37*
X121650365Y-75214655D02*
X121994017Y-75357000D01*
X122365983Y-75357000D01*
X122570000Y-75272493D01*
X122570001Y-81105148D01*
X122555112Y-81180000D01*
X122614097Y-81476537D01*
X122739417Y-81664091D01*
X122782072Y-81727929D01*
X122842016Y-81767982D01*
X122882071Y-81827929D01*
X123133463Y-81995904D01*
X123355148Y-82040000D01*
X123355152Y-82040000D01*
X123429999Y-82054888D01*
X123504846Y-82040000D01*
X123717980Y-82040000D01*
X123725398Y-82077294D01*
X123918584Y-82366416D01*
X124207706Y-82559602D01*
X124548750Y-82627440D01*
X125036250Y-82627440D01*
X125191880Y-82596483D01*
X125245530Y-82632331D01*
X125901670Y-83288472D01*
X125944071Y-83351929D01*
X126007527Y-83394329D01*
X126195462Y-83519904D01*
X126243605Y-83529480D01*
X126417148Y-83564000D01*
X126417152Y-83564000D01*
X126492000Y-83578888D01*
X126566848Y-83564000D01*
X140655199Y-83564000D01*
X145205671Y-88114473D01*
X145248071Y-88177929D01*
X145311527Y-88220329D01*
X145499462Y-88345904D01*
X145517355Y-88349463D01*
X145721148Y-88390000D01*
X145721152Y-88390000D01*
X145796000Y-88404888D01*
X145870848Y-88390000D01*
X182063710Y-88390000D01*
X182096365Y-88422655D01*
X182440017Y-88565000D01*
X182811983Y-88565000D01*
X183155635Y-88422655D01*
X183418655Y-88159635D01*
X183547580Y-87848381D01*
X185676000Y-89976802D01*
X185676001Y-95215143D01*
X185661111Y-95290000D01*
X185720096Y-95586537D01*
X185888071Y-95837929D01*
X186139463Y-96005904D01*
X186361148Y-96050000D01*
X186436000Y-96064889D01*
X186510852Y-96050000D01*
X187834875Y-96050000D01*
X187885148Y-96060000D01*
X187960000Y-96074889D01*
X188034852Y-96060000D01*
X188255199Y-96060000D01*
X188565000Y-96369802D01*
X188565000Y-96415983D01*
X188707345Y-96759635D01*
X188970365Y-97022655D01*
X189314017Y-97165000D01*
X189685983Y-97165000D01*
X190029635Y-97022655D01*
X190292655Y-96759635D01*
X190435000Y-96415983D01*
X190435000Y-96044017D01*
X190292655Y-95700365D01*
X190029635Y-95437345D01*
X189685983Y-95295000D01*
X189639802Y-95295000D01*
X189160331Y-94815530D01*
X189117929Y-94752071D01*
X188866537Y-94584096D01*
X188720000Y-94554948D01*
X188720000Y-90738801D01*
X190306802Y-89152000D01*
X191223212Y-89152000D01*
X191089000Y-89476017D01*
X191089000Y-89847983D01*
X191231345Y-90191635D01*
X191359000Y-90319290D01*
X191359001Y-93651143D01*
X191344111Y-93726000D01*
X191403096Y-94022537D01*
X191571071Y-94273929D01*
X191822463Y-94441904D01*
X192044148Y-94486000D01*
X192119000Y-94500889D01*
X192193852Y-94486000D01*
X196538560Y-94486000D01*
X196538560Y-94626000D01*
X196587843Y-94873765D01*
X196728191Y-95083809D01*
X196938235Y-95224157D01*
X197186000Y-95273440D01*
X198736000Y-95273440D01*
X198983765Y-95224157D01*
X199135047Y-95123073D01*
X199176302Y-95164327D01*
X199409691Y-95261000D01*
X200025250Y-95261000D01*
X200184000Y-95102250D01*
X200184000Y-93853000D01*
X200164000Y-93853000D01*
X200164000Y-93599000D01*
X200184000Y-93599000D01*
X200184000Y-93579000D01*
X200438000Y-93579000D01*
X200438000Y-93599000D01*
X200458000Y-93599000D01*
X200458000Y-93853000D01*
X200438000Y-93853000D01*
X200438000Y-95102250D01*
X200596750Y-95261000D01*
X201210001Y-95261000D01*
X201210000Y-99481503D01*
X201208157Y-99472235D01*
X201067809Y-99262191D01*
X200860000Y-99123336D01*
X200860000Y-98762290D01*
X200892655Y-98729635D01*
X201035000Y-98385983D01*
X201035000Y-98014017D01*
X200892655Y-97670365D01*
X200629635Y-97407345D01*
X200285983Y-97265000D01*
X199914017Y-97265000D01*
X199570365Y-97407345D01*
X199307345Y-97670365D01*
X199165000Y-98014017D01*
X199165000Y-98385983D01*
X199307345Y-98729635D01*
X199340000Y-98762290D01*
X199340000Y-99086484D01*
X199162235Y-99121843D01*
X198952191Y-99262191D01*
X198910000Y-99325334D01*
X198867809Y-99262191D01*
X198657765Y-99121843D01*
X198410000Y-99072560D01*
X197210000Y-99072560D01*
X196962235Y-99121843D01*
X196752191Y-99262191D01*
X196611843Y-99472235D01*
X196592397Y-99570000D01*
X127081560Y-99570000D01*
X127054157Y-99432235D01*
X126913809Y-99222191D01*
X126703765Y-99081843D01*
X126456000Y-99032560D01*
X125756000Y-99032560D01*
X125508235Y-99081843D01*
X125298191Y-99222191D01*
X125157843Y-99432235D01*
X125152279Y-99460209D01*
X125094327Y-99320301D01*
X124915698Y-99141673D01*
X124682309Y-99045000D01*
X124491750Y-99045000D01*
X124333000Y-99203750D01*
X124333000Y-100203000D01*
X124353000Y-100203000D01*
X124353000Y-100457000D01*
X124333000Y-100457000D01*
X124333000Y-101456250D01*
X124491750Y-101615000D01*
X124682309Y-101615000D01*
X124915698Y-101518327D01*
X125094327Y-101339699D01*
X125152279Y-101199791D01*
X125157843Y-101227765D01*
X125298191Y-101437809D01*
X125508235Y-101578157D01*
X125756000Y-101627440D01*
X126456000Y-101627440D01*
X126703765Y-101578157D01*
X126913809Y-101437809D01*
X127054157Y-101227765D01*
X127081560Y-101090000D01*
X196596375Y-101090000D01*
X196611843Y-101167765D01*
X196752191Y-101377809D01*
X196962235Y-101518157D01*
X197210000Y-101567440D01*
X198410000Y-101567440D01*
X198657765Y-101518157D01*
X198867809Y-101377809D01*
X198910000Y-101314666D01*
X198952191Y-101377809D01*
X199162235Y-101518157D01*
X199410000Y-101567440D01*
X200610000Y-101567440D01*
X200857765Y-101518157D01*
X201067809Y-101377809D01*
X201208157Y-101167765D01*
X201210000Y-101158498D01*
X201210000Y-104390000D01*
X201196421Y-104390000D01*
X201180157Y-104308235D01*
X201039809Y-104098191D01*
X200829765Y-103957843D01*
X200582000Y-103908560D01*
X199382000Y-103908560D01*
X199134235Y-103957843D01*
X198924191Y-104098191D01*
X198882000Y-104161334D01*
X198839809Y-104098191D01*
X198629765Y-103957843D01*
X198382000Y-103908560D01*
X197182000Y-103908560D01*
X196934235Y-103957843D01*
X196724191Y-104098191D01*
X196583843Y-104308235D01*
X196566386Y-104396000D01*
X127147560Y-104396000D01*
X127120157Y-104258235D01*
X126979809Y-104048191D01*
X126769765Y-103907843D01*
X126522000Y-103858560D01*
X125822000Y-103858560D01*
X125574235Y-103907843D01*
X125364191Y-104048191D01*
X125223843Y-104258235D01*
X125218279Y-104286209D01*
X125160327Y-104146301D01*
X124981698Y-103967673D01*
X124748309Y-103871000D01*
X124557750Y-103871000D01*
X124399000Y-104029750D01*
X124399000Y-105029000D01*
X124419000Y-105029000D01*
X124419000Y-105283000D01*
X124399000Y-105283000D01*
X124399000Y-106282250D01*
X124557750Y-106441000D01*
X124748309Y-106441000D01*
X124981698Y-106344327D01*
X125160327Y-106165699D01*
X125218279Y-106025791D01*
X125223843Y-106053765D01*
X125364191Y-106263809D01*
X125574235Y-106404157D01*
X125822000Y-106453440D01*
X126522000Y-106453440D01*
X126769765Y-106404157D01*
X126979809Y-106263809D01*
X127120157Y-106053765D01*
X127147560Y-105916000D01*
X196566386Y-105916000D01*
X196583843Y-106003765D01*
X196724191Y-106213809D01*
X196934235Y-106354157D01*
X197182000Y-106403440D01*
X198382000Y-106403440D01*
X198629765Y-106354157D01*
X198839809Y-106213809D01*
X198882000Y-106150666D01*
X198924191Y-106213809D01*
X199134235Y-106354157D01*
X199382000Y-106403440D01*
X200582000Y-106403440D01*
X200829765Y-106354157D01*
X201039809Y-106213809D01*
X201180157Y-106003765D01*
X201198808Y-105910000D01*
X201690000Y-105910000D01*
X201690000Y-106595153D01*
X201675112Y-106670000D01*
X201690000Y-106744847D01*
X201690000Y-106744851D01*
X201734096Y-106966536D01*
X201790001Y-107050204D01*
X201790001Y-109544927D01*
X201715929Y-109434071D01*
X201464537Y-109266096D01*
X201258512Y-109225115D01*
X201218157Y-109022235D01*
X201077809Y-108812191D01*
X200867765Y-108671843D01*
X200620000Y-108622560D01*
X199420000Y-108622560D01*
X199172235Y-108671843D01*
X198962191Y-108812191D01*
X198920000Y-108875334D01*
X198877809Y-108812191D01*
X198667765Y-108671843D01*
X198420000Y-108622560D01*
X197220000Y-108622560D01*
X196972235Y-108671843D01*
X196762191Y-108812191D01*
X196621843Y-109022235D01*
X196582108Y-109222000D01*
X127147560Y-109222000D01*
X127120157Y-109084235D01*
X126979809Y-108874191D01*
X126769765Y-108733843D01*
X126522000Y-108684560D01*
X125822000Y-108684560D01*
X125574235Y-108733843D01*
X125364191Y-108874191D01*
X125223843Y-109084235D01*
X125218279Y-109112209D01*
X125160327Y-108972301D01*
X124981698Y-108793673D01*
X124748309Y-108697000D01*
X124557750Y-108697000D01*
X124399000Y-108855750D01*
X124399000Y-109855000D01*
X124419000Y-109855000D01*
X124419000Y-110109000D01*
X124399000Y-110109000D01*
X124399000Y-111108250D01*
X124557750Y-111267000D01*
X124748309Y-111267000D01*
X124981698Y-111170327D01*
X125160327Y-110991699D01*
X125218279Y-110851791D01*
X125223843Y-110879765D01*
X125364191Y-111089809D01*
X125574235Y-111230157D01*
X125822000Y-111279440D01*
X126522000Y-111279440D01*
X126769765Y-111230157D01*
X126979809Y-111089809D01*
X127120157Y-110879765D01*
X127147560Y-110742000D01*
X196638036Y-110742000D01*
X196762191Y-110927809D01*
X196972235Y-111068157D01*
X197220000Y-111117440D01*
X198420000Y-111117440D01*
X198667765Y-111068157D01*
X198877809Y-110927809D01*
X198920000Y-110864666D01*
X198962191Y-110927809D01*
X199172235Y-111068157D01*
X199420000Y-111117440D01*
X200503482Y-111117440D01*
X200620072Y-111291929D01*
X200683527Y-111334328D01*
X200741000Y-111391802D01*
X200741000Y-111437983D01*
X200883345Y-111781635D01*
X201146365Y-112044655D01*
X201490017Y-112187000D01*
X201790000Y-112187000D01*
X201790000Y-116886728D01*
X201752072Y-116912071D01*
X201709672Y-116975527D01*
X201709671Y-116975528D01*
X201584097Y-117163463D01*
X201525112Y-117460000D01*
X201540001Y-117534852D01*
X201540000Y-123475198D01*
X200937528Y-124077671D01*
X200874072Y-124120071D01*
X200831671Y-124183528D01*
X200828556Y-124188190D01*
X200706096Y-124371463D01*
X200688087Y-124462000D01*
X182940802Y-124462000D01*
X182708000Y-124229199D01*
X182708000Y-122119614D01*
X182795765Y-122102157D01*
X183005809Y-121961809D01*
X183146157Y-121751765D01*
X183195440Y-121504000D01*
X183195440Y-120304000D01*
X183146157Y-120056235D01*
X183005809Y-119846191D01*
X182795765Y-119705843D01*
X182548000Y-119656560D01*
X181348000Y-119656560D01*
X181100235Y-119705843D01*
X180890191Y-119846191D01*
X180848000Y-119909334D01*
X180805809Y-119846191D01*
X180595765Y-119705843D01*
X180348000Y-119656560D01*
X179148000Y-119656560D01*
X178900235Y-119705843D01*
X178690191Y-119846191D01*
X178549843Y-120056235D01*
X178532386Y-120144000D01*
X172359560Y-120144000D01*
X172332157Y-120006235D01*
X172191809Y-119796191D01*
X171981765Y-119655843D01*
X171734000Y-119606560D01*
X171034000Y-119606560D01*
X170786235Y-119655843D01*
X170576191Y-119796191D01*
X170435843Y-120006235D01*
X170430279Y-120034209D01*
X170372327Y-119894301D01*
X170193698Y-119715673D01*
X169960309Y-119619000D01*
X169769750Y-119619000D01*
X169611000Y-119777750D01*
X169611000Y-120777000D01*
X169631000Y-120777000D01*
X169631000Y-121031000D01*
X169611000Y-121031000D01*
X169611000Y-122030250D01*
X169769750Y-122189000D01*
X169960309Y-122189000D01*
X170193698Y-122092327D01*
X170372327Y-121913699D01*
X170430279Y-121773791D01*
X170435843Y-121801765D01*
X170576191Y-122011809D01*
X170786235Y-122152157D01*
X171034000Y-122201440D01*
X171734000Y-122201440D01*
X171981765Y-122152157D01*
X172191809Y-122011809D01*
X172332157Y-121801765D01*
X172359560Y-121664000D01*
X178532386Y-121664000D01*
X178549843Y-121751765D01*
X178690191Y-121961809D01*
X178900235Y-122102157D01*
X179148000Y-122151440D01*
X180348000Y-122151440D01*
X180595765Y-122102157D01*
X180805809Y-121961809D01*
X180848000Y-121898666D01*
X180890191Y-121961809D01*
X181100235Y-122102157D01*
X181188000Y-122119614D01*
X181188001Y-124469148D01*
X181173112Y-124544000D01*
X181232097Y-124840537D01*
X181355651Y-125025448D01*
X181400072Y-125091929D01*
X181463528Y-125134329D01*
X181553199Y-125224000D01*
X153222802Y-125224000D01*
X152482000Y-124483199D01*
X152482000Y-122373614D01*
X152569765Y-122356157D01*
X152779809Y-122215809D01*
X152920157Y-122005765D01*
X152969440Y-121758000D01*
X152969440Y-121189750D01*
X168499000Y-121189750D01*
X168499000Y-121680310D01*
X168595673Y-121913699D01*
X168774302Y-122092327D01*
X169007691Y-122189000D01*
X169198250Y-122189000D01*
X169357000Y-122030250D01*
X169357000Y-121031000D01*
X168657750Y-121031000D01*
X168499000Y-121189750D01*
X152969440Y-121189750D01*
X152969440Y-120558000D01*
X152920157Y-120310235D01*
X152798184Y-120127690D01*
X168499000Y-120127690D01*
X168499000Y-120618250D01*
X168657750Y-120777000D01*
X169357000Y-120777000D01*
X169357000Y-119777750D01*
X169198250Y-119619000D01*
X169007691Y-119619000D01*
X168774302Y-119715673D01*
X168595673Y-119894301D01*
X168499000Y-120127690D01*
X152798184Y-120127690D01*
X152779809Y-120100191D01*
X152569765Y-119959843D01*
X152322000Y-119910560D01*
X151122000Y-119910560D01*
X150874235Y-119959843D01*
X150664191Y-120100191D01*
X150622000Y-120163334D01*
X150579809Y-120100191D01*
X150369765Y-119959843D01*
X150122000Y-119910560D01*
X148922000Y-119910560D01*
X148674235Y-119959843D01*
X148464191Y-120100191D01*
X148323843Y-120310235D01*
X148306386Y-120398000D01*
X142387560Y-120398000D01*
X142360157Y-120260235D01*
X142219809Y-120050191D01*
X142009765Y-119909843D01*
X141762000Y-119860560D01*
X141062000Y-119860560D01*
X140814235Y-119909843D01*
X140604191Y-120050191D01*
X140463843Y-120260235D01*
X140458279Y-120288209D01*
X140400327Y-120148301D01*
X140221698Y-119969673D01*
X139988309Y-119873000D01*
X139797750Y-119873000D01*
X139639000Y-120031750D01*
X139639000Y-121031000D01*
X139659000Y-121031000D01*
X139659000Y-121285000D01*
X139639000Y-121285000D01*
X139639000Y-122284250D01*
X139797750Y-122443000D01*
X139988309Y-122443000D01*
X140221698Y-122346327D01*
X140400327Y-122167699D01*
X140458279Y-122027791D01*
X140463843Y-122055765D01*
X140604191Y-122265809D01*
X140814235Y-122406157D01*
X141062000Y-122455440D01*
X141762000Y-122455440D01*
X142009765Y-122406157D01*
X142219809Y-122265809D01*
X142360157Y-122055765D01*
X142387560Y-121918000D01*
X148306386Y-121918000D01*
X148323843Y-122005765D01*
X148464191Y-122215809D01*
X148674235Y-122356157D01*
X148922000Y-122405440D01*
X150122000Y-122405440D01*
X150369765Y-122356157D01*
X150579809Y-122215809D01*
X150622000Y-122152666D01*
X150664191Y-122215809D01*
X150874235Y-122356157D01*
X150962001Y-122373614D01*
X150962000Y-124723153D01*
X150947112Y-124798000D01*
X150962000Y-124872847D01*
X150962000Y-124872851D01*
X151006096Y-125094536D01*
X151174071Y-125345929D01*
X151237530Y-125388331D01*
X151835198Y-125986000D01*
X122904802Y-125986000D01*
X120902000Y-123983199D01*
X120902000Y-121443750D01*
X138527000Y-121443750D01*
X138527000Y-121934310D01*
X138623673Y-122167699D01*
X138802302Y-122346327D01*
X139035691Y-122443000D01*
X139226250Y-122443000D01*
X139385000Y-122284250D01*
X139385000Y-121285000D01*
X138685750Y-121285000D01*
X138527000Y-121443750D01*
X120902000Y-121443750D01*
X120902000Y-120381690D01*
X138527000Y-120381690D01*
X138527000Y-120872250D01*
X138685750Y-121031000D01*
X139385000Y-121031000D01*
X139385000Y-120031750D01*
X139226250Y-119873000D01*
X139035691Y-119873000D01*
X138802302Y-119969673D01*
X138623673Y-120148301D01*
X138527000Y-120381690D01*
X120902000Y-120381690D01*
X120902000Y-110267750D01*
X123287000Y-110267750D01*
X123287000Y-110758310D01*
X123383673Y-110991699D01*
X123562302Y-111170327D01*
X123795691Y-111267000D01*
X123986250Y-111267000D01*
X124145000Y-111108250D01*
X124145000Y-110109000D01*
X123445750Y-110109000D01*
X123287000Y-110267750D01*
X120902000Y-110267750D01*
X120902000Y-109205690D01*
X123287000Y-109205690D01*
X123287000Y-109696250D01*
X123445750Y-109855000D01*
X124145000Y-109855000D01*
X124145000Y-108855750D01*
X123986250Y-108697000D01*
X123795691Y-108697000D01*
X123562302Y-108793673D01*
X123383673Y-108972301D01*
X123287000Y-109205690D01*
X120902000Y-109205690D01*
X120902000Y-105441750D01*
X123287000Y-105441750D01*
X123287000Y-105932310D01*
X123383673Y-106165699D01*
X123562302Y-106344327D01*
X123795691Y-106441000D01*
X123986250Y-106441000D01*
X124145000Y-106282250D01*
X124145000Y-105283000D01*
X123445750Y-105283000D01*
X123287000Y-105441750D01*
X120902000Y-105441750D01*
X120902000Y-104379690D01*
X123287000Y-104379690D01*
X123287000Y-104870250D01*
X123445750Y-105029000D01*
X124145000Y-105029000D01*
X124145000Y-104029750D01*
X123986250Y-103871000D01*
X123795691Y-103871000D01*
X123562302Y-103967673D01*
X123383673Y-104146301D01*
X123287000Y-104379690D01*
X120902000Y-104379690D01*
X120902000Y-100615750D01*
X123221000Y-100615750D01*
X123221000Y-101106310D01*
X123317673Y-101339699D01*
X123496302Y-101518327D01*
X123729691Y-101615000D01*
X123920250Y-101615000D01*
X124079000Y-101456250D01*
X124079000Y-100457000D01*
X123379750Y-100457000D01*
X123221000Y-100615750D01*
X120902000Y-100615750D01*
X120902000Y-99553690D01*
X123221000Y-99553690D01*
X123221000Y-100044250D01*
X123379750Y-100203000D01*
X124079000Y-100203000D01*
X124079000Y-99203750D01*
X123920250Y-99045000D01*
X123729691Y-99045000D01*
X123496302Y-99141673D01*
X123317673Y-99320301D01*
X123221000Y-99553690D01*
X120902000Y-99553690D01*
X120902000Y-75182000D01*
X121617710Y-75182000D01*
X121650365Y-75214655D01*
G36*
X198517750Y-84920000D02*
X198630000Y-84920000D01*
X198630001Y-90095143D01*
X198615111Y-90170000D01*
X198666033Y-90426000D01*
X198372000Y-90426000D01*
X198372000Y-84885676D01*
X198386888Y-84810828D01*
X198381502Y-84783752D01*
X198517750Y-84920000D01*
X198517750Y-84920000D01*
G37*
X198517750Y-84920000D02*
X198630000Y-84920000D01*
X198630001Y-90095143D01*
X198615111Y-90170000D01*
X198666033Y-90426000D01*
X198372000Y-90426000D01*
X198372000Y-84885676D01*
X198386888Y-84810828D01*
X198381502Y-84783752D01*
X198517750Y-84920000D01*
G36*
X187609560Y-86460000D02*
X187648689Y-86656718D01*
X187533000Y-86936017D01*
X187533000Y-87307983D01*
X187675345Y-87651635D01*
X187938365Y-87914655D01*
X188282017Y-88057000D01*
X188490198Y-88057000D01*
X187156853Y-89390345D01*
X187151904Y-89365463D01*
X187151904Y-89365462D01*
X187026329Y-89177527D01*
X186983929Y-89114071D01*
X186920473Y-89071671D01*
X184460801Y-86612000D01*
X186615153Y-86612000D01*
X186690000Y-86626888D01*
X186764847Y-86612000D01*
X186764852Y-86612000D01*
X186986537Y-86567904D01*
X187237929Y-86399929D01*
X187280331Y-86336470D01*
X187609560Y-86007242D01*
X187609560Y-86460000D01*
X187609560Y-86460000D01*
G37*
X187609560Y-86460000D02*
X187648689Y-86656718D01*
X187533000Y-86936017D01*
X187533000Y-87307983D01*
X187675345Y-87651635D01*
X187938365Y-87914655D01*
X188282017Y-88057000D01*
X188490198Y-88057000D01*
X187156853Y-89390345D01*
X187151904Y-89365463D01*
X187151904Y-89365462D01*
X187026329Y-89177527D01*
X186983929Y-89114071D01*
X186920473Y-89071671D01*
X184460801Y-86612000D01*
X186615153Y-86612000D01*
X186690000Y-86626888D01*
X186764847Y-86612000D01*
X186764852Y-86612000D01*
X186986537Y-86567904D01*
X187237929Y-86399929D01*
X187280331Y-86336470D01*
X187609560Y-86007242D01*
X187609560Y-86460000D01*
G36*
X202860750Y-85963000D02*
X203835000Y-85963000D01*
X203835000Y-85943000D01*
X204089000Y-85943000D01*
X204089000Y-85963000D01*
X204109000Y-85963000D01*
X204109000Y-86217000D01*
X204089000Y-86217000D01*
X204089000Y-87066250D01*
X204247750Y-87225000D01*
X204342266Y-87225000D01*
X204337578Y-87886000D01*
X201166000Y-87886000D01*
X201166000Y-87225000D01*
X201390250Y-87225000D01*
X201549000Y-87066250D01*
X201549000Y-86217000D01*
X201803000Y-86217000D01*
X201803000Y-87066250D01*
X201961750Y-87225000D01*
X202427310Y-87225000D01*
X202660699Y-87128327D01*
X202819000Y-86970025D01*
X202977301Y-87128327D01*
X203210690Y-87225000D01*
X203676250Y-87225000D01*
X203835000Y-87066250D01*
X203835000Y-86217000D01*
X202860750Y-86217000D01*
X202819000Y-86258750D01*
X202777250Y-86217000D01*
X201803000Y-86217000D01*
X201549000Y-86217000D01*
X201529000Y-86217000D01*
X201529000Y-85963000D01*
X201549000Y-85963000D01*
X201549000Y-85943000D01*
X201803000Y-85943000D01*
X201803000Y-85963000D01*
X202777250Y-85963000D01*
X202819000Y-85921250D01*
X202860750Y-85963000D01*
X202860750Y-85963000D01*
G37*
X202860750Y-85963000D02*
X203835000Y-85963000D01*
X203835000Y-85943000D01*
X204089000Y-85943000D01*
X204089000Y-85963000D01*
X204109000Y-85963000D01*
X204109000Y-86217000D01*
X204089000Y-86217000D01*
X204089000Y-87066250D01*
X204247750Y-87225000D01*
X204342266Y-87225000D01*
X204337578Y-87886000D01*
X201166000Y-87886000D01*
X201166000Y-87225000D01*
X201390250Y-87225000D01*
X201549000Y-87066250D01*
X201549000Y-86217000D01*
X201803000Y-86217000D01*
X201803000Y-87066250D01*
X201961750Y-87225000D01*
X202427310Y-87225000D01*
X202660699Y-87128327D01*
X202819000Y-86970025D01*
X202977301Y-87128327D01*
X203210690Y-87225000D01*
X203676250Y-87225000D01*
X203835000Y-87066250D01*
X203835000Y-86217000D01*
X202860750Y-86217000D01*
X202819000Y-86258750D01*
X202777250Y-86217000D01*
X201803000Y-86217000D01*
X201549000Y-86217000D01*
X201529000Y-86217000D01*
X201529000Y-85963000D01*
X201549000Y-85963000D01*
X201549000Y-85943000D01*
X201803000Y-85943000D01*
X201803000Y-85963000D01*
X202777250Y-85963000D01*
X202819000Y-85921250D01*
X202860750Y-85963000D01*
G36*
X178987671Y-83034473D02*
X179030071Y-83097929D01*
X179093527Y-83140329D01*
X179281462Y-83265904D01*
X179329605Y-83275480D01*
X179503148Y-83310000D01*
X179503152Y-83310000D01*
X179578000Y-83324888D01*
X179652848Y-83310000D01*
X179729000Y-83310000D01*
X179729000Y-83534250D01*
X179887750Y-83693000D01*
X180737000Y-83693000D01*
X180737000Y-83673000D01*
X180991000Y-83673000D01*
X180991000Y-83693000D01*
X181011000Y-83693000D01*
X181011000Y-83947000D01*
X180991000Y-83947000D01*
X180991000Y-84921250D01*
X181149750Y-85080000D01*
X181490309Y-85080000D01*
X181723698Y-84983327D01*
X181865346Y-84841680D01*
X181906191Y-84902809D01*
X182116235Y-85043157D01*
X182134212Y-85046733D01*
X182148097Y-85116537D01*
X182269283Y-85297904D01*
X182316072Y-85367929D01*
X182379527Y-85410329D01*
X183077198Y-86108000D01*
X146110803Y-86108000D01*
X144108552Y-84105750D01*
X179729000Y-84105750D01*
X179729000Y-84571310D01*
X179825673Y-84804699D01*
X180004302Y-84983327D01*
X180237691Y-85080000D01*
X180578250Y-85080000D01*
X180737000Y-84921250D01*
X180737000Y-83947000D01*
X179887750Y-83947000D01*
X179729000Y-84105750D01*
X144108552Y-84105750D01*
X142550801Y-82548000D01*
X178501199Y-82548000D01*
X178987671Y-83034473D01*
X178987671Y-83034473D01*
G37*
X178987671Y-83034473D02*
X179030071Y-83097929D01*
X179093527Y-83140329D01*
X179281462Y-83265904D01*
X179329605Y-83275480D01*
X179503148Y-83310000D01*
X179503152Y-83310000D01*
X179578000Y-83324888D01*
X179652848Y-83310000D01*
X179729000Y-83310000D01*
X179729000Y-83534250D01*
X179887750Y-83693000D01*
X180737000Y-83693000D01*
X180737000Y-83673000D01*
X180991000Y-83673000D01*
X180991000Y-83693000D01*
X181011000Y-83693000D01*
X181011000Y-83947000D01*
X180991000Y-83947000D01*
X180991000Y-84921250D01*
X181149750Y-85080000D01*
X181490309Y-85080000D01*
X181723698Y-84983327D01*
X181865346Y-84841680D01*
X181906191Y-84902809D01*
X182116235Y-85043157D01*
X182134212Y-85046733D01*
X182148097Y-85116537D01*
X182269283Y-85297904D01*
X182316072Y-85367929D01*
X182379527Y-85410329D01*
X183077198Y-86108000D01*
X146110803Y-86108000D01*
X144108552Y-84105750D01*
X179729000Y-84105750D01*
X179729000Y-84571310D01*
X179825673Y-84804699D01*
X180004302Y-84983327D01*
X180237691Y-85080000D01*
X180578250Y-85080000D01*
X180737000Y-84921250D01*
X180737000Y-83947000D01*
X179887750Y-83947000D01*
X179729000Y-84105750D01*
X144108552Y-84105750D01*
X142550801Y-82548000D01*
X178501199Y-82548000D01*
X178987671Y-83034473D01*
G36*
X192092017Y-79929000D02*
X192463983Y-79929000D01*
X192604264Y-79870894D01*
X192723860Y-79950805D01*
X192743463Y-79963903D01*
X193039999Y-80022888D01*
X193040000Y-80022888D01*
X193305885Y-79970000D01*
X196834560Y-79970000D01*
X196834560Y-80050000D01*
X195870846Y-80050000D01*
X195795999Y-80035112D01*
X195721152Y-80050000D01*
X195721148Y-80050000D01*
X195499463Y-80094096D01*
X195248071Y-80262071D01*
X195205669Y-80325530D01*
X195095528Y-80435671D01*
X195032072Y-80478071D01*
X194989672Y-80541527D01*
X194989671Y-80541528D01*
X194889797Y-80691000D01*
X194864097Y-80729463D01*
X194820095Y-80950678D01*
X194805112Y-81026000D01*
X194820001Y-81100851D01*
X194820000Y-82221153D01*
X194805112Y-82296000D01*
X194820000Y-82370847D01*
X194820000Y-82370851D01*
X194864096Y-82592536D01*
X195032071Y-82843929D01*
X195074000Y-82871945D01*
X195074001Y-83999149D01*
X195059112Y-84074000D01*
X195106565Y-84312560D01*
X194657000Y-84312560D01*
X194532000Y-84337424D01*
X194407000Y-84312560D01*
X193857000Y-84312560D01*
X193732000Y-84337424D01*
X193607000Y-84312560D01*
X193057000Y-84312560D01*
X192932000Y-84337424D01*
X192807000Y-84312560D01*
X192257000Y-84312560D01*
X192132000Y-84337424D01*
X192007000Y-84312560D01*
X191457000Y-84312560D01*
X191332000Y-84337424D01*
X191207000Y-84312560D01*
X190875970Y-84312560D01*
X190873561Y-84300451D01*
X190966801Y-84281904D01*
X191218193Y-84113929D01*
X191260595Y-84050470D01*
X191492470Y-83818595D01*
X191555929Y-83776193D01*
X191669696Y-83605929D01*
X191723904Y-83524802D01*
X191736382Y-83462071D01*
X191768000Y-83303116D01*
X191768000Y-83303112D01*
X191782888Y-83228264D01*
X191768000Y-83153416D01*
X191768000Y-79794788D01*
X192092017Y-79929000D01*
X192092017Y-79929000D01*
G37*
X192092017Y-79929000D02*
X192463983Y-79929000D01*
X192604264Y-79870894D01*
X192723860Y-79950805D01*
X192743463Y-79963903D01*
X193039999Y-80022888D01*
X193040000Y-80022888D01*
X193305885Y-79970000D01*
X196834560Y-79970000D01*
X196834560Y-80050000D01*
X195870846Y-80050000D01*
X195795999Y-80035112D01*
X195721152Y-80050000D01*
X195721148Y-80050000D01*
X195499463Y-80094096D01*
X195248071Y-80262071D01*
X195205669Y-80325530D01*
X195095528Y-80435671D01*
X195032072Y-80478071D01*
X194989672Y-80541527D01*
X194989671Y-80541528D01*
X194889797Y-80691000D01*
X194864097Y-80729463D01*
X194820095Y-80950678D01*
X194805112Y-81026000D01*
X194820001Y-81100851D01*
X194820000Y-82221153D01*
X194805112Y-82296000D01*
X194820000Y-82370847D01*
X194820000Y-82370851D01*
X194864096Y-82592536D01*
X195032071Y-82843929D01*
X195074000Y-82871945D01*
X195074001Y-83999149D01*
X195059112Y-84074000D01*
X195106565Y-84312560D01*
X194657000Y-84312560D01*
X194532000Y-84337424D01*
X194407000Y-84312560D01*
X193857000Y-84312560D01*
X193732000Y-84337424D01*
X193607000Y-84312560D01*
X193057000Y-84312560D01*
X192932000Y-84337424D01*
X192807000Y-84312560D01*
X192257000Y-84312560D01*
X192132000Y-84337424D01*
X192007000Y-84312560D01*
X191457000Y-84312560D01*
X191332000Y-84337424D01*
X191207000Y-84312560D01*
X190875970Y-84312560D01*
X190873561Y-84300451D01*
X190966801Y-84281904D01*
X191218193Y-84113929D01*
X191260595Y-84050470D01*
X191492470Y-83818595D01*
X191555929Y-83776193D01*
X191669696Y-83605929D01*
X191723904Y-83524802D01*
X191736382Y-83462071D01*
X191768000Y-83303116D01*
X191768000Y-83303112D01*
X191782888Y-83228264D01*
X191768000Y-83153416D01*
X191768000Y-79794788D01*
X192092017Y-79929000D01*
G36*
X198379000Y-84137000D02*
X198359000Y-84137000D01*
X198359000Y-84157000D01*
X198105000Y-84157000D01*
X198105000Y-84137000D01*
X198085000Y-84137000D01*
X198085000Y-84132440D01*
X198379000Y-84132440D01*
X198379000Y-84137000D01*
X198379000Y-84137000D01*
G37*
X198379000Y-84137000D02*
X198359000Y-84137000D01*
X198359000Y-84157000D01*
X198105000Y-84157000D01*
X198105000Y-84137000D01*
X198085000Y-84137000D01*
X198085000Y-84132440D01*
X198379000Y-84132440D01*
X198379000Y-84137000D01*
G36*
X185434560Y-80285000D02*
X185455217Y-80388852D01*
X185447000Y-80408690D01*
X185447000Y-80524250D01*
X185540888Y-80618138D01*
X185584226Y-80682998D01*
X185542445Y-80682998D01*
X184854447Y-79995000D01*
X185434560Y-79995000D01*
X185434560Y-80285000D01*
X185434560Y-80285000D01*
G37*
X185434560Y-80285000D02*
X185455217Y-80388852D01*
X185447000Y-80408690D01*
X185447000Y-80524250D01*
X185540888Y-80618138D01*
X185584226Y-80682998D01*
X185542445Y-80682998D01*
X184854447Y-79995000D01*
X185434560Y-79995000D01*
X185434560Y-80285000D01*
G36*
X199900000Y-75752802D02*
X199900001Y-79603200D01*
X199822331Y-79525530D01*
X199779929Y-79462071D01*
X199629440Y-79361517D01*
X199629440Y-78935000D01*
X199604576Y-78810000D01*
X199629440Y-78685000D01*
X199629440Y-78135000D01*
X199604576Y-78010000D01*
X199629440Y-77885000D01*
X199629440Y-77335000D01*
X199604576Y-77210000D01*
X199629440Y-77085000D01*
X199629440Y-76535000D01*
X199608783Y-76431148D01*
X199617000Y-76411310D01*
X199617000Y-76295750D01*
X199523112Y-76201862D01*
X199439809Y-76077191D01*
X199229765Y-75936843D01*
X198982000Y-75887560D01*
X198085000Y-75887560D01*
X198085000Y-75883000D01*
X198105000Y-75883000D01*
X198105000Y-75863000D01*
X198359000Y-75863000D01*
X198359000Y-75883000D01*
X199458250Y-75883000D01*
X199617000Y-75724250D01*
X199617000Y-75608690D01*
X199545469Y-75436000D01*
X199583199Y-75436000D01*
X199900000Y-75752802D01*
X199900000Y-75752802D01*
G37*
X199900000Y-75752802D02*
X199900001Y-79603200D01*
X199822331Y-79525530D01*
X199779929Y-79462071D01*
X199629440Y-79361517D01*
X199629440Y-78935000D01*
X199604576Y-78810000D01*
X199629440Y-78685000D01*
X199629440Y-78135000D01*
X199604576Y-78010000D01*
X199629440Y-77885000D01*
X199629440Y-77335000D01*
X199604576Y-77210000D01*
X199629440Y-77085000D01*
X199629440Y-76535000D01*
X199608783Y-76431148D01*
X199617000Y-76411310D01*
X199617000Y-76295750D01*
X199523112Y-76201862D01*
X199439809Y-76077191D01*
X199229765Y-75936843D01*
X198982000Y-75887560D01*
X198085000Y-75887560D01*
X198085000Y-75883000D01*
X198105000Y-75883000D01*
X198105000Y-75863000D01*
X198359000Y-75863000D01*
X198359000Y-75883000D01*
X199458250Y-75883000D01*
X199617000Y-75724250D01*
X199617000Y-75608690D01*
X199545469Y-75436000D01*
X199583199Y-75436000D01*
X199900000Y-75752802D01*
G36*
X167054684Y-76223000D02*
X167054688Y-76223000D01*
X167131999Y-76238378D01*
X167209310Y-76223000D01*
X167458796Y-76223000D01*
X167478546Y-76322292D01*
X167652047Y-76581953D01*
X167717592Y-76625749D01*
X169062251Y-77970408D01*
X169106047Y-78035953D01*
X169365708Y-78209454D01*
X169594684Y-78255000D01*
X169594688Y-78255000D01*
X169672000Y-78270378D01*
X169749312Y-78255000D01*
X172648843Y-78255000D01*
X172872253Y-78478410D01*
X172916047Y-78543953D01*
X172981589Y-78587747D01*
X172981591Y-78587749D01*
X173041806Y-78627983D01*
X173112743Y-78675382D01*
X173044739Y-78665781D01*
X173034389Y-78668451D01*
X173030354Y-78667996D01*
X173020000Y-78668869D01*
X173009646Y-78667996D01*
X173005610Y-78668451D01*
X172995260Y-78665781D01*
X172904177Y-78678640D01*
X172812533Y-78686371D01*
X172803047Y-78691272D01*
X172799024Y-78691725D01*
X172789108Y-78694885D01*
X172778812Y-78696339D01*
X172774986Y-78697678D01*
X172764303Y-78697378D01*
X172678382Y-78730176D01*
X172590752Y-78758106D01*
X172582585Y-78765003D01*
X172578751Y-78766344D01*
X172569796Y-78771627D01*
X172560081Y-78775335D01*
X172556651Y-78777490D01*
X172546171Y-78779575D01*
X172469693Y-78830676D01*
X172390473Y-78877407D01*
X172384047Y-78885945D01*
X172380615Y-78888102D01*
X172373062Y-78895243D01*
X172364416Y-78901020D01*
X172361549Y-78903887D01*
X172351798Y-78908250D01*
X172288608Y-78975087D01*
X172221771Y-79038277D01*
X172217408Y-79048028D01*
X172214541Y-79050895D01*
X172208764Y-79059541D01*
X172201623Y-79067094D01*
X172199466Y-79070526D01*
X172190928Y-79076952D01*
X172144197Y-79156172D01*
X172093096Y-79232650D01*
X172091012Y-79243130D01*
X172088856Y-79246560D01*
X172085148Y-79256275D01*
X172079865Y-79265230D01*
X172078524Y-79269064D01*
X172071627Y-79277231D01*
X172063095Y-79304000D01*
X163741647Y-79304000D01*
X163107261Y-78669615D01*
X163117639Y-78617440D01*
X163260000Y-78617440D01*
X163363852Y-78596783D01*
X163383690Y-78605000D01*
X163451250Y-78605000D01*
X163483208Y-78573042D01*
X163507765Y-78568157D01*
X163717809Y-78427809D01*
X163772262Y-78346315D01*
X163810000Y-78402793D01*
X163810000Y-78446250D01*
X163968750Y-78605000D01*
X164036310Y-78605000D01*
X164044423Y-78601640D01*
X164066977Y-78616710D01*
X164310000Y-78665050D01*
X166310000Y-78665050D01*
X166553023Y-78616710D01*
X166759048Y-78479048D01*
X166896710Y-78273023D01*
X166945050Y-78030000D01*
X166945050Y-76570000D01*
X166920186Y-76445000D01*
X166945050Y-76320000D01*
X166945050Y-76201193D01*
X167054684Y-76223000D01*
X167054684Y-76223000D01*
G37*
X167054684Y-76223000D02*
X167054688Y-76223000D01*
X167131999Y-76238378D01*
X167209310Y-76223000D01*
X167458796Y-76223000D01*
X167478546Y-76322292D01*
X167652047Y-76581953D01*
X167717592Y-76625749D01*
X169062251Y-77970408D01*
X169106047Y-78035953D01*
X169365708Y-78209454D01*
X169594684Y-78255000D01*
X169594688Y-78255000D01*
X169672000Y-78270378D01*
X169749312Y-78255000D01*
X172648843Y-78255000D01*
X172872253Y-78478410D01*
X172916047Y-78543953D01*
X172981589Y-78587747D01*
X172981591Y-78587749D01*
X173041806Y-78627983D01*
X173112743Y-78675382D01*
X173044739Y-78665781D01*
X173034389Y-78668451D01*
X173030354Y-78667996D01*
X173020000Y-78668869D01*
X173009646Y-78667996D01*
X173005610Y-78668451D01*
X172995260Y-78665781D01*
X172904177Y-78678640D01*
X172812533Y-78686371D01*
X172803047Y-78691272D01*
X172799024Y-78691725D01*
X172789108Y-78694885D01*
X172778812Y-78696339D01*
X172774986Y-78697678D01*
X172764303Y-78697378D01*
X172678382Y-78730176D01*
X172590752Y-78758106D01*
X172582585Y-78765003D01*
X172578751Y-78766344D01*
X172569796Y-78771627D01*
X172560081Y-78775335D01*
X172556651Y-78777490D01*
X172546171Y-78779575D01*
X172469693Y-78830676D01*
X172390473Y-78877407D01*
X172384047Y-78885945D01*
X172380615Y-78888102D01*
X172373062Y-78895243D01*
X172364416Y-78901020D01*
X172361549Y-78903887D01*
X172351798Y-78908250D01*
X172288608Y-78975087D01*
X172221771Y-79038277D01*
X172217408Y-79048028D01*
X172214541Y-79050895D01*
X172208764Y-79059541D01*
X172201623Y-79067094D01*
X172199466Y-79070526D01*
X172190928Y-79076952D01*
X172144197Y-79156172D01*
X172093096Y-79232650D01*
X172091012Y-79243130D01*
X172088856Y-79246560D01*
X172085148Y-79256275D01*
X172079865Y-79265230D01*
X172078524Y-79269064D01*
X172071627Y-79277231D01*
X172063095Y-79304000D01*
X163741647Y-79304000D01*
X163107261Y-78669615D01*
X163117639Y-78617440D01*
X163260000Y-78617440D01*
X163363852Y-78596783D01*
X163383690Y-78605000D01*
X163451250Y-78605000D01*
X163483208Y-78573042D01*
X163507765Y-78568157D01*
X163717809Y-78427809D01*
X163772262Y-78346315D01*
X163810000Y-78402793D01*
X163810000Y-78446250D01*
X163968750Y-78605000D01*
X164036310Y-78605000D01*
X164044423Y-78601640D01*
X164066977Y-78616710D01*
X164310000Y-78665050D01*
X166310000Y-78665050D01*
X166553023Y-78616710D01*
X166759048Y-78479048D01*
X166896710Y-78273023D01*
X166945050Y-78030000D01*
X166945050Y-76570000D01*
X166920186Y-76445000D01*
X166945050Y-76320000D01*
X166945050Y-76201193D01*
X167054684Y-76223000D01*
G36*
X178589553Y-79304000D02*
X173976902Y-79304000D01*
X173968367Y-79277221D01*
X173961473Y-79269057D01*
X173960134Y-79265230D01*
X173954851Y-79256275D01*
X173951143Y-79246560D01*
X173948988Y-79243130D01*
X173946903Y-79232650D01*
X173895802Y-79156172D01*
X173849071Y-79076952D01*
X173840533Y-79070526D01*
X173838376Y-79067094D01*
X173831235Y-79059541D01*
X173825458Y-79050895D01*
X173822591Y-79048028D01*
X173818228Y-79038277D01*
X173751391Y-78975087D01*
X173688201Y-78908250D01*
X173678450Y-78903887D01*
X173675583Y-78901020D01*
X173666937Y-78895243D01*
X173659384Y-78888102D01*
X173655952Y-78885945D01*
X173649526Y-78877407D01*
X173570306Y-78830676D01*
X173493828Y-78779575D01*
X173484905Y-78777800D01*
X173559310Y-78763000D01*
X179130552Y-78763000D01*
X178589553Y-79304000D01*
X178589553Y-79304000D01*
G37*
X178589553Y-79304000D02*
X173976902Y-79304000D01*
X173968367Y-79277221D01*
X173961473Y-79269057D01*
X173960134Y-79265230D01*
X173954851Y-79256275D01*
X173951143Y-79246560D01*
X173948988Y-79243130D01*
X173946903Y-79232650D01*
X173895802Y-79156172D01*
X173849071Y-79076952D01*
X173840533Y-79070526D01*
X173838376Y-79067094D01*
X173831235Y-79059541D01*
X173825458Y-79050895D01*
X173822591Y-79048028D01*
X173818228Y-79038277D01*
X173751391Y-78975087D01*
X173688201Y-78908250D01*
X173678450Y-78903887D01*
X173675583Y-78901020D01*
X173666937Y-78895243D01*
X173659384Y-78888102D01*
X173655952Y-78885945D01*
X173649526Y-78877407D01*
X173570306Y-78830676D01*
X173493828Y-78779575D01*
X173484905Y-78777800D01*
X173559310Y-78763000D01*
X179130552Y-78763000D01*
X178589553Y-79304000D01*
G36*
X143771591Y-71780251D02*
X143771589Y-71780253D01*
X143706047Y-71824047D01*
X143662253Y-71889590D01*
X143263590Y-72288253D01*
X143198048Y-72332047D01*
X143154254Y-72397589D01*
X143154251Y-72397592D01*
X143024546Y-72591709D01*
X142963622Y-72898000D01*
X142979001Y-72975317D01*
X142979000Y-75874842D01*
X142930843Y-75923000D01*
X142668554Y-75923000D01*
X142610086Y-75781847D01*
X142548956Y-75720717D01*
X142583698Y-75706327D01*
X142762327Y-75527699D01*
X142859000Y-75294310D01*
X142859000Y-74453750D01*
X142700250Y-74295000D01*
X141351000Y-74295000D01*
X141351000Y-74315000D01*
X141097000Y-74315000D01*
X141097000Y-74295000D01*
X139747750Y-74295000D01*
X139589000Y-74453750D01*
X139589000Y-75294310D01*
X139685673Y-75527699D01*
X139864302Y-75706327D01*
X139899044Y-75720717D01*
X139837914Y-75781847D01*
X139779446Y-75923000D01*
X136681791Y-75923000D01*
X136660157Y-75814235D01*
X136519809Y-75604191D01*
X136309765Y-75463843D01*
X136132342Y-75428552D01*
X136214765Y-75412157D01*
X136424809Y-75271809D01*
X136565157Y-75061765D01*
X136614440Y-74814000D01*
X136614440Y-73041690D01*
X139589000Y-73041690D01*
X139589000Y-73882250D01*
X139747750Y-74041000D01*
X141097000Y-74041000D01*
X141097000Y-72691750D01*
X141351000Y-72691750D01*
X141351000Y-74041000D01*
X142700250Y-74041000D01*
X142859000Y-73882250D01*
X142859000Y-73041690D01*
X142762327Y-72808301D01*
X142583698Y-72629673D01*
X142350309Y-72533000D01*
X141509750Y-72533000D01*
X141351000Y-72691750D01*
X141097000Y-72691750D01*
X140938250Y-72533000D01*
X140097691Y-72533000D01*
X139864302Y-72629673D01*
X139685673Y-72808301D01*
X139589000Y-73041690D01*
X136614440Y-73041690D01*
X136614440Y-73014000D01*
X136565157Y-72766235D01*
X136424809Y-72556191D01*
X136214765Y-72415843D01*
X135967000Y-72366560D01*
X134417000Y-72366560D01*
X134169235Y-72415843D01*
X134017953Y-72516927D01*
X133976698Y-72475673D01*
X133743309Y-72379000D01*
X133127750Y-72379000D01*
X132969000Y-72537750D01*
X132969000Y-73787000D01*
X132989000Y-73787000D01*
X132989000Y-74041000D01*
X132969000Y-74041000D01*
X132969000Y-75290250D01*
X133127750Y-75449000D01*
X133200750Y-75449000D01*
X133064000Y-75585750D01*
X133064000Y-76835000D01*
X133084000Y-76835000D01*
X133084000Y-77089000D01*
X133064000Y-77089000D01*
X133064000Y-77109000D01*
X132810000Y-77109000D01*
X132810000Y-77089000D01*
X131685750Y-77089000D01*
X131527000Y-77247750D01*
X131527000Y-77988310D01*
X131623673Y-78221699D01*
X131802302Y-78400327D01*
X131960081Y-78465681D01*
X131906206Y-78476398D01*
X131888842Y-78488000D01*
X131626290Y-78488000D01*
X131593635Y-78455345D01*
X131249983Y-78313000D01*
X130878017Y-78313000D01*
X130808000Y-78342002D01*
X130808000Y-74199750D01*
X131432000Y-74199750D01*
X131432000Y-74940310D01*
X131528673Y-75173699D01*
X131707302Y-75352327D01*
X131940691Y-75449000D01*
X131982578Y-75449000D01*
X131802302Y-75523673D01*
X131623673Y-75702301D01*
X131527000Y-75935690D01*
X131527000Y-76676250D01*
X131685750Y-76835000D01*
X132810000Y-76835000D01*
X132810000Y-75585750D01*
X132651250Y-75427000D01*
X132578250Y-75427000D01*
X132715000Y-75290250D01*
X132715000Y-74041000D01*
X131590750Y-74041000D01*
X131432000Y-74199750D01*
X130808000Y-74199750D01*
X130808000Y-72887690D01*
X131432000Y-72887690D01*
X131432000Y-73628250D01*
X131590750Y-73787000D01*
X132715000Y-73787000D01*
X132715000Y-72537750D01*
X132556250Y-72379000D01*
X131940691Y-72379000D01*
X131707302Y-72475673D01*
X131528673Y-72654301D01*
X131432000Y-72887690D01*
X130808000Y-72887690D01*
X130808000Y-72718846D01*
X130822888Y-72643999D01*
X130808000Y-72569152D01*
X130808000Y-72569148D01*
X130763904Y-72347463D01*
X130595929Y-72096071D01*
X130532470Y-72053669D01*
X130384331Y-71905530D01*
X130341929Y-71842071D01*
X130211618Y-71755000D01*
X143809382Y-71755000D01*
X143771591Y-71780251D01*
X143771591Y-71780251D01*
G37*
X143771591Y-71780251D02*
X143771589Y-71780253D01*
X143706047Y-71824047D01*
X143662253Y-71889590D01*
X143263590Y-72288253D01*
X143198048Y-72332047D01*
X143154254Y-72397589D01*
X143154251Y-72397592D01*
X143024546Y-72591709D01*
X142963622Y-72898000D01*
X142979001Y-72975317D01*
X142979000Y-75874842D01*
X142930843Y-75923000D01*
X142668554Y-75923000D01*
X142610086Y-75781847D01*
X142548956Y-75720717D01*
X142583698Y-75706327D01*
X142762327Y-75527699D01*
X142859000Y-75294310D01*
X142859000Y-74453750D01*
X142700250Y-74295000D01*
X141351000Y-74295000D01*
X141351000Y-74315000D01*
X141097000Y-74315000D01*
X141097000Y-74295000D01*
X139747750Y-74295000D01*
X139589000Y-74453750D01*
X139589000Y-75294310D01*
X139685673Y-75527699D01*
X139864302Y-75706327D01*
X139899044Y-75720717D01*
X139837914Y-75781847D01*
X139779446Y-75923000D01*
X136681791Y-75923000D01*
X136660157Y-75814235D01*
X136519809Y-75604191D01*
X136309765Y-75463843D01*
X136132342Y-75428552D01*
X136214765Y-75412157D01*
X136424809Y-75271809D01*
X136565157Y-75061765D01*
X136614440Y-74814000D01*
X136614440Y-73041690D01*
X139589000Y-73041690D01*
X139589000Y-73882250D01*
X139747750Y-74041000D01*
X141097000Y-74041000D01*
X141097000Y-72691750D01*
X141351000Y-72691750D01*
X141351000Y-74041000D01*
X142700250Y-74041000D01*
X142859000Y-73882250D01*
X142859000Y-73041690D01*
X142762327Y-72808301D01*
X142583698Y-72629673D01*
X142350309Y-72533000D01*
X141509750Y-72533000D01*
X141351000Y-72691750D01*
X141097000Y-72691750D01*
X140938250Y-72533000D01*
X140097691Y-72533000D01*
X139864302Y-72629673D01*
X139685673Y-72808301D01*
X139589000Y-73041690D01*
X136614440Y-73041690D01*
X136614440Y-73014000D01*
X136565157Y-72766235D01*
X136424809Y-72556191D01*
X136214765Y-72415843D01*
X135967000Y-72366560D01*
X134417000Y-72366560D01*
X134169235Y-72415843D01*
X134017953Y-72516927D01*
X133976698Y-72475673D01*
X133743309Y-72379000D01*
X133127750Y-72379000D01*
X132969000Y-72537750D01*
X132969000Y-73787000D01*
X132989000Y-73787000D01*
X132989000Y-74041000D01*
X132969000Y-74041000D01*
X132969000Y-75290250D01*
X133127750Y-75449000D01*
X133200750Y-75449000D01*
X133064000Y-75585750D01*
X133064000Y-76835000D01*
X133084000Y-76835000D01*
X133084000Y-77089000D01*
X133064000Y-77089000D01*
X133064000Y-77109000D01*
X132810000Y-77109000D01*
X132810000Y-77089000D01*
X131685750Y-77089000D01*
X131527000Y-77247750D01*
X131527000Y-77988310D01*
X131623673Y-78221699D01*
X131802302Y-78400327D01*
X131960081Y-78465681D01*
X131906206Y-78476398D01*
X131888842Y-78488000D01*
X131626290Y-78488000D01*
X131593635Y-78455345D01*
X131249983Y-78313000D01*
X130878017Y-78313000D01*
X130808000Y-78342002D01*
X130808000Y-74199750D01*
X131432000Y-74199750D01*
X131432000Y-74940310D01*
X131528673Y-75173699D01*
X131707302Y-75352327D01*
X131940691Y-75449000D01*
X131982578Y-75449000D01*
X131802302Y-75523673D01*
X131623673Y-75702301D01*
X131527000Y-75935690D01*
X131527000Y-76676250D01*
X131685750Y-76835000D01*
X132810000Y-76835000D01*
X132810000Y-75585750D01*
X132651250Y-75427000D01*
X132578250Y-75427000D01*
X132715000Y-75290250D01*
X132715000Y-74041000D01*
X131590750Y-74041000D01*
X131432000Y-74199750D01*
X130808000Y-74199750D01*
X130808000Y-72887690D01*
X131432000Y-72887690D01*
X131432000Y-73628250D01*
X131590750Y-73787000D01*
X132715000Y-73787000D01*
X132715000Y-72537750D01*
X132556250Y-72379000D01*
X131940691Y-72379000D01*
X131707302Y-72475673D01*
X131528673Y-72654301D01*
X131432000Y-72887690D01*
X130808000Y-72887690D01*
X130808000Y-72718846D01*
X130822888Y-72643999D01*
X130808000Y-72569152D01*
X130808000Y-72569148D01*
X130763904Y-72347463D01*
X130595929Y-72096071D01*
X130532470Y-72053669D01*
X130384331Y-71905530D01*
X130341929Y-71842071D01*
X130211618Y-71755000D01*
X143809382Y-71755000D01*
X143771591Y-71780251D01*
G36*
X191123862Y-75601112D02*
X191217750Y-75695000D01*
X191333310Y-75695000D01*
X191353148Y-75686783D01*
X191457000Y-75707440D01*
X191967709Y-75707440D01*
X191984072Y-75731929D01*
X192047528Y-75774329D01*
X192195669Y-75922470D01*
X192238071Y-75985929D01*
X192296545Y-76025000D01*
X191435157Y-76025000D01*
X191059002Y-75648845D01*
X191059002Y-75557774D01*
X191123862Y-75601112D01*
X191123862Y-75601112D01*
G37*
X191123862Y-75601112D02*
X191217750Y-75695000D01*
X191333310Y-75695000D01*
X191353148Y-75686783D01*
X191457000Y-75707440D01*
X191967709Y-75707440D01*
X191984072Y-75731929D01*
X192047528Y-75774329D01*
X192195669Y-75922470D01*
X192238071Y-75985929D01*
X192296545Y-76025000D01*
X191435157Y-76025000D01*
X191059002Y-75648845D01*
X191059002Y-75557774D01*
X191123862Y-75601112D01*
G36*
X123299671Y-71905527D02*
X122845530Y-72359669D01*
X122782071Y-72402071D01*
X122614096Y-72653464D01*
X122570000Y-72875149D01*
X122570000Y-72875153D01*
X122555112Y-72950000D01*
X122570000Y-73024847D01*
X122570000Y-73571506D01*
X122365983Y-73487000D01*
X121994017Y-73487000D01*
X121650365Y-73629345D01*
X121617710Y-73662000D01*
X121090784Y-73662000D01*
X121262691Y-73232232D01*
X122995414Y-71932689D01*
X123336187Y-71850877D01*
X123299671Y-71905527D01*
X123299671Y-71905527D01*
G37*
X123299671Y-71905527D02*
X122845530Y-72359669D01*
X122782071Y-72402071D01*
X122614096Y-72653464D01*
X122570000Y-72875149D01*
X122570000Y-72875153D01*
X122555112Y-72950000D01*
X122570000Y-73024847D01*
X122570000Y-73571506D01*
X122365983Y-73487000D01*
X121994017Y-73487000D01*
X121650365Y-73629345D01*
X121617710Y-73662000D01*
X121090784Y-73662000D01*
X121262691Y-73232232D01*
X122995414Y-71932689D01*
X123336187Y-71850877D01*
X123299671Y-71905527D01*
G04 #@! TD*
M02*
