G04 #@! TF.GenerationSoftware,KiCad,Pcbnew,(5.0.1-3-g963ef8bb5)*
G04 #@! TF.CreationDate,2019-04-07T15:35:03+01:00*
G04 #@! TF.ProjectId,invitation,696E7669746174696F6E2E6B69636164,rev?*
G04 #@! TF.SameCoordinates,Original*
G04 #@! TF.FileFunction,Paste,Bot*
G04 #@! TF.FilePolarity,Positive*
%FSLAX46Y46*%
G04 Gerber Fmt 4.6, Leading zero omitted, Abs format (unit mm)*
G04 Created by KiCad (PCBNEW (5.0.1-3-g963ef8bb5)) date Sunday, 07 April 2019 at 15:35:03*
%MOMM*%
%LPD*%
G01*
G04 APERTURE LIST*
%ADD10C,0.000100*%
%ADD11R,0.400000X1.750000*%
%ADD12R,1.425000X2.500000*%
%ADD13R,1.500000X0.550000*%
%ADD14R,0.550000X1.500000*%
%ADD15R,1.140000X2.030000*%
%ADD16R,1.200000X1.400000*%
%ADD17R,1.200000X1.200000*%
%ADD18R,0.700000X1.300000*%
%ADD19R,1.250000X1.000000*%
%ADD20R,1.000000X1.250000*%
%ADD21R,1.550000X1.800000*%
%ADD22C,0.100000*%
%ADD23C,0.975000*%
G04 APERTURE END LIST*
D10*
G04 #@! TO.C,P1*
G36*
X158510000Y-78030000D02*
X160510000Y-78030000D01*
X160510000Y-77310000D01*
X160310000Y-77310000D01*
X160310000Y-77500000D01*
X160310000Y-77508510D01*
X160309110Y-77525510D01*
X160307330Y-77542430D01*
X160304670Y-77559240D01*
X160301130Y-77575890D01*
X160296720Y-77592330D01*
X160291460Y-77608520D01*
X160285360Y-77624410D01*
X160278440Y-77639960D01*
X160270710Y-77655130D01*
X160262200Y-77669870D01*
X160252930Y-77684140D01*
X160242930Y-77697910D01*
X160232220Y-77711140D01*
X160220830Y-77723790D01*
X160208790Y-77735830D01*
X160196140Y-77747220D01*
X160182920Y-77757930D01*
X160169150Y-77767930D01*
X160154870Y-77777200D01*
X160140130Y-77785710D01*
X160124970Y-77793440D01*
X160109420Y-77800360D01*
X160093530Y-77806460D01*
X160077340Y-77811720D01*
X160060900Y-77816130D01*
X160044250Y-77819670D01*
X160027440Y-77822330D01*
X160010510Y-77824110D01*
X159993510Y-77825000D01*
X159985000Y-77825000D01*
X159976490Y-77825000D01*
X159959490Y-77824110D01*
X159942570Y-77822330D01*
X159925760Y-77819670D01*
X159909110Y-77816130D01*
X159892670Y-77811720D01*
X159876480Y-77806460D01*
X159860590Y-77800360D01*
X159845040Y-77793440D01*
X159829870Y-77785710D01*
X159815130Y-77777200D01*
X159800860Y-77767930D01*
X159787090Y-77757930D01*
X159773860Y-77747220D01*
X159761210Y-77735830D01*
X159749170Y-77723790D01*
X159737780Y-77711140D01*
X159727070Y-77697920D01*
X159717070Y-77684150D01*
X159707800Y-77669870D01*
X159699290Y-77655130D01*
X159691560Y-77639970D01*
X159684640Y-77624420D01*
X159678540Y-77608530D01*
X159673280Y-77592340D01*
X159668870Y-77575900D01*
X159665330Y-77559250D01*
X159662670Y-77542440D01*
X159660890Y-77525510D01*
X159660000Y-77508510D01*
X159660000Y-77500000D01*
X159660000Y-77310000D01*
X158510000Y-77310000D01*
X158510000Y-78030000D01*
G37*
X158510000Y-78030000D02*
X160510000Y-78030000D01*
X160510000Y-77310000D01*
X160310000Y-77310000D01*
X160310000Y-77500000D01*
X160310000Y-77508510D01*
X160309110Y-77525510D01*
X160307330Y-77542430D01*
X160304670Y-77559240D01*
X160301130Y-77575890D01*
X160296720Y-77592330D01*
X160291460Y-77608520D01*
X160285360Y-77624410D01*
X160278440Y-77639960D01*
X160270710Y-77655130D01*
X160262200Y-77669870D01*
X160252930Y-77684140D01*
X160242930Y-77697910D01*
X160232220Y-77711140D01*
X160220830Y-77723790D01*
X160208790Y-77735830D01*
X160196140Y-77747220D01*
X160182920Y-77757930D01*
X160169150Y-77767930D01*
X160154870Y-77777200D01*
X160140130Y-77785710D01*
X160124970Y-77793440D01*
X160109420Y-77800360D01*
X160093530Y-77806460D01*
X160077340Y-77811720D01*
X160060900Y-77816130D01*
X160044250Y-77819670D01*
X160027440Y-77822330D01*
X160010510Y-77824110D01*
X159993510Y-77825000D01*
X159985000Y-77825000D01*
X159976490Y-77825000D01*
X159959490Y-77824110D01*
X159942570Y-77822330D01*
X159925760Y-77819670D01*
X159909110Y-77816130D01*
X159892670Y-77811720D01*
X159876480Y-77806460D01*
X159860590Y-77800360D01*
X159845040Y-77793440D01*
X159829870Y-77785710D01*
X159815130Y-77777200D01*
X159800860Y-77767930D01*
X159787090Y-77757930D01*
X159773860Y-77747220D01*
X159761210Y-77735830D01*
X159749170Y-77723790D01*
X159737780Y-77711140D01*
X159727070Y-77697920D01*
X159717070Y-77684150D01*
X159707800Y-77669870D01*
X159699290Y-77655130D01*
X159691560Y-77639970D01*
X159684640Y-77624420D01*
X159678540Y-77608530D01*
X159673280Y-77592340D01*
X159668870Y-77575900D01*
X159665330Y-77559250D01*
X159662670Y-77542440D01*
X159660890Y-77525510D01*
X159660000Y-77508510D01*
X159660000Y-77500000D01*
X159660000Y-77310000D01*
X158510000Y-77310000D01*
X158510000Y-78030000D01*
G36*
X158510000Y-76570000D02*
X160510000Y-76570000D01*
X160510000Y-77310000D01*
X160310000Y-77310000D01*
X160310000Y-77100000D01*
X160310000Y-77091490D01*
X160309110Y-77074490D01*
X160307330Y-77057570D01*
X160304670Y-77040760D01*
X160301130Y-77024110D01*
X160296720Y-77007670D01*
X160291460Y-76991480D01*
X160285360Y-76975590D01*
X160278440Y-76960040D01*
X160270710Y-76944870D01*
X160262200Y-76930130D01*
X160252930Y-76915860D01*
X160242930Y-76902090D01*
X160232220Y-76888860D01*
X160220830Y-76876210D01*
X160208790Y-76864170D01*
X160196140Y-76852780D01*
X160182920Y-76842070D01*
X160169150Y-76832070D01*
X160154870Y-76822800D01*
X160140130Y-76814290D01*
X160124970Y-76806560D01*
X160109420Y-76799640D01*
X160093530Y-76793540D01*
X160077340Y-76788280D01*
X160060900Y-76783870D01*
X160044250Y-76780330D01*
X160027440Y-76777670D01*
X160010510Y-76775890D01*
X159993510Y-76775000D01*
X159985000Y-76775000D01*
X159976490Y-76775000D01*
X159959490Y-76775890D01*
X159942570Y-76777670D01*
X159925760Y-76780330D01*
X159909110Y-76783870D01*
X159892670Y-76788280D01*
X159876480Y-76793540D01*
X159860590Y-76799640D01*
X159845040Y-76806560D01*
X159829870Y-76814290D01*
X159815130Y-76822800D01*
X159800860Y-76832070D01*
X159787090Y-76842070D01*
X159773860Y-76852780D01*
X159761210Y-76864170D01*
X159749170Y-76876210D01*
X159737780Y-76888860D01*
X159727070Y-76902080D01*
X159717070Y-76915850D01*
X159707800Y-76930130D01*
X159699290Y-76944870D01*
X159691560Y-76960030D01*
X159684640Y-76975580D01*
X159678540Y-76991470D01*
X159673280Y-77007660D01*
X159668870Y-77024100D01*
X159665330Y-77040750D01*
X159662670Y-77057560D01*
X159660890Y-77074490D01*
X159660000Y-77091490D01*
X159660000Y-77100000D01*
X159660000Y-77310000D01*
X158510000Y-77310000D01*
X158510000Y-76570000D01*
G37*
X158510000Y-76570000D02*
X160510000Y-76570000D01*
X160510000Y-77310000D01*
X160310000Y-77310000D01*
X160310000Y-77100000D01*
X160310000Y-77091490D01*
X160309110Y-77074490D01*
X160307330Y-77057570D01*
X160304670Y-77040760D01*
X160301130Y-77024110D01*
X160296720Y-77007670D01*
X160291460Y-76991480D01*
X160285360Y-76975590D01*
X160278440Y-76960040D01*
X160270710Y-76944870D01*
X160262200Y-76930130D01*
X160252930Y-76915860D01*
X160242930Y-76902090D01*
X160232220Y-76888860D01*
X160220830Y-76876210D01*
X160208790Y-76864170D01*
X160196140Y-76852780D01*
X160182920Y-76842070D01*
X160169150Y-76832070D01*
X160154870Y-76822800D01*
X160140130Y-76814290D01*
X160124970Y-76806560D01*
X160109420Y-76799640D01*
X160093530Y-76793540D01*
X160077340Y-76788280D01*
X160060900Y-76783870D01*
X160044250Y-76780330D01*
X160027440Y-76777670D01*
X160010510Y-76775890D01*
X159993510Y-76775000D01*
X159985000Y-76775000D01*
X159976490Y-76775000D01*
X159959490Y-76775890D01*
X159942570Y-76777670D01*
X159925760Y-76780330D01*
X159909110Y-76783870D01*
X159892670Y-76788280D01*
X159876480Y-76793540D01*
X159860590Y-76799640D01*
X159845040Y-76806560D01*
X159829870Y-76814290D01*
X159815130Y-76822800D01*
X159800860Y-76832070D01*
X159787090Y-76842070D01*
X159773860Y-76852780D01*
X159761210Y-76864170D01*
X159749170Y-76876210D01*
X159737780Y-76888860D01*
X159727070Y-76902080D01*
X159717070Y-76915850D01*
X159707800Y-76930130D01*
X159699290Y-76944870D01*
X159691560Y-76960030D01*
X159684640Y-76975580D01*
X159678540Y-76991470D01*
X159673280Y-77007660D01*
X159668870Y-77024100D01*
X159665330Y-77040750D01*
X159662670Y-77057560D01*
X159660890Y-77074490D01*
X159660000Y-77091490D01*
X159660000Y-77100000D01*
X159660000Y-77310000D01*
X158510000Y-77310000D01*
X158510000Y-76570000D01*
G36*
X166310000Y-76570000D02*
X164310000Y-76570000D01*
X164310000Y-77290000D01*
X164510000Y-77290000D01*
X164510000Y-77100000D01*
X164510000Y-77091490D01*
X164510890Y-77074490D01*
X164512670Y-77057570D01*
X164515330Y-77040760D01*
X164518870Y-77024110D01*
X164523280Y-77007670D01*
X164528540Y-76991480D01*
X164534640Y-76975590D01*
X164541560Y-76960040D01*
X164549290Y-76944870D01*
X164557800Y-76930130D01*
X164567070Y-76915860D01*
X164577070Y-76902090D01*
X164587780Y-76888860D01*
X164599170Y-76876210D01*
X164611210Y-76864170D01*
X164623860Y-76852780D01*
X164637080Y-76842070D01*
X164650850Y-76832070D01*
X164665130Y-76822800D01*
X164679870Y-76814290D01*
X164695030Y-76806560D01*
X164710580Y-76799640D01*
X164726470Y-76793540D01*
X164742660Y-76788280D01*
X164759100Y-76783870D01*
X164775750Y-76780330D01*
X164792560Y-76777670D01*
X164809490Y-76775890D01*
X164826490Y-76775000D01*
X164835000Y-76775000D01*
X164843510Y-76775000D01*
X164860510Y-76775890D01*
X164877430Y-76777670D01*
X164894240Y-76780330D01*
X164910890Y-76783870D01*
X164927330Y-76788280D01*
X164943520Y-76793540D01*
X164959410Y-76799640D01*
X164974960Y-76806560D01*
X164990130Y-76814290D01*
X165004870Y-76822800D01*
X165019140Y-76832070D01*
X165032910Y-76842070D01*
X165046140Y-76852780D01*
X165058790Y-76864170D01*
X165070830Y-76876210D01*
X165082220Y-76888860D01*
X165092930Y-76902080D01*
X165102930Y-76915850D01*
X165112200Y-76930130D01*
X165120710Y-76944870D01*
X165128440Y-76960030D01*
X165135360Y-76975580D01*
X165141460Y-76991470D01*
X165146720Y-77007660D01*
X165151130Y-77024100D01*
X165154670Y-77040750D01*
X165157330Y-77057560D01*
X165159110Y-77074490D01*
X165160000Y-77091490D01*
X165160000Y-77100000D01*
X165160000Y-77290000D01*
X166310000Y-77290000D01*
X166310000Y-76570000D01*
G37*
X166310000Y-76570000D02*
X164310000Y-76570000D01*
X164310000Y-77290000D01*
X164510000Y-77290000D01*
X164510000Y-77100000D01*
X164510000Y-77091490D01*
X164510890Y-77074490D01*
X164512670Y-77057570D01*
X164515330Y-77040760D01*
X164518870Y-77024110D01*
X164523280Y-77007670D01*
X164528540Y-76991480D01*
X164534640Y-76975590D01*
X164541560Y-76960040D01*
X164549290Y-76944870D01*
X164557800Y-76930130D01*
X164567070Y-76915860D01*
X164577070Y-76902090D01*
X164587780Y-76888860D01*
X164599170Y-76876210D01*
X164611210Y-76864170D01*
X164623860Y-76852780D01*
X164637080Y-76842070D01*
X164650850Y-76832070D01*
X164665130Y-76822800D01*
X164679870Y-76814290D01*
X164695030Y-76806560D01*
X164710580Y-76799640D01*
X164726470Y-76793540D01*
X164742660Y-76788280D01*
X164759100Y-76783870D01*
X164775750Y-76780330D01*
X164792560Y-76777670D01*
X164809490Y-76775890D01*
X164826490Y-76775000D01*
X164835000Y-76775000D01*
X164843510Y-76775000D01*
X164860510Y-76775890D01*
X164877430Y-76777670D01*
X164894240Y-76780330D01*
X164910890Y-76783870D01*
X164927330Y-76788280D01*
X164943520Y-76793540D01*
X164959410Y-76799640D01*
X164974960Y-76806560D01*
X164990130Y-76814290D01*
X165004870Y-76822800D01*
X165019140Y-76832070D01*
X165032910Y-76842070D01*
X165046140Y-76852780D01*
X165058790Y-76864170D01*
X165070830Y-76876210D01*
X165082220Y-76888860D01*
X165092930Y-76902080D01*
X165102930Y-76915850D01*
X165112200Y-76930130D01*
X165120710Y-76944870D01*
X165128440Y-76960030D01*
X165135360Y-76975580D01*
X165141460Y-76991470D01*
X165146720Y-77007660D01*
X165151130Y-77024100D01*
X165154670Y-77040750D01*
X165157330Y-77057560D01*
X165159110Y-77074490D01*
X165160000Y-77091490D01*
X165160000Y-77100000D01*
X165160000Y-77290000D01*
X166310000Y-77290000D01*
X166310000Y-76570000D01*
G36*
X166310000Y-78030000D02*
X164310000Y-78030000D01*
X164310000Y-77290000D01*
X164510000Y-77290000D01*
X164510000Y-77500000D01*
X164510000Y-77508510D01*
X164510890Y-77525510D01*
X164512670Y-77542430D01*
X164515330Y-77559240D01*
X164518870Y-77575890D01*
X164523280Y-77592330D01*
X164528540Y-77608520D01*
X164534640Y-77624410D01*
X164541560Y-77639960D01*
X164549290Y-77655130D01*
X164557800Y-77669870D01*
X164567070Y-77684140D01*
X164577070Y-77697910D01*
X164587780Y-77711140D01*
X164599170Y-77723790D01*
X164611210Y-77735830D01*
X164623860Y-77747220D01*
X164637080Y-77757930D01*
X164650850Y-77767930D01*
X164665130Y-77777200D01*
X164679870Y-77785710D01*
X164695030Y-77793440D01*
X164710580Y-77800360D01*
X164726470Y-77806460D01*
X164742660Y-77811720D01*
X164759100Y-77816130D01*
X164775750Y-77819670D01*
X164792560Y-77822330D01*
X164809490Y-77824110D01*
X164826490Y-77825000D01*
X164835000Y-77825000D01*
X164843510Y-77825000D01*
X164860510Y-77824110D01*
X164877430Y-77822330D01*
X164894240Y-77819670D01*
X164910890Y-77816130D01*
X164927330Y-77811720D01*
X164943520Y-77806460D01*
X164959410Y-77800360D01*
X164974960Y-77793440D01*
X164990130Y-77785710D01*
X165004870Y-77777200D01*
X165019140Y-77767930D01*
X165032910Y-77757930D01*
X165046140Y-77747220D01*
X165058790Y-77735830D01*
X165070830Y-77723790D01*
X165082220Y-77711140D01*
X165092930Y-77697920D01*
X165102930Y-77684150D01*
X165112200Y-77669870D01*
X165120710Y-77655130D01*
X165128440Y-77639970D01*
X165135360Y-77624420D01*
X165141460Y-77608530D01*
X165146720Y-77592340D01*
X165151130Y-77575900D01*
X165154670Y-77559250D01*
X165157330Y-77542440D01*
X165159110Y-77525510D01*
X165160000Y-77508510D01*
X165160000Y-77500000D01*
X165160000Y-77290000D01*
X166310000Y-77290000D01*
X166310000Y-78030000D01*
G37*
X166310000Y-78030000D02*
X164310000Y-78030000D01*
X164310000Y-77290000D01*
X164510000Y-77290000D01*
X164510000Y-77500000D01*
X164510000Y-77508510D01*
X164510890Y-77525510D01*
X164512670Y-77542430D01*
X164515330Y-77559240D01*
X164518870Y-77575890D01*
X164523280Y-77592330D01*
X164528540Y-77608520D01*
X164534640Y-77624410D01*
X164541560Y-77639960D01*
X164549290Y-77655130D01*
X164557800Y-77669870D01*
X164567070Y-77684140D01*
X164577070Y-77697910D01*
X164587780Y-77711140D01*
X164599170Y-77723790D01*
X164611210Y-77735830D01*
X164623860Y-77747220D01*
X164637080Y-77757930D01*
X164650850Y-77767930D01*
X164665130Y-77777200D01*
X164679870Y-77785710D01*
X164695030Y-77793440D01*
X164710580Y-77800360D01*
X164726470Y-77806460D01*
X164742660Y-77811720D01*
X164759100Y-77816130D01*
X164775750Y-77819670D01*
X164792560Y-77822330D01*
X164809490Y-77824110D01*
X164826490Y-77825000D01*
X164835000Y-77825000D01*
X164843510Y-77825000D01*
X164860510Y-77824110D01*
X164877430Y-77822330D01*
X164894240Y-77819670D01*
X164910890Y-77816130D01*
X164927330Y-77811720D01*
X164943520Y-77806460D01*
X164959410Y-77800360D01*
X164974960Y-77793440D01*
X164990130Y-77785710D01*
X165004870Y-77777200D01*
X165019140Y-77767930D01*
X165032910Y-77757930D01*
X165046140Y-77747220D01*
X165058790Y-77735830D01*
X165070830Y-77723790D01*
X165082220Y-77711140D01*
X165092930Y-77697920D01*
X165102930Y-77684150D01*
X165112200Y-77669870D01*
X165120710Y-77655130D01*
X165128440Y-77639970D01*
X165135360Y-77624420D01*
X165141460Y-77608530D01*
X165146720Y-77592340D01*
X165151130Y-77575900D01*
X165154670Y-77559250D01*
X165157330Y-77542440D01*
X165159110Y-77525510D01*
X165160000Y-77508510D01*
X165160000Y-77500000D01*
X165160000Y-77290000D01*
X166310000Y-77290000D01*
X166310000Y-78030000D01*
G36*
X158510000Y-76320000D02*
X160335000Y-76320000D01*
X160335000Y-74270000D01*
X160035000Y-74270000D01*
X160035000Y-74520000D01*
X160035000Y-74529163D01*
X160034040Y-74547468D01*
X160032120Y-74565698D01*
X160029260Y-74583802D01*
X160025450Y-74601732D01*
X160020700Y-74619437D01*
X160015040Y-74636870D01*
X160008470Y-74653983D01*
X160001010Y-74670729D01*
X159992690Y-74687061D01*
X159983530Y-74702935D01*
X159973540Y-74718308D01*
X159962770Y-74733138D01*
X159951230Y-74747383D01*
X159938970Y-74761005D01*
X159926010Y-74773967D01*
X159912390Y-74786232D01*
X159898140Y-74797768D01*
X159883310Y-74808542D01*
X159867940Y-74818525D01*
X159852060Y-74827690D01*
X159835730Y-74836012D01*
X159818990Y-74843468D01*
X159801870Y-74850037D01*
X159784440Y-74855701D01*
X159766740Y-74860446D01*
X159748810Y-74864257D01*
X159730700Y-74867124D01*
X159712470Y-74869040D01*
X159694170Y-74870000D01*
X159685000Y-74870000D01*
X159675840Y-74870000D01*
X159657530Y-74869041D01*
X159639300Y-74867125D01*
X159621200Y-74864258D01*
X159603270Y-74860447D01*
X159585560Y-74855702D01*
X159568130Y-74850038D01*
X159551020Y-74843469D01*
X159534270Y-74836014D01*
X159517940Y-74827692D01*
X159502060Y-74818527D01*
X159486690Y-74808544D01*
X159471860Y-74797770D01*
X159457620Y-74786235D01*
X159443990Y-74773969D01*
X159431030Y-74761008D01*
X159418770Y-74747386D01*
X159407230Y-74733141D01*
X159396460Y-74718312D01*
X159386470Y-74702939D01*
X159377310Y-74687065D01*
X159368990Y-74670732D01*
X159361530Y-74653987D01*
X159354960Y-74636874D01*
X159349300Y-74619441D01*
X159344550Y-74601736D01*
X159340740Y-74583806D01*
X159337880Y-74565702D01*
X159335960Y-74547472D01*
X159335000Y-74529167D01*
X159335000Y-74520000D01*
X159335000Y-74270000D01*
X159035000Y-74270000D01*
X159035000Y-75620000D01*
X158510000Y-75620000D01*
X158510000Y-76320000D01*
G37*
X158510000Y-76320000D02*
X160335000Y-76320000D01*
X160335000Y-74270000D01*
X160035000Y-74270000D01*
X160035000Y-74520000D01*
X160035000Y-74529163D01*
X160034040Y-74547468D01*
X160032120Y-74565698D01*
X160029260Y-74583802D01*
X160025450Y-74601732D01*
X160020700Y-74619437D01*
X160015040Y-74636870D01*
X160008470Y-74653983D01*
X160001010Y-74670729D01*
X159992690Y-74687061D01*
X159983530Y-74702935D01*
X159973540Y-74718308D01*
X159962770Y-74733138D01*
X159951230Y-74747383D01*
X159938970Y-74761005D01*
X159926010Y-74773967D01*
X159912390Y-74786232D01*
X159898140Y-74797768D01*
X159883310Y-74808542D01*
X159867940Y-74818525D01*
X159852060Y-74827690D01*
X159835730Y-74836012D01*
X159818990Y-74843468D01*
X159801870Y-74850037D01*
X159784440Y-74855701D01*
X159766740Y-74860446D01*
X159748810Y-74864257D01*
X159730700Y-74867124D01*
X159712470Y-74869040D01*
X159694170Y-74870000D01*
X159685000Y-74870000D01*
X159675840Y-74870000D01*
X159657530Y-74869041D01*
X159639300Y-74867125D01*
X159621200Y-74864258D01*
X159603270Y-74860447D01*
X159585560Y-74855702D01*
X159568130Y-74850038D01*
X159551020Y-74843469D01*
X159534270Y-74836014D01*
X159517940Y-74827692D01*
X159502060Y-74818527D01*
X159486690Y-74808544D01*
X159471860Y-74797770D01*
X159457620Y-74786235D01*
X159443990Y-74773969D01*
X159431030Y-74761008D01*
X159418770Y-74747386D01*
X159407230Y-74733141D01*
X159396460Y-74718312D01*
X159386470Y-74702939D01*
X159377310Y-74687065D01*
X159368990Y-74670732D01*
X159361530Y-74653987D01*
X159354960Y-74636874D01*
X159349300Y-74619441D01*
X159344550Y-74601736D01*
X159340740Y-74583806D01*
X159337880Y-74565702D01*
X159335960Y-74547472D01*
X159335000Y-74529167D01*
X159335000Y-74520000D01*
X159335000Y-74270000D01*
X159035000Y-74270000D01*
X159035000Y-75620000D01*
X158510000Y-75620000D01*
X158510000Y-76320000D01*
G36*
X159035000Y-74270000D02*
X159335000Y-74270000D01*
X159335000Y-74020000D01*
X159335000Y-74010837D01*
X159335960Y-73992532D01*
X159337880Y-73974302D01*
X159340740Y-73956198D01*
X159344550Y-73938268D01*
X159349300Y-73920563D01*
X159354960Y-73903130D01*
X159361530Y-73886017D01*
X159368990Y-73869271D01*
X159377310Y-73852939D01*
X159386470Y-73837065D01*
X159396460Y-73821692D01*
X159407230Y-73806862D01*
X159418770Y-73792617D01*
X159431030Y-73778995D01*
X159443990Y-73766033D01*
X159457610Y-73753768D01*
X159471860Y-73742232D01*
X159486690Y-73731458D01*
X159502060Y-73721475D01*
X159517940Y-73712310D01*
X159534270Y-73703988D01*
X159551010Y-73696532D01*
X159568130Y-73689963D01*
X159585560Y-73684299D01*
X159603260Y-73679554D01*
X159621190Y-73675743D01*
X159639300Y-73672876D01*
X159657530Y-73670960D01*
X159675830Y-73670000D01*
X159685000Y-73670000D01*
X159694160Y-73670000D01*
X159712470Y-73670959D01*
X159730700Y-73672875D01*
X159748800Y-73675742D01*
X159766730Y-73679553D01*
X159784440Y-73684298D01*
X159801870Y-73689962D01*
X159818980Y-73696531D01*
X159835730Y-73703986D01*
X159852060Y-73712308D01*
X159867940Y-73721473D01*
X159883310Y-73731456D01*
X159898140Y-73742230D01*
X159912380Y-73753765D01*
X159926010Y-73766031D01*
X159938970Y-73778992D01*
X159951230Y-73792614D01*
X159962770Y-73806859D01*
X159973540Y-73821688D01*
X159983530Y-73837061D01*
X159992690Y-73852935D01*
X160001010Y-73869268D01*
X160008470Y-73886013D01*
X160015040Y-73903126D01*
X160020700Y-73920559D01*
X160025450Y-73938264D01*
X160029260Y-73956194D01*
X160032120Y-73974298D01*
X160034040Y-73992528D01*
X160035000Y-74010833D01*
X160035000Y-74020000D01*
X160035000Y-74270000D01*
X160335000Y-74270000D01*
X160335000Y-73510000D01*
X160335000Y-73498481D01*
X160333790Y-73475469D01*
X160331390Y-73452551D01*
X160327780Y-73429791D01*
X160322990Y-73407251D01*
X160317030Y-73384993D01*
X160309910Y-73363077D01*
X160301650Y-73341564D01*
X160292270Y-73320513D01*
X160281810Y-73299981D01*
X160270290Y-73280024D01*
X160257740Y-73260700D01*
X160244200Y-73242060D01*
X160229690Y-73224150D01*
X160214280Y-73207020D01*
X160197980Y-73190730D01*
X160180860Y-73175310D01*
X160162950Y-73160810D01*
X160144310Y-73147260D01*
X160124980Y-73134710D01*
X160105020Y-73123190D01*
X160084490Y-73112730D01*
X160063440Y-73103350D01*
X160041930Y-73095100D01*
X160020010Y-73087980D01*
X159997750Y-73082010D01*
X159975210Y-73077220D01*
X159952450Y-73073620D01*
X159929540Y-73071210D01*
X159906520Y-73070000D01*
X159895000Y-73070000D01*
X159890000Y-73070000D01*
X159500000Y-73070000D01*
X159495000Y-73070000D01*
X159482960Y-73070000D01*
X159458900Y-73071260D01*
X159434940Y-73073780D01*
X159411150Y-73077550D01*
X159387580Y-73082560D01*
X159364310Y-73088790D01*
X159341400Y-73096240D01*
X159318910Y-73104870D01*
X159296900Y-73114670D01*
X159275430Y-73125600D01*
X159254570Y-73137650D01*
X159234370Y-73150770D01*
X159214880Y-73164930D01*
X159196150Y-73180090D01*
X159178250Y-73196210D01*
X159161220Y-73213250D01*
X159145100Y-73231150D01*
X159129930Y-73249870D01*
X159115770Y-73269360D01*
X159102650Y-73289566D01*
X159090610Y-73310429D01*
X159079670Y-73331895D01*
X159069870Y-73353903D01*
X159061240Y-73376394D01*
X159053790Y-73399306D01*
X159047560Y-73422576D01*
X159042550Y-73446140D01*
X159038780Y-73469935D01*
X159036260Y-73493894D01*
X159035000Y-73517952D01*
X159035000Y-73530000D01*
X159035000Y-74270000D01*
G37*
X159035000Y-74270000D02*
X159335000Y-74270000D01*
X159335000Y-74020000D01*
X159335000Y-74010837D01*
X159335960Y-73992532D01*
X159337880Y-73974302D01*
X159340740Y-73956198D01*
X159344550Y-73938268D01*
X159349300Y-73920563D01*
X159354960Y-73903130D01*
X159361530Y-73886017D01*
X159368990Y-73869271D01*
X159377310Y-73852939D01*
X159386470Y-73837065D01*
X159396460Y-73821692D01*
X159407230Y-73806862D01*
X159418770Y-73792617D01*
X159431030Y-73778995D01*
X159443990Y-73766033D01*
X159457610Y-73753768D01*
X159471860Y-73742232D01*
X159486690Y-73731458D01*
X159502060Y-73721475D01*
X159517940Y-73712310D01*
X159534270Y-73703988D01*
X159551010Y-73696532D01*
X159568130Y-73689963D01*
X159585560Y-73684299D01*
X159603260Y-73679554D01*
X159621190Y-73675743D01*
X159639300Y-73672876D01*
X159657530Y-73670960D01*
X159675830Y-73670000D01*
X159685000Y-73670000D01*
X159694160Y-73670000D01*
X159712470Y-73670959D01*
X159730700Y-73672875D01*
X159748800Y-73675742D01*
X159766730Y-73679553D01*
X159784440Y-73684298D01*
X159801870Y-73689962D01*
X159818980Y-73696531D01*
X159835730Y-73703986D01*
X159852060Y-73712308D01*
X159867940Y-73721473D01*
X159883310Y-73731456D01*
X159898140Y-73742230D01*
X159912380Y-73753765D01*
X159926010Y-73766031D01*
X159938970Y-73778992D01*
X159951230Y-73792614D01*
X159962770Y-73806859D01*
X159973540Y-73821688D01*
X159983530Y-73837061D01*
X159992690Y-73852935D01*
X160001010Y-73869268D01*
X160008470Y-73886013D01*
X160015040Y-73903126D01*
X160020700Y-73920559D01*
X160025450Y-73938264D01*
X160029260Y-73956194D01*
X160032120Y-73974298D01*
X160034040Y-73992528D01*
X160035000Y-74010833D01*
X160035000Y-74020000D01*
X160035000Y-74270000D01*
X160335000Y-74270000D01*
X160335000Y-73510000D01*
X160335000Y-73498481D01*
X160333790Y-73475469D01*
X160331390Y-73452551D01*
X160327780Y-73429791D01*
X160322990Y-73407251D01*
X160317030Y-73384993D01*
X160309910Y-73363077D01*
X160301650Y-73341564D01*
X160292270Y-73320513D01*
X160281810Y-73299981D01*
X160270290Y-73280024D01*
X160257740Y-73260700D01*
X160244200Y-73242060D01*
X160229690Y-73224150D01*
X160214280Y-73207020D01*
X160197980Y-73190730D01*
X160180860Y-73175310D01*
X160162950Y-73160810D01*
X160144310Y-73147260D01*
X160124980Y-73134710D01*
X160105020Y-73123190D01*
X160084490Y-73112730D01*
X160063440Y-73103350D01*
X160041930Y-73095100D01*
X160020010Y-73087980D01*
X159997750Y-73082010D01*
X159975210Y-73077220D01*
X159952450Y-73073620D01*
X159929540Y-73071210D01*
X159906520Y-73070000D01*
X159895000Y-73070000D01*
X159890000Y-73070000D01*
X159500000Y-73070000D01*
X159495000Y-73070000D01*
X159482960Y-73070000D01*
X159458900Y-73071260D01*
X159434940Y-73073780D01*
X159411150Y-73077550D01*
X159387580Y-73082560D01*
X159364310Y-73088790D01*
X159341400Y-73096240D01*
X159318910Y-73104870D01*
X159296900Y-73114670D01*
X159275430Y-73125600D01*
X159254570Y-73137650D01*
X159234370Y-73150770D01*
X159214880Y-73164930D01*
X159196150Y-73180090D01*
X159178250Y-73196210D01*
X159161220Y-73213250D01*
X159145100Y-73231150D01*
X159129930Y-73249870D01*
X159115770Y-73269360D01*
X159102650Y-73289566D01*
X159090610Y-73310429D01*
X159079670Y-73331895D01*
X159069870Y-73353903D01*
X159061240Y-73376394D01*
X159053790Y-73399306D01*
X159047560Y-73422576D01*
X159042550Y-73446140D01*
X159038780Y-73469935D01*
X159036260Y-73493894D01*
X159035000Y-73517952D01*
X159035000Y-73530000D01*
X159035000Y-74270000D01*
G36*
X166310000Y-76320000D02*
X164485000Y-76320000D01*
X164485000Y-74270000D01*
X164785000Y-74270000D01*
X164785000Y-74520000D01*
X164785000Y-74529163D01*
X164785960Y-74547468D01*
X164787880Y-74565698D01*
X164790740Y-74583802D01*
X164794550Y-74601732D01*
X164799300Y-74619437D01*
X164804960Y-74636870D01*
X164811530Y-74653983D01*
X164818990Y-74670729D01*
X164827310Y-74687061D01*
X164836470Y-74702935D01*
X164846460Y-74718308D01*
X164857230Y-74733138D01*
X164868770Y-74747383D01*
X164881030Y-74761005D01*
X164893990Y-74773967D01*
X164907610Y-74786232D01*
X164921860Y-74797768D01*
X164936690Y-74808542D01*
X164952060Y-74818525D01*
X164967940Y-74827690D01*
X164984270Y-74836012D01*
X165001010Y-74843468D01*
X165018130Y-74850037D01*
X165035560Y-74855701D01*
X165053260Y-74860446D01*
X165071190Y-74864257D01*
X165089300Y-74867124D01*
X165107530Y-74869040D01*
X165125830Y-74870000D01*
X165135000Y-74870000D01*
X165144160Y-74870000D01*
X165162470Y-74869041D01*
X165180700Y-74867125D01*
X165198800Y-74864258D01*
X165216730Y-74860447D01*
X165234440Y-74855702D01*
X165251870Y-74850038D01*
X165268980Y-74843469D01*
X165285730Y-74836014D01*
X165302060Y-74827692D01*
X165317940Y-74818527D01*
X165333310Y-74808544D01*
X165348140Y-74797770D01*
X165362380Y-74786235D01*
X165376010Y-74773969D01*
X165388970Y-74761008D01*
X165401230Y-74747386D01*
X165412770Y-74733141D01*
X165423540Y-74718312D01*
X165433530Y-74702939D01*
X165442690Y-74687065D01*
X165451010Y-74670732D01*
X165458470Y-74653987D01*
X165465040Y-74636874D01*
X165470700Y-74619441D01*
X165475450Y-74601736D01*
X165479260Y-74583806D01*
X165482120Y-74565702D01*
X165484040Y-74547472D01*
X165485000Y-74529167D01*
X165485000Y-74520000D01*
X165485000Y-74270000D01*
X165785000Y-74270000D01*
X165785000Y-75620000D01*
X166310000Y-75620000D01*
X166310000Y-76320000D01*
G37*
X166310000Y-76320000D02*
X164485000Y-76320000D01*
X164485000Y-74270000D01*
X164785000Y-74270000D01*
X164785000Y-74520000D01*
X164785000Y-74529163D01*
X164785960Y-74547468D01*
X164787880Y-74565698D01*
X164790740Y-74583802D01*
X164794550Y-74601732D01*
X164799300Y-74619437D01*
X164804960Y-74636870D01*
X164811530Y-74653983D01*
X164818990Y-74670729D01*
X164827310Y-74687061D01*
X164836470Y-74702935D01*
X164846460Y-74718308D01*
X164857230Y-74733138D01*
X164868770Y-74747383D01*
X164881030Y-74761005D01*
X164893990Y-74773967D01*
X164907610Y-74786232D01*
X164921860Y-74797768D01*
X164936690Y-74808542D01*
X164952060Y-74818525D01*
X164967940Y-74827690D01*
X164984270Y-74836012D01*
X165001010Y-74843468D01*
X165018130Y-74850037D01*
X165035560Y-74855701D01*
X165053260Y-74860446D01*
X165071190Y-74864257D01*
X165089300Y-74867124D01*
X165107530Y-74869040D01*
X165125830Y-74870000D01*
X165135000Y-74870000D01*
X165144160Y-74870000D01*
X165162470Y-74869041D01*
X165180700Y-74867125D01*
X165198800Y-74864258D01*
X165216730Y-74860447D01*
X165234440Y-74855702D01*
X165251870Y-74850038D01*
X165268980Y-74843469D01*
X165285730Y-74836014D01*
X165302060Y-74827692D01*
X165317940Y-74818527D01*
X165333310Y-74808544D01*
X165348140Y-74797770D01*
X165362380Y-74786235D01*
X165376010Y-74773969D01*
X165388970Y-74761008D01*
X165401230Y-74747386D01*
X165412770Y-74733141D01*
X165423540Y-74718312D01*
X165433530Y-74702939D01*
X165442690Y-74687065D01*
X165451010Y-74670732D01*
X165458470Y-74653987D01*
X165465040Y-74636874D01*
X165470700Y-74619441D01*
X165475450Y-74601736D01*
X165479260Y-74583806D01*
X165482120Y-74565702D01*
X165484040Y-74547472D01*
X165485000Y-74529167D01*
X165485000Y-74520000D01*
X165485000Y-74270000D01*
X165785000Y-74270000D01*
X165785000Y-75620000D01*
X166310000Y-75620000D01*
X166310000Y-76320000D01*
G36*
X164485000Y-74270000D02*
X164785000Y-74270000D01*
X164785000Y-74015000D01*
X164785000Y-74005837D01*
X164785960Y-73987532D01*
X164787880Y-73969302D01*
X164790740Y-73951198D01*
X164794550Y-73933268D01*
X164799300Y-73915563D01*
X164804960Y-73898130D01*
X164811530Y-73881017D01*
X164818990Y-73864271D01*
X164827310Y-73847939D01*
X164836470Y-73832065D01*
X164846460Y-73816692D01*
X164857230Y-73801862D01*
X164868770Y-73787617D01*
X164881030Y-73773995D01*
X164893990Y-73761033D01*
X164907610Y-73748768D01*
X164921860Y-73737232D01*
X164936690Y-73726458D01*
X164952060Y-73716475D01*
X164967940Y-73707310D01*
X164984270Y-73698988D01*
X165001010Y-73691532D01*
X165018130Y-73684963D01*
X165035560Y-73679299D01*
X165053260Y-73674554D01*
X165071190Y-73670743D01*
X165089300Y-73667876D01*
X165107530Y-73665960D01*
X165125830Y-73665000D01*
X165135000Y-73665000D01*
X165144160Y-73665000D01*
X165162470Y-73665959D01*
X165180700Y-73667875D01*
X165198800Y-73670742D01*
X165216730Y-73674553D01*
X165234440Y-73679298D01*
X165251870Y-73684962D01*
X165268980Y-73691531D01*
X165285730Y-73698986D01*
X165302060Y-73707308D01*
X165317940Y-73716473D01*
X165333310Y-73726456D01*
X165348140Y-73737230D01*
X165362380Y-73748765D01*
X165376010Y-73761031D01*
X165388970Y-73773992D01*
X165401230Y-73787614D01*
X165412770Y-73801859D01*
X165423540Y-73816688D01*
X165433530Y-73832061D01*
X165442690Y-73847935D01*
X165451010Y-73864268D01*
X165458470Y-73881013D01*
X165465040Y-73898126D01*
X165470700Y-73915559D01*
X165475450Y-73933264D01*
X165479260Y-73951194D01*
X165482120Y-73969298D01*
X165484040Y-73987528D01*
X165485000Y-74005833D01*
X165485000Y-74015000D01*
X165485000Y-74270000D01*
X165785000Y-74270000D01*
X165785000Y-73505000D01*
X165785010Y-73496046D01*
X165783810Y-73473164D01*
X165781410Y-73450377D01*
X165777830Y-73427746D01*
X165773070Y-73405334D01*
X165767130Y-73383201D01*
X165760050Y-73361410D01*
X165751840Y-73340018D01*
X165742520Y-73319086D01*
X165732120Y-73298670D01*
X165720670Y-73278827D01*
X165708190Y-73259610D01*
X165694720Y-73241070D01*
X165680300Y-73223270D01*
X165664970Y-73206240D01*
X165648770Y-73190040D01*
X165631740Y-73174700D01*
X165613930Y-73160280D01*
X165595390Y-73146820D01*
X165576180Y-73134340D01*
X165556330Y-73122880D01*
X165535920Y-73112480D01*
X165514990Y-73103160D01*
X165493600Y-73094950D01*
X165471800Y-73087870D01*
X165449670Y-73081940D01*
X165427260Y-73077170D01*
X165404630Y-73073590D01*
X165381840Y-73071190D01*
X165358960Y-73069990D01*
X165345000Y-73070000D01*
X164860000Y-73070000D01*
X164845560Y-73071500D01*
X164824000Y-73074920D01*
X164802640Y-73079460D01*
X164781550Y-73085110D01*
X164760780Y-73091860D01*
X164740400Y-73099680D01*
X164720450Y-73108560D01*
X164701000Y-73118470D01*
X164682090Y-73129390D01*
X164663770Y-73141280D01*
X164646110Y-73154120D01*
X164629140Y-73167860D01*
X164612910Y-73182470D01*
X164597470Y-73197910D01*
X164582860Y-73214140D01*
X164569120Y-73231100D01*
X164556290Y-73248770D01*
X164544390Y-73267080D01*
X164533480Y-73285991D01*
X164523560Y-73305446D01*
X164514680Y-73325393D01*
X164506860Y-73345778D01*
X164500110Y-73366544D01*
X164494460Y-73387635D01*
X164489920Y-73408993D01*
X164486500Y-73430559D01*
X164484220Y-73452275D01*
X164483080Y-73474080D01*
X164483080Y-73495915D01*
X164484220Y-73517720D01*
X164485000Y-73525000D01*
X164485000Y-74270000D01*
G37*
X164485000Y-74270000D02*
X164785000Y-74270000D01*
X164785000Y-74015000D01*
X164785000Y-74005837D01*
X164785960Y-73987532D01*
X164787880Y-73969302D01*
X164790740Y-73951198D01*
X164794550Y-73933268D01*
X164799300Y-73915563D01*
X164804960Y-73898130D01*
X164811530Y-73881017D01*
X164818990Y-73864271D01*
X164827310Y-73847939D01*
X164836470Y-73832065D01*
X164846460Y-73816692D01*
X164857230Y-73801862D01*
X164868770Y-73787617D01*
X164881030Y-73773995D01*
X164893990Y-73761033D01*
X164907610Y-73748768D01*
X164921860Y-73737232D01*
X164936690Y-73726458D01*
X164952060Y-73716475D01*
X164967940Y-73707310D01*
X164984270Y-73698988D01*
X165001010Y-73691532D01*
X165018130Y-73684963D01*
X165035560Y-73679299D01*
X165053260Y-73674554D01*
X165071190Y-73670743D01*
X165089300Y-73667876D01*
X165107530Y-73665960D01*
X165125830Y-73665000D01*
X165135000Y-73665000D01*
X165144160Y-73665000D01*
X165162470Y-73665959D01*
X165180700Y-73667875D01*
X165198800Y-73670742D01*
X165216730Y-73674553D01*
X165234440Y-73679298D01*
X165251870Y-73684962D01*
X165268980Y-73691531D01*
X165285730Y-73698986D01*
X165302060Y-73707308D01*
X165317940Y-73716473D01*
X165333310Y-73726456D01*
X165348140Y-73737230D01*
X165362380Y-73748765D01*
X165376010Y-73761031D01*
X165388970Y-73773992D01*
X165401230Y-73787614D01*
X165412770Y-73801859D01*
X165423540Y-73816688D01*
X165433530Y-73832061D01*
X165442690Y-73847935D01*
X165451010Y-73864268D01*
X165458470Y-73881013D01*
X165465040Y-73898126D01*
X165470700Y-73915559D01*
X165475450Y-73933264D01*
X165479260Y-73951194D01*
X165482120Y-73969298D01*
X165484040Y-73987528D01*
X165485000Y-74005833D01*
X165485000Y-74015000D01*
X165485000Y-74270000D01*
X165785000Y-74270000D01*
X165785000Y-73505000D01*
X165785010Y-73496046D01*
X165783810Y-73473164D01*
X165781410Y-73450377D01*
X165777830Y-73427746D01*
X165773070Y-73405334D01*
X165767130Y-73383201D01*
X165760050Y-73361410D01*
X165751840Y-73340018D01*
X165742520Y-73319086D01*
X165732120Y-73298670D01*
X165720670Y-73278827D01*
X165708190Y-73259610D01*
X165694720Y-73241070D01*
X165680300Y-73223270D01*
X165664970Y-73206240D01*
X165648770Y-73190040D01*
X165631740Y-73174700D01*
X165613930Y-73160280D01*
X165595390Y-73146820D01*
X165576180Y-73134340D01*
X165556330Y-73122880D01*
X165535920Y-73112480D01*
X165514990Y-73103160D01*
X165493600Y-73094950D01*
X165471800Y-73087870D01*
X165449670Y-73081940D01*
X165427260Y-73077170D01*
X165404630Y-73073590D01*
X165381840Y-73071190D01*
X165358960Y-73069990D01*
X165345000Y-73070000D01*
X164860000Y-73070000D01*
X164845560Y-73071500D01*
X164824000Y-73074920D01*
X164802640Y-73079460D01*
X164781550Y-73085110D01*
X164760780Y-73091860D01*
X164740400Y-73099680D01*
X164720450Y-73108560D01*
X164701000Y-73118470D01*
X164682090Y-73129390D01*
X164663770Y-73141280D01*
X164646110Y-73154120D01*
X164629140Y-73167860D01*
X164612910Y-73182470D01*
X164597470Y-73197910D01*
X164582860Y-73214140D01*
X164569120Y-73231100D01*
X164556290Y-73248770D01*
X164544390Y-73267080D01*
X164533480Y-73285991D01*
X164523560Y-73305446D01*
X164514680Y-73325393D01*
X164506860Y-73345778D01*
X164500110Y-73366544D01*
X164494460Y-73387635D01*
X164489920Y-73408993D01*
X164486500Y-73430559D01*
X164484220Y-73452275D01*
X164483080Y-73474080D01*
X164483080Y-73495915D01*
X164484220Y-73517720D01*
X164485000Y-73525000D01*
X164485000Y-74270000D01*
G04 #@! TD*
D11*
G04 #@! TO.C,P1*
X161110000Y-77095000D03*
X161760000Y-77095000D03*
X162410000Y-77095000D03*
X163060000Y-77095000D03*
X163710000Y-77095000D03*
D12*
X161447500Y-74020000D03*
X163372500Y-74020000D03*
G04 #@! TD*
D13*
G04 #@! TO.C,U1*
X186832000Y-84010000D03*
X186832000Y-83210000D03*
X186832000Y-82410000D03*
X186832000Y-81610000D03*
X186832000Y-80810000D03*
X186832000Y-80010000D03*
X186832000Y-79210000D03*
X186832000Y-78410000D03*
X186832000Y-77610000D03*
X186832000Y-76810000D03*
X186832000Y-76010000D03*
D14*
X188532000Y-74310000D03*
X189332000Y-74310000D03*
X190132000Y-74310000D03*
X190932000Y-74310000D03*
X191732000Y-74310000D03*
X192532000Y-74310000D03*
X193332000Y-74310000D03*
X194132000Y-74310000D03*
X194932000Y-74310000D03*
X195732000Y-74310000D03*
X196532000Y-74310000D03*
D13*
X198232000Y-76010000D03*
X198232000Y-76810000D03*
X198232000Y-77610000D03*
X198232000Y-78410000D03*
X198232000Y-79210000D03*
X198232000Y-80010000D03*
X198232000Y-80810000D03*
X198232000Y-81610000D03*
X198232000Y-82410000D03*
X198232000Y-83210000D03*
X198232000Y-84010000D03*
D14*
X196532000Y-85710000D03*
X195732000Y-85710000D03*
X194932000Y-85710000D03*
X194132000Y-85710000D03*
X193332000Y-85710000D03*
X192532000Y-85710000D03*
X191732000Y-85710000D03*
X190932000Y-85710000D03*
X190132000Y-85710000D03*
X189332000Y-85710000D03*
X188532000Y-85710000D03*
G04 #@! TD*
D15*
G04 #@! TO.C,F1*
X168656000Y-73914000D03*
X171056000Y-73914000D03*
G04 #@! TD*
D16*
G04 #@! TO.C,Y1*
X202146000Y-80856000D03*
X202146000Y-78656000D03*
X203746000Y-80856000D03*
X203746000Y-78656000D03*
G04 #@! TD*
D17*
G04 #@! TO.C,D1*
X200010000Y-100320000D03*
X197810000Y-100320000D03*
G04 #@! TD*
G04 #@! TO.C,D2*
X199982000Y-105156000D03*
X197782000Y-105156000D03*
G04 #@! TD*
G04 #@! TO.C,D3*
X200020000Y-109870000D03*
X197820000Y-109870000D03*
G04 #@! TD*
G04 #@! TO.C,D4*
X181948000Y-120904000D03*
X179748000Y-120904000D03*
G04 #@! TD*
G04 #@! TO.C,D5*
X151722000Y-121158000D03*
X149522000Y-121158000D03*
G04 #@! TD*
D18*
G04 #@! TO.C,R1*
X126106000Y-100330000D03*
X124206000Y-100330000D03*
G04 #@! TD*
G04 #@! TO.C,R2*
X126172000Y-105156000D03*
X124272000Y-105156000D03*
G04 #@! TD*
G04 #@! TO.C,R3*
X126172000Y-109982000D03*
X124272000Y-109982000D03*
G04 #@! TD*
G04 #@! TO.C,R4*
X171384000Y-120904000D03*
X169484000Y-120904000D03*
G04 #@! TD*
G04 #@! TO.C,R5*
X141412000Y-121158000D03*
X139512000Y-121158000D03*
G04 #@! TD*
G04 #@! TO.C,R8*
X182814000Y-78994000D03*
X180914000Y-78994000D03*
G04 #@! TD*
G04 #@! TO.C,R9*
X182814000Y-81534000D03*
X180914000Y-81534000D03*
G04 #@! TD*
G04 #@! TO.C,R10*
X202250000Y-75184000D03*
X204150000Y-75184000D03*
G04 #@! TD*
D19*
G04 #@! TO.C,C1*
X203962000Y-84090000D03*
X203962000Y-86090000D03*
G04 #@! TD*
G04 #@! TO.C,C2*
X201676000Y-84090000D03*
X201676000Y-86090000D03*
G04 #@! TD*
D20*
G04 #@! TO.C,C3*
X182864000Y-83820000D03*
X180864000Y-83820000D03*
G04 #@! TD*
D21*
G04 #@! TO.C,C4*
X135192000Y-73914000D03*
X132842000Y-73914000D03*
G04 #@! TD*
G04 #@! TO.C,C5*
X135287000Y-76962000D03*
X132937000Y-76962000D03*
G04 #@! TD*
G04 #@! TO.C,C0*
X197961000Y-93726000D03*
X200311000Y-93726000D03*
G04 #@! TD*
D17*
G04 #@! TO.C,D6*
X174668000Y-73660000D03*
X176868000Y-73660000D03*
G04 #@! TD*
G04 #@! TO.C,D7*
X174668000Y-76200000D03*
X176868000Y-76200000D03*
G04 #@! TD*
D18*
G04 #@! TO.C,R6*
X182814000Y-73660000D03*
X180914000Y-73660000D03*
G04 #@! TD*
G04 #@! TO.C,R7*
X182814000Y-76200000D03*
X180914000Y-76200000D03*
G04 #@! TD*
D22*
G04 #@! TO.C,R11*
G36*
X134633642Y-79057174D02*
X134657303Y-79060684D01*
X134680507Y-79066496D01*
X134703029Y-79074554D01*
X134724653Y-79084782D01*
X134745170Y-79097079D01*
X134764383Y-79111329D01*
X134782107Y-79127393D01*
X134798171Y-79145117D01*
X134812421Y-79164330D01*
X134824718Y-79184847D01*
X134834946Y-79206471D01*
X134843004Y-79228993D01*
X134848816Y-79252197D01*
X134852326Y-79275858D01*
X134853500Y-79299750D01*
X134853500Y-80212250D01*
X134852326Y-80236142D01*
X134848816Y-80259803D01*
X134843004Y-80283007D01*
X134834946Y-80305529D01*
X134824718Y-80327153D01*
X134812421Y-80347670D01*
X134798171Y-80366883D01*
X134782107Y-80384607D01*
X134764383Y-80400671D01*
X134745170Y-80414921D01*
X134724653Y-80427218D01*
X134703029Y-80437446D01*
X134680507Y-80445504D01*
X134657303Y-80451316D01*
X134633642Y-80454826D01*
X134609750Y-80456000D01*
X134122250Y-80456000D01*
X134098358Y-80454826D01*
X134074697Y-80451316D01*
X134051493Y-80445504D01*
X134028971Y-80437446D01*
X134007347Y-80427218D01*
X133986830Y-80414921D01*
X133967617Y-80400671D01*
X133949893Y-80384607D01*
X133933829Y-80366883D01*
X133919579Y-80347670D01*
X133907282Y-80327153D01*
X133897054Y-80305529D01*
X133888996Y-80283007D01*
X133883184Y-80259803D01*
X133879674Y-80236142D01*
X133878500Y-80212250D01*
X133878500Y-79299750D01*
X133879674Y-79275858D01*
X133883184Y-79252197D01*
X133888996Y-79228993D01*
X133897054Y-79206471D01*
X133907282Y-79184847D01*
X133919579Y-79164330D01*
X133933829Y-79145117D01*
X133949893Y-79127393D01*
X133967617Y-79111329D01*
X133986830Y-79097079D01*
X134007347Y-79084782D01*
X134028971Y-79074554D01*
X134051493Y-79066496D01*
X134074697Y-79060684D01*
X134098358Y-79057174D01*
X134122250Y-79056000D01*
X134609750Y-79056000D01*
X134633642Y-79057174D01*
X134633642Y-79057174D01*
G37*
D23*
X134366000Y-79756000D03*
D22*
G36*
X132758642Y-79057174D02*
X132782303Y-79060684D01*
X132805507Y-79066496D01*
X132828029Y-79074554D01*
X132849653Y-79084782D01*
X132870170Y-79097079D01*
X132889383Y-79111329D01*
X132907107Y-79127393D01*
X132923171Y-79145117D01*
X132937421Y-79164330D01*
X132949718Y-79184847D01*
X132959946Y-79206471D01*
X132968004Y-79228993D01*
X132973816Y-79252197D01*
X132977326Y-79275858D01*
X132978500Y-79299750D01*
X132978500Y-80212250D01*
X132977326Y-80236142D01*
X132973816Y-80259803D01*
X132968004Y-80283007D01*
X132959946Y-80305529D01*
X132949718Y-80327153D01*
X132937421Y-80347670D01*
X132923171Y-80366883D01*
X132907107Y-80384607D01*
X132889383Y-80400671D01*
X132870170Y-80414921D01*
X132849653Y-80427218D01*
X132828029Y-80437446D01*
X132805507Y-80445504D01*
X132782303Y-80451316D01*
X132758642Y-80454826D01*
X132734750Y-80456000D01*
X132247250Y-80456000D01*
X132223358Y-80454826D01*
X132199697Y-80451316D01*
X132176493Y-80445504D01*
X132153971Y-80437446D01*
X132132347Y-80427218D01*
X132111830Y-80414921D01*
X132092617Y-80400671D01*
X132074893Y-80384607D01*
X132058829Y-80366883D01*
X132044579Y-80347670D01*
X132032282Y-80327153D01*
X132022054Y-80305529D01*
X132013996Y-80283007D01*
X132008184Y-80259803D01*
X132004674Y-80236142D01*
X132003500Y-80212250D01*
X132003500Y-79299750D01*
X132004674Y-79275858D01*
X132008184Y-79252197D01*
X132013996Y-79228993D01*
X132022054Y-79206471D01*
X132032282Y-79184847D01*
X132044579Y-79164330D01*
X132058829Y-79145117D01*
X132074893Y-79127393D01*
X132092617Y-79111329D01*
X132111830Y-79097079D01*
X132132347Y-79084782D01*
X132153971Y-79074554D01*
X132176493Y-79066496D01*
X132199697Y-79060684D01*
X132223358Y-79057174D01*
X132247250Y-79056000D01*
X132734750Y-79056000D01*
X132758642Y-79057174D01*
X132758642Y-79057174D01*
G37*
D23*
X132491000Y-79756000D03*
G04 #@! TD*
D22*
G04 #@! TO.C,R12*
G36*
X125060142Y-72961174D02*
X125083803Y-72964684D01*
X125107007Y-72970496D01*
X125129529Y-72978554D01*
X125151153Y-72988782D01*
X125171670Y-73001079D01*
X125190883Y-73015329D01*
X125208607Y-73031393D01*
X125224671Y-73049117D01*
X125238921Y-73068330D01*
X125251218Y-73088847D01*
X125261446Y-73110471D01*
X125269504Y-73132993D01*
X125275316Y-73156197D01*
X125278826Y-73179858D01*
X125280000Y-73203750D01*
X125280000Y-74116250D01*
X125278826Y-74140142D01*
X125275316Y-74163803D01*
X125269504Y-74187007D01*
X125261446Y-74209529D01*
X125251218Y-74231153D01*
X125238921Y-74251670D01*
X125224671Y-74270883D01*
X125208607Y-74288607D01*
X125190883Y-74304671D01*
X125171670Y-74318921D01*
X125151153Y-74331218D01*
X125129529Y-74341446D01*
X125107007Y-74349504D01*
X125083803Y-74355316D01*
X125060142Y-74358826D01*
X125036250Y-74360000D01*
X124548750Y-74360000D01*
X124524858Y-74358826D01*
X124501197Y-74355316D01*
X124477993Y-74349504D01*
X124455471Y-74341446D01*
X124433847Y-74331218D01*
X124413330Y-74318921D01*
X124394117Y-74304671D01*
X124376393Y-74288607D01*
X124360329Y-74270883D01*
X124346079Y-74251670D01*
X124333782Y-74231153D01*
X124323554Y-74209529D01*
X124315496Y-74187007D01*
X124309684Y-74163803D01*
X124306174Y-74140142D01*
X124305000Y-74116250D01*
X124305000Y-73203750D01*
X124306174Y-73179858D01*
X124309684Y-73156197D01*
X124315496Y-73132993D01*
X124323554Y-73110471D01*
X124333782Y-73088847D01*
X124346079Y-73068330D01*
X124360329Y-73049117D01*
X124376393Y-73031393D01*
X124394117Y-73015329D01*
X124413330Y-73001079D01*
X124433847Y-72988782D01*
X124455471Y-72978554D01*
X124477993Y-72970496D01*
X124501197Y-72964684D01*
X124524858Y-72961174D01*
X124548750Y-72960000D01*
X125036250Y-72960000D01*
X125060142Y-72961174D01*
X125060142Y-72961174D01*
G37*
D23*
X124792500Y-73660000D03*
D22*
G36*
X126935142Y-72961174D02*
X126958803Y-72964684D01*
X126982007Y-72970496D01*
X127004529Y-72978554D01*
X127026153Y-72988782D01*
X127046670Y-73001079D01*
X127065883Y-73015329D01*
X127083607Y-73031393D01*
X127099671Y-73049117D01*
X127113921Y-73068330D01*
X127126218Y-73088847D01*
X127136446Y-73110471D01*
X127144504Y-73132993D01*
X127150316Y-73156197D01*
X127153826Y-73179858D01*
X127155000Y-73203750D01*
X127155000Y-74116250D01*
X127153826Y-74140142D01*
X127150316Y-74163803D01*
X127144504Y-74187007D01*
X127136446Y-74209529D01*
X127126218Y-74231153D01*
X127113921Y-74251670D01*
X127099671Y-74270883D01*
X127083607Y-74288607D01*
X127065883Y-74304671D01*
X127046670Y-74318921D01*
X127026153Y-74331218D01*
X127004529Y-74341446D01*
X126982007Y-74349504D01*
X126958803Y-74355316D01*
X126935142Y-74358826D01*
X126911250Y-74360000D01*
X126423750Y-74360000D01*
X126399858Y-74358826D01*
X126376197Y-74355316D01*
X126352993Y-74349504D01*
X126330471Y-74341446D01*
X126308847Y-74331218D01*
X126288330Y-74318921D01*
X126269117Y-74304671D01*
X126251393Y-74288607D01*
X126235329Y-74270883D01*
X126221079Y-74251670D01*
X126208782Y-74231153D01*
X126198554Y-74209529D01*
X126190496Y-74187007D01*
X126184684Y-74163803D01*
X126181174Y-74140142D01*
X126180000Y-74116250D01*
X126180000Y-73203750D01*
X126181174Y-73179858D01*
X126184684Y-73156197D01*
X126190496Y-73132993D01*
X126198554Y-73110471D01*
X126208782Y-73088847D01*
X126221079Y-73068330D01*
X126235329Y-73049117D01*
X126251393Y-73031393D01*
X126269117Y-73015329D01*
X126288330Y-73001079D01*
X126308847Y-72988782D01*
X126330471Y-72978554D01*
X126352993Y-72970496D01*
X126376197Y-72964684D01*
X126399858Y-72961174D01*
X126423750Y-72960000D01*
X126911250Y-72960000D01*
X126935142Y-72961174D01*
X126935142Y-72961174D01*
G37*
D23*
X126667500Y-73660000D03*
G04 #@! TD*
D22*
G04 #@! TO.C,R13*
G36*
X127013642Y-75501174D02*
X127037303Y-75504684D01*
X127060507Y-75510496D01*
X127083029Y-75518554D01*
X127104653Y-75528782D01*
X127125170Y-75541079D01*
X127144383Y-75555329D01*
X127162107Y-75571393D01*
X127178171Y-75589117D01*
X127192421Y-75608330D01*
X127204718Y-75628847D01*
X127214946Y-75650471D01*
X127223004Y-75672993D01*
X127228816Y-75696197D01*
X127232326Y-75719858D01*
X127233500Y-75743750D01*
X127233500Y-76656250D01*
X127232326Y-76680142D01*
X127228816Y-76703803D01*
X127223004Y-76727007D01*
X127214946Y-76749529D01*
X127204718Y-76771153D01*
X127192421Y-76791670D01*
X127178171Y-76810883D01*
X127162107Y-76828607D01*
X127144383Y-76844671D01*
X127125170Y-76858921D01*
X127104653Y-76871218D01*
X127083029Y-76881446D01*
X127060507Y-76889504D01*
X127037303Y-76895316D01*
X127013642Y-76898826D01*
X126989750Y-76900000D01*
X126502250Y-76900000D01*
X126478358Y-76898826D01*
X126454697Y-76895316D01*
X126431493Y-76889504D01*
X126408971Y-76881446D01*
X126387347Y-76871218D01*
X126366830Y-76858921D01*
X126347617Y-76844671D01*
X126329893Y-76828607D01*
X126313829Y-76810883D01*
X126299579Y-76791670D01*
X126287282Y-76771153D01*
X126277054Y-76749529D01*
X126268996Y-76727007D01*
X126263184Y-76703803D01*
X126259674Y-76680142D01*
X126258500Y-76656250D01*
X126258500Y-75743750D01*
X126259674Y-75719858D01*
X126263184Y-75696197D01*
X126268996Y-75672993D01*
X126277054Y-75650471D01*
X126287282Y-75628847D01*
X126299579Y-75608330D01*
X126313829Y-75589117D01*
X126329893Y-75571393D01*
X126347617Y-75555329D01*
X126366830Y-75541079D01*
X126387347Y-75528782D01*
X126408971Y-75518554D01*
X126431493Y-75510496D01*
X126454697Y-75504684D01*
X126478358Y-75501174D01*
X126502250Y-75500000D01*
X126989750Y-75500000D01*
X127013642Y-75501174D01*
X127013642Y-75501174D01*
G37*
D23*
X126746000Y-76200000D03*
D22*
G36*
X125138642Y-75501174D02*
X125162303Y-75504684D01*
X125185507Y-75510496D01*
X125208029Y-75518554D01*
X125229653Y-75528782D01*
X125250170Y-75541079D01*
X125269383Y-75555329D01*
X125287107Y-75571393D01*
X125303171Y-75589117D01*
X125317421Y-75608330D01*
X125329718Y-75628847D01*
X125339946Y-75650471D01*
X125348004Y-75672993D01*
X125353816Y-75696197D01*
X125357326Y-75719858D01*
X125358500Y-75743750D01*
X125358500Y-76656250D01*
X125357326Y-76680142D01*
X125353816Y-76703803D01*
X125348004Y-76727007D01*
X125339946Y-76749529D01*
X125329718Y-76771153D01*
X125317421Y-76791670D01*
X125303171Y-76810883D01*
X125287107Y-76828607D01*
X125269383Y-76844671D01*
X125250170Y-76858921D01*
X125229653Y-76871218D01*
X125208029Y-76881446D01*
X125185507Y-76889504D01*
X125162303Y-76895316D01*
X125138642Y-76898826D01*
X125114750Y-76900000D01*
X124627250Y-76900000D01*
X124603358Y-76898826D01*
X124579697Y-76895316D01*
X124556493Y-76889504D01*
X124533971Y-76881446D01*
X124512347Y-76871218D01*
X124491830Y-76858921D01*
X124472617Y-76844671D01*
X124454893Y-76828607D01*
X124438829Y-76810883D01*
X124424579Y-76791670D01*
X124412282Y-76771153D01*
X124402054Y-76749529D01*
X124393996Y-76727007D01*
X124388184Y-76703803D01*
X124384674Y-76680142D01*
X124383500Y-76656250D01*
X124383500Y-75743750D01*
X124384674Y-75719858D01*
X124388184Y-75696197D01*
X124393996Y-75672993D01*
X124402054Y-75650471D01*
X124412282Y-75628847D01*
X124424579Y-75608330D01*
X124438829Y-75589117D01*
X124454893Y-75571393D01*
X124472617Y-75555329D01*
X124491830Y-75541079D01*
X124512347Y-75528782D01*
X124533971Y-75518554D01*
X124556493Y-75510496D01*
X124579697Y-75504684D01*
X124603358Y-75501174D01*
X124627250Y-75500000D01*
X125114750Y-75500000D01*
X125138642Y-75501174D01*
X125138642Y-75501174D01*
G37*
D23*
X124871000Y-76200000D03*
G04 #@! TD*
D22*
G04 #@! TO.C,R14*
G36*
X125138642Y-78041174D02*
X125162303Y-78044684D01*
X125185507Y-78050496D01*
X125208029Y-78058554D01*
X125229653Y-78068782D01*
X125250170Y-78081079D01*
X125269383Y-78095329D01*
X125287107Y-78111393D01*
X125303171Y-78129117D01*
X125317421Y-78148330D01*
X125329718Y-78168847D01*
X125339946Y-78190471D01*
X125348004Y-78212993D01*
X125353816Y-78236197D01*
X125357326Y-78259858D01*
X125358500Y-78283750D01*
X125358500Y-79196250D01*
X125357326Y-79220142D01*
X125353816Y-79243803D01*
X125348004Y-79267007D01*
X125339946Y-79289529D01*
X125329718Y-79311153D01*
X125317421Y-79331670D01*
X125303171Y-79350883D01*
X125287107Y-79368607D01*
X125269383Y-79384671D01*
X125250170Y-79398921D01*
X125229653Y-79411218D01*
X125208029Y-79421446D01*
X125185507Y-79429504D01*
X125162303Y-79435316D01*
X125138642Y-79438826D01*
X125114750Y-79440000D01*
X124627250Y-79440000D01*
X124603358Y-79438826D01*
X124579697Y-79435316D01*
X124556493Y-79429504D01*
X124533971Y-79421446D01*
X124512347Y-79411218D01*
X124491830Y-79398921D01*
X124472617Y-79384671D01*
X124454893Y-79368607D01*
X124438829Y-79350883D01*
X124424579Y-79331670D01*
X124412282Y-79311153D01*
X124402054Y-79289529D01*
X124393996Y-79267007D01*
X124388184Y-79243803D01*
X124384674Y-79220142D01*
X124383500Y-79196250D01*
X124383500Y-78283750D01*
X124384674Y-78259858D01*
X124388184Y-78236197D01*
X124393996Y-78212993D01*
X124402054Y-78190471D01*
X124412282Y-78168847D01*
X124424579Y-78148330D01*
X124438829Y-78129117D01*
X124454893Y-78111393D01*
X124472617Y-78095329D01*
X124491830Y-78081079D01*
X124512347Y-78068782D01*
X124533971Y-78058554D01*
X124556493Y-78050496D01*
X124579697Y-78044684D01*
X124603358Y-78041174D01*
X124627250Y-78040000D01*
X125114750Y-78040000D01*
X125138642Y-78041174D01*
X125138642Y-78041174D01*
G37*
D23*
X124871000Y-78740000D03*
D22*
G36*
X127013642Y-78041174D02*
X127037303Y-78044684D01*
X127060507Y-78050496D01*
X127083029Y-78058554D01*
X127104653Y-78068782D01*
X127125170Y-78081079D01*
X127144383Y-78095329D01*
X127162107Y-78111393D01*
X127178171Y-78129117D01*
X127192421Y-78148330D01*
X127204718Y-78168847D01*
X127214946Y-78190471D01*
X127223004Y-78212993D01*
X127228816Y-78236197D01*
X127232326Y-78259858D01*
X127233500Y-78283750D01*
X127233500Y-79196250D01*
X127232326Y-79220142D01*
X127228816Y-79243803D01*
X127223004Y-79267007D01*
X127214946Y-79289529D01*
X127204718Y-79311153D01*
X127192421Y-79331670D01*
X127178171Y-79350883D01*
X127162107Y-79368607D01*
X127144383Y-79384671D01*
X127125170Y-79398921D01*
X127104653Y-79411218D01*
X127083029Y-79421446D01*
X127060507Y-79429504D01*
X127037303Y-79435316D01*
X127013642Y-79438826D01*
X126989750Y-79440000D01*
X126502250Y-79440000D01*
X126478358Y-79438826D01*
X126454697Y-79435316D01*
X126431493Y-79429504D01*
X126408971Y-79421446D01*
X126387347Y-79411218D01*
X126366830Y-79398921D01*
X126347617Y-79384671D01*
X126329893Y-79368607D01*
X126313829Y-79350883D01*
X126299579Y-79331670D01*
X126287282Y-79311153D01*
X126277054Y-79289529D01*
X126268996Y-79267007D01*
X126263184Y-79243803D01*
X126259674Y-79220142D01*
X126258500Y-79196250D01*
X126258500Y-78283750D01*
X126259674Y-78259858D01*
X126263184Y-78236197D01*
X126268996Y-78212993D01*
X126277054Y-78190471D01*
X126287282Y-78168847D01*
X126299579Y-78148330D01*
X126313829Y-78129117D01*
X126329893Y-78111393D01*
X126347617Y-78095329D01*
X126366830Y-78081079D01*
X126387347Y-78068782D01*
X126408971Y-78058554D01*
X126431493Y-78050496D01*
X126454697Y-78044684D01*
X126478358Y-78041174D01*
X126502250Y-78040000D01*
X126989750Y-78040000D01*
X127013642Y-78041174D01*
X127013642Y-78041174D01*
G37*
D23*
X126746000Y-78740000D03*
G04 #@! TD*
D22*
G04 #@! TO.C,R15*
G36*
X126935142Y-80581174D02*
X126958803Y-80584684D01*
X126982007Y-80590496D01*
X127004529Y-80598554D01*
X127026153Y-80608782D01*
X127046670Y-80621079D01*
X127065883Y-80635329D01*
X127083607Y-80651393D01*
X127099671Y-80669117D01*
X127113921Y-80688330D01*
X127126218Y-80708847D01*
X127136446Y-80730471D01*
X127144504Y-80752993D01*
X127150316Y-80776197D01*
X127153826Y-80799858D01*
X127155000Y-80823750D01*
X127155000Y-81736250D01*
X127153826Y-81760142D01*
X127150316Y-81783803D01*
X127144504Y-81807007D01*
X127136446Y-81829529D01*
X127126218Y-81851153D01*
X127113921Y-81871670D01*
X127099671Y-81890883D01*
X127083607Y-81908607D01*
X127065883Y-81924671D01*
X127046670Y-81938921D01*
X127026153Y-81951218D01*
X127004529Y-81961446D01*
X126982007Y-81969504D01*
X126958803Y-81975316D01*
X126935142Y-81978826D01*
X126911250Y-81980000D01*
X126423750Y-81980000D01*
X126399858Y-81978826D01*
X126376197Y-81975316D01*
X126352993Y-81969504D01*
X126330471Y-81961446D01*
X126308847Y-81951218D01*
X126288330Y-81938921D01*
X126269117Y-81924671D01*
X126251393Y-81908607D01*
X126235329Y-81890883D01*
X126221079Y-81871670D01*
X126208782Y-81851153D01*
X126198554Y-81829529D01*
X126190496Y-81807007D01*
X126184684Y-81783803D01*
X126181174Y-81760142D01*
X126180000Y-81736250D01*
X126180000Y-80823750D01*
X126181174Y-80799858D01*
X126184684Y-80776197D01*
X126190496Y-80752993D01*
X126198554Y-80730471D01*
X126208782Y-80708847D01*
X126221079Y-80688330D01*
X126235329Y-80669117D01*
X126251393Y-80651393D01*
X126269117Y-80635329D01*
X126288330Y-80621079D01*
X126308847Y-80608782D01*
X126330471Y-80598554D01*
X126352993Y-80590496D01*
X126376197Y-80584684D01*
X126399858Y-80581174D01*
X126423750Y-80580000D01*
X126911250Y-80580000D01*
X126935142Y-80581174D01*
X126935142Y-80581174D01*
G37*
D23*
X126667500Y-81280000D03*
D22*
G36*
X125060142Y-80581174D02*
X125083803Y-80584684D01*
X125107007Y-80590496D01*
X125129529Y-80598554D01*
X125151153Y-80608782D01*
X125171670Y-80621079D01*
X125190883Y-80635329D01*
X125208607Y-80651393D01*
X125224671Y-80669117D01*
X125238921Y-80688330D01*
X125251218Y-80708847D01*
X125261446Y-80730471D01*
X125269504Y-80752993D01*
X125275316Y-80776197D01*
X125278826Y-80799858D01*
X125280000Y-80823750D01*
X125280000Y-81736250D01*
X125278826Y-81760142D01*
X125275316Y-81783803D01*
X125269504Y-81807007D01*
X125261446Y-81829529D01*
X125251218Y-81851153D01*
X125238921Y-81871670D01*
X125224671Y-81890883D01*
X125208607Y-81908607D01*
X125190883Y-81924671D01*
X125171670Y-81938921D01*
X125151153Y-81951218D01*
X125129529Y-81961446D01*
X125107007Y-81969504D01*
X125083803Y-81975316D01*
X125060142Y-81978826D01*
X125036250Y-81980000D01*
X124548750Y-81980000D01*
X124524858Y-81978826D01*
X124501197Y-81975316D01*
X124477993Y-81969504D01*
X124455471Y-81961446D01*
X124433847Y-81951218D01*
X124413330Y-81938921D01*
X124394117Y-81924671D01*
X124376393Y-81908607D01*
X124360329Y-81890883D01*
X124346079Y-81871670D01*
X124333782Y-81851153D01*
X124323554Y-81829529D01*
X124315496Y-81807007D01*
X124309684Y-81783803D01*
X124306174Y-81760142D01*
X124305000Y-81736250D01*
X124305000Y-80823750D01*
X124306174Y-80799858D01*
X124309684Y-80776197D01*
X124315496Y-80752993D01*
X124323554Y-80730471D01*
X124333782Y-80708847D01*
X124346079Y-80688330D01*
X124360329Y-80669117D01*
X124376393Y-80651393D01*
X124394117Y-80635329D01*
X124413330Y-80621079D01*
X124433847Y-80608782D01*
X124455471Y-80598554D01*
X124477993Y-80590496D01*
X124501197Y-80584684D01*
X124524858Y-80581174D01*
X124548750Y-80580000D01*
X125036250Y-80580000D01*
X125060142Y-80581174D01*
X125060142Y-80581174D01*
G37*
D23*
X124792500Y-81280000D03*
G04 #@! TD*
M02*
