G04 #@! TF.GenerationSoftware,KiCad,Pcbnew,(5.0.1-3-g963ef8bb5)*
G04 #@! TF.CreationDate,2019-04-07T15:35:03+01:00*
G04 #@! TF.ProjectId,invitation,696E7669746174696F6E2E6B69636164,rev?*
G04 #@! TF.SameCoordinates,Original*
G04 #@! TF.FileFunction,Legend,Top*
G04 #@! TF.FilePolarity,Positive*
%FSLAX46Y46*%
G04 Gerber Fmt 4.6, Leading zero omitted, Abs format (unit mm)*
G04 Created by KiCad (PCBNEW (5.0.1-3-g963ef8bb5)) date Sunday, 07 April 2019 at 15:35:03*
%MOMM*%
%LPD*%
G01*
G04 APERTURE LIST*
%ADD10C,0.010000*%
G04 APERTURE END LIST*
D10*
G04 #@! TO.C,G\002A\002A\002A*
G36*
X162769039Y-73199983D02*
X163240913Y-73215565D01*
X163622424Y-73243683D01*
X163766500Y-73263021D01*
X164168666Y-73331708D01*
X164168666Y-74127875D01*
X164174765Y-74540846D01*
X164212070Y-74816245D01*
X164309094Y-74981932D01*
X164494351Y-75065767D01*
X164796354Y-75095609D01*
X165162918Y-75099333D01*
X165575651Y-75086880D01*
X165849603Y-75037050D01*
X166014295Y-74931136D01*
X166099246Y-74750432D01*
X166133488Y-74484290D01*
X166158333Y-74080915D01*
X166751000Y-74477268D01*
X167638990Y-75171443D01*
X168420419Y-75988854D01*
X169082814Y-76911952D01*
X169613705Y-77923186D01*
X170000620Y-79005009D01*
X170020855Y-79078709D01*
X170146061Y-79717788D01*
X170215037Y-80458013D01*
X170227785Y-81240808D01*
X170184304Y-82007594D01*
X170084593Y-82699794D01*
X170020855Y-82973290D01*
X169641087Y-84070866D01*
X169121244Y-85084712D01*
X168472367Y-86003798D01*
X167705499Y-86817096D01*
X166831679Y-87513578D01*
X165861950Y-88082217D01*
X164807353Y-88511983D01*
X164337957Y-88649413D01*
X163929423Y-88731815D01*
X163420346Y-88799336D01*
X162861846Y-88848656D01*
X162305041Y-88876455D01*
X161801051Y-88879413D01*
X161400994Y-88854211D01*
X161332333Y-88844611D01*
X160182404Y-88579156D01*
X159107272Y-88168009D01*
X158117437Y-87620550D01*
X157223394Y-86946156D01*
X156435641Y-86154205D01*
X155764675Y-85254077D01*
X155220995Y-84255149D01*
X154815096Y-83166799D01*
X154760478Y-82973290D01*
X154677314Y-82632809D01*
X154621090Y-82308570D01*
X154587062Y-81952926D01*
X154570484Y-81518233D01*
X154566564Y-81026000D01*
X154566564Y-81025999D01*
X156294666Y-81025999D01*
X156307168Y-81645629D01*
X156352941Y-82152782D01*
X156444386Y-82603024D01*
X156593903Y-83051921D01*
X156813895Y-83555037D01*
X156898254Y-83730523D01*
X157113318Y-84152454D01*
X157310852Y-84483404D01*
X157530126Y-84777872D01*
X157810411Y-85090358D01*
X158065801Y-85350864D01*
X158423501Y-85697541D01*
X158724920Y-85955686D01*
X159024746Y-86164676D01*
X159377664Y-86363889D01*
X159691685Y-86521588D01*
X160085979Y-86704641D01*
X160465203Y-86864055D01*
X160781151Y-86980468D01*
X160956875Y-87029804D01*
X161278021Y-87070789D01*
X161716248Y-87097409D01*
X162219906Y-87109550D01*
X162737344Y-87107101D01*
X163216911Y-87089949D01*
X163606958Y-87057981D01*
X163754943Y-87035903D01*
X164021349Y-86962049D01*
X164384465Y-86829801D01*
X164791175Y-86659669D01*
X165095190Y-86518411D01*
X165517120Y-86303348D01*
X165848070Y-86105814D01*
X166142539Y-85886540D01*
X166455025Y-85606255D01*
X166715531Y-85350864D01*
X167062387Y-84992954D01*
X167320563Y-84691462D01*
X167529329Y-84391889D01*
X167727954Y-84039736D01*
X167883078Y-83730523D01*
X168127410Y-83199346D01*
X168297428Y-82739597D01*
X168405532Y-82295711D01*
X168464124Y-81812123D01*
X168485604Y-81233267D01*
X168486666Y-81026000D01*
X168474164Y-80406370D01*
X168428392Y-79899217D01*
X168336947Y-79448975D01*
X168187429Y-79000078D01*
X167967437Y-78496962D01*
X167883078Y-78321476D01*
X167668015Y-77899545D01*
X167470481Y-77568595D01*
X167251206Y-77274127D01*
X166970921Y-76961641D01*
X166715531Y-76701135D01*
X166357621Y-76354279D01*
X166056129Y-76096103D01*
X165756556Y-75887337D01*
X165404402Y-75688712D01*
X165095190Y-75533588D01*
X164564012Y-75289256D01*
X164104264Y-75119238D01*
X163660378Y-75011134D01*
X163176790Y-74952542D01*
X162597933Y-74931062D01*
X162390666Y-74929999D01*
X161771036Y-74942501D01*
X161263883Y-74988274D01*
X160813642Y-75079719D01*
X160364745Y-75229237D01*
X159861628Y-75449228D01*
X159686143Y-75533588D01*
X159264212Y-75748651D01*
X158933262Y-75946185D01*
X158638794Y-76165459D01*
X158326308Y-76445744D01*
X158065801Y-76701135D01*
X157718945Y-77059045D01*
X157460769Y-77360537D01*
X157252004Y-77660110D01*
X157053378Y-78012263D01*
X156898254Y-78321476D01*
X156653922Y-78852653D01*
X156483904Y-79312402D01*
X156375800Y-79756288D01*
X156317209Y-80239876D01*
X156295728Y-80818732D01*
X156294666Y-81025999D01*
X154566564Y-81025999D01*
X154590393Y-80210324D01*
X154669050Y-79505374D01*
X154813290Y-78858379D01*
X155033869Y-78216568D01*
X155233008Y-77756055D01*
X155746329Y-76829000D01*
X156395567Y-75955236D01*
X157149802Y-75171003D01*
X157978114Y-74512546D01*
X158030333Y-74477268D01*
X158623000Y-74080915D01*
X158647844Y-74484290D01*
X158683461Y-74755953D01*
X158770028Y-74934581D01*
X158937066Y-75038882D01*
X159214096Y-75087562D01*
X159618415Y-75099333D01*
X160041075Y-75093374D01*
X160322936Y-75056925D01*
X160492511Y-74962125D01*
X160578313Y-74781115D01*
X160608855Y-74486035D01*
X160612666Y-74127875D01*
X160612666Y-73331708D01*
X161014833Y-73263021D01*
X161329697Y-73228457D01*
X161761584Y-73206429D01*
X162258647Y-73196938D01*
X162769039Y-73199983D01*
X162769039Y-73199983D01*
G37*
X162769039Y-73199983D02*
X163240913Y-73215565D01*
X163622424Y-73243683D01*
X163766500Y-73263021D01*
X164168666Y-73331708D01*
X164168666Y-74127875D01*
X164174765Y-74540846D01*
X164212070Y-74816245D01*
X164309094Y-74981932D01*
X164494351Y-75065767D01*
X164796354Y-75095609D01*
X165162918Y-75099333D01*
X165575651Y-75086880D01*
X165849603Y-75037050D01*
X166014295Y-74931136D01*
X166099246Y-74750432D01*
X166133488Y-74484290D01*
X166158333Y-74080915D01*
X166751000Y-74477268D01*
X167638990Y-75171443D01*
X168420419Y-75988854D01*
X169082814Y-76911952D01*
X169613705Y-77923186D01*
X170000620Y-79005009D01*
X170020855Y-79078709D01*
X170146061Y-79717788D01*
X170215037Y-80458013D01*
X170227785Y-81240808D01*
X170184304Y-82007594D01*
X170084593Y-82699794D01*
X170020855Y-82973290D01*
X169641087Y-84070866D01*
X169121244Y-85084712D01*
X168472367Y-86003798D01*
X167705499Y-86817096D01*
X166831679Y-87513578D01*
X165861950Y-88082217D01*
X164807353Y-88511983D01*
X164337957Y-88649413D01*
X163929423Y-88731815D01*
X163420346Y-88799336D01*
X162861846Y-88848656D01*
X162305041Y-88876455D01*
X161801051Y-88879413D01*
X161400994Y-88854211D01*
X161332333Y-88844611D01*
X160182404Y-88579156D01*
X159107272Y-88168009D01*
X158117437Y-87620550D01*
X157223394Y-86946156D01*
X156435641Y-86154205D01*
X155764675Y-85254077D01*
X155220995Y-84255149D01*
X154815096Y-83166799D01*
X154760478Y-82973290D01*
X154677314Y-82632809D01*
X154621090Y-82308570D01*
X154587062Y-81952926D01*
X154570484Y-81518233D01*
X154566564Y-81026000D01*
X154566564Y-81025999D01*
X156294666Y-81025999D01*
X156307168Y-81645629D01*
X156352941Y-82152782D01*
X156444386Y-82603024D01*
X156593903Y-83051921D01*
X156813895Y-83555037D01*
X156898254Y-83730523D01*
X157113318Y-84152454D01*
X157310852Y-84483404D01*
X157530126Y-84777872D01*
X157810411Y-85090358D01*
X158065801Y-85350864D01*
X158423501Y-85697541D01*
X158724920Y-85955686D01*
X159024746Y-86164676D01*
X159377664Y-86363889D01*
X159691685Y-86521588D01*
X160085979Y-86704641D01*
X160465203Y-86864055D01*
X160781151Y-86980468D01*
X160956875Y-87029804D01*
X161278021Y-87070789D01*
X161716248Y-87097409D01*
X162219906Y-87109550D01*
X162737344Y-87107101D01*
X163216911Y-87089949D01*
X163606958Y-87057981D01*
X163754943Y-87035903D01*
X164021349Y-86962049D01*
X164384465Y-86829801D01*
X164791175Y-86659669D01*
X165095190Y-86518411D01*
X165517120Y-86303348D01*
X165848070Y-86105814D01*
X166142539Y-85886540D01*
X166455025Y-85606255D01*
X166715531Y-85350864D01*
X167062387Y-84992954D01*
X167320563Y-84691462D01*
X167529329Y-84391889D01*
X167727954Y-84039736D01*
X167883078Y-83730523D01*
X168127410Y-83199346D01*
X168297428Y-82739597D01*
X168405532Y-82295711D01*
X168464124Y-81812123D01*
X168485604Y-81233267D01*
X168486666Y-81026000D01*
X168474164Y-80406370D01*
X168428392Y-79899217D01*
X168336947Y-79448975D01*
X168187429Y-79000078D01*
X167967437Y-78496962D01*
X167883078Y-78321476D01*
X167668015Y-77899545D01*
X167470481Y-77568595D01*
X167251206Y-77274127D01*
X166970921Y-76961641D01*
X166715531Y-76701135D01*
X166357621Y-76354279D01*
X166056129Y-76096103D01*
X165756556Y-75887337D01*
X165404402Y-75688712D01*
X165095190Y-75533588D01*
X164564012Y-75289256D01*
X164104264Y-75119238D01*
X163660378Y-75011134D01*
X163176790Y-74952542D01*
X162597933Y-74931062D01*
X162390666Y-74929999D01*
X161771036Y-74942501D01*
X161263883Y-74988274D01*
X160813642Y-75079719D01*
X160364745Y-75229237D01*
X159861628Y-75449228D01*
X159686143Y-75533588D01*
X159264212Y-75748651D01*
X158933262Y-75946185D01*
X158638794Y-76165459D01*
X158326308Y-76445744D01*
X158065801Y-76701135D01*
X157718945Y-77059045D01*
X157460769Y-77360537D01*
X157252004Y-77660110D01*
X157053378Y-78012263D01*
X156898254Y-78321476D01*
X156653922Y-78852653D01*
X156483904Y-79312402D01*
X156375800Y-79756288D01*
X156317209Y-80239876D01*
X156295728Y-80818732D01*
X156294666Y-81025999D01*
X154566564Y-81025999D01*
X154590393Y-80210324D01*
X154669050Y-79505374D01*
X154813290Y-78858379D01*
X155033869Y-78216568D01*
X155233008Y-77756055D01*
X155746329Y-76829000D01*
X156395567Y-75955236D01*
X157149802Y-75171003D01*
X157978114Y-74512546D01*
X158030333Y-74477268D01*
X158623000Y-74080915D01*
X158647844Y-74484290D01*
X158683461Y-74755953D01*
X158770028Y-74934581D01*
X158937066Y-75038882D01*
X159214096Y-75087562D01*
X159618415Y-75099333D01*
X160041075Y-75093374D01*
X160322936Y-75056925D01*
X160492511Y-74962125D01*
X160578313Y-74781115D01*
X160608855Y-74486035D01*
X160612666Y-74127875D01*
X160612666Y-73331708D01*
X161014833Y-73263021D01*
X161329697Y-73228457D01*
X161761584Y-73206429D01*
X162258647Y-73196938D01*
X162769039Y-73199983D01*
G36*
X185385594Y-91943695D02*
X186077794Y-92043406D01*
X186351290Y-92107144D01*
X187456838Y-92489655D01*
X188475722Y-93013085D01*
X189397809Y-93667300D01*
X190212964Y-94442168D01*
X190911055Y-95327554D01*
X191481948Y-96313326D01*
X191915510Y-97389350D01*
X192034188Y-97790042D01*
X192159394Y-98429121D01*
X192228371Y-99169347D01*
X192241118Y-99952142D01*
X192197637Y-100718928D01*
X192097927Y-101411127D01*
X192034188Y-101684623D01*
X191654420Y-102782200D01*
X191134577Y-103796045D01*
X190485701Y-104715131D01*
X189718832Y-105528429D01*
X188845012Y-106224912D01*
X187875283Y-106793550D01*
X186820686Y-107223317D01*
X186351290Y-107360747D01*
X185942756Y-107443148D01*
X185433679Y-107510669D01*
X184875179Y-107559989D01*
X184318374Y-107587788D01*
X183814384Y-107590747D01*
X183414328Y-107565545D01*
X183345666Y-107555944D01*
X182195737Y-107290489D01*
X181120606Y-106879342D01*
X180130770Y-106331883D01*
X179236727Y-105657489D01*
X178448974Y-104865538D01*
X177778009Y-103965410D01*
X177234328Y-102966482D01*
X176828429Y-101878133D01*
X176773811Y-101684623D01*
X176648605Y-101045545D01*
X176579628Y-100305319D01*
X176570379Y-99737333D01*
X178308000Y-99737333D01*
X178320501Y-100356963D01*
X178366274Y-100864116D01*
X178457719Y-101314357D01*
X178607237Y-101763254D01*
X178827228Y-102266371D01*
X178911588Y-102441856D01*
X179126651Y-102863787D01*
X179324185Y-103194737D01*
X179543459Y-103489205D01*
X179823744Y-103801691D01*
X180079135Y-104062198D01*
X180436834Y-104408874D01*
X180738254Y-104667019D01*
X181038079Y-104876010D01*
X181390997Y-105075222D01*
X181705018Y-105232922D01*
X182099312Y-105415974D01*
X182478536Y-105575389D01*
X182794484Y-105691801D01*
X182970209Y-105741137D01*
X183291354Y-105782123D01*
X183729581Y-105808742D01*
X184233239Y-105820884D01*
X184750677Y-105818435D01*
X185230245Y-105801282D01*
X185620291Y-105769314D01*
X185768277Y-105747237D01*
X186034682Y-105673382D01*
X186397798Y-105541134D01*
X186804508Y-105371002D01*
X187108523Y-105229745D01*
X187530454Y-105014681D01*
X187861404Y-104817147D01*
X188155872Y-104597873D01*
X188468358Y-104317588D01*
X188728864Y-104062198D01*
X189075720Y-103704287D01*
X189333896Y-103402795D01*
X189542662Y-103103222D01*
X189741287Y-102751069D01*
X189896411Y-102441856D01*
X190140743Y-101910679D01*
X190310761Y-101450930D01*
X190418865Y-101007045D01*
X190477457Y-100523456D01*
X190498937Y-99944600D01*
X190500000Y-99737333D01*
X190487498Y-99117703D01*
X190441725Y-98610550D01*
X190350280Y-98160308D01*
X190200762Y-97711412D01*
X189980771Y-97208295D01*
X189896411Y-97032809D01*
X189681348Y-96610879D01*
X189483814Y-96279929D01*
X189264540Y-95985460D01*
X188984255Y-95672974D01*
X188728864Y-95412468D01*
X188370954Y-95065612D01*
X188069462Y-94807436D01*
X187769889Y-94598670D01*
X187417736Y-94400045D01*
X187108523Y-94244921D01*
X186577346Y-94000589D01*
X186117597Y-93830571D01*
X185673711Y-93722467D01*
X185190123Y-93663875D01*
X184611267Y-93642395D01*
X184404000Y-93641333D01*
X183784370Y-93653835D01*
X183277217Y-93699607D01*
X182826975Y-93791052D01*
X182378078Y-93940570D01*
X181874962Y-94160562D01*
X181699476Y-94244921D01*
X181277545Y-94459984D01*
X180946595Y-94657518D01*
X180652127Y-94876793D01*
X180339641Y-95157078D01*
X180079135Y-95412468D01*
X179732279Y-95770378D01*
X179474103Y-96071870D01*
X179265337Y-96371443D01*
X179066712Y-96723597D01*
X178911588Y-97032809D01*
X178667256Y-97563987D01*
X178497238Y-98023735D01*
X178389134Y-98467621D01*
X178330542Y-98951209D01*
X178309062Y-99530066D01*
X178308000Y-99737333D01*
X176570379Y-99737333D01*
X176566881Y-99522524D01*
X176610362Y-98755738D01*
X176710072Y-98063538D01*
X176773811Y-97790042D01*
X177156322Y-96684494D01*
X177679752Y-95665610D01*
X178333967Y-94743523D01*
X179108835Y-93928368D01*
X179994221Y-93230277D01*
X180979993Y-92659384D01*
X182056016Y-92225822D01*
X182456709Y-92107144D01*
X183095788Y-91981938D01*
X183836013Y-91912962D01*
X184618808Y-91900214D01*
X185385594Y-91943695D01*
X185385594Y-91943695D01*
G37*
X185385594Y-91943695D02*
X186077794Y-92043406D01*
X186351290Y-92107144D01*
X187456838Y-92489655D01*
X188475722Y-93013085D01*
X189397809Y-93667300D01*
X190212964Y-94442168D01*
X190911055Y-95327554D01*
X191481948Y-96313326D01*
X191915510Y-97389350D01*
X192034188Y-97790042D01*
X192159394Y-98429121D01*
X192228371Y-99169347D01*
X192241118Y-99952142D01*
X192197637Y-100718928D01*
X192097927Y-101411127D01*
X192034188Y-101684623D01*
X191654420Y-102782200D01*
X191134577Y-103796045D01*
X190485701Y-104715131D01*
X189718832Y-105528429D01*
X188845012Y-106224912D01*
X187875283Y-106793550D01*
X186820686Y-107223317D01*
X186351290Y-107360747D01*
X185942756Y-107443148D01*
X185433679Y-107510669D01*
X184875179Y-107559989D01*
X184318374Y-107587788D01*
X183814384Y-107590747D01*
X183414328Y-107565545D01*
X183345666Y-107555944D01*
X182195737Y-107290489D01*
X181120606Y-106879342D01*
X180130770Y-106331883D01*
X179236727Y-105657489D01*
X178448974Y-104865538D01*
X177778009Y-103965410D01*
X177234328Y-102966482D01*
X176828429Y-101878133D01*
X176773811Y-101684623D01*
X176648605Y-101045545D01*
X176579628Y-100305319D01*
X176570379Y-99737333D01*
X178308000Y-99737333D01*
X178320501Y-100356963D01*
X178366274Y-100864116D01*
X178457719Y-101314357D01*
X178607237Y-101763254D01*
X178827228Y-102266371D01*
X178911588Y-102441856D01*
X179126651Y-102863787D01*
X179324185Y-103194737D01*
X179543459Y-103489205D01*
X179823744Y-103801691D01*
X180079135Y-104062198D01*
X180436834Y-104408874D01*
X180738254Y-104667019D01*
X181038079Y-104876010D01*
X181390997Y-105075222D01*
X181705018Y-105232922D01*
X182099312Y-105415974D01*
X182478536Y-105575389D01*
X182794484Y-105691801D01*
X182970209Y-105741137D01*
X183291354Y-105782123D01*
X183729581Y-105808742D01*
X184233239Y-105820884D01*
X184750677Y-105818435D01*
X185230245Y-105801282D01*
X185620291Y-105769314D01*
X185768277Y-105747237D01*
X186034682Y-105673382D01*
X186397798Y-105541134D01*
X186804508Y-105371002D01*
X187108523Y-105229745D01*
X187530454Y-105014681D01*
X187861404Y-104817147D01*
X188155872Y-104597873D01*
X188468358Y-104317588D01*
X188728864Y-104062198D01*
X189075720Y-103704287D01*
X189333896Y-103402795D01*
X189542662Y-103103222D01*
X189741287Y-102751069D01*
X189896411Y-102441856D01*
X190140743Y-101910679D01*
X190310761Y-101450930D01*
X190418865Y-101007045D01*
X190477457Y-100523456D01*
X190498937Y-99944600D01*
X190500000Y-99737333D01*
X190487498Y-99117703D01*
X190441725Y-98610550D01*
X190350280Y-98160308D01*
X190200762Y-97711412D01*
X189980771Y-97208295D01*
X189896411Y-97032809D01*
X189681348Y-96610879D01*
X189483814Y-96279929D01*
X189264540Y-95985460D01*
X188984255Y-95672974D01*
X188728864Y-95412468D01*
X188370954Y-95065612D01*
X188069462Y-94807436D01*
X187769889Y-94598670D01*
X187417736Y-94400045D01*
X187108523Y-94244921D01*
X186577346Y-94000589D01*
X186117597Y-93830571D01*
X185673711Y-93722467D01*
X185190123Y-93663875D01*
X184611267Y-93642395D01*
X184404000Y-93641333D01*
X183784370Y-93653835D01*
X183277217Y-93699607D01*
X182826975Y-93791052D01*
X182378078Y-93940570D01*
X181874962Y-94160562D01*
X181699476Y-94244921D01*
X181277545Y-94459984D01*
X180946595Y-94657518D01*
X180652127Y-94876793D01*
X180339641Y-95157078D01*
X180079135Y-95412468D01*
X179732279Y-95770378D01*
X179474103Y-96071870D01*
X179265337Y-96371443D01*
X179066712Y-96723597D01*
X178911588Y-97032809D01*
X178667256Y-97563987D01*
X178497238Y-98023735D01*
X178389134Y-98467621D01*
X178330542Y-98951209D01*
X178309062Y-99530066D01*
X178308000Y-99737333D01*
X176570379Y-99737333D01*
X176566881Y-99522524D01*
X176610362Y-98755738D01*
X176710072Y-98063538D01*
X176773811Y-97790042D01*
X177156322Y-96684494D01*
X177679752Y-95665610D01*
X178333967Y-94743523D01*
X179108835Y-93928368D01*
X179994221Y-93230277D01*
X180979993Y-92659384D01*
X182056016Y-92225822D01*
X182456709Y-92107144D01*
X183095788Y-91981938D01*
X183836013Y-91912962D01*
X184618808Y-91900214D01*
X185385594Y-91943695D01*
G36*
X141189594Y-92028362D02*
X141881794Y-92128072D01*
X142155290Y-92191811D01*
X143260838Y-92574322D01*
X144279722Y-93097752D01*
X145201809Y-93751967D01*
X146016964Y-94526835D01*
X146715055Y-95412221D01*
X147285948Y-96397993D01*
X147719510Y-97474016D01*
X147838188Y-97874709D01*
X147963394Y-98513788D01*
X148032371Y-99254013D01*
X148045118Y-100036808D01*
X148001637Y-100803594D01*
X147901927Y-101495794D01*
X147838188Y-101769290D01*
X147458420Y-102866866D01*
X146938577Y-103880712D01*
X146289701Y-104799798D01*
X145522832Y-105613096D01*
X144649012Y-106309578D01*
X143679283Y-106878217D01*
X142624686Y-107307983D01*
X142155290Y-107445413D01*
X141746756Y-107527815D01*
X141237679Y-107595336D01*
X140679179Y-107644656D01*
X140122374Y-107672455D01*
X139618384Y-107675413D01*
X139218328Y-107650211D01*
X139149666Y-107640611D01*
X137999737Y-107375156D01*
X136924606Y-106964009D01*
X135934770Y-106416550D01*
X135040727Y-105742156D01*
X134252974Y-104950205D01*
X133582009Y-104050077D01*
X133038328Y-103051149D01*
X132632429Y-101962799D01*
X132577811Y-101769290D01*
X132494647Y-101428809D01*
X132438423Y-101104570D01*
X132404395Y-100748926D01*
X132387818Y-100314233D01*
X132383897Y-99822000D01*
X132383897Y-99821999D01*
X134112000Y-99821999D01*
X134124501Y-100441629D01*
X134170274Y-100948782D01*
X134261719Y-101399024D01*
X134411237Y-101847921D01*
X134631228Y-102351037D01*
X134715588Y-102526523D01*
X134930651Y-102948454D01*
X135128185Y-103279404D01*
X135347459Y-103573872D01*
X135627744Y-103886358D01*
X135883135Y-104146864D01*
X136240834Y-104493541D01*
X136542254Y-104751686D01*
X136842079Y-104960676D01*
X137194997Y-105159889D01*
X137509018Y-105317588D01*
X137903312Y-105500641D01*
X138282536Y-105660055D01*
X138598484Y-105776468D01*
X138774209Y-105825804D01*
X139095354Y-105866789D01*
X139533581Y-105893409D01*
X140037239Y-105905550D01*
X140554677Y-105903101D01*
X141034245Y-105885949D01*
X141424291Y-105853981D01*
X141572277Y-105831903D01*
X141838682Y-105758049D01*
X142201798Y-105625801D01*
X142608508Y-105455669D01*
X142912523Y-105314411D01*
X143334454Y-105099348D01*
X143665404Y-104901814D01*
X143959872Y-104682540D01*
X144272358Y-104402255D01*
X144532864Y-104146864D01*
X144879720Y-103788954D01*
X145137896Y-103487462D01*
X145346662Y-103187889D01*
X145545287Y-102835736D01*
X145700411Y-102526523D01*
X145944743Y-101995346D01*
X146114761Y-101535597D01*
X146222865Y-101091711D01*
X146281457Y-100608123D01*
X146302937Y-100029267D01*
X146304000Y-99822000D01*
X146291498Y-99202370D01*
X146245725Y-98695217D01*
X146154280Y-98244975D01*
X146004762Y-97796078D01*
X145784771Y-97292962D01*
X145700411Y-97117476D01*
X145485348Y-96695545D01*
X145287814Y-96364595D01*
X145068540Y-96070127D01*
X144788255Y-95757641D01*
X144532864Y-95497135D01*
X144174954Y-95150279D01*
X143873462Y-94892103D01*
X143573889Y-94683337D01*
X143221736Y-94484712D01*
X142912523Y-94329588D01*
X142381346Y-94085256D01*
X141921597Y-93915238D01*
X141477711Y-93807134D01*
X140994123Y-93748542D01*
X140415267Y-93727062D01*
X140208000Y-93725999D01*
X139588370Y-93738501D01*
X139081217Y-93784274D01*
X138630975Y-93875719D01*
X138182078Y-94025237D01*
X137678962Y-94245228D01*
X137503476Y-94329588D01*
X137081545Y-94544651D01*
X136750595Y-94742185D01*
X136456127Y-94961459D01*
X136143641Y-95241744D01*
X135883135Y-95497135D01*
X135536279Y-95855045D01*
X135278103Y-96156537D01*
X135069337Y-96456110D01*
X134870712Y-96808263D01*
X134715588Y-97117476D01*
X134471256Y-97648653D01*
X134301238Y-98108402D01*
X134193134Y-98552288D01*
X134134542Y-99035876D01*
X134113062Y-99614732D01*
X134112000Y-99821999D01*
X132383897Y-99821999D01*
X132388929Y-99276816D01*
X132407186Y-98853108D01*
X132443415Y-98503230D01*
X132502359Y-98179535D01*
X132577811Y-97874709D01*
X132960322Y-96769161D01*
X133483752Y-95750277D01*
X134137967Y-94828190D01*
X134912835Y-94013035D01*
X135798221Y-93314944D01*
X136783993Y-92744051D01*
X137860016Y-92310489D01*
X138260709Y-92191811D01*
X138899788Y-92066605D01*
X139640013Y-91997628D01*
X140422808Y-91984881D01*
X141189594Y-92028362D01*
X141189594Y-92028362D01*
G37*
X141189594Y-92028362D02*
X141881794Y-92128072D01*
X142155290Y-92191811D01*
X143260838Y-92574322D01*
X144279722Y-93097752D01*
X145201809Y-93751967D01*
X146016964Y-94526835D01*
X146715055Y-95412221D01*
X147285948Y-96397993D01*
X147719510Y-97474016D01*
X147838188Y-97874709D01*
X147963394Y-98513788D01*
X148032371Y-99254013D01*
X148045118Y-100036808D01*
X148001637Y-100803594D01*
X147901927Y-101495794D01*
X147838188Y-101769290D01*
X147458420Y-102866866D01*
X146938577Y-103880712D01*
X146289701Y-104799798D01*
X145522832Y-105613096D01*
X144649012Y-106309578D01*
X143679283Y-106878217D01*
X142624686Y-107307983D01*
X142155290Y-107445413D01*
X141746756Y-107527815D01*
X141237679Y-107595336D01*
X140679179Y-107644656D01*
X140122374Y-107672455D01*
X139618384Y-107675413D01*
X139218328Y-107650211D01*
X139149666Y-107640611D01*
X137999737Y-107375156D01*
X136924606Y-106964009D01*
X135934770Y-106416550D01*
X135040727Y-105742156D01*
X134252974Y-104950205D01*
X133582009Y-104050077D01*
X133038328Y-103051149D01*
X132632429Y-101962799D01*
X132577811Y-101769290D01*
X132494647Y-101428809D01*
X132438423Y-101104570D01*
X132404395Y-100748926D01*
X132387818Y-100314233D01*
X132383897Y-99822000D01*
X132383897Y-99821999D01*
X134112000Y-99821999D01*
X134124501Y-100441629D01*
X134170274Y-100948782D01*
X134261719Y-101399024D01*
X134411237Y-101847921D01*
X134631228Y-102351037D01*
X134715588Y-102526523D01*
X134930651Y-102948454D01*
X135128185Y-103279404D01*
X135347459Y-103573872D01*
X135627744Y-103886358D01*
X135883135Y-104146864D01*
X136240834Y-104493541D01*
X136542254Y-104751686D01*
X136842079Y-104960676D01*
X137194997Y-105159889D01*
X137509018Y-105317588D01*
X137903312Y-105500641D01*
X138282536Y-105660055D01*
X138598484Y-105776468D01*
X138774209Y-105825804D01*
X139095354Y-105866789D01*
X139533581Y-105893409D01*
X140037239Y-105905550D01*
X140554677Y-105903101D01*
X141034245Y-105885949D01*
X141424291Y-105853981D01*
X141572277Y-105831903D01*
X141838682Y-105758049D01*
X142201798Y-105625801D01*
X142608508Y-105455669D01*
X142912523Y-105314411D01*
X143334454Y-105099348D01*
X143665404Y-104901814D01*
X143959872Y-104682540D01*
X144272358Y-104402255D01*
X144532864Y-104146864D01*
X144879720Y-103788954D01*
X145137896Y-103487462D01*
X145346662Y-103187889D01*
X145545287Y-102835736D01*
X145700411Y-102526523D01*
X145944743Y-101995346D01*
X146114761Y-101535597D01*
X146222865Y-101091711D01*
X146281457Y-100608123D01*
X146302937Y-100029267D01*
X146304000Y-99822000D01*
X146291498Y-99202370D01*
X146245725Y-98695217D01*
X146154280Y-98244975D01*
X146004762Y-97796078D01*
X145784771Y-97292962D01*
X145700411Y-97117476D01*
X145485348Y-96695545D01*
X145287814Y-96364595D01*
X145068540Y-96070127D01*
X144788255Y-95757641D01*
X144532864Y-95497135D01*
X144174954Y-95150279D01*
X143873462Y-94892103D01*
X143573889Y-94683337D01*
X143221736Y-94484712D01*
X142912523Y-94329588D01*
X142381346Y-94085256D01*
X141921597Y-93915238D01*
X141477711Y-93807134D01*
X140994123Y-93748542D01*
X140415267Y-93727062D01*
X140208000Y-93725999D01*
X139588370Y-93738501D01*
X139081217Y-93784274D01*
X138630975Y-93875719D01*
X138182078Y-94025237D01*
X137678962Y-94245228D01*
X137503476Y-94329588D01*
X137081545Y-94544651D01*
X136750595Y-94742185D01*
X136456127Y-94961459D01*
X136143641Y-95241744D01*
X135883135Y-95497135D01*
X135536279Y-95855045D01*
X135278103Y-96156537D01*
X135069337Y-96456110D01*
X134870712Y-96808263D01*
X134715588Y-97117476D01*
X134471256Y-97648653D01*
X134301238Y-98108402D01*
X134193134Y-98552288D01*
X134134542Y-99035876D01*
X134113062Y-99614732D01*
X134112000Y-99821999D01*
X132383897Y-99821999D01*
X132388929Y-99276816D01*
X132407186Y-98853108D01*
X132443415Y-98503230D01*
X132502359Y-98179535D01*
X132577811Y-97874709D01*
X132960322Y-96769161D01*
X133483752Y-95750277D01*
X134137967Y-94828190D01*
X134912835Y-94013035D01*
X135798221Y-93314944D01*
X136783993Y-92744051D01*
X137860016Y-92310489D01*
X138260709Y-92191811D01*
X138899788Y-92066605D01*
X139640013Y-91997628D01*
X140422808Y-91984881D01*
X141189594Y-92028362D01*
G36*
X162906594Y-90398870D02*
X163336460Y-90409530D01*
X163678823Y-90432116D01*
X163974574Y-90470568D01*
X164264602Y-90528830D01*
X164589800Y-90610843D01*
X164598245Y-90613101D01*
X165821399Y-91016887D01*
X166937632Y-91547625D01*
X167959944Y-92212718D01*
X168901339Y-93019568D01*
X169005610Y-93122389D01*
X169829336Y-94055263D01*
X170510449Y-95067550D01*
X171056350Y-96172252D01*
X171474444Y-97382373D01*
X171514898Y-97529754D01*
X171597520Y-97856277D01*
X171656298Y-98146665D01*
X171695173Y-98441808D01*
X171718088Y-98782598D01*
X171728984Y-99209924D01*
X171731805Y-99764678D01*
X171731806Y-99779666D01*
X171729129Y-100337927D01*
X171718469Y-100767794D01*
X171695883Y-101110157D01*
X171657431Y-101405907D01*
X171599169Y-101695936D01*
X171517156Y-102021133D01*
X171514898Y-102029579D01*
X171111112Y-103252733D01*
X170580374Y-104368965D01*
X169915281Y-105391278D01*
X169108431Y-106332673D01*
X169005610Y-106436943D01*
X168047792Y-107282108D01*
X167019249Y-107973531D01*
X165922183Y-108510260D01*
X164758796Y-108891348D01*
X163531291Y-109115844D01*
X162644666Y-109179045D01*
X162167402Y-109185272D01*
X161700426Y-109178821D01*
X161295734Y-109161172D01*
X161005317Y-109133804D01*
X160993666Y-109132042D01*
X159761920Y-108855649D01*
X158582850Y-108421746D01*
X157471287Y-107837875D01*
X156442064Y-107111576D01*
X155691056Y-106436172D01*
X154867917Y-105504730D01*
X154187071Y-104493386D01*
X153641188Y-103389268D01*
X153222938Y-102179505D01*
X153181768Y-102029579D01*
X153099145Y-101703055D01*
X153040368Y-101412667D01*
X153001493Y-101117524D01*
X152978578Y-100776735D01*
X152967681Y-100349408D01*
X152964861Y-99794654D01*
X152964860Y-99779666D01*
X152965253Y-99697512D01*
X154691799Y-99697512D01*
X154700792Y-100315067D01*
X154734210Y-100886170D01*
X154792053Y-101357320D01*
X154811370Y-101458155D01*
X154956332Y-101982682D01*
X155177391Y-102584193D01*
X155450187Y-103203357D01*
X155750356Y-103780843D01*
X155801015Y-103868330D01*
X156016894Y-104176724D01*
X156333161Y-104554984D01*
X156716183Y-104969477D01*
X157132328Y-105386571D01*
X157547963Y-105772632D01*
X157929455Y-106094028D01*
X158243171Y-106317126D01*
X158259669Y-106326984D01*
X158780654Y-106607158D01*
X159357038Y-106873161D01*
X159931665Y-107101229D01*
X160447381Y-107267600D01*
X160631578Y-107313126D01*
X161033158Y-107373357D01*
X161552206Y-107412416D01*
X162138179Y-107430253D01*
X162740533Y-107426815D01*
X163308725Y-107402049D01*
X163792212Y-107355904D01*
X164026821Y-107316629D01*
X164551349Y-107171667D01*
X165152860Y-106950608D01*
X165772023Y-106677812D01*
X166349509Y-106377643D01*
X166436997Y-106326984D01*
X166745391Y-106111105D01*
X167123650Y-105794838D01*
X167538144Y-105411816D01*
X167955237Y-104995671D01*
X168341299Y-104580036D01*
X168662695Y-104198544D01*
X168885792Y-103884828D01*
X168895650Y-103868330D01*
X169198002Y-103303474D01*
X169477014Y-102687114D01*
X169708325Y-102078580D01*
X169867574Y-101537203D01*
X169885295Y-101458155D01*
X169949577Y-101022268D01*
X169989434Y-100472322D01*
X170004867Y-99861820D01*
X169995874Y-99244266D01*
X169962456Y-98673162D01*
X169904613Y-98202013D01*
X169885295Y-98101178D01*
X169740334Y-97576650D01*
X169519274Y-96975139D01*
X169246479Y-96355976D01*
X168946310Y-95778490D01*
X168895650Y-95691002D01*
X168679772Y-95382608D01*
X168363505Y-95004349D01*
X167980482Y-94589855D01*
X167564337Y-94172762D01*
X167148702Y-93786700D01*
X166767210Y-93465304D01*
X166453494Y-93242207D01*
X166436997Y-93232349D01*
X165872141Y-92929997D01*
X165255780Y-92650985D01*
X164647246Y-92419674D01*
X164105869Y-92260425D01*
X164026821Y-92242704D01*
X163590935Y-92178422D01*
X163040988Y-92138565D01*
X162430487Y-92123132D01*
X161812932Y-92132125D01*
X161241829Y-92165543D01*
X160770679Y-92223386D01*
X160669844Y-92242704D01*
X160145317Y-92387665D01*
X159543806Y-92608725D01*
X158924642Y-92881520D01*
X158347156Y-93181689D01*
X158259669Y-93232349D01*
X157951275Y-93448227D01*
X157573015Y-93764494D01*
X157158522Y-94147517D01*
X156741428Y-94563662D01*
X156355367Y-94979297D01*
X156033971Y-95360789D01*
X155810873Y-95674505D01*
X155801015Y-95691002D01*
X155498664Y-96255858D01*
X155219652Y-96872219D01*
X154988340Y-97480753D01*
X154829092Y-98022130D01*
X154811370Y-98101178D01*
X154747088Y-98537064D01*
X154707231Y-99087011D01*
X154691799Y-99697512D01*
X152965253Y-99697512D01*
X152967537Y-99221405D01*
X152978197Y-98791539D01*
X153000782Y-98449176D01*
X153039235Y-98153425D01*
X153097496Y-97863397D01*
X153179510Y-97538199D01*
X153181768Y-97529754D01*
X153585554Y-96306600D01*
X154116292Y-95190367D01*
X154781385Y-94168055D01*
X155588235Y-93226660D01*
X155691056Y-93122389D01*
X156623929Y-92298663D01*
X157636216Y-91617550D01*
X158740919Y-91071649D01*
X159951039Y-90653555D01*
X160098420Y-90613101D01*
X160424944Y-90530479D01*
X160715332Y-90471701D01*
X161010475Y-90432826D01*
X161351264Y-90409911D01*
X161778591Y-90399015D01*
X162333345Y-90396194D01*
X162348333Y-90396193D01*
X162906594Y-90398870D01*
X162906594Y-90398870D01*
G37*
X162906594Y-90398870D02*
X163336460Y-90409530D01*
X163678823Y-90432116D01*
X163974574Y-90470568D01*
X164264602Y-90528830D01*
X164589800Y-90610843D01*
X164598245Y-90613101D01*
X165821399Y-91016887D01*
X166937632Y-91547625D01*
X167959944Y-92212718D01*
X168901339Y-93019568D01*
X169005610Y-93122389D01*
X169829336Y-94055263D01*
X170510449Y-95067550D01*
X171056350Y-96172252D01*
X171474444Y-97382373D01*
X171514898Y-97529754D01*
X171597520Y-97856277D01*
X171656298Y-98146665D01*
X171695173Y-98441808D01*
X171718088Y-98782598D01*
X171728984Y-99209924D01*
X171731805Y-99764678D01*
X171731806Y-99779666D01*
X171729129Y-100337927D01*
X171718469Y-100767794D01*
X171695883Y-101110157D01*
X171657431Y-101405907D01*
X171599169Y-101695936D01*
X171517156Y-102021133D01*
X171514898Y-102029579D01*
X171111112Y-103252733D01*
X170580374Y-104368965D01*
X169915281Y-105391278D01*
X169108431Y-106332673D01*
X169005610Y-106436943D01*
X168047792Y-107282108D01*
X167019249Y-107973531D01*
X165922183Y-108510260D01*
X164758796Y-108891348D01*
X163531291Y-109115844D01*
X162644666Y-109179045D01*
X162167402Y-109185272D01*
X161700426Y-109178821D01*
X161295734Y-109161172D01*
X161005317Y-109133804D01*
X160993666Y-109132042D01*
X159761920Y-108855649D01*
X158582850Y-108421746D01*
X157471287Y-107837875D01*
X156442064Y-107111576D01*
X155691056Y-106436172D01*
X154867917Y-105504730D01*
X154187071Y-104493386D01*
X153641188Y-103389268D01*
X153222938Y-102179505D01*
X153181768Y-102029579D01*
X153099145Y-101703055D01*
X153040368Y-101412667D01*
X153001493Y-101117524D01*
X152978578Y-100776735D01*
X152967681Y-100349408D01*
X152964861Y-99794654D01*
X152964860Y-99779666D01*
X152965253Y-99697512D01*
X154691799Y-99697512D01*
X154700792Y-100315067D01*
X154734210Y-100886170D01*
X154792053Y-101357320D01*
X154811370Y-101458155D01*
X154956332Y-101982682D01*
X155177391Y-102584193D01*
X155450187Y-103203357D01*
X155750356Y-103780843D01*
X155801015Y-103868330D01*
X156016894Y-104176724D01*
X156333161Y-104554984D01*
X156716183Y-104969477D01*
X157132328Y-105386571D01*
X157547963Y-105772632D01*
X157929455Y-106094028D01*
X158243171Y-106317126D01*
X158259669Y-106326984D01*
X158780654Y-106607158D01*
X159357038Y-106873161D01*
X159931665Y-107101229D01*
X160447381Y-107267600D01*
X160631578Y-107313126D01*
X161033158Y-107373357D01*
X161552206Y-107412416D01*
X162138179Y-107430253D01*
X162740533Y-107426815D01*
X163308725Y-107402049D01*
X163792212Y-107355904D01*
X164026821Y-107316629D01*
X164551349Y-107171667D01*
X165152860Y-106950608D01*
X165772023Y-106677812D01*
X166349509Y-106377643D01*
X166436997Y-106326984D01*
X166745391Y-106111105D01*
X167123650Y-105794838D01*
X167538144Y-105411816D01*
X167955237Y-104995671D01*
X168341299Y-104580036D01*
X168662695Y-104198544D01*
X168885792Y-103884828D01*
X168895650Y-103868330D01*
X169198002Y-103303474D01*
X169477014Y-102687114D01*
X169708325Y-102078580D01*
X169867574Y-101537203D01*
X169885295Y-101458155D01*
X169949577Y-101022268D01*
X169989434Y-100472322D01*
X170004867Y-99861820D01*
X169995874Y-99244266D01*
X169962456Y-98673162D01*
X169904613Y-98202013D01*
X169885295Y-98101178D01*
X169740334Y-97576650D01*
X169519274Y-96975139D01*
X169246479Y-96355976D01*
X168946310Y-95778490D01*
X168895650Y-95691002D01*
X168679772Y-95382608D01*
X168363505Y-95004349D01*
X167980482Y-94589855D01*
X167564337Y-94172762D01*
X167148702Y-93786700D01*
X166767210Y-93465304D01*
X166453494Y-93242207D01*
X166436997Y-93232349D01*
X165872141Y-92929997D01*
X165255780Y-92650985D01*
X164647246Y-92419674D01*
X164105869Y-92260425D01*
X164026821Y-92242704D01*
X163590935Y-92178422D01*
X163040988Y-92138565D01*
X162430487Y-92123132D01*
X161812932Y-92132125D01*
X161241829Y-92165543D01*
X160770679Y-92223386D01*
X160669844Y-92242704D01*
X160145317Y-92387665D01*
X159543806Y-92608725D01*
X158924642Y-92881520D01*
X158347156Y-93181689D01*
X158259669Y-93232349D01*
X157951275Y-93448227D01*
X157573015Y-93764494D01*
X157158522Y-94147517D01*
X156741428Y-94563662D01*
X156355367Y-94979297D01*
X156033971Y-95360789D01*
X155810873Y-95674505D01*
X155801015Y-95691002D01*
X155498664Y-96255858D01*
X155219652Y-96872219D01*
X154988340Y-97480753D01*
X154829092Y-98022130D01*
X154811370Y-98101178D01*
X154747088Y-98537064D01*
X154707231Y-99087011D01*
X154691799Y-99697512D01*
X152965253Y-99697512D01*
X152967537Y-99221405D01*
X152978197Y-98791539D01*
X153000782Y-98449176D01*
X153039235Y-98153425D01*
X153097496Y-97863397D01*
X153179510Y-97538199D01*
X153181768Y-97529754D01*
X153585554Y-96306600D01*
X154116292Y-95190367D01*
X154781385Y-94168055D01*
X155588235Y-93226660D01*
X155691056Y-93122389D01*
X156623929Y-92298663D01*
X157636216Y-91617550D01*
X158740919Y-91071649D01*
X159951039Y-90653555D01*
X160098420Y-90613101D01*
X160424944Y-90530479D01*
X160715332Y-90471701D01*
X161010475Y-90432826D01*
X161351264Y-90409911D01*
X161778591Y-90399015D01*
X162333345Y-90396194D01*
X162348333Y-90396193D01*
X162906594Y-90398870D01*
G36*
X163287594Y-110739695D02*
X163979794Y-110839406D01*
X164253290Y-110903144D01*
X165358838Y-111285655D01*
X166377722Y-111809085D01*
X167299809Y-112463300D01*
X168114964Y-113238168D01*
X168813055Y-114123554D01*
X169383948Y-115109326D01*
X169817510Y-116185350D01*
X169936188Y-116586042D01*
X170061394Y-117225121D01*
X170130371Y-117965347D01*
X170143118Y-118748142D01*
X170099637Y-119514928D01*
X169999927Y-120207127D01*
X169936188Y-120480623D01*
X169556420Y-121578200D01*
X169036577Y-122592045D01*
X168387701Y-123511131D01*
X167620832Y-124324429D01*
X166747012Y-125020912D01*
X165777283Y-125589550D01*
X164722686Y-126019317D01*
X164253290Y-126156747D01*
X163844756Y-126239148D01*
X163335679Y-126306669D01*
X162777179Y-126355989D01*
X162220374Y-126383788D01*
X161716384Y-126386747D01*
X161316328Y-126361545D01*
X161247666Y-126351944D01*
X160097737Y-126086489D01*
X159022606Y-125675342D01*
X158032770Y-125127883D01*
X157138727Y-124453489D01*
X156350974Y-123661538D01*
X155680009Y-122761410D01*
X155136328Y-121762482D01*
X154730429Y-120674133D01*
X154675811Y-120480623D01*
X154592647Y-120140143D01*
X154536423Y-119815903D01*
X154502395Y-119460260D01*
X154485818Y-119025566D01*
X154481897Y-118533333D01*
X156210000Y-118533333D01*
X156222501Y-119152963D01*
X156268274Y-119660116D01*
X156359719Y-120110357D01*
X156509237Y-120559254D01*
X156729228Y-121062371D01*
X156813588Y-121237856D01*
X157028651Y-121659787D01*
X157226185Y-121990737D01*
X157445459Y-122285205D01*
X157725744Y-122597691D01*
X157981135Y-122858198D01*
X158338834Y-123204874D01*
X158640254Y-123463019D01*
X158940079Y-123672010D01*
X159292997Y-123871222D01*
X159607018Y-124028922D01*
X160001312Y-124211974D01*
X160380536Y-124371389D01*
X160696484Y-124487801D01*
X160872209Y-124537137D01*
X161193354Y-124578123D01*
X161631581Y-124604742D01*
X162135239Y-124616884D01*
X162652677Y-124614435D01*
X163132245Y-124597282D01*
X163522291Y-124565314D01*
X163670277Y-124543237D01*
X163936682Y-124469382D01*
X164299798Y-124337134D01*
X164706508Y-124167002D01*
X165010523Y-124025745D01*
X165884390Y-123513941D01*
X166632226Y-122890359D01*
X167261002Y-122148030D01*
X167777685Y-121279984D01*
X167798411Y-121237856D01*
X168042743Y-120706679D01*
X168212761Y-120246930D01*
X168320865Y-119803045D01*
X168379457Y-119319456D01*
X168400937Y-118740600D01*
X168402000Y-118533333D01*
X168389498Y-117913703D01*
X168343725Y-117406550D01*
X168252280Y-116956308D01*
X168102762Y-116507412D01*
X167882771Y-116004295D01*
X167798411Y-115828809D01*
X167583348Y-115406879D01*
X167385814Y-115075929D01*
X167166540Y-114781460D01*
X166886255Y-114468974D01*
X166630864Y-114208468D01*
X166272954Y-113861612D01*
X165971462Y-113603436D01*
X165671889Y-113394670D01*
X165319736Y-113196045D01*
X165010523Y-113040921D01*
X164479346Y-112796589D01*
X164019597Y-112626571D01*
X163575711Y-112518467D01*
X163092123Y-112459875D01*
X162513267Y-112438395D01*
X162306000Y-112437333D01*
X161686370Y-112449835D01*
X161179217Y-112495607D01*
X160728975Y-112587052D01*
X160280078Y-112736570D01*
X159776962Y-112956562D01*
X159601476Y-113040921D01*
X159179545Y-113255984D01*
X158848595Y-113453518D01*
X158554127Y-113672793D01*
X158241641Y-113953078D01*
X157981135Y-114208468D01*
X157634279Y-114566378D01*
X157376103Y-114867870D01*
X157167337Y-115167443D01*
X156968712Y-115519597D01*
X156813588Y-115828809D01*
X156569256Y-116359987D01*
X156399238Y-116819735D01*
X156291134Y-117263621D01*
X156232542Y-117747209D01*
X156211062Y-118326066D01*
X156210000Y-118533333D01*
X154481897Y-118533333D01*
X154486929Y-117988150D01*
X154505186Y-117564442D01*
X154541415Y-117214563D01*
X154600359Y-116890869D01*
X154675811Y-116586042D01*
X155058322Y-115480494D01*
X155581752Y-114461610D01*
X156235967Y-113539523D01*
X157010835Y-112724368D01*
X157896221Y-112026277D01*
X158881993Y-111455384D01*
X159958016Y-111021822D01*
X160358709Y-110903144D01*
X160997788Y-110777938D01*
X161738013Y-110708962D01*
X162520808Y-110696214D01*
X163287594Y-110739695D01*
X163287594Y-110739695D01*
G37*
X163287594Y-110739695D02*
X163979794Y-110839406D01*
X164253290Y-110903144D01*
X165358838Y-111285655D01*
X166377722Y-111809085D01*
X167299809Y-112463300D01*
X168114964Y-113238168D01*
X168813055Y-114123554D01*
X169383948Y-115109326D01*
X169817510Y-116185350D01*
X169936188Y-116586042D01*
X170061394Y-117225121D01*
X170130371Y-117965347D01*
X170143118Y-118748142D01*
X170099637Y-119514928D01*
X169999927Y-120207127D01*
X169936188Y-120480623D01*
X169556420Y-121578200D01*
X169036577Y-122592045D01*
X168387701Y-123511131D01*
X167620832Y-124324429D01*
X166747012Y-125020912D01*
X165777283Y-125589550D01*
X164722686Y-126019317D01*
X164253290Y-126156747D01*
X163844756Y-126239148D01*
X163335679Y-126306669D01*
X162777179Y-126355989D01*
X162220374Y-126383788D01*
X161716384Y-126386747D01*
X161316328Y-126361545D01*
X161247666Y-126351944D01*
X160097737Y-126086489D01*
X159022606Y-125675342D01*
X158032770Y-125127883D01*
X157138727Y-124453489D01*
X156350974Y-123661538D01*
X155680009Y-122761410D01*
X155136328Y-121762482D01*
X154730429Y-120674133D01*
X154675811Y-120480623D01*
X154592647Y-120140143D01*
X154536423Y-119815903D01*
X154502395Y-119460260D01*
X154485818Y-119025566D01*
X154481897Y-118533333D01*
X156210000Y-118533333D01*
X156222501Y-119152963D01*
X156268274Y-119660116D01*
X156359719Y-120110357D01*
X156509237Y-120559254D01*
X156729228Y-121062371D01*
X156813588Y-121237856D01*
X157028651Y-121659787D01*
X157226185Y-121990737D01*
X157445459Y-122285205D01*
X157725744Y-122597691D01*
X157981135Y-122858198D01*
X158338834Y-123204874D01*
X158640254Y-123463019D01*
X158940079Y-123672010D01*
X159292997Y-123871222D01*
X159607018Y-124028922D01*
X160001312Y-124211974D01*
X160380536Y-124371389D01*
X160696484Y-124487801D01*
X160872209Y-124537137D01*
X161193354Y-124578123D01*
X161631581Y-124604742D01*
X162135239Y-124616884D01*
X162652677Y-124614435D01*
X163132245Y-124597282D01*
X163522291Y-124565314D01*
X163670277Y-124543237D01*
X163936682Y-124469382D01*
X164299798Y-124337134D01*
X164706508Y-124167002D01*
X165010523Y-124025745D01*
X165884390Y-123513941D01*
X166632226Y-122890359D01*
X167261002Y-122148030D01*
X167777685Y-121279984D01*
X167798411Y-121237856D01*
X168042743Y-120706679D01*
X168212761Y-120246930D01*
X168320865Y-119803045D01*
X168379457Y-119319456D01*
X168400937Y-118740600D01*
X168402000Y-118533333D01*
X168389498Y-117913703D01*
X168343725Y-117406550D01*
X168252280Y-116956308D01*
X168102762Y-116507412D01*
X167882771Y-116004295D01*
X167798411Y-115828809D01*
X167583348Y-115406879D01*
X167385814Y-115075929D01*
X167166540Y-114781460D01*
X166886255Y-114468974D01*
X166630864Y-114208468D01*
X166272954Y-113861612D01*
X165971462Y-113603436D01*
X165671889Y-113394670D01*
X165319736Y-113196045D01*
X165010523Y-113040921D01*
X164479346Y-112796589D01*
X164019597Y-112626571D01*
X163575711Y-112518467D01*
X163092123Y-112459875D01*
X162513267Y-112438395D01*
X162306000Y-112437333D01*
X161686370Y-112449835D01*
X161179217Y-112495607D01*
X160728975Y-112587052D01*
X160280078Y-112736570D01*
X159776962Y-112956562D01*
X159601476Y-113040921D01*
X159179545Y-113255984D01*
X158848595Y-113453518D01*
X158554127Y-113672793D01*
X158241641Y-113953078D01*
X157981135Y-114208468D01*
X157634279Y-114566378D01*
X157376103Y-114867870D01*
X157167337Y-115167443D01*
X156968712Y-115519597D01*
X156813588Y-115828809D01*
X156569256Y-116359987D01*
X156399238Y-116819735D01*
X156291134Y-117263621D01*
X156232542Y-117747209D01*
X156211062Y-118326066D01*
X156210000Y-118533333D01*
X154481897Y-118533333D01*
X154486929Y-117988150D01*
X154505186Y-117564442D01*
X154541415Y-117214563D01*
X154600359Y-116890869D01*
X154675811Y-116586042D01*
X155058322Y-115480494D01*
X155581752Y-114461610D01*
X156235967Y-113539523D01*
X157010835Y-112724368D01*
X157896221Y-112026277D01*
X158881993Y-111455384D01*
X159958016Y-111021822D01*
X160358709Y-110903144D01*
X160997788Y-110777938D01*
X161738013Y-110708962D01*
X162520808Y-110696214D01*
X163287594Y-110739695D01*
G04 #@! TD*
M02*
