G04 #@! TF.GenerationSoftware,KiCad,Pcbnew,(5.0.1-3-g963ef8bb5)*
G04 #@! TF.CreationDate,2019-04-07T15:35:03+01:00*
G04 #@! TF.ProjectId,invitation,696E7669746174696F6E2E6B69636164,rev?*
G04 #@! TF.SameCoordinates,Original*
G04 #@! TF.FileFunction,Profile,NP*
%FSLAX46Y46*%
G04 Gerber Fmt 4.6, Leading zero omitted, Abs format (unit mm)*
G04 Created by KiCad (PCBNEW (5.0.1-3-g963ef8bb5)) date Sunday, 07 April 2019 at 15:35:03*
%MOMM*%
%LPD*%
G01*
G04 APERTURE LIST*
%ADD10C,0.150000*%
G04 #@! TA.AperFunction,NonConductor*
%ADD11C,0.100000*%
G04 #@! TD*
G04 APERTURE END LIST*
D10*
X119310000Y-123110000D02*
X119310000Y-76050000D01*
X200350000Y-128150000D02*
X124340000Y-128150000D01*
X200340000Y-71000000D02*
X124330000Y-71000000D01*
X205380000Y-123130000D02*
X205380000Y-76050000D01*
X124350000Y-128150000D02*
G75*
G02X119310000Y-123110000I0J5040000D01*
G01*
X205380000Y-123110000D02*
G75*
G02X200340000Y-128150000I-5040000J0D01*
G01*
X200340000Y-71000000D02*
G75*
G02X205380000Y-76040000I0J-5040000D01*
G01*
X119310000Y-76040000D02*
G75*
G02X124350000Y-71000000I5040000J0D01*
G01*
D11*
G04 #@! TO.C,P1*
X160310000Y-77100000D02*
G75*
G03X159660000Y-77100000I-325000J0D01*
G01*
X159660000Y-77100000D02*
X159660000Y-77500000D01*
X159660000Y-77500000D02*
G75*
G03X160310000Y-77500000I325000J0D01*
G01*
X160310000Y-77500000D02*
X160310000Y-77100000D01*
X164510000Y-77100000D02*
G75*
G02X165160000Y-77100000I325000J0D01*
G01*
X165160000Y-77100000D02*
X165160000Y-77500000D01*
X165160000Y-77500000D02*
G75*
G02X164510000Y-77500000I-325000J0D01*
G01*
X164510000Y-77500000D02*
X164510000Y-77100000D01*
X160035000Y-74520000D02*
G75*
G02X159335000Y-74520000I-350000J0D01*
G01*
X159335000Y-74520000D02*
X159335000Y-74020000D01*
X159335000Y-74020000D02*
G75*
G02X160035000Y-74020000I350000J0D01*
G01*
X160035000Y-74020000D02*
X160035000Y-74520000D01*
X164785000Y-74520000D02*
G75*
G03X165485000Y-74520000I350000J0D01*
G01*
X165485000Y-74520000D02*
X165485000Y-74020000D01*
X165485000Y-74020000D02*
G75*
G03X164785000Y-74020000I-350000J0D01*
G01*
X164785000Y-74020000D02*
X164785000Y-74520000D01*
G04 #@! TD*
M02*
