M48
;DRILL file {KiCad (5.0.1-3-g963ef8bb5)} date Friday, 07 December 2018 at 09:48:51
;FORMAT={-:-/ absolute / inch / decimal}
FMAT,2
INCH,TZ
T1C0.0157
T2C0.0315
T3C0.0374
%
G90
G05
M72
T1
X4.7717Y-2.93
X4.95Y-3.05
X5.04Y-2.89
X5.04Y-3.06
X5.07Y-3.
X5.08Y-2.95
X5.16Y-3.12
X5.21Y-3.1983
X5.35Y-3.14
X6.0484Y-3.13
X6.3583Y-2.8602
X6.43Y-2.87
X6.79Y-2.88
X6.8Y-3.08
X7.07Y-3.3
X7.19Y-3.45
X7.27Y-3.25
X7.28Y-3.3483
X7.29Y-3.04
X7.3Y-2.99
X7.31Y-3.18
X7.35Y-2.91
X7.3705Y-3.6992
X7.38Y-2.91
X7.42Y-3.43
X7.45Y-3.21
X7.45Y-3.27
X7.4606Y-3.7886
X7.49Y-3.29
X7.5Y-2.84
X7.52Y-2.97
X7.53Y-2.86
X7.54Y-3.44
X7.56Y-3.53
X7.57Y-3.11
X7.66Y-4.01
X7.67Y-3.48
X7.69Y-3.32
X7.7Y-3.6
X7.7Y-4.33
X7.71Y-3.024
X7.72Y-3.0883
X7.7375Y-2.87
X7.75Y-3.05
X7.81Y-3.34
X7.83Y-4.33
X7.87Y-3.
X7.94Y-3.46
X7.99Y-3.01
T3
X5.82Y-2.92
X5.82Y-3.02
X6.07Y-2.91
X5.56Y-2.92
X5.56Y-3.02
X5.56Y-3.12
T2
X6.2522Y-2.9183G85X6.2522Y-2.9321
G05
X6.2925Y-3.0315G85X6.2906Y-3.0315
G05
X6.4894Y-3.0315G85X6.4874Y-3.0315
G05
X6.5278Y-2.9183G85X6.5278Y-2.9321
G05
T0
M30
