G04 #@! TF.FileFunction,Copper,L2,Bot,Signal*
%FSLAX46Y46*%
G04 Gerber Fmt 4.6, Leading zero omitted, Abs format (unit mm)*
G04 Created by KiCad (PCBNEW 4.0.4-stable) date Tuesday, 17 January 2017 'PMt' 21:45:39*
%MOMM*%
%LPD*%
G01*
G04 APERTURE LIST*
%ADD10C,0.100000*%
%ADD11R,1.500000X0.550000*%
%ADD12R,0.550000X1.500000*%
%ADD13R,0.400000X1.350000*%
%ADD14O,1.250000X0.950000*%
%ADD15O,1.000000X1.550000*%
%ADD16R,0.400000X0.600000*%
%ADD17R,0.700000X0.600000*%
%ADD18R,0.600000X0.700000*%
%ADD19R,2.032000X1.524000*%
%ADD20R,0.500000X0.600000*%
%ADD21R,2.029460X1.140460*%
%ADD22R,1.400000X1.200000*%
%ADD23C,0.600000*%
%ADD24C,0.300000*%
%ADD25C,0.250000*%
%ADD26C,0.125000*%
%ADD27C,0.254000*%
G04 APERTURE END LIST*
D10*
D11*
X191912000Y-82740000D03*
X191912000Y-81940000D03*
X191912000Y-81140000D03*
X191912000Y-80340000D03*
X191912000Y-79540000D03*
X191912000Y-78740000D03*
X191912000Y-77940000D03*
X191912000Y-77140000D03*
X191912000Y-76340000D03*
X191912000Y-75540000D03*
X191912000Y-74740000D03*
D12*
X193612000Y-73040000D03*
X194412000Y-73040000D03*
X195212000Y-73040000D03*
X196012000Y-73040000D03*
X196812000Y-73040000D03*
X197612000Y-73040000D03*
X198412000Y-73040000D03*
X199212000Y-73040000D03*
X200012000Y-73040000D03*
X200812000Y-73040000D03*
X201612000Y-73040000D03*
D11*
X203312000Y-74740000D03*
X203312000Y-75540000D03*
X203312000Y-76340000D03*
X203312000Y-77140000D03*
X203312000Y-77940000D03*
X203312000Y-78740000D03*
X203312000Y-79540000D03*
X203312000Y-80340000D03*
X203312000Y-81140000D03*
X203312000Y-81940000D03*
X203312000Y-82740000D03*
D12*
X201612000Y-84440000D03*
X200812000Y-84440000D03*
X200012000Y-84440000D03*
X199212000Y-84440000D03*
X198412000Y-84440000D03*
X197612000Y-84440000D03*
X196812000Y-84440000D03*
X196012000Y-84440000D03*
X195212000Y-84440000D03*
X194412000Y-84440000D03*
X193612000Y-84440000D03*
D13*
X160751100Y-77000540D03*
X161401100Y-77000540D03*
X162051100Y-77000540D03*
X162701100Y-77000540D03*
X163351100Y-77000540D03*
D14*
X159551100Y-77000540D03*
X164551100Y-77000540D03*
D15*
X158551100Y-74300540D03*
X165551100Y-74300540D03*
D16*
X186632000Y-78486000D03*
X185732000Y-78486000D03*
X186632000Y-80010000D03*
X185732000Y-80010000D03*
X137864000Y-73660000D03*
X136964000Y-73660000D03*
X136964000Y-76200000D03*
X137864000Y-76200000D03*
X142690000Y-73660000D03*
X141790000Y-73660000D03*
X147516000Y-76200000D03*
X146616000Y-76200000D03*
X142690000Y-76200000D03*
X141790000Y-76200000D03*
X146616000Y-73660000D03*
X147516000Y-73660000D03*
D10*
G36*
X127254000Y-72898000D02*
X127254000Y-74422000D01*
X125730000Y-74422000D01*
X125730000Y-72898000D01*
X127254000Y-72898000D01*
X127254000Y-72898000D01*
G37*
G36*
X124714000Y-72898000D02*
X124714000Y-74422000D01*
X123190000Y-74422000D01*
X123190000Y-72898000D01*
X124714000Y-72898000D01*
X124714000Y-72898000D01*
G37*
G36*
X122174000Y-72898000D02*
X122174000Y-74422000D01*
X120650000Y-74422000D01*
X120650000Y-72898000D01*
X122174000Y-72898000D01*
X122174000Y-72898000D01*
G37*
G36*
X122174000Y-75438000D02*
X122174000Y-76962000D01*
X120650000Y-76962000D01*
X120650000Y-75438000D01*
X122174000Y-75438000D01*
X122174000Y-75438000D01*
G37*
G36*
X124714000Y-75438000D02*
X124714000Y-76962000D01*
X123190000Y-76962000D01*
X123190000Y-75438000D01*
X124714000Y-75438000D01*
X124714000Y-75438000D01*
G37*
G36*
X127254000Y-75438000D02*
X127254000Y-76962000D01*
X125730000Y-76962000D01*
X125730000Y-75438000D01*
X127254000Y-75438000D01*
X127254000Y-75438000D01*
G37*
D17*
X185166000Y-98256000D03*
X185166000Y-99356000D03*
D18*
X131276000Y-76200000D03*
X132376000Y-76200000D03*
X131276000Y-73660000D03*
X132376000Y-73660000D03*
D17*
X185166000Y-102320000D03*
X185166000Y-103420000D03*
X185166000Y-106130000D03*
X185166000Y-107230000D03*
D19*
X154686000Y-76327000D03*
X154686000Y-73025000D03*
X177546000Y-76327000D03*
X177546000Y-73025000D03*
D20*
X180594000Y-73956000D03*
X180594000Y-72856000D03*
D19*
X173482000Y-76327000D03*
X173482000Y-73025000D03*
X169418000Y-76327000D03*
X169418000Y-73025000D03*
D21*
X150368000Y-76133960D03*
X150368000Y-73726040D03*
D20*
X182880000Y-73956000D03*
X182880000Y-72856000D03*
X189484000Y-72856000D03*
X189484000Y-73956000D03*
D22*
X185082000Y-72860000D03*
X187282000Y-72860000D03*
X185082000Y-74460000D03*
X187282000Y-74460000D03*
D23*
X124460000Y-80264000D03*
X126238000Y-80264000D03*
X124460000Y-79248000D03*
X141732000Y-77978000D03*
X123952000Y-83820000D03*
X190246000Y-84074000D03*
X190500000Y-80010000D03*
X200660000Y-83058000D03*
X203454000Y-83566000D03*
X202184000Y-74930000D03*
X190754000Y-72898000D03*
X195834000Y-74168000D03*
X188976000Y-74676000D03*
X183388000Y-72898000D03*
X163322000Y-78232000D03*
X169418000Y-74168000D03*
X152908000Y-72898000D03*
X146558000Y-77724000D03*
X184658000Y-82804000D03*
X181610000Y-74168000D03*
X195326000Y-75438000D03*
X156972000Y-74422000D03*
X153416000Y-74930000D03*
X171196000Y-77724000D03*
X171196000Y-82550000D03*
X196850000Y-75184000D03*
X156210000Y-72390000D03*
X153416000Y-74168000D03*
X139954000Y-71882000D03*
X139192000Y-76708000D03*
X185928000Y-82550000D03*
X198374000Y-74168000D03*
X199136000Y-71628000D03*
X203962000Y-98806000D03*
X204470000Y-77978000D03*
X204470000Y-78740000D03*
X187960000Y-106130000D03*
X201422000Y-106172000D03*
X187960000Y-102320000D03*
X201422000Y-102362000D03*
X131064000Y-85852000D03*
X144018000Y-98806000D03*
X123698000Y-72390000D03*
X189992000Y-76454000D03*
X199136000Y-83058000D03*
X186944000Y-110998000D03*
X126492000Y-84582000D03*
X190246000Y-75692000D03*
X193548000Y-76454000D03*
X192786000Y-72898000D03*
X145288000Y-84074000D03*
X200914000Y-87376000D03*
X136906000Y-84328000D03*
X145288000Y-73914000D03*
D24*
X160751100Y-77000540D02*
X160743460Y-77000540D01*
X160743460Y-77000540D02*
X159512000Y-78232000D01*
X156591000Y-78232000D02*
X154686000Y-76327000D01*
X159512000Y-78232000D02*
X156591000Y-78232000D01*
X191912000Y-81940000D02*
X162458000Y-81940000D01*
X160751100Y-80233100D02*
X160751100Y-77000540D01*
X162458000Y-81940000D02*
X160751100Y-80233100D01*
X191912000Y-77940000D02*
X193510000Y-77940000D01*
X193396000Y-81940000D02*
X191912000Y-81940000D01*
X193548000Y-81788000D02*
X193396000Y-81940000D01*
X193548000Y-77978000D02*
X193548000Y-81788000D01*
X193510000Y-77940000D02*
X193548000Y-77978000D01*
X154686000Y-76327000D02*
X150561040Y-76327000D01*
X150561040Y-76327000D02*
X150368000Y-76133960D01*
X155067000Y-75946000D02*
X154686000Y-76327000D01*
X121412000Y-76200000D02*
X121412000Y-81280000D01*
X141790000Y-77920000D02*
X141790000Y-76200000D01*
X141732000Y-77978000D02*
X141790000Y-77920000D01*
X121412000Y-81280000D02*
X123952000Y-83820000D01*
X194412000Y-84440000D02*
X194412000Y-85446000D01*
X200812000Y-85446000D02*
X200812000Y-84440000D01*
X200660000Y-85598000D02*
X200812000Y-85446000D01*
X194564000Y-85598000D02*
X200660000Y-85598000D01*
X194412000Y-85446000D02*
X194564000Y-85598000D01*
X191912000Y-79540000D02*
X190970000Y-79540000D01*
X194412000Y-83414000D02*
X194412000Y-84440000D01*
X194056000Y-83058000D02*
X194412000Y-83414000D01*
X193682912Y-83058000D02*
X194056000Y-83058000D01*
X192920912Y-83820000D02*
X193682912Y-83058000D01*
X190500000Y-83820000D02*
X192920912Y-83820000D01*
X190246000Y-84074000D02*
X190500000Y-83820000D01*
X190970000Y-79540000D02*
X190500000Y-80010000D01*
X163576000Y-78486000D02*
X163322000Y-78232000D01*
X178562000Y-78486000D02*
X163576000Y-78486000D01*
X179324000Y-77724000D02*
X178562000Y-78486000D01*
X187960000Y-77724000D02*
X179324000Y-77724000D01*
X189484000Y-79248000D02*
X187960000Y-77724000D01*
X189738000Y-79248000D02*
X189484000Y-79248000D01*
X190030000Y-79540000D02*
X189738000Y-79248000D01*
X191912000Y-79540000D02*
X190030000Y-79540000D01*
X200660000Y-83058000D02*
X200812000Y-83210000D01*
X200812000Y-83210000D02*
X200812000Y-84440000D01*
X203312000Y-74740000D02*
X202374000Y-74740000D01*
X203312000Y-83424000D02*
X203312000Y-82740000D01*
X203454000Y-83566000D02*
X203312000Y-83424000D01*
X202374000Y-74740000D02*
X202184000Y-74930000D01*
X196012000Y-73040000D02*
X196012000Y-73990000D01*
X190754000Y-72898000D02*
X189696000Y-73956000D01*
X196012000Y-73990000D02*
X195834000Y-74168000D01*
X189696000Y-73956000D02*
X189484000Y-73956000D01*
X189484000Y-73956000D02*
X189484000Y-74168000D01*
X189484000Y-74168000D02*
X188976000Y-74676000D01*
X183388000Y-72898000D02*
X183346000Y-72856000D01*
X183346000Y-72856000D02*
X182880000Y-72856000D01*
X169418000Y-73025000D02*
X169418000Y-74168000D01*
X163351100Y-78202900D02*
X163351100Y-77000540D01*
X163322000Y-78232000D02*
X163351100Y-78202900D01*
X154686000Y-73025000D02*
X154686000Y-73914000D01*
X163351100Y-76229100D02*
X163351100Y-77000540D01*
X163068000Y-75946000D02*
X163351100Y-76229100D01*
X156718000Y-75946000D02*
X163068000Y-75946000D01*
X154686000Y-73914000D02*
X156718000Y-75946000D01*
X152908000Y-72644000D02*
X152908000Y-72898000D01*
X146616000Y-77666000D02*
X146616000Y-76200000D01*
X146558000Y-77724000D02*
X146616000Y-77666000D01*
X141790000Y-76200000D02*
X141790000Y-77412000D01*
X141790000Y-77412000D02*
X141732000Y-77470000D01*
X141790000Y-73660000D02*
X141790000Y-76200000D01*
D25*
X193548000Y-82550000D02*
X196088000Y-82550000D01*
X196088000Y-82550000D02*
X196088000Y-83312000D01*
X192532000Y-83312000D02*
X192786000Y-83312000D01*
X192786000Y-83312000D02*
X193548000Y-82550000D01*
X196088000Y-83312000D02*
X195212000Y-83312000D01*
X195212000Y-83312000D02*
X195212000Y-84440000D01*
X180594000Y-73956000D02*
X181398000Y-73956000D01*
X185166000Y-83312000D02*
X192532000Y-83312000D01*
X184658000Y-82804000D02*
X185166000Y-83312000D01*
X181398000Y-73956000D02*
X181610000Y-74168000D01*
D24*
X185166000Y-98552000D02*
X185166000Y-98256000D01*
X185166000Y-95504000D02*
X185166000Y-98552000D01*
X177292000Y-87630000D02*
X185166000Y-95504000D01*
X176276000Y-87630000D02*
X177292000Y-87630000D01*
X171196000Y-82550000D02*
X176276000Y-87630000D01*
X195212000Y-73040000D02*
X195212000Y-75324000D01*
X195212000Y-75324000D02*
X195326000Y-75438000D01*
X157988000Y-75438000D02*
X158242000Y-75438000D01*
X156972000Y-74422000D02*
X157988000Y-75438000D01*
X150368000Y-73726040D02*
X150368000Y-74422000D01*
X153162000Y-75184000D02*
X153416000Y-74930000D01*
X151130000Y-75184000D02*
X153162000Y-75184000D01*
X150368000Y-74422000D02*
X151130000Y-75184000D01*
X171196000Y-77724000D02*
X172593000Y-76327000D01*
X172593000Y-76327000D02*
X173482000Y-76327000D01*
X201422000Y-75540000D02*
X201422000Y-84250000D01*
X201422000Y-84250000D02*
X201612000Y-84440000D01*
X197206000Y-75540000D02*
X201422000Y-75540000D01*
X196850000Y-75184000D02*
X197206000Y-75540000D01*
X201422000Y-75540000D02*
X203312000Y-75540000D01*
X131276000Y-76200000D02*
X131276000Y-77682000D01*
X147516000Y-72956000D02*
X147516000Y-73660000D01*
X147574000Y-72898000D02*
X147516000Y-72956000D01*
X141224000Y-72898000D02*
X147574000Y-72898000D01*
X140716000Y-73406000D02*
X141224000Y-72898000D01*
X140716000Y-76962000D02*
X140716000Y-73406000D01*
X139700000Y-77978000D02*
X140716000Y-76962000D01*
X131572000Y-77978000D02*
X139700000Y-77978000D01*
X131276000Y-77682000D02*
X131572000Y-77978000D01*
X193612000Y-86106000D02*
X201422000Y-86106000D01*
X201612000Y-85916000D02*
X201612000Y-84440000D01*
X201422000Y-86106000D02*
X201612000Y-85916000D01*
X185166000Y-98256000D02*
X190288000Y-98256000D01*
X193612000Y-94932000D02*
X193612000Y-86106000D01*
X193612000Y-86106000D02*
X193612000Y-84440000D01*
X190288000Y-98256000D02*
X193612000Y-94932000D01*
X165354000Y-75692000D02*
X164084000Y-75692000D01*
X163830000Y-75438000D02*
X158242000Y-75438000D01*
X164084000Y-75692000D02*
X163830000Y-75438000D01*
X169418000Y-76327000D02*
X165989000Y-76327000D01*
X165989000Y-76327000D02*
X165354000Y-75692000D01*
X147516000Y-73660000D02*
X150301960Y-73660000D01*
X150301960Y-73660000D02*
X150368000Y-73726040D01*
X169418000Y-76327000D02*
X173482000Y-76327000D01*
X131276000Y-76200000D02*
X131276000Y-73660000D01*
X126492000Y-76200000D02*
X131276000Y-76200000D01*
D25*
X142690000Y-76200000D02*
X144018000Y-76200000D01*
X179112000Y-103420000D02*
X185166000Y-103420000D01*
X170434000Y-94742000D02*
X179112000Y-103420000D01*
X163322000Y-94742000D02*
X170434000Y-94742000D01*
X148336000Y-79756000D02*
X163322000Y-94742000D01*
X148336000Y-75692000D02*
X148336000Y-79756000D01*
X147828000Y-75184000D02*
X148336000Y-75692000D01*
X145034000Y-75184000D02*
X147828000Y-75184000D01*
X144018000Y-76200000D02*
X145034000Y-75184000D01*
X185166000Y-107230000D02*
X181906000Y-107230000D01*
X147516000Y-79952000D02*
X147516000Y-76200000D01*
X163068000Y-95504000D02*
X147516000Y-79952000D01*
X170180000Y-95504000D02*
X163068000Y-95504000D01*
X181906000Y-107230000D02*
X170180000Y-95504000D01*
D26*
X191912000Y-80340000D02*
X190787000Y-80340000D01*
X190787000Y-80340000D02*
X190539500Y-80587500D01*
X190539500Y-80587500D02*
X190277166Y-80587500D01*
X190277166Y-80587500D02*
X188785166Y-79095500D01*
X188785166Y-79095500D02*
X187691500Y-79095500D01*
X187691500Y-79095500D02*
X187082000Y-78486000D01*
X187082000Y-78486000D02*
X186632000Y-78486000D01*
X187691500Y-79400500D02*
X187082000Y-80010000D01*
X188658834Y-79400500D02*
X187691500Y-79400500D01*
X190150834Y-80892500D02*
X188658834Y-79400500D01*
X187082000Y-80010000D02*
X186632000Y-80010000D01*
X191912000Y-81140000D02*
X190787000Y-81140000D01*
X190787000Y-81140000D02*
X190539500Y-80892500D01*
X190539500Y-80892500D02*
X190150834Y-80892500D01*
D25*
X158496000Y-72898000D02*
X157988000Y-72390000D01*
X157988000Y-72390000D02*
X156210000Y-72390000D01*
X153416000Y-74168000D02*
X152908000Y-74168000D01*
X152908000Y-74168000D02*
X151638000Y-72898000D01*
X151638000Y-72898000D02*
X151638000Y-72644000D01*
X151638000Y-72644000D02*
X151384000Y-72390000D01*
X151384000Y-72390000D02*
X139134000Y-72390000D01*
X139134000Y-72390000D02*
X137864000Y-73660000D01*
X191912000Y-77140000D02*
X189408000Y-77140000D01*
X166116000Y-72898000D02*
X158496000Y-72898000D01*
X168402000Y-75184000D02*
X166116000Y-72898000D01*
X179324000Y-75184000D02*
X168402000Y-75184000D01*
X180086000Y-75946000D02*
X179324000Y-75184000D01*
X188214000Y-75946000D02*
X180086000Y-75946000D01*
X189408000Y-77140000D02*
X188214000Y-75946000D01*
X193294000Y-74676000D02*
X194564000Y-75946000D01*
X196088000Y-75946000D02*
X196088000Y-74676000D01*
X194564000Y-75946000D02*
X196088000Y-75946000D01*
X190500000Y-74676000D02*
X190500000Y-73660000D01*
X192278000Y-73660000D02*
X193294000Y-74676000D01*
X190500000Y-73660000D02*
X192278000Y-73660000D01*
X201612000Y-73040000D02*
X201612000Y-73724000D01*
X201612000Y-73724000D02*
X200660000Y-74676000D01*
X200660000Y-74676000D02*
X196088000Y-74676000D01*
X190500000Y-74676000D02*
X189738000Y-75438000D01*
X189738000Y-75438000D02*
X180848000Y-75438000D01*
X180848000Y-75438000D02*
X180086000Y-74676000D01*
X180086000Y-74676000D02*
X168656000Y-74676000D01*
X168656000Y-74676000D02*
X165608000Y-71628000D01*
X165608000Y-71628000D02*
X140208000Y-71628000D01*
X140208000Y-71628000D02*
X139954000Y-71882000D01*
X139192000Y-76708000D02*
X138684000Y-76200000D01*
X138684000Y-76200000D02*
X137864000Y-76200000D01*
X177546000Y-76327000D02*
X178943000Y-76327000D01*
X189484000Y-78740000D02*
X191912000Y-78740000D01*
X187960000Y-77216000D02*
X189484000Y-78740000D01*
X179832000Y-77216000D02*
X187960000Y-77216000D01*
X178943000Y-76327000D02*
X179832000Y-77216000D01*
X191912000Y-82740000D02*
X186118000Y-82740000D01*
X186118000Y-82740000D02*
X185928000Y-82550000D01*
X198412000Y-73040000D02*
X198412000Y-74130000D01*
X198412000Y-74130000D02*
X198374000Y-74168000D01*
X199212000Y-71704000D02*
X199136000Y-71628000D01*
X199212000Y-71704000D02*
X199212000Y-73040000D01*
X203312000Y-76340000D02*
X202298000Y-76340000D01*
X203962000Y-85090000D02*
X203962000Y-98806000D01*
X201930000Y-83058000D02*
X203962000Y-85090000D01*
X201930000Y-76708000D02*
X201930000Y-83058000D01*
X202298000Y-76340000D02*
X201930000Y-76708000D01*
X204432000Y-77940000D02*
X203312000Y-77940000D01*
X204470000Y-77978000D02*
X204432000Y-77940000D01*
X204470000Y-78740000D02*
X203312000Y-78740000D01*
X201422000Y-106130000D02*
X201422000Y-106172000D01*
X201422000Y-106130000D02*
X201464000Y-106130000D01*
X201464000Y-106130000D02*
X204978000Y-102616000D01*
X204508000Y-79540000D02*
X203312000Y-79540000D01*
X204978000Y-80010000D02*
X204508000Y-79540000D01*
X204978000Y-102616000D02*
X204978000Y-80010000D01*
X185166000Y-106130000D02*
X187960000Y-106130000D01*
X203350000Y-79502000D02*
X203312000Y-79540000D01*
X201464000Y-102320000D02*
X201422000Y-102320000D01*
X201422000Y-102362000D02*
X201422000Y-102320000D01*
X185166000Y-102320000D02*
X187960000Y-102320000D01*
X204292000Y-80340000D02*
X203312000Y-80340000D01*
X204470000Y-80518000D02*
X204292000Y-80340000D01*
X204470000Y-99314000D02*
X204470000Y-80518000D01*
X201464000Y-102320000D02*
X204470000Y-99314000D01*
X185166000Y-99356000D02*
X176318000Y-99356000D01*
X143002000Y-73660000D02*
X142690000Y-73660000D01*
X144018000Y-74676000D02*
X143002000Y-73660000D01*
X148336000Y-74676000D02*
X144018000Y-74676000D01*
X148844000Y-75184000D02*
X148336000Y-74676000D01*
X148844000Y-77216000D02*
X148844000Y-75184000D01*
X149098000Y-77470000D02*
X148844000Y-77216000D01*
X149098000Y-79502000D02*
X149098000Y-77470000D01*
X163576000Y-93980000D02*
X149098000Y-79502000D01*
X163830000Y-93980000D02*
X163576000Y-93980000D01*
X170942000Y-93980000D02*
X163830000Y-93980000D01*
X176318000Y-99356000D02*
X170942000Y-93980000D01*
X132376000Y-76200000D02*
X136964000Y-76200000D01*
X132376000Y-73660000D02*
X136964000Y-73660000D01*
X131064000Y-85852000D02*
X144018000Y-98806000D01*
X123952000Y-72644000D02*
X123952000Y-73660000D01*
X123698000Y-72390000D02*
X123952000Y-72644000D01*
X191912000Y-76340000D02*
X190106000Y-76340000D01*
X190106000Y-76340000D02*
X189992000Y-76454000D01*
X194818000Y-81534000D02*
X195072000Y-81534000D01*
X198120000Y-82042000D02*
X199136000Y-83058000D01*
X195580000Y-82042000D02*
X198120000Y-82042000D01*
X195072000Y-81534000D02*
X195580000Y-82042000D01*
X194818000Y-81534000D02*
X194818000Y-76962000D01*
X194818000Y-76962000D02*
X194564000Y-76708000D01*
X126492000Y-73660000D02*
X126492000Y-74930000D01*
X125222000Y-75184000D02*
X125222000Y-75692000D01*
X126238000Y-75184000D02*
X125222000Y-75184000D01*
X126492000Y-74930000D02*
X126238000Y-75184000D01*
X183642000Y-110998000D02*
X186944000Y-110998000D01*
X169672000Y-97028000D02*
X183642000Y-110998000D01*
X162560000Y-97028000D02*
X169672000Y-97028000D01*
X151892000Y-86360000D02*
X162560000Y-97028000D01*
X144018000Y-86360000D02*
X151892000Y-86360000D01*
X140716000Y-83058000D02*
X144018000Y-86360000D01*
X136906000Y-83058000D02*
X140716000Y-83058000D01*
X135382000Y-84582000D02*
X136906000Y-83058000D01*
X127762000Y-84582000D02*
X135382000Y-84582000D01*
X125222000Y-82042000D02*
X127762000Y-84582000D01*
X125222000Y-75692000D02*
X125222000Y-82042000D01*
X194564000Y-76708000D02*
X192596000Y-74740000D01*
X191912000Y-74740000D02*
X192596000Y-74740000D01*
X123952000Y-78232000D02*
X123952000Y-82042000D01*
X123952000Y-82042000D02*
X126492000Y-84582000D01*
X190398000Y-75540000D02*
X190246000Y-75692000D01*
X191912000Y-75540000D02*
X190398000Y-75540000D01*
X191912000Y-75540000D02*
X192634000Y-75540000D01*
X192634000Y-75540000D02*
X193548000Y-76454000D01*
X123952000Y-78232000D02*
X123952000Y-76200000D01*
X194514000Y-74168000D02*
X194412000Y-74066000D01*
X193294000Y-74168000D02*
X194514000Y-74168000D01*
X193040000Y-73914000D02*
X193294000Y-74168000D01*
X193040000Y-73152000D02*
X193040000Y-73914000D01*
X192786000Y-72898000D02*
X193040000Y-73152000D01*
X194412000Y-74066000D02*
X194412000Y-73040000D01*
X145288000Y-84074000D02*
X150622000Y-84074000D01*
X150622000Y-84074000D02*
X162814000Y-96266000D01*
X162814000Y-96266000D02*
X169926000Y-96266000D01*
X169926000Y-96266000D02*
X181864000Y-108204000D01*
X181864000Y-108204000D02*
X191262000Y-108204000D01*
X191262000Y-108204000D02*
X194310000Y-105156000D01*
X194310000Y-105156000D02*
X194310000Y-90170000D01*
X194310000Y-90170000D02*
X197104000Y-87376000D01*
X197104000Y-87376000D02*
X200914000Y-87376000D01*
X194412000Y-73914000D02*
X194412000Y-74066000D01*
X194412000Y-73914000D02*
X194412000Y-73040000D01*
X121412000Y-73660000D02*
X120142000Y-73660000D01*
X120142000Y-73660000D02*
X119888000Y-73914000D01*
X119888000Y-73914000D02*
X119888000Y-83820000D01*
X119888000Y-83820000D02*
X121158000Y-85090000D01*
X121158000Y-85090000D02*
X136144000Y-85090000D01*
X136144000Y-85090000D02*
X136906000Y-84328000D01*
X145542000Y-73660000D02*
X146616000Y-73660000D01*
X145288000Y-73914000D02*
X145542000Y-73660000D01*
X192786000Y-72390000D02*
X192989200Y-71983600D01*
X196949535Y-72021624D02*
X196812000Y-73040000D01*
X196987535Y-71983624D02*
X196949535Y-72021624D01*
X192989200Y-71983600D02*
X196987535Y-71983624D01*
X189484000Y-72856000D02*
X189526000Y-72856000D01*
X189526000Y-72856000D02*
X189992000Y-72390000D01*
X189992000Y-72390000D02*
X192786000Y-72390000D01*
X189484000Y-72856000D02*
X188764000Y-72856000D01*
X188176000Y-74460000D02*
X187282000Y-74460000D01*
X188468000Y-74168000D02*
X188176000Y-74460000D01*
X188468000Y-73152000D02*
X188468000Y-74168000D01*
X188764000Y-72856000D02*
X188468000Y-73152000D01*
X185082000Y-72860000D02*
X185082000Y-71966000D01*
X197612000Y-71882000D02*
X197612000Y-73040000D01*
X197358000Y-71628000D02*
X197612000Y-71882000D01*
X185420000Y-71628000D02*
X197358000Y-71628000D01*
X185082000Y-71966000D02*
X185420000Y-71628000D01*
X182880000Y-73956000D02*
X183854000Y-73956000D01*
X184188000Y-72860000D02*
X185082000Y-72860000D01*
X183896000Y-73152000D02*
X184188000Y-72860000D01*
X183896000Y-73914000D02*
X183896000Y-73152000D01*
X183854000Y-73956000D02*
X183896000Y-73914000D01*
D26*
X185732000Y-80010000D02*
X185282000Y-80010000D01*
X161401100Y-78013040D02*
X161401100Y-77000540D01*
X161573600Y-78185540D02*
X161401100Y-78013040D01*
X161573600Y-78731266D02*
X161573600Y-78185540D01*
X162242834Y-79400500D02*
X161573600Y-78731266D01*
X185282000Y-80010000D02*
X184672500Y-79400500D01*
X184672500Y-79400500D02*
X162242834Y-79400500D01*
X163659112Y-79095374D02*
X163660169Y-79095004D01*
X185282000Y-78486000D02*
X185732000Y-78486000D01*
X184672500Y-79095500D02*
X185282000Y-78486000D01*
X171927917Y-79095500D02*
X184672500Y-79095500D01*
X171926822Y-79095377D02*
X171927917Y-79095500D01*
X171925783Y-79095014D02*
X171926822Y-79095377D01*
X171924851Y-79094428D02*
X171925783Y-79095014D01*
X171924072Y-79093649D02*
X171924851Y-79094428D01*
X171923486Y-79092717D02*
X171924072Y-79093649D01*
X171923123Y-79091678D02*
X171923486Y-79092717D01*
X171922876Y-79089489D02*
X171923123Y-79091678D01*
X171922513Y-79088450D02*
X171922876Y-79089489D01*
X171921927Y-79087518D02*
X171922513Y-79088450D01*
X171921148Y-79086739D02*
X171921927Y-79087518D01*
X171920216Y-79086153D02*
X171921148Y-79086739D01*
X171919177Y-79085790D02*
X171920216Y-79086153D01*
X171918083Y-79085666D02*
X171919177Y-79085790D01*
X171677917Y-79085666D02*
X171918083Y-79085666D01*
X171676822Y-79085790D02*
X171677917Y-79085666D01*
X171675783Y-79086153D02*
X171676822Y-79085790D01*
X171674851Y-79086739D02*
X171675783Y-79086153D01*
X171674072Y-79087518D02*
X171674851Y-79086739D01*
X171673486Y-79088450D02*
X171674072Y-79087518D01*
X171673123Y-79089489D02*
X171673486Y-79088450D01*
X171673000Y-79090583D02*
X171673123Y-79089489D01*
X171673000Y-79100417D02*
X171673000Y-79090583D01*
X171672876Y-79101511D02*
X171673000Y-79100417D01*
X171672513Y-79102550D02*
X171672876Y-79101511D01*
X171671927Y-79103482D02*
X171672513Y-79102550D01*
X171671148Y-79104261D02*
X171671927Y-79103482D01*
X171670216Y-79104847D02*
X171671148Y-79104261D01*
X171669177Y-79105210D02*
X171670216Y-79104847D01*
X171668083Y-79105334D02*
X171669177Y-79105210D01*
X171427917Y-79105334D02*
X171668083Y-79105334D01*
X171426822Y-79105210D02*
X171427917Y-79105334D01*
X171425783Y-79104847D02*
X171426822Y-79105210D01*
X171424851Y-79104261D02*
X171425783Y-79104847D01*
X171424072Y-79103482D02*
X171424851Y-79104261D01*
X171423486Y-79102550D02*
X171424072Y-79103482D01*
X171423123Y-79101511D02*
X171423486Y-79102550D01*
X171423000Y-79100417D02*
X171423123Y-79101511D01*
X171423000Y-79090583D02*
X171423000Y-79100417D01*
X171422876Y-79089489D02*
X171423000Y-79090583D01*
X171422513Y-79088450D02*
X171422876Y-79089489D01*
X171421927Y-79087518D02*
X171422513Y-79088450D01*
X171421148Y-79086739D02*
X171421927Y-79087518D01*
X171420216Y-79086153D02*
X171421148Y-79086739D01*
X171419177Y-79085790D02*
X171420216Y-79086153D01*
X171418083Y-79085666D02*
X171419177Y-79085790D01*
X171176822Y-79085790D02*
X171177917Y-79085666D01*
X171177917Y-79085666D02*
X171418083Y-79085666D01*
X171174072Y-79087518D02*
X171174851Y-79086739D01*
X171174851Y-79086739D02*
X171175783Y-79086153D01*
X171175783Y-79086153D02*
X171176822Y-79085790D01*
X171173486Y-79088450D02*
X171174072Y-79087518D01*
X171173000Y-79090583D02*
X171173123Y-79089489D01*
X171173123Y-79089489D02*
X171173486Y-79088450D01*
X171173000Y-79100417D02*
X171173000Y-79090583D01*
X171172876Y-79101511D02*
X171173000Y-79100417D01*
X171171148Y-79104261D02*
X171171927Y-79103482D01*
X171171927Y-79103482D02*
X171172513Y-79102550D01*
X171172513Y-79102550D02*
X171172876Y-79101511D01*
X171170216Y-79104847D02*
X171171148Y-79104261D01*
X171168083Y-79105334D02*
X171169177Y-79105210D01*
X171169177Y-79105210D02*
X171170216Y-79104847D01*
X170927917Y-79105334D02*
X171168083Y-79105334D01*
X170926822Y-79105210D02*
X170927917Y-79105334D01*
X170925783Y-79104847D02*
X170926822Y-79105210D01*
X170924072Y-79103482D02*
X170924851Y-79104261D01*
X170924851Y-79104261D02*
X170925783Y-79104847D01*
X170923000Y-79090583D02*
X170923000Y-79100417D01*
X170923000Y-79100417D02*
X170923123Y-79101511D01*
X170923123Y-79101511D02*
X170923486Y-79102550D01*
X170923486Y-79102550D02*
X170924072Y-79103482D01*
X170922876Y-79089489D02*
X170923000Y-79090583D01*
X170922513Y-79088450D02*
X170922876Y-79089489D01*
X170921148Y-79086739D02*
X170921927Y-79087518D01*
X170921927Y-79087518D02*
X170922513Y-79088450D01*
X170920216Y-79086153D02*
X170921148Y-79086739D01*
X170919177Y-79085790D02*
X170920216Y-79086153D01*
X170677917Y-79085666D02*
X170918083Y-79085666D01*
X170918083Y-79085666D02*
X170919177Y-79085790D01*
X170676822Y-79085790D02*
X170677917Y-79085666D01*
X170674072Y-79087518D02*
X170674851Y-79086739D01*
X170674851Y-79086739D02*
X170675783Y-79086153D01*
X170675783Y-79086153D02*
X170676822Y-79085790D01*
X170673486Y-79088450D02*
X170674072Y-79087518D01*
X170673000Y-79090583D02*
X170673123Y-79089489D01*
X170673123Y-79089489D02*
X170673486Y-79088450D01*
X170673000Y-79100417D02*
X170673000Y-79090583D01*
X170672876Y-79101511D02*
X170673000Y-79100417D01*
X170672513Y-79102550D02*
X170672876Y-79101511D01*
X170671927Y-79103482D02*
X170672513Y-79102550D01*
X170671148Y-79104261D02*
X170671927Y-79103482D01*
X170427917Y-79105334D02*
X170668083Y-79105334D01*
X170668083Y-79105334D02*
X170669177Y-79105210D01*
X170669177Y-79105210D02*
X170670216Y-79104847D01*
X170670216Y-79104847D02*
X170671148Y-79104261D01*
X170426822Y-79105210D02*
X170427917Y-79105334D01*
X170425783Y-79104847D02*
X170426822Y-79105210D01*
X170424072Y-79103482D02*
X170424851Y-79104261D01*
X170424851Y-79104261D02*
X170425783Y-79104847D01*
X170423486Y-79102550D02*
X170424072Y-79103482D01*
X170423000Y-79090583D02*
X170423000Y-79100417D01*
X170423000Y-79100417D02*
X170423123Y-79101511D01*
X170423123Y-79101511D02*
X170423486Y-79102550D01*
X170422876Y-79089489D02*
X170423000Y-79090583D01*
X170422513Y-79088450D02*
X170422876Y-79089489D01*
X170421927Y-79087518D02*
X170422513Y-79088450D01*
X170421148Y-79086739D02*
X170421927Y-79087518D01*
X170420216Y-79086153D02*
X170421148Y-79086739D01*
X170419177Y-79085790D02*
X170420216Y-79086153D01*
X170176822Y-79085790D02*
X170177917Y-79085666D01*
X170177917Y-79085666D02*
X170418083Y-79085666D01*
X170418083Y-79085666D02*
X170419177Y-79085790D01*
X170175783Y-79086153D02*
X170176822Y-79085790D01*
X170174851Y-79086739D02*
X170175783Y-79086153D01*
X170174072Y-79087518D02*
X170174851Y-79086739D01*
X170173486Y-79088450D02*
X170174072Y-79087518D01*
X170173123Y-79089489D02*
X170173486Y-79088450D01*
X170173000Y-79090583D02*
X170173123Y-79089489D01*
X170172876Y-79101511D02*
X170173000Y-79100417D01*
X170173000Y-79100417D02*
X170173000Y-79090583D01*
X170171148Y-79104261D02*
X170171927Y-79103482D01*
X170171927Y-79103482D02*
X170172513Y-79102550D01*
X170172513Y-79102550D02*
X170172876Y-79101511D01*
X170170216Y-79104847D02*
X170171148Y-79104261D01*
X170168083Y-79105334D02*
X170169177Y-79105210D01*
X170169177Y-79105210D02*
X170170216Y-79104847D01*
X169927917Y-79105334D02*
X170168083Y-79105334D01*
X169926822Y-79105210D02*
X169927917Y-79105334D01*
X169924851Y-79104261D02*
X169925783Y-79104847D01*
X169925783Y-79104847D02*
X169926822Y-79105210D01*
X169923486Y-79102550D02*
X169924072Y-79103482D01*
X169924072Y-79103482D02*
X169924851Y-79104261D01*
X169923000Y-79100417D02*
X169923123Y-79101511D01*
X169923123Y-79101511D02*
X169923486Y-79102550D01*
X169923000Y-79090583D02*
X169923000Y-79100417D01*
X169922876Y-79089489D02*
X169923000Y-79090583D01*
X169922513Y-79088450D02*
X169922876Y-79089489D01*
X169921148Y-79086739D02*
X169921927Y-79087518D01*
X169921927Y-79087518D02*
X169922513Y-79088450D01*
X169677917Y-79085666D02*
X169918083Y-79085666D01*
X169918083Y-79085666D02*
X169919177Y-79085790D01*
X169919177Y-79085790D02*
X169920216Y-79086153D01*
X169920216Y-79086153D02*
X169921148Y-79086739D01*
X169676822Y-79085790D02*
X169677917Y-79085666D01*
X169674072Y-79087518D02*
X169674851Y-79086739D01*
X169674851Y-79086739D02*
X169675783Y-79086153D01*
X169675783Y-79086153D02*
X169676822Y-79085790D01*
X169673123Y-79089489D02*
X169673486Y-79088450D01*
X169673486Y-79088450D02*
X169674072Y-79087518D01*
X169672917Y-79095500D02*
X169673000Y-79095500D01*
X169673000Y-79095500D02*
X169673000Y-79090583D01*
X169673000Y-79090583D02*
X169673123Y-79089489D01*
X169672793Y-79101511D02*
X169672917Y-79100417D01*
X169672917Y-79100417D02*
X169672917Y-79095500D01*
X169672430Y-79102550D02*
X169672793Y-79101511D01*
X169671844Y-79103482D02*
X169672430Y-79102550D01*
X169670133Y-79104847D02*
X169671065Y-79104261D01*
X169671065Y-79104261D02*
X169671844Y-79103482D01*
X169669094Y-79105210D02*
X169670133Y-79104847D01*
X169427834Y-79105334D02*
X169668000Y-79105334D01*
X169668000Y-79105334D02*
X169669094Y-79105210D01*
X169426739Y-79105210D02*
X169427834Y-79105334D01*
X169425700Y-79104847D02*
X169426739Y-79105210D01*
X169423989Y-79103482D02*
X169424768Y-79104261D01*
X169424768Y-79104261D02*
X169425700Y-79104847D01*
X169422793Y-79099322D02*
X169423040Y-79101511D01*
X169423040Y-79101511D02*
X169423403Y-79102550D01*
X169423403Y-79102550D02*
X169423989Y-79103482D01*
X169421844Y-79097351D02*
X169422430Y-79098283D01*
X169422430Y-79098283D02*
X169422793Y-79099322D01*
X169421065Y-79096572D02*
X169421844Y-79097351D01*
X169420133Y-79095986D02*
X169421065Y-79096572D01*
X169416887Y-79095374D02*
X169419094Y-79095623D01*
X169419094Y-79095623D02*
X169420133Y-79095986D01*
X169414882Y-79094409D02*
X169415830Y-79095004D01*
X169415830Y-79095004D02*
X169416887Y-79095374D01*
X169414090Y-79093617D02*
X169414882Y-79094409D01*
X169413495Y-79092669D02*
X169414090Y-79093617D01*
X169413125Y-79091612D02*
X169413495Y-79092669D01*
X169412874Y-79089387D02*
X169413125Y-79091612D01*
X169411117Y-79086590D02*
X169411909Y-79087382D01*
X169411909Y-79087382D02*
X169412504Y-79088330D01*
X169410169Y-79085995D02*
X169411117Y-79086590D01*
X169409112Y-79085625D02*
X169410169Y-79085995D01*
X169168000Y-79085500D02*
X169408000Y-79085500D01*
X169408000Y-79085500D02*
X169409112Y-79085625D01*
X169165830Y-79085995D02*
X169166887Y-79085625D01*
X169166887Y-79085625D02*
X169168000Y-79085500D01*
X169164882Y-79086590D02*
X169165830Y-79085995D01*
X169163495Y-79088330D02*
X169164090Y-79087382D01*
X169164090Y-79087382D02*
X169164882Y-79086590D01*
X169163000Y-79090500D02*
X169163125Y-79089387D01*
X169163125Y-79089387D02*
X169163495Y-79088330D01*
X169163000Y-79100500D02*
X169163000Y-79090500D01*
X169162874Y-79101613D02*
X169163000Y-79100500D01*
X169161909Y-79103618D02*
X169162504Y-79102670D01*
X169162504Y-79102670D02*
X169162874Y-79101613D01*
X169160169Y-79105005D02*
X169161117Y-79104410D01*
X169161117Y-79104410D02*
X169161909Y-79103618D01*
X168915830Y-79105005D02*
X168916887Y-79105375D01*
X168916887Y-79105375D02*
X168918000Y-79105500D01*
X168914882Y-79104410D02*
X168915830Y-79105005D01*
X168914090Y-79103618D02*
X168914882Y-79104410D01*
X168913495Y-79102670D02*
X168914090Y-79103618D01*
X168913125Y-79101613D02*
X168913495Y-79102670D01*
X168913000Y-79100500D02*
X168913125Y-79101613D01*
X168912874Y-79089387D02*
X168913000Y-79090500D01*
X168913000Y-79090500D02*
X168913000Y-79100500D01*
X168912504Y-79088330D02*
X168912874Y-79089387D01*
X168910169Y-79085995D02*
X168911117Y-79086590D01*
X168911117Y-79086590D02*
X168911909Y-79087382D01*
X168911909Y-79087382D02*
X168912504Y-79088330D01*
X168664090Y-79087382D02*
X168664882Y-79086590D01*
X168664882Y-79086590D02*
X168665830Y-79085995D01*
X168665830Y-79085995D02*
X168666887Y-79085625D01*
X168666887Y-79085625D02*
X168668000Y-79085500D01*
X168668000Y-79085500D02*
X168908000Y-79085500D01*
X168908000Y-79085500D02*
X168909112Y-79085625D01*
X168909112Y-79085625D02*
X168910169Y-79085995D01*
X168663495Y-79088330D02*
X168664090Y-79087382D01*
X168663000Y-79090500D02*
X168663125Y-79089387D01*
X168663125Y-79089387D02*
X168663495Y-79088330D01*
X168662874Y-79101613D02*
X168663000Y-79100500D01*
X168663000Y-79100500D02*
X168663000Y-79090500D01*
X168661909Y-79103618D02*
X168662504Y-79102670D01*
X168662504Y-79102670D02*
X168662874Y-79101613D01*
X168661117Y-79104410D02*
X168661909Y-79103618D01*
X168659112Y-79105375D02*
X168660169Y-79105005D01*
X168660169Y-79105005D02*
X168661117Y-79104410D01*
X168418000Y-79105500D02*
X168658000Y-79105500D01*
X168658000Y-79105500D02*
X168659112Y-79105375D01*
X168415830Y-79105005D02*
X168416887Y-79105375D01*
X168416887Y-79105375D02*
X168418000Y-79105500D01*
X168414090Y-79103618D02*
X168414882Y-79104410D01*
X168414882Y-79104410D02*
X168415830Y-79105005D01*
X168413495Y-79102670D02*
X168414090Y-79103618D01*
X168413000Y-79100500D02*
X168413125Y-79101613D01*
X168413125Y-79101613D02*
X168413495Y-79102670D01*
X168413000Y-79090500D02*
X168413000Y-79100500D01*
X168411909Y-79087382D02*
X168412504Y-79088330D01*
X168412504Y-79088330D02*
X168412874Y-79089387D01*
X168412874Y-79089387D02*
X168413000Y-79090500D01*
X168410169Y-79085995D02*
X168411117Y-79086590D01*
X168411117Y-79086590D02*
X168411909Y-79087382D01*
X168409112Y-79085625D02*
X168410169Y-79085995D01*
X168166887Y-79085625D02*
X168168000Y-79085500D01*
X168168000Y-79085500D02*
X168408000Y-79085500D01*
X168408000Y-79085500D02*
X168409112Y-79085625D01*
X168165830Y-79085995D02*
X168166887Y-79085625D01*
X168164090Y-79087382D02*
X168164882Y-79086590D01*
X168164882Y-79086590D02*
X168165830Y-79085995D01*
X168163000Y-79090500D02*
X168163125Y-79089387D01*
X168163125Y-79089387D02*
X168163495Y-79088330D01*
X168163495Y-79088330D02*
X168164090Y-79087382D01*
X168161909Y-79103618D02*
X168162504Y-79102670D01*
X168160169Y-79105005D02*
X168161117Y-79104410D01*
X168161117Y-79104410D02*
X168161909Y-79103618D01*
X167918000Y-79105500D02*
X168158000Y-79105500D01*
X168158000Y-79105500D02*
X168159112Y-79105375D01*
X168159112Y-79105375D02*
X168160169Y-79105005D01*
X167916887Y-79105375D02*
X167918000Y-79105500D01*
X167915830Y-79105005D02*
X167916887Y-79105375D01*
X167914882Y-79104410D02*
X167915830Y-79105005D01*
X167913125Y-79101613D02*
X167913495Y-79102670D01*
X167913495Y-79102670D02*
X167914090Y-79103618D01*
X167914090Y-79103618D02*
X167914882Y-79104410D01*
X167913000Y-79090500D02*
X167913000Y-79100500D01*
X167913000Y-79100500D02*
X167913125Y-79101613D01*
X167912504Y-79088330D02*
X167912874Y-79089387D01*
X167912874Y-79089387D02*
X167913000Y-79090500D01*
X167911117Y-79086590D02*
X167911909Y-79087382D01*
X167911909Y-79087382D02*
X167912504Y-79088330D01*
X167909112Y-79085625D02*
X167910169Y-79085995D01*
X167910169Y-79085995D02*
X167911117Y-79086590D01*
X167666887Y-79085625D02*
X167668000Y-79085500D01*
X167668000Y-79085500D02*
X167908000Y-79085500D01*
X167908000Y-79085500D02*
X167909112Y-79085625D01*
X167664090Y-79087382D02*
X167664882Y-79086590D01*
X167664882Y-79086590D02*
X167665830Y-79085995D01*
X167663495Y-79088330D02*
X167664090Y-79087382D01*
X167663125Y-79089387D02*
X167663495Y-79088330D01*
X167663000Y-79090500D02*
X167663125Y-79089387D01*
X167663000Y-79100500D02*
X167663000Y-79090500D01*
X167662874Y-79101613D02*
X167663000Y-79100500D01*
X167661909Y-79103618D02*
X167662504Y-79102670D01*
X167662504Y-79102670D02*
X167662874Y-79101613D01*
X167658000Y-79105500D02*
X167659112Y-79105375D01*
X167659112Y-79105375D02*
X167660169Y-79105005D01*
X167660169Y-79105005D02*
X167661117Y-79104410D01*
X167661117Y-79104410D02*
X167661909Y-79103618D01*
X167414882Y-79104410D02*
X167415830Y-79105005D01*
X167415830Y-79105005D02*
X167416887Y-79105375D01*
X167416887Y-79105375D02*
X167418000Y-79105500D01*
X167418000Y-79105500D02*
X167658000Y-79105500D01*
X167412504Y-79088330D02*
X167412874Y-79089387D01*
X167411909Y-79087382D02*
X167412504Y-79088330D01*
X167414090Y-79103618D02*
X167414882Y-79104410D01*
X167413495Y-79102670D02*
X167414090Y-79103618D01*
X167413125Y-79101613D02*
X167413495Y-79102670D01*
X167413000Y-79100500D02*
X167413125Y-79101613D01*
X167413000Y-79090500D02*
X167413000Y-79100500D01*
X167412874Y-79089387D02*
X167413000Y-79090500D01*
X167411117Y-79086590D02*
X167411909Y-79087382D01*
X167410169Y-79085995D02*
X167411117Y-79086590D01*
X167409112Y-79085625D02*
X167410169Y-79085995D01*
X167408000Y-79085500D02*
X167409112Y-79085625D01*
X167168000Y-79085500D02*
X167408000Y-79085500D01*
X167166887Y-79085625D02*
X167168000Y-79085500D01*
X167165830Y-79085995D02*
X167166887Y-79085625D01*
X167164882Y-79086590D02*
X167165830Y-79085995D01*
X167164090Y-79087382D02*
X167164882Y-79086590D01*
X167163495Y-79088330D02*
X167164090Y-79087382D01*
X167163125Y-79089387D02*
X167163495Y-79088330D01*
X167163000Y-79090500D02*
X167163125Y-79089387D01*
X167163000Y-79100500D02*
X167163000Y-79090500D01*
X167162874Y-79101613D02*
X167163000Y-79100500D01*
X167162504Y-79102670D02*
X167162874Y-79101613D01*
X167159112Y-79105375D02*
X167160169Y-79105005D01*
X167158000Y-79105500D02*
X167159112Y-79105375D01*
X166915830Y-79105005D02*
X166916887Y-79105375D01*
X166916887Y-79105375D02*
X166918000Y-79105500D01*
X166914882Y-79104410D02*
X166915830Y-79105005D01*
X166914090Y-79103618D02*
X166914882Y-79104410D01*
X166913495Y-79102670D02*
X166914090Y-79103618D01*
X166913125Y-79101613D02*
X166913495Y-79102670D01*
X166913000Y-79100500D02*
X166913125Y-79101613D01*
X166913000Y-79090500D02*
X166913000Y-79100500D01*
X166912874Y-79089387D02*
X166913000Y-79090500D01*
X166912504Y-79088330D02*
X166912874Y-79089387D01*
X166911909Y-79087382D02*
X166912504Y-79088330D01*
X166911117Y-79086590D02*
X166911909Y-79087382D01*
X166910169Y-79085995D02*
X166911117Y-79086590D01*
X166909112Y-79085625D02*
X166910169Y-79085995D01*
X166908000Y-79085500D02*
X166909112Y-79085625D01*
X166668000Y-79085500D02*
X166908000Y-79085500D01*
X166665830Y-79085995D02*
X166666887Y-79085625D01*
X166664882Y-79086590D02*
X166665830Y-79085995D01*
X166666887Y-79085625D02*
X166668000Y-79085500D01*
X166664090Y-79087382D02*
X166664882Y-79086590D01*
X166663495Y-79088330D02*
X166664090Y-79087382D01*
X166663125Y-79089387D02*
X166663495Y-79088330D01*
X166663000Y-79090500D02*
X166663125Y-79089387D01*
X166663000Y-79100500D02*
X166663000Y-79090500D01*
X166662874Y-79101613D02*
X166663000Y-79100500D01*
X166662504Y-79102670D02*
X166662874Y-79101613D01*
X166661909Y-79103618D02*
X166662504Y-79102670D01*
X166661117Y-79104410D02*
X166661909Y-79103618D01*
X166660169Y-79105005D02*
X166661117Y-79104410D01*
X166659112Y-79105375D02*
X166660169Y-79105005D01*
X166658000Y-79105500D02*
X166659112Y-79105375D01*
X166418000Y-79105500D02*
X166658000Y-79105500D01*
X166416887Y-79105375D02*
X166418000Y-79105500D01*
X166414090Y-79103618D02*
X166414882Y-79104410D01*
X166415830Y-79105005D02*
X166416887Y-79105375D01*
X166414882Y-79104410D02*
X166415830Y-79105005D01*
X166413495Y-79102670D02*
X166414090Y-79103618D01*
X166413000Y-79090500D02*
X166413000Y-79100500D01*
X166413000Y-79100500D02*
X166413125Y-79101613D01*
X166412874Y-79089387D02*
X166413000Y-79090500D01*
X166412504Y-79088330D02*
X166412874Y-79089387D01*
X166411909Y-79087382D02*
X166412504Y-79088330D01*
X166411117Y-79086590D02*
X166411909Y-79087382D01*
X166410169Y-79085995D02*
X166411117Y-79086590D01*
X166409112Y-79085625D02*
X166410169Y-79085995D01*
X166408000Y-79085500D02*
X166409112Y-79085625D01*
X166168000Y-79085500D02*
X166408000Y-79085500D01*
X166166887Y-79085625D02*
X166168000Y-79085500D01*
X166165830Y-79085995D02*
X166166887Y-79085625D01*
X166164882Y-79086590D02*
X166165830Y-79085995D01*
X166164090Y-79087382D02*
X166164882Y-79086590D01*
X166163495Y-79088330D02*
X166164090Y-79087382D01*
X166163125Y-79089387D02*
X166163495Y-79088330D01*
X166163000Y-79090500D02*
X166163125Y-79089387D01*
X166163000Y-79100500D02*
X166163000Y-79090500D01*
X166162874Y-79101613D02*
X166163000Y-79100500D01*
X166162504Y-79102670D02*
X166162874Y-79101613D01*
X166161909Y-79103618D02*
X166162504Y-79102670D01*
X166158000Y-79105500D02*
X166159112Y-79105375D01*
X165918000Y-79105500D02*
X166158000Y-79105500D01*
X166161117Y-79104410D02*
X166161909Y-79103618D01*
X166160169Y-79105005D02*
X166161117Y-79104410D01*
X166159112Y-79105375D02*
X166160169Y-79105005D01*
X165916887Y-79105375D02*
X165918000Y-79105500D01*
X165915830Y-79105005D02*
X165916887Y-79105375D01*
X165914882Y-79104410D02*
X165915830Y-79105005D01*
X165914090Y-79103618D02*
X165914882Y-79104410D01*
X165913495Y-79102670D02*
X165914090Y-79103618D01*
X165913125Y-79101613D02*
X165913495Y-79102670D01*
X165912874Y-79089387D02*
X165913000Y-79090500D01*
X165913000Y-79100500D02*
X165913125Y-79101613D01*
X165913000Y-79090500D02*
X165913000Y-79100500D01*
X165912504Y-79088330D02*
X165912874Y-79089387D01*
X165911909Y-79087382D02*
X165912504Y-79088330D01*
X165911117Y-79086590D02*
X165911909Y-79087382D01*
X165668000Y-79085500D02*
X165908000Y-79085500D01*
X165666887Y-79085625D02*
X165668000Y-79085500D01*
X165665830Y-79085995D02*
X165666887Y-79085625D01*
X165664882Y-79086590D02*
X165665830Y-79085995D01*
X165664090Y-79087382D02*
X165664882Y-79086590D01*
X165663495Y-79088330D02*
X165664090Y-79087382D01*
X165663125Y-79089387D02*
X165663495Y-79088330D01*
X165663000Y-79090500D02*
X165663125Y-79089387D01*
X165663000Y-79100500D02*
X165663000Y-79090500D01*
X165662874Y-79101613D02*
X165663000Y-79100500D01*
X165662504Y-79102670D02*
X165662874Y-79101613D01*
X165661909Y-79103618D02*
X165662504Y-79102670D01*
X165661117Y-79104410D02*
X165661909Y-79103618D01*
X165660169Y-79105005D02*
X165661117Y-79104410D01*
X165659112Y-79105375D02*
X165660169Y-79105005D01*
X165658000Y-79105500D02*
X165659112Y-79105375D01*
X165418000Y-79105500D02*
X165658000Y-79105500D01*
X165416887Y-79105375D02*
X165418000Y-79105500D01*
X165415830Y-79105005D02*
X165416887Y-79105375D01*
X165414882Y-79104410D02*
X165415830Y-79105005D01*
X165414090Y-79103618D02*
X165414882Y-79104410D01*
X165413495Y-79102670D02*
X165414090Y-79103618D01*
X165413125Y-79101613D02*
X165413495Y-79102670D01*
X165412504Y-79088330D02*
X165412874Y-79089387D01*
X165412874Y-79089387D02*
X165413000Y-79090500D01*
X165413000Y-79090500D02*
X165413000Y-79100500D01*
X165411117Y-79086590D02*
X165411909Y-79087382D01*
X165411909Y-79087382D02*
X165412504Y-79088330D01*
X165408000Y-79085500D02*
X165409112Y-79085625D01*
X165409112Y-79085625D02*
X165410169Y-79085995D01*
X165410169Y-79085995D02*
X165411117Y-79086590D01*
X165168000Y-79085500D02*
X165408000Y-79085500D01*
X165164882Y-79086590D02*
X165165830Y-79085995D01*
X165165830Y-79085995D02*
X165166887Y-79085625D01*
X165166887Y-79085625D02*
X165168000Y-79085500D01*
X165164090Y-79087382D02*
X165164882Y-79086590D01*
X165163495Y-79088330D02*
X165164090Y-79087382D01*
X165162874Y-79101613D02*
X165163000Y-79100500D01*
X165162504Y-79102670D02*
X165162874Y-79101613D01*
X165163125Y-79089387D02*
X165163495Y-79088330D01*
X165163000Y-79100500D02*
X165163000Y-79090500D01*
X165163000Y-79090500D02*
X165163125Y-79089387D01*
X165161117Y-79104410D02*
X165161909Y-79103618D01*
X165161909Y-79103618D02*
X165162504Y-79102670D01*
X165160169Y-79105005D02*
X165161117Y-79104410D01*
X165159112Y-79105375D02*
X165160169Y-79105005D01*
X164918000Y-79105500D02*
X165158000Y-79105500D01*
X165158000Y-79105500D02*
X165159112Y-79105375D01*
X164916887Y-79105375D02*
X164918000Y-79105500D01*
X164914882Y-79104410D02*
X164915830Y-79105005D01*
X164915830Y-79105005D02*
X164916887Y-79105375D01*
X164913000Y-79090500D02*
X164913000Y-79100500D01*
X164912874Y-79089387D02*
X164913000Y-79090500D01*
X164912504Y-79088330D02*
X164912874Y-79089387D01*
X164911909Y-79087382D02*
X164912504Y-79088330D01*
X164910169Y-79085995D02*
X164911117Y-79086590D01*
X164911117Y-79086590D02*
X164911909Y-79087382D01*
X164908000Y-79085500D02*
X164909112Y-79085625D01*
X164909112Y-79085625D02*
X164910169Y-79085995D01*
X164664882Y-79086590D02*
X164665830Y-79085995D01*
X164666887Y-79085625D02*
X164668000Y-79085500D01*
X164668000Y-79085500D02*
X164908000Y-79085500D01*
X164665830Y-79085995D02*
X164666887Y-79085625D01*
X164663495Y-79088330D02*
X164664090Y-79087382D01*
X164664090Y-79087382D02*
X164664882Y-79086590D01*
X164663125Y-79089387D02*
X164663495Y-79088330D01*
X164662874Y-79101613D02*
X164663000Y-79100500D01*
X164663000Y-79100500D02*
X164663000Y-79090500D01*
X164663000Y-79090500D02*
X164663125Y-79089387D01*
X164660169Y-79105005D02*
X164661117Y-79104410D01*
X164661117Y-79104410D02*
X164661909Y-79103618D01*
X164661909Y-79103618D02*
X164662504Y-79102670D01*
X164662504Y-79102670D02*
X164662874Y-79101613D01*
X164658000Y-79105500D02*
X164659112Y-79105375D01*
X164659112Y-79105375D02*
X164660169Y-79105005D01*
X164418000Y-79105500D02*
X164658000Y-79105500D01*
X164416887Y-79105375D02*
X164418000Y-79105500D01*
X164413000Y-79100500D02*
X164413125Y-79101613D01*
X164168000Y-79085500D02*
X164408000Y-79085500D01*
X164413495Y-79102670D02*
X164414090Y-79103618D01*
X164413000Y-79090500D02*
X164413000Y-79100500D01*
X165413000Y-79100500D02*
X165413125Y-79101613D01*
X164163000Y-79090500D02*
X164163125Y-79089387D01*
X164162504Y-79102670D02*
X164162874Y-79101613D01*
X164161117Y-79104410D02*
X164161909Y-79103618D01*
X163916887Y-79105375D02*
X163918000Y-79105500D01*
X163915830Y-79105005D02*
X163916887Y-79105375D01*
X163914882Y-79104410D02*
X163915830Y-79105005D01*
X163913125Y-79101613D02*
X163913495Y-79102670D01*
X163913495Y-79102670D02*
X163914090Y-79103618D01*
X164415830Y-79105005D02*
X164416887Y-79105375D01*
X164414882Y-79104410D02*
X164415830Y-79105005D01*
X164414090Y-79103618D02*
X164414882Y-79104410D01*
X163918000Y-79105500D02*
X164158000Y-79105500D01*
X168162874Y-79101613D02*
X168163000Y-79100500D01*
X168163000Y-79100500D02*
X168163000Y-79090500D01*
X168162504Y-79102670D02*
X168162874Y-79101613D01*
X163913000Y-79100500D02*
X163913125Y-79101613D01*
X163912504Y-79088330D02*
X163912874Y-79089387D01*
X169412504Y-79088330D02*
X169412874Y-79089387D01*
X164412504Y-79088330D02*
X164412874Y-79089387D01*
X166918000Y-79105500D02*
X167158000Y-79105500D01*
X163911117Y-79086590D02*
X163911909Y-79087382D01*
X163910169Y-79085995D02*
X163911117Y-79086590D01*
X165910169Y-79085995D02*
X165911117Y-79086590D01*
X164411909Y-79087382D02*
X164412504Y-79088330D01*
X165909112Y-79085625D02*
X165910169Y-79085995D01*
X165908000Y-79085500D02*
X165909112Y-79085625D01*
X163908000Y-79085500D02*
X163909112Y-79085625D01*
X164413125Y-79101613D02*
X164413495Y-79102670D01*
X167665830Y-79085995D02*
X167666887Y-79085625D01*
X163666887Y-79085625D02*
X163668000Y-79085500D01*
X163665830Y-79085995D02*
X163666887Y-79085625D01*
X164160169Y-79105005D02*
X164161117Y-79104410D01*
X164162874Y-79101613D02*
X164163000Y-79100500D01*
X163664882Y-79086590D02*
X163665830Y-79085995D01*
X164412874Y-79089387D02*
X164413000Y-79090500D01*
X163913000Y-79090500D02*
X163913000Y-79100500D01*
X164411117Y-79086590D02*
X164411909Y-79087382D01*
X163911909Y-79087382D02*
X163912504Y-79088330D01*
X163663125Y-79089387D02*
X163663495Y-79088330D01*
X164410169Y-79085995D02*
X164411117Y-79086590D01*
X164163000Y-79100500D02*
X164163000Y-79090500D01*
X163662504Y-79092669D02*
X163662874Y-79091612D01*
X164161909Y-79103618D02*
X164162504Y-79102670D01*
X163661909Y-79093617D02*
X163662504Y-79092669D01*
X163661117Y-79094409D02*
X163661909Y-79093617D01*
X163668000Y-79085500D02*
X163908000Y-79085500D01*
X163664090Y-79087382D02*
X163664882Y-79086590D01*
X167161909Y-79103618D02*
X167162504Y-79102670D01*
X167161117Y-79104410D02*
X167161909Y-79103618D01*
X167160169Y-79105005D02*
X167161117Y-79104410D01*
X162369166Y-79095500D02*
X163658000Y-79095500D01*
X164913000Y-79100500D02*
X164913125Y-79101613D01*
X164913125Y-79101613D02*
X164913495Y-79102670D01*
X164913495Y-79102670D02*
X164914090Y-79103618D01*
X164914090Y-79103618D02*
X164914882Y-79104410D01*
X164408000Y-79085500D02*
X164409112Y-79085625D01*
X163909112Y-79085625D02*
X163910169Y-79085995D01*
X166413125Y-79101613D02*
X166413495Y-79102670D01*
X169159112Y-79105375D02*
X169160169Y-79105005D01*
X163663495Y-79088330D02*
X163664090Y-79087382D01*
X168918000Y-79105500D02*
X169158000Y-79105500D01*
X169158000Y-79105500D02*
X169159112Y-79105375D01*
X164163495Y-79088330D02*
X164164090Y-79087382D01*
X164164090Y-79087382D02*
X164164882Y-79086590D01*
X161878600Y-78185540D02*
X161878600Y-78604934D01*
X164163125Y-79089387D02*
X164163495Y-79088330D01*
X163912874Y-79089387D02*
X163913000Y-79090500D01*
X162051100Y-78013040D02*
X161878600Y-78185540D01*
X164159112Y-79105375D02*
X164160169Y-79105005D01*
X164158000Y-79105500D02*
X164159112Y-79105375D01*
X164166887Y-79085625D02*
X164168000Y-79085500D01*
X163658000Y-79095500D02*
X163659112Y-79095374D01*
X161878600Y-78604934D02*
X162369166Y-79095500D01*
X163660169Y-79095004D02*
X163661117Y-79094409D01*
X164165830Y-79085995D02*
X164166887Y-79085625D01*
X163662874Y-79091612D02*
X163663125Y-79089387D01*
X164409112Y-79085625D02*
X164410169Y-79085995D01*
X164164882Y-79086590D02*
X164165830Y-79085995D01*
X162051100Y-77000540D02*
X162051100Y-78013040D01*
X163914090Y-79103618D02*
X163914882Y-79104410D01*
D27*
G36*
X183722838Y-82989167D02*
X183864883Y-83332943D01*
X184127673Y-83596192D01*
X184471201Y-83738838D01*
X184518077Y-83738879D01*
X184628599Y-83849401D01*
X184875161Y-84014148D01*
X185166000Y-84072000D01*
X192689560Y-84072000D01*
X192689560Y-85190000D01*
X192733838Y-85425317D01*
X192827000Y-85570095D01*
X192827000Y-94606842D01*
X189962842Y-97471000D01*
X185951000Y-97471000D01*
X185951000Y-95504005D01*
X185951001Y-95504000D01*
X185891245Y-95203594D01*
X185721079Y-94948921D01*
X177847079Y-87074921D01*
X177592407Y-86904755D01*
X177292000Y-86845000D01*
X176601158Y-86845000D01*
X172481158Y-82725000D01*
X183723068Y-82725000D01*
X183722838Y-82989167D01*
X183722838Y-82989167D01*
G37*
X183722838Y-82989167D02*
X183864883Y-83332943D01*
X184127673Y-83596192D01*
X184471201Y-83738838D01*
X184518077Y-83738879D01*
X184628599Y-83849401D01*
X184875161Y-84014148D01*
X185166000Y-84072000D01*
X192689560Y-84072000D01*
X192689560Y-85190000D01*
X192733838Y-85425317D01*
X192827000Y-85570095D01*
X192827000Y-94606842D01*
X189962842Y-97471000D01*
X185951000Y-97471000D01*
X185951000Y-95504005D01*
X185951001Y-95504000D01*
X185891245Y-95203594D01*
X185721079Y-94948921D01*
X177847079Y-87074921D01*
X177592407Y-86904755D01*
X177292000Y-86845000D01*
X176601158Y-86845000D01*
X172481158Y-82725000D01*
X183723068Y-82725000D01*
X183722838Y-82989167D01*
G36*
X141842560Y-73960000D02*
X141886838Y-74195317D01*
X141890000Y-74200231D01*
X141890000Y-74436250D01*
X142048750Y-74595000D01*
X142116309Y-74595000D01*
X142227283Y-74549033D01*
X142238110Y-74556431D01*
X142490000Y-74607440D01*
X142874638Y-74607440D01*
X143480599Y-75213401D01*
X143727161Y-75378148D01*
X143758764Y-75384434D01*
X143703198Y-75440000D01*
X143341563Y-75440000D01*
X143141890Y-75303569D01*
X142890000Y-75252560D01*
X142490000Y-75252560D01*
X142254683Y-75296838D01*
X142230594Y-75312339D01*
X142116309Y-75265000D01*
X142048750Y-75265000D01*
X141890000Y-75423750D01*
X141890000Y-75665734D01*
X141842560Y-75900000D01*
X141842560Y-76500000D01*
X141886838Y-76735317D01*
X141890000Y-76740231D01*
X141890000Y-76976250D01*
X142048750Y-77135000D01*
X142116309Y-77135000D01*
X142227283Y-77089033D01*
X142238110Y-77096431D01*
X142490000Y-77147440D01*
X142890000Y-77147440D01*
X143125317Y-77103162D01*
X143341441Y-76964090D01*
X143344236Y-76960000D01*
X144018000Y-76960000D01*
X144308839Y-76902148D01*
X144555401Y-76737401D01*
X144807052Y-76485750D01*
X145781000Y-76485750D01*
X145781000Y-76626310D01*
X145877673Y-76859699D01*
X146056302Y-77038327D01*
X146289691Y-77135000D01*
X146357250Y-77135000D01*
X146516000Y-76976250D01*
X146516000Y-76327000D01*
X145939750Y-76327000D01*
X145781000Y-76485750D01*
X144807052Y-76485750D01*
X145348802Y-75944000D01*
X145810750Y-75944000D01*
X145939750Y-76073000D01*
X146516000Y-76073000D01*
X146516000Y-76053000D01*
X146668560Y-76053000D01*
X146668560Y-76500000D01*
X146712838Y-76735317D01*
X146716000Y-76740231D01*
X146716000Y-76976250D01*
X146756000Y-77016250D01*
X146756000Y-79952000D01*
X146813852Y-80242839D01*
X146978599Y-80489401D01*
X149803198Y-83314000D01*
X145850463Y-83314000D01*
X145818327Y-83281808D01*
X145474799Y-83139162D01*
X145102833Y-83138838D01*
X144759057Y-83280883D01*
X144495808Y-83543673D01*
X144353162Y-83887201D01*
X144352838Y-84259167D01*
X144494883Y-84602943D01*
X144757673Y-84866192D01*
X145101201Y-85008838D01*
X145473167Y-85009162D01*
X145816943Y-84867117D01*
X145850118Y-84834000D01*
X150307198Y-84834000D01*
X151073198Y-85600000D01*
X144332802Y-85600000D01*
X141253401Y-82520599D01*
X141006839Y-82355852D01*
X140716000Y-82298000D01*
X136906000Y-82298000D01*
X136679375Y-82343079D01*
X136615160Y-82355852D01*
X136368599Y-82520599D01*
X135067198Y-83822000D01*
X128076802Y-83822000D01*
X125982000Y-81727198D01*
X125982000Y-81170103D01*
X126051201Y-81198838D01*
X126423167Y-81199162D01*
X126766943Y-81057117D01*
X127030192Y-80794327D01*
X127172838Y-80450799D01*
X127173162Y-80078833D01*
X127031117Y-79735057D01*
X126768327Y-79471808D01*
X126424799Y-79329162D01*
X126052833Y-79328838D01*
X125982000Y-79358106D01*
X125982000Y-77609440D01*
X127254000Y-77609440D01*
X127489317Y-77565162D01*
X127705441Y-77426090D01*
X127850431Y-77213890D01*
X127896782Y-76985000D01*
X130491000Y-76985000D01*
X130491000Y-77682000D01*
X130550755Y-77982407D01*
X130720921Y-78237079D01*
X131016921Y-78533079D01*
X131271593Y-78703245D01*
X131572000Y-78763000D01*
X139700000Y-78763000D01*
X140000407Y-78703245D01*
X140255079Y-78533079D01*
X141271079Y-77517079D01*
X141441245Y-77262407D01*
X141466588Y-77135000D01*
X141531250Y-77135000D01*
X141690000Y-76976250D01*
X141690000Y-76327000D01*
X141643000Y-76327000D01*
X141643000Y-76073000D01*
X141690000Y-76073000D01*
X141690000Y-75423750D01*
X141531250Y-75265000D01*
X141501000Y-75265000D01*
X141501000Y-74595000D01*
X141531250Y-74595000D01*
X141690000Y-74436250D01*
X141690000Y-73787000D01*
X141643000Y-73787000D01*
X141643000Y-73683000D01*
X141842560Y-73683000D01*
X141842560Y-73960000D01*
X141842560Y-73960000D01*
G37*
X141842560Y-73960000D02*
X141886838Y-74195317D01*
X141890000Y-74200231D01*
X141890000Y-74436250D01*
X142048750Y-74595000D01*
X142116309Y-74595000D01*
X142227283Y-74549033D01*
X142238110Y-74556431D01*
X142490000Y-74607440D01*
X142874638Y-74607440D01*
X143480599Y-75213401D01*
X143727161Y-75378148D01*
X143758764Y-75384434D01*
X143703198Y-75440000D01*
X143341563Y-75440000D01*
X143141890Y-75303569D01*
X142890000Y-75252560D01*
X142490000Y-75252560D01*
X142254683Y-75296838D01*
X142230594Y-75312339D01*
X142116309Y-75265000D01*
X142048750Y-75265000D01*
X141890000Y-75423750D01*
X141890000Y-75665734D01*
X141842560Y-75900000D01*
X141842560Y-76500000D01*
X141886838Y-76735317D01*
X141890000Y-76740231D01*
X141890000Y-76976250D01*
X142048750Y-77135000D01*
X142116309Y-77135000D01*
X142227283Y-77089033D01*
X142238110Y-77096431D01*
X142490000Y-77147440D01*
X142890000Y-77147440D01*
X143125317Y-77103162D01*
X143341441Y-76964090D01*
X143344236Y-76960000D01*
X144018000Y-76960000D01*
X144308839Y-76902148D01*
X144555401Y-76737401D01*
X144807052Y-76485750D01*
X145781000Y-76485750D01*
X145781000Y-76626310D01*
X145877673Y-76859699D01*
X146056302Y-77038327D01*
X146289691Y-77135000D01*
X146357250Y-77135000D01*
X146516000Y-76976250D01*
X146516000Y-76327000D01*
X145939750Y-76327000D01*
X145781000Y-76485750D01*
X144807052Y-76485750D01*
X145348802Y-75944000D01*
X145810750Y-75944000D01*
X145939750Y-76073000D01*
X146516000Y-76073000D01*
X146516000Y-76053000D01*
X146668560Y-76053000D01*
X146668560Y-76500000D01*
X146712838Y-76735317D01*
X146716000Y-76740231D01*
X146716000Y-76976250D01*
X146756000Y-77016250D01*
X146756000Y-79952000D01*
X146813852Y-80242839D01*
X146978599Y-80489401D01*
X149803198Y-83314000D01*
X145850463Y-83314000D01*
X145818327Y-83281808D01*
X145474799Y-83139162D01*
X145102833Y-83138838D01*
X144759057Y-83280883D01*
X144495808Y-83543673D01*
X144353162Y-83887201D01*
X144352838Y-84259167D01*
X144494883Y-84602943D01*
X144757673Y-84866192D01*
X145101201Y-85008838D01*
X145473167Y-85009162D01*
X145816943Y-84867117D01*
X145850118Y-84834000D01*
X150307198Y-84834000D01*
X151073198Y-85600000D01*
X144332802Y-85600000D01*
X141253401Y-82520599D01*
X141006839Y-82355852D01*
X140716000Y-82298000D01*
X136906000Y-82298000D01*
X136679375Y-82343079D01*
X136615160Y-82355852D01*
X136368599Y-82520599D01*
X135067198Y-83822000D01*
X128076802Y-83822000D01*
X125982000Y-81727198D01*
X125982000Y-81170103D01*
X126051201Y-81198838D01*
X126423167Y-81199162D01*
X126766943Y-81057117D01*
X127030192Y-80794327D01*
X127172838Y-80450799D01*
X127173162Y-80078833D01*
X127031117Y-79735057D01*
X126768327Y-79471808D01*
X126424799Y-79329162D01*
X126052833Y-79328838D01*
X125982000Y-79358106D01*
X125982000Y-77609440D01*
X127254000Y-77609440D01*
X127489317Y-77565162D01*
X127705441Y-77426090D01*
X127850431Y-77213890D01*
X127896782Y-76985000D01*
X130491000Y-76985000D01*
X130491000Y-77682000D01*
X130550755Y-77982407D01*
X130720921Y-78237079D01*
X131016921Y-78533079D01*
X131271593Y-78703245D01*
X131572000Y-78763000D01*
X139700000Y-78763000D01*
X140000407Y-78703245D01*
X140255079Y-78533079D01*
X141271079Y-77517079D01*
X141441245Y-77262407D01*
X141466588Y-77135000D01*
X141531250Y-77135000D01*
X141690000Y-76976250D01*
X141690000Y-76327000D01*
X141643000Y-76327000D01*
X141643000Y-76073000D01*
X141690000Y-76073000D01*
X141690000Y-75423750D01*
X141531250Y-75265000D01*
X141501000Y-75265000D01*
X141501000Y-74595000D01*
X141531250Y-74595000D01*
X141690000Y-74436250D01*
X141690000Y-73787000D01*
X141643000Y-73787000D01*
X141643000Y-73683000D01*
X141842560Y-73683000D01*
X141842560Y-73960000D01*
G36*
X121539000Y-76073000D02*
X121559000Y-76073000D01*
X121559000Y-76327000D01*
X121539000Y-76327000D01*
X121539000Y-77609440D01*
X122174000Y-77609440D01*
X122409317Y-77565162D01*
X122625441Y-77426090D01*
X122681374Y-77344230D01*
X122725910Y-77413441D01*
X122938110Y-77558431D01*
X123190000Y-77609440D01*
X123192000Y-77609440D01*
X123192000Y-82042000D01*
X123249852Y-82332839D01*
X123414599Y-82579401D01*
X125165198Y-84330000D01*
X121472802Y-84330000D01*
X120648000Y-83505198D01*
X120648000Y-77609035D01*
X120650000Y-77609440D01*
X121285000Y-77609440D01*
X121285000Y-76327000D01*
X121265000Y-76327000D01*
X121265000Y-76073000D01*
X121285000Y-76073000D01*
X121285000Y-76053000D01*
X121539000Y-76053000D01*
X121539000Y-76073000D01*
X121539000Y-76073000D01*
G37*
X121539000Y-76073000D02*
X121559000Y-76073000D01*
X121559000Y-76327000D01*
X121539000Y-76327000D01*
X121539000Y-77609440D01*
X122174000Y-77609440D01*
X122409317Y-77565162D01*
X122625441Y-77426090D01*
X122681374Y-77344230D01*
X122725910Y-77413441D01*
X122938110Y-77558431D01*
X123190000Y-77609440D01*
X123192000Y-77609440D01*
X123192000Y-82042000D01*
X123249852Y-82332839D01*
X123414599Y-82579401D01*
X125165198Y-84330000D01*
X121472802Y-84330000D01*
X120648000Y-83505198D01*
X120648000Y-77609035D01*
X120650000Y-77609440D01*
X121285000Y-77609440D01*
X121285000Y-76327000D01*
X121265000Y-76327000D01*
X121265000Y-76073000D01*
X121285000Y-76073000D01*
X121285000Y-76053000D01*
X121539000Y-76053000D01*
X121539000Y-76073000D01*
G36*
X165989000Y-77112001D02*
X165989005Y-77112000D01*
X167758888Y-77112000D01*
X167798838Y-77324317D01*
X167937910Y-77540441D01*
X168150110Y-77685431D01*
X168402000Y-77736440D01*
X170260988Y-77736440D01*
X170260838Y-77909167D01*
X170402883Y-78252943D01*
X170551132Y-78401450D01*
X170548000Y-78402647D01*
X170537255Y-78398542D01*
X170517637Y-78399087D01*
X170497732Y-78392728D01*
X170496639Y-78392604D01*
X170472012Y-78394665D01*
X170461958Y-78392066D01*
X170447743Y-78394066D01*
X170418083Y-78388166D01*
X170177917Y-78388166D01*
X170148256Y-78394066D01*
X170134041Y-78392066D01*
X170124020Y-78394656D01*
X170099432Y-78392596D01*
X170098337Y-78392720D01*
X170078397Y-78399088D01*
X170058744Y-78398542D01*
X170048000Y-78402647D01*
X170037255Y-78398542D01*
X170017637Y-78399087D01*
X169997732Y-78392728D01*
X169996639Y-78392604D01*
X169972012Y-78394665D01*
X169961958Y-78392066D01*
X169947743Y-78394066D01*
X169918083Y-78388166D01*
X169677917Y-78388166D01*
X169648256Y-78394066D01*
X169634041Y-78392066D01*
X169624020Y-78394656D01*
X169599432Y-78392596D01*
X169598337Y-78392720D01*
X169578397Y-78399088D01*
X169558744Y-78398542D01*
X169543049Y-78404539D01*
X169526657Y-78398291D01*
X169507006Y-78398852D01*
X169487027Y-78392490D01*
X169485915Y-78392365D01*
X169461317Y-78394446D01*
X169451531Y-78391923D01*
X169437611Y-78393890D01*
X169408000Y-78388000D01*
X169168000Y-78388000D01*
X169138392Y-78393889D01*
X169124468Y-78391922D01*
X169114709Y-78394438D01*
X169090154Y-78392358D01*
X169089041Y-78392483D01*
X169069029Y-78398853D01*
X169049342Y-78398291D01*
X169038000Y-78402614D01*
X169026657Y-78398291D01*
X169007006Y-78398852D01*
X168987027Y-78392490D01*
X168985915Y-78392365D01*
X168961317Y-78394446D01*
X168951531Y-78391923D01*
X168937611Y-78393890D01*
X168908000Y-78388000D01*
X168668000Y-78388000D01*
X168638392Y-78393889D01*
X168624468Y-78391922D01*
X168614709Y-78394438D01*
X168590154Y-78392358D01*
X168589041Y-78392483D01*
X168569029Y-78398853D01*
X168549342Y-78398291D01*
X168538000Y-78402614D01*
X168526657Y-78398291D01*
X168507006Y-78398852D01*
X168487027Y-78392490D01*
X168485915Y-78392365D01*
X168461317Y-78394446D01*
X168451531Y-78391923D01*
X168437611Y-78393890D01*
X168408000Y-78388000D01*
X168168000Y-78388000D01*
X168138392Y-78393889D01*
X168124468Y-78391922D01*
X168114709Y-78394438D01*
X168090154Y-78392358D01*
X168089041Y-78392483D01*
X168069029Y-78398853D01*
X168049342Y-78398291D01*
X168038000Y-78402614D01*
X168026657Y-78398291D01*
X168007006Y-78398852D01*
X167987027Y-78392490D01*
X167985915Y-78392365D01*
X167961317Y-78394446D01*
X167951531Y-78391923D01*
X167937611Y-78393890D01*
X167908000Y-78388000D01*
X167668000Y-78388000D01*
X167638392Y-78393889D01*
X167624468Y-78391922D01*
X167614709Y-78394438D01*
X167590154Y-78392358D01*
X167589041Y-78392483D01*
X167569029Y-78398853D01*
X167549342Y-78398291D01*
X167538000Y-78402614D01*
X167526657Y-78398291D01*
X167507006Y-78398852D01*
X167487027Y-78392490D01*
X167485915Y-78392365D01*
X167461317Y-78394446D01*
X167451531Y-78391923D01*
X167437611Y-78393890D01*
X167408000Y-78388000D01*
X167168000Y-78388000D01*
X167138392Y-78393889D01*
X167124468Y-78391922D01*
X167114709Y-78394438D01*
X167090154Y-78392358D01*
X167089041Y-78392483D01*
X167069029Y-78398853D01*
X167049342Y-78398291D01*
X167038000Y-78402614D01*
X167026657Y-78398291D01*
X167007006Y-78398852D01*
X166987027Y-78392490D01*
X166985915Y-78392365D01*
X166961317Y-78394446D01*
X166951531Y-78391923D01*
X166937611Y-78393890D01*
X166908000Y-78388000D01*
X166668000Y-78388000D01*
X166638392Y-78393889D01*
X166624468Y-78391922D01*
X166614709Y-78394438D01*
X166590154Y-78392358D01*
X166589041Y-78392483D01*
X166569029Y-78398853D01*
X166549342Y-78398291D01*
X166538000Y-78402614D01*
X166526657Y-78398291D01*
X166507006Y-78398852D01*
X166487027Y-78392490D01*
X166485915Y-78392365D01*
X166461317Y-78394446D01*
X166451531Y-78391923D01*
X166437611Y-78393890D01*
X166408000Y-78388000D01*
X166168000Y-78388000D01*
X166138392Y-78393889D01*
X166124468Y-78391922D01*
X166114709Y-78394438D01*
X166090154Y-78392358D01*
X166089041Y-78392483D01*
X166069029Y-78398853D01*
X166049342Y-78398291D01*
X166038000Y-78402614D01*
X166026657Y-78398291D01*
X166007006Y-78398852D01*
X165987027Y-78392490D01*
X165985915Y-78392365D01*
X165961317Y-78394446D01*
X165951531Y-78391923D01*
X165937611Y-78393890D01*
X165908000Y-78388000D01*
X165668000Y-78388000D01*
X165638392Y-78393889D01*
X165624468Y-78391922D01*
X165614709Y-78394438D01*
X165590154Y-78392358D01*
X165589041Y-78392483D01*
X165569029Y-78398853D01*
X165549342Y-78398291D01*
X165538000Y-78402614D01*
X165526657Y-78398291D01*
X165507006Y-78398852D01*
X165487027Y-78392490D01*
X165485915Y-78392365D01*
X165461317Y-78394446D01*
X165451531Y-78391923D01*
X165437611Y-78393890D01*
X165408000Y-78388000D01*
X165168000Y-78388000D01*
X165138392Y-78393889D01*
X165124468Y-78391922D01*
X165114709Y-78394438D01*
X165090154Y-78392358D01*
X165089041Y-78392483D01*
X165069029Y-78398853D01*
X165049342Y-78398291D01*
X165038000Y-78402614D01*
X165026657Y-78398291D01*
X165007006Y-78398852D01*
X164987027Y-78392490D01*
X164985915Y-78392365D01*
X164961317Y-78394446D01*
X164951531Y-78391923D01*
X164937611Y-78393890D01*
X164908000Y-78388000D01*
X164668000Y-78388000D01*
X164638392Y-78393889D01*
X164624468Y-78391922D01*
X164614709Y-78394438D01*
X164590154Y-78392358D01*
X164589041Y-78392483D01*
X164569029Y-78398853D01*
X164549342Y-78398291D01*
X164538000Y-78402614D01*
X164526657Y-78398291D01*
X164507006Y-78398852D01*
X164487027Y-78392490D01*
X164485915Y-78392365D01*
X164461317Y-78394446D01*
X164451531Y-78391923D01*
X164437611Y-78393890D01*
X164408000Y-78388000D01*
X164168000Y-78388000D01*
X164138392Y-78393889D01*
X164124468Y-78391922D01*
X164114709Y-78394438D01*
X164090154Y-78392358D01*
X164089041Y-78392483D01*
X164069029Y-78398853D01*
X164049342Y-78398291D01*
X164038000Y-78402614D01*
X164026657Y-78398291D01*
X164007006Y-78398852D01*
X163987027Y-78392490D01*
X163985915Y-78392365D01*
X163961317Y-78394446D01*
X163951531Y-78391923D01*
X163937611Y-78393890D01*
X163908000Y-78388000D01*
X163668000Y-78388000D01*
X163638392Y-78393889D01*
X163624468Y-78391922D01*
X163614709Y-78394438D01*
X163590154Y-78392358D01*
X163589041Y-78392483D01*
X163571710Y-78398000D01*
X162658080Y-78398000D01*
X162633236Y-78373156D01*
X162666762Y-78322980D01*
X162901100Y-78322980D01*
X163006805Y-78303090D01*
X163024790Y-78310540D01*
X163092350Y-78310540D01*
X163121354Y-78281536D01*
X163136417Y-78278702D01*
X163352541Y-78139630D01*
X163451100Y-77995384D01*
X163451100Y-78151790D01*
X163609850Y-78310540D01*
X163677410Y-78310540D01*
X163910799Y-78213867D01*
X164074233Y-78050432D01*
X164376415Y-78110540D01*
X164725785Y-78110540D01*
X165150564Y-78026046D01*
X165510674Y-77785429D01*
X165751291Y-77425319D01*
X165820289Y-77078442D01*
X165989000Y-77112001D01*
X165989000Y-77112001D01*
G37*
X165989000Y-77112001D02*
X165989005Y-77112000D01*
X167758888Y-77112000D01*
X167798838Y-77324317D01*
X167937910Y-77540441D01*
X168150110Y-77685431D01*
X168402000Y-77736440D01*
X170260988Y-77736440D01*
X170260838Y-77909167D01*
X170402883Y-78252943D01*
X170551132Y-78401450D01*
X170548000Y-78402647D01*
X170537255Y-78398542D01*
X170517637Y-78399087D01*
X170497732Y-78392728D01*
X170496639Y-78392604D01*
X170472012Y-78394665D01*
X170461958Y-78392066D01*
X170447743Y-78394066D01*
X170418083Y-78388166D01*
X170177917Y-78388166D01*
X170148256Y-78394066D01*
X170134041Y-78392066D01*
X170124020Y-78394656D01*
X170099432Y-78392596D01*
X170098337Y-78392720D01*
X170078397Y-78399088D01*
X170058744Y-78398542D01*
X170048000Y-78402647D01*
X170037255Y-78398542D01*
X170017637Y-78399087D01*
X169997732Y-78392728D01*
X169996639Y-78392604D01*
X169972012Y-78394665D01*
X169961958Y-78392066D01*
X169947743Y-78394066D01*
X169918083Y-78388166D01*
X169677917Y-78388166D01*
X169648256Y-78394066D01*
X169634041Y-78392066D01*
X169624020Y-78394656D01*
X169599432Y-78392596D01*
X169598337Y-78392720D01*
X169578397Y-78399088D01*
X169558744Y-78398542D01*
X169543049Y-78404539D01*
X169526657Y-78398291D01*
X169507006Y-78398852D01*
X169487027Y-78392490D01*
X169485915Y-78392365D01*
X169461317Y-78394446D01*
X169451531Y-78391923D01*
X169437611Y-78393890D01*
X169408000Y-78388000D01*
X169168000Y-78388000D01*
X169138392Y-78393889D01*
X169124468Y-78391922D01*
X169114709Y-78394438D01*
X169090154Y-78392358D01*
X169089041Y-78392483D01*
X169069029Y-78398853D01*
X169049342Y-78398291D01*
X169038000Y-78402614D01*
X169026657Y-78398291D01*
X169007006Y-78398852D01*
X168987027Y-78392490D01*
X168985915Y-78392365D01*
X168961317Y-78394446D01*
X168951531Y-78391923D01*
X168937611Y-78393890D01*
X168908000Y-78388000D01*
X168668000Y-78388000D01*
X168638392Y-78393889D01*
X168624468Y-78391922D01*
X168614709Y-78394438D01*
X168590154Y-78392358D01*
X168589041Y-78392483D01*
X168569029Y-78398853D01*
X168549342Y-78398291D01*
X168538000Y-78402614D01*
X168526657Y-78398291D01*
X168507006Y-78398852D01*
X168487027Y-78392490D01*
X168485915Y-78392365D01*
X168461317Y-78394446D01*
X168451531Y-78391923D01*
X168437611Y-78393890D01*
X168408000Y-78388000D01*
X168168000Y-78388000D01*
X168138392Y-78393889D01*
X168124468Y-78391922D01*
X168114709Y-78394438D01*
X168090154Y-78392358D01*
X168089041Y-78392483D01*
X168069029Y-78398853D01*
X168049342Y-78398291D01*
X168038000Y-78402614D01*
X168026657Y-78398291D01*
X168007006Y-78398852D01*
X167987027Y-78392490D01*
X167985915Y-78392365D01*
X167961317Y-78394446D01*
X167951531Y-78391923D01*
X167937611Y-78393890D01*
X167908000Y-78388000D01*
X167668000Y-78388000D01*
X167638392Y-78393889D01*
X167624468Y-78391922D01*
X167614709Y-78394438D01*
X167590154Y-78392358D01*
X167589041Y-78392483D01*
X167569029Y-78398853D01*
X167549342Y-78398291D01*
X167538000Y-78402614D01*
X167526657Y-78398291D01*
X167507006Y-78398852D01*
X167487027Y-78392490D01*
X167485915Y-78392365D01*
X167461317Y-78394446D01*
X167451531Y-78391923D01*
X167437611Y-78393890D01*
X167408000Y-78388000D01*
X167168000Y-78388000D01*
X167138392Y-78393889D01*
X167124468Y-78391922D01*
X167114709Y-78394438D01*
X167090154Y-78392358D01*
X167089041Y-78392483D01*
X167069029Y-78398853D01*
X167049342Y-78398291D01*
X167038000Y-78402614D01*
X167026657Y-78398291D01*
X167007006Y-78398852D01*
X166987027Y-78392490D01*
X166985915Y-78392365D01*
X166961317Y-78394446D01*
X166951531Y-78391923D01*
X166937611Y-78393890D01*
X166908000Y-78388000D01*
X166668000Y-78388000D01*
X166638392Y-78393889D01*
X166624468Y-78391922D01*
X166614709Y-78394438D01*
X166590154Y-78392358D01*
X166589041Y-78392483D01*
X166569029Y-78398853D01*
X166549342Y-78398291D01*
X166538000Y-78402614D01*
X166526657Y-78398291D01*
X166507006Y-78398852D01*
X166487027Y-78392490D01*
X166485915Y-78392365D01*
X166461317Y-78394446D01*
X166451531Y-78391923D01*
X166437611Y-78393890D01*
X166408000Y-78388000D01*
X166168000Y-78388000D01*
X166138392Y-78393889D01*
X166124468Y-78391922D01*
X166114709Y-78394438D01*
X166090154Y-78392358D01*
X166089041Y-78392483D01*
X166069029Y-78398853D01*
X166049342Y-78398291D01*
X166038000Y-78402614D01*
X166026657Y-78398291D01*
X166007006Y-78398852D01*
X165987027Y-78392490D01*
X165985915Y-78392365D01*
X165961317Y-78394446D01*
X165951531Y-78391923D01*
X165937611Y-78393890D01*
X165908000Y-78388000D01*
X165668000Y-78388000D01*
X165638392Y-78393889D01*
X165624468Y-78391922D01*
X165614709Y-78394438D01*
X165590154Y-78392358D01*
X165589041Y-78392483D01*
X165569029Y-78398853D01*
X165549342Y-78398291D01*
X165538000Y-78402614D01*
X165526657Y-78398291D01*
X165507006Y-78398852D01*
X165487027Y-78392490D01*
X165485915Y-78392365D01*
X165461317Y-78394446D01*
X165451531Y-78391923D01*
X165437611Y-78393890D01*
X165408000Y-78388000D01*
X165168000Y-78388000D01*
X165138392Y-78393889D01*
X165124468Y-78391922D01*
X165114709Y-78394438D01*
X165090154Y-78392358D01*
X165089041Y-78392483D01*
X165069029Y-78398853D01*
X165049342Y-78398291D01*
X165038000Y-78402614D01*
X165026657Y-78398291D01*
X165007006Y-78398852D01*
X164987027Y-78392490D01*
X164985915Y-78392365D01*
X164961317Y-78394446D01*
X164951531Y-78391923D01*
X164937611Y-78393890D01*
X164908000Y-78388000D01*
X164668000Y-78388000D01*
X164638392Y-78393889D01*
X164624468Y-78391922D01*
X164614709Y-78394438D01*
X164590154Y-78392358D01*
X164589041Y-78392483D01*
X164569029Y-78398853D01*
X164549342Y-78398291D01*
X164538000Y-78402614D01*
X164526657Y-78398291D01*
X164507006Y-78398852D01*
X164487027Y-78392490D01*
X164485915Y-78392365D01*
X164461317Y-78394446D01*
X164451531Y-78391923D01*
X164437611Y-78393890D01*
X164408000Y-78388000D01*
X164168000Y-78388000D01*
X164138392Y-78393889D01*
X164124468Y-78391922D01*
X164114709Y-78394438D01*
X164090154Y-78392358D01*
X164089041Y-78392483D01*
X164069029Y-78398853D01*
X164049342Y-78398291D01*
X164038000Y-78402614D01*
X164026657Y-78398291D01*
X164007006Y-78398852D01*
X163987027Y-78392490D01*
X163985915Y-78392365D01*
X163961317Y-78394446D01*
X163951531Y-78391923D01*
X163937611Y-78393890D01*
X163908000Y-78388000D01*
X163668000Y-78388000D01*
X163638392Y-78393889D01*
X163624468Y-78391922D01*
X163614709Y-78394438D01*
X163590154Y-78392358D01*
X163589041Y-78392483D01*
X163571710Y-78398000D01*
X162658080Y-78398000D01*
X162633236Y-78373156D01*
X162666762Y-78322980D01*
X162901100Y-78322980D01*
X163006805Y-78303090D01*
X163024790Y-78310540D01*
X163092350Y-78310540D01*
X163121354Y-78281536D01*
X163136417Y-78278702D01*
X163352541Y-78139630D01*
X163451100Y-77995384D01*
X163451100Y-78151790D01*
X163609850Y-78310540D01*
X163677410Y-78310540D01*
X163910799Y-78213867D01*
X164074233Y-78050432D01*
X164376415Y-78110540D01*
X164725785Y-78110540D01*
X165150564Y-78026046D01*
X165510674Y-77785429D01*
X165751291Y-77425319D01*
X165820289Y-77078442D01*
X165989000Y-77112001D01*
G36*
X153035000Y-72739250D02*
X153193750Y-72898000D01*
X154559000Y-72898000D01*
X154559000Y-72878000D01*
X154813000Y-72878000D01*
X154813000Y-72898000D01*
X154833000Y-72898000D01*
X154833000Y-73152000D01*
X154813000Y-73152000D01*
X154813000Y-74263250D01*
X154971750Y-74422000D01*
X155828310Y-74422000D01*
X156037075Y-74335527D01*
X156036838Y-74607167D01*
X156178883Y-74950943D01*
X156441673Y-75214192D01*
X156785201Y-75356838D01*
X156796690Y-75356848D01*
X157432921Y-75993079D01*
X157687593Y-76163245D01*
X157988000Y-76223000D01*
X158586616Y-76223000D01*
X158350909Y-76575761D01*
X158266415Y-77000540D01*
X158350909Y-77425319D01*
X158365396Y-77447000D01*
X156916158Y-77447000D01*
X156349440Y-76880282D01*
X156349440Y-75565000D01*
X156305162Y-75329683D01*
X156166090Y-75113559D01*
X155953890Y-74968569D01*
X155702000Y-74917560D01*
X154351012Y-74917560D01*
X154351162Y-74744833D01*
X154270222Y-74548943D01*
X154322934Y-74422000D01*
X154400250Y-74422000D01*
X154559000Y-74263250D01*
X154559000Y-73152000D01*
X153193750Y-73152000D01*
X153080276Y-73265474D01*
X152382903Y-72568101D01*
X152347078Y-72388000D01*
X153035000Y-72388000D01*
X153035000Y-72739250D01*
X153035000Y-72739250D01*
G37*
X153035000Y-72739250D02*
X153193750Y-72898000D01*
X154559000Y-72898000D01*
X154559000Y-72878000D01*
X154813000Y-72878000D01*
X154813000Y-72898000D01*
X154833000Y-72898000D01*
X154833000Y-73152000D01*
X154813000Y-73152000D01*
X154813000Y-74263250D01*
X154971750Y-74422000D01*
X155828310Y-74422000D01*
X156037075Y-74335527D01*
X156036838Y-74607167D01*
X156178883Y-74950943D01*
X156441673Y-75214192D01*
X156785201Y-75356838D01*
X156796690Y-75356848D01*
X157432921Y-75993079D01*
X157687593Y-76163245D01*
X157988000Y-76223000D01*
X158586616Y-76223000D01*
X158350909Y-76575761D01*
X158266415Y-77000540D01*
X158350909Y-77425319D01*
X158365396Y-77447000D01*
X156916158Y-77447000D01*
X156349440Y-76880282D01*
X156349440Y-75565000D01*
X156305162Y-75329683D01*
X156166090Y-75113559D01*
X155953890Y-74968569D01*
X155702000Y-74917560D01*
X154351012Y-74917560D01*
X154351162Y-74744833D01*
X154270222Y-74548943D01*
X154322934Y-74422000D01*
X154400250Y-74422000D01*
X154559000Y-74263250D01*
X154559000Y-73152000D01*
X153193750Y-73152000D01*
X153080276Y-73265474D01*
X152382903Y-72568101D01*
X152347078Y-72388000D01*
X153035000Y-72388000D01*
X153035000Y-72739250D01*
G36*
X189609000Y-73829000D02*
X189631000Y-73829000D01*
X189631000Y-74083000D01*
X189609000Y-74083000D01*
X189609000Y-74103000D01*
X189359000Y-74103000D01*
X189359000Y-74083000D01*
X189337000Y-74083000D01*
X189337000Y-73829000D01*
X189359000Y-73829000D01*
X189359000Y-73809000D01*
X189609000Y-73809000D01*
X189609000Y-73829000D01*
X189609000Y-73829000D01*
G37*
X189609000Y-73829000D02*
X189631000Y-73829000D01*
X189631000Y-74083000D01*
X189609000Y-74083000D01*
X189609000Y-74103000D01*
X189359000Y-74103000D01*
X189359000Y-74083000D01*
X189337000Y-74083000D01*
X189337000Y-73829000D01*
X189359000Y-73829000D01*
X189359000Y-73809000D01*
X189609000Y-73809000D01*
X189609000Y-73829000D01*
G36*
X171831000Y-72136691D02*
X171831000Y-72739250D01*
X171989750Y-72898000D01*
X173355000Y-72898000D01*
X173355000Y-72878000D01*
X173609000Y-72878000D01*
X173609000Y-72898000D01*
X174974250Y-72898000D01*
X175133000Y-72739250D01*
X175133000Y-72136691D01*
X175038687Y-71909000D01*
X175989313Y-71909000D01*
X175895000Y-72136691D01*
X175895000Y-72739250D01*
X176053750Y-72898000D01*
X177419000Y-72898000D01*
X177419000Y-72878000D01*
X177673000Y-72878000D01*
X177673000Y-72898000D01*
X179038250Y-72898000D01*
X179197000Y-72739250D01*
X179197000Y-72429691D01*
X179709000Y-72429691D01*
X179709000Y-72570250D01*
X179867750Y-72729000D01*
X180469000Y-72729000D01*
X180469000Y-72079750D01*
X180719000Y-72079750D01*
X180719000Y-72729000D01*
X181320250Y-72729000D01*
X181479000Y-72570250D01*
X181479000Y-72429691D01*
X181995000Y-72429691D01*
X181995000Y-72570250D01*
X182153750Y-72729000D01*
X182755000Y-72729000D01*
X182755000Y-72079750D01*
X182596250Y-71921000D01*
X182503690Y-71921000D01*
X182270301Y-72017673D01*
X182091673Y-72196302D01*
X181995000Y-72429691D01*
X181479000Y-72429691D01*
X181382327Y-72196302D01*
X181203699Y-72017673D01*
X180970310Y-71921000D01*
X180877750Y-71921000D01*
X180719000Y-72079750D01*
X180469000Y-72079750D01*
X180310250Y-71921000D01*
X180217690Y-71921000D01*
X179984301Y-72017673D01*
X179805673Y-72196302D01*
X179709000Y-72429691D01*
X179197000Y-72429691D01*
X179197000Y-72136691D01*
X179102687Y-71909000D01*
X183853288Y-71909000D01*
X183785569Y-72008110D01*
X183734560Y-72260000D01*
X183734560Y-72266498D01*
X183705458Y-72285943D01*
X183668327Y-72196302D01*
X183489699Y-72017673D01*
X183256310Y-71921000D01*
X183163750Y-71921000D01*
X183005000Y-72079750D01*
X183005000Y-72729000D01*
X183027000Y-72729000D01*
X183027000Y-72983000D01*
X183005000Y-72983000D01*
X183005000Y-73003000D01*
X182755000Y-73003000D01*
X182755000Y-72983000D01*
X182153750Y-72983000D01*
X181995000Y-73141750D01*
X181995000Y-73282309D01*
X182011585Y-73322350D01*
X181796799Y-73233162D01*
X181583892Y-73232977D01*
X181479000Y-73212112D01*
X181479000Y-73141750D01*
X181320250Y-72983000D01*
X180719000Y-72983000D01*
X180719000Y-73003000D01*
X180469000Y-73003000D01*
X180469000Y-72983000D01*
X179867750Y-72983000D01*
X179709000Y-73141750D01*
X179709000Y-73282309D01*
X179754967Y-73393283D01*
X179747569Y-73404110D01*
X179696560Y-73656000D01*
X179696560Y-73916000D01*
X179195885Y-73916000D01*
X179197000Y-73913309D01*
X179197000Y-73310750D01*
X179038250Y-73152000D01*
X177673000Y-73152000D01*
X177673000Y-73172000D01*
X177419000Y-73172000D01*
X177419000Y-73152000D01*
X176053750Y-73152000D01*
X175895000Y-73310750D01*
X175895000Y-73913309D01*
X175896115Y-73916000D01*
X175131885Y-73916000D01*
X175133000Y-73913309D01*
X175133000Y-73310750D01*
X174974250Y-73152000D01*
X173609000Y-73152000D01*
X173609000Y-73172000D01*
X173355000Y-73172000D01*
X173355000Y-73152000D01*
X171989750Y-73152000D01*
X171831000Y-73310750D01*
X171831000Y-73913309D01*
X171832115Y-73916000D01*
X171067885Y-73916000D01*
X171069000Y-73913309D01*
X171069000Y-73310750D01*
X170910250Y-73152000D01*
X169545000Y-73152000D01*
X169545000Y-73172000D01*
X169291000Y-73172000D01*
X169291000Y-73152000D01*
X169271000Y-73152000D01*
X169271000Y-72898000D01*
X169291000Y-72898000D01*
X169291000Y-72878000D01*
X169545000Y-72878000D01*
X169545000Y-72898000D01*
X170910250Y-72898000D01*
X171069000Y-72739250D01*
X171069000Y-72136691D01*
X170974687Y-71909000D01*
X171925313Y-71909000D01*
X171831000Y-72136691D01*
X171831000Y-72136691D01*
G37*
X171831000Y-72136691D02*
X171831000Y-72739250D01*
X171989750Y-72898000D01*
X173355000Y-72898000D01*
X173355000Y-72878000D01*
X173609000Y-72878000D01*
X173609000Y-72898000D01*
X174974250Y-72898000D01*
X175133000Y-72739250D01*
X175133000Y-72136691D01*
X175038687Y-71909000D01*
X175989313Y-71909000D01*
X175895000Y-72136691D01*
X175895000Y-72739250D01*
X176053750Y-72898000D01*
X177419000Y-72898000D01*
X177419000Y-72878000D01*
X177673000Y-72878000D01*
X177673000Y-72898000D01*
X179038250Y-72898000D01*
X179197000Y-72739250D01*
X179197000Y-72429691D01*
X179709000Y-72429691D01*
X179709000Y-72570250D01*
X179867750Y-72729000D01*
X180469000Y-72729000D01*
X180469000Y-72079750D01*
X180719000Y-72079750D01*
X180719000Y-72729000D01*
X181320250Y-72729000D01*
X181479000Y-72570250D01*
X181479000Y-72429691D01*
X181995000Y-72429691D01*
X181995000Y-72570250D01*
X182153750Y-72729000D01*
X182755000Y-72729000D01*
X182755000Y-72079750D01*
X182596250Y-71921000D01*
X182503690Y-71921000D01*
X182270301Y-72017673D01*
X182091673Y-72196302D01*
X181995000Y-72429691D01*
X181479000Y-72429691D01*
X181382327Y-72196302D01*
X181203699Y-72017673D01*
X180970310Y-71921000D01*
X180877750Y-71921000D01*
X180719000Y-72079750D01*
X180469000Y-72079750D01*
X180310250Y-71921000D01*
X180217690Y-71921000D01*
X179984301Y-72017673D01*
X179805673Y-72196302D01*
X179709000Y-72429691D01*
X179197000Y-72429691D01*
X179197000Y-72136691D01*
X179102687Y-71909000D01*
X183853288Y-71909000D01*
X183785569Y-72008110D01*
X183734560Y-72260000D01*
X183734560Y-72266498D01*
X183705458Y-72285943D01*
X183668327Y-72196302D01*
X183489699Y-72017673D01*
X183256310Y-71921000D01*
X183163750Y-71921000D01*
X183005000Y-72079750D01*
X183005000Y-72729000D01*
X183027000Y-72729000D01*
X183027000Y-72983000D01*
X183005000Y-72983000D01*
X183005000Y-73003000D01*
X182755000Y-73003000D01*
X182755000Y-72983000D01*
X182153750Y-72983000D01*
X181995000Y-73141750D01*
X181995000Y-73282309D01*
X182011585Y-73322350D01*
X181796799Y-73233162D01*
X181583892Y-73232977D01*
X181479000Y-73212112D01*
X181479000Y-73141750D01*
X181320250Y-72983000D01*
X180719000Y-72983000D01*
X180719000Y-73003000D01*
X180469000Y-73003000D01*
X180469000Y-72983000D01*
X179867750Y-72983000D01*
X179709000Y-73141750D01*
X179709000Y-73282309D01*
X179754967Y-73393283D01*
X179747569Y-73404110D01*
X179696560Y-73656000D01*
X179696560Y-73916000D01*
X179195885Y-73916000D01*
X179197000Y-73913309D01*
X179197000Y-73310750D01*
X179038250Y-73152000D01*
X177673000Y-73152000D01*
X177673000Y-73172000D01*
X177419000Y-73172000D01*
X177419000Y-73152000D01*
X176053750Y-73152000D01*
X175895000Y-73310750D01*
X175895000Y-73913309D01*
X175896115Y-73916000D01*
X175131885Y-73916000D01*
X175133000Y-73913309D01*
X175133000Y-73310750D01*
X174974250Y-73152000D01*
X173609000Y-73152000D01*
X173609000Y-73172000D01*
X173355000Y-73172000D01*
X173355000Y-73152000D01*
X171989750Y-73152000D01*
X171831000Y-73310750D01*
X171831000Y-73913309D01*
X171832115Y-73916000D01*
X171067885Y-73916000D01*
X171069000Y-73913309D01*
X171069000Y-73310750D01*
X170910250Y-73152000D01*
X169545000Y-73152000D01*
X169545000Y-73172000D01*
X169291000Y-73172000D01*
X169291000Y-73152000D01*
X169271000Y-73152000D01*
X169271000Y-72898000D01*
X169291000Y-72898000D01*
X169291000Y-72878000D01*
X169545000Y-72878000D01*
X169545000Y-72898000D01*
X170910250Y-72898000D01*
X171069000Y-72739250D01*
X171069000Y-72136691D01*
X170974687Y-71909000D01*
X171925313Y-71909000D01*
X171831000Y-72136691D01*
M02*
