G04 #@! TF.FileFunction,Soldermask,Top*
%FSLAX46Y46*%
G04 Gerber Fmt 4.6, Leading zero omitted, Abs format (unit mm)*
G04 Created by KiCad (PCBNEW 4.0.4-stable) date Wednesday, 25 January 2017 'PMt' 21:36:55*
%MOMM*%
%LPD*%
G01*
G04 APERTURE LIST*
%ADD10C,0.100000*%
%ADD11C,0.010000*%
%ADD12O,1.650000X1.350000*%
%ADD13O,1.400000X1.950000*%
%ADD14C,0.500000*%
G04 APERTURE END LIST*
D10*
D11*
G36*
X137874478Y-96965543D02*
X138365766Y-96968510D01*
X138804143Y-96973158D01*
X139174577Y-96979244D01*
X139462039Y-96986524D01*
X139651500Y-96994755D01*
X139726556Y-97003043D01*
X139760229Y-97029895D01*
X139785565Y-97091617D01*
X139803701Y-97203963D01*
X139815774Y-97382683D01*
X139822920Y-97643532D01*
X139826277Y-98002260D01*
X139827000Y-98394850D01*
X139825250Y-98801675D01*
X139820361Y-99169108D01*
X139812869Y-99476867D01*
X139803313Y-99704670D01*
X139792230Y-99832236D01*
X139788456Y-99848556D01*
X139743777Y-99899689D01*
X139641654Y-99930618D01*
X139457830Y-99945607D01*
X139216956Y-99949000D01*
X138684000Y-99949000D01*
X138684000Y-101631448D01*
X138417156Y-102150341D01*
X138150313Y-102669235D01*
X137829781Y-102690242D01*
X137570748Y-102698928D01*
X137276640Y-102697156D01*
X137143428Y-102692185D01*
X136777607Y-102673120D01*
X136571928Y-102279435D01*
X136492279Y-102121895D01*
X136435481Y-101985878D01*
X136396724Y-101844108D01*
X136371196Y-101669309D01*
X136354087Y-101434205D01*
X136340587Y-101111518D01*
X136334500Y-100933250D01*
X136302750Y-99980750D01*
X135683625Y-99962575D01*
X135064500Y-99944401D01*
X135064500Y-97282000D01*
X135318500Y-97282000D01*
X135318500Y-99631500D01*
X139573000Y-99631500D01*
X139573000Y-97282000D01*
X135318500Y-97282000D01*
X135064500Y-97282000D01*
X135064500Y-96964500D01*
X137345306Y-96964500D01*
X137874478Y-96965543D01*
X137874478Y-96965543D01*
G37*
X137874478Y-96965543D02*
X138365766Y-96968510D01*
X138804143Y-96973158D01*
X139174577Y-96979244D01*
X139462039Y-96986524D01*
X139651500Y-96994755D01*
X139726556Y-97003043D01*
X139760229Y-97029895D01*
X139785565Y-97091617D01*
X139803701Y-97203963D01*
X139815774Y-97382683D01*
X139822920Y-97643532D01*
X139826277Y-98002260D01*
X139827000Y-98394850D01*
X139825250Y-98801675D01*
X139820361Y-99169108D01*
X139812869Y-99476867D01*
X139803313Y-99704670D01*
X139792230Y-99832236D01*
X139788456Y-99848556D01*
X139743777Y-99899689D01*
X139641654Y-99930618D01*
X139457830Y-99945607D01*
X139216956Y-99949000D01*
X138684000Y-99949000D01*
X138684000Y-101631448D01*
X138417156Y-102150341D01*
X138150313Y-102669235D01*
X137829781Y-102690242D01*
X137570748Y-102698928D01*
X137276640Y-102697156D01*
X137143428Y-102692185D01*
X136777607Y-102673120D01*
X136571928Y-102279435D01*
X136492279Y-102121895D01*
X136435481Y-101985878D01*
X136396724Y-101844108D01*
X136371196Y-101669309D01*
X136354087Y-101434205D01*
X136340587Y-101111518D01*
X136334500Y-100933250D01*
X136302750Y-99980750D01*
X135683625Y-99962575D01*
X135064500Y-99944401D01*
X135064500Y-97282000D01*
X135318500Y-97282000D01*
X135318500Y-99631500D01*
X139573000Y-99631500D01*
X139573000Y-97282000D01*
X135318500Y-97282000D01*
X135064500Y-97282000D01*
X135064500Y-96964500D01*
X137345306Y-96964500D01*
X137874478Y-96965543D01*
G36*
X162423780Y-109763301D02*
X162658978Y-109774637D01*
X162846711Y-109798847D01*
X163019653Y-109840284D01*
X163210478Y-109903298D01*
X163227998Y-109909583D01*
X163753422Y-110137235D01*
X164206407Y-110421847D01*
X164614511Y-110777934D01*
X164976305Y-111193691D01*
X165259708Y-111647665D01*
X165482862Y-112164447D01*
X165547847Y-112358200D01*
X165590896Y-112531380D01*
X165616360Y-112716661D01*
X165628592Y-112946716D01*
X165631941Y-113254219D01*
X165631955Y-113284000D01*
X165629144Y-113599336D01*
X165617808Y-113834534D01*
X165593598Y-114022267D01*
X165552161Y-114195209D01*
X165489147Y-114386034D01*
X165482862Y-114403553D01*
X165255209Y-114928977D01*
X164970598Y-115381963D01*
X164614511Y-115790066D01*
X164133768Y-116199653D01*
X163613798Y-116504097D01*
X163049140Y-116705771D01*
X162434337Y-116807049D01*
X162249751Y-116817839D01*
X161860078Y-116818064D01*
X161518681Y-116790927D01*
X161344293Y-116760588D01*
X160749041Y-116569362D01*
X160209039Y-116286300D01*
X159732061Y-115921712D01*
X159325880Y-115485910D01*
X158998271Y-114989202D01*
X158757008Y-114441900D01*
X158609865Y-113854313D01*
X158568077Y-113284000D01*
X158927191Y-113284000D01*
X158980961Y-113867496D01*
X159136123Y-114417975D01*
X159383456Y-114924972D01*
X159713736Y-115378018D01*
X160117744Y-115766649D01*
X160586257Y-116080398D01*
X161110053Y-116308797D01*
X161679911Y-116441381D01*
X161712906Y-116445749D01*
X162231491Y-116463867D01*
X162767348Y-116395415D01*
X162955111Y-116350239D01*
X163502167Y-116144665D01*
X163992439Y-115848385D01*
X164417222Y-115472834D01*
X164767810Y-115029447D01*
X165035497Y-114529658D01*
X165211578Y-113984900D01*
X165287346Y-113406609D01*
X165289698Y-113284000D01*
X165236500Y-112697794D01*
X165083118Y-112148328D01*
X164838870Y-111644902D01*
X164513077Y-111196813D01*
X164115055Y-110813361D01*
X163654125Y-110503843D01*
X163139604Y-110277558D01*
X162580812Y-110143804D01*
X162108445Y-110109672D01*
X161520959Y-110162754D01*
X160970295Y-110315803D01*
X160465770Y-110559518D01*
X160016704Y-110884603D01*
X159632415Y-111281758D01*
X159322222Y-111741685D01*
X159095443Y-112255085D01*
X158961398Y-112812661D01*
X158927191Y-113284000D01*
X158568077Y-113284000D01*
X158564615Y-113236752D01*
X158570000Y-113081263D01*
X158658499Y-112452401D01*
X158850706Y-111868073D01*
X159146162Y-111329303D01*
X159544408Y-110837116D01*
X159602378Y-110777934D01*
X160018136Y-110416140D01*
X160472109Y-110132737D01*
X160988891Y-109909583D01*
X161182645Y-109844598D01*
X161355825Y-109801549D01*
X161541106Y-109776084D01*
X161771161Y-109763853D01*
X162078663Y-109760504D01*
X162108445Y-109760490D01*
X162423780Y-109763301D01*
X162423780Y-109763301D01*
G37*
X162423780Y-109763301D02*
X162658978Y-109774637D01*
X162846711Y-109798847D01*
X163019653Y-109840284D01*
X163210478Y-109903298D01*
X163227998Y-109909583D01*
X163753422Y-110137235D01*
X164206407Y-110421847D01*
X164614511Y-110777934D01*
X164976305Y-111193691D01*
X165259708Y-111647665D01*
X165482862Y-112164447D01*
X165547847Y-112358200D01*
X165590896Y-112531380D01*
X165616360Y-112716661D01*
X165628592Y-112946716D01*
X165631941Y-113254219D01*
X165631955Y-113284000D01*
X165629144Y-113599336D01*
X165617808Y-113834534D01*
X165593598Y-114022267D01*
X165552161Y-114195209D01*
X165489147Y-114386034D01*
X165482862Y-114403553D01*
X165255209Y-114928977D01*
X164970598Y-115381963D01*
X164614511Y-115790066D01*
X164133768Y-116199653D01*
X163613798Y-116504097D01*
X163049140Y-116705771D01*
X162434337Y-116807049D01*
X162249751Y-116817839D01*
X161860078Y-116818064D01*
X161518681Y-116790927D01*
X161344293Y-116760588D01*
X160749041Y-116569362D01*
X160209039Y-116286300D01*
X159732061Y-115921712D01*
X159325880Y-115485910D01*
X158998271Y-114989202D01*
X158757008Y-114441900D01*
X158609865Y-113854313D01*
X158568077Y-113284000D01*
X158927191Y-113284000D01*
X158980961Y-113867496D01*
X159136123Y-114417975D01*
X159383456Y-114924972D01*
X159713736Y-115378018D01*
X160117744Y-115766649D01*
X160586257Y-116080398D01*
X161110053Y-116308797D01*
X161679911Y-116441381D01*
X161712906Y-116445749D01*
X162231491Y-116463867D01*
X162767348Y-116395415D01*
X162955111Y-116350239D01*
X163502167Y-116144665D01*
X163992439Y-115848385D01*
X164417222Y-115472834D01*
X164767810Y-115029447D01*
X165035497Y-114529658D01*
X165211578Y-113984900D01*
X165287346Y-113406609D01*
X165289698Y-113284000D01*
X165236500Y-112697794D01*
X165083118Y-112148328D01*
X164838870Y-111644902D01*
X164513077Y-111196813D01*
X164115055Y-110813361D01*
X163654125Y-110503843D01*
X163139604Y-110277558D01*
X162580812Y-110143804D01*
X162108445Y-110109672D01*
X161520959Y-110162754D01*
X160970295Y-110315803D01*
X160465770Y-110559518D01*
X160016704Y-110884603D01*
X159632415Y-111281758D01*
X159322222Y-111741685D01*
X159095443Y-112255085D01*
X158961398Y-112812661D01*
X158927191Y-113284000D01*
X158568077Y-113284000D01*
X158564615Y-113236752D01*
X158570000Y-113081263D01*
X158658499Y-112452401D01*
X158850706Y-111868073D01*
X159146162Y-111329303D01*
X159544408Y-110837116D01*
X159602378Y-110777934D01*
X160018136Y-110416140D01*
X160472109Y-110132737D01*
X160988891Y-109909583D01*
X161182645Y-109844598D01*
X161355825Y-109801549D01*
X161541106Y-109776084D01*
X161771161Y-109763853D01*
X162078663Y-109760504D01*
X162108445Y-109760490D01*
X162423780Y-109763301D01*
G36*
X162587409Y-110296712D02*
X163000229Y-110377935D01*
X163383774Y-110525828D01*
X163732731Y-110723334D01*
X164176715Y-111070823D01*
X164547179Y-111491089D01*
X164835887Y-111968146D01*
X165034603Y-112486007D01*
X165135092Y-113028687D01*
X165140224Y-113455317D01*
X165050296Y-114022970D01*
X164864551Y-114546435D01*
X164593569Y-115017696D01*
X164247930Y-115428737D01*
X163838217Y-115771542D01*
X163375009Y-116038095D01*
X162868887Y-116220380D01*
X162330432Y-116310382D01*
X161770224Y-116300085D01*
X161453791Y-116248139D01*
X160937827Y-116081137D01*
X160449598Y-115817975D01*
X160013954Y-115475013D01*
X159655748Y-115068611D01*
X159650142Y-115060786D01*
X159359491Y-114563622D01*
X159172217Y-114043254D01*
X159084442Y-113511696D01*
X159086195Y-113393112D01*
X159468819Y-113393112D01*
X159540372Y-113897761D01*
X159707249Y-114375256D01*
X159960668Y-114812126D01*
X160291846Y-115194903D01*
X160692002Y-115510116D01*
X161152353Y-115744295D01*
X161431111Y-115834483D01*
X161898940Y-115919153D01*
X162348160Y-115915376D01*
X162724444Y-115849892D01*
X163224581Y-115676158D01*
X163672098Y-115409114D01*
X164056415Y-115060222D01*
X164366953Y-114640940D01*
X164593130Y-114162730D01*
X164715516Y-113693222D01*
X164749010Y-113176622D01*
X164680330Y-112680525D01*
X164519727Y-112215180D01*
X164277450Y-111790836D01*
X163963748Y-111417744D01*
X163588872Y-111106152D01*
X163163069Y-110866310D01*
X162696590Y-110708468D01*
X162199684Y-110642874D01*
X161699222Y-110676928D01*
X161173382Y-110819883D01*
X160699355Y-111057597D01*
X160287306Y-111379905D01*
X159947403Y-111776641D01*
X159689810Y-112237638D01*
X159524696Y-112752731D01*
X159501373Y-112874778D01*
X159468819Y-113393112D01*
X159086195Y-113393112D01*
X159092288Y-112980960D01*
X159191877Y-112463059D01*
X159379330Y-111970007D01*
X159650771Y-111513817D01*
X160002320Y-111106501D01*
X160430100Y-110760073D01*
X160930233Y-110486547D01*
X161155292Y-110398265D01*
X161369408Y-110333695D01*
X161586804Y-110294602D01*
X161846532Y-110275810D01*
X162108445Y-110271915D01*
X162587409Y-110296712D01*
X162587409Y-110296712D01*
G37*
X162587409Y-110296712D02*
X163000229Y-110377935D01*
X163383774Y-110525828D01*
X163732731Y-110723334D01*
X164176715Y-111070823D01*
X164547179Y-111491089D01*
X164835887Y-111968146D01*
X165034603Y-112486007D01*
X165135092Y-113028687D01*
X165140224Y-113455317D01*
X165050296Y-114022970D01*
X164864551Y-114546435D01*
X164593569Y-115017696D01*
X164247930Y-115428737D01*
X163838217Y-115771542D01*
X163375009Y-116038095D01*
X162868887Y-116220380D01*
X162330432Y-116310382D01*
X161770224Y-116300085D01*
X161453791Y-116248139D01*
X160937827Y-116081137D01*
X160449598Y-115817975D01*
X160013954Y-115475013D01*
X159655748Y-115068611D01*
X159650142Y-115060786D01*
X159359491Y-114563622D01*
X159172217Y-114043254D01*
X159084442Y-113511696D01*
X159086195Y-113393112D01*
X159468819Y-113393112D01*
X159540372Y-113897761D01*
X159707249Y-114375256D01*
X159960668Y-114812126D01*
X160291846Y-115194903D01*
X160692002Y-115510116D01*
X161152353Y-115744295D01*
X161431111Y-115834483D01*
X161898940Y-115919153D01*
X162348160Y-115915376D01*
X162724444Y-115849892D01*
X163224581Y-115676158D01*
X163672098Y-115409114D01*
X164056415Y-115060222D01*
X164366953Y-114640940D01*
X164593130Y-114162730D01*
X164715516Y-113693222D01*
X164749010Y-113176622D01*
X164680330Y-112680525D01*
X164519727Y-112215180D01*
X164277450Y-111790836D01*
X163963748Y-111417744D01*
X163588872Y-111106152D01*
X163163069Y-110866310D01*
X162696590Y-110708468D01*
X162199684Y-110642874D01*
X161699222Y-110676928D01*
X161173382Y-110819883D01*
X160699355Y-111057597D01*
X160287306Y-111379905D01*
X159947403Y-111776641D01*
X159689810Y-112237638D01*
X159524696Y-112752731D01*
X159501373Y-112874778D01*
X159468819Y-113393112D01*
X159086195Y-113393112D01*
X159092288Y-112980960D01*
X159191877Y-112463059D01*
X159379330Y-111970007D01*
X159650771Y-111513817D01*
X160002320Y-111106501D01*
X160430100Y-110760073D01*
X160930233Y-110486547D01*
X161155292Y-110398265D01*
X161369408Y-110333695D01*
X161586804Y-110294602D01*
X161846532Y-110275810D01*
X162108445Y-110271915D01*
X162587409Y-110296712D01*
G36*
X162698810Y-110835758D02*
X163146662Y-110996500D01*
X163554996Y-111237745D01*
X163913088Y-111548775D01*
X164210214Y-111918876D01*
X164435650Y-112337331D01*
X164578672Y-112793425D01*
X164628557Y-113276441D01*
X164595911Y-113665000D01*
X164455915Y-114177151D01*
X164222590Y-114638430D01*
X163906367Y-115037813D01*
X163517673Y-115364273D01*
X163066939Y-115606786D01*
X162632271Y-115740942D01*
X162343401Y-115794534D01*
X162110222Y-115813679D01*
X161880879Y-115798254D01*
X161603520Y-115748137D01*
X161558176Y-115738404D01*
X161079692Y-115579854D01*
X160651146Y-115330830D01*
X160282039Y-115005239D01*
X159981872Y-114616987D01*
X159760145Y-114179978D01*
X159626359Y-113708119D01*
X159594043Y-113269931D01*
X159944422Y-113269931D01*
X159985982Y-113708937D01*
X160113257Y-114120656D01*
X160317205Y-114494849D01*
X160588786Y-114821278D01*
X160918959Y-115089704D01*
X161298684Y-115289889D01*
X161718919Y-115411595D01*
X162170623Y-115444583D01*
X162644757Y-115378614D01*
X162791705Y-115337468D01*
X163212096Y-115148690D01*
X163586454Y-114867465D01*
X163793076Y-114642946D01*
X164050482Y-114233974D01*
X164207097Y-113799103D01*
X164267210Y-113352780D01*
X164235110Y-112909450D01*
X164115086Y-112483563D01*
X163911426Y-112089563D01*
X163628420Y-111741899D01*
X163270356Y-111455017D01*
X162841523Y-111243364D01*
X162777182Y-111220923D01*
X162445005Y-111152846D01*
X162060722Y-111140242D01*
X161668922Y-111180324D01*
X161314193Y-111270308D01*
X161192024Y-111319950D01*
X160864634Y-111519056D01*
X160555398Y-111791042D01*
X160297806Y-112102624D01*
X160154608Y-112351012D01*
X159997617Y-112813877D01*
X159944422Y-113269931D01*
X159594043Y-113269931D01*
X159590014Y-113215315D01*
X159620978Y-112903000D01*
X159762105Y-112387528D01*
X159997595Y-111925457D01*
X160317712Y-111526513D01*
X160712719Y-111200422D01*
X161172882Y-110956911D01*
X161688465Y-110805704D01*
X161727445Y-110798642D01*
X162222163Y-110766233D01*
X162698810Y-110835758D01*
X162698810Y-110835758D01*
G37*
X162698810Y-110835758D02*
X163146662Y-110996500D01*
X163554996Y-111237745D01*
X163913088Y-111548775D01*
X164210214Y-111918876D01*
X164435650Y-112337331D01*
X164578672Y-112793425D01*
X164628557Y-113276441D01*
X164595911Y-113665000D01*
X164455915Y-114177151D01*
X164222590Y-114638430D01*
X163906367Y-115037813D01*
X163517673Y-115364273D01*
X163066939Y-115606786D01*
X162632271Y-115740942D01*
X162343401Y-115794534D01*
X162110222Y-115813679D01*
X161880879Y-115798254D01*
X161603520Y-115748137D01*
X161558176Y-115738404D01*
X161079692Y-115579854D01*
X160651146Y-115330830D01*
X160282039Y-115005239D01*
X159981872Y-114616987D01*
X159760145Y-114179978D01*
X159626359Y-113708119D01*
X159594043Y-113269931D01*
X159944422Y-113269931D01*
X159985982Y-113708937D01*
X160113257Y-114120656D01*
X160317205Y-114494849D01*
X160588786Y-114821278D01*
X160918959Y-115089704D01*
X161298684Y-115289889D01*
X161718919Y-115411595D01*
X162170623Y-115444583D01*
X162644757Y-115378614D01*
X162791705Y-115337468D01*
X163212096Y-115148690D01*
X163586454Y-114867465D01*
X163793076Y-114642946D01*
X164050482Y-114233974D01*
X164207097Y-113799103D01*
X164267210Y-113352780D01*
X164235110Y-112909450D01*
X164115086Y-112483563D01*
X163911426Y-112089563D01*
X163628420Y-111741899D01*
X163270356Y-111455017D01*
X162841523Y-111243364D01*
X162777182Y-111220923D01*
X162445005Y-111152846D01*
X162060722Y-111140242D01*
X161668922Y-111180324D01*
X161314193Y-111270308D01*
X161192024Y-111319950D01*
X160864634Y-111519056D01*
X160555398Y-111791042D01*
X160297806Y-112102624D01*
X160154608Y-112351012D01*
X159997617Y-112813877D01*
X159944422Y-113269931D01*
X159594043Y-113269931D01*
X159590014Y-113215315D01*
X159620978Y-112903000D01*
X159762105Y-112387528D01*
X159997595Y-111925457D01*
X160317712Y-111526513D01*
X160712719Y-111200422D01*
X161172882Y-110956911D01*
X161688465Y-110805704D01*
X161727445Y-110798642D01*
X162222163Y-110766233D01*
X162698810Y-110835758D01*
G36*
X162382092Y-111284688D02*
X162581483Y-111302588D01*
X162745052Y-111340675D01*
X162911232Y-111405702D01*
X162966203Y-111430939D01*
X163332263Y-111658254D01*
X163657210Y-111966625D01*
X163909625Y-112324635D01*
X163961505Y-112426242D01*
X164035742Y-112600506D01*
X164081052Y-112760853D01*
X164104189Y-112945717D01*
X164111905Y-113193534D01*
X164112222Y-113284000D01*
X164107757Y-113557648D01*
X164089857Y-113757039D01*
X164051770Y-113920607D01*
X163986743Y-114086788D01*
X163961505Y-114141758D01*
X163734806Y-114507062D01*
X163427587Y-114831131D01*
X163071120Y-115082723D01*
X162966203Y-115136177D01*
X162592961Y-115259513D01*
X162180375Y-115311614D01*
X161768405Y-115291283D01*
X161397013Y-115197321D01*
X161364597Y-115184229D01*
X160926881Y-114945827D01*
X160575425Y-114637858D01*
X160314782Y-114267455D01*
X160149506Y-113841753D01*
X160084150Y-113367885D01*
X160085082Y-113284000D01*
X160443334Y-113284000D01*
X160453249Y-113608555D01*
X160491733Y-113856031D01*
X160571896Y-114061176D01*
X160706847Y-114258735D01*
X160886916Y-114459750D01*
X161170876Y-114711854D01*
X161469217Y-114879280D01*
X161600079Y-114927862D01*
X161778821Y-114958029D01*
X162025330Y-114964347D01*
X162299522Y-114949652D01*
X162561310Y-114916780D01*
X162770608Y-114868564D01*
X162842222Y-114840011D01*
X163073505Y-114687110D01*
X163314997Y-114471443D01*
X163527324Y-114231661D01*
X163651058Y-114046000D01*
X163711983Y-113912546D01*
X163749199Y-113765911D01*
X163767925Y-113573585D01*
X163773381Y-113303059D01*
X163773400Y-113284000D01*
X163763588Y-112959534D01*
X163725198Y-112712129D01*
X163645119Y-112507026D01*
X163510243Y-112309462D01*
X163329973Y-112108120D01*
X163102372Y-111892109D01*
X162888138Y-111748634D01*
X162653950Y-111664359D01*
X162366488Y-111625947D01*
X162108445Y-111619201D01*
X161762141Y-111632896D01*
X161493050Y-111682874D01*
X161267850Y-111782469D01*
X161053222Y-111945019D01*
X160886916Y-112108120D01*
X160691148Y-112328831D01*
X160562026Y-112525650D01*
X160486436Y-112733338D01*
X160451266Y-112986657D01*
X160443334Y-113284000D01*
X160085082Y-113284000D01*
X160086222Y-113181407D01*
X160162731Y-112707075D01*
X160338399Y-112277379D01*
X160605331Y-111904189D01*
X160955630Y-111599374D01*
X161250687Y-111430939D01*
X161424950Y-111356703D01*
X161585297Y-111311393D01*
X161770162Y-111288256D01*
X162017978Y-111280540D01*
X162108445Y-111280222D01*
X162382092Y-111284688D01*
X162382092Y-111284688D01*
G37*
X162382092Y-111284688D02*
X162581483Y-111302588D01*
X162745052Y-111340675D01*
X162911232Y-111405702D01*
X162966203Y-111430939D01*
X163332263Y-111658254D01*
X163657210Y-111966625D01*
X163909625Y-112324635D01*
X163961505Y-112426242D01*
X164035742Y-112600506D01*
X164081052Y-112760853D01*
X164104189Y-112945717D01*
X164111905Y-113193534D01*
X164112222Y-113284000D01*
X164107757Y-113557648D01*
X164089857Y-113757039D01*
X164051770Y-113920607D01*
X163986743Y-114086788D01*
X163961505Y-114141758D01*
X163734806Y-114507062D01*
X163427587Y-114831131D01*
X163071120Y-115082723D01*
X162966203Y-115136177D01*
X162592961Y-115259513D01*
X162180375Y-115311614D01*
X161768405Y-115291283D01*
X161397013Y-115197321D01*
X161364597Y-115184229D01*
X160926881Y-114945827D01*
X160575425Y-114637858D01*
X160314782Y-114267455D01*
X160149506Y-113841753D01*
X160084150Y-113367885D01*
X160085082Y-113284000D01*
X160443334Y-113284000D01*
X160453249Y-113608555D01*
X160491733Y-113856031D01*
X160571896Y-114061176D01*
X160706847Y-114258735D01*
X160886916Y-114459750D01*
X161170876Y-114711854D01*
X161469217Y-114879280D01*
X161600079Y-114927862D01*
X161778821Y-114958029D01*
X162025330Y-114964347D01*
X162299522Y-114949652D01*
X162561310Y-114916780D01*
X162770608Y-114868564D01*
X162842222Y-114840011D01*
X163073505Y-114687110D01*
X163314997Y-114471443D01*
X163527324Y-114231661D01*
X163651058Y-114046000D01*
X163711983Y-113912546D01*
X163749199Y-113765911D01*
X163767925Y-113573585D01*
X163773381Y-113303059D01*
X163773400Y-113284000D01*
X163763588Y-112959534D01*
X163725198Y-112712129D01*
X163645119Y-112507026D01*
X163510243Y-112309462D01*
X163329973Y-112108120D01*
X163102372Y-111892109D01*
X162888138Y-111748634D01*
X162653950Y-111664359D01*
X162366488Y-111625947D01*
X162108445Y-111619201D01*
X161762141Y-111632896D01*
X161493050Y-111682874D01*
X161267850Y-111782469D01*
X161053222Y-111945019D01*
X160886916Y-112108120D01*
X160691148Y-112328831D01*
X160562026Y-112525650D01*
X160486436Y-112733338D01*
X160451266Y-112986657D01*
X160443334Y-113284000D01*
X160085082Y-113284000D01*
X160086222Y-113181407D01*
X160162731Y-112707075D01*
X160338399Y-112277379D01*
X160605331Y-111904189D01*
X160955630Y-111599374D01*
X161250687Y-111430939D01*
X161424950Y-111356703D01*
X161585297Y-111311393D01*
X161770162Y-111288256D01*
X162017978Y-111280540D01*
X162108445Y-111280222D01*
X162382092Y-111284688D01*
G36*
X162458292Y-111752342D02*
X162734847Y-111819248D01*
X162972530Y-111947766D01*
X163205767Y-112151809D01*
X163245225Y-112192662D01*
X163440385Y-112419964D01*
X163564706Y-112631084D01*
X163632497Y-112863698D01*
X163658066Y-113155482D01*
X163659691Y-113284000D01*
X163645959Y-113606736D01*
X163595222Y-113856563D01*
X163493174Y-114071157D01*
X163325505Y-114288194D01*
X163245225Y-114375339D01*
X162969156Y-114615222D01*
X162670731Y-114763666D01*
X162317772Y-114834994D01*
X162193111Y-114843648D01*
X161971372Y-114846190D01*
X161776752Y-114835481D01*
X161656524Y-114815060D01*
X161300484Y-114649469D01*
X160989814Y-114394090D01*
X160971664Y-114375208D01*
X160776511Y-114148020D01*
X160652188Y-113936928D01*
X160584391Y-113704280D01*
X160558821Y-113412423D01*
X160557915Y-113340687D01*
X161318222Y-113340687D01*
X161337832Y-113537235D01*
X161411973Y-113700552D01*
X161495625Y-113812166D01*
X161625068Y-113950085D01*
X161748312Y-114051233D01*
X161791958Y-114075448D01*
X162022022Y-114122694D01*
X162286017Y-114110814D01*
X162524115Y-114043557D01*
X162556520Y-114027528D01*
X162764000Y-113858397D01*
X162894602Y-113631660D01*
X162947651Y-113372997D01*
X162922476Y-113108088D01*
X162818402Y-112862613D01*
X162634757Y-112662251D01*
X162593068Y-112632873D01*
X162332914Y-112522204D01*
X162064890Y-112509200D01*
X161809767Y-112582328D01*
X161588312Y-112730059D01*
X161421296Y-112940861D01*
X161329486Y-113203202D01*
X161318222Y-113340687D01*
X160557915Y-113340687D01*
X160557198Y-113284000D01*
X160570931Y-112961264D01*
X160621667Y-112711437D01*
X160723716Y-112496843D01*
X160891385Y-112279807D01*
X160971664Y-112192662D01*
X161207402Y-111975156D01*
X161442044Y-111835417D01*
X161710014Y-111759530D01*
X162045735Y-111733580D01*
X162108445Y-111733132D01*
X162458292Y-111752342D01*
X162458292Y-111752342D01*
G37*
X162458292Y-111752342D02*
X162734847Y-111819248D01*
X162972530Y-111947766D01*
X163205767Y-112151809D01*
X163245225Y-112192662D01*
X163440385Y-112419964D01*
X163564706Y-112631084D01*
X163632497Y-112863698D01*
X163658066Y-113155482D01*
X163659691Y-113284000D01*
X163645959Y-113606736D01*
X163595222Y-113856563D01*
X163493174Y-114071157D01*
X163325505Y-114288194D01*
X163245225Y-114375339D01*
X162969156Y-114615222D01*
X162670731Y-114763666D01*
X162317772Y-114834994D01*
X162193111Y-114843648D01*
X161971372Y-114846190D01*
X161776752Y-114835481D01*
X161656524Y-114815060D01*
X161300484Y-114649469D01*
X160989814Y-114394090D01*
X160971664Y-114375208D01*
X160776511Y-114148020D01*
X160652188Y-113936928D01*
X160584391Y-113704280D01*
X160558821Y-113412423D01*
X160557915Y-113340687D01*
X161318222Y-113340687D01*
X161337832Y-113537235D01*
X161411973Y-113700552D01*
X161495625Y-113812166D01*
X161625068Y-113950085D01*
X161748312Y-114051233D01*
X161791958Y-114075448D01*
X162022022Y-114122694D01*
X162286017Y-114110814D01*
X162524115Y-114043557D01*
X162556520Y-114027528D01*
X162764000Y-113858397D01*
X162894602Y-113631660D01*
X162947651Y-113372997D01*
X162922476Y-113108088D01*
X162818402Y-112862613D01*
X162634757Y-112662251D01*
X162593068Y-112632873D01*
X162332914Y-112522204D01*
X162064890Y-112509200D01*
X161809767Y-112582328D01*
X161588312Y-112730059D01*
X161421296Y-112940861D01*
X161329486Y-113203202D01*
X161318222Y-113340687D01*
X160557915Y-113340687D01*
X160557198Y-113284000D01*
X160570931Y-112961264D01*
X160621667Y-112711437D01*
X160723716Y-112496843D01*
X160891385Y-112279807D01*
X160971664Y-112192662D01*
X161207402Y-111975156D01*
X161442044Y-111835417D01*
X161710014Y-111759530D01*
X162045735Y-111733580D01*
X162108445Y-111733132D01*
X162458292Y-111752342D01*
G36*
X162264265Y-112577242D02*
X162413272Y-112670510D01*
X162495595Y-112832000D01*
X162503556Y-112909664D01*
X162462864Y-113098841D01*
X162335246Y-113227680D01*
X162112385Y-113304260D01*
X162093906Y-113307711D01*
X161886740Y-113390306D01*
X161759472Y-113539205D01*
X161725376Y-113736560D01*
X161733221Y-113792660D01*
X161749201Y-113910167D01*
X161741247Y-113961264D01*
X161740499Y-113961334D01*
X161695327Y-113919688D01*
X161607930Y-113812826D01*
X161539396Y-113721445D01*
X161432594Y-113556181D01*
X161389004Y-113421535D01*
X161392961Y-113267365D01*
X161394290Y-113256992D01*
X161426605Y-113110418D01*
X161470777Y-113021477D01*
X161483915Y-113012399D01*
X161541899Y-112946499D01*
X161544699Y-112926519D01*
X161591744Y-112852678D01*
X161709335Y-112757351D01*
X161863930Y-112662746D01*
X162021984Y-112591072D01*
X162076693Y-112574287D01*
X162264265Y-112577242D01*
X162264265Y-112577242D01*
G37*
X162264265Y-112577242D02*
X162413272Y-112670510D01*
X162495595Y-112832000D01*
X162503556Y-112909664D01*
X162462864Y-113098841D01*
X162335246Y-113227680D01*
X162112385Y-113304260D01*
X162093906Y-113307711D01*
X161886740Y-113390306D01*
X161759472Y-113539205D01*
X161725376Y-113736560D01*
X161733221Y-113792660D01*
X161749201Y-113910167D01*
X161741247Y-113961264D01*
X161740499Y-113961334D01*
X161695327Y-113919688D01*
X161607930Y-113812826D01*
X161539396Y-113721445D01*
X161432594Y-113556181D01*
X161389004Y-113421535D01*
X161392961Y-113267365D01*
X161394290Y-113256992D01*
X161426605Y-113110418D01*
X161470777Y-113021477D01*
X161483915Y-113012399D01*
X161541899Y-112946499D01*
X161544699Y-112926519D01*
X161591744Y-112852678D01*
X161709335Y-112757351D01*
X161863930Y-112662746D01*
X162021984Y-112591072D01*
X162076693Y-112574287D01*
X162264265Y-112577242D01*
G36*
X197063000Y-76335742D02*
X197648308Y-76471840D01*
X198194462Y-76705796D01*
X198713335Y-77042653D01*
X199200033Y-77470731D01*
X199434698Y-77710286D01*
X199607850Y-77907149D01*
X199742858Y-78093051D01*
X199863094Y-78299722D01*
X199974241Y-78521889D01*
X200141431Y-78910212D01*
X200254730Y-79279938D01*
X200319896Y-79663663D01*
X200342686Y-80093983D01*
X200331814Y-80546222D01*
X200306346Y-80924682D01*
X200269884Y-81202732D01*
X200218451Y-81392634D01*
X200148070Y-81506647D01*
X200054761Y-81557033D01*
X200002189Y-81562222D01*
X199741464Y-81606054D01*
X199550819Y-81738074D01*
X199463911Y-81871384D01*
X199382872Y-82006075D01*
X199287503Y-82061830D01*
X199189602Y-82070222D01*
X198970227Y-82122144D01*
X198792948Y-82261070D01*
X198687977Y-82461745D01*
X198680262Y-82496002D01*
X198644447Y-82625242D01*
X198603958Y-82689527D01*
X198597827Y-82691111D01*
X198529118Y-82724469D01*
X198414625Y-82807509D01*
X198378331Y-82837240D01*
X198256107Y-82967308D01*
X198208978Y-83112988D01*
X198204667Y-83206115D01*
X198228157Y-83390735D01*
X198285726Y-83551176D01*
X198295945Y-83568168D01*
X198341851Y-83646096D01*
X198341199Y-83700108D01*
X198276877Y-83751202D01*
X198131775Y-83820378D01*
X198067056Y-83849069D01*
X197561236Y-84032708D01*
X197025716Y-84155754D01*
X196489414Y-84214999D01*
X195981247Y-84207239D01*
X195532975Y-84130049D01*
X194852281Y-83892751D01*
X194250961Y-83577214D01*
X193730583Y-83184508D01*
X193292719Y-82715704D01*
X193131516Y-82492963D01*
X192829495Y-81976484D01*
X192624351Y-81465460D01*
X192505724Y-80930074D01*
X192472459Y-80596293D01*
X192467050Y-80350149D01*
X193419577Y-80350149D01*
X193466985Y-80767050D01*
X193576103Y-81157409D01*
X193721775Y-81495128D01*
X194020169Y-81977380D01*
X194403921Y-82389382D01*
X194864651Y-82723798D01*
X195393984Y-82973289D01*
X195420125Y-82982702D01*
X195915114Y-83119772D01*
X196389223Y-83164854D01*
X196872034Y-83118079D01*
X197358000Y-82991205D01*
X197804844Y-82812546D01*
X198181763Y-82583274D01*
X198528927Y-82277735D01*
X198612332Y-82190153D01*
X198955474Y-81754157D01*
X199197505Y-81289743D01*
X199350088Y-80773558D01*
X199368443Y-80676277D01*
X199416169Y-80095736D01*
X199358328Y-79537707D01*
X199201540Y-79012150D01*
X198952426Y-78529025D01*
X198617609Y-78098290D01*
X198203708Y-77729905D01*
X197717344Y-77433830D01*
X197165140Y-77220023D01*
X197049808Y-77188626D01*
X196538298Y-77115193D01*
X196011897Y-77144782D01*
X195488322Y-77272340D01*
X194985289Y-77492813D01*
X194520515Y-77801148D01*
X194332161Y-77963852D01*
X194118217Y-78181315D01*
X193948354Y-78401434D01*
X193791632Y-78667004D01*
X193714378Y-78818348D01*
X193593952Y-79070752D01*
X193516212Y-79266815D01*
X193469501Y-79449148D01*
X193442166Y-79660359D01*
X193427024Y-79868889D01*
X193419577Y-80350149D01*
X192467050Y-80350149D01*
X192460185Y-80037784D01*
X192500240Y-79552250D01*
X192596907Y-79110512D01*
X192752610Y-78687609D01*
X193072951Y-78092672D01*
X193473782Y-77572687D01*
X193946526Y-77133245D01*
X194482606Y-76779938D01*
X195073445Y-76518358D01*
X195710465Y-76354096D01*
X196385089Y-76292744D01*
X196426667Y-76292458D01*
X197063000Y-76335742D01*
X197063000Y-76335742D01*
G37*
X197063000Y-76335742D02*
X197648308Y-76471840D01*
X198194462Y-76705796D01*
X198713335Y-77042653D01*
X199200033Y-77470731D01*
X199434698Y-77710286D01*
X199607850Y-77907149D01*
X199742858Y-78093051D01*
X199863094Y-78299722D01*
X199974241Y-78521889D01*
X200141431Y-78910212D01*
X200254730Y-79279938D01*
X200319896Y-79663663D01*
X200342686Y-80093983D01*
X200331814Y-80546222D01*
X200306346Y-80924682D01*
X200269884Y-81202732D01*
X200218451Y-81392634D01*
X200148070Y-81506647D01*
X200054761Y-81557033D01*
X200002189Y-81562222D01*
X199741464Y-81606054D01*
X199550819Y-81738074D01*
X199463911Y-81871384D01*
X199382872Y-82006075D01*
X199287503Y-82061830D01*
X199189602Y-82070222D01*
X198970227Y-82122144D01*
X198792948Y-82261070D01*
X198687977Y-82461745D01*
X198680262Y-82496002D01*
X198644447Y-82625242D01*
X198603958Y-82689527D01*
X198597827Y-82691111D01*
X198529118Y-82724469D01*
X198414625Y-82807509D01*
X198378331Y-82837240D01*
X198256107Y-82967308D01*
X198208978Y-83112988D01*
X198204667Y-83206115D01*
X198228157Y-83390735D01*
X198285726Y-83551176D01*
X198295945Y-83568168D01*
X198341851Y-83646096D01*
X198341199Y-83700108D01*
X198276877Y-83751202D01*
X198131775Y-83820378D01*
X198067056Y-83849069D01*
X197561236Y-84032708D01*
X197025716Y-84155754D01*
X196489414Y-84214999D01*
X195981247Y-84207239D01*
X195532975Y-84130049D01*
X194852281Y-83892751D01*
X194250961Y-83577214D01*
X193730583Y-83184508D01*
X193292719Y-82715704D01*
X193131516Y-82492963D01*
X192829495Y-81976484D01*
X192624351Y-81465460D01*
X192505724Y-80930074D01*
X192472459Y-80596293D01*
X192467050Y-80350149D01*
X193419577Y-80350149D01*
X193466985Y-80767050D01*
X193576103Y-81157409D01*
X193721775Y-81495128D01*
X194020169Y-81977380D01*
X194403921Y-82389382D01*
X194864651Y-82723798D01*
X195393984Y-82973289D01*
X195420125Y-82982702D01*
X195915114Y-83119772D01*
X196389223Y-83164854D01*
X196872034Y-83118079D01*
X197358000Y-82991205D01*
X197804844Y-82812546D01*
X198181763Y-82583274D01*
X198528927Y-82277735D01*
X198612332Y-82190153D01*
X198955474Y-81754157D01*
X199197505Y-81289743D01*
X199350088Y-80773558D01*
X199368443Y-80676277D01*
X199416169Y-80095736D01*
X199358328Y-79537707D01*
X199201540Y-79012150D01*
X198952426Y-78529025D01*
X198617609Y-78098290D01*
X198203708Y-77729905D01*
X197717344Y-77433830D01*
X197165140Y-77220023D01*
X197049808Y-77188626D01*
X196538298Y-77115193D01*
X196011897Y-77144782D01*
X195488322Y-77272340D01*
X194985289Y-77492813D01*
X194520515Y-77801148D01*
X194332161Y-77963852D01*
X194118217Y-78181315D01*
X193948354Y-78401434D01*
X193791632Y-78667004D01*
X193714378Y-78818348D01*
X193593952Y-79070752D01*
X193516212Y-79266815D01*
X193469501Y-79449148D01*
X193442166Y-79660359D01*
X193427024Y-79868889D01*
X193419577Y-80350149D01*
X192467050Y-80350149D01*
X192460185Y-80037784D01*
X192500240Y-79552250D01*
X192596907Y-79110512D01*
X192752610Y-78687609D01*
X193072951Y-78092672D01*
X193473782Y-77572687D01*
X193946526Y-77133245D01*
X194482606Y-76779938D01*
X195073445Y-76518358D01*
X195710465Y-76354096D01*
X196385089Y-76292744D01*
X196426667Y-76292458D01*
X197063000Y-76335742D01*
G36*
X198325268Y-78795194D02*
X198486889Y-78991499D01*
X198486889Y-81433559D01*
X197654334Y-81468844D01*
X197328664Y-81481874D01*
X196924872Y-81496839D01*
X196477678Y-81512523D01*
X196021804Y-81527706D01*
X195594111Y-81541106D01*
X194366445Y-81578084D01*
X194366445Y-79031107D01*
X194705111Y-79031107D01*
X194714870Y-79077955D01*
X194757411Y-79108233D01*
X194852626Y-79125489D01*
X195020410Y-79133266D01*
X195280657Y-79135111D01*
X195288701Y-79135111D01*
X195539190Y-79133086D01*
X195871038Y-79127469D01*
X196252798Y-79118950D01*
X196653021Y-79108218D01*
X196977032Y-79098112D01*
X197355181Y-79084945D01*
X197634234Y-79073155D01*
X197827940Y-79060877D01*
X197950044Y-79046244D01*
X198014294Y-79027391D01*
X198034437Y-79002452D01*
X198024221Y-78969561D01*
X198016753Y-78957001D01*
X197975967Y-78911585D01*
X197907269Y-78881519D01*
X197789782Y-78863767D01*
X197602628Y-78855294D01*
X197324930Y-78853063D01*
X197302089Y-78853062D01*
X197011558Y-78855487D01*
X196646782Y-78862050D01*
X196246297Y-78871868D01*
X195848635Y-78884062D01*
X195678778Y-78890168D01*
X195325072Y-78904442D01*
X195068735Y-78917838D01*
X194894288Y-78932597D01*
X194786254Y-78950959D01*
X194729155Y-78975164D01*
X194707515Y-79007453D01*
X194705111Y-79031107D01*
X194366445Y-79031107D01*
X194366445Y-78700127D01*
X196265045Y-78649508D01*
X198163646Y-78598889D01*
X198325268Y-78795194D01*
X198325268Y-78795194D01*
G37*
X198325268Y-78795194D02*
X198486889Y-78991499D01*
X198486889Y-81433559D01*
X197654334Y-81468844D01*
X197328664Y-81481874D01*
X196924872Y-81496839D01*
X196477678Y-81512523D01*
X196021804Y-81527706D01*
X195594111Y-81541106D01*
X194366445Y-81578084D01*
X194366445Y-79031107D01*
X194705111Y-79031107D01*
X194714870Y-79077955D01*
X194757411Y-79108233D01*
X194852626Y-79125489D01*
X195020410Y-79133266D01*
X195280657Y-79135111D01*
X195288701Y-79135111D01*
X195539190Y-79133086D01*
X195871038Y-79127469D01*
X196252798Y-79118950D01*
X196653021Y-79108218D01*
X196977032Y-79098112D01*
X197355181Y-79084945D01*
X197634234Y-79073155D01*
X197827940Y-79060877D01*
X197950044Y-79046244D01*
X198014294Y-79027391D01*
X198034437Y-79002452D01*
X198024221Y-78969561D01*
X198016753Y-78957001D01*
X197975967Y-78911585D01*
X197907269Y-78881519D01*
X197789782Y-78863767D01*
X197602628Y-78855294D01*
X197324930Y-78853063D01*
X197302089Y-78853062D01*
X197011558Y-78855487D01*
X196646782Y-78862050D01*
X196246297Y-78871868D01*
X195848635Y-78884062D01*
X195678778Y-78890168D01*
X195325072Y-78904442D01*
X195068735Y-78917838D01*
X194894288Y-78932597D01*
X194786254Y-78950959D01*
X194729155Y-78975164D01*
X194707515Y-79007453D01*
X194705111Y-79031107D01*
X194366445Y-79031107D01*
X194366445Y-78700127D01*
X196265045Y-78649508D01*
X198163646Y-78598889D01*
X198325268Y-78795194D01*
G36*
X189649003Y-100532573D02*
X189738692Y-100615323D01*
X189790633Y-100697267D01*
X189815084Y-100811633D01*
X189822304Y-100991648D01*
X189822667Y-101095032D01*
X189818371Y-101316833D01*
X189801369Y-101452771D01*
X189765489Y-101529679D01*
X189713489Y-101569792D01*
X189639255Y-101580089D01*
X189465730Y-101589476D01*
X189206508Y-101597903D01*
X188875183Y-101605317D01*
X188485350Y-101611666D01*
X188050603Y-101616899D01*
X187584536Y-101620964D01*
X187100743Y-101623808D01*
X186612820Y-101625381D01*
X186134360Y-101625630D01*
X185678957Y-101624503D01*
X185260206Y-101621949D01*
X184891702Y-101617916D01*
X184587038Y-101612352D01*
X184359809Y-101605204D01*
X184223609Y-101596423D01*
X184192334Y-101590840D01*
X184149679Y-101517477D01*
X184126572Y-101337853D01*
X184121778Y-101143252D01*
X184126219Y-100917828D01*
X184145602Y-100769626D01*
X184166679Y-100717919D01*
X184457508Y-100717919D01*
X184472660Y-100735976D01*
X184520851Y-100750246D01*
X184611495Y-100761175D01*
X184754005Y-100769210D01*
X184957794Y-100774795D01*
X185232276Y-100778375D01*
X185586865Y-100780397D01*
X186030974Y-100781306D01*
X186574016Y-100781547D01*
X186874191Y-100781556D01*
X187395938Y-100780786D01*
X187884601Y-100778585D01*
X188328239Y-100775114D01*
X188714907Y-100770534D01*
X189032663Y-100765006D01*
X189269564Y-100758692D01*
X189413668Y-100751752D01*
X189452602Y-100746742D01*
X189511307Y-100699276D01*
X189478529Y-100633853D01*
X189445246Y-100614380D01*
X189374458Y-100598295D01*
X189256817Y-100585302D01*
X189082974Y-100575107D01*
X188843582Y-100567415D01*
X188529290Y-100561931D01*
X188130750Y-100558360D01*
X187638613Y-100556408D01*
X187043532Y-100555780D01*
X187002281Y-100555778D01*
X186417250Y-100555939D01*
X185934708Y-100556735D01*
X185544256Y-100558632D01*
X185235493Y-100562098D01*
X184998021Y-100567599D01*
X184821440Y-100575602D01*
X184695349Y-100586576D01*
X184609351Y-100600985D01*
X184553045Y-100619299D01*
X184516031Y-100641983D01*
X184488667Y-100668667D01*
X184465981Y-100695632D01*
X184457508Y-100717919D01*
X184166679Y-100717919D01*
X184189012Y-100663131D01*
X184265538Y-100562828D01*
X184272219Y-100555289D01*
X184422660Y-100386445D01*
X189475339Y-100386445D01*
X189649003Y-100532573D01*
X189649003Y-100532573D01*
G37*
X189649003Y-100532573D02*
X189738692Y-100615323D01*
X189790633Y-100697267D01*
X189815084Y-100811633D01*
X189822304Y-100991648D01*
X189822667Y-101095032D01*
X189818371Y-101316833D01*
X189801369Y-101452771D01*
X189765489Y-101529679D01*
X189713489Y-101569792D01*
X189639255Y-101580089D01*
X189465730Y-101589476D01*
X189206508Y-101597903D01*
X188875183Y-101605317D01*
X188485350Y-101611666D01*
X188050603Y-101616899D01*
X187584536Y-101620964D01*
X187100743Y-101623808D01*
X186612820Y-101625381D01*
X186134360Y-101625630D01*
X185678957Y-101624503D01*
X185260206Y-101621949D01*
X184891702Y-101617916D01*
X184587038Y-101612352D01*
X184359809Y-101605204D01*
X184223609Y-101596423D01*
X184192334Y-101590840D01*
X184149679Y-101517477D01*
X184126572Y-101337853D01*
X184121778Y-101143252D01*
X184126219Y-100917828D01*
X184145602Y-100769626D01*
X184166679Y-100717919D01*
X184457508Y-100717919D01*
X184472660Y-100735976D01*
X184520851Y-100750246D01*
X184611495Y-100761175D01*
X184754005Y-100769210D01*
X184957794Y-100774795D01*
X185232276Y-100778375D01*
X185586865Y-100780397D01*
X186030974Y-100781306D01*
X186574016Y-100781547D01*
X186874191Y-100781556D01*
X187395938Y-100780786D01*
X187884601Y-100778585D01*
X188328239Y-100775114D01*
X188714907Y-100770534D01*
X189032663Y-100765006D01*
X189269564Y-100758692D01*
X189413668Y-100751752D01*
X189452602Y-100746742D01*
X189511307Y-100699276D01*
X189478529Y-100633853D01*
X189445246Y-100614380D01*
X189374458Y-100598295D01*
X189256817Y-100585302D01*
X189082974Y-100575107D01*
X188843582Y-100567415D01*
X188529290Y-100561931D01*
X188130750Y-100558360D01*
X187638613Y-100556408D01*
X187043532Y-100555780D01*
X187002281Y-100555778D01*
X186417250Y-100555939D01*
X185934708Y-100556735D01*
X185544256Y-100558632D01*
X185235493Y-100562098D01*
X184998021Y-100567599D01*
X184821440Y-100575602D01*
X184695349Y-100586576D01*
X184609351Y-100600985D01*
X184553045Y-100619299D01*
X184516031Y-100641983D01*
X184488667Y-100668667D01*
X184465981Y-100695632D01*
X184457508Y-100717919D01*
X184166679Y-100717919D01*
X184189012Y-100663131D01*
X184265538Y-100562828D01*
X184272219Y-100555289D01*
X184422660Y-100386445D01*
X189475339Y-100386445D01*
X189649003Y-100532573D01*
G36*
X187205105Y-96396698D02*
X187413363Y-96551363D01*
X187478875Y-96633711D01*
X187575607Y-96745656D01*
X187693226Y-96795654D01*
X187837436Y-96807396D01*
X188081915Y-96862219D01*
X188274592Y-97001421D01*
X188404390Y-97204097D01*
X188460230Y-97449338D01*
X188431036Y-97716237D01*
X188385466Y-97841715D01*
X188325932Y-98007341D01*
X188328349Y-98124405D01*
X188349551Y-98174721D01*
X188410213Y-98395055D01*
X188382412Y-98626957D01*
X188281644Y-98843711D01*
X188123402Y-99018600D01*
X187923180Y-99124909D01*
X187787028Y-99144667D01*
X187673299Y-99188277D01*
X187527899Y-99304811D01*
X187458264Y-99377509D01*
X187318595Y-99519411D01*
X187193289Y-99594366D01*
X187032824Y-99628500D01*
X186970817Y-99634651D01*
X186746567Y-99635009D01*
X186575611Y-99583370D01*
X186518251Y-99550862D01*
X186368478Y-99430944D01*
X186249074Y-99294078D01*
X186248839Y-99293720D01*
X186125719Y-99174588D01*
X185976503Y-99144667D01*
X185827016Y-99112832D01*
X185668617Y-99006132D01*
X185582693Y-98925530D01*
X185446880Y-98773051D01*
X185381090Y-98642711D01*
X185363564Y-98490920D01*
X185363556Y-98486533D01*
X185387572Y-98305005D01*
X185446380Y-98149681D01*
X185456289Y-98134279D01*
X185515183Y-98032463D01*
X185513036Y-97997339D01*
X185586464Y-97997339D01*
X185801409Y-98094266D01*
X185972621Y-98154023D01*
X186134501Y-98158064D01*
X186268511Y-98133087D01*
X186501061Y-98087802D01*
X186631017Y-98087021D01*
X186661761Y-98136355D01*
X186596674Y-98241414D01*
X186439141Y-98407808D01*
X186436000Y-98410889D01*
X186299215Y-98559408D01*
X186231335Y-98683907D01*
X186210620Y-98827651D01*
X186210222Y-98860209D01*
X186220198Y-99002447D01*
X186245145Y-99082079D01*
X186255594Y-99088222D01*
X186318821Y-99050973D01*
X186426329Y-98956784D01*
X186481765Y-98901685D01*
X186615211Y-98722535D01*
X186719206Y-98512435D01*
X186735119Y-98464553D01*
X186802594Y-98300236D01*
X186879845Y-98204999D01*
X186949298Y-98187589D01*
X186993378Y-98256755D01*
X187000445Y-98332485D01*
X187033938Y-98522677D01*
X187119752Y-98727660D01*
X187235892Y-98906419D01*
X187360360Y-99017940D01*
X187370822Y-99023097D01*
X187495879Y-99075035D01*
X187550827Y-99062937D01*
X187564510Y-98966934D01*
X187564889Y-98889406D01*
X187542528Y-98740299D01*
X187462896Y-98593312D01*
X187339111Y-98445649D01*
X187187544Y-98264778D01*
X187120304Y-98144221D01*
X187138444Y-98087685D01*
X187240334Y-98098045D01*
X187491500Y-98152367D01*
X187751938Y-98172024D01*
X187976897Y-98155368D01*
X188072825Y-98128693D01*
X188243402Y-98058038D01*
X188099304Y-97924493D01*
X187890588Y-97784339D01*
X187679077Y-97753660D01*
X187544900Y-97786870D01*
X187369239Y-97834509D01*
X187219689Y-97842352D01*
X187127831Y-97811029D01*
X187113334Y-97778269D01*
X187149678Y-97700185D01*
X187242034Y-97578707D01*
X187303814Y-97510158D01*
X187462724Y-97303254D01*
X187535832Y-97113427D01*
X187516807Y-96958157D01*
X187508812Y-96943927D01*
X187433787Y-96904433D01*
X187330222Y-96948142D01*
X187218594Y-97056563D01*
X187119379Y-97211207D01*
X187066311Y-97343473D01*
X187015478Y-97511013D01*
X186976139Y-97639523D01*
X186966866Y-97669357D01*
X186920983Y-97713537D01*
X186855859Y-97673235D01*
X186792040Y-97569614D01*
X186754840Y-97450977D01*
X186698339Y-97306173D01*
X186598351Y-97156436D01*
X186478885Y-97027461D01*
X186363948Y-96944943D01*
X186277550Y-96934577D01*
X186274187Y-96936556D01*
X186231747Y-97024255D01*
X186254877Y-97166392D01*
X186333011Y-97334059D01*
X186455582Y-97498346D01*
X186493749Y-97537250D01*
X186626142Y-97680389D01*
X186665348Y-97773527D01*
X186606999Y-97822500D01*
X186446728Y-97833145D01*
X186280778Y-97821798D01*
X186059226Y-97806963D01*
X185911420Y-97817024D01*
X185800012Y-97856823D01*
X185743121Y-97891517D01*
X185586464Y-97997339D01*
X185513036Y-97997339D01*
X185509961Y-97947053D01*
X185456289Y-97844900D01*
X185377492Y-97613939D01*
X185377578Y-97357148D01*
X185435766Y-97170805D01*
X185560244Y-97013772D01*
X185744147Y-96877059D01*
X185942099Y-96790080D01*
X186047935Y-96774000D01*
X186212599Y-96725611D01*
X186301970Y-96630004D01*
X186484415Y-96443713D01*
X186713704Y-96342788D01*
X186962909Y-96327145D01*
X187205105Y-96396698D01*
X187205105Y-96396698D01*
G37*
X187205105Y-96396698D02*
X187413363Y-96551363D01*
X187478875Y-96633711D01*
X187575607Y-96745656D01*
X187693226Y-96795654D01*
X187837436Y-96807396D01*
X188081915Y-96862219D01*
X188274592Y-97001421D01*
X188404390Y-97204097D01*
X188460230Y-97449338D01*
X188431036Y-97716237D01*
X188385466Y-97841715D01*
X188325932Y-98007341D01*
X188328349Y-98124405D01*
X188349551Y-98174721D01*
X188410213Y-98395055D01*
X188382412Y-98626957D01*
X188281644Y-98843711D01*
X188123402Y-99018600D01*
X187923180Y-99124909D01*
X187787028Y-99144667D01*
X187673299Y-99188277D01*
X187527899Y-99304811D01*
X187458264Y-99377509D01*
X187318595Y-99519411D01*
X187193289Y-99594366D01*
X187032824Y-99628500D01*
X186970817Y-99634651D01*
X186746567Y-99635009D01*
X186575611Y-99583370D01*
X186518251Y-99550862D01*
X186368478Y-99430944D01*
X186249074Y-99294078D01*
X186248839Y-99293720D01*
X186125719Y-99174588D01*
X185976503Y-99144667D01*
X185827016Y-99112832D01*
X185668617Y-99006132D01*
X185582693Y-98925530D01*
X185446880Y-98773051D01*
X185381090Y-98642711D01*
X185363564Y-98490920D01*
X185363556Y-98486533D01*
X185387572Y-98305005D01*
X185446380Y-98149681D01*
X185456289Y-98134279D01*
X185515183Y-98032463D01*
X185513036Y-97997339D01*
X185586464Y-97997339D01*
X185801409Y-98094266D01*
X185972621Y-98154023D01*
X186134501Y-98158064D01*
X186268511Y-98133087D01*
X186501061Y-98087802D01*
X186631017Y-98087021D01*
X186661761Y-98136355D01*
X186596674Y-98241414D01*
X186439141Y-98407808D01*
X186436000Y-98410889D01*
X186299215Y-98559408D01*
X186231335Y-98683907D01*
X186210620Y-98827651D01*
X186210222Y-98860209D01*
X186220198Y-99002447D01*
X186245145Y-99082079D01*
X186255594Y-99088222D01*
X186318821Y-99050973D01*
X186426329Y-98956784D01*
X186481765Y-98901685D01*
X186615211Y-98722535D01*
X186719206Y-98512435D01*
X186735119Y-98464553D01*
X186802594Y-98300236D01*
X186879845Y-98204999D01*
X186949298Y-98187589D01*
X186993378Y-98256755D01*
X187000445Y-98332485D01*
X187033938Y-98522677D01*
X187119752Y-98727660D01*
X187235892Y-98906419D01*
X187360360Y-99017940D01*
X187370822Y-99023097D01*
X187495879Y-99075035D01*
X187550827Y-99062937D01*
X187564510Y-98966934D01*
X187564889Y-98889406D01*
X187542528Y-98740299D01*
X187462896Y-98593312D01*
X187339111Y-98445649D01*
X187187544Y-98264778D01*
X187120304Y-98144221D01*
X187138444Y-98087685D01*
X187240334Y-98098045D01*
X187491500Y-98152367D01*
X187751938Y-98172024D01*
X187976897Y-98155368D01*
X188072825Y-98128693D01*
X188243402Y-98058038D01*
X188099304Y-97924493D01*
X187890588Y-97784339D01*
X187679077Y-97753660D01*
X187544900Y-97786870D01*
X187369239Y-97834509D01*
X187219689Y-97842352D01*
X187127831Y-97811029D01*
X187113334Y-97778269D01*
X187149678Y-97700185D01*
X187242034Y-97578707D01*
X187303814Y-97510158D01*
X187462724Y-97303254D01*
X187535832Y-97113427D01*
X187516807Y-96958157D01*
X187508812Y-96943927D01*
X187433787Y-96904433D01*
X187330222Y-96948142D01*
X187218594Y-97056563D01*
X187119379Y-97211207D01*
X187066311Y-97343473D01*
X187015478Y-97511013D01*
X186976139Y-97639523D01*
X186966866Y-97669357D01*
X186920983Y-97713537D01*
X186855859Y-97673235D01*
X186792040Y-97569614D01*
X186754840Y-97450977D01*
X186698339Y-97306173D01*
X186598351Y-97156436D01*
X186478885Y-97027461D01*
X186363948Y-96944943D01*
X186277550Y-96934577D01*
X186274187Y-96936556D01*
X186231747Y-97024255D01*
X186254877Y-97166392D01*
X186333011Y-97334059D01*
X186455582Y-97498346D01*
X186493749Y-97537250D01*
X186626142Y-97680389D01*
X186665348Y-97773527D01*
X186606999Y-97822500D01*
X186446728Y-97833145D01*
X186280778Y-97821798D01*
X186059226Y-97806963D01*
X185911420Y-97817024D01*
X185800012Y-97856823D01*
X185743121Y-97891517D01*
X185586464Y-97997339D01*
X185513036Y-97997339D01*
X185509961Y-97947053D01*
X185456289Y-97844900D01*
X185377492Y-97613939D01*
X185377578Y-97357148D01*
X185435766Y-97170805D01*
X185560244Y-97013772D01*
X185744147Y-96877059D01*
X185942099Y-96790080D01*
X186047935Y-96774000D01*
X186212599Y-96725611D01*
X186301970Y-96630004D01*
X186484415Y-96443713D01*
X186713704Y-96342788D01*
X186962909Y-96327145D01*
X187205105Y-96396698D01*
G36*
X198627553Y-117014736D02*
X198853132Y-117017917D01*
X198993637Y-117024149D01*
X199033870Y-117030912D01*
X199044662Y-117094826D01*
X199054252Y-117255445D01*
X199062567Y-117496591D01*
X199069534Y-117802088D01*
X199075079Y-118155757D01*
X199079128Y-118541420D01*
X199081608Y-118942900D01*
X199082446Y-119344018D01*
X199081568Y-119728598D01*
X199078900Y-120080461D01*
X199074370Y-120383430D01*
X199067903Y-120621326D01*
X199059426Y-120777973D01*
X199051143Y-120833932D01*
X198966801Y-120926211D01*
X198889885Y-120959610D01*
X198812385Y-120965850D01*
X198635696Y-120974116D01*
X198373491Y-120984047D01*
X198039446Y-120995282D01*
X197647234Y-121007459D01*
X197210530Y-121020217D01*
X196743007Y-121033194D01*
X196258341Y-121046030D01*
X195770206Y-121058362D01*
X195292275Y-121069829D01*
X194838223Y-121080070D01*
X194421725Y-121088723D01*
X194056454Y-121095428D01*
X193756085Y-121099822D01*
X193534292Y-121101544D01*
X193519125Y-121101556D01*
X193266347Y-121093205D01*
X193117136Y-121067289D01*
X193065179Y-121029313D01*
X193060042Y-120957134D01*
X193058394Y-120786094D01*
X193060048Y-120530161D01*
X193064821Y-120203303D01*
X193072528Y-119819489D01*
X193082983Y-119392685D01*
X193090346Y-119127086D01*
X193105684Y-118616731D01*
X193119636Y-118207767D01*
X193133078Y-117888720D01*
X193146891Y-117648113D01*
X193161954Y-117474473D01*
X193179144Y-117356323D01*
X193199342Y-117282190D01*
X193223426Y-117240597D01*
X193235694Y-117229493D01*
X193330733Y-117199639D01*
X193522923Y-117171527D01*
X193796527Y-117146913D01*
X194135806Y-117127553D01*
X194157744Y-117126603D01*
X194505290Y-117110951D01*
X194862480Y-117093377D01*
X195190452Y-117075882D01*
X195450346Y-117060467D01*
X195481222Y-117058447D01*
X195719945Y-117044927D01*
X195867394Y-117044855D01*
X195944661Y-117060773D01*
X195972832Y-117095225D01*
X195975111Y-117118002D01*
X195930174Y-117216797D01*
X195890445Y-117242922D01*
X195847766Y-117284343D01*
X195821568Y-117381994D01*
X195808667Y-117555795D01*
X195805778Y-117772756D01*
X195801318Y-118067239D01*
X195785555Y-118265508D01*
X195754918Y-118383973D01*
X195705834Y-118439047D01*
X195658628Y-118448667D01*
X195623348Y-118470882D01*
X195599936Y-118548517D01*
X195586361Y-118698050D01*
X195580593Y-118935964D01*
X195580000Y-119086705D01*
X195580000Y-119724744D01*
X195393869Y-119905150D01*
X195268075Y-120012689D01*
X195147470Y-120066563D01*
X194983036Y-120084486D01*
X194894617Y-120085556D01*
X194679139Y-120072515D01*
X194544146Y-120028329D01*
X194488082Y-119982333D01*
X194403077Y-119816320D01*
X194420694Y-119643648D01*
X194535778Y-119498380D01*
X194652004Y-119351425D01*
X194668740Y-119178484D01*
X194585427Y-119007946D01*
X194546251Y-118966506D01*
X194376919Y-118860643D01*
X194213368Y-118867469D01*
X194065839Y-118974416D01*
X193960260Y-119142172D01*
X193967083Y-119304587D01*
X194084222Y-119464667D01*
X194191265Y-119614051D01*
X194225334Y-119749116D01*
X194260321Y-119901666D01*
X194342319Y-120049721D01*
X194413437Y-120127471D01*
X194495038Y-120172154D01*
X194619064Y-120192776D01*
X194817459Y-120198345D01*
X194869793Y-120198445D01*
X195094898Y-120193309D01*
X195238445Y-120173126D01*
X195331494Y-120130733D01*
X195387808Y-120078960D01*
X195450163Y-120014860D01*
X195485161Y-120012094D01*
X195505322Y-120087581D01*
X195523168Y-120258240D01*
X195523556Y-120262405D01*
X195551778Y-120565334D01*
X196038536Y-120581538D01*
X196292051Y-120585828D01*
X196453659Y-120568353D01*
X196544134Y-120514193D01*
X196584253Y-120408432D01*
X196594788Y-120236151D01*
X196595229Y-120181776D01*
X196604423Y-120078564D01*
X196652884Y-120043885D01*
X196774048Y-120057437D01*
X196793932Y-120061128D01*
X197040096Y-120078182D01*
X197290226Y-120048212D01*
X197501822Y-119978972D01*
X197601626Y-119913773D01*
X197695196Y-119785228D01*
X197771075Y-119612815D01*
X197779833Y-119583130D01*
X197836985Y-119435570D01*
X197905582Y-119341602D01*
X197923057Y-119331131D01*
X197992753Y-119252168D01*
X198003647Y-119118379D01*
X197959555Y-118968867D01*
X197876473Y-118853617D01*
X197707141Y-118747754D01*
X197543590Y-118754580D01*
X197396061Y-118861527D01*
X197290900Y-119028280D01*
X197297622Y-119189037D01*
X197416660Y-119348540D01*
X197442667Y-119371339D01*
X197577967Y-119526032D01*
X197601100Y-119668702D01*
X197512039Y-119800323D01*
X197428556Y-119860397D01*
X197197589Y-119955984D01*
X196952870Y-119957755D01*
X196765833Y-119907939D01*
X196580153Y-119843210D01*
X196611282Y-119167565D01*
X196623124Y-118880433D01*
X196626025Y-118686654D01*
X196618073Y-118566910D01*
X196597357Y-118501886D01*
X196561968Y-118472263D01*
X196541848Y-118465621D01*
X196468887Y-118389387D01*
X196415302Y-118207648D01*
X196382204Y-117926303D01*
X196370713Y-117557895D01*
X196358251Y-117357996D01*
X196318757Y-117251578D01*
X196285556Y-117227301D01*
X196210615Y-117160371D01*
X196200889Y-117123604D01*
X196227146Y-117099848D01*
X196312664Y-117080137D01*
X196467560Y-117063748D01*
X196701953Y-117049963D01*
X197025960Y-117038062D01*
X197449700Y-117027325D01*
X197597889Y-117024221D01*
X197984179Y-117017814D01*
X198332651Y-117014677D01*
X198627553Y-117014736D01*
X198627553Y-117014736D01*
G37*
X198627553Y-117014736D02*
X198853132Y-117017917D01*
X198993637Y-117024149D01*
X199033870Y-117030912D01*
X199044662Y-117094826D01*
X199054252Y-117255445D01*
X199062567Y-117496591D01*
X199069534Y-117802088D01*
X199075079Y-118155757D01*
X199079128Y-118541420D01*
X199081608Y-118942900D01*
X199082446Y-119344018D01*
X199081568Y-119728598D01*
X199078900Y-120080461D01*
X199074370Y-120383430D01*
X199067903Y-120621326D01*
X199059426Y-120777973D01*
X199051143Y-120833932D01*
X198966801Y-120926211D01*
X198889885Y-120959610D01*
X198812385Y-120965850D01*
X198635696Y-120974116D01*
X198373491Y-120984047D01*
X198039446Y-120995282D01*
X197647234Y-121007459D01*
X197210530Y-121020217D01*
X196743007Y-121033194D01*
X196258341Y-121046030D01*
X195770206Y-121058362D01*
X195292275Y-121069829D01*
X194838223Y-121080070D01*
X194421725Y-121088723D01*
X194056454Y-121095428D01*
X193756085Y-121099822D01*
X193534292Y-121101544D01*
X193519125Y-121101556D01*
X193266347Y-121093205D01*
X193117136Y-121067289D01*
X193065179Y-121029313D01*
X193060042Y-120957134D01*
X193058394Y-120786094D01*
X193060048Y-120530161D01*
X193064821Y-120203303D01*
X193072528Y-119819489D01*
X193082983Y-119392685D01*
X193090346Y-119127086D01*
X193105684Y-118616731D01*
X193119636Y-118207767D01*
X193133078Y-117888720D01*
X193146891Y-117648113D01*
X193161954Y-117474473D01*
X193179144Y-117356323D01*
X193199342Y-117282190D01*
X193223426Y-117240597D01*
X193235694Y-117229493D01*
X193330733Y-117199639D01*
X193522923Y-117171527D01*
X193796527Y-117146913D01*
X194135806Y-117127553D01*
X194157744Y-117126603D01*
X194505290Y-117110951D01*
X194862480Y-117093377D01*
X195190452Y-117075882D01*
X195450346Y-117060467D01*
X195481222Y-117058447D01*
X195719945Y-117044927D01*
X195867394Y-117044855D01*
X195944661Y-117060773D01*
X195972832Y-117095225D01*
X195975111Y-117118002D01*
X195930174Y-117216797D01*
X195890445Y-117242922D01*
X195847766Y-117284343D01*
X195821568Y-117381994D01*
X195808667Y-117555795D01*
X195805778Y-117772756D01*
X195801318Y-118067239D01*
X195785555Y-118265508D01*
X195754918Y-118383973D01*
X195705834Y-118439047D01*
X195658628Y-118448667D01*
X195623348Y-118470882D01*
X195599936Y-118548517D01*
X195586361Y-118698050D01*
X195580593Y-118935964D01*
X195580000Y-119086705D01*
X195580000Y-119724744D01*
X195393869Y-119905150D01*
X195268075Y-120012689D01*
X195147470Y-120066563D01*
X194983036Y-120084486D01*
X194894617Y-120085556D01*
X194679139Y-120072515D01*
X194544146Y-120028329D01*
X194488082Y-119982333D01*
X194403077Y-119816320D01*
X194420694Y-119643648D01*
X194535778Y-119498380D01*
X194652004Y-119351425D01*
X194668740Y-119178484D01*
X194585427Y-119007946D01*
X194546251Y-118966506D01*
X194376919Y-118860643D01*
X194213368Y-118867469D01*
X194065839Y-118974416D01*
X193960260Y-119142172D01*
X193967083Y-119304587D01*
X194084222Y-119464667D01*
X194191265Y-119614051D01*
X194225334Y-119749116D01*
X194260321Y-119901666D01*
X194342319Y-120049721D01*
X194413437Y-120127471D01*
X194495038Y-120172154D01*
X194619064Y-120192776D01*
X194817459Y-120198345D01*
X194869793Y-120198445D01*
X195094898Y-120193309D01*
X195238445Y-120173126D01*
X195331494Y-120130733D01*
X195387808Y-120078960D01*
X195450163Y-120014860D01*
X195485161Y-120012094D01*
X195505322Y-120087581D01*
X195523168Y-120258240D01*
X195523556Y-120262405D01*
X195551778Y-120565334D01*
X196038536Y-120581538D01*
X196292051Y-120585828D01*
X196453659Y-120568353D01*
X196544134Y-120514193D01*
X196584253Y-120408432D01*
X196594788Y-120236151D01*
X196595229Y-120181776D01*
X196604423Y-120078564D01*
X196652884Y-120043885D01*
X196774048Y-120057437D01*
X196793932Y-120061128D01*
X197040096Y-120078182D01*
X197290226Y-120048212D01*
X197501822Y-119978972D01*
X197601626Y-119913773D01*
X197695196Y-119785228D01*
X197771075Y-119612815D01*
X197779833Y-119583130D01*
X197836985Y-119435570D01*
X197905582Y-119341602D01*
X197923057Y-119331131D01*
X197992753Y-119252168D01*
X198003647Y-119118379D01*
X197959555Y-118968867D01*
X197876473Y-118853617D01*
X197707141Y-118747754D01*
X197543590Y-118754580D01*
X197396061Y-118861527D01*
X197290900Y-119028280D01*
X197297622Y-119189037D01*
X197416660Y-119348540D01*
X197442667Y-119371339D01*
X197577967Y-119526032D01*
X197601100Y-119668702D01*
X197512039Y-119800323D01*
X197428556Y-119860397D01*
X197197589Y-119955984D01*
X196952870Y-119957755D01*
X196765833Y-119907939D01*
X196580153Y-119843210D01*
X196611282Y-119167565D01*
X196623124Y-118880433D01*
X196626025Y-118686654D01*
X196618073Y-118566910D01*
X196597357Y-118501886D01*
X196561968Y-118472263D01*
X196541848Y-118465621D01*
X196468887Y-118389387D01*
X196415302Y-118207648D01*
X196382204Y-117926303D01*
X196370713Y-117557895D01*
X196358251Y-117357996D01*
X196318757Y-117251578D01*
X196285556Y-117227301D01*
X196210615Y-117160371D01*
X196200889Y-117123604D01*
X196227146Y-117099848D01*
X196312664Y-117080137D01*
X196467560Y-117063748D01*
X196701953Y-117049963D01*
X197025960Y-117038062D01*
X197449700Y-117027325D01*
X197597889Y-117024221D01*
X197984179Y-117017814D01*
X198332651Y-117014677D01*
X198627553Y-117014736D01*
G36*
X129395301Y-76289599D02*
X129798365Y-76604975D01*
X129782072Y-79127136D01*
X129765778Y-81649297D01*
X129562719Y-81958538D01*
X129460365Y-82115994D01*
X129313911Y-82343385D01*
X129139671Y-82615281D01*
X128953959Y-82906254D01*
X128866386Y-83043889D01*
X128698734Y-83304063D01*
X128550853Y-83526764D01*
X128433615Y-83696152D01*
X128357894Y-83796389D01*
X128335667Y-83816969D01*
X128294269Y-83771770D01*
X128198023Y-83646438D01*
X128056233Y-83453727D01*
X127878200Y-83206394D01*
X127673231Y-82917193D01*
X127522556Y-82702191D01*
X126784582Y-81644467D01*
X127139893Y-81644467D01*
X127379943Y-81998456D01*
X127496163Y-82167225D01*
X127585656Y-82292278D01*
X127631977Y-82350749D01*
X127634552Y-82352445D01*
X127637319Y-82297728D01*
X127639914Y-82140490D01*
X127642287Y-81891098D01*
X127644387Y-81559920D01*
X127646164Y-81157323D01*
X127647567Y-80693674D01*
X127648546Y-80179341D01*
X127649052Y-79624691D01*
X127649111Y-79353580D01*
X127649111Y-76764445D01*
X127987778Y-76764445D01*
X127987778Y-82126667D01*
X128552222Y-82126667D01*
X128552222Y-79355633D01*
X128890889Y-79355633D01*
X128891247Y-79930912D01*
X128892274Y-80470829D01*
X128893905Y-80965111D01*
X128896072Y-81403482D01*
X128898707Y-81775669D01*
X128901744Y-82071395D01*
X128905116Y-82280387D01*
X128908756Y-82392370D01*
X128910830Y-82408889D01*
X128948905Y-82365293D01*
X129033087Y-82249097D01*
X129147713Y-82082193D01*
X129193052Y-82014454D01*
X129455334Y-81620020D01*
X129455334Y-79197488D01*
X129455333Y-76774957D01*
X128890889Y-76302377D01*
X128890889Y-79355633D01*
X128552222Y-79355633D01*
X128552222Y-76764445D01*
X127987778Y-76764445D01*
X127649111Y-76764445D01*
X127649111Y-76354716D01*
X127409222Y-76552762D01*
X127169334Y-76750807D01*
X127154613Y-79197637D01*
X127139893Y-81644467D01*
X126784582Y-81644467D01*
X126746890Y-81590445D01*
X126746000Y-76559389D01*
X127165054Y-76266806D01*
X127584108Y-75974222D01*
X128992237Y-75974222D01*
X129395301Y-76289599D01*
X129395301Y-76289599D01*
G37*
X129395301Y-76289599D02*
X129798365Y-76604975D01*
X129782072Y-79127136D01*
X129765778Y-81649297D01*
X129562719Y-81958538D01*
X129460365Y-82115994D01*
X129313911Y-82343385D01*
X129139671Y-82615281D01*
X128953959Y-82906254D01*
X128866386Y-83043889D01*
X128698734Y-83304063D01*
X128550853Y-83526764D01*
X128433615Y-83696152D01*
X128357894Y-83796389D01*
X128335667Y-83816969D01*
X128294269Y-83771770D01*
X128198023Y-83646438D01*
X128056233Y-83453727D01*
X127878200Y-83206394D01*
X127673231Y-82917193D01*
X127522556Y-82702191D01*
X126784582Y-81644467D01*
X127139893Y-81644467D01*
X127379943Y-81998456D01*
X127496163Y-82167225D01*
X127585656Y-82292278D01*
X127631977Y-82350749D01*
X127634552Y-82352445D01*
X127637319Y-82297728D01*
X127639914Y-82140490D01*
X127642287Y-81891098D01*
X127644387Y-81559920D01*
X127646164Y-81157323D01*
X127647567Y-80693674D01*
X127648546Y-80179341D01*
X127649052Y-79624691D01*
X127649111Y-79353580D01*
X127649111Y-76764445D01*
X127987778Y-76764445D01*
X127987778Y-82126667D01*
X128552222Y-82126667D01*
X128552222Y-79355633D01*
X128890889Y-79355633D01*
X128891247Y-79930912D01*
X128892274Y-80470829D01*
X128893905Y-80965111D01*
X128896072Y-81403482D01*
X128898707Y-81775669D01*
X128901744Y-82071395D01*
X128905116Y-82280387D01*
X128908756Y-82392370D01*
X128910830Y-82408889D01*
X128948905Y-82365293D01*
X129033087Y-82249097D01*
X129147713Y-82082193D01*
X129193052Y-82014454D01*
X129455334Y-81620020D01*
X129455334Y-79197488D01*
X129455333Y-76774957D01*
X128890889Y-76302377D01*
X128890889Y-79355633D01*
X128552222Y-79355633D01*
X128552222Y-76764445D01*
X127987778Y-76764445D01*
X127649111Y-76764445D01*
X127649111Y-76354716D01*
X127409222Y-76552762D01*
X127169334Y-76750807D01*
X127154613Y-79197637D01*
X127139893Y-81644467D01*
X126784582Y-81644467D01*
X126746890Y-81590445D01*
X126746000Y-76559389D01*
X127165054Y-76266806D01*
X127584108Y-75974222D01*
X128992237Y-75974222D01*
X129395301Y-76289599D01*
G36*
X162942237Y-82589812D02*
X163042828Y-82613184D01*
X163123285Y-82652323D01*
X163177080Y-82688399D01*
X163263914Y-82755930D01*
X163315447Y-82825414D01*
X163340876Y-82926932D01*
X163349395Y-83090562D01*
X163350222Y-83254783D01*
X163348001Y-83526063D01*
X163331920Y-83704094D01*
X163287853Y-83808514D01*
X163201675Y-83858962D01*
X163059261Y-83875076D01*
X162903082Y-83876445D01*
X162524464Y-83876445D01*
X162423609Y-84087939D01*
X162322754Y-84299434D01*
X162214251Y-84087939D01*
X162127924Y-83956332D01*
X162042901Y-83882343D01*
X162019722Y-83876445D01*
X161905053Y-83926988D01*
X161772297Y-84063843D01*
X161634627Y-84264847D01*
X161505214Y-84507835D01*
X161397231Y-84770645D01*
X161323850Y-85031113D01*
X161319074Y-85055371D01*
X161266869Y-85478753D01*
X161260646Y-85919827D01*
X161298018Y-86344695D01*
X161376600Y-86719457D01*
X161450580Y-86924445D01*
X161541614Y-87086645D01*
X161680725Y-87292192D01*
X161838957Y-87501909D01*
X161987356Y-87676617D01*
X162059189Y-87747950D01*
X162191370Y-87830666D01*
X162394574Y-87922259D01*
X162629314Y-88008541D01*
X162856106Y-88075325D01*
X163035464Y-88108422D01*
X163066184Y-88109778D01*
X163188918Y-88128788D01*
X163371597Y-88178013D01*
X163527872Y-88230230D01*
X163858222Y-88350682D01*
X163858222Y-88765151D01*
X163853368Y-88982045D01*
X163826304Y-89132353D01*
X163758277Y-89237964D01*
X163630536Y-89320768D01*
X163424328Y-89402652D01*
X163265556Y-89456947D01*
X163057755Y-89529065D01*
X162789824Y-89625207D01*
X162507056Y-89729032D01*
X162390667Y-89772541D01*
X162059681Y-89893072D01*
X161812416Y-89969594D01*
X161628963Y-90002876D01*
X161489417Y-89993691D01*
X161373869Y-89942807D01*
X161262413Y-89850995D01*
X161228687Y-89817510D01*
X161058498Y-89622259D01*
X160880792Y-89382820D01*
X160721425Y-89137186D01*
X160606252Y-88923352D01*
X160583587Y-88869522D01*
X160561727Y-88768296D01*
X160534487Y-88575062D01*
X160504229Y-88310439D01*
X160473313Y-87995040D01*
X160444617Y-87656109D01*
X160401361Y-86714637D01*
X160418524Y-85796334D01*
X160494645Y-84923210D01*
X160628260Y-84117275D01*
X160700354Y-83807319D01*
X160806376Y-83444714D01*
X160921074Y-83173539D01*
X161057040Y-82972407D01*
X161226866Y-82819926D01*
X161315115Y-82762998D01*
X161432650Y-82698877D01*
X161546400Y-82654564D01*
X161682311Y-82625398D01*
X161866330Y-82606716D01*
X162124403Y-82593857D01*
X162288080Y-82588195D01*
X162588020Y-82579927D01*
X162798353Y-82579596D01*
X162942237Y-82589812D01*
X162942237Y-82589812D01*
G37*
X162942237Y-82589812D02*
X163042828Y-82613184D01*
X163123285Y-82652323D01*
X163177080Y-82688399D01*
X163263914Y-82755930D01*
X163315447Y-82825414D01*
X163340876Y-82926932D01*
X163349395Y-83090562D01*
X163350222Y-83254783D01*
X163348001Y-83526063D01*
X163331920Y-83704094D01*
X163287853Y-83808514D01*
X163201675Y-83858962D01*
X163059261Y-83875076D01*
X162903082Y-83876445D01*
X162524464Y-83876445D01*
X162423609Y-84087939D01*
X162322754Y-84299434D01*
X162214251Y-84087939D01*
X162127924Y-83956332D01*
X162042901Y-83882343D01*
X162019722Y-83876445D01*
X161905053Y-83926988D01*
X161772297Y-84063843D01*
X161634627Y-84264847D01*
X161505214Y-84507835D01*
X161397231Y-84770645D01*
X161323850Y-85031113D01*
X161319074Y-85055371D01*
X161266869Y-85478753D01*
X161260646Y-85919827D01*
X161298018Y-86344695D01*
X161376600Y-86719457D01*
X161450580Y-86924445D01*
X161541614Y-87086645D01*
X161680725Y-87292192D01*
X161838957Y-87501909D01*
X161987356Y-87676617D01*
X162059189Y-87747950D01*
X162191370Y-87830666D01*
X162394574Y-87922259D01*
X162629314Y-88008541D01*
X162856106Y-88075325D01*
X163035464Y-88108422D01*
X163066184Y-88109778D01*
X163188918Y-88128788D01*
X163371597Y-88178013D01*
X163527872Y-88230230D01*
X163858222Y-88350682D01*
X163858222Y-88765151D01*
X163853368Y-88982045D01*
X163826304Y-89132353D01*
X163758277Y-89237964D01*
X163630536Y-89320768D01*
X163424328Y-89402652D01*
X163265556Y-89456947D01*
X163057755Y-89529065D01*
X162789824Y-89625207D01*
X162507056Y-89729032D01*
X162390667Y-89772541D01*
X162059681Y-89893072D01*
X161812416Y-89969594D01*
X161628963Y-90002876D01*
X161489417Y-89993691D01*
X161373869Y-89942807D01*
X161262413Y-89850995D01*
X161228687Y-89817510D01*
X161058498Y-89622259D01*
X160880792Y-89382820D01*
X160721425Y-89137186D01*
X160606252Y-88923352D01*
X160583587Y-88869522D01*
X160561727Y-88768296D01*
X160534487Y-88575062D01*
X160504229Y-88310439D01*
X160473313Y-87995040D01*
X160444617Y-87656109D01*
X160401361Y-86714637D01*
X160418524Y-85796334D01*
X160494645Y-84923210D01*
X160628260Y-84117275D01*
X160700354Y-83807319D01*
X160806376Y-83444714D01*
X160921074Y-83173539D01*
X161057040Y-82972407D01*
X161226866Y-82819926D01*
X161315115Y-82762998D01*
X161432650Y-82698877D01*
X161546400Y-82654564D01*
X161682311Y-82625398D01*
X161866330Y-82606716D01*
X162124403Y-82593857D01*
X162288080Y-82588195D01*
X162588020Y-82579927D01*
X162798353Y-82579596D01*
X162942237Y-82589812D01*
G36*
X127672697Y-116918463D02*
X127790222Y-116923193D01*
X128256458Y-116946833D01*
X128630721Y-116974516D01*
X128933900Y-117012753D01*
X129186884Y-117068054D01*
X129410562Y-117146932D01*
X129625822Y-117255898D01*
X129853555Y-117401462D01*
X130114648Y-117590137D01*
X130245556Y-117688546D01*
X130439788Y-117814120D01*
X130691001Y-117947906D01*
X130948779Y-118063332D01*
X130979334Y-118075293D01*
X131279757Y-118197248D01*
X131485864Y-118299078D01*
X131612175Y-118390629D01*
X131673209Y-118481749D01*
X131684889Y-118553790D01*
X131717758Y-118678317D01*
X131799626Y-118832212D01*
X131829524Y-118875145D01*
X131905382Y-118987433D01*
X131944453Y-119090253D01*
X131953606Y-119221842D01*
X131939711Y-119420434D01*
X131935447Y-119464667D01*
X131903734Y-119736909D01*
X131860810Y-119924240D01*
X131789774Y-120054492D01*
X131673722Y-120155498D01*
X131495751Y-120255093D01*
X131437983Y-120283831D01*
X131242101Y-120370882D01*
X131041713Y-120436126D01*
X130804279Y-120487685D01*
X130497259Y-120533685D01*
X130376276Y-120548889D01*
X129969187Y-120608081D01*
X129658909Y-120675882D01*
X129429476Y-120755895D01*
X129401918Y-120768750D01*
X129199846Y-120858047D01*
X129053074Y-120893420D01*
X128920579Y-120879815D01*
X128806251Y-120840587D01*
X128568147Y-120689557D01*
X128362732Y-120448267D01*
X128291582Y-120325445D01*
X128209057Y-120194106D01*
X128133011Y-120119917D01*
X128113182Y-120113778D01*
X128025701Y-120088868D01*
X127880534Y-120025382D01*
X127789773Y-119979575D01*
X127652335Y-119917312D01*
X127443402Y-119835104D01*
X127187159Y-119741147D01*
X126990838Y-119672623D01*
X128134807Y-119672623D01*
X128140726Y-119972667D01*
X128208642Y-119753358D01*
X128315460Y-119526722D01*
X128476811Y-119389064D01*
X128709557Y-119328688D01*
X128828139Y-119323556D01*
X129048304Y-119342988D01*
X129216701Y-119394626D01*
X129245974Y-119411952D01*
X129354656Y-119523819D01*
X129466161Y-119691289D01*
X129555072Y-119869762D01*
X129595968Y-120014639D01*
X129596445Y-120026863D01*
X129626235Y-120103409D01*
X129652889Y-120113778D01*
X129692948Y-120064839D01*
X129709334Y-119949124D01*
X129661207Y-119654312D01*
X129529670Y-119397638D01*
X129333990Y-119192134D01*
X129093431Y-119050833D01*
X128827258Y-118986768D01*
X128554738Y-119012972D01*
X128409982Y-119070140D01*
X128258008Y-119176599D01*
X128171156Y-119319559D01*
X128136477Y-119527367D01*
X128134807Y-119672623D01*
X126990838Y-119672623D01*
X126907792Y-119643637D01*
X126629485Y-119550772D01*
X126376424Y-119470747D01*
X126172793Y-119411760D01*
X126042779Y-119382008D01*
X126020665Y-119380000D01*
X125931360Y-119425573D01*
X125907144Y-119464667D01*
X125822789Y-119528831D01*
X125648406Y-119549334D01*
X125479459Y-119531692D01*
X125373022Y-119464909D01*
X125329165Y-119407408D01*
X125257711Y-119247115D01*
X125213816Y-119049619D01*
X125202232Y-118856998D01*
X125227711Y-118711328D01*
X125242737Y-118685561D01*
X129658122Y-118685561D01*
X129703224Y-118793843D01*
X129838233Y-118963772D01*
X129857013Y-118984726D01*
X129993619Y-119121471D01*
X130109393Y-119188759D01*
X130248590Y-119209372D01*
X130294457Y-119209896D01*
X130475538Y-119201502D01*
X130626867Y-119181734D01*
X130649559Y-119176455D01*
X130761524Y-119100737D01*
X130810004Y-118979173D01*
X130787279Y-118880901D01*
X130712910Y-118837282D01*
X130568940Y-118797669D01*
X130497864Y-118785598D01*
X130315770Y-118753026D01*
X130165618Y-118714228D01*
X130132667Y-118702124D01*
X129994805Y-118660523D01*
X129836334Y-118631622D01*
X129702601Y-118633346D01*
X129658122Y-118685561D01*
X125242737Y-118685561D01*
X125246850Y-118678508D01*
X125286178Y-118585328D01*
X125247749Y-118472267D01*
X125191082Y-118252282D01*
X125223361Y-117990006D01*
X125318232Y-117758576D01*
X126861252Y-117758576D01*
X126870681Y-117805703D01*
X126942518Y-117828862D01*
X127101321Y-117856145D01*
X127321452Y-117883682D01*
X127508107Y-117901893D01*
X127843473Y-117931492D01*
X128079185Y-117951037D01*
X128228237Y-117957858D01*
X128303622Y-117949288D01*
X128318332Y-117922658D01*
X128285361Y-117875300D01*
X128217703Y-117804546D01*
X128179150Y-117764094D01*
X127947510Y-117518432D01*
X127774979Y-117344560D01*
X127644798Y-117230670D01*
X127540210Y-117164958D01*
X127444456Y-117135615D01*
X127340778Y-117130837D01*
X127284407Y-117133728D01*
X127138379Y-117147528D01*
X127051925Y-117182897D01*
X126994679Y-117267184D01*
X126936279Y-117427739D01*
X126927019Y-117455641D01*
X126879229Y-117628951D01*
X126861252Y-117758576D01*
X125318232Y-117758576D01*
X125339774Y-117706027D01*
X125476103Y-117495536D01*
X125620417Y-117321063D01*
X125762382Y-117176697D01*
X125833673Y-117122222D01*
X127878150Y-117122222D01*
X128605406Y-117856000D01*
X129284370Y-117852033D01*
X129558444Y-117847265D01*
X129797657Y-117837256D01*
X129975670Y-117823489D01*
X130064641Y-117808074D01*
X130104706Y-117782655D01*
X130103085Y-117744797D01*
X130048728Y-117684331D01*
X129930584Y-117591087D01*
X129737603Y-117454894D01*
X129520217Y-117307041D01*
X129401695Y-117229409D01*
X129301379Y-117177278D01*
X129192952Y-117145572D01*
X129050093Y-117129213D01*
X128846485Y-117123122D01*
X128562292Y-117122222D01*
X127878150Y-117122222D01*
X125833673Y-117122222D01*
X125869551Y-117094807D01*
X126078706Y-117022037D01*
X126381638Y-116966406D01*
X126760307Y-116929525D01*
X127196673Y-116913007D01*
X127672697Y-116918463D01*
X127672697Y-116918463D01*
G37*
X127672697Y-116918463D02*
X127790222Y-116923193D01*
X128256458Y-116946833D01*
X128630721Y-116974516D01*
X128933900Y-117012753D01*
X129186884Y-117068054D01*
X129410562Y-117146932D01*
X129625822Y-117255898D01*
X129853555Y-117401462D01*
X130114648Y-117590137D01*
X130245556Y-117688546D01*
X130439788Y-117814120D01*
X130691001Y-117947906D01*
X130948779Y-118063332D01*
X130979334Y-118075293D01*
X131279757Y-118197248D01*
X131485864Y-118299078D01*
X131612175Y-118390629D01*
X131673209Y-118481749D01*
X131684889Y-118553790D01*
X131717758Y-118678317D01*
X131799626Y-118832212D01*
X131829524Y-118875145D01*
X131905382Y-118987433D01*
X131944453Y-119090253D01*
X131953606Y-119221842D01*
X131939711Y-119420434D01*
X131935447Y-119464667D01*
X131903734Y-119736909D01*
X131860810Y-119924240D01*
X131789774Y-120054492D01*
X131673722Y-120155498D01*
X131495751Y-120255093D01*
X131437983Y-120283831D01*
X131242101Y-120370882D01*
X131041713Y-120436126D01*
X130804279Y-120487685D01*
X130497259Y-120533685D01*
X130376276Y-120548889D01*
X129969187Y-120608081D01*
X129658909Y-120675882D01*
X129429476Y-120755895D01*
X129401918Y-120768750D01*
X129199846Y-120858047D01*
X129053074Y-120893420D01*
X128920579Y-120879815D01*
X128806251Y-120840587D01*
X128568147Y-120689557D01*
X128362732Y-120448267D01*
X128291582Y-120325445D01*
X128209057Y-120194106D01*
X128133011Y-120119917D01*
X128113182Y-120113778D01*
X128025701Y-120088868D01*
X127880534Y-120025382D01*
X127789773Y-119979575D01*
X127652335Y-119917312D01*
X127443402Y-119835104D01*
X127187159Y-119741147D01*
X126990838Y-119672623D01*
X128134807Y-119672623D01*
X128140726Y-119972667D01*
X128208642Y-119753358D01*
X128315460Y-119526722D01*
X128476811Y-119389064D01*
X128709557Y-119328688D01*
X128828139Y-119323556D01*
X129048304Y-119342988D01*
X129216701Y-119394626D01*
X129245974Y-119411952D01*
X129354656Y-119523819D01*
X129466161Y-119691289D01*
X129555072Y-119869762D01*
X129595968Y-120014639D01*
X129596445Y-120026863D01*
X129626235Y-120103409D01*
X129652889Y-120113778D01*
X129692948Y-120064839D01*
X129709334Y-119949124D01*
X129661207Y-119654312D01*
X129529670Y-119397638D01*
X129333990Y-119192134D01*
X129093431Y-119050833D01*
X128827258Y-118986768D01*
X128554738Y-119012972D01*
X128409982Y-119070140D01*
X128258008Y-119176599D01*
X128171156Y-119319559D01*
X128136477Y-119527367D01*
X128134807Y-119672623D01*
X126990838Y-119672623D01*
X126907792Y-119643637D01*
X126629485Y-119550772D01*
X126376424Y-119470747D01*
X126172793Y-119411760D01*
X126042779Y-119382008D01*
X126020665Y-119380000D01*
X125931360Y-119425573D01*
X125907144Y-119464667D01*
X125822789Y-119528831D01*
X125648406Y-119549334D01*
X125479459Y-119531692D01*
X125373022Y-119464909D01*
X125329165Y-119407408D01*
X125257711Y-119247115D01*
X125213816Y-119049619D01*
X125202232Y-118856998D01*
X125227711Y-118711328D01*
X125242737Y-118685561D01*
X129658122Y-118685561D01*
X129703224Y-118793843D01*
X129838233Y-118963772D01*
X129857013Y-118984726D01*
X129993619Y-119121471D01*
X130109393Y-119188759D01*
X130248590Y-119209372D01*
X130294457Y-119209896D01*
X130475538Y-119201502D01*
X130626867Y-119181734D01*
X130649559Y-119176455D01*
X130761524Y-119100737D01*
X130810004Y-118979173D01*
X130787279Y-118880901D01*
X130712910Y-118837282D01*
X130568940Y-118797669D01*
X130497864Y-118785598D01*
X130315770Y-118753026D01*
X130165618Y-118714228D01*
X130132667Y-118702124D01*
X129994805Y-118660523D01*
X129836334Y-118631622D01*
X129702601Y-118633346D01*
X129658122Y-118685561D01*
X125242737Y-118685561D01*
X125246850Y-118678508D01*
X125286178Y-118585328D01*
X125247749Y-118472267D01*
X125191082Y-118252282D01*
X125223361Y-117990006D01*
X125318232Y-117758576D01*
X126861252Y-117758576D01*
X126870681Y-117805703D01*
X126942518Y-117828862D01*
X127101321Y-117856145D01*
X127321452Y-117883682D01*
X127508107Y-117901893D01*
X127843473Y-117931492D01*
X128079185Y-117951037D01*
X128228237Y-117957858D01*
X128303622Y-117949288D01*
X128318332Y-117922658D01*
X128285361Y-117875300D01*
X128217703Y-117804546D01*
X128179150Y-117764094D01*
X127947510Y-117518432D01*
X127774979Y-117344560D01*
X127644798Y-117230670D01*
X127540210Y-117164958D01*
X127444456Y-117135615D01*
X127340778Y-117130837D01*
X127284407Y-117133728D01*
X127138379Y-117147528D01*
X127051925Y-117182897D01*
X126994679Y-117267184D01*
X126936279Y-117427739D01*
X126927019Y-117455641D01*
X126879229Y-117628951D01*
X126861252Y-117758576D01*
X125318232Y-117758576D01*
X125339774Y-117706027D01*
X125476103Y-117495536D01*
X125620417Y-117321063D01*
X125762382Y-117176697D01*
X125833673Y-117122222D01*
X127878150Y-117122222D01*
X128605406Y-117856000D01*
X129284370Y-117852033D01*
X129558444Y-117847265D01*
X129797657Y-117837256D01*
X129975670Y-117823489D01*
X130064641Y-117808074D01*
X130104706Y-117782655D01*
X130103085Y-117744797D01*
X130048728Y-117684331D01*
X129930584Y-117591087D01*
X129737603Y-117454894D01*
X129520217Y-117307041D01*
X129401695Y-117229409D01*
X129301379Y-117177278D01*
X129192952Y-117145572D01*
X129050093Y-117129213D01*
X128846485Y-117123122D01*
X128562292Y-117122222D01*
X127878150Y-117122222D01*
X125833673Y-117122222D01*
X125869551Y-117094807D01*
X126078706Y-117022037D01*
X126381638Y-116966406D01*
X126760307Y-116929525D01*
X127196673Y-116913007D01*
X127672697Y-116918463D01*
G36*
X154082750Y-100771778D02*
X153913778Y-100940667D01*
X153702024Y-101073588D01*
X153431272Y-101138359D01*
X153153557Y-101128478D01*
X152957221Y-101060160D01*
X152753152Y-100885498D01*
X152659169Y-100660582D01*
X152654000Y-100588174D01*
X152687804Y-100480162D01*
X152763157Y-100465489D01*
X152840966Y-100539378D01*
X152870286Y-100614595D01*
X152961932Y-100760422D01*
X153131323Y-100885538D01*
X153329706Y-100957951D01*
X153404283Y-100965000D01*
X153537575Y-100927124D01*
X153690132Y-100835777D01*
X153693186Y-100833391D01*
X153860500Y-100701782D01*
X153860500Y-98813302D01*
X153590625Y-98793776D01*
X153401990Y-98762802D01*
X153324423Y-98702003D01*
X153320750Y-98679000D01*
X153350010Y-98623692D01*
X153453735Y-98593998D01*
X153655843Y-98583937D01*
X153701750Y-98583750D01*
X154082750Y-98583750D01*
X154082750Y-100771778D01*
X154082750Y-100771778D01*
G37*
X154082750Y-100771778D02*
X153913778Y-100940667D01*
X153702024Y-101073588D01*
X153431272Y-101138359D01*
X153153557Y-101128478D01*
X152957221Y-101060160D01*
X152753152Y-100885498D01*
X152659169Y-100660582D01*
X152654000Y-100588174D01*
X152687804Y-100480162D01*
X152763157Y-100465489D01*
X152840966Y-100539378D01*
X152870286Y-100614595D01*
X152961932Y-100760422D01*
X153131323Y-100885538D01*
X153329706Y-100957951D01*
X153404283Y-100965000D01*
X153537575Y-100927124D01*
X153690132Y-100835777D01*
X153693186Y-100833391D01*
X153860500Y-100701782D01*
X153860500Y-98813302D01*
X153590625Y-98793776D01*
X153401990Y-98762802D01*
X153324423Y-98702003D01*
X153320750Y-98679000D01*
X153350010Y-98623692D01*
X153453735Y-98593998D01*
X153655843Y-98583937D01*
X153701750Y-98583750D01*
X154082750Y-98583750D01*
X154082750Y-100771778D01*
G36*
X155289250Y-99492516D02*
X155469844Y-99583669D01*
X155593722Y-99754260D01*
X155665431Y-100016336D01*
X155689515Y-100381944D01*
X155687229Y-100547113D01*
X155669324Y-100865046D01*
X155637943Y-101060971D01*
X155592381Y-101139233D01*
X155590875Y-101139780D01*
X155522767Y-101113283D01*
X155511500Y-101065541D01*
X155482373Y-100976769D01*
X155389908Y-100990000D01*
X155285511Y-101058230D01*
X155088332Y-101140560D01*
X154862384Y-101141699D01*
X154665081Y-101064220D01*
X154622500Y-101028500D01*
X154519182Y-100853671D01*
X154495255Y-100648275D01*
X154500496Y-100630309D01*
X154698942Y-100630309D01*
X154717212Y-100773510D01*
X154785785Y-100865214D01*
X154955531Y-100954542D01*
X155154131Y-100937743D01*
X155346281Y-100818290D01*
X155355636Y-100809136D01*
X155462915Y-100665978D01*
X155511277Y-100530557D01*
X155511500Y-100523386D01*
X155494392Y-100443536D01*
X155421607Y-100405016D01*
X155260949Y-100393729D01*
X155214875Y-100393500D01*
X154961754Y-100424935D01*
X154785117Y-100508994D01*
X154698942Y-100630309D01*
X154500496Y-100630309D01*
X154549872Y-100461056D01*
X154633981Y-100367204D01*
X154773262Y-100306337D01*
X154984265Y-100252932D01*
X155141981Y-100228402D01*
X155339120Y-100202125D01*
X155473179Y-100176657D01*
X155511500Y-100161008D01*
X155489393Y-100091433D01*
X155434789Y-99952145D01*
X155420434Y-99917470D01*
X155288363Y-99727081D01*
X155100677Y-99650484D01*
X154860749Y-99689007D01*
X154849339Y-99693254D01*
X154689398Y-99736091D01*
X154625470Y-99702512D01*
X154641335Y-99610506D01*
X154731220Y-99531921D01*
X154902256Y-99481721D01*
X155110236Y-99467955D01*
X155289250Y-99492516D01*
X155289250Y-99492516D01*
G37*
X155289250Y-99492516D02*
X155469844Y-99583669D01*
X155593722Y-99754260D01*
X155665431Y-100016336D01*
X155689515Y-100381944D01*
X155687229Y-100547113D01*
X155669324Y-100865046D01*
X155637943Y-101060971D01*
X155592381Y-101139233D01*
X155590875Y-101139780D01*
X155522767Y-101113283D01*
X155511500Y-101065541D01*
X155482373Y-100976769D01*
X155389908Y-100990000D01*
X155285511Y-101058230D01*
X155088332Y-101140560D01*
X154862384Y-101141699D01*
X154665081Y-101064220D01*
X154622500Y-101028500D01*
X154519182Y-100853671D01*
X154495255Y-100648275D01*
X154500496Y-100630309D01*
X154698942Y-100630309D01*
X154717212Y-100773510D01*
X154785785Y-100865214D01*
X154955531Y-100954542D01*
X155154131Y-100937743D01*
X155346281Y-100818290D01*
X155355636Y-100809136D01*
X155462915Y-100665978D01*
X155511277Y-100530557D01*
X155511500Y-100523386D01*
X155494392Y-100443536D01*
X155421607Y-100405016D01*
X155260949Y-100393729D01*
X155214875Y-100393500D01*
X154961754Y-100424935D01*
X154785117Y-100508994D01*
X154698942Y-100630309D01*
X154500496Y-100630309D01*
X154549872Y-100461056D01*
X154633981Y-100367204D01*
X154773262Y-100306337D01*
X154984265Y-100252932D01*
X155141981Y-100228402D01*
X155339120Y-100202125D01*
X155473179Y-100176657D01*
X155511500Y-100161008D01*
X155489393Y-100091433D01*
X155434789Y-99952145D01*
X155420434Y-99917470D01*
X155288363Y-99727081D01*
X155100677Y-99650484D01*
X154860749Y-99689007D01*
X154849339Y-99693254D01*
X154689398Y-99736091D01*
X154625470Y-99702512D01*
X154641335Y-99610506D01*
X154731220Y-99531921D01*
X154902256Y-99481721D01*
X155110236Y-99467955D01*
X155289250Y-99492516D01*
G36*
X156978292Y-99491777D02*
X157160795Y-99608936D01*
X157192878Y-99648811D01*
X157286914Y-99783066D01*
X157431082Y-99648490D01*
X157657390Y-99506845D01*
X157896079Y-99470509D01*
X158117432Y-99533704D01*
X158291734Y-99690651D01*
X158362115Y-99829546D01*
X158397842Y-99993530D01*
X158420794Y-100221238D01*
X158430978Y-100478742D01*
X158428400Y-100732113D01*
X158413064Y-100947424D01*
X158384977Y-101090747D01*
X158361900Y-101128137D01*
X158281690Y-101134744D01*
X158225721Y-101035501D01*
X158192281Y-100824061D01*
X158179661Y-100494074D01*
X158179472Y-100450966D01*
X158165908Y-100119958D01*
X158120707Y-99896624D01*
X158035022Y-99763699D01*
X157900002Y-99703919D01*
X157792499Y-99695972D01*
X157613120Y-99726653D01*
X157486415Y-99825722D01*
X157405476Y-100007658D01*
X157363389Y-100286944D01*
X157353000Y-100616867D01*
X157348068Y-100895139D01*
X157331655Y-101062711D01*
X157301339Y-101135558D01*
X157273625Y-101139882D01*
X157227269Y-101061713D01*
X157191026Y-100860170D01*
X157164627Y-100533699D01*
X157162500Y-100493752D01*
X157144692Y-100202218D01*
X157122447Y-100009118D01*
X157088712Y-99885913D01*
X157036436Y-99804063D01*
X156979024Y-99751191D01*
X156801534Y-99663707D01*
X156693274Y-99668594D01*
X156553332Y-99725969D01*
X156457926Y-99815119D01*
X156396806Y-99960013D01*
X156359720Y-100184618D01*
X156337000Y-100501565D01*
X156311215Y-100839265D01*
X156275340Y-101051274D01*
X156229212Y-101138514D01*
X156225875Y-101139882D01*
X156191982Y-101120978D01*
X156168593Y-101028280D01*
X156154252Y-100847044D01*
X156147506Y-100562533D01*
X156146500Y-100335291D01*
X156148897Y-99986912D01*
X156157382Y-99747557D01*
X156173893Y-99599317D01*
X156200370Y-99524284D01*
X156236458Y-99504500D01*
X156333271Y-99548170D01*
X156350829Y-99577738D01*
X156410516Y-99606266D01*
X156544040Y-99540376D01*
X156756986Y-99466296D01*
X156978292Y-99491777D01*
X156978292Y-99491777D01*
G37*
X156978292Y-99491777D02*
X157160795Y-99608936D01*
X157192878Y-99648811D01*
X157286914Y-99783066D01*
X157431082Y-99648490D01*
X157657390Y-99506845D01*
X157896079Y-99470509D01*
X158117432Y-99533704D01*
X158291734Y-99690651D01*
X158362115Y-99829546D01*
X158397842Y-99993530D01*
X158420794Y-100221238D01*
X158430978Y-100478742D01*
X158428400Y-100732113D01*
X158413064Y-100947424D01*
X158384977Y-101090747D01*
X158361900Y-101128137D01*
X158281690Y-101134744D01*
X158225721Y-101035501D01*
X158192281Y-100824061D01*
X158179661Y-100494074D01*
X158179472Y-100450966D01*
X158165908Y-100119958D01*
X158120707Y-99896624D01*
X158035022Y-99763699D01*
X157900002Y-99703919D01*
X157792499Y-99695972D01*
X157613120Y-99726653D01*
X157486415Y-99825722D01*
X157405476Y-100007658D01*
X157363389Y-100286944D01*
X157353000Y-100616867D01*
X157348068Y-100895139D01*
X157331655Y-101062711D01*
X157301339Y-101135558D01*
X157273625Y-101139882D01*
X157227269Y-101061713D01*
X157191026Y-100860170D01*
X157164627Y-100533699D01*
X157162500Y-100493752D01*
X157144692Y-100202218D01*
X157122447Y-100009118D01*
X157088712Y-99885913D01*
X157036436Y-99804063D01*
X156979024Y-99751191D01*
X156801534Y-99663707D01*
X156693274Y-99668594D01*
X156553332Y-99725969D01*
X156457926Y-99815119D01*
X156396806Y-99960013D01*
X156359720Y-100184618D01*
X156337000Y-100501565D01*
X156311215Y-100839265D01*
X156275340Y-101051274D01*
X156229212Y-101138514D01*
X156225875Y-101139882D01*
X156191982Y-101120978D01*
X156168593Y-101028280D01*
X156154252Y-100847044D01*
X156147506Y-100562533D01*
X156146500Y-100335291D01*
X156148897Y-99986912D01*
X156157382Y-99747557D01*
X156173893Y-99599317D01*
X156200370Y-99524284D01*
X156236458Y-99504500D01*
X156333271Y-99548170D01*
X156350829Y-99577738D01*
X156410516Y-99606266D01*
X156544040Y-99540376D01*
X156756986Y-99466296D01*
X156978292Y-99491777D01*
G36*
X159718414Y-99513106D02*
X159756403Y-99531287D01*
X159958916Y-99681207D01*
X160061523Y-99884043D01*
X160083500Y-100096781D01*
X160072161Y-100231803D01*
X160023093Y-100318519D01*
X159913714Y-100367395D01*
X159721441Y-100388896D01*
X159443306Y-100393500D01*
X159211604Y-100396880D01*
X159079439Y-100412422D01*
X159019413Y-100448227D01*
X159004129Y-100512394D01*
X159004000Y-100523386D01*
X159060165Y-100712496D01*
X159208254Y-100855055D01*
X159417651Y-100937886D01*
X159657744Y-100947812D01*
X159858530Y-100891185D01*
X160008271Y-100849337D01*
X160070180Y-100882999D01*
X160029807Y-100972855D01*
X159965340Y-101033966D01*
X159772268Y-101122996D01*
X159521918Y-101152205D01*
X159270201Y-101119369D01*
X159137989Y-101066885D01*
X158966735Y-100922982D01*
X158863106Y-100708217D01*
X158818758Y-100402404D01*
X158815750Y-100287247D01*
X158822713Y-100073113D01*
X159004000Y-100073113D01*
X159015304Y-100141301D01*
X159067385Y-100180360D01*
X159187495Y-100198252D01*
X159402886Y-100202942D01*
X159448500Y-100203000D01*
X159681298Y-100200038D01*
X159814599Y-100185439D01*
X159875868Y-100150625D01*
X159892568Y-100087021D01*
X159893000Y-100064217D01*
X159839265Y-99893748D01*
X159707186Y-99738636D01*
X159540451Y-99643185D01*
X159466294Y-99631500D01*
X159303874Y-99682362D01*
X159144559Y-99807242D01*
X159031859Y-99964576D01*
X159004000Y-100073113D01*
X158822713Y-100073113D01*
X158823546Y-100047513D01*
X158859202Y-99885307D01*
X158936042Y-99751992D01*
X158976077Y-99702031D01*
X159197448Y-99524589D01*
X159453773Y-99459671D01*
X159718414Y-99513106D01*
X159718414Y-99513106D01*
G37*
X159718414Y-99513106D02*
X159756403Y-99531287D01*
X159958916Y-99681207D01*
X160061523Y-99884043D01*
X160083500Y-100096781D01*
X160072161Y-100231803D01*
X160023093Y-100318519D01*
X159913714Y-100367395D01*
X159721441Y-100388896D01*
X159443306Y-100393500D01*
X159211604Y-100396880D01*
X159079439Y-100412422D01*
X159019413Y-100448227D01*
X159004129Y-100512394D01*
X159004000Y-100523386D01*
X159060165Y-100712496D01*
X159208254Y-100855055D01*
X159417651Y-100937886D01*
X159657744Y-100947812D01*
X159858530Y-100891185D01*
X160008271Y-100849337D01*
X160070180Y-100882999D01*
X160029807Y-100972855D01*
X159965340Y-101033966D01*
X159772268Y-101122996D01*
X159521918Y-101152205D01*
X159270201Y-101119369D01*
X159137989Y-101066885D01*
X158966735Y-100922982D01*
X158863106Y-100708217D01*
X158818758Y-100402404D01*
X158815750Y-100287247D01*
X158822713Y-100073113D01*
X159004000Y-100073113D01*
X159015304Y-100141301D01*
X159067385Y-100180360D01*
X159187495Y-100198252D01*
X159402886Y-100202942D01*
X159448500Y-100203000D01*
X159681298Y-100200038D01*
X159814599Y-100185439D01*
X159875868Y-100150625D01*
X159892568Y-100087021D01*
X159893000Y-100064217D01*
X159839265Y-99893748D01*
X159707186Y-99738636D01*
X159540451Y-99643185D01*
X159466294Y-99631500D01*
X159303874Y-99682362D01*
X159144559Y-99807242D01*
X159031859Y-99964576D01*
X159004000Y-100073113D01*
X158822713Y-100073113D01*
X158823546Y-100047513D01*
X158859202Y-99885307D01*
X158936042Y-99751992D01*
X158976077Y-99702031D01*
X159197448Y-99524589D01*
X159453773Y-99459671D01*
X159718414Y-99513106D01*
G36*
X161123426Y-99481585D02*
X161307614Y-99542425D01*
X161384095Y-99620439D01*
X161385250Y-99631784D01*
X161338190Y-99704552D01*
X161293968Y-99706906D01*
X161064705Y-99661740D01*
X160918587Y-99651691D01*
X160815910Y-99679671D01*
X160716970Y-99748593D01*
X160716127Y-99749284D01*
X160614317Y-99878186D01*
X160634669Y-100000395D01*
X160778858Y-100118597D01*
X161010943Y-100221961D01*
X161286747Y-100360433D01*
X161446048Y-100526060D01*
X161485807Y-100711305D01*
X161402983Y-100908632D01*
X161324636Y-100999636D01*
X161123345Y-101118090D01*
X160862651Y-101154857D01*
X160584249Y-101105108D01*
X160543875Y-101090021D01*
X160433271Y-101007178D01*
X160401000Y-100928502D01*
X160431845Y-100857134D01*
X160512125Y-100872632D01*
X160753581Y-100942096D01*
X160980424Y-100947250D01*
X161163121Y-100894262D01*
X161272140Y-100789296D01*
X161290000Y-100710229D01*
X161226842Y-100569449D01*
X161038035Y-100438859D01*
X160761881Y-100330752D01*
X160544542Y-100216995D01*
X160427847Y-100062569D01*
X160402238Y-99889926D01*
X160458156Y-99721515D01*
X160586043Y-99579789D01*
X160776339Y-99487199D01*
X161019486Y-99466195D01*
X161123426Y-99481585D01*
X161123426Y-99481585D01*
G37*
X161123426Y-99481585D02*
X161307614Y-99542425D01*
X161384095Y-99620439D01*
X161385250Y-99631784D01*
X161338190Y-99704552D01*
X161293968Y-99706906D01*
X161064705Y-99661740D01*
X160918587Y-99651691D01*
X160815910Y-99679671D01*
X160716970Y-99748593D01*
X160716127Y-99749284D01*
X160614317Y-99878186D01*
X160634669Y-100000395D01*
X160778858Y-100118597D01*
X161010943Y-100221961D01*
X161286747Y-100360433D01*
X161446048Y-100526060D01*
X161485807Y-100711305D01*
X161402983Y-100908632D01*
X161324636Y-100999636D01*
X161123345Y-101118090D01*
X160862651Y-101154857D01*
X160584249Y-101105108D01*
X160543875Y-101090021D01*
X160433271Y-101007178D01*
X160401000Y-100928502D01*
X160431845Y-100857134D01*
X160512125Y-100872632D01*
X160753581Y-100942096D01*
X160980424Y-100947250D01*
X161163121Y-100894262D01*
X161272140Y-100789296D01*
X161290000Y-100710229D01*
X161226842Y-100569449D01*
X161038035Y-100438859D01*
X160761881Y-100330752D01*
X160544542Y-100216995D01*
X160427847Y-100062569D01*
X160402238Y-99889926D01*
X160458156Y-99721515D01*
X160586043Y-99579789D01*
X160776339Y-99487199D01*
X161019486Y-99466195D01*
X161123426Y-99481585D01*
G36*
X163841931Y-98595115D02*
X163952823Y-98730509D01*
X164095554Y-98967252D01*
X164268217Y-99298125D01*
X164387344Y-99527005D01*
X164489094Y-99704972D01*
X164558544Y-99806737D01*
X164576833Y-99821148D01*
X164623072Y-99767793D01*
X164712291Y-99623870D01*
X164830856Y-99412498D01*
X164941977Y-99202023D01*
X165093711Y-98914001D01*
X165211856Y-98713741D01*
X165300584Y-98606559D01*
X165364069Y-98597773D01*
X165406482Y-98692699D01*
X165431996Y-98896655D01*
X165444783Y-99214958D01*
X165449016Y-99652925D01*
X165449250Y-99848458D01*
X165447195Y-100308357D01*
X165440523Y-100653721D01*
X165428472Y-100896956D01*
X165410277Y-101050469D01*
X165385177Y-101126667D01*
X165369875Y-101139625D01*
X165338467Y-101121289D01*
X165315978Y-101032811D01*
X165301255Y-100860230D01*
X165293149Y-100589586D01*
X165290509Y-100206920D01*
X165290500Y-100176541D01*
X165287396Y-99838276D01*
X165278828Y-99549765D01*
X165265912Y-99332541D01*
X165249763Y-99208139D01*
X165239230Y-99187000D01*
X165188709Y-99239343D01*
X165096504Y-99379502D01*
X164978658Y-99582174D01*
X164918082Y-99693507D01*
X164792037Y-99922317D01*
X164683031Y-100106164D01*
X164607834Y-100217350D01*
X164589420Y-100236344D01*
X164538132Y-100199262D01*
X164448137Y-100069934D01*
X164334272Y-99871272D01*
X164261416Y-99729837D01*
X164140883Y-99496220D01*
X164037473Y-99313024D01*
X163965747Y-99205187D01*
X163944502Y-99186999D01*
X163926901Y-99246860D01*
X163909864Y-99411889D01*
X163894869Y-99660259D01*
X163883396Y-99970141D01*
X163879278Y-100150157D01*
X163868618Y-100554129D01*
X163852806Y-100843011D01*
X163830683Y-101028648D01*
X163801088Y-101122887D01*
X163782375Y-101139698D01*
X163754588Y-101121720D01*
X163733668Y-101038447D01*
X163718833Y-100877261D01*
X163709301Y-100625545D01*
X163704291Y-100270684D01*
X163703000Y-99859041D01*
X163705478Y-99467165D01*
X163712401Y-99122247D01*
X163722999Y-98843025D01*
X163736503Y-98648236D01*
X163752143Y-98556617D01*
X163756658Y-98552000D01*
X163841931Y-98595115D01*
X163841931Y-98595115D01*
G37*
X163841931Y-98595115D02*
X163952823Y-98730509D01*
X164095554Y-98967252D01*
X164268217Y-99298125D01*
X164387344Y-99527005D01*
X164489094Y-99704972D01*
X164558544Y-99806737D01*
X164576833Y-99821148D01*
X164623072Y-99767793D01*
X164712291Y-99623870D01*
X164830856Y-99412498D01*
X164941977Y-99202023D01*
X165093711Y-98914001D01*
X165211856Y-98713741D01*
X165300584Y-98606559D01*
X165364069Y-98597773D01*
X165406482Y-98692699D01*
X165431996Y-98896655D01*
X165444783Y-99214958D01*
X165449016Y-99652925D01*
X165449250Y-99848458D01*
X165447195Y-100308357D01*
X165440523Y-100653721D01*
X165428472Y-100896956D01*
X165410277Y-101050469D01*
X165385177Y-101126667D01*
X165369875Y-101139625D01*
X165338467Y-101121289D01*
X165315978Y-101032811D01*
X165301255Y-100860230D01*
X165293149Y-100589586D01*
X165290509Y-100206920D01*
X165290500Y-100176541D01*
X165287396Y-99838276D01*
X165278828Y-99549765D01*
X165265912Y-99332541D01*
X165249763Y-99208139D01*
X165239230Y-99187000D01*
X165188709Y-99239343D01*
X165096504Y-99379502D01*
X164978658Y-99582174D01*
X164918082Y-99693507D01*
X164792037Y-99922317D01*
X164683031Y-100106164D01*
X164607834Y-100217350D01*
X164589420Y-100236344D01*
X164538132Y-100199262D01*
X164448137Y-100069934D01*
X164334272Y-99871272D01*
X164261416Y-99729837D01*
X164140883Y-99496220D01*
X164037473Y-99313024D01*
X163965747Y-99205187D01*
X163944502Y-99186999D01*
X163926901Y-99246860D01*
X163909864Y-99411889D01*
X163894869Y-99660259D01*
X163883396Y-99970141D01*
X163879278Y-100150157D01*
X163868618Y-100554129D01*
X163852806Y-100843011D01*
X163830683Y-101028648D01*
X163801088Y-101122887D01*
X163782375Y-101139698D01*
X163754588Y-101121720D01*
X163733668Y-101038447D01*
X163718833Y-100877261D01*
X163709301Y-100625545D01*
X163704291Y-100270684D01*
X163703000Y-99859041D01*
X163705478Y-99467165D01*
X163712401Y-99122247D01*
X163722999Y-98843025D01*
X163736503Y-98648236D01*
X163752143Y-98556617D01*
X163756658Y-98552000D01*
X163841931Y-98595115D01*
G36*
X166126467Y-99520743D02*
X166152808Y-99582418D01*
X166167085Y-99708939D01*
X166171214Y-99919720D01*
X166167111Y-100234176D01*
X166165522Y-100308930D01*
X166152904Y-100679305D01*
X166133274Y-100933879D01*
X166105337Y-101083722D01*
X166068375Y-101139722D01*
X166034485Y-101120910D01*
X166011098Y-101028325D01*
X165996757Y-100847225D01*
X165990009Y-100562867D01*
X165989000Y-100335291D01*
X165991011Y-99991158D01*
X165998524Y-99755032D01*
X166013753Y-99607963D01*
X166038915Y-99531001D01*
X166076225Y-99505194D01*
X166086147Y-99504500D01*
X166126467Y-99520743D01*
X166126467Y-99520743D01*
G37*
X166126467Y-99520743D02*
X166152808Y-99582418D01*
X166167085Y-99708939D01*
X166171214Y-99919720D01*
X166167111Y-100234176D01*
X166165522Y-100308930D01*
X166152904Y-100679305D01*
X166133274Y-100933879D01*
X166105337Y-101083722D01*
X166068375Y-101139722D01*
X166034485Y-101120910D01*
X166011098Y-101028325D01*
X165996757Y-100847225D01*
X165990009Y-100562867D01*
X165989000Y-100335291D01*
X165991011Y-99991158D01*
X165998524Y-99755032D01*
X166013753Y-99607963D01*
X166038915Y-99531001D01*
X166076225Y-99505194D01*
X166086147Y-99504500D01*
X166126467Y-99520743D01*
G36*
X166815291Y-98503862D02*
X166839639Y-98560173D01*
X166856920Y-98672768D01*
X166868257Y-98856981D01*
X166874778Y-99128146D01*
X166877606Y-99501599D01*
X166878000Y-99786502D01*
X166875695Y-100263270D01*
X166867941Y-100624260D01*
X166853476Y-100880625D01*
X166831037Y-101043520D01*
X166799364Y-101124097D01*
X166757193Y-101133510D01*
X166728106Y-101111440D01*
X166715820Y-101038384D01*
X166705027Y-100857982D01*
X166696326Y-100589885D01*
X166690316Y-100253745D01*
X166687597Y-99869214D01*
X166687500Y-99779666D01*
X166688635Y-99337516D01*
X166692797Y-99006980D01*
X166701120Y-98772684D01*
X166714738Y-98619257D01*
X166734784Y-98531327D01*
X166762394Y-98493520D01*
X166782750Y-98488500D01*
X166815291Y-98503862D01*
X166815291Y-98503862D01*
G37*
X166815291Y-98503862D02*
X166839639Y-98560173D01*
X166856920Y-98672768D01*
X166868257Y-98856981D01*
X166874778Y-99128146D01*
X166877606Y-99501599D01*
X166878000Y-99786502D01*
X166875695Y-100263270D01*
X166867941Y-100624260D01*
X166853476Y-100880625D01*
X166831037Y-101043520D01*
X166799364Y-101124097D01*
X166757193Y-101133510D01*
X166728106Y-101111440D01*
X166715820Y-101038384D01*
X166705027Y-100857982D01*
X166696326Y-100589885D01*
X166690316Y-100253745D01*
X166687597Y-99869214D01*
X166687500Y-99779666D01*
X166688635Y-99337516D01*
X166692797Y-99006980D01*
X166701120Y-98772684D01*
X166714738Y-98619257D01*
X166734784Y-98531327D01*
X166762394Y-98493520D01*
X166782750Y-98488500D01*
X166815291Y-98503862D01*
G36*
X167557177Y-98492827D02*
X167588974Y-98516549D01*
X167611043Y-98575775D01*
X167624749Y-98686615D01*
X167631454Y-98865180D01*
X167632525Y-99127578D01*
X167629324Y-99489921D01*
X167625413Y-99800877D01*
X167615903Y-100303216D01*
X167601944Y-100683309D01*
X167583226Y-100945842D01*
X167559438Y-101095502D01*
X167536698Y-101137061D01*
X167457022Y-101108257D01*
X167425573Y-101057740D01*
X167413268Y-100964278D01*
X167402522Y-100765322D01*
X167393972Y-100482372D01*
X167388256Y-100136931D01*
X167386010Y-99750501D01*
X167386000Y-99721556D01*
X167386506Y-99297378D01*
X167389177Y-98983587D01*
X167395741Y-98763570D01*
X167407927Y-98620714D01*
X167427463Y-98538408D01*
X167456078Y-98500037D01*
X167495499Y-98488989D01*
X167514288Y-98488500D01*
X167557177Y-98492827D01*
X167557177Y-98492827D01*
G37*
X167557177Y-98492827D02*
X167588974Y-98516549D01*
X167611043Y-98575775D01*
X167624749Y-98686615D01*
X167631454Y-98865180D01*
X167632525Y-99127578D01*
X167629324Y-99489921D01*
X167625413Y-99800877D01*
X167615903Y-100303216D01*
X167601944Y-100683309D01*
X167583226Y-100945842D01*
X167559438Y-101095502D01*
X167536698Y-101137061D01*
X167457022Y-101108257D01*
X167425573Y-101057740D01*
X167413268Y-100964278D01*
X167402522Y-100765322D01*
X167393972Y-100482372D01*
X167388256Y-100136931D01*
X167386010Y-99750501D01*
X167386000Y-99721556D01*
X167386506Y-99297378D01*
X167389177Y-98983587D01*
X167395741Y-98763570D01*
X167407927Y-98620714D01*
X167427463Y-98538408D01*
X167456078Y-98500037D01*
X167495499Y-98488989D01*
X167514288Y-98488500D01*
X167557177Y-98492827D01*
G36*
X168865342Y-99486114D02*
X169091733Y-99600267D01*
X169259732Y-99799660D01*
X169330751Y-100001070D01*
X169339455Y-100172458D01*
X169279327Y-100288001D01*
X169134917Y-100356957D01*
X168890772Y-100388579D01*
X168675613Y-100393500D01*
X168451217Y-100401092D01*
X168286458Y-100421139D01*
X168212761Y-100449543D01*
X168211500Y-100454012D01*
X168263660Y-100634601D01*
X168393100Y-100806341D01*
X168536739Y-100904705D01*
X168681514Y-100947275D01*
X168837581Y-100945614D01*
X169049502Y-100897007D01*
X169148125Y-100867470D01*
X169261093Y-100855653D01*
X169291000Y-100915651D01*
X169234006Y-101018489D01*
X169086521Y-101096049D01*
X168883785Y-101140936D01*
X168661041Y-101145760D01*
X168453531Y-101103127D01*
X168433750Y-101095469D01*
X168225236Y-100955434D01*
X168094989Y-100731404D01*
X168035450Y-100410323D01*
X168035215Y-100406995D01*
X168037372Y-100135325D01*
X168211500Y-100135325D01*
X168268352Y-100169775D01*
X168413427Y-100192148D01*
X168608501Y-100202216D01*
X168815350Y-100199751D01*
X168995751Y-100184526D01*
X169111481Y-100156312D01*
X169131438Y-100140812D01*
X169139495Y-100021076D01*
X169064286Y-99877435D01*
X168935609Y-99743822D01*
X168783263Y-99654172D01*
X168687750Y-99635539D01*
X168513522Y-99690579D01*
X168350673Y-99828127D01*
X168238616Y-100006824D01*
X168211500Y-100135325D01*
X168037372Y-100135325D01*
X168037887Y-100070513D01*
X168106393Y-99823076D01*
X168250042Y-99640004D01*
X168352792Y-99564993D01*
X168609410Y-99470068D01*
X168865342Y-99486114D01*
X168865342Y-99486114D01*
G37*
X168865342Y-99486114D02*
X169091733Y-99600267D01*
X169259732Y-99799660D01*
X169330751Y-100001070D01*
X169339455Y-100172458D01*
X169279327Y-100288001D01*
X169134917Y-100356957D01*
X168890772Y-100388579D01*
X168675613Y-100393500D01*
X168451217Y-100401092D01*
X168286458Y-100421139D01*
X168212761Y-100449543D01*
X168211500Y-100454012D01*
X168263660Y-100634601D01*
X168393100Y-100806341D01*
X168536739Y-100904705D01*
X168681514Y-100947275D01*
X168837581Y-100945614D01*
X169049502Y-100897007D01*
X169148125Y-100867470D01*
X169261093Y-100855653D01*
X169291000Y-100915651D01*
X169234006Y-101018489D01*
X169086521Y-101096049D01*
X168883785Y-101140936D01*
X168661041Y-101145760D01*
X168453531Y-101103127D01*
X168433750Y-101095469D01*
X168225236Y-100955434D01*
X168094989Y-100731404D01*
X168035450Y-100410323D01*
X168035215Y-100406995D01*
X168037372Y-100135325D01*
X168211500Y-100135325D01*
X168268352Y-100169775D01*
X168413427Y-100192148D01*
X168608501Y-100202216D01*
X168815350Y-100199751D01*
X168995751Y-100184526D01*
X169111481Y-100156312D01*
X169131438Y-100140812D01*
X169139495Y-100021076D01*
X169064286Y-99877435D01*
X168935609Y-99743822D01*
X168783263Y-99654172D01*
X168687750Y-99635539D01*
X168513522Y-99690579D01*
X168350673Y-99828127D01*
X168238616Y-100006824D01*
X168211500Y-100135325D01*
X168037372Y-100135325D01*
X168037887Y-100070513D01*
X168106393Y-99823076D01*
X168250042Y-99640004D01*
X168352792Y-99564993D01*
X168609410Y-99470068D01*
X168865342Y-99486114D01*
G36*
X170533146Y-99470775D02*
X170608654Y-99552125D01*
X170577940Y-99614443D01*
X170475913Y-99631500D01*
X170323644Y-99671679D01*
X170152976Y-99770679D01*
X170123706Y-99793930D01*
X170032073Y-99877562D01*
X169974131Y-99961897D01*
X169940882Y-100078500D01*
X169923325Y-100258938D01*
X169912463Y-100534775D01*
X169912459Y-100534919D01*
X169894220Y-100856291D01*
X169863165Y-101055866D01*
X169818548Y-101138272D01*
X169814875Y-101139780D01*
X169780984Y-101120934D01*
X169757596Y-101028308D01*
X169743255Y-100847160D01*
X169736508Y-100562746D01*
X169735500Y-100335291D01*
X169737897Y-99986912D01*
X169746382Y-99747557D01*
X169762893Y-99599317D01*
X169789370Y-99524284D01*
X169825458Y-99504500D01*
X169920766Y-99543829D01*
X169937455Y-99570617D01*
X170004736Y-99592640D01*
X170154175Y-99539546D01*
X170165005Y-99534212D01*
X170376945Y-99460463D01*
X170533146Y-99470775D01*
X170533146Y-99470775D01*
G37*
X170533146Y-99470775D02*
X170608654Y-99552125D01*
X170577940Y-99614443D01*
X170475913Y-99631500D01*
X170323644Y-99671679D01*
X170152976Y-99770679D01*
X170123706Y-99793930D01*
X170032073Y-99877562D01*
X169974131Y-99961897D01*
X169940882Y-100078500D01*
X169923325Y-100258938D01*
X169912463Y-100534775D01*
X169912459Y-100534919D01*
X169894220Y-100856291D01*
X169863165Y-101055866D01*
X169818548Y-101138272D01*
X169814875Y-101139780D01*
X169780984Y-101120934D01*
X169757596Y-101028308D01*
X169743255Y-100847160D01*
X169736508Y-100562746D01*
X169735500Y-100335291D01*
X169737897Y-99986912D01*
X169746382Y-99747557D01*
X169762893Y-99599317D01*
X169789370Y-99524284D01*
X169825458Y-99504500D01*
X169920766Y-99543829D01*
X169937455Y-99570617D01*
X170004736Y-99592640D01*
X170154175Y-99539546D01*
X170165005Y-99534212D01*
X170376945Y-99460463D01*
X170533146Y-99470775D01*
G36*
X166098283Y-98705226D02*
X166124431Y-98725531D01*
X166164719Y-98829960D01*
X166136810Y-98941259D01*
X166057452Y-98996352D01*
X166052500Y-98996500D01*
X165974090Y-98945535D01*
X165946825Y-98896981D01*
X165944144Y-98779601D01*
X166007295Y-98703457D01*
X166098283Y-98705226D01*
X166098283Y-98705226D01*
G37*
X166098283Y-98705226D02*
X166124431Y-98725531D01*
X166164719Y-98829960D01*
X166136810Y-98941259D01*
X166057452Y-98996352D01*
X166052500Y-98996500D01*
X165974090Y-98945535D01*
X165946825Y-98896981D01*
X165944144Y-98779601D01*
X166007295Y-98703457D01*
X166098283Y-98705226D01*
D12*
X159551100Y-77000540D03*
X164551100Y-77000540D03*
D13*
X158551100Y-74300540D03*
X165551100Y-74300540D03*
D14*
X162052000Y-113030000D03*
X163830000Y-113030000D03*
X163322000Y-113030000D03*
M02*
