M48
;DRILL file {KiCad 4.0.4-stable} date Wednesday, 25 January 2017 'PMt' 21:37:08
;FORMAT={-:-/ absolute / metric / decimal}
FMAT,2
METRIC,TZ
T1C0.400
T2C0.500
T3C0.550
%
G90
G05
M71
T1
X123.698Y-72.39
X123.952Y-83.82
X124.46Y-79.248
X124.46Y-80.264
X126.238Y-80.264
X126.492Y-84.582
X131.064Y-85.852
X136.906Y-84.328
X139.192Y-76.708
X139.954Y-71.882
X141.732Y-77.978
X144.018Y-98.806
X145.288Y-73.914
X145.288Y-84.074
X146.304Y-78.74
X153.162Y-72.898
X153.416Y-74.168
X153.416Y-74.93
X156.21Y-72.39
X156.972Y-74.422
X163.322Y-78.232
X167.64Y-73.152
X171.196Y-77.724
X171.196Y-82.55
X181.61Y-74.168
X183.388Y-72.898
X184.658Y-82.804
X185.928Y-82.55
X186.944Y-110.998
X187.96Y-102.32
X187.96Y-106.13
X188.976Y-74.676
X189.992Y-76.454
X190.246Y-75.692
X190.246Y-84.074
X190.5Y-80.01
X190.754Y-72.898
X192.786Y-72.898
X193.548Y-76.454
X195.326Y-75.438
X195.834Y-74.168
X196.85Y-75.184
X198.374Y-74.168
X199.136Y-71.628
X199.136Y-83.058
X200.66Y-83.058
X200.914Y-87.376
X201.422Y-102.362
X201.422Y-106.172
X202.184Y-74.93
X203.454Y-83.566
X203.962Y-98.806
X204.47Y-77.978
X204.47Y-78.74
T2
X158.551Y-73.976G85X158.551Y-74.626
G05
X165.551Y-73.976G85X165.551Y-74.626
G05
T3
X159.701Y-77.001G85X159.401Y-77.001
G05
X164.701Y-77.001G85X164.401Y-77.001
G05
T0
M30
