M48
;DRILL file {KiCad 4.0.4-stable} date Tuesday, 07 February 2017 'PMt' 22:27:15
;FORMAT={-:-/ absolute / metric / decimal}
FMAT,2
METRIC,TZ
T1C0.400
T2C0.500
T3C0.550
%
G90
G05
M71
T1
X122.682Y-71.882
X123.952Y-83.82
X124.46Y-79.248
X124.46Y-80.264
X126.238Y-80.264
X126.492Y-84.582
X131.064Y-85.852
X136.906Y-84.328
X139.192Y-76.2
X139.954Y-71.882
X141.732Y-77.978
X144.018Y-98.806
X145.288Y-73.914
X145.288Y-84.074
X146.304Y-78.74
X152.4Y-72.39
X152.654Y-73.914
X152.654Y-75.184
X156.972Y-73.152
X157.226Y-76.2
X164.592Y-78.486
X167.64Y-73.152
X167.64Y-77.724
X171.196Y-82.55
X181.61Y-74.168
X183.642Y-72.39
X184.658Y-82.804
X185.928Y-82.55
X186.944Y-110.998
X187.96Y-102.32
X187.96Y-106.13
X188.976Y-74.676
X189.23Y-76.2
X189.992Y-76.962
X190.246Y-79.756
X190.754Y-72.898
X192.024Y-72.898
X193.294Y-76.962
X194.564Y-86.36
X195.072Y-75.184
X196.342Y-74.422
X197.358Y-75.438
X199.136Y-71.628
X199.136Y-74.422
X199.136Y-83.058
X200.66Y-82.55
X201.422Y-102.362
X201.422Y-106.172
X201.676Y-74.676
X201.676Y-87.376
X203.454Y-83.566
X203.454Y-98.298
X204.47Y-78.74
X204.724Y-77.978
T2
X158.551Y-73.976G85X158.551Y-74.626
G05
X165.551Y-73.976G85X165.551Y-74.626
G05
T3
X159.701Y-77.001G85X159.401Y-77.001
G05
X164.701Y-77.001G85X164.401Y-77.001
G05
T0
M30
