G04 #@! TF.FileFunction,Soldermask,Bot*
%FSLAX46Y46*%
G04 Gerber Fmt 4.6, Leading zero omitted, Abs format (unit mm)*
G04 Created by KiCad (PCBNEW 4.0.4-stable) date Tuesday, 17 January 2017 'PMt' 21:45:39*
%MOMM*%
%LPD*%
G01*
G04 APERTURE LIST*
%ADD10C,0.100000*%
%ADD11R,1.900000X0.950000*%
%ADD12R,0.950000X1.900000*%
%ADD13R,0.800000X1.750000*%
%ADD14O,1.650000X1.350000*%
%ADD15O,1.400000X1.950000*%
%ADD16R,0.800000X1.000000*%
%ADD17R,1.100000X1.000000*%
%ADD18R,1.000000X1.100000*%
%ADD19R,2.432000X1.924000*%
%ADD20R,0.900000X1.000000*%
%ADD21R,2.429460X1.540460*%
%ADD22R,1.800000X1.600000*%
G04 APERTURE END LIST*
D10*
D11*
X191912000Y-82740000D03*
X191912000Y-81940000D03*
X191912000Y-81140000D03*
X191912000Y-80340000D03*
X191912000Y-79540000D03*
X191912000Y-78740000D03*
X191912000Y-77940000D03*
X191912000Y-77140000D03*
X191912000Y-76340000D03*
X191912000Y-75540000D03*
X191912000Y-74740000D03*
D12*
X193612000Y-73040000D03*
X194412000Y-73040000D03*
X195212000Y-73040000D03*
X196012000Y-73040000D03*
X196812000Y-73040000D03*
X197612000Y-73040000D03*
X198412000Y-73040000D03*
X199212000Y-73040000D03*
X200012000Y-73040000D03*
X200812000Y-73040000D03*
X201612000Y-73040000D03*
D11*
X203312000Y-74740000D03*
X203312000Y-75540000D03*
X203312000Y-76340000D03*
X203312000Y-77140000D03*
X203312000Y-77940000D03*
X203312000Y-78740000D03*
X203312000Y-79540000D03*
X203312000Y-80340000D03*
X203312000Y-81140000D03*
X203312000Y-81940000D03*
X203312000Y-82740000D03*
D12*
X201612000Y-84440000D03*
X200812000Y-84440000D03*
X200012000Y-84440000D03*
X199212000Y-84440000D03*
X198412000Y-84440000D03*
X197612000Y-84440000D03*
X196812000Y-84440000D03*
X196012000Y-84440000D03*
X195212000Y-84440000D03*
X194412000Y-84440000D03*
X193612000Y-84440000D03*
D13*
X160751100Y-77000540D03*
X161401100Y-77000540D03*
X162051100Y-77000540D03*
X162701100Y-77000540D03*
X163351100Y-77000540D03*
D14*
X159551100Y-77000540D03*
X164551100Y-77000540D03*
D15*
X158551100Y-74300540D03*
X165551100Y-74300540D03*
D16*
X186632000Y-78486000D03*
X185732000Y-78486000D03*
X186632000Y-80010000D03*
X185732000Y-80010000D03*
X137864000Y-73660000D03*
X136964000Y-73660000D03*
X136964000Y-76200000D03*
X137864000Y-76200000D03*
X142690000Y-73660000D03*
X141790000Y-73660000D03*
X147516000Y-76200000D03*
X146616000Y-76200000D03*
X142690000Y-76200000D03*
X141790000Y-76200000D03*
X146616000Y-73660000D03*
X147516000Y-73660000D03*
D10*
G36*
X127454000Y-72698000D02*
X127454000Y-74622000D01*
X125530000Y-74622000D01*
X125530000Y-72698000D01*
X127454000Y-72698000D01*
X127454000Y-72698000D01*
G37*
G36*
X124914000Y-72698000D02*
X124914000Y-74622000D01*
X122990000Y-74622000D01*
X122990000Y-72698000D01*
X124914000Y-72698000D01*
X124914000Y-72698000D01*
G37*
G36*
X122374000Y-72698000D02*
X122374000Y-74622000D01*
X120450000Y-74622000D01*
X120450000Y-72698000D01*
X122374000Y-72698000D01*
X122374000Y-72698000D01*
G37*
G36*
X122374000Y-75238000D02*
X122374000Y-77162000D01*
X120450000Y-77162000D01*
X120450000Y-75238000D01*
X122374000Y-75238000D01*
X122374000Y-75238000D01*
G37*
G36*
X124914000Y-75238000D02*
X124914000Y-77162000D01*
X122990000Y-77162000D01*
X122990000Y-75238000D01*
X124914000Y-75238000D01*
X124914000Y-75238000D01*
G37*
G36*
X127454000Y-75238000D02*
X127454000Y-77162000D01*
X125530000Y-77162000D01*
X125530000Y-75238000D01*
X127454000Y-75238000D01*
X127454000Y-75238000D01*
G37*
D17*
X185166000Y-98256000D03*
X185166000Y-99356000D03*
D18*
X131276000Y-76200000D03*
X132376000Y-76200000D03*
X131276000Y-73660000D03*
X132376000Y-73660000D03*
D17*
X185166000Y-102320000D03*
X185166000Y-103420000D03*
X185166000Y-106130000D03*
X185166000Y-107230000D03*
D19*
X154686000Y-76327000D03*
X154686000Y-73025000D03*
X177546000Y-76327000D03*
X177546000Y-73025000D03*
D20*
X180594000Y-73956000D03*
X180594000Y-72856000D03*
D19*
X173482000Y-76327000D03*
X173482000Y-73025000D03*
X169418000Y-76327000D03*
X169418000Y-73025000D03*
D21*
X150368000Y-76133960D03*
X150368000Y-73726040D03*
D20*
X182880000Y-73956000D03*
X182880000Y-72856000D03*
X189484000Y-72856000D03*
X189484000Y-73956000D03*
D22*
X185082000Y-72860000D03*
X187282000Y-72860000D03*
X185082000Y-74460000D03*
X187282000Y-74460000D03*
M02*
