%FSLAX45Y45*%
G04 Gerber Fmt 4.5, Leading zero omitted, Abs format (unit mm)*
G04 Created by KiCad (PCBNEW (5.0.1-3-g963ef8bb5)) date Sunday, 14 April 2019 at 13:03:22*
%MOMM*%
%LPD*%
G01*
G04 APERTURE LIST*
%ADD10C,0.150000*%
%ADD11C,0.200000*%
%ADD12C,0.300000*%
G04 APERTURE END LIST*
D10*
X11931000Y-12311000D02*
X11931000Y-7605000D01*
X20035000Y-12815000D02*
X12434000Y-12815000D01*
X20034000Y-7100000D02*
X12433000Y-7100000D01*
X20538000Y-12313000D02*
X20538000Y-7605000D01*
X12435000Y-12815000D02*
G75*
G02X11931000Y-12311000I0J504000D01*
G01*
X20538000Y-12311000D02*
G75*
G02X20034000Y-12815000I-504000J0D01*
G01*
X20034000Y-7100000D02*
G75*
G02X20538000Y-7604000I0J-504000D01*
G01*
X11931000Y-7604000D02*
G75*
G02X12435000Y-7100000I504000J0D01*
G01*
D11*
X12198000Y-7422200D02*
X12238000Y-7462200D01*
X12238000Y-7422200D02*
X12198000Y-7462200D01*
X12553000Y-7727000D02*
X12593000Y-7767000D01*
X12593000Y-7727000D02*
X12553000Y-7767000D01*
X12781600Y-7320600D02*
X12821600Y-7360600D01*
X12821600Y-7320600D02*
X12781600Y-7360600D01*
X12781600Y-7752400D02*
X12821600Y-7792400D01*
X12821600Y-7752400D02*
X12781600Y-7792400D01*
X12857800Y-7600000D02*
X12897800Y-7640000D01*
X12897800Y-7600000D02*
X12857800Y-7640000D01*
X12883200Y-7473000D02*
X12923200Y-7513000D01*
X12923200Y-7473000D02*
X12883200Y-7513000D01*
X13086400Y-7904800D02*
X13126400Y-7944800D01*
X13126400Y-7904800D02*
X13086400Y-7944800D01*
X13213400Y-8103600D02*
X13253400Y-8143600D01*
X13253400Y-8103600D02*
X13213400Y-8143600D01*
X13569000Y-7955600D02*
X13609000Y-7995600D01*
X13609000Y-7955600D02*
X13569000Y-7995600D01*
X13721400Y-7295200D02*
X13761400Y-7335200D01*
X13761400Y-7295200D02*
X13721400Y-7335200D01*
X15343000Y-7930200D02*
X15383000Y-7970200D01*
X15383000Y-7930200D02*
X15343000Y-7970200D01*
X15626400Y-7295200D02*
X15666400Y-7335200D01*
X15666400Y-7295200D02*
X15626400Y-7335200D01*
X15626400Y-7396800D02*
X15666400Y-7436800D01*
X15666400Y-7396800D02*
X15626400Y-7436800D01*
X16718600Y-7396800D02*
X16758600Y-7436800D01*
X16758600Y-7396800D02*
X16718600Y-7436800D01*
X16972600Y-7803200D02*
X17012600Y-7843200D01*
X17012600Y-7803200D02*
X16972600Y-7843200D01*
X17226600Y-7295200D02*
X17266600Y-7335200D01*
X17266600Y-7295200D02*
X17226600Y-7335200D01*
X17263000Y-8092000D02*
X17303000Y-8132000D01*
X17303000Y-8092000D02*
X17263000Y-8132000D01*
X17302800Y-7244400D02*
X17342800Y-7284400D01*
X17342800Y-7244400D02*
X17302800Y-7284400D01*
X17861600Y-7879400D02*
X17901600Y-7919400D01*
X17901600Y-7879400D02*
X17861600Y-7919400D01*
X17937800Y-8362000D02*
X17977800Y-8402000D01*
X17977800Y-8362000D02*
X17937800Y-8402000D01*
X18242600Y-8743000D02*
X18282600Y-8783000D01*
X18282600Y-8743000D02*
X18242600Y-8783000D01*
X18445800Y-8235000D02*
X18485800Y-8275000D01*
X18485800Y-8235000D02*
X18445800Y-8275000D01*
X18471200Y-8484600D02*
X18511200Y-8524600D01*
X18511200Y-8484600D02*
X18471200Y-8524600D01*
X18496600Y-7701600D02*
X18536600Y-7741600D01*
X18536600Y-7701600D02*
X18496600Y-7741600D01*
X18522000Y-7574600D02*
X18562000Y-7614600D01*
X18562000Y-7574600D02*
X18522000Y-7614600D01*
X18547400Y-8057200D02*
X18587400Y-8097200D01*
X18587400Y-8057200D02*
X18547400Y-8097200D01*
X18649000Y-7371400D02*
X18689000Y-7411400D01*
X18689000Y-7371400D02*
X18649000Y-7411400D01*
X18701000Y-9376000D02*
X18741000Y-9416000D01*
X18741000Y-9376000D02*
X18701000Y-9416000D01*
X18725200Y-7371400D02*
X18765200Y-7411400D01*
X18765200Y-7371400D02*
X18725200Y-7411400D01*
X18826800Y-8692200D02*
X18866800Y-8732200D01*
X18866800Y-8692200D02*
X18826800Y-8732200D01*
X18903000Y-8133400D02*
X18943000Y-8173400D01*
X18943000Y-8133400D02*
X18903000Y-8173400D01*
X18903000Y-8285800D02*
X18943000Y-8325800D01*
X18943000Y-8285800D02*
X18903000Y-8325800D01*
X18930000Y-9603000D02*
X18970000Y-9643000D01*
X18970000Y-9603000D02*
X18930000Y-9643000D01*
X19004600Y-8336600D02*
X19044600Y-8376600D01*
X19044600Y-8336600D02*
X19004600Y-8376600D01*
X19030000Y-7193600D02*
X19070000Y-7233600D01*
X19070000Y-7193600D02*
X19030000Y-7233600D01*
X19080800Y-7523800D02*
X19120800Y-7563800D01*
X19120800Y-7523800D02*
X19080800Y-7563800D01*
X19106200Y-7244400D02*
X19146200Y-7284400D01*
X19146200Y-7244400D02*
X19106200Y-7284400D01*
X19131600Y-8717600D02*
X19171600Y-8757600D01*
X19171600Y-8717600D02*
X19131600Y-8757600D01*
X19182400Y-8946200D02*
X19222400Y-8986200D01*
X19222400Y-8946200D02*
X19182400Y-8986200D01*
X19207800Y-7879400D02*
X19247800Y-7919400D01*
X19247800Y-7879400D02*
X19207800Y-7919400D01*
X19461800Y-8819200D02*
X19501800Y-8859200D01*
X19501800Y-8819200D02*
X19461800Y-8859200D01*
X19512600Y-8412800D02*
X19552600Y-8452800D01*
X19552600Y-8412800D02*
X19512600Y-8452800D01*
X19563400Y-7661000D02*
X19603400Y-7701000D01*
X19603400Y-7661000D02*
X19563400Y-7701000D01*
X19588800Y-7824200D02*
X19628800Y-7864200D01*
X19628800Y-7824200D02*
X19588800Y-7864200D01*
X19633200Y-7269800D02*
X19673200Y-7309800D01*
X19673200Y-7269800D02*
X19633200Y-7309800D01*
X19665000Y-7727000D02*
X19705000Y-7767000D01*
X19705000Y-7727000D02*
X19665000Y-7767000D01*
X19817400Y-8463600D02*
X19857400Y-8503600D01*
X19857400Y-8463600D02*
X19817400Y-8503600D01*
X19969800Y-7600000D02*
X20009800Y-7640000D01*
X20009800Y-7600000D02*
X19969800Y-7640000D01*
X19990000Y-9800000D02*
X20030000Y-9840000D01*
X20030000Y-9800000D02*
X19990000Y-9840000D01*
X20071400Y-9581200D02*
X20111400Y-9621200D01*
X20111400Y-9581200D02*
X20071400Y-9621200D01*
X20147600Y-8768400D02*
X20187600Y-8808400D01*
X20187600Y-8768400D02*
X20147600Y-8808400D01*
X20147600Y-11105200D02*
X20187600Y-11145200D01*
X20187600Y-11105200D02*
X20147600Y-11145200D01*
X20274000Y-12492000D02*
X20314000Y-12532000D01*
X20314000Y-12492000D02*
X20274000Y-12532000D01*
X20274600Y-7625400D02*
X20314600Y-7665400D01*
X20314600Y-7625400D02*
X20274600Y-7665400D01*
X16031000Y-7730000D02*
G75*
G03X16031000Y-7730000I-32500J0D01*
G01*
X15976000Y-7710000D02*
X15976000Y-7750000D01*
X16021000Y-7710000D02*
X16021000Y-7750000D01*
X15976000Y-7750000D02*
G75*
G03X16021000Y-7750000I22500J0D01*
G01*
X16021000Y-7710000D02*
G75*
G03X15976000Y-7710000I-22500J0D01*
G01*
X16516000Y-7730000D02*
G75*
G03X16516000Y-7730000I-32500J0D01*
G01*
X16506000Y-7750000D02*
X16506000Y-7710000D01*
X16461000Y-7750000D02*
X16461000Y-7710000D01*
X16506000Y-7710000D02*
G75*
G03X16461000Y-7710000I-22500J0D01*
G01*
X16461000Y-7750000D02*
G75*
G03X16506000Y-7750000I22500J0D01*
G01*
X15968500Y-7392000D02*
X15968500Y-7462000D01*
X15933500Y-7427000D02*
X16003500Y-7427000D01*
X15943500Y-7402000D02*
X15943500Y-7452000D01*
X15993500Y-7402000D02*
X15993500Y-7452000D01*
X15943500Y-7452000D02*
G75*
G03X15993500Y-7452000I25000J0D01*
G01*
X15993500Y-7402000D02*
G75*
G03X15943500Y-7402000I-25000J0D01*
G01*
X16513500Y-7392000D02*
X16513500Y-7462000D01*
X16478500Y-7427000D02*
X16548500Y-7427000D01*
X16488500Y-7402000D02*
X16488500Y-7452000D01*
X16538500Y-7402000D02*
X16538500Y-7452000D01*
X16488500Y-7452000D02*
G75*
G03X16538500Y-7452000I25000J0D01*
G01*
X16538500Y-7402000D02*
G75*
G03X16488500Y-7402000I-25000J0D01*
G01*
X15451388Y-7424988D02*
X15451388Y-7357812D01*
X15384212Y-7357812D01*
X15384212Y-7424988D01*
X15451388Y-7424988D01*
X14155988Y-7450388D02*
X14155988Y-7383212D01*
X14088812Y-7383212D01*
X14088812Y-7450388D01*
X14155988Y-7450388D01*
X14155988Y-7704388D02*
X14155988Y-7637212D01*
X14088812Y-7637212D01*
X14088812Y-7704388D01*
X14155988Y-7704388D01*
X14155988Y-7958388D02*
X14155988Y-7891212D01*
X14088812Y-7891212D01*
X14088812Y-7958388D01*
X14155988Y-7958388D01*
X14816388Y-7450388D02*
X14816388Y-7383212D01*
X14749212Y-7383212D01*
X14749212Y-7450388D01*
X14816388Y-7450388D01*
X14816388Y-7704388D02*
X14816388Y-7637212D01*
X14749212Y-7637212D01*
X14749212Y-7704388D01*
X14816388Y-7704388D01*
D12*
X12209928Y-13288214D02*
X12209928Y-12988214D01*
X12281357Y-12988214D01*
X12324214Y-13002500D01*
X12352786Y-13031071D01*
X12367071Y-13059643D01*
X12381357Y-13116786D01*
X12381357Y-13159643D01*
X12367071Y-13216786D01*
X12352786Y-13245357D01*
X12324214Y-13273929D01*
X12281357Y-13288214D01*
X12209928Y-13288214D01*
X12509928Y-13288214D02*
X12509928Y-13088214D01*
X12509928Y-13145357D02*
X12524214Y-13116786D01*
X12538500Y-13102500D01*
X12567071Y-13088214D01*
X12595643Y-13088214D01*
X12695643Y-13288214D02*
X12695643Y-13088214D01*
X12695643Y-12988214D02*
X12681357Y-13002500D01*
X12695643Y-13016786D01*
X12709928Y-13002500D01*
X12695643Y-12988214D01*
X12695643Y-13016786D01*
X12881357Y-13288214D02*
X12852786Y-13273929D01*
X12838500Y-13245357D01*
X12838500Y-12988214D01*
X13038500Y-13288214D02*
X13009928Y-13273929D01*
X12995643Y-13245357D01*
X12995643Y-12988214D01*
X13381357Y-13288214D02*
X13381357Y-12988214D01*
X13481357Y-13202500D01*
X13581357Y-12988214D01*
X13581357Y-13288214D01*
X13852786Y-13288214D02*
X13852786Y-13131071D01*
X13838500Y-13102500D01*
X13809928Y-13088214D01*
X13752786Y-13088214D01*
X13724214Y-13102500D01*
X13852786Y-13273929D02*
X13824214Y-13288214D01*
X13752786Y-13288214D01*
X13724214Y-13273929D01*
X13709928Y-13245357D01*
X13709928Y-13216786D01*
X13724214Y-13188214D01*
X13752786Y-13173929D01*
X13824214Y-13173929D01*
X13852786Y-13159643D01*
X13995643Y-13088214D02*
X13995643Y-13388214D01*
X13995643Y-13102500D02*
X14024214Y-13088214D01*
X14081357Y-13088214D01*
X14109928Y-13102500D01*
X14124214Y-13116786D01*
X14138500Y-13145357D01*
X14138500Y-13231071D01*
X14124214Y-13259643D01*
X14109928Y-13273929D01*
X14081357Y-13288214D01*
X14024214Y-13288214D01*
X13995643Y-13273929D01*
X14267071Y-13259643D02*
X14281357Y-13273929D01*
X14267071Y-13288214D01*
X14252786Y-13273929D01*
X14267071Y-13259643D01*
X14267071Y-13288214D01*
X14267071Y-13102500D02*
X14281357Y-13116786D01*
X14267071Y-13131071D01*
X14252786Y-13116786D01*
X14267071Y-13102500D01*
X14267071Y-13131071D01*
X11883500Y-13762500D02*
X11923500Y-13802500D01*
X11923500Y-13762500D02*
X11883500Y-13802500D01*
X12267071Y-13618214D02*
X12295643Y-13618214D01*
X12324214Y-13632500D01*
X12338500Y-13646786D01*
X12352786Y-13675357D01*
X12367071Y-13732500D01*
X12367071Y-13803929D01*
X12352786Y-13861071D01*
X12338500Y-13889643D01*
X12324214Y-13903929D01*
X12295643Y-13918214D01*
X12267071Y-13918214D01*
X12238500Y-13903929D01*
X12224214Y-13889643D01*
X12209928Y-13861071D01*
X12195643Y-13803929D01*
X12195643Y-13732500D01*
X12209928Y-13675357D01*
X12224214Y-13646786D01*
X12238500Y-13632500D01*
X12267071Y-13618214D01*
X12495643Y-13889643D02*
X12509928Y-13903929D01*
X12495643Y-13918214D01*
X12481357Y-13903929D01*
X12495643Y-13889643D01*
X12495643Y-13918214D01*
X12767071Y-13718214D02*
X12767071Y-13918214D01*
X12695643Y-13603929D02*
X12624214Y-13818214D01*
X12809928Y-13818214D01*
X12981357Y-13618214D02*
X13009928Y-13618214D01*
X13038500Y-13632500D01*
X13052786Y-13646786D01*
X13067071Y-13675357D01*
X13081357Y-13732500D01*
X13081357Y-13803929D01*
X13067071Y-13861071D01*
X13052786Y-13889643D01*
X13038500Y-13903929D01*
X13009928Y-13918214D01*
X12981357Y-13918214D01*
X12952786Y-13903929D01*
X12938500Y-13889643D01*
X12924214Y-13861071D01*
X12909928Y-13803929D01*
X12909928Y-13732500D01*
X12924214Y-13675357D01*
X12938500Y-13646786D01*
X12952786Y-13632500D01*
X12981357Y-13618214D01*
X13209928Y-13918214D02*
X13209928Y-13718214D01*
X13209928Y-13746786D02*
X13224214Y-13732500D01*
X13252786Y-13718214D01*
X13295643Y-13718214D01*
X13324214Y-13732500D01*
X13338500Y-13761071D01*
X13338500Y-13918214D01*
X13338500Y-13761071D02*
X13352786Y-13732500D01*
X13381357Y-13718214D01*
X13424214Y-13718214D01*
X13452786Y-13732500D01*
X13467071Y-13761071D01*
X13467071Y-13918214D01*
X13609928Y-13918214D02*
X13609928Y-13718214D01*
X13609928Y-13746786D02*
X13624214Y-13732500D01*
X13652786Y-13718214D01*
X13695643Y-13718214D01*
X13724214Y-13732500D01*
X13738500Y-13761071D01*
X13738500Y-13918214D01*
X13738500Y-13761071D02*
X13752786Y-13732500D01*
X13781357Y-13718214D01*
X13824214Y-13718214D01*
X13852786Y-13732500D01*
X13867071Y-13761071D01*
X13867071Y-13918214D01*
X14452786Y-13603929D02*
X14195643Y-13989643D01*
X14838500Y-13618214D02*
X14867071Y-13618214D01*
X14895643Y-13632500D01*
X14909928Y-13646786D01*
X14924214Y-13675357D01*
X14938500Y-13732500D01*
X14938500Y-13803929D01*
X14924214Y-13861071D01*
X14909928Y-13889643D01*
X14895643Y-13903929D01*
X14867071Y-13918214D01*
X14838500Y-13918214D01*
X14809928Y-13903929D01*
X14795643Y-13889643D01*
X14781357Y-13861071D01*
X14767071Y-13803929D01*
X14767071Y-13732500D01*
X14781357Y-13675357D01*
X14795643Y-13646786D01*
X14809928Y-13632500D01*
X14838500Y-13618214D01*
X15067071Y-13889643D02*
X15081357Y-13903929D01*
X15067071Y-13918214D01*
X15052786Y-13903929D01*
X15067071Y-13889643D01*
X15067071Y-13918214D01*
X15267071Y-13618214D02*
X15295643Y-13618214D01*
X15324214Y-13632500D01*
X15338500Y-13646786D01*
X15352786Y-13675357D01*
X15367071Y-13732500D01*
X15367071Y-13803929D01*
X15352786Y-13861071D01*
X15338500Y-13889643D01*
X15324214Y-13903929D01*
X15295643Y-13918214D01*
X15267071Y-13918214D01*
X15238500Y-13903929D01*
X15224214Y-13889643D01*
X15209928Y-13861071D01*
X15195643Y-13803929D01*
X15195643Y-13732500D01*
X15209928Y-13675357D01*
X15224214Y-13646786D01*
X15238500Y-13632500D01*
X15267071Y-13618214D01*
X15652786Y-13918214D02*
X15481357Y-13918214D01*
X15567071Y-13918214D02*
X15567071Y-13618214D01*
X15538500Y-13661071D01*
X15509928Y-13689643D01*
X15481357Y-13703929D01*
X15909928Y-13618214D02*
X15852786Y-13618214D01*
X15824214Y-13632500D01*
X15809928Y-13646786D01*
X15781357Y-13689643D01*
X15767071Y-13746786D01*
X15767071Y-13861071D01*
X15781357Y-13889643D01*
X15795643Y-13903929D01*
X15824214Y-13918214D01*
X15881357Y-13918214D01*
X15909928Y-13903929D01*
X15924214Y-13889643D01*
X15938500Y-13861071D01*
X15938500Y-13789643D01*
X15924214Y-13761071D01*
X15909928Y-13746786D01*
X15881357Y-13732500D01*
X15824214Y-13732500D01*
X15795643Y-13746786D01*
X15781357Y-13761071D01*
X15767071Y-13789643D01*
X16052786Y-13618214D02*
X16052786Y-13675357D01*
X16167071Y-13618214D02*
X16167071Y-13675357D01*
X16609928Y-14032500D02*
X16595643Y-14018214D01*
X16567071Y-13975357D01*
X16552786Y-13946786D01*
X16538500Y-13903929D01*
X16524214Y-13832500D01*
X16524214Y-13775357D01*
X16538500Y-13703929D01*
X16552786Y-13661071D01*
X16567071Y-13632500D01*
X16595643Y-13589643D01*
X16609928Y-13575357D01*
X16867071Y-13618214D02*
X16724214Y-13618214D01*
X16709928Y-13761071D01*
X16724214Y-13746786D01*
X16752786Y-13732500D01*
X16824214Y-13732500D01*
X16852786Y-13746786D01*
X16867071Y-13761071D01*
X16881357Y-13789643D01*
X16881357Y-13861071D01*
X16867071Y-13889643D01*
X16852786Y-13903929D01*
X16824214Y-13918214D01*
X16752786Y-13918214D01*
X16724214Y-13903929D01*
X16709928Y-13889643D01*
X17138500Y-13718214D02*
X17138500Y-13918214D01*
X17067071Y-13603929D02*
X16995643Y-13818214D01*
X17181357Y-13818214D01*
X17524214Y-13918214D02*
X17524214Y-13618214D01*
X17652786Y-13918214D02*
X17652786Y-13761071D01*
X17638500Y-13732500D01*
X17609928Y-13718214D01*
X17567071Y-13718214D01*
X17538500Y-13732500D01*
X17524214Y-13746786D01*
X17838500Y-13918214D02*
X17809928Y-13903929D01*
X17795643Y-13889643D01*
X17781357Y-13861071D01*
X17781357Y-13775357D01*
X17795643Y-13746786D01*
X17809928Y-13732500D01*
X17838500Y-13718214D01*
X17881357Y-13718214D01*
X17909928Y-13732500D01*
X17924214Y-13746786D01*
X17938500Y-13775357D01*
X17938500Y-13861071D01*
X17924214Y-13889643D01*
X17909928Y-13903929D01*
X17881357Y-13918214D01*
X17838500Y-13918214D01*
X18109928Y-13918214D02*
X18081357Y-13903929D01*
X18067071Y-13875357D01*
X18067071Y-13618214D01*
X18338500Y-13903929D02*
X18309928Y-13918214D01*
X18252786Y-13918214D01*
X18224214Y-13903929D01*
X18209928Y-13875357D01*
X18209928Y-13761071D01*
X18224214Y-13732500D01*
X18252786Y-13718214D01*
X18309928Y-13718214D01*
X18338500Y-13732500D01*
X18352786Y-13761071D01*
X18352786Y-13789643D01*
X18209928Y-13818214D01*
X18467071Y-13903929D02*
X18495643Y-13918214D01*
X18552786Y-13918214D01*
X18581357Y-13903929D01*
X18595643Y-13875357D01*
X18595643Y-13861071D01*
X18581357Y-13832500D01*
X18552786Y-13818214D01*
X18509928Y-13818214D01*
X18481357Y-13803929D01*
X18467071Y-13775357D01*
X18467071Y-13761071D01*
X18481357Y-13732500D01*
X18509928Y-13718214D01*
X18552786Y-13718214D01*
X18581357Y-13732500D01*
X18695643Y-14032500D02*
X18709928Y-14018214D01*
X18738500Y-13975357D01*
X18752786Y-13946786D01*
X18767071Y-13903929D01*
X18781357Y-13832500D01*
X18781357Y-13775357D01*
X18767071Y-13703929D01*
X18752786Y-13661071D01*
X18738500Y-13632500D01*
X18709928Y-13589643D01*
X18695643Y-13575357D01*
X11923500Y-14178500D02*
G75*
G03X11923500Y-14178500I-32500J0D01*
G01*
X12267071Y-14014214D02*
X12295643Y-14014214D01*
X12324214Y-14028500D01*
X12338500Y-14042786D01*
X12352786Y-14071357D01*
X12367071Y-14128500D01*
X12367071Y-14199929D01*
X12352786Y-14257071D01*
X12338500Y-14285643D01*
X12324214Y-14299929D01*
X12295643Y-14314214D01*
X12267071Y-14314214D01*
X12238500Y-14299929D01*
X12224214Y-14285643D01*
X12209928Y-14257071D01*
X12195643Y-14199929D01*
X12195643Y-14128500D01*
X12209928Y-14071357D01*
X12224214Y-14042786D01*
X12238500Y-14028500D01*
X12267071Y-14014214D01*
X12495643Y-14285643D02*
X12509928Y-14299929D01*
X12495643Y-14314214D01*
X12481357Y-14299929D01*
X12495643Y-14285643D01*
X12495643Y-14314214D01*
X12767071Y-14014214D02*
X12709928Y-14014214D01*
X12681357Y-14028500D01*
X12667071Y-14042786D01*
X12638500Y-14085643D01*
X12624214Y-14142786D01*
X12624214Y-14257071D01*
X12638500Y-14285643D01*
X12652786Y-14299929D01*
X12681357Y-14314214D01*
X12738500Y-14314214D01*
X12767071Y-14299929D01*
X12781357Y-14285643D01*
X12795643Y-14257071D01*
X12795643Y-14185643D01*
X12781357Y-14157071D01*
X12767071Y-14142786D01*
X12738500Y-14128500D01*
X12681357Y-14128500D01*
X12652786Y-14142786D01*
X12638500Y-14157071D01*
X12624214Y-14185643D01*
X13067071Y-14014214D02*
X12924214Y-14014214D01*
X12909928Y-14157071D01*
X12924214Y-14142786D01*
X12952786Y-14128500D01*
X13024214Y-14128500D01*
X13052786Y-14142786D01*
X13067071Y-14157071D01*
X13081357Y-14185643D01*
X13081357Y-14257071D01*
X13067071Y-14285643D01*
X13052786Y-14299929D01*
X13024214Y-14314214D01*
X12952786Y-14314214D01*
X12924214Y-14299929D01*
X12909928Y-14285643D01*
X13209928Y-14314214D02*
X13209928Y-14114214D01*
X13209928Y-14142786D02*
X13224214Y-14128500D01*
X13252786Y-14114214D01*
X13295643Y-14114214D01*
X13324214Y-14128500D01*
X13338500Y-14157071D01*
X13338500Y-14314214D01*
X13338500Y-14157071D02*
X13352786Y-14128500D01*
X13381357Y-14114214D01*
X13424214Y-14114214D01*
X13452786Y-14128500D01*
X13467071Y-14157071D01*
X13467071Y-14314214D01*
X13609928Y-14314214D02*
X13609928Y-14114214D01*
X13609928Y-14142786D02*
X13624214Y-14128500D01*
X13652786Y-14114214D01*
X13695643Y-14114214D01*
X13724214Y-14128500D01*
X13738500Y-14157071D01*
X13738500Y-14314214D01*
X13738500Y-14157071D02*
X13752786Y-14128500D01*
X13781357Y-14114214D01*
X13824214Y-14114214D01*
X13852786Y-14128500D01*
X13867071Y-14157071D01*
X13867071Y-14314214D01*
X14452786Y-13999929D02*
X14195643Y-14385643D01*
X14838500Y-14014214D02*
X14867071Y-14014214D01*
X14895643Y-14028500D01*
X14909928Y-14042786D01*
X14924214Y-14071357D01*
X14938500Y-14128500D01*
X14938500Y-14199929D01*
X14924214Y-14257071D01*
X14909928Y-14285643D01*
X14895643Y-14299929D01*
X14867071Y-14314214D01*
X14838500Y-14314214D01*
X14809928Y-14299929D01*
X14795643Y-14285643D01*
X14781357Y-14257071D01*
X14767071Y-14199929D01*
X14767071Y-14128500D01*
X14781357Y-14071357D01*
X14795643Y-14042786D01*
X14809928Y-14028500D01*
X14838500Y-14014214D01*
X15067071Y-14285643D02*
X15081357Y-14299929D01*
X15067071Y-14314214D01*
X15052786Y-14299929D01*
X15067071Y-14285643D01*
X15067071Y-14314214D01*
X15267071Y-14014214D02*
X15295643Y-14014214D01*
X15324214Y-14028500D01*
X15338500Y-14042786D01*
X15352786Y-14071357D01*
X15367071Y-14128500D01*
X15367071Y-14199929D01*
X15352786Y-14257071D01*
X15338500Y-14285643D01*
X15324214Y-14299929D01*
X15295643Y-14314214D01*
X15267071Y-14314214D01*
X15238500Y-14299929D01*
X15224214Y-14285643D01*
X15209928Y-14257071D01*
X15195643Y-14199929D01*
X15195643Y-14128500D01*
X15209928Y-14071357D01*
X15224214Y-14042786D01*
X15238500Y-14028500D01*
X15267071Y-14014214D01*
X15481357Y-14042786D02*
X15495643Y-14028500D01*
X15524214Y-14014214D01*
X15595643Y-14014214D01*
X15624214Y-14028500D01*
X15638500Y-14042786D01*
X15652786Y-14071357D01*
X15652786Y-14099929D01*
X15638500Y-14142786D01*
X15467071Y-14314214D01*
X15652786Y-14314214D01*
X15909928Y-14014214D02*
X15852786Y-14014214D01*
X15824214Y-14028500D01*
X15809928Y-14042786D01*
X15781357Y-14085643D01*
X15767071Y-14142786D01*
X15767071Y-14257071D01*
X15781357Y-14285643D01*
X15795643Y-14299929D01*
X15824214Y-14314214D01*
X15881357Y-14314214D01*
X15909928Y-14299929D01*
X15924214Y-14285643D01*
X15938500Y-14257071D01*
X15938500Y-14185643D01*
X15924214Y-14157071D01*
X15909928Y-14142786D01*
X15881357Y-14128500D01*
X15824214Y-14128500D01*
X15795643Y-14142786D01*
X15781357Y-14157071D01*
X15767071Y-14185643D01*
X16052786Y-14014214D02*
X16052786Y-14071357D01*
X16167071Y-14014214D02*
X16167071Y-14071357D01*
X16609928Y-14428500D02*
X16595643Y-14414214D01*
X16567071Y-14371357D01*
X16552786Y-14342786D01*
X16538500Y-14299929D01*
X16524214Y-14228500D01*
X16524214Y-14171357D01*
X16538500Y-14099929D01*
X16552786Y-14057071D01*
X16567071Y-14028500D01*
X16595643Y-13985643D01*
X16609928Y-13971357D01*
X16781357Y-14014214D02*
X16809928Y-14014214D01*
X16838500Y-14028500D01*
X16852786Y-14042786D01*
X16867071Y-14071357D01*
X16881357Y-14128500D01*
X16881357Y-14199929D01*
X16867071Y-14257071D01*
X16852786Y-14285643D01*
X16838500Y-14299929D01*
X16809928Y-14314214D01*
X16781357Y-14314214D01*
X16752786Y-14299929D01*
X16738500Y-14285643D01*
X16724214Y-14257071D01*
X16709928Y-14199929D01*
X16709928Y-14128500D01*
X16724214Y-14071357D01*
X16738500Y-14042786D01*
X16752786Y-14028500D01*
X16781357Y-14014214D01*
X17238500Y-14314214D02*
X17238500Y-14014214D01*
X17367071Y-14314214D02*
X17367071Y-14157071D01*
X17352786Y-14128500D01*
X17324214Y-14114214D01*
X17281357Y-14114214D01*
X17252786Y-14128500D01*
X17238500Y-14142786D01*
X17552786Y-14314214D02*
X17524214Y-14299929D01*
X17509928Y-14285643D01*
X17495643Y-14257071D01*
X17495643Y-14171357D01*
X17509928Y-14142786D01*
X17524214Y-14128500D01*
X17552786Y-14114214D01*
X17595643Y-14114214D01*
X17624214Y-14128500D01*
X17638500Y-14142786D01*
X17652786Y-14171357D01*
X17652786Y-14257071D01*
X17638500Y-14285643D01*
X17624214Y-14299929D01*
X17595643Y-14314214D01*
X17552786Y-14314214D01*
X17824214Y-14314214D02*
X17795643Y-14299929D01*
X17781357Y-14271357D01*
X17781357Y-14014214D01*
X18052786Y-14299929D02*
X18024214Y-14314214D01*
X17967071Y-14314214D01*
X17938500Y-14299929D01*
X17924214Y-14271357D01*
X17924214Y-14157071D01*
X17938500Y-14128500D01*
X17967071Y-14114214D01*
X18024214Y-14114214D01*
X18052786Y-14128500D01*
X18067071Y-14157071D01*
X18067071Y-14185643D01*
X17924214Y-14214214D01*
X18181357Y-14299929D02*
X18209928Y-14314214D01*
X18267071Y-14314214D01*
X18295643Y-14299929D01*
X18309928Y-14271357D01*
X18309928Y-14257071D01*
X18295643Y-14228500D01*
X18267071Y-14214214D01*
X18224214Y-14214214D01*
X18195643Y-14199929D01*
X18181357Y-14171357D01*
X18181357Y-14157071D01*
X18195643Y-14128500D01*
X18224214Y-14114214D01*
X18267071Y-14114214D01*
X18295643Y-14128500D01*
X18667071Y-14199929D02*
X18895643Y-14199929D01*
X18781357Y-14314214D02*
X18781357Y-14085643D01*
X19252786Y-14042786D02*
X19267071Y-14028500D01*
X19295643Y-14014214D01*
X19367071Y-14014214D01*
X19395643Y-14028500D01*
X19409928Y-14042786D01*
X19424214Y-14071357D01*
X19424214Y-14099929D01*
X19409928Y-14142786D01*
X19238500Y-14314214D01*
X19424214Y-14314214D01*
X19767071Y-14299929D02*
X19795643Y-14314214D01*
X19852786Y-14314214D01*
X19881357Y-14299929D01*
X19895643Y-14271357D01*
X19895643Y-14257071D01*
X19881357Y-14228500D01*
X19852786Y-14214214D01*
X19809928Y-14214214D01*
X19781357Y-14199929D01*
X19767071Y-14171357D01*
X19767071Y-14157071D01*
X19781357Y-14128500D01*
X19809928Y-14114214D01*
X19852786Y-14114214D01*
X19881357Y-14128500D01*
X20067071Y-14314214D02*
X20038500Y-14299929D01*
X20024214Y-14271357D01*
X20024214Y-14014214D01*
X20224214Y-14314214D02*
X20195643Y-14299929D01*
X20181357Y-14285643D01*
X20167071Y-14257071D01*
X20167071Y-14171357D01*
X20181357Y-14142786D01*
X20195643Y-14128500D01*
X20224214Y-14114214D01*
X20267071Y-14114214D01*
X20295643Y-14128500D01*
X20309928Y-14142786D01*
X20324214Y-14171357D01*
X20324214Y-14257071D01*
X20309928Y-14285643D01*
X20295643Y-14299929D01*
X20267071Y-14314214D01*
X20224214Y-14314214D01*
X20409928Y-14114214D02*
X20524214Y-14114214D01*
X20452786Y-14014214D02*
X20452786Y-14271357D01*
X20467071Y-14299929D01*
X20495643Y-14314214D01*
X20524214Y-14314214D01*
X20609928Y-14299929D02*
X20638500Y-14314214D01*
X20695643Y-14314214D01*
X20724214Y-14299929D01*
X20738500Y-14271357D01*
X20738500Y-14257071D01*
X20724214Y-14228500D01*
X20695643Y-14214214D01*
X20652786Y-14214214D01*
X20624214Y-14199929D01*
X20609928Y-14171357D01*
X20609928Y-14157071D01*
X20624214Y-14128500D01*
X20652786Y-14114214D01*
X20695643Y-14114214D01*
X20724214Y-14128500D01*
X20838500Y-14428500D02*
X20852786Y-14414214D01*
X20881357Y-14371357D01*
X20895643Y-14342786D01*
X20909928Y-14299929D01*
X20924214Y-14228500D01*
X20924214Y-14171357D01*
X20909928Y-14099929D01*
X20895643Y-14057071D01*
X20881357Y-14028500D01*
X20852786Y-13985643D01*
X20838500Y-13971357D01*
X11888500Y-14539500D02*
X11888500Y-14609500D01*
X11853500Y-14574500D02*
X11923500Y-14574500D01*
X12267071Y-14410214D02*
X12295643Y-14410214D01*
X12324214Y-14424500D01*
X12338500Y-14438786D01*
X12352786Y-14467357D01*
X12367071Y-14524500D01*
X12367071Y-14595929D01*
X12352786Y-14653071D01*
X12338500Y-14681643D01*
X12324214Y-14695929D01*
X12295643Y-14710214D01*
X12267071Y-14710214D01*
X12238500Y-14695929D01*
X12224214Y-14681643D01*
X12209928Y-14653071D01*
X12195643Y-14595929D01*
X12195643Y-14524500D01*
X12209928Y-14467357D01*
X12224214Y-14438786D01*
X12238500Y-14424500D01*
X12267071Y-14410214D01*
X12495643Y-14681643D02*
X12509928Y-14695929D01*
X12495643Y-14710214D01*
X12481357Y-14695929D01*
X12495643Y-14681643D01*
X12495643Y-14710214D01*
X12609928Y-14410214D02*
X12809928Y-14410214D01*
X12681357Y-14710214D01*
X12981357Y-14410214D02*
X13009928Y-14410214D01*
X13038500Y-14424500D01*
X13052786Y-14438786D01*
X13067071Y-14467357D01*
X13081357Y-14524500D01*
X13081357Y-14595929D01*
X13067071Y-14653071D01*
X13052786Y-14681643D01*
X13038500Y-14695929D01*
X13009928Y-14710214D01*
X12981357Y-14710214D01*
X12952786Y-14695929D01*
X12938500Y-14681643D01*
X12924214Y-14653071D01*
X12909928Y-14595929D01*
X12909928Y-14524500D01*
X12924214Y-14467357D01*
X12938500Y-14438786D01*
X12952786Y-14424500D01*
X12981357Y-14410214D01*
X13209928Y-14710214D02*
X13209928Y-14510214D01*
X13209928Y-14538786D02*
X13224214Y-14524500D01*
X13252786Y-14510214D01*
X13295643Y-14510214D01*
X13324214Y-14524500D01*
X13338500Y-14553071D01*
X13338500Y-14710214D01*
X13338500Y-14553071D02*
X13352786Y-14524500D01*
X13381357Y-14510214D01*
X13424214Y-14510214D01*
X13452786Y-14524500D01*
X13467071Y-14553071D01*
X13467071Y-14710214D01*
X13609928Y-14710214D02*
X13609928Y-14510214D01*
X13609928Y-14538786D02*
X13624214Y-14524500D01*
X13652786Y-14510214D01*
X13695643Y-14510214D01*
X13724214Y-14524500D01*
X13738500Y-14553071D01*
X13738500Y-14710214D01*
X13738500Y-14553071D02*
X13752786Y-14524500D01*
X13781357Y-14510214D01*
X13824214Y-14510214D01*
X13852786Y-14524500D01*
X13867071Y-14553071D01*
X13867071Y-14710214D01*
X14452786Y-14395929D02*
X14195643Y-14781643D01*
X14838500Y-14410214D02*
X14867071Y-14410214D01*
X14895643Y-14424500D01*
X14909928Y-14438786D01*
X14924214Y-14467357D01*
X14938500Y-14524500D01*
X14938500Y-14595929D01*
X14924214Y-14653071D01*
X14909928Y-14681643D01*
X14895643Y-14695929D01*
X14867071Y-14710214D01*
X14838500Y-14710214D01*
X14809928Y-14695929D01*
X14795643Y-14681643D01*
X14781357Y-14653071D01*
X14767071Y-14595929D01*
X14767071Y-14524500D01*
X14781357Y-14467357D01*
X14795643Y-14438786D01*
X14809928Y-14424500D01*
X14838500Y-14410214D01*
X15067071Y-14681643D02*
X15081357Y-14695929D01*
X15067071Y-14710214D01*
X15052786Y-14695929D01*
X15067071Y-14681643D01*
X15067071Y-14710214D01*
X15267071Y-14410214D02*
X15295643Y-14410214D01*
X15324214Y-14424500D01*
X15338500Y-14438786D01*
X15352786Y-14467357D01*
X15367071Y-14524500D01*
X15367071Y-14595929D01*
X15352786Y-14653071D01*
X15338500Y-14681643D01*
X15324214Y-14695929D01*
X15295643Y-14710214D01*
X15267071Y-14710214D01*
X15238500Y-14695929D01*
X15224214Y-14681643D01*
X15209928Y-14653071D01*
X15195643Y-14595929D01*
X15195643Y-14524500D01*
X15209928Y-14467357D01*
X15224214Y-14438786D01*
X15238500Y-14424500D01*
X15267071Y-14410214D01*
X15481357Y-14438786D02*
X15495643Y-14424500D01*
X15524214Y-14410214D01*
X15595643Y-14410214D01*
X15624214Y-14424500D01*
X15638500Y-14438786D01*
X15652786Y-14467357D01*
X15652786Y-14495929D01*
X15638500Y-14538786D01*
X15467071Y-14710214D01*
X15652786Y-14710214D01*
X15824214Y-14538786D02*
X15795643Y-14524500D01*
X15781357Y-14510214D01*
X15767071Y-14481643D01*
X15767071Y-14467357D01*
X15781357Y-14438786D01*
X15795643Y-14424500D01*
X15824214Y-14410214D01*
X15881357Y-14410214D01*
X15909928Y-14424500D01*
X15924214Y-14438786D01*
X15938500Y-14467357D01*
X15938500Y-14481643D01*
X15924214Y-14510214D01*
X15909928Y-14524500D01*
X15881357Y-14538786D01*
X15824214Y-14538786D01*
X15795643Y-14553071D01*
X15781357Y-14567357D01*
X15767071Y-14595929D01*
X15767071Y-14653071D01*
X15781357Y-14681643D01*
X15795643Y-14695929D01*
X15824214Y-14710214D01*
X15881357Y-14710214D01*
X15909928Y-14695929D01*
X15924214Y-14681643D01*
X15938500Y-14653071D01*
X15938500Y-14595929D01*
X15924214Y-14567357D01*
X15909928Y-14553071D01*
X15881357Y-14538786D01*
X16052786Y-14410214D02*
X16052786Y-14467357D01*
X16167071Y-14410214D02*
X16167071Y-14467357D01*
X16609928Y-14824500D02*
X16595643Y-14810214D01*
X16567071Y-14767357D01*
X16552786Y-14738786D01*
X16538500Y-14695929D01*
X16524214Y-14624500D01*
X16524214Y-14567357D01*
X16538500Y-14495929D01*
X16552786Y-14453071D01*
X16567071Y-14424500D01*
X16595643Y-14381643D01*
X16609928Y-14367357D01*
X16781357Y-14410214D02*
X16809928Y-14410214D01*
X16838500Y-14424500D01*
X16852786Y-14438786D01*
X16867071Y-14467357D01*
X16881357Y-14524500D01*
X16881357Y-14595929D01*
X16867071Y-14653071D01*
X16852786Y-14681643D01*
X16838500Y-14695929D01*
X16809928Y-14710214D01*
X16781357Y-14710214D01*
X16752786Y-14695929D01*
X16738500Y-14681643D01*
X16724214Y-14653071D01*
X16709928Y-14595929D01*
X16709928Y-14524500D01*
X16724214Y-14467357D01*
X16738500Y-14438786D01*
X16752786Y-14424500D01*
X16781357Y-14410214D01*
X17238500Y-14710214D02*
X17238500Y-14410214D01*
X17367071Y-14710214D02*
X17367071Y-14553071D01*
X17352786Y-14524500D01*
X17324214Y-14510214D01*
X17281357Y-14510214D01*
X17252786Y-14524500D01*
X17238500Y-14538786D01*
X17552786Y-14710214D02*
X17524214Y-14695929D01*
X17509928Y-14681643D01*
X17495643Y-14653071D01*
X17495643Y-14567357D01*
X17509928Y-14538786D01*
X17524214Y-14524500D01*
X17552786Y-14510214D01*
X17595643Y-14510214D01*
X17624214Y-14524500D01*
X17638500Y-14538786D01*
X17652786Y-14567357D01*
X17652786Y-14653071D01*
X17638500Y-14681643D01*
X17624214Y-14695929D01*
X17595643Y-14710214D01*
X17552786Y-14710214D01*
X17824214Y-14710214D02*
X17795643Y-14695929D01*
X17781357Y-14667357D01*
X17781357Y-14410214D01*
X18052786Y-14695929D02*
X18024214Y-14710214D01*
X17967071Y-14710214D01*
X17938500Y-14695929D01*
X17924214Y-14667357D01*
X17924214Y-14553071D01*
X17938500Y-14524500D01*
X17967071Y-14510214D01*
X18024214Y-14510214D01*
X18052786Y-14524500D01*
X18067071Y-14553071D01*
X18067071Y-14581643D01*
X17924214Y-14610214D01*
X18181357Y-14695929D02*
X18209928Y-14710214D01*
X18267071Y-14710214D01*
X18295643Y-14695929D01*
X18309928Y-14667357D01*
X18309928Y-14653071D01*
X18295643Y-14624500D01*
X18267071Y-14610214D01*
X18224214Y-14610214D01*
X18195643Y-14595929D01*
X18181357Y-14567357D01*
X18181357Y-14553071D01*
X18195643Y-14524500D01*
X18224214Y-14510214D01*
X18267071Y-14510214D01*
X18295643Y-14524500D01*
X18667071Y-14595929D02*
X18895643Y-14595929D01*
X18781357Y-14710214D02*
X18781357Y-14481643D01*
X19252786Y-14438786D02*
X19267071Y-14424500D01*
X19295643Y-14410214D01*
X19367071Y-14410214D01*
X19395643Y-14424500D01*
X19409928Y-14438786D01*
X19424214Y-14467357D01*
X19424214Y-14495929D01*
X19409928Y-14538786D01*
X19238500Y-14710214D01*
X19424214Y-14710214D01*
X19767071Y-14695929D02*
X19795643Y-14710214D01*
X19852786Y-14710214D01*
X19881357Y-14695929D01*
X19895643Y-14667357D01*
X19895643Y-14653071D01*
X19881357Y-14624500D01*
X19852786Y-14610214D01*
X19809928Y-14610214D01*
X19781357Y-14595929D01*
X19767071Y-14567357D01*
X19767071Y-14553071D01*
X19781357Y-14524500D01*
X19809928Y-14510214D01*
X19852786Y-14510214D01*
X19881357Y-14524500D01*
X20067071Y-14710214D02*
X20038500Y-14695929D01*
X20024214Y-14667357D01*
X20024214Y-14410214D01*
X20224214Y-14710214D02*
X20195643Y-14695929D01*
X20181357Y-14681643D01*
X20167071Y-14653071D01*
X20167071Y-14567357D01*
X20181357Y-14538786D01*
X20195643Y-14524500D01*
X20224214Y-14510214D01*
X20267071Y-14510214D01*
X20295643Y-14524500D01*
X20309928Y-14538786D01*
X20324214Y-14567357D01*
X20324214Y-14653071D01*
X20309928Y-14681643D01*
X20295643Y-14695929D01*
X20267071Y-14710214D01*
X20224214Y-14710214D01*
X20409928Y-14510214D02*
X20524214Y-14510214D01*
X20452786Y-14410214D02*
X20452786Y-14667357D01*
X20467071Y-14695929D01*
X20495643Y-14710214D01*
X20524214Y-14710214D01*
X20609928Y-14695929D02*
X20638500Y-14710214D01*
X20695643Y-14710214D01*
X20724214Y-14695929D01*
X20738500Y-14667357D01*
X20738500Y-14653071D01*
X20724214Y-14624500D01*
X20695643Y-14610214D01*
X20652786Y-14610214D01*
X20624214Y-14595929D01*
X20609928Y-14567357D01*
X20609928Y-14553071D01*
X20624214Y-14524500D01*
X20652786Y-14510214D01*
X20695643Y-14510214D01*
X20724214Y-14524500D01*
X20838500Y-14824500D02*
X20852786Y-14810214D01*
X20881357Y-14767357D01*
X20895643Y-14738786D01*
X20909928Y-14695929D01*
X20924214Y-14624500D01*
X20924214Y-14567357D01*
X20909928Y-14495929D01*
X20895643Y-14453071D01*
X20881357Y-14424500D01*
X20852786Y-14381643D01*
X20838500Y-14367357D01*
X11909588Y-15004088D02*
X11909588Y-14936912D01*
X11842412Y-14936912D01*
X11842412Y-15004088D01*
X11909588Y-15004088D01*
X12267071Y-14806214D02*
X12295643Y-14806214D01*
X12324214Y-14820500D01*
X12338500Y-14834786D01*
X12352786Y-14863357D01*
X12367071Y-14920500D01*
X12367071Y-14991929D01*
X12352786Y-15049071D01*
X12338500Y-15077643D01*
X12324214Y-15091929D01*
X12295643Y-15106214D01*
X12267071Y-15106214D01*
X12238500Y-15091929D01*
X12224214Y-15077643D01*
X12209928Y-15049071D01*
X12195643Y-14991929D01*
X12195643Y-14920500D01*
X12209928Y-14863357D01*
X12224214Y-14834786D01*
X12238500Y-14820500D01*
X12267071Y-14806214D01*
X12495643Y-15077643D02*
X12509928Y-15091929D01*
X12495643Y-15106214D01*
X12481357Y-15091929D01*
X12495643Y-15077643D01*
X12495643Y-15106214D01*
X12652786Y-15106214D02*
X12709928Y-15106214D01*
X12738500Y-15091929D01*
X12752786Y-15077643D01*
X12781357Y-15034786D01*
X12795643Y-14977643D01*
X12795643Y-14863357D01*
X12781357Y-14834786D01*
X12767071Y-14820500D01*
X12738500Y-14806214D01*
X12681357Y-14806214D01*
X12652786Y-14820500D01*
X12638500Y-14834786D01*
X12624214Y-14863357D01*
X12624214Y-14934786D01*
X12638500Y-14963357D01*
X12652786Y-14977643D01*
X12681357Y-14991929D01*
X12738500Y-14991929D01*
X12767071Y-14977643D01*
X12781357Y-14963357D01*
X12795643Y-14934786D01*
X13067071Y-14806214D02*
X12924214Y-14806214D01*
X12909928Y-14949071D01*
X12924214Y-14934786D01*
X12952786Y-14920500D01*
X13024214Y-14920500D01*
X13052786Y-14934786D01*
X13067071Y-14949071D01*
X13081357Y-14977643D01*
X13081357Y-15049071D01*
X13067071Y-15077643D01*
X13052786Y-15091929D01*
X13024214Y-15106214D01*
X12952786Y-15106214D01*
X12924214Y-15091929D01*
X12909928Y-15077643D01*
X13209928Y-15106214D02*
X13209928Y-14906214D01*
X13209928Y-14934786D02*
X13224214Y-14920500D01*
X13252786Y-14906214D01*
X13295643Y-14906214D01*
X13324214Y-14920500D01*
X13338500Y-14949071D01*
X13338500Y-15106214D01*
X13338500Y-14949071D02*
X13352786Y-14920500D01*
X13381357Y-14906214D01*
X13424214Y-14906214D01*
X13452786Y-14920500D01*
X13467071Y-14949071D01*
X13467071Y-15106214D01*
X13609928Y-15106214D02*
X13609928Y-14906214D01*
X13609928Y-14934786D02*
X13624214Y-14920500D01*
X13652786Y-14906214D01*
X13695643Y-14906214D01*
X13724214Y-14920500D01*
X13738500Y-14949071D01*
X13738500Y-15106214D01*
X13738500Y-14949071D02*
X13752786Y-14920500D01*
X13781357Y-14906214D01*
X13824214Y-14906214D01*
X13852786Y-14920500D01*
X13867071Y-14949071D01*
X13867071Y-15106214D01*
X14452786Y-14791929D02*
X14195643Y-15177643D01*
X14838500Y-14806214D02*
X14867071Y-14806214D01*
X14895643Y-14820500D01*
X14909928Y-14834786D01*
X14924214Y-14863357D01*
X14938500Y-14920500D01*
X14938500Y-14991929D01*
X14924214Y-15049071D01*
X14909928Y-15077643D01*
X14895643Y-15091929D01*
X14867071Y-15106214D01*
X14838500Y-15106214D01*
X14809928Y-15091929D01*
X14795643Y-15077643D01*
X14781357Y-15049071D01*
X14767071Y-14991929D01*
X14767071Y-14920500D01*
X14781357Y-14863357D01*
X14795643Y-14834786D01*
X14809928Y-14820500D01*
X14838500Y-14806214D01*
X15067071Y-15077643D02*
X15081357Y-15091929D01*
X15067071Y-15106214D01*
X15052786Y-15091929D01*
X15067071Y-15077643D01*
X15067071Y-15106214D01*
X15267071Y-14806214D02*
X15295643Y-14806214D01*
X15324214Y-14820500D01*
X15338500Y-14834786D01*
X15352786Y-14863357D01*
X15367071Y-14920500D01*
X15367071Y-14991929D01*
X15352786Y-15049071D01*
X15338500Y-15077643D01*
X15324214Y-15091929D01*
X15295643Y-15106214D01*
X15267071Y-15106214D01*
X15238500Y-15091929D01*
X15224214Y-15077643D01*
X15209928Y-15049071D01*
X15195643Y-14991929D01*
X15195643Y-14920500D01*
X15209928Y-14863357D01*
X15224214Y-14834786D01*
X15238500Y-14820500D01*
X15267071Y-14806214D01*
X15467071Y-14806214D02*
X15652786Y-14806214D01*
X15552786Y-14920500D01*
X15595643Y-14920500D01*
X15624214Y-14934786D01*
X15638500Y-14949071D01*
X15652786Y-14977643D01*
X15652786Y-15049071D01*
X15638500Y-15077643D01*
X15624214Y-15091929D01*
X15595643Y-15106214D01*
X15509928Y-15106214D01*
X15481357Y-15091929D01*
X15467071Y-15077643D01*
X15752786Y-14806214D02*
X15952786Y-14806214D01*
X15824214Y-15106214D01*
X16052786Y-14806214D02*
X16052786Y-14863357D01*
X16167071Y-14806214D02*
X16167071Y-14863357D01*
X16609928Y-15220500D02*
X16595643Y-15206214D01*
X16567071Y-15163357D01*
X16552786Y-15134786D01*
X16538500Y-15091929D01*
X16524214Y-15020500D01*
X16524214Y-14963357D01*
X16538500Y-14891929D01*
X16552786Y-14849071D01*
X16567071Y-14820500D01*
X16595643Y-14777643D01*
X16609928Y-14763357D01*
X16852786Y-14806214D02*
X16795643Y-14806214D01*
X16767071Y-14820500D01*
X16752786Y-14834786D01*
X16724214Y-14877643D01*
X16709928Y-14934786D01*
X16709928Y-15049071D01*
X16724214Y-15077643D01*
X16738500Y-15091929D01*
X16767071Y-15106214D01*
X16824214Y-15106214D01*
X16852786Y-15091929D01*
X16867071Y-15077643D01*
X16881357Y-15049071D01*
X16881357Y-14977643D01*
X16867071Y-14949071D01*
X16852786Y-14934786D01*
X16824214Y-14920500D01*
X16767071Y-14920500D01*
X16738500Y-14934786D01*
X16724214Y-14949071D01*
X16709928Y-14977643D01*
X17238500Y-15106214D02*
X17238500Y-14806214D01*
X17367071Y-15106214D02*
X17367071Y-14949071D01*
X17352786Y-14920500D01*
X17324214Y-14906214D01*
X17281357Y-14906214D01*
X17252786Y-14920500D01*
X17238500Y-14934786D01*
X17552786Y-15106214D02*
X17524214Y-15091929D01*
X17509928Y-15077643D01*
X17495643Y-15049071D01*
X17495643Y-14963357D01*
X17509928Y-14934786D01*
X17524214Y-14920500D01*
X17552786Y-14906214D01*
X17595643Y-14906214D01*
X17624214Y-14920500D01*
X17638500Y-14934786D01*
X17652786Y-14963357D01*
X17652786Y-15049071D01*
X17638500Y-15077643D01*
X17624214Y-15091929D01*
X17595643Y-15106214D01*
X17552786Y-15106214D01*
X17824214Y-15106214D02*
X17795643Y-15091929D01*
X17781357Y-15063357D01*
X17781357Y-14806214D01*
X18052786Y-15091929D02*
X18024214Y-15106214D01*
X17967071Y-15106214D01*
X17938500Y-15091929D01*
X17924214Y-15063357D01*
X17924214Y-14949071D01*
X17938500Y-14920500D01*
X17967071Y-14906214D01*
X18024214Y-14906214D01*
X18052786Y-14920500D01*
X18067071Y-14949071D01*
X18067071Y-14977643D01*
X17924214Y-15006214D01*
X18181357Y-15091929D02*
X18209928Y-15106214D01*
X18267071Y-15106214D01*
X18295643Y-15091929D01*
X18309928Y-15063357D01*
X18309928Y-15049071D01*
X18295643Y-15020500D01*
X18267071Y-15006214D01*
X18224214Y-15006214D01*
X18195643Y-14991929D01*
X18181357Y-14963357D01*
X18181357Y-14949071D01*
X18195643Y-14920500D01*
X18224214Y-14906214D01*
X18267071Y-14906214D01*
X18295643Y-14920500D01*
X18409928Y-15220500D02*
X18424214Y-15206214D01*
X18452786Y-15163357D01*
X18467071Y-15134786D01*
X18481357Y-15091929D01*
X18495643Y-15020500D01*
X18495643Y-14963357D01*
X18481357Y-14891929D01*
X18467071Y-14849071D01*
X18452786Y-14820500D01*
X18424214Y-14777643D01*
X18409928Y-14763357D01*
M02*
