G04 #@! TF.GenerationSoftware,KiCad,Pcbnew,(5.0.1-3-g963ef8bb5)*
G04 #@! TF.CreationDate,2019-04-14T13:03:44+01:00*
G04 #@! TF.ProjectId,invitation,696E7669746174696F6E2E6B69636164,rev?*
G04 #@! TF.SameCoordinates,Original*
G04 #@! TF.FileFunction,Soldermask,Top*
G04 #@! TF.FilePolarity,Negative*
%FSLAX46Y46*%
G04 Gerber Fmt 4.6, Leading zero omitted, Abs format (unit mm)*
G04 Created by KiCad (PCBNEW (5.0.1-3-g963ef8bb5)) date Sunday, 14 April 2019 at 13:03:44*
%MOMM*%
%LPD*%
G01*
G04 APERTURE LIST*
%ADD10C,0.010000*%
%ADD11C,0.100000*%
G04 APERTURE END LIST*
D10*
G04 #@! TO.C,G\002A\002A\002A*
G36*
X162905010Y-113175816D02*
X163598117Y-113284234D01*
X163974023Y-113392401D01*
X164866508Y-113791470D01*
X165656966Y-114316389D01*
X166334172Y-114955851D01*
X166886901Y-115698552D01*
X167303925Y-116533183D01*
X167422374Y-116865505D01*
X167568786Y-117488148D01*
X167647025Y-118188269D01*
X167653991Y-118896989D01*
X167586583Y-119545430D01*
X167550906Y-119720000D01*
X167268418Y-120570574D01*
X166841858Y-121364402D01*
X166290466Y-122082096D01*
X165633478Y-122704271D01*
X164890135Y-123211540D01*
X164079673Y-123584517D01*
X163564666Y-123736842D01*
X163049079Y-123818740D01*
X162445109Y-123854036D01*
X161823536Y-123842816D01*
X161255143Y-123785166D01*
X160990895Y-123733712D01*
X160169057Y-123451008D01*
X159390004Y-123020770D01*
X158679430Y-122463932D01*
X158063032Y-121801429D01*
X157566506Y-121054195D01*
X157467256Y-120863000D01*
X157162961Y-120099162D01*
X156991393Y-119298651D01*
X156942412Y-118450000D01*
X157028648Y-117513130D01*
X157154958Y-117048489D01*
X159162000Y-117048489D01*
X159172415Y-117186697D01*
X159211908Y-117336042D01*
X159292846Y-117519532D01*
X159427597Y-117760176D01*
X159628529Y-118080979D01*
X159908010Y-118504952D01*
X160093333Y-118781018D01*
X160379025Y-119206654D01*
X160629258Y-119582546D01*
X160829679Y-119886875D01*
X160965933Y-120097824D01*
X161023665Y-120193575D01*
X161024666Y-120196609D01*
X161073048Y-120299647D01*
X161197500Y-120491751D01*
X161366985Y-120730831D01*
X161550463Y-120974799D01*
X161716897Y-121181566D01*
X161835247Y-121309044D01*
X161857554Y-121326019D01*
X162140934Y-121405489D01*
X162448611Y-121365899D01*
X162603742Y-121289063D01*
X162708279Y-121179058D01*
X162885357Y-120953195D01*
X163115595Y-120637830D01*
X163379614Y-120259317D01*
X163584341Y-119955563D01*
X164062416Y-119234937D01*
X164453411Y-118640919D01*
X164764085Y-118159163D01*
X165001196Y-117775322D01*
X165171503Y-117475051D01*
X165281764Y-117244004D01*
X165338738Y-117067833D01*
X165349184Y-116932193D01*
X165319859Y-116822738D01*
X165257523Y-116725121D01*
X165168933Y-116624996D01*
X165158574Y-116613956D01*
X164948926Y-116482013D01*
X164674180Y-116416225D01*
X164411405Y-116428147D01*
X164283864Y-116482796D01*
X164216408Y-116566933D01*
X164073860Y-116766805D01*
X163873723Y-117056373D01*
X163633499Y-117409599D01*
X163370693Y-117800443D01*
X163102807Y-118202868D01*
X162847344Y-118590833D01*
X162621809Y-118938302D01*
X162443704Y-119219235D01*
X162435057Y-119233166D01*
X162318573Y-119393201D01*
X162232547Y-119464281D01*
X162229214Y-119464507D01*
X162166237Y-119396296D01*
X162027256Y-119207179D01*
X161827383Y-118918982D01*
X161581728Y-118553533D01*
X161305400Y-118132656D01*
X161278666Y-118091453D01*
X160992680Y-117654154D01*
X160729046Y-117258340D01*
X160504852Y-116929093D01*
X160337186Y-116691498D01*
X160243134Y-116570637D01*
X160241500Y-116568945D01*
X160027670Y-116454283D01*
X159743184Y-116421632D01*
X159466035Y-116471906D01*
X159316833Y-116558122D01*
X159191639Y-116783651D01*
X159162000Y-117048489D01*
X157154958Y-117048489D01*
X157269260Y-116628025D01*
X157653484Y-115809012D01*
X158170551Y-115070417D01*
X158809696Y-114426568D01*
X159560153Y-113891791D01*
X160411155Y-113480412D01*
X160770666Y-113355678D01*
X161430546Y-113210842D01*
X162162240Y-113151120D01*
X162905010Y-113175816D01*
X162905010Y-113175816D01*
G37*
X162905010Y-113175816D02*
X163598117Y-113284234D01*
X163974023Y-113392401D01*
X164866508Y-113791470D01*
X165656966Y-114316389D01*
X166334172Y-114955851D01*
X166886901Y-115698552D01*
X167303925Y-116533183D01*
X167422374Y-116865505D01*
X167568786Y-117488148D01*
X167647025Y-118188269D01*
X167653991Y-118896989D01*
X167586583Y-119545430D01*
X167550906Y-119720000D01*
X167268418Y-120570574D01*
X166841858Y-121364402D01*
X166290466Y-122082096D01*
X165633478Y-122704271D01*
X164890135Y-123211540D01*
X164079673Y-123584517D01*
X163564666Y-123736842D01*
X163049079Y-123818740D01*
X162445109Y-123854036D01*
X161823536Y-123842816D01*
X161255143Y-123785166D01*
X160990895Y-123733712D01*
X160169057Y-123451008D01*
X159390004Y-123020770D01*
X158679430Y-122463932D01*
X158063032Y-121801429D01*
X157566506Y-121054195D01*
X157467256Y-120863000D01*
X157162961Y-120099162D01*
X156991393Y-119298651D01*
X156942412Y-118450000D01*
X157028648Y-117513130D01*
X157154958Y-117048489D01*
X159162000Y-117048489D01*
X159172415Y-117186697D01*
X159211908Y-117336042D01*
X159292846Y-117519532D01*
X159427597Y-117760176D01*
X159628529Y-118080979D01*
X159908010Y-118504952D01*
X160093333Y-118781018D01*
X160379025Y-119206654D01*
X160629258Y-119582546D01*
X160829679Y-119886875D01*
X160965933Y-120097824D01*
X161023665Y-120193575D01*
X161024666Y-120196609D01*
X161073048Y-120299647D01*
X161197500Y-120491751D01*
X161366985Y-120730831D01*
X161550463Y-120974799D01*
X161716897Y-121181566D01*
X161835247Y-121309044D01*
X161857554Y-121326019D01*
X162140934Y-121405489D01*
X162448611Y-121365899D01*
X162603742Y-121289063D01*
X162708279Y-121179058D01*
X162885357Y-120953195D01*
X163115595Y-120637830D01*
X163379614Y-120259317D01*
X163584341Y-119955563D01*
X164062416Y-119234937D01*
X164453411Y-118640919D01*
X164764085Y-118159163D01*
X165001196Y-117775322D01*
X165171503Y-117475051D01*
X165281764Y-117244004D01*
X165338738Y-117067833D01*
X165349184Y-116932193D01*
X165319859Y-116822738D01*
X165257523Y-116725121D01*
X165168933Y-116624996D01*
X165158574Y-116613956D01*
X164948926Y-116482013D01*
X164674180Y-116416225D01*
X164411405Y-116428147D01*
X164283864Y-116482796D01*
X164216408Y-116566933D01*
X164073860Y-116766805D01*
X163873723Y-117056373D01*
X163633499Y-117409599D01*
X163370693Y-117800443D01*
X163102807Y-118202868D01*
X162847344Y-118590833D01*
X162621809Y-118938302D01*
X162443704Y-119219235D01*
X162435057Y-119233166D01*
X162318573Y-119393201D01*
X162232547Y-119464281D01*
X162229214Y-119464507D01*
X162166237Y-119396296D01*
X162027256Y-119207179D01*
X161827383Y-118918982D01*
X161581728Y-118553533D01*
X161305400Y-118132656D01*
X161278666Y-118091453D01*
X160992680Y-117654154D01*
X160729046Y-117258340D01*
X160504852Y-116929093D01*
X160337186Y-116691498D01*
X160243134Y-116570637D01*
X160241500Y-116568945D01*
X160027670Y-116454283D01*
X159743184Y-116421632D01*
X159466035Y-116471906D01*
X159316833Y-116558122D01*
X159191639Y-116783651D01*
X159162000Y-117048489D01*
X157154958Y-117048489D01*
X157269260Y-116628025D01*
X157653484Y-115809012D01*
X158170551Y-115070417D01*
X158809696Y-114426568D01*
X159560153Y-113891791D01*
X160411155Y-113480412D01*
X160770666Y-113355678D01*
X161430546Y-113210842D01*
X162162240Y-113151120D01*
X162905010Y-113175816D01*
G36*
X185465430Y-94528083D02*
X185640000Y-94563759D01*
X186490574Y-94846248D01*
X187284402Y-95272807D01*
X188002096Y-95824200D01*
X188624271Y-96481187D01*
X189131540Y-97224531D01*
X189504517Y-98034993D01*
X189656842Y-98550000D01*
X189749012Y-99135878D01*
X189780937Y-99800906D01*
X189752598Y-100467350D01*
X189663974Y-101057475D01*
X189657504Y-101085522D01*
X189372416Y-101940486D01*
X188947311Y-102723025D01*
X188400216Y-103420660D01*
X187749156Y-104020916D01*
X187012157Y-104511315D01*
X186207244Y-104879380D01*
X185352443Y-105112635D01*
X184465779Y-105198602D01*
X183775451Y-105156941D01*
X182849520Y-104953480D01*
X181989725Y-104601006D01*
X181210505Y-104111756D01*
X180526302Y-103497966D01*
X179951557Y-102771874D01*
X179500712Y-101945717D01*
X179275678Y-101344000D01*
X179130842Y-100684120D01*
X179071120Y-99952425D01*
X179095816Y-99209655D01*
X179204234Y-98516549D01*
X179312401Y-98140643D01*
X179625471Y-97440486D01*
X182336225Y-97440486D01*
X182348147Y-97703261D01*
X182402796Y-97830802D01*
X182486933Y-97898257D01*
X182686805Y-98040805D01*
X182976373Y-98240943D01*
X183329599Y-98481167D01*
X183720443Y-98743973D01*
X184122868Y-99011859D01*
X184510833Y-99267321D01*
X184858302Y-99492857D01*
X185139235Y-99670962D01*
X185153166Y-99679609D01*
X185313201Y-99796093D01*
X185384281Y-99882118D01*
X185384507Y-99885451D01*
X185316296Y-99948429D01*
X185127179Y-100087409D01*
X184838982Y-100287282D01*
X184473533Y-100532938D01*
X184052656Y-100809266D01*
X184011453Y-100836000D01*
X183574154Y-101121986D01*
X183178340Y-101385620D01*
X182849093Y-101609813D01*
X182611498Y-101777480D01*
X182490637Y-101871532D01*
X182488945Y-101873166D01*
X182374283Y-102086996D01*
X182341632Y-102371481D01*
X182391906Y-102648631D01*
X182478122Y-102797833D01*
X182703651Y-102923026D01*
X182968489Y-102952666D01*
X183106697Y-102942250D01*
X183256042Y-102902758D01*
X183439532Y-102821820D01*
X183680176Y-102687069D01*
X184000979Y-102486137D01*
X184424952Y-102206655D01*
X184701018Y-102021333D01*
X185126654Y-101735641D01*
X185502546Y-101485408D01*
X185806875Y-101284987D01*
X186017824Y-101148733D01*
X186113575Y-101091000D01*
X186116609Y-101090000D01*
X186223982Y-101040771D01*
X186418970Y-100914077D01*
X186659558Y-100741405D01*
X186903734Y-100554243D01*
X187109484Y-100384076D01*
X187234795Y-100262393D01*
X187250244Y-100240384D01*
X187329251Y-99929879D01*
X187267487Y-99614365D01*
X187209063Y-99510924D01*
X187099058Y-99406386D01*
X186873195Y-99229309D01*
X186557830Y-98999070D01*
X186179317Y-98735052D01*
X185875563Y-98530325D01*
X185154937Y-98052250D01*
X184560919Y-97661255D01*
X184079163Y-97350581D01*
X183695322Y-97113469D01*
X183395051Y-96943162D01*
X183164004Y-96832901D01*
X182987833Y-96775927D01*
X182852193Y-96765482D01*
X182742738Y-96794807D01*
X182645121Y-96857143D01*
X182544996Y-96945733D01*
X182533956Y-96956091D01*
X182402013Y-97165740D01*
X182336225Y-97440486D01*
X179625471Y-97440486D01*
X179711470Y-97248158D01*
X180236389Y-96457699D01*
X180875851Y-95780493D01*
X181618552Y-95227765D01*
X182453183Y-94810740D01*
X182785505Y-94692291D01*
X183408148Y-94545880D01*
X184108269Y-94467640D01*
X184816989Y-94460674D01*
X185465430Y-94528083D01*
X185465430Y-94528083D01*
G37*
X185465430Y-94528083D02*
X185640000Y-94563759D01*
X186490574Y-94846248D01*
X187284402Y-95272807D01*
X188002096Y-95824200D01*
X188624271Y-96481187D01*
X189131540Y-97224531D01*
X189504517Y-98034993D01*
X189656842Y-98550000D01*
X189749012Y-99135878D01*
X189780937Y-99800906D01*
X189752598Y-100467350D01*
X189663974Y-101057475D01*
X189657504Y-101085522D01*
X189372416Y-101940486D01*
X188947311Y-102723025D01*
X188400216Y-103420660D01*
X187749156Y-104020916D01*
X187012157Y-104511315D01*
X186207244Y-104879380D01*
X185352443Y-105112635D01*
X184465779Y-105198602D01*
X183775451Y-105156941D01*
X182849520Y-104953480D01*
X181989725Y-104601006D01*
X181210505Y-104111756D01*
X180526302Y-103497966D01*
X179951557Y-102771874D01*
X179500712Y-101945717D01*
X179275678Y-101344000D01*
X179130842Y-100684120D01*
X179071120Y-99952425D01*
X179095816Y-99209655D01*
X179204234Y-98516549D01*
X179312401Y-98140643D01*
X179625471Y-97440486D01*
X182336225Y-97440486D01*
X182348147Y-97703261D01*
X182402796Y-97830802D01*
X182486933Y-97898257D01*
X182686805Y-98040805D01*
X182976373Y-98240943D01*
X183329599Y-98481167D01*
X183720443Y-98743973D01*
X184122868Y-99011859D01*
X184510833Y-99267321D01*
X184858302Y-99492857D01*
X185139235Y-99670962D01*
X185153166Y-99679609D01*
X185313201Y-99796093D01*
X185384281Y-99882118D01*
X185384507Y-99885451D01*
X185316296Y-99948429D01*
X185127179Y-100087409D01*
X184838982Y-100287282D01*
X184473533Y-100532938D01*
X184052656Y-100809266D01*
X184011453Y-100836000D01*
X183574154Y-101121986D01*
X183178340Y-101385620D01*
X182849093Y-101609813D01*
X182611498Y-101777480D01*
X182490637Y-101871532D01*
X182488945Y-101873166D01*
X182374283Y-102086996D01*
X182341632Y-102371481D01*
X182391906Y-102648631D01*
X182478122Y-102797833D01*
X182703651Y-102923026D01*
X182968489Y-102952666D01*
X183106697Y-102942250D01*
X183256042Y-102902758D01*
X183439532Y-102821820D01*
X183680176Y-102687069D01*
X184000979Y-102486137D01*
X184424952Y-102206655D01*
X184701018Y-102021333D01*
X185126654Y-101735641D01*
X185502546Y-101485408D01*
X185806875Y-101284987D01*
X186017824Y-101148733D01*
X186113575Y-101091000D01*
X186116609Y-101090000D01*
X186223982Y-101040771D01*
X186418970Y-100914077D01*
X186659558Y-100741405D01*
X186903734Y-100554243D01*
X187109484Y-100384076D01*
X187234795Y-100262393D01*
X187250244Y-100240384D01*
X187329251Y-99929879D01*
X187267487Y-99614365D01*
X187209063Y-99510924D01*
X187099058Y-99406386D01*
X186873195Y-99229309D01*
X186557830Y-98999070D01*
X186179317Y-98735052D01*
X185875563Y-98530325D01*
X185154937Y-98052250D01*
X184560919Y-97661255D01*
X184079163Y-97350581D01*
X183695322Y-97113469D01*
X183395051Y-96943162D01*
X183164004Y-96832901D01*
X182987833Y-96775927D01*
X182852193Y-96765482D01*
X182742738Y-96794807D01*
X182645121Y-96857143D01*
X182544996Y-96945733D01*
X182533956Y-96956091D01*
X182402013Y-97165740D01*
X182336225Y-97440486D01*
X179625471Y-97440486D01*
X179711470Y-97248158D01*
X180236389Y-96457699D01*
X180875851Y-95780493D01*
X181618552Y-95227765D01*
X182453183Y-94810740D01*
X182785505Y-94692291D01*
X183408148Y-94545880D01*
X184108269Y-94467640D01*
X184816989Y-94460674D01*
X185465430Y-94528083D01*
G36*
X141298524Y-94596623D02*
X142158751Y-94849985D01*
X142988777Y-95253521D01*
X143606156Y-95676492D01*
X144254718Y-96290941D01*
X144795698Y-97026365D01*
X145215985Y-97863208D01*
X145378988Y-98320666D01*
X145523824Y-98980546D01*
X145583546Y-99712240D01*
X145558850Y-100455010D01*
X145450431Y-101148117D01*
X145342265Y-101524023D01*
X144944227Y-102424278D01*
X144426619Y-103206619D01*
X143783835Y-103878375D01*
X143199750Y-104325088D01*
X142411837Y-104754090D01*
X141546952Y-105049501D01*
X140642274Y-105202800D01*
X139734985Y-105205470D01*
X139480333Y-105177353D01*
X138617030Y-104988883D01*
X137827459Y-104664771D01*
X137089326Y-104193590D01*
X136429631Y-103613534D01*
X135810799Y-102895863D01*
X135352219Y-102132238D01*
X135048125Y-101308739D01*
X134892751Y-100411446D01*
X134868502Y-99844666D01*
X134876944Y-99735927D01*
X137325387Y-99735927D01*
X137388497Y-100052699D01*
X137446827Y-100155489D01*
X137553218Y-100254502D01*
X137778784Y-100428787D01*
X138100456Y-100661749D01*
X138495163Y-100936790D01*
X138939836Y-101237313D01*
X139076660Y-101328060D01*
X139554503Y-101643731D01*
X140012321Y-101946398D01*
X140421168Y-102216907D01*
X140752095Y-102436104D01*
X140976156Y-102584835D01*
X141004333Y-102603597D01*
X141400732Y-102816528D01*
X141732554Y-102879422D01*
X142011570Y-102793388D01*
X142120709Y-102708574D01*
X142252652Y-102498926D01*
X142318441Y-102224180D01*
X142306519Y-101961405D01*
X142251870Y-101833864D01*
X142167733Y-101766408D01*
X141967861Y-101623860D01*
X141678293Y-101423723D01*
X141325067Y-101183499D01*
X140934223Y-100920693D01*
X140531798Y-100652807D01*
X140143832Y-100397344D01*
X139796364Y-100171809D01*
X139515431Y-99993704D01*
X139501500Y-99985057D01*
X139341465Y-99868573D01*
X139270385Y-99782547D01*
X139270158Y-99779214D01*
X139338370Y-99716237D01*
X139527487Y-99577256D01*
X139815683Y-99377383D01*
X140181133Y-99131728D01*
X140602010Y-98855400D01*
X140643213Y-98828666D01*
X141080511Y-98542680D01*
X141476326Y-98279046D01*
X141805572Y-98054852D01*
X142043168Y-97887186D01*
X142164029Y-97793134D01*
X142165721Y-97791500D01*
X142280383Y-97577670D01*
X142313033Y-97293184D01*
X142262760Y-97016035D01*
X142176544Y-96866833D01*
X141951014Y-96741639D01*
X141686177Y-96712000D01*
X141547969Y-96722415D01*
X141398624Y-96761908D01*
X141215133Y-96842846D01*
X140974490Y-96977597D01*
X140653686Y-97178529D01*
X140229713Y-97458010D01*
X139953648Y-97643333D01*
X139528012Y-97929025D01*
X139152120Y-98179258D01*
X138847790Y-98379679D01*
X138636841Y-98515933D01*
X138541091Y-98573665D01*
X138538057Y-98574666D01*
X138430683Y-98623895D01*
X138235696Y-98750588D01*
X137995107Y-98923260D01*
X137750932Y-99110423D01*
X137545182Y-99280590D01*
X137419870Y-99402273D01*
X137404422Y-99424281D01*
X137325387Y-99735927D01*
X134876944Y-99735927D01*
X134941902Y-98899286D01*
X135163536Y-98029751D01*
X135379902Y-97517177D01*
X135866606Y-96706790D01*
X136459805Y-96015990D01*
X137142413Y-95448600D01*
X137897341Y-95008444D01*
X138707504Y-94699345D01*
X139555813Y-94525126D01*
X140425182Y-94489611D01*
X141298524Y-94596623D01*
X141298524Y-94596623D01*
G37*
X141298524Y-94596623D02*
X142158751Y-94849985D01*
X142988777Y-95253521D01*
X143606156Y-95676492D01*
X144254718Y-96290941D01*
X144795698Y-97026365D01*
X145215985Y-97863208D01*
X145378988Y-98320666D01*
X145523824Y-98980546D01*
X145583546Y-99712240D01*
X145558850Y-100455010D01*
X145450431Y-101148117D01*
X145342265Y-101524023D01*
X144944227Y-102424278D01*
X144426619Y-103206619D01*
X143783835Y-103878375D01*
X143199750Y-104325088D01*
X142411837Y-104754090D01*
X141546952Y-105049501D01*
X140642274Y-105202800D01*
X139734985Y-105205470D01*
X139480333Y-105177353D01*
X138617030Y-104988883D01*
X137827459Y-104664771D01*
X137089326Y-104193590D01*
X136429631Y-103613534D01*
X135810799Y-102895863D01*
X135352219Y-102132238D01*
X135048125Y-101308739D01*
X134892751Y-100411446D01*
X134868502Y-99844666D01*
X134876944Y-99735927D01*
X137325387Y-99735927D01*
X137388497Y-100052699D01*
X137446827Y-100155489D01*
X137553218Y-100254502D01*
X137778784Y-100428787D01*
X138100456Y-100661749D01*
X138495163Y-100936790D01*
X138939836Y-101237313D01*
X139076660Y-101328060D01*
X139554503Y-101643731D01*
X140012321Y-101946398D01*
X140421168Y-102216907D01*
X140752095Y-102436104D01*
X140976156Y-102584835D01*
X141004333Y-102603597D01*
X141400732Y-102816528D01*
X141732554Y-102879422D01*
X142011570Y-102793388D01*
X142120709Y-102708574D01*
X142252652Y-102498926D01*
X142318441Y-102224180D01*
X142306519Y-101961405D01*
X142251870Y-101833864D01*
X142167733Y-101766408D01*
X141967861Y-101623860D01*
X141678293Y-101423723D01*
X141325067Y-101183499D01*
X140934223Y-100920693D01*
X140531798Y-100652807D01*
X140143832Y-100397344D01*
X139796364Y-100171809D01*
X139515431Y-99993704D01*
X139501500Y-99985057D01*
X139341465Y-99868573D01*
X139270385Y-99782547D01*
X139270158Y-99779214D01*
X139338370Y-99716237D01*
X139527487Y-99577256D01*
X139815683Y-99377383D01*
X140181133Y-99131728D01*
X140602010Y-98855400D01*
X140643213Y-98828666D01*
X141080511Y-98542680D01*
X141476326Y-98279046D01*
X141805572Y-98054852D01*
X142043168Y-97887186D01*
X142164029Y-97793134D01*
X142165721Y-97791500D01*
X142280383Y-97577670D01*
X142313033Y-97293184D01*
X142262760Y-97016035D01*
X142176544Y-96866833D01*
X141951014Y-96741639D01*
X141686177Y-96712000D01*
X141547969Y-96722415D01*
X141398624Y-96761908D01*
X141215133Y-96842846D01*
X140974490Y-96977597D01*
X140653686Y-97178529D01*
X140229713Y-97458010D01*
X139953648Y-97643333D01*
X139528012Y-97929025D01*
X139152120Y-98179258D01*
X138847790Y-98379679D01*
X138636841Y-98515933D01*
X138541091Y-98573665D01*
X138538057Y-98574666D01*
X138430683Y-98623895D01*
X138235696Y-98750588D01*
X137995107Y-98923260D01*
X137750932Y-99110423D01*
X137545182Y-99280590D01*
X137419870Y-99402273D01*
X137404422Y-99424281D01*
X137325387Y-99735927D01*
X134876944Y-99735927D01*
X134941902Y-98899286D01*
X135163536Y-98029751D01*
X135379902Y-97517177D01*
X135866606Y-96706790D01*
X136459805Y-96015990D01*
X137142413Y-95448600D01*
X137897341Y-95008444D01*
X138707504Y-94699345D01*
X139555813Y-94525126D01*
X140425182Y-94489611D01*
X141298524Y-94596623D01*
G36*
X163067989Y-93151201D02*
X163501919Y-93191849D01*
X163764000Y-93242826D01*
X164847228Y-93622621D01*
X165808623Y-94119468D01*
X166650234Y-94734977D01*
X167374111Y-95470760D01*
X167982303Y-96328427D01*
X168209156Y-96735848D01*
X168600018Y-97671662D01*
X168843413Y-98662924D01*
X168938779Y-99682909D01*
X168885560Y-100704891D01*
X168683194Y-101702146D01*
X168332826Y-102644313D01*
X167826547Y-103530719D01*
X167184089Y-104333465D01*
X166425043Y-105035306D01*
X165568997Y-105618994D01*
X164635539Y-106067283D01*
X164314333Y-106182405D01*
X163755842Y-106319377D01*
X163090574Y-106409073D01*
X162374876Y-106449650D01*
X161665095Y-106439264D01*
X161017579Y-106376071D01*
X160643600Y-106302505D01*
X159677246Y-105973386D01*
X158768411Y-105496974D01*
X157937995Y-104890122D01*
X157206899Y-104169680D01*
X156596025Y-103352499D01*
X156427691Y-103052704D01*
X158615684Y-103052704D01*
X158724192Y-103326517D01*
X158726331Y-103330663D01*
X158888738Y-103568206D01*
X159096741Y-103696200D01*
X159395756Y-103735429D01*
X159594817Y-103728169D01*
X159946935Y-103671980D01*
X160197812Y-103547063D01*
X160262485Y-103492980D01*
X160435956Y-103287802D01*
X160608703Y-103014187D01*
X160663082Y-102907333D01*
X160723722Y-102763033D01*
X160769832Y-102606721D01*
X160803954Y-102412002D01*
X160828629Y-102152482D01*
X160846398Y-101801765D01*
X160859804Y-101333456D01*
X160870929Y-100748583D01*
X160886258Y-100068888D01*
X160907006Y-99551606D01*
X160933648Y-99189888D01*
X160966662Y-98976888D01*
X160998847Y-98908379D01*
X161219224Y-98847570D01*
X161489817Y-98868040D01*
X161717787Y-98960468D01*
X161746499Y-98983455D01*
X161804575Y-99051939D01*
X161846168Y-99153363D01*
X161873959Y-99314156D01*
X161890625Y-99560745D01*
X161898845Y-99919560D01*
X161901297Y-100417029D01*
X161901333Y-100511304D01*
X161902144Y-101025743D01*
X161907042Y-101398767D01*
X161919720Y-101658297D01*
X161943875Y-101832250D01*
X161983201Y-101948545D01*
X162041394Y-102035101D01*
X162113019Y-102110716D01*
X162245418Y-102224726D01*
X162388291Y-102285107D01*
X162595445Y-102304683D01*
X162896186Y-102297367D01*
X163467666Y-102272333D01*
X163510000Y-100623254D01*
X163552333Y-98974175D01*
X163785166Y-98892410D01*
X164119745Y-98860268D01*
X164250833Y-98892318D01*
X164483666Y-98973991D01*
X164529200Y-100411495D01*
X164548321Y-100897300D01*
X164572398Y-101331265D01*
X164599137Y-101681918D01*
X164626243Y-101917788D01*
X164644995Y-101999518D01*
X164783800Y-102173431D01*
X165019833Y-102274407D01*
X165382209Y-102313341D01*
X165487175Y-102314666D01*
X165744282Y-102315388D01*
X165933030Y-102302498D01*
X166063945Y-102253411D01*
X166147551Y-102145542D01*
X166194371Y-101956306D01*
X166214930Y-101663119D01*
X166219751Y-101243395D01*
X166219333Y-100743442D01*
X166213876Y-100225063D01*
X166198785Y-99732202D01*
X166175983Y-99303971D01*
X166147390Y-98979480D01*
X166125735Y-98838569D01*
X165944782Y-98379621D01*
X165630791Y-98002004D01*
X165211973Y-97735360D01*
X165005887Y-97661981D01*
X164587134Y-97593707D01*
X164107063Y-97590189D01*
X163633572Y-97646416D01*
X163234558Y-97757373D01*
X163141386Y-97799628D01*
X162936399Y-97897912D01*
X162793662Y-97923069D01*
X162634860Y-97874133D01*
X162464195Y-97791270D01*
X162301693Y-97720757D01*
X162119763Y-97670396D01*
X161885189Y-97636156D01*
X161564753Y-97614005D01*
X161125238Y-97599912D01*
X160843000Y-97594502D01*
X160381670Y-97589872D01*
X159968385Y-97591398D01*
X159638540Y-97598528D01*
X159427533Y-97610709D01*
X159382500Y-97617282D01*
X159192000Y-97661226D01*
X159192000Y-99949817D01*
X159189987Y-100702671D01*
X159182159Y-101304210D01*
X159165831Y-101772423D01*
X159138318Y-102125300D01*
X159096935Y-102380829D01*
X159038997Y-102557000D01*
X158961819Y-102671803D01*
X158862718Y-102743226D01*
X158769595Y-102780038D01*
X158630308Y-102877036D01*
X158615684Y-103052704D01*
X156427691Y-103052704D01*
X156274755Y-102780333D01*
X156004926Y-102195631D01*
X155815275Y-101677555D01*
X155693130Y-101170480D01*
X155625817Y-100618783D01*
X155600661Y-99966839D01*
X155599565Y-99817000D01*
X155613839Y-99134921D01*
X155669521Y-98564241D01*
X155778167Y-98049675D01*
X155951334Y-97535941D01*
X156190910Y-96988181D01*
X156580324Y-96303333D01*
X159192000Y-96303333D01*
X159263325Y-96658333D01*
X159452937Y-96929713D01*
X159724287Y-97102325D01*
X160040830Y-97161025D01*
X160366017Y-97090667D01*
X160637846Y-96902512D01*
X160838377Y-96601097D01*
X160896111Y-96275173D01*
X160826194Y-95961289D01*
X160643770Y-95695990D01*
X160363987Y-95515824D01*
X160038666Y-95456666D01*
X159669972Y-95530839D01*
X159390564Y-95736493D01*
X159225737Y-96048334D01*
X159192000Y-96303333D01*
X156580324Y-96303333D01*
X156725910Y-96047298D01*
X157385516Y-95217269D01*
X158159248Y-94506841D01*
X159036628Y-93924761D01*
X160007175Y-93479775D01*
X160631333Y-93281834D01*
X160995930Y-93213163D01*
X161469395Y-93165173D01*
X162004227Y-93138455D01*
X162552925Y-93133600D01*
X163067989Y-93151201D01*
X163067989Y-93151201D01*
G37*
X163067989Y-93151201D02*
X163501919Y-93191849D01*
X163764000Y-93242826D01*
X164847228Y-93622621D01*
X165808623Y-94119468D01*
X166650234Y-94734977D01*
X167374111Y-95470760D01*
X167982303Y-96328427D01*
X168209156Y-96735848D01*
X168600018Y-97671662D01*
X168843413Y-98662924D01*
X168938779Y-99682909D01*
X168885560Y-100704891D01*
X168683194Y-101702146D01*
X168332826Y-102644313D01*
X167826547Y-103530719D01*
X167184089Y-104333465D01*
X166425043Y-105035306D01*
X165568997Y-105618994D01*
X164635539Y-106067283D01*
X164314333Y-106182405D01*
X163755842Y-106319377D01*
X163090574Y-106409073D01*
X162374876Y-106449650D01*
X161665095Y-106439264D01*
X161017579Y-106376071D01*
X160643600Y-106302505D01*
X159677246Y-105973386D01*
X158768411Y-105496974D01*
X157937995Y-104890122D01*
X157206899Y-104169680D01*
X156596025Y-103352499D01*
X156427691Y-103052704D01*
X158615684Y-103052704D01*
X158724192Y-103326517D01*
X158726331Y-103330663D01*
X158888738Y-103568206D01*
X159096741Y-103696200D01*
X159395756Y-103735429D01*
X159594817Y-103728169D01*
X159946935Y-103671980D01*
X160197812Y-103547063D01*
X160262485Y-103492980D01*
X160435956Y-103287802D01*
X160608703Y-103014187D01*
X160663082Y-102907333D01*
X160723722Y-102763033D01*
X160769832Y-102606721D01*
X160803954Y-102412002D01*
X160828629Y-102152482D01*
X160846398Y-101801765D01*
X160859804Y-101333456D01*
X160870929Y-100748583D01*
X160886258Y-100068888D01*
X160907006Y-99551606D01*
X160933648Y-99189888D01*
X160966662Y-98976888D01*
X160998847Y-98908379D01*
X161219224Y-98847570D01*
X161489817Y-98868040D01*
X161717787Y-98960468D01*
X161746499Y-98983455D01*
X161804575Y-99051939D01*
X161846168Y-99153363D01*
X161873959Y-99314156D01*
X161890625Y-99560745D01*
X161898845Y-99919560D01*
X161901297Y-100417029D01*
X161901333Y-100511304D01*
X161902144Y-101025743D01*
X161907042Y-101398767D01*
X161919720Y-101658297D01*
X161943875Y-101832250D01*
X161983201Y-101948545D01*
X162041394Y-102035101D01*
X162113019Y-102110716D01*
X162245418Y-102224726D01*
X162388291Y-102285107D01*
X162595445Y-102304683D01*
X162896186Y-102297367D01*
X163467666Y-102272333D01*
X163510000Y-100623254D01*
X163552333Y-98974175D01*
X163785166Y-98892410D01*
X164119745Y-98860268D01*
X164250833Y-98892318D01*
X164483666Y-98973991D01*
X164529200Y-100411495D01*
X164548321Y-100897300D01*
X164572398Y-101331265D01*
X164599137Y-101681918D01*
X164626243Y-101917788D01*
X164644995Y-101999518D01*
X164783800Y-102173431D01*
X165019833Y-102274407D01*
X165382209Y-102313341D01*
X165487175Y-102314666D01*
X165744282Y-102315388D01*
X165933030Y-102302498D01*
X166063945Y-102253411D01*
X166147551Y-102145542D01*
X166194371Y-101956306D01*
X166214930Y-101663119D01*
X166219751Y-101243395D01*
X166219333Y-100743442D01*
X166213876Y-100225063D01*
X166198785Y-99732202D01*
X166175983Y-99303971D01*
X166147390Y-98979480D01*
X166125735Y-98838569D01*
X165944782Y-98379621D01*
X165630791Y-98002004D01*
X165211973Y-97735360D01*
X165005887Y-97661981D01*
X164587134Y-97593707D01*
X164107063Y-97590189D01*
X163633572Y-97646416D01*
X163234558Y-97757373D01*
X163141386Y-97799628D01*
X162936399Y-97897912D01*
X162793662Y-97923069D01*
X162634860Y-97874133D01*
X162464195Y-97791270D01*
X162301693Y-97720757D01*
X162119763Y-97670396D01*
X161885189Y-97636156D01*
X161564753Y-97614005D01*
X161125238Y-97599912D01*
X160843000Y-97594502D01*
X160381670Y-97589872D01*
X159968385Y-97591398D01*
X159638540Y-97598528D01*
X159427533Y-97610709D01*
X159382500Y-97617282D01*
X159192000Y-97661226D01*
X159192000Y-99949817D01*
X159189987Y-100702671D01*
X159182159Y-101304210D01*
X159165831Y-101772423D01*
X159138318Y-102125300D01*
X159096935Y-102380829D01*
X159038997Y-102557000D01*
X158961819Y-102671803D01*
X158862718Y-102743226D01*
X158769595Y-102780038D01*
X158630308Y-102877036D01*
X158615684Y-103052704D01*
X156427691Y-103052704D01*
X156274755Y-102780333D01*
X156004926Y-102195631D01*
X155815275Y-101677555D01*
X155693130Y-101170480D01*
X155625817Y-100618783D01*
X155600661Y-99966839D01*
X155599565Y-99817000D01*
X155613839Y-99134921D01*
X155669521Y-98564241D01*
X155778167Y-98049675D01*
X155951334Y-97535941D01*
X156190910Y-96988181D01*
X156580324Y-96303333D01*
X159192000Y-96303333D01*
X159263325Y-96658333D01*
X159452937Y-96929713D01*
X159724287Y-97102325D01*
X160040830Y-97161025D01*
X160366017Y-97090667D01*
X160637846Y-96902512D01*
X160838377Y-96601097D01*
X160896111Y-96275173D01*
X160826194Y-95961289D01*
X160643770Y-95695990D01*
X160363987Y-95515824D01*
X160038666Y-95456666D01*
X159669972Y-95530839D01*
X159390564Y-95736493D01*
X159225737Y-96048334D01*
X159192000Y-96303333D01*
X156580324Y-96303333D01*
X156725910Y-96047298D01*
X157385516Y-95217269D01*
X158159248Y-94506841D01*
X159036628Y-93924761D01*
X160007175Y-93479775D01*
X160631333Y-93281834D01*
X160995930Y-93213163D01*
X161469395Y-93165173D01*
X162004227Y-93138455D01*
X162552925Y-93133600D01*
X163067989Y-93151201D01*
G36*
X163560664Y-75769620D02*
X164386548Y-76024240D01*
X164631078Y-76133307D01*
X165111666Y-76365666D01*
X164688946Y-76392311D01*
X164359009Y-76435177D01*
X164146310Y-76533994D01*
X164026705Y-76719084D01*
X163976052Y-77020773D01*
X163968666Y-77297000D01*
X163984198Y-77690373D01*
X164049990Y-77947842D01*
X164194842Y-78097516D01*
X164447551Y-78167503D01*
X164836914Y-78185912D01*
X164879452Y-78185999D01*
X165270866Y-78171387D01*
X165523701Y-78108725D01*
X165667551Y-77969773D01*
X165732008Y-77726293D01*
X165746666Y-77358436D01*
X165746666Y-76796967D01*
X166091729Y-77131650D01*
X166443362Y-77524777D01*
X166795675Y-78008133D01*
X167111461Y-78523773D01*
X167353513Y-79013751D01*
X167430575Y-79216742D01*
X167654976Y-80141661D01*
X167720430Y-81060525D01*
X167635102Y-81957199D01*
X167407151Y-82815551D01*
X167044739Y-83619447D01*
X166556028Y-84352754D01*
X165949180Y-84999338D01*
X165232355Y-85543066D01*
X164413716Y-85967803D01*
X163926333Y-86143821D01*
X163494168Y-86245948D01*
X162977377Y-86320323D01*
X162433376Y-86363005D01*
X161919580Y-86370052D01*
X161493406Y-86337525D01*
X161385478Y-86318235D01*
X160455632Y-86037513D01*
X159606165Y-85619451D01*
X158850966Y-85076321D01*
X158203927Y-84420395D01*
X157678940Y-83663944D01*
X157289894Y-82819242D01*
X157232291Y-82649161D01*
X157216610Y-82582473D01*
X159305482Y-82582473D01*
X159334807Y-82691928D01*
X159397143Y-82789545D01*
X159485733Y-82889670D01*
X159496091Y-82900709D01*
X159705740Y-83032652D01*
X159980486Y-83098441D01*
X160243261Y-83086519D01*
X160370802Y-83031870D01*
X160438257Y-82947733D01*
X160580805Y-82747861D01*
X160780943Y-82458293D01*
X161021167Y-82105067D01*
X161283973Y-81714223D01*
X161551859Y-81311798D01*
X161807321Y-80923832D01*
X162032857Y-80576364D01*
X162210962Y-80295431D01*
X162219609Y-80281500D01*
X162336093Y-80121465D01*
X162422118Y-80050385D01*
X162425451Y-80050158D01*
X162488429Y-80118370D01*
X162627409Y-80307487D01*
X162827282Y-80595683D01*
X163072938Y-80961133D01*
X163349266Y-81382010D01*
X163376000Y-81423213D01*
X163661986Y-81860511D01*
X163925620Y-82256326D01*
X164149813Y-82585572D01*
X164317480Y-82823168D01*
X164411532Y-82944029D01*
X164413166Y-82945721D01*
X164626996Y-83060383D01*
X164911481Y-83093033D01*
X165188631Y-83042760D01*
X165337833Y-82956544D01*
X165463026Y-82731014D01*
X165492666Y-82466177D01*
X165482250Y-82327969D01*
X165442758Y-82178624D01*
X165361820Y-81995133D01*
X165227069Y-81754490D01*
X165026137Y-81433686D01*
X164746655Y-81009713D01*
X164561333Y-80733648D01*
X164275641Y-80308012D01*
X164025408Y-79932120D01*
X163824987Y-79627790D01*
X163688733Y-79416841D01*
X163631000Y-79321091D01*
X163630000Y-79318057D01*
X163580771Y-79210683D01*
X163454077Y-79015696D01*
X163281405Y-78775107D01*
X163094243Y-78530932D01*
X162924076Y-78325182D01*
X162802393Y-78199870D01*
X162780384Y-78184422D01*
X162469879Y-78105414D01*
X162154365Y-78167179D01*
X162050924Y-78225603D01*
X161946386Y-78335608D01*
X161769309Y-78561470D01*
X161539070Y-78876836D01*
X161275052Y-79255349D01*
X161070325Y-79559103D01*
X160592250Y-80279729D01*
X160201255Y-80873747D01*
X159890581Y-81355503D01*
X159653469Y-81739343D01*
X159483162Y-82039614D01*
X159372901Y-82270662D01*
X159315927Y-82446833D01*
X159305482Y-82582473D01*
X157216610Y-82582473D01*
X157085880Y-82026518D01*
X157007640Y-81326397D01*
X157000674Y-80617677D01*
X157068083Y-79969236D01*
X157103759Y-79794666D01*
X157358293Y-79024989D01*
X157748571Y-78265702D01*
X158246138Y-77568578D01*
X158458830Y-77329255D01*
X159050889Y-76704333D01*
X159054444Y-77305044D01*
X159072561Y-77695352D01*
X159140699Y-77950677D01*
X159287836Y-78098938D01*
X159542949Y-78168054D01*
X159935015Y-78185944D01*
X159968785Y-78186000D01*
X160357072Y-78172336D01*
X160608818Y-78111611D01*
X160753133Y-77974220D01*
X160819126Y-77730560D01*
X160835907Y-77351027D01*
X160836000Y-77304074D01*
X160818661Y-76908421D01*
X160749560Y-76649368D01*
X160603065Y-76496208D01*
X160353547Y-76418238D01*
X160072995Y-76389991D01*
X159608333Y-76361734D01*
X160104978Y-76127595D01*
X160919563Y-75831542D01*
X161791092Y-75673226D01*
X162683485Y-75652600D01*
X163560664Y-75769620D01*
X163560664Y-75769620D01*
G37*
X163560664Y-75769620D02*
X164386548Y-76024240D01*
X164631078Y-76133307D01*
X165111666Y-76365666D01*
X164688946Y-76392311D01*
X164359009Y-76435177D01*
X164146310Y-76533994D01*
X164026705Y-76719084D01*
X163976052Y-77020773D01*
X163968666Y-77297000D01*
X163984198Y-77690373D01*
X164049990Y-77947842D01*
X164194842Y-78097516D01*
X164447551Y-78167503D01*
X164836914Y-78185912D01*
X164879452Y-78185999D01*
X165270866Y-78171387D01*
X165523701Y-78108725D01*
X165667551Y-77969773D01*
X165732008Y-77726293D01*
X165746666Y-77358436D01*
X165746666Y-76796967D01*
X166091729Y-77131650D01*
X166443362Y-77524777D01*
X166795675Y-78008133D01*
X167111461Y-78523773D01*
X167353513Y-79013751D01*
X167430575Y-79216742D01*
X167654976Y-80141661D01*
X167720430Y-81060525D01*
X167635102Y-81957199D01*
X167407151Y-82815551D01*
X167044739Y-83619447D01*
X166556028Y-84352754D01*
X165949180Y-84999338D01*
X165232355Y-85543066D01*
X164413716Y-85967803D01*
X163926333Y-86143821D01*
X163494168Y-86245948D01*
X162977377Y-86320323D01*
X162433376Y-86363005D01*
X161919580Y-86370052D01*
X161493406Y-86337525D01*
X161385478Y-86318235D01*
X160455632Y-86037513D01*
X159606165Y-85619451D01*
X158850966Y-85076321D01*
X158203927Y-84420395D01*
X157678940Y-83663944D01*
X157289894Y-82819242D01*
X157232291Y-82649161D01*
X157216610Y-82582473D01*
X159305482Y-82582473D01*
X159334807Y-82691928D01*
X159397143Y-82789545D01*
X159485733Y-82889670D01*
X159496091Y-82900709D01*
X159705740Y-83032652D01*
X159980486Y-83098441D01*
X160243261Y-83086519D01*
X160370802Y-83031870D01*
X160438257Y-82947733D01*
X160580805Y-82747861D01*
X160780943Y-82458293D01*
X161021167Y-82105067D01*
X161283973Y-81714223D01*
X161551859Y-81311798D01*
X161807321Y-80923832D01*
X162032857Y-80576364D01*
X162210962Y-80295431D01*
X162219609Y-80281500D01*
X162336093Y-80121465D01*
X162422118Y-80050385D01*
X162425451Y-80050158D01*
X162488429Y-80118370D01*
X162627409Y-80307487D01*
X162827282Y-80595683D01*
X163072938Y-80961133D01*
X163349266Y-81382010D01*
X163376000Y-81423213D01*
X163661986Y-81860511D01*
X163925620Y-82256326D01*
X164149813Y-82585572D01*
X164317480Y-82823168D01*
X164411532Y-82944029D01*
X164413166Y-82945721D01*
X164626996Y-83060383D01*
X164911481Y-83093033D01*
X165188631Y-83042760D01*
X165337833Y-82956544D01*
X165463026Y-82731014D01*
X165492666Y-82466177D01*
X165482250Y-82327969D01*
X165442758Y-82178624D01*
X165361820Y-81995133D01*
X165227069Y-81754490D01*
X165026137Y-81433686D01*
X164746655Y-81009713D01*
X164561333Y-80733648D01*
X164275641Y-80308012D01*
X164025408Y-79932120D01*
X163824987Y-79627790D01*
X163688733Y-79416841D01*
X163631000Y-79321091D01*
X163630000Y-79318057D01*
X163580771Y-79210683D01*
X163454077Y-79015696D01*
X163281405Y-78775107D01*
X163094243Y-78530932D01*
X162924076Y-78325182D01*
X162802393Y-78199870D01*
X162780384Y-78184422D01*
X162469879Y-78105414D01*
X162154365Y-78167179D01*
X162050924Y-78225603D01*
X161946386Y-78335608D01*
X161769309Y-78561470D01*
X161539070Y-78876836D01*
X161275052Y-79255349D01*
X161070325Y-79559103D01*
X160592250Y-80279729D01*
X160201255Y-80873747D01*
X159890581Y-81355503D01*
X159653469Y-81739343D01*
X159483162Y-82039614D01*
X159372901Y-82270662D01*
X159315927Y-82446833D01*
X159305482Y-82582473D01*
X157216610Y-82582473D01*
X157085880Y-82026518D01*
X157007640Y-81326397D01*
X157000674Y-80617677D01*
X157068083Y-79969236D01*
X157103759Y-79794666D01*
X157358293Y-79024989D01*
X157748571Y-78265702D01*
X158246138Y-77568578D01*
X158458830Y-77329255D01*
X159050889Y-76704333D01*
X159054444Y-77305044D01*
X159072561Y-77695352D01*
X159140699Y-77950677D01*
X159287836Y-78098938D01*
X159542949Y-78168054D01*
X159935015Y-78185944D01*
X159968785Y-78186000D01*
X160357072Y-78172336D01*
X160608818Y-78111611D01*
X160753133Y-77974220D01*
X160819126Y-77730560D01*
X160835907Y-77351027D01*
X160836000Y-77304074D01*
X160818661Y-76908421D01*
X160749560Y-76649368D01*
X160603065Y-76496208D01*
X160353547Y-76418238D01*
X160072995Y-76389991D01*
X159608333Y-76361734D01*
X160104978Y-76127595D01*
X160919563Y-75831542D01*
X161791092Y-75673226D01*
X162683485Y-75652600D01*
X163560664Y-75769620D01*
D11*
G36*
X162414183Y-115236900D02*
X162541574Y-115289668D01*
X162656225Y-115366275D01*
X162753725Y-115463775D01*
X162830332Y-115578426D01*
X162883100Y-115705817D01*
X162910000Y-115841055D01*
X162910000Y-115978945D01*
X162883100Y-116114183D01*
X162830332Y-116241574D01*
X162753725Y-116356225D01*
X162656225Y-116453725D01*
X162541574Y-116530332D01*
X162414183Y-116583100D01*
X162278945Y-116610000D01*
X162141055Y-116610000D01*
X162005817Y-116583100D01*
X161878426Y-116530332D01*
X161763775Y-116453725D01*
X161666275Y-116356225D01*
X161589668Y-116241574D01*
X161536900Y-116114183D01*
X161510000Y-115978945D01*
X161510000Y-115841055D01*
X161536900Y-115705817D01*
X161589668Y-115578426D01*
X161666275Y-115463775D01*
X161763775Y-115366275D01*
X161878426Y-115289668D01*
X162005817Y-115236900D01*
X162141055Y-115210000D01*
X162278945Y-115210000D01*
X162414183Y-115236900D01*
X162414183Y-115236900D01*
G37*
G36*
X182034183Y-99146900D02*
X182161574Y-99199668D01*
X182276224Y-99276274D01*
X182373726Y-99373776D01*
X182412379Y-99431625D01*
X182450332Y-99488426D01*
X182503100Y-99615817D01*
X182530000Y-99751055D01*
X182530000Y-99888945D01*
X182503100Y-100024183D01*
X182475185Y-100091574D01*
X182450332Y-100151574D01*
X182377885Y-100260000D01*
X182373725Y-100266225D01*
X182276225Y-100363725D01*
X182161574Y-100440332D01*
X182034183Y-100493100D01*
X181898945Y-100520000D01*
X181761055Y-100520000D01*
X181625817Y-100493100D01*
X181498426Y-100440332D01*
X181383775Y-100363725D01*
X181286275Y-100266225D01*
X181282116Y-100260000D01*
X181209668Y-100151574D01*
X181184815Y-100091574D01*
X181156900Y-100024183D01*
X181130000Y-99888945D01*
X181130000Y-99751055D01*
X181156900Y-99615817D01*
X181209668Y-99488426D01*
X181247621Y-99431625D01*
X181286274Y-99373776D01*
X181383776Y-99276274D01*
X181498426Y-99199668D01*
X181625817Y-99146900D01*
X181761055Y-99120000D01*
X181898945Y-99120000D01*
X182034183Y-99146900D01*
X182034183Y-99146900D01*
G37*
G36*
X142944183Y-99086900D02*
X143071574Y-99139668D01*
X143186224Y-99216274D01*
X143283726Y-99313776D01*
X143322379Y-99371625D01*
X143360332Y-99428426D01*
X143413100Y-99555817D01*
X143440000Y-99691055D01*
X143440000Y-99828945D01*
X143413100Y-99964183D01*
X143374720Y-100056839D01*
X143360332Y-100091574D01*
X143320242Y-100151574D01*
X143283725Y-100206225D01*
X143186225Y-100303725D01*
X143071574Y-100380332D01*
X142944183Y-100433100D01*
X142808945Y-100460000D01*
X142671055Y-100460000D01*
X142535817Y-100433100D01*
X142408426Y-100380332D01*
X142293775Y-100303725D01*
X142196275Y-100206225D01*
X142159759Y-100151574D01*
X142119668Y-100091574D01*
X142105280Y-100056839D01*
X142066900Y-99964183D01*
X142040000Y-99828945D01*
X142040000Y-99691055D01*
X142066900Y-99555817D01*
X142119668Y-99428426D01*
X142157621Y-99371625D01*
X142196274Y-99313776D01*
X142293776Y-99216274D01*
X142408426Y-99139668D01*
X142535817Y-99086900D01*
X142671055Y-99060000D01*
X142808945Y-99060000D01*
X142944183Y-99086900D01*
X142944183Y-99086900D01*
G37*
G36*
X163714183Y-95206900D02*
X163841574Y-95259668D01*
X163956225Y-95336275D01*
X164053725Y-95433775D01*
X164130332Y-95548426D01*
X164183100Y-95675817D01*
X164210000Y-95811055D01*
X164210000Y-95948945D01*
X164183100Y-96084183D01*
X164130332Y-96211574D01*
X164053725Y-96326225D01*
X163956225Y-96423725D01*
X163841574Y-96500332D01*
X163714183Y-96553100D01*
X163578945Y-96580000D01*
X163441055Y-96580000D01*
X163305817Y-96553100D01*
X163178426Y-96500332D01*
X163063775Y-96423725D01*
X162966275Y-96326225D01*
X162889668Y-96211574D01*
X162836900Y-96084183D01*
X162810000Y-95948945D01*
X162810000Y-95811055D01*
X162836900Y-95675817D01*
X162889668Y-95548426D01*
X162966275Y-95433775D01*
X163063775Y-95336275D01*
X163178426Y-95259668D01*
X163305817Y-95206900D01*
X163441055Y-95180000D01*
X163578945Y-95180000D01*
X163714183Y-95206900D01*
X163714183Y-95206900D01*
G37*
G36*
X162491260Y-84357293D02*
X162573155Y-84391215D01*
X162646861Y-84440464D01*
X162709536Y-84503139D01*
X162758785Y-84576845D01*
X162792707Y-84658740D01*
X162810000Y-84745678D01*
X162810000Y-84834322D01*
X162792707Y-84921260D01*
X162758785Y-85003155D01*
X162709536Y-85076861D01*
X162646861Y-85139536D01*
X162573155Y-85188785D01*
X162491260Y-85222707D01*
X162404322Y-85240000D01*
X162315678Y-85240000D01*
X162228740Y-85222707D01*
X162146845Y-85188785D01*
X162073139Y-85139536D01*
X162010464Y-85076861D01*
X161961215Y-85003155D01*
X161927293Y-84921260D01*
X161910000Y-84834322D01*
X161910000Y-84745678D01*
X161927293Y-84658740D01*
X161961215Y-84576845D01*
X162010464Y-84503139D01*
X162073139Y-84440464D01*
X162146845Y-84391215D01*
X162228740Y-84357293D01*
X162315678Y-84340000D01*
X162404322Y-84340000D01*
X162491260Y-84357293D01*
X162491260Y-84357293D01*
G37*
G36*
X142424000Y-75368000D02*
X141753123Y-75368000D01*
X141728737Y-75370402D01*
X141705288Y-75377515D01*
X141683677Y-75389066D01*
X141664735Y-75404612D01*
X141649189Y-75423554D01*
X141637638Y-75445165D01*
X141630525Y-75468614D01*
X141628123Y-75493000D01*
X141630525Y-75517386D01*
X141637638Y-75540835D01*
X141649189Y-75562446D01*
X141664735Y-75581388D01*
X141683677Y-75596934D01*
X141705288Y-75608485D01*
X141792412Y-75644573D01*
X141988958Y-75775901D01*
X142156099Y-75943042D01*
X142287427Y-76139588D01*
X142377885Y-76357974D01*
X142424000Y-76589809D01*
X142424000Y-76826191D01*
X142377885Y-77058026D01*
X142287427Y-77276412D01*
X142156099Y-77472958D01*
X141988958Y-77640099D01*
X141792412Y-77771427D01*
X141572505Y-77862515D01*
X141550894Y-77874066D01*
X141531952Y-77889611D01*
X141516406Y-77908554D01*
X141504855Y-77930164D01*
X141497742Y-77953613D01*
X141495340Y-77978000D01*
X141497742Y-78002386D01*
X141504855Y-78025835D01*
X141516406Y-78047446D01*
X141531951Y-78066388D01*
X141550894Y-78081934D01*
X141572505Y-78093485D01*
X141792412Y-78184573D01*
X141988958Y-78315901D01*
X142156099Y-78483042D01*
X142287427Y-78679588D01*
X142377885Y-78897974D01*
X142424000Y-79129809D01*
X142424000Y-79366191D01*
X142377885Y-79598026D01*
X142287427Y-79816412D01*
X142156099Y-80012958D01*
X141988958Y-80180099D01*
X141792412Y-80311427D01*
X141574026Y-80401885D01*
X141342191Y-80448000D01*
X141105809Y-80448000D01*
X140873974Y-80401885D01*
X140655588Y-80311427D01*
X140459042Y-80180099D01*
X140291901Y-80012958D01*
X140160573Y-79816412D01*
X140070115Y-79598026D01*
X140024000Y-79366191D01*
X140024000Y-79129809D01*
X140070115Y-78897974D01*
X140160573Y-78679588D01*
X140291901Y-78483042D01*
X140459042Y-78315901D01*
X140655588Y-78184573D01*
X140875495Y-78093485D01*
X140897106Y-78081934D01*
X140916048Y-78066389D01*
X140931594Y-78047446D01*
X140943145Y-78025836D01*
X140950258Y-78002387D01*
X140952660Y-77978000D01*
X140950258Y-77953614D01*
X140943145Y-77930165D01*
X140931594Y-77908554D01*
X140916049Y-77889612D01*
X140897106Y-77874066D01*
X140875495Y-77862515D01*
X140655588Y-77771427D01*
X140459042Y-77640099D01*
X140291901Y-77472958D01*
X140160573Y-77276412D01*
X140070115Y-77058026D01*
X140024000Y-76826191D01*
X140024000Y-76589809D01*
X140070115Y-76357974D01*
X140160573Y-76139588D01*
X140291901Y-75943042D01*
X140459042Y-75775901D01*
X140655588Y-75644573D01*
X140742712Y-75608485D01*
X140764323Y-75596934D01*
X140783265Y-75581388D01*
X140798811Y-75562446D01*
X140810362Y-75540835D01*
X140817475Y-75517386D01*
X140819877Y-75493000D01*
X140817475Y-75468614D01*
X140810362Y-75445165D01*
X140798811Y-75423554D01*
X140783265Y-75404612D01*
X140764323Y-75389066D01*
X140742712Y-75377515D01*
X140719263Y-75370402D01*
X140694877Y-75368000D01*
X140024000Y-75368000D01*
X140024000Y-72968000D01*
X142424000Y-72968000D01*
X142424000Y-75368000D01*
X142424000Y-75368000D01*
G37*
G36*
X164937914Y-76582596D02*
X164937917Y-76582597D01*
X164937918Y-76582597D01*
X165036881Y-76612617D01*
X165128086Y-76661367D01*
X165208027Y-76726973D01*
X165273633Y-76806914D01*
X165316087Y-76886340D01*
X165322382Y-76898117D01*
X165352404Y-76997086D01*
X165360000Y-77074209D01*
X165360000Y-77525792D01*
X165352404Y-77602914D01*
X165352403Y-77602917D01*
X165352403Y-77602918D01*
X165322383Y-77701881D01*
X165273635Y-77793083D01*
X165273632Y-77793087D01*
X165208030Y-77873024D01*
X165208028Y-77873025D01*
X165208027Y-77873027D01*
X165128086Y-77938633D01*
X165036880Y-77987383D01*
X164937917Y-78017403D01*
X164937916Y-78017403D01*
X164937913Y-78017404D01*
X164835000Y-78027540D01*
X164732086Y-78017404D01*
X164732083Y-78017403D01*
X164732082Y-78017403D01*
X164633119Y-77987383D01*
X164541914Y-77938633D01*
X164505263Y-77908554D01*
X164461976Y-77873030D01*
X164461975Y-77873028D01*
X164461973Y-77873027D01*
X164396367Y-77793086D01*
X164347617Y-77701880D01*
X164317597Y-77602917D01*
X164317597Y-77602916D01*
X164317596Y-77602913D01*
X164310000Y-77525791D01*
X164310000Y-77074208D01*
X164317596Y-76997086D01*
X164347618Y-76898117D01*
X164396366Y-76806916D01*
X164461976Y-76726971D01*
X164541914Y-76661368D01*
X164541913Y-76661368D01*
X164541915Y-76661367D01*
X164633120Y-76612617D01*
X164732083Y-76582597D01*
X164732084Y-76582597D01*
X164732087Y-76582596D01*
X164835000Y-76572460D01*
X164937914Y-76582596D01*
X164937914Y-76582596D01*
G37*
G36*
X160087913Y-76582596D02*
X160087916Y-76582597D01*
X160087917Y-76582597D01*
X160186880Y-76612617D01*
X160278086Y-76661367D01*
X160358027Y-76726973D01*
X160358028Y-76726975D01*
X160358030Y-76726976D01*
X160407232Y-76786929D01*
X160423633Y-76806914D01*
X160466087Y-76886340D01*
X160472382Y-76898117D01*
X160502404Y-76997086D01*
X160510000Y-77074208D01*
X160510000Y-77525791D01*
X160502404Y-77602914D01*
X160502403Y-77602917D01*
X160472383Y-77701881D01*
X160423633Y-77793086D01*
X160358027Y-77873027D01*
X160278086Y-77938633D01*
X160186881Y-77987383D01*
X160087918Y-78017403D01*
X160087917Y-78017403D01*
X160087914Y-78017404D01*
X159985000Y-78027540D01*
X159882087Y-78017404D01*
X159882084Y-78017403D01*
X159882083Y-78017403D01*
X159783120Y-77987383D01*
X159691915Y-77938633D01*
X159632183Y-77889612D01*
X159611976Y-77873029D01*
X159546366Y-77793084D01*
X159497618Y-77701883D01*
X159467596Y-77602914D01*
X159460000Y-77525792D01*
X159460000Y-77074209D01*
X159467596Y-76997087D01*
X159467597Y-76997083D01*
X159497617Y-76898120D01*
X159546367Y-76806914D01*
X159611973Y-76726973D01*
X159611976Y-76726970D01*
X159691913Y-76661368D01*
X159691912Y-76661368D01*
X159691914Y-76661367D01*
X159783119Y-76612617D01*
X159882082Y-76582597D01*
X159882083Y-76582597D01*
X159882086Y-76582596D01*
X159985000Y-76572460D01*
X160087913Y-76582596D01*
X160087913Y-76582596D01*
G37*
G36*
X149028000Y-75368000D02*
X148357123Y-75368000D01*
X148332737Y-75370402D01*
X148309288Y-75377515D01*
X148287677Y-75389066D01*
X148268735Y-75404612D01*
X148253189Y-75423554D01*
X148241638Y-75445165D01*
X148234525Y-75468614D01*
X148232123Y-75493000D01*
X148234525Y-75517386D01*
X148241638Y-75540835D01*
X148253189Y-75562446D01*
X148268735Y-75581388D01*
X148287677Y-75596934D01*
X148309288Y-75608485D01*
X148396412Y-75644573D01*
X148592958Y-75775901D01*
X148760099Y-75943042D01*
X148891427Y-76139588D01*
X148981885Y-76357974D01*
X149028000Y-76589809D01*
X149028000Y-76826191D01*
X148981885Y-77058026D01*
X148891427Y-77276412D01*
X148760099Y-77472958D01*
X148592958Y-77640099D01*
X148396412Y-77771427D01*
X148178026Y-77861885D01*
X147946191Y-77908000D01*
X147709809Y-77908000D01*
X147477974Y-77861885D01*
X147259588Y-77771427D01*
X147063042Y-77640099D01*
X146895901Y-77472958D01*
X146764573Y-77276412D01*
X146674115Y-77058026D01*
X146628000Y-76826191D01*
X146628000Y-76589809D01*
X146674115Y-76357974D01*
X146764573Y-76139588D01*
X146895901Y-75943042D01*
X147063042Y-75775901D01*
X147259588Y-75644573D01*
X147346712Y-75608485D01*
X147368323Y-75596934D01*
X147387265Y-75581388D01*
X147402811Y-75562446D01*
X147414362Y-75540835D01*
X147421475Y-75517386D01*
X147423877Y-75493000D01*
X147421475Y-75468614D01*
X147414362Y-75445165D01*
X147402811Y-75423554D01*
X147387265Y-75404612D01*
X147368323Y-75389066D01*
X147346712Y-75377515D01*
X147323263Y-75370402D01*
X147298877Y-75368000D01*
X146628000Y-75368000D01*
X146628000Y-72968000D01*
X149028000Y-72968000D01*
X149028000Y-75368000D01*
X149028000Y-75368000D01*
G37*
G36*
X155378000Y-75114000D02*
X152978000Y-75114000D01*
X152978000Y-72714000D01*
X155378000Y-72714000D01*
X155378000Y-75114000D01*
X155378000Y-75114000D01*
G37*
G36*
X159720940Y-73470879D02*
X159792819Y-73477958D01*
X159869518Y-73501225D01*
X159896498Y-73509409D01*
X159992039Y-73560476D01*
X160075790Y-73629210D01*
X160144524Y-73712961D01*
X160195591Y-73808502D01*
X160195592Y-73808506D01*
X160227042Y-73912181D01*
X160235000Y-73992982D01*
X160235000Y-74547018D01*
X160227042Y-74627819D01*
X160203775Y-74704518D01*
X160195591Y-74731498D01*
X160144522Y-74827042D01*
X160097513Y-74884321D01*
X160075790Y-74910790D01*
X159992042Y-74979521D01*
X159992038Y-74979524D01*
X159896497Y-75030591D01*
X159869517Y-75038775D01*
X159792818Y-75062042D01*
X159685000Y-75072661D01*
X159684999Y-75072661D01*
X159649060Y-75069121D01*
X159577181Y-75062042D01*
X159500482Y-75038775D01*
X159473502Y-75030591D01*
X159377958Y-74979522D01*
X159320679Y-74932513D01*
X159294210Y-74910790D01*
X159225479Y-74827042D01*
X159225478Y-74827041D01*
X159225476Y-74827038D01*
X159174409Y-74731497D01*
X159166225Y-74704517D01*
X159142958Y-74627818D01*
X159135000Y-74547017D01*
X159135000Y-73992982D01*
X159142958Y-73912181D01*
X159153442Y-73877623D01*
X159174409Y-73808502D01*
X159225478Y-73712958D01*
X159294208Y-73629213D01*
X159294210Y-73629212D01*
X159294211Y-73629210D01*
X159336085Y-73594844D01*
X159377962Y-73560476D01*
X159473503Y-73509409D01*
X159500483Y-73501225D01*
X159577182Y-73477958D01*
X159685000Y-73467339D01*
X159685001Y-73467339D01*
X159720940Y-73470879D01*
X159720940Y-73470879D01*
G37*
G36*
X165170940Y-73470879D02*
X165242819Y-73477958D01*
X165319518Y-73501225D01*
X165346498Y-73509409D01*
X165442039Y-73560476D01*
X165525790Y-73629210D01*
X165594524Y-73712961D01*
X165645591Y-73808502D01*
X165645592Y-73808506D01*
X165677042Y-73912181D01*
X165685000Y-73992982D01*
X165685000Y-74547018D01*
X165677042Y-74627819D01*
X165653775Y-74704518D01*
X165645591Y-74731498D01*
X165594522Y-74827042D01*
X165547513Y-74884321D01*
X165525790Y-74910790D01*
X165442042Y-74979521D01*
X165442038Y-74979524D01*
X165346497Y-75030591D01*
X165319517Y-75038775D01*
X165242818Y-75062042D01*
X165135000Y-75072661D01*
X165134999Y-75072661D01*
X165099060Y-75069121D01*
X165027181Y-75062042D01*
X164950482Y-75038775D01*
X164923502Y-75030591D01*
X164827958Y-74979522D01*
X164770679Y-74932513D01*
X164744210Y-74910790D01*
X164675479Y-74827042D01*
X164675478Y-74827041D01*
X164675476Y-74827038D01*
X164624409Y-74731497D01*
X164616225Y-74704517D01*
X164592958Y-74627818D01*
X164585000Y-74547017D01*
X164585000Y-73992982D01*
X164592958Y-73912181D01*
X164603442Y-73877623D01*
X164624409Y-73808502D01*
X164675478Y-73712958D01*
X164744208Y-73629213D01*
X164744210Y-73629212D01*
X164744211Y-73629210D01*
X164786085Y-73594844D01*
X164827962Y-73560476D01*
X164923503Y-73509409D01*
X164950483Y-73501225D01*
X165027182Y-73477958D01*
X165135000Y-73467339D01*
X165135001Y-73467339D01*
X165170940Y-73470879D01*
X165170940Y-73470879D01*
G37*
M02*
