G04 #@! TF.GenerationSoftware,KiCad,Pcbnew,(5.0.1-3-g963ef8bb5)*
G04 #@! TF.CreationDate,2018-11-23T08:59:46+00:00*
G04 #@! TF.ProjectId,invitation,696E7669746174696F6E2E6B69636164,rev?*
G04 #@! TF.SameCoordinates,Original*
G04 #@! TF.FileFunction,Paste,Bot*
G04 #@! TF.FilePolarity,Positive*
%FSLAX46Y46*%
G04 Gerber Fmt 4.6, Leading zero omitted, Abs format (unit mm)*
G04 Created by KiCad (PCBNEW (5.0.1-3-g963ef8bb5)) date Friday, 23 November 2018 at 08:59:46*
%MOMM*%
%LPD*%
G01*
G04 APERTURE LIST*
%ADD10R,0.400000X1.350000*%
%ADD11R,1.500000X0.550000*%
%ADD12R,0.550000X1.500000*%
%ADD13R,1.140000X2.030000*%
%ADD14R,1.200000X1.400000*%
%ADD15R,1.200000X1.200000*%
%ADD16R,0.700000X1.300000*%
%ADD17R,1.250000X1.000000*%
%ADD18R,1.000000X1.250000*%
%ADD19R,1.550000X1.800000*%
%ADD20C,0.100000*%
%ADD21C,0.975000*%
G04 APERTURE END LIST*
D10*
G04 #@! TO.C,P1*
X161005100Y-77000540D03*
X161655100Y-77000540D03*
X162305100Y-77000540D03*
X162955100Y-77000540D03*
X163605100Y-77000540D03*
G04 #@! TD*
D11*
G04 #@! TO.C,U1*
X186832000Y-84010000D03*
X186832000Y-83210000D03*
X186832000Y-82410000D03*
X186832000Y-81610000D03*
X186832000Y-80810000D03*
X186832000Y-80010000D03*
X186832000Y-79210000D03*
X186832000Y-78410000D03*
X186832000Y-77610000D03*
X186832000Y-76810000D03*
X186832000Y-76010000D03*
D12*
X188532000Y-74310000D03*
X189332000Y-74310000D03*
X190132000Y-74310000D03*
X190932000Y-74310000D03*
X191732000Y-74310000D03*
X192532000Y-74310000D03*
X193332000Y-74310000D03*
X194132000Y-74310000D03*
X194932000Y-74310000D03*
X195732000Y-74310000D03*
X196532000Y-74310000D03*
D11*
X198232000Y-76010000D03*
X198232000Y-76810000D03*
X198232000Y-77610000D03*
X198232000Y-78410000D03*
X198232000Y-79210000D03*
X198232000Y-80010000D03*
X198232000Y-80810000D03*
X198232000Y-81610000D03*
X198232000Y-82410000D03*
X198232000Y-83210000D03*
X198232000Y-84010000D03*
D12*
X196532000Y-85710000D03*
X195732000Y-85710000D03*
X194932000Y-85710000D03*
X194132000Y-85710000D03*
X193332000Y-85710000D03*
X192532000Y-85710000D03*
X191732000Y-85710000D03*
X190932000Y-85710000D03*
X190132000Y-85710000D03*
X189332000Y-85710000D03*
X188532000Y-85710000D03*
G04 #@! TD*
D13*
G04 #@! TO.C,F1*
X168656000Y-73914000D03*
X171056000Y-73914000D03*
G04 #@! TD*
D14*
G04 #@! TO.C,Y1*
X202146000Y-80856000D03*
X202146000Y-78656000D03*
X203746000Y-80856000D03*
X203746000Y-78656000D03*
G04 #@! TD*
D15*
G04 #@! TO.C,D1*
X194140000Y-100330000D03*
X191940000Y-100330000D03*
G04 #@! TD*
G04 #@! TO.C,D2*
X194140000Y-105156000D03*
X191940000Y-105156000D03*
G04 #@! TD*
G04 #@! TO.C,D3*
X194140000Y-109982000D03*
X191940000Y-109982000D03*
G04 #@! TD*
G04 #@! TO.C,D4*
X181948000Y-120904000D03*
X179748000Y-120904000D03*
G04 #@! TD*
G04 #@! TO.C,D5*
X151722000Y-121158000D03*
X149522000Y-121158000D03*
G04 #@! TD*
D16*
G04 #@! TO.C,R1*
X131252000Y-100330000D03*
X129352000Y-100330000D03*
G04 #@! TD*
G04 #@! TO.C,R2*
X131252000Y-105156000D03*
X129352000Y-105156000D03*
G04 #@! TD*
G04 #@! TO.C,R3*
X131252000Y-109982000D03*
X129352000Y-109982000D03*
G04 #@! TD*
G04 #@! TO.C,R4*
X171384000Y-120904000D03*
X169484000Y-120904000D03*
G04 #@! TD*
G04 #@! TO.C,R5*
X141412000Y-121158000D03*
X139512000Y-121158000D03*
G04 #@! TD*
G04 #@! TO.C,R8*
X182814000Y-78994000D03*
X180914000Y-78994000D03*
G04 #@! TD*
G04 #@! TO.C,R9*
X182814000Y-81534000D03*
X180914000Y-81534000D03*
G04 #@! TD*
G04 #@! TO.C,R10*
X202250000Y-75184000D03*
X204150000Y-75184000D03*
G04 #@! TD*
D17*
G04 #@! TO.C,C1*
X203962000Y-84090000D03*
X203962000Y-86090000D03*
G04 #@! TD*
G04 #@! TO.C,C2*
X201676000Y-84090000D03*
X201676000Y-86090000D03*
G04 #@! TD*
D18*
G04 #@! TO.C,C3*
X182864000Y-83820000D03*
X180864000Y-83820000D03*
G04 #@! TD*
D19*
G04 #@! TO.C,C4*
X135192000Y-73914000D03*
X132842000Y-73914000D03*
G04 #@! TD*
G04 #@! TO.C,C5*
X135287000Y-76962000D03*
X132937000Y-76962000D03*
G04 #@! TD*
G04 #@! TO.C,C0*
X192119000Y-93726000D03*
X194469000Y-93726000D03*
G04 #@! TD*
D15*
G04 #@! TO.C,D6*
X174668000Y-73660000D03*
X176868000Y-73660000D03*
G04 #@! TD*
G04 #@! TO.C,D7*
X174668000Y-76200000D03*
X176868000Y-76200000D03*
G04 #@! TD*
D16*
G04 #@! TO.C,R6*
X182814000Y-73660000D03*
X180914000Y-73660000D03*
G04 #@! TD*
G04 #@! TO.C,R7*
X182814000Y-76200000D03*
X180914000Y-76200000D03*
G04 #@! TD*
D20*
G04 #@! TO.C,R11*
G36*
X134633642Y-79057174D02*
X134657303Y-79060684D01*
X134680507Y-79066496D01*
X134703029Y-79074554D01*
X134724653Y-79084782D01*
X134745170Y-79097079D01*
X134764383Y-79111329D01*
X134782107Y-79127393D01*
X134798171Y-79145117D01*
X134812421Y-79164330D01*
X134824718Y-79184847D01*
X134834946Y-79206471D01*
X134843004Y-79228993D01*
X134848816Y-79252197D01*
X134852326Y-79275858D01*
X134853500Y-79299750D01*
X134853500Y-80212250D01*
X134852326Y-80236142D01*
X134848816Y-80259803D01*
X134843004Y-80283007D01*
X134834946Y-80305529D01*
X134824718Y-80327153D01*
X134812421Y-80347670D01*
X134798171Y-80366883D01*
X134782107Y-80384607D01*
X134764383Y-80400671D01*
X134745170Y-80414921D01*
X134724653Y-80427218D01*
X134703029Y-80437446D01*
X134680507Y-80445504D01*
X134657303Y-80451316D01*
X134633642Y-80454826D01*
X134609750Y-80456000D01*
X134122250Y-80456000D01*
X134098358Y-80454826D01*
X134074697Y-80451316D01*
X134051493Y-80445504D01*
X134028971Y-80437446D01*
X134007347Y-80427218D01*
X133986830Y-80414921D01*
X133967617Y-80400671D01*
X133949893Y-80384607D01*
X133933829Y-80366883D01*
X133919579Y-80347670D01*
X133907282Y-80327153D01*
X133897054Y-80305529D01*
X133888996Y-80283007D01*
X133883184Y-80259803D01*
X133879674Y-80236142D01*
X133878500Y-80212250D01*
X133878500Y-79299750D01*
X133879674Y-79275858D01*
X133883184Y-79252197D01*
X133888996Y-79228993D01*
X133897054Y-79206471D01*
X133907282Y-79184847D01*
X133919579Y-79164330D01*
X133933829Y-79145117D01*
X133949893Y-79127393D01*
X133967617Y-79111329D01*
X133986830Y-79097079D01*
X134007347Y-79084782D01*
X134028971Y-79074554D01*
X134051493Y-79066496D01*
X134074697Y-79060684D01*
X134098358Y-79057174D01*
X134122250Y-79056000D01*
X134609750Y-79056000D01*
X134633642Y-79057174D01*
X134633642Y-79057174D01*
G37*
D21*
X134366000Y-79756000D03*
D20*
G36*
X132758642Y-79057174D02*
X132782303Y-79060684D01*
X132805507Y-79066496D01*
X132828029Y-79074554D01*
X132849653Y-79084782D01*
X132870170Y-79097079D01*
X132889383Y-79111329D01*
X132907107Y-79127393D01*
X132923171Y-79145117D01*
X132937421Y-79164330D01*
X132949718Y-79184847D01*
X132959946Y-79206471D01*
X132968004Y-79228993D01*
X132973816Y-79252197D01*
X132977326Y-79275858D01*
X132978500Y-79299750D01*
X132978500Y-80212250D01*
X132977326Y-80236142D01*
X132973816Y-80259803D01*
X132968004Y-80283007D01*
X132959946Y-80305529D01*
X132949718Y-80327153D01*
X132937421Y-80347670D01*
X132923171Y-80366883D01*
X132907107Y-80384607D01*
X132889383Y-80400671D01*
X132870170Y-80414921D01*
X132849653Y-80427218D01*
X132828029Y-80437446D01*
X132805507Y-80445504D01*
X132782303Y-80451316D01*
X132758642Y-80454826D01*
X132734750Y-80456000D01*
X132247250Y-80456000D01*
X132223358Y-80454826D01*
X132199697Y-80451316D01*
X132176493Y-80445504D01*
X132153971Y-80437446D01*
X132132347Y-80427218D01*
X132111830Y-80414921D01*
X132092617Y-80400671D01*
X132074893Y-80384607D01*
X132058829Y-80366883D01*
X132044579Y-80347670D01*
X132032282Y-80327153D01*
X132022054Y-80305529D01*
X132013996Y-80283007D01*
X132008184Y-80259803D01*
X132004674Y-80236142D01*
X132003500Y-80212250D01*
X132003500Y-79299750D01*
X132004674Y-79275858D01*
X132008184Y-79252197D01*
X132013996Y-79228993D01*
X132022054Y-79206471D01*
X132032282Y-79184847D01*
X132044579Y-79164330D01*
X132058829Y-79145117D01*
X132074893Y-79127393D01*
X132092617Y-79111329D01*
X132111830Y-79097079D01*
X132132347Y-79084782D01*
X132153971Y-79074554D01*
X132176493Y-79066496D01*
X132199697Y-79060684D01*
X132223358Y-79057174D01*
X132247250Y-79056000D01*
X132734750Y-79056000D01*
X132758642Y-79057174D01*
X132758642Y-79057174D01*
G37*
D21*
X132491000Y-79756000D03*
G04 #@! TD*
D20*
G04 #@! TO.C,R12*
G36*
X125060142Y-72961174D02*
X125083803Y-72964684D01*
X125107007Y-72970496D01*
X125129529Y-72978554D01*
X125151153Y-72988782D01*
X125171670Y-73001079D01*
X125190883Y-73015329D01*
X125208607Y-73031393D01*
X125224671Y-73049117D01*
X125238921Y-73068330D01*
X125251218Y-73088847D01*
X125261446Y-73110471D01*
X125269504Y-73132993D01*
X125275316Y-73156197D01*
X125278826Y-73179858D01*
X125280000Y-73203750D01*
X125280000Y-74116250D01*
X125278826Y-74140142D01*
X125275316Y-74163803D01*
X125269504Y-74187007D01*
X125261446Y-74209529D01*
X125251218Y-74231153D01*
X125238921Y-74251670D01*
X125224671Y-74270883D01*
X125208607Y-74288607D01*
X125190883Y-74304671D01*
X125171670Y-74318921D01*
X125151153Y-74331218D01*
X125129529Y-74341446D01*
X125107007Y-74349504D01*
X125083803Y-74355316D01*
X125060142Y-74358826D01*
X125036250Y-74360000D01*
X124548750Y-74360000D01*
X124524858Y-74358826D01*
X124501197Y-74355316D01*
X124477993Y-74349504D01*
X124455471Y-74341446D01*
X124433847Y-74331218D01*
X124413330Y-74318921D01*
X124394117Y-74304671D01*
X124376393Y-74288607D01*
X124360329Y-74270883D01*
X124346079Y-74251670D01*
X124333782Y-74231153D01*
X124323554Y-74209529D01*
X124315496Y-74187007D01*
X124309684Y-74163803D01*
X124306174Y-74140142D01*
X124305000Y-74116250D01*
X124305000Y-73203750D01*
X124306174Y-73179858D01*
X124309684Y-73156197D01*
X124315496Y-73132993D01*
X124323554Y-73110471D01*
X124333782Y-73088847D01*
X124346079Y-73068330D01*
X124360329Y-73049117D01*
X124376393Y-73031393D01*
X124394117Y-73015329D01*
X124413330Y-73001079D01*
X124433847Y-72988782D01*
X124455471Y-72978554D01*
X124477993Y-72970496D01*
X124501197Y-72964684D01*
X124524858Y-72961174D01*
X124548750Y-72960000D01*
X125036250Y-72960000D01*
X125060142Y-72961174D01*
X125060142Y-72961174D01*
G37*
D21*
X124792500Y-73660000D03*
D20*
G36*
X126935142Y-72961174D02*
X126958803Y-72964684D01*
X126982007Y-72970496D01*
X127004529Y-72978554D01*
X127026153Y-72988782D01*
X127046670Y-73001079D01*
X127065883Y-73015329D01*
X127083607Y-73031393D01*
X127099671Y-73049117D01*
X127113921Y-73068330D01*
X127126218Y-73088847D01*
X127136446Y-73110471D01*
X127144504Y-73132993D01*
X127150316Y-73156197D01*
X127153826Y-73179858D01*
X127155000Y-73203750D01*
X127155000Y-74116250D01*
X127153826Y-74140142D01*
X127150316Y-74163803D01*
X127144504Y-74187007D01*
X127136446Y-74209529D01*
X127126218Y-74231153D01*
X127113921Y-74251670D01*
X127099671Y-74270883D01*
X127083607Y-74288607D01*
X127065883Y-74304671D01*
X127046670Y-74318921D01*
X127026153Y-74331218D01*
X127004529Y-74341446D01*
X126982007Y-74349504D01*
X126958803Y-74355316D01*
X126935142Y-74358826D01*
X126911250Y-74360000D01*
X126423750Y-74360000D01*
X126399858Y-74358826D01*
X126376197Y-74355316D01*
X126352993Y-74349504D01*
X126330471Y-74341446D01*
X126308847Y-74331218D01*
X126288330Y-74318921D01*
X126269117Y-74304671D01*
X126251393Y-74288607D01*
X126235329Y-74270883D01*
X126221079Y-74251670D01*
X126208782Y-74231153D01*
X126198554Y-74209529D01*
X126190496Y-74187007D01*
X126184684Y-74163803D01*
X126181174Y-74140142D01*
X126180000Y-74116250D01*
X126180000Y-73203750D01*
X126181174Y-73179858D01*
X126184684Y-73156197D01*
X126190496Y-73132993D01*
X126198554Y-73110471D01*
X126208782Y-73088847D01*
X126221079Y-73068330D01*
X126235329Y-73049117D01*
X126251393Y-73031393D01*
X126269117Y-73015329D01*
X126288330Y-73001079D01*
X126308847Y-72988782D01*
X126330471Y-72978554D01*
X126352993Y-72970496D01*
X126376197Y-72964684D01*
X126399858Y-72961174D01*
X126423750Y-72960000D01*
X126911250Y-72960000D01*
X126935142Y-72961174D01*
X126935142Y-72961174D01*
G37*
D21*
X126667500Y-73660000D03*
G04 #@! TD*
D20*
G04 #@! TO.C,R13*
G36*
X127013642Y-75501174D02*
X127037303Y-75504684D01*
X127060507Y-75510496D01*
X127083029Y-75518554D01*
X127104653Y-75528782D01*
X127125170Y-75541079D01*
X127144383Y-75555329D01*
X127162107Y-75571393D01*
X127178171Y-75589117D01*
X127192421Y-75608330D01*
X127204718Y-75628847D01*
X127214946Y-75650471D01*
X127223004Y-75672993D01*
X127228816Y-75696197D01*
X127232326Y-75719858D01*
X127233500Y-75743750D01*
X127233500Y-76656250D01*
X127232326Y-76680142D01*
X127228816Y-76703803D01*
X127223004Y-76727007D01*
X127214946Y-76749529D01*
X127204718Y-76771153D01*
X127192421Y-76791670D01*
X127178171Y-76810883D01*
X127162107Y-76828607D01*
X127144383Y-76844671D01*
X127125170Y-76858921D01*
X127104653Y-76871218D01*
X127083029Y-76881446D01*
X127060507Y-76889504D01*
X127037303Y-76895316D01*
X127013642Y-76898826D01*
X126989750Y-76900000D01*
X126502250Y-76900000D01*
X126478358Y-76898826D01*
X126454697Y-76895316D01*
X126431493Y-76889504D01*
X126408971Y-76881446D01*
X126387347Y-76871218D01*
X126366830Y-76858921D01*
X126347617Y-76844671D01*
X126329893Y-76828607D01*
X126313829Y-76810883D01*
X126299579Y-76791670D01*
X126287282Y-76771153D01*
X126277054Y-76749529D01*
X126268996Y-76727007D01*
X126263184Y-76703803D01*
X126259674Y-76680142D01*
X126258500Y-76656250D01*
X126258500Y-75743750D01*
X126259674Y-75719858D01*
X126263184Y-75696197D01*
X126268996Y-75672993D01*
X126277054Y-75650471D01*
X126287282Y-75628847D01*
X126299579Y-75608330D01*
X126313829Y-75589117D01*
X126329893Y-75571393D01*
X126347617Y-75555329D01*
X126366830Y-75541079D01*
X126387347Y-75528782D01*
X126408971Y-75518554D01*
X126431493Y-75510496D01*
X126454697Y-75504684D01*
X126478358Y-75501174D01*
X126502250Y-75500000D01*
X126989750Y-75500000D01*
X127013642Y-75501174D01*
X127013642Y-75501174D01*
G37*
D21*
X126746000Y-76200000D03*
D20*
G36*
X125138642Y-75501174D02*
X125162303Y-75504684D01*
X125185507Y-75510496D01*
X125208029Y-75518554D01*
X125229653Y-75528782D01*
X125250170Y-75541079D01*
X125269383Y-75555329D01*
X125287107Y-75571393D01*
X125303171Y-75589117D01*
X125317421Y-75608330D01*
X125329718Y-75628847D01*
X125339946Y-75650471D01*
X125348004Y-75672993D01*
X125353816Y-75696197D01*
X125357326Y-75719858D01*
X125358500Y-75743750D01*
X125358500Y-76656250D01*
X125357326Y-76680142D01*
X125353816Y-76703803D01*
X125348004Y-76727007D01*
X125339946Y-76749529D01*
X125329718Y-76771153D01*
X125317421Y-76791670D01*
X125303171Y-76810883D01*
X125287107Y-76828607D01*
X125269383Y-76844671D01*
X125250170Y-76858921D01*
X125229653Y-76871218D01*
X125208029Y-76881446D01*
X125185507Y-76889504D01*
X125162303Y-76895316D01*
X125138642Y-76898826D01*
X125114750Y-76900000D01*
X124627250Y-76900000D01*
X124603358Y-76898826D01*
X124579697Y-76895316D01*
X124556493Y-76889504D01*
X124533971Y-76881446D01*
X124512347Y-76871218D01*
X124491830Y-76858921D01*
X124472617Y-76844671D01*
X124454893Y-76828607D01*
X124438829Y-76810883D01*
X124424579Y-76791670D01*
X124412282Y-76771153D01*
X124402054Y-76749529D01*
X124393996Y-76727007D01*
X124388184Y-76703803D01*
X124384674Y-76680142D01*
X124383500Y-76656250D01*
X124383500Y-75743750D01*
X124384674Y-75719858D01*
X124388184Y-75696197D01*
X124393996Y-75672993D01*
X124402054Y-75650471D01*
X124412282Y-75628847D01*
X124424579Y-75608330D01*
X124438829Y-75589117D01*
X124454893Y-75571393D01*
X124472617Y-75555329D01*
X124491830Y-75541079D01*
X124512347Y-75528782D01*
X124533971Y-75518554D01*
X124556493Y-75510496D01*
X124579697Y-75504684D01*
X124603358Y-75501174D01*
X124627250Y-75500000D01*
X125114750Y-75500000D01*
X125138642Y-75501174D01*
X125138642Y-75501174D01*
G37*
D21*
X124871000Y-76200000D03*
G04 #@! TD*
D20*
G04 #@! TO.C,R14*
G36*
X125138642Y-78041174D02*
X125162303Y-78044684D01*
X125185507Y-78050496D01*
X125208029Y-78058554D01*
X125229653Y-78068782D01*
X125250170Y-78081079D01*
X125269383Y-78095329D01*
X125287107Y-78111393D01*
X125303171Y-78129117D01*
X125317421Y-78148330D01*
X125329718Y-78168847D01*
X125339946Y-78190471D01*
X125348004Y-78212993D01*
X125353816Y-78236197D01*
X125357326Y-78259858D01*
X125358500Y-78283750D01*
X125358500Y-79196250D01*
X125357326Y-79220142D01*
X125353816Y-79243803D01*
X125348004Y-79267007D01*
X125339946Y-79289529D01*
X125329718Y-79311153D01*
X125317421Y-79331670D01*
X125303171Y-79350883D01*
X125287107Y-79368607D01*
X125269383Y-79384671D01*
X125250170Y-79398921D01*
X125229653Y-79411218D01*
X125208029Y-79421446D01*
X125185507Y-79429504D01*
X125162303Y-79435316D01*
X125138642Y-79438826D01*
X125114750Y-79440000D01*
X124627250Y-79440000D01*
X124603358Y-79438826D01*
X124579697Y-79435316D01*
X124556493Y-79429504D01*
X124533971Y-79421446D01*
X124512347Y-79411218D01*
X124491830Y-79398921D01*
X124472617Y-79384671D01*
X124454893Y-79368607D01*
X124438829Y-79350883D01*
X124424579Y-79331670D01*
X124412282Y-79311153D01*
X124402054Y-79289529D01*
X124393996Y-79267007D01*
X124388184Y-79243803D01*
X124384674Y-79220142D01*
X124383500Y-79196250D01*
X124383500Y-78283750D01*
X124384674Y-78259858D01*
X124388184Y-78236197D01*
X124393996Y-78212993D01*
X124402054Y-78190471D01*
X124412282Y-78168847D01*
X124424579Y-78148330D01*
X124438829Y-78129117D01*
X124454893Y-78111393D01*
X124472617Y-78095329D01*
X124491830Y-78081079D01*
X124512347Y-78068782D01*
X124533971Y-78058554D01*
X124556493Y-78050496D01*
X124579697Y-78044684D01*
X124603358Y-78041174D01*
X124627250Y-78040000D01*
X125114750Y-78040000D01*
X125138642Y-78041174D01*
X125138642Y-78041174D01*
G37*
D21*
X124871000Y-78740000D03*
D20*
G36*
X127013642Y-78041174D02*
X127037303Y-78044684D01*
X127060507Y-78050496D01*
X127083029Y-78058554D01*
X127104653Y-78068782D01*
X127125170Y-78081079D01*
X127144383Y-78095329D01*
X127162107Y-78111393D01*
X127178171Y-78129117D01*
X127192421Y-78148330D01*
X127204718Y-78168847D01*
X127214946Y-78190471D01*
X127223004Y-78212993D01*
X127228816Y-78236197D01*
X127232326Y-78259858D01*
X127233500Y-78283750D01*
X127233500Y-79196250D01*
X127232326Y-79220142D01*
X127228816Y-79243803D01*
X127223004Y-79267007D01*
X127214946Y-79289529D01*
X127204718Y-79311153D01*
X127192421Y-79331670D01*
X127178171Y-79350883D01*
X127162107Y-79368607D01*
X127144383Y-79384671D01*
X127125170Y-79398921D01*
X127104653Y-79411218D01*
X127083029Y-79421446D01*
X127060507Y-79429504D01*
X127037303Y-79435316D01*
X127013642Y-79438826D01*
X126989750Y-79440000D01*
X126502250Y-79440000D01*
X126478358Y-79438826D01*
X126454697Y-79435316D01*
X126431493Y-79429504D01*
X126408971Y-79421446D01*
X126387347Y-79411218D01*
X126366830Y-79398921D01*
X126347617Y-79384671D01*
X126329893Y-79368607D01*
X126313829Y-79350883D01*
X126299579Y-79331670D01*
X126287282Y-79311153D01*
X126277054Y-79289529D01*
X126268996Y-79267007D01*
X126263184Y-79243803D01*
X126259674Y-79220142D01*
X126258500Y-79196250D01*
X126258500Y-78283750D01*
X126259674Y-78259858D01*
X126263184Y-78236197D01*
X126268996Y-78212993D01*
X126277054Y-78190471D01*
X126287282Y-78168847D01*
X126299579Y-78148330D01*
X126313829Y-78129117D01*
X126329893Y-78111393D01*
X126347617Y-78095329D01*
X126366830Y-78081079D01*
X126387347Y-78068782D01*
X126408971Y-78058554D01*
X126431493Y-78050496D01*
X126454697Y-78044684D01*
X126478358Y-78041174D01*
X126502250Y-78040000D01*
X126989750Y-78040000D01*
X127013642Y-78041174D01*
X127013642Y-78041174D01*
G37*
D21*
X126746000Y-78740000D03*
G04 #@! TD*
D20*
G04 #@! TO.C,R15*
G36*
X126935142Y-80581174D02*
X126958803Y-80584684D01*
X126982007Y-80590496D01*
X127004529Y-80598554D01*
X127026153Y-80608782D01*
X127046670Y-80621079D01*
X127065883Y-80635329D01*
X127083607Y-80651393D01*
X127099671Y-80669117D01*
X127113921Y-80688330D01*
X127126218Y-80708847D01*
X127136446Y-80730471D01*
X127144504Y-80752993D01*
X127150316Y-80776197D01*
X127153826Y-80799858D01*
X127155000Y-80823750D01*
X127155000Y-81736250D01*
X127153826Y-81760142D01*
X127150316Y-81783803D01*
X127144504Y-81807007D01*
X127136446Y-81829529D01*
X127126218Y-81851153D01*
X127113921Y-81871670D01*
X127099671Y-81890883D01*
X127083607Y-81908607D01*
X127065883Y-81924671D01*
X127046670Y-81938921D01*
X127026153Y-81951218D01*
X127004529Y-81961446D01*
X126982007Y-81969504D01*
X126958803Y-81975316D01*
X126935142Y-81978826D01*
X126911250Y-81980000D01*
X126423750Y-81980000D01*
X126399858Y-81978826D01*
X126376197Y-81975316D01*
X126352993Y-81969504D01*
X126330471Y-81961446D01*
X126308847Y-81951218D01*
X126288330Y-81938921D01*
X126269117Y-81924671D01*
X126251393Y-81908607D01*
X126235329Y-81890883D01*
X126221079Y-81871670D01*
X126208782Y-81851153D01*
X126198554Y-81829529D01*
X126190496Y-81807007D01*
X126184684Y-81783803D01*
X126181174Y-81760142D01*
X126180000Y-81736250D01*
X126180000Y-80823750D01*
X126181174Y-80799858D01*
X126184684Y-80776197D01*
X126190496Y-80752993D01*
X126198554Y-80730471D01*
X126208782Y-80708847D01*
X126221079Y-80688330D01*
X126235329Y-80669117D01*
X126251393Y-80651393D01*
X126269117Y-80635329D01*
X126288330Y-80621079D01*
X126308847Y-80608782D01*
X126330471Y-80598554D01*
X126352993Y-80590496D01*
X126376197Y-80584684D01*
X126399858Y-80581174D01*
X126423750Y-80580000D01*
X126911250Y-80580000D01*
X126935142Y-80581174D01*
X126935142Y-80581174D01*
G37*
D21*
X126667500Y-81280000D03*
D20*
G36*
X125060142Y-80581174D02*
X125083803Y-80584684D01*
X125107007Y-80590496D01*
X125129529Y-80598554D01*
X125151153Y-80608782D01*
X125171670Y-80621079D01*
X125190883Y-80635329D01*
X125208607Y-80651393D01*
X125224671Y-80669117D01*
X125238921Y-80688330D01*
X125251218Y-80708847D01*
X125261446Y-80730471D01*
X125269504Y-80752993D01*
X125275316Y-80776197D01*
X125278826Y-80799858D01*
X125280000Y-80823750D01*
X125280000Y-81736250D01*
X125278826Y-81760142D01*
X125275316Y-81783803D01*
X125269504Y-81807007D01*
X125261446Y-81829529D01*
X125251218Y-81851153D01*
X125238921Y-81871670D01*
X125224671Y-81890883D01*
X125208607Y-81908607D01*
X125190883Y-81924671D01*
X125171670Y-81938921D01*
X125151153Y-81951218D01*
X125129529Y-81961446D01*
X125107007Y-81969504D01*
X125083803Y-81975316D01*
X125060142Y-81978826D01*
X125036250Y-81980000D01*
X124548750Y-81980000D01*
X124524858Y-81978826D01*
X124501197Y-81975316D01*
X124477993Y-81969504D01*
X124455471Y-81961446D01*
X124433847Y-81951218D01*
X124413330Y-81938921D01*
X124394117Y-81924671D01*
X124376393Y-81908607D01*
X124360329Y-81890883D01*
X124346079Y-81871670D01*
X124333782Y-81851153D01*
X124323554Y-81829529D01*
X124315496Y-81807007D01*
X124309684Y-81783803D01*
X124306174Y-81760142D01*
X124305000Y-81736250D01*
X124305000Y-80823750D01*
X124306174Y-80799858D01*
X124309684Y-80776197D01*
X124315496Y-80752993D01*
X124323554Y-80730471D01*
X124333782Y-80708847D01*
X124346079Y-80688330D01*
X124360329Y-80669117D01*
X124376393Y-80651393D01*
X124394117Y-80635329D01*
X124413330Y-80621079D01*
X124433847Y-80608782D01*
X124455471Y-80598554D01*
X124477993Y-80590496D01*
X124501197Y-80584684D01*
X124524858Y-80581174D01*
X124548750Y-80580000D01*
X125036250Y-80580000D01*
X125060142Y-80581174D01*
X125060142Y-80581174D01*
G37*
D21*
X124792500Y-81280000D03*
G04 #@! TD*
M02*
