G04 #@! TF.GenerationSoftware,KiCad,Pcbnew,(5.0.1-3-g963ef8bb5)*
G04 #@! TF.CreationDate,2018-12-07T14:13:47+00:00*
G04 #@! TF.ProjectId,invitation,696E7669746174696F6E2E6B69636164,rev?*
G04 #@! TF.SameCoordinates,Original*
G04 #@! TF.FileFunction,Copper,L2,Bot,Signal*
G04 #@! TF.FilePolarity,Positive*
%FSLAX46Y46*%
G04 Gerber Fmt 4.6, Leading zero omitted, Abs format (unit mm)*
G04 Created by KiCad (PCBNEW (5.0.1-3-g963ef8bb5)) date Friday, 07 December 2018 at 14:13:47*
%MOMM*%
%LPD*%
G01*
G04 APERTURE LIST*
G04 #@! TA.AperFunction,SMDPad,CuDef*
%ADD10R,0.400000X1.350000*%
G04 #@! TD*
G04 #@! TA.AperFunction,ComponentPad*
%ADD11O,1.550000X1.250000*%
G04 #@! TD*
G04 #@! TA.AperFunction,ComponentPad*
%ADD12O,1.300000X1.850000*%
G04 #@! TD*
G04 #@! TA.AperFunction,SMDPad,CuDef*
%ADD13R,1.500000X0.550000*%
G04 #@! TD*
G04 #@! TA.AperFunction,SMDPad,CuDef*
%ADD14R,0.550000X1.500000*%
G04 #@! TD*
G04 #@! TA.AperFunction,SMDPad,CuDef*
%ADD15R,1.140000X2.030000*%
G04 #@! TD*
G04 #@! TA.AperFunction,SMDPad,CuDef*
%ADD16R,1.200000X1.400000*%
G04 #@! TD*
G04 #@! TA.AperFunction,SMDPad,CuDef*
%ADD17R,1.200000X1.200000*%
G04 #@! TD*
G04 #@! TA.AperFunction,SMDPad,CuDef*
%ADD18R,0.700000X1.300000*%
G04 #@! TD*
G04 #@! TA.AperFunction,SMDPad,CuDef*
%ADD19R,1.250000X1.000000*%
G04 #@! TD*
G04 #@! TA.AperFunction,SMDPad,CuDef*
%ADD20R,1.000000X1.250000*%
G04 #@! TD*
G04 #@! TA.AperFunction,SMDPad,CuDef*
%ADD21R,1.550000X1.800000*%
G04 #@! TD*
G04 #@! TA.AperFunction,ComponentPad*
%ADD22R,2.000000X2.000000*%
G04 #@! TD*
G04 #@! TA.AperFunction,ComponentPad*
%ADD23C,2.000000*%
G04 #@! TD*
G04 #@! TA.AperFunction,Conductor*
%ADD24C,0.100000*%
G04 #@! TD*
G04 #@! TA.AperFunction,SMDPad,CuDef*
%ADD25C,0.975000*%
G04 #@! TD*
G04 #@! TA.AperFunction,ViaPad*
%ADD26C,0.600000*%
G04 #@! TD*
G04 #@! TA.AperFunction,Conductor*
%ADD27C,0.300000*%
G04 #@! TD*
G04 #@! TA.AperFunction,Conductor*
%ADD28C,0.250000*%
G04 #@! TD*
G04 #@! TA.AperFunction,Conductor*
%ADD29C,0.125000*%
G04 #@! TD*
G04 #@! TA.AperFunction,Conductor*
%ADD30C,0.200000*%
G04 #@! TD*
G04 #@! TA.AperFunction,Conductor*
%ADD31C,0.254000*%
G04 #@! TD*
G04 APERTURE END LIST*
D10*
G04 #@! TO.P,P1,1*
G04 #@! TO.N,USBVCC*
X161005100Y-77000540D03*
G04 #@! TO.P,P1,2*
G04 #@! TO.N,/Data-*
X161655100Y-77000540D03*
G04 #@! TO.P,P1,3*
G04 #@! TO.N,/Data+*
X162305100Y-77000540D03*
G04 #@! TO.P,P1,4*
G04 #@! TO.N,Net-(P1-Pad4)*
X162955100Y-77000540D03*
G04 #@! TO.P,P1,5*
G04 #@! TO.N,GND*
X163605100Y-77000540D03*
D11*
G04 #@! TO.P,P1,6*
G04 #@! TO.N,Net-(P1-Pad6)*
X159805100Y-77000540D03*
X164805100Y-77000540D03*
D12*
X158805100Y-74300540D03*
X165805100Y-74300540D03*
G04 #@! TD*
D13*
G04 #@! TO.P,U1,1*
G04 #@! TO.N,rightArrBtn*
X186832000Y-84010000D03*
G04 #@! TO.P,U1,2*
G04 #@! TO.N,USBVCC*
X186832000Y-83210000D03*
G04 #@! TO.P,U1,3*
G04 #@! TO.N,D-*
X186832000Y-82410000D03*
G04 #@! TO.P,U1,4*
G04 #@! TO.N,D+*
X186832000Y-81610000D03*
G04 #@! TO.P,U1,5*
G04 #@! TO.N,GND*
X186832000Y-80810000D03*
G04 #@! TO.P,U1,6*
G04 #@! TO.N,Net-(C0-Pad1)*
X186832000Y-80010000D03*
G04 #@! TO.P,U1,7*
G04 #@! TO.N,USBVCC*
X186832000Y-79210000D03*
G04 #@! TO.P,U1,8*
G04 #@! TO.N,RXLED*
X186832000Y-78410000D03*
G04 #@! TO.P,U1,9*
G04 #@! TO.N,SCLK*
X186832000Y-77610000D03*
G04 #@! TO.P,U1,10*
G04 #@! TO.N,MOSI*
X186832000Y-76810000D03*
G04 #@! TO.P,U1,11*
G04 #@! TO.N,MISO*
X186832000Y-76010000D03*
D14*
G04 #@! TO.P,U1,12*
G04 #@! TO.N,powerLED*
X188532000Y-74310000D03*
G04 #@! TO.P,U1,13*
G04 #@! TO.N,RESET*
X189332000Y-74310000D03*
G04 #@! TO.P,U1,14*
G04 #@! TO.N,VCC*
X190132000Y-74310000D03*
G04 #@! TO.P,U1,15*
G04 #@! TO.N,GND*
X190932000Y-74310000D03*
G04 #@! TO.P,U1,16*
G04 #@! TO.N,XTal2*
X191732000Y-74310000D03*
G04 #@! TO.P,U1,17*
G04 #@! TO.N,XTal1*
X192532000Y-74310000D03*
G04 #@! TO.P,U1,18*
G04 #@! TO.N,Net-(U1-Pad18)*
X193332000Y-74310000D03*
G04 #@! TO.P,U1,19*
G04 #@! TO.N,Net-(U1-Pad19)*
X194132000Y-74310000D03*
G04 #@! TO.P,U1,20*
G04 #@! TO.N,Net-(U1-Pad20)*
X194932000Y-74310000D03*
G04 #@! TO.P,U1,21*
G04 #@! TO.N,Net-(U1-Pad21)*
X195732000Y-74310000D03*
G04 #@! TO.P,U1,22*
G04 #@! TO.N,TXLED*
X196532000Y-74310000D03*
D13*
G04 #@! TO.P,U1,23*
G04 #@! TO.N,GND*
X198232000Y-76010000D03*
G04 #@! TO.P,U1,24*
G04 #@! TO.N,VCC*
X198232000Y-76810000D03*
G04 #@! TO.P,U1,25*
G04 #@! TO.N,downArrBtn*
X198232000Y-77610000D03*
G04 #@! TO.P,U1,26*
G04 #@! TO.N,upArrSens*
X198232000Y-78410000D03*
G04 #@! TO.P,U1,27*
G04 #@! TO.N,downArrSens*
X198232000Y-79210000D03*
G04 #@! TO.P,U1,28*
G04 #@! TO.N,homeBtn*
X198232000Y-80010000D03*
G04 #@! TO.P,U1,29*
G04 #@! TO.N,nodeLED*
X198232000Y-80810000D03*
G04 #@! TO.P,U1,30*
G04 #@! TO.N,interactLED*
X198232000Y-81610000D03*
G04 #@! TO.P,U1,31*
G04 #@! TO.N,phoneLED*
X198232000Y-82410000D03*
G04 #@! TO.P,U1,32*
G04 #@! TO.N,emailLED*
X198232000Y-83210000D03*
G04 #@! TO.P,U1,33*
G04 #@! TO.N,GND*
X198232000Y-84010000D03*
D14*
G04 #@! TO.P,U1,34*
G04 #@! TO.N,VCC*
X196532000Y-85710000D03*
G04 #@! TO.P,U1,35*
G04 #@! TO.N,GND*
X195732000Y-85710000D03*
G04 #@! TO.P,U1,36*
G04 #@! TO.N,Net-(U1-Pad36)*
X194932000Y-85710000D03*
G04 #@! TO.P,U1,37*
G04 #@! TO.N,Net-(U1-Pad37)*
X194132000Y-85710000D03*
G04 #@! TO.P,U1,38*
G04 #@! TO.N,Net-(U1-Pad38)*
X193332000Y-85710000D03*
G04 #@! TO.P,U1,39*
G04 #@! TO.N,rightArrSens*
X192532000Y-85710000D03*
G04 #@! TO.P,U1,40*
G04 #@! TO.N,leftArrSens*
X191732000Y-85710000D03*
G04 #@! TO.P,U1,41*
G04 #@! TO.N,homeSens*
X190932000Y-85710000D03*
G04 #@! TO.P,U1,42*
G04 #@! TO.N,Net-(C3-Pad1)*
X190132000Y-85710000D03*
G04 #@! TO.P,U1,43*
G04 #@! TO.N,GND*
X189332000Y-85710000D03*
G04 #@! TO.P,U1,44*
G04 #@! TO.N,VCC*
X188532000Y-85710000D03*
G04 #@! TD*
D15*
G04 #@! TO.P,F1,1*
G04 #@! TO.N,USBVCC*
X168656000Y-73914000D03*
G04 #@! TO.P,F1,2*
G04 #@! TO.N,VCC*
X171056000Y-73914000D03*
G04 #@! TD*
D16*
G04 #@! TO.P,Y1,1*
G04 #@! TO.N,XTal1*
X202146000Y-80856000D03*
G04 #@! TO.P,Y1,3*
G04 #@! TO.N,N/C*
X202146000Y-78656000D03*
X203746000Y-80856000D03*
G04 #@! TO.P,Y1,2*
G04 #@! TO.N,XTal2*
X203746000Y-78656000D03*
G04 #@! TD*
D17*
G04 #@! TO.P,D1,2*
G04 #@! TO.N,powerLED*
X194140000Y-100330000D03*
G04 #@! TO.P,D1,1*
G04 #@! TO.N,Net-(D1-Pad1)*
X191940000Y-100330000D03*
G04 #@! TD*
G04 #@! TO.P,D2,2*
G04 #@! TO.N,nodeLED*
X194140000Y-105156000D03*
G04 #@! TO.P,D2,1*
G04 #@! TO.N,Net-(D2-Pad1)*
X191940000Y-105156000D03*
G04 #@! TD*
G04 #@! TO.P,D3,2*
G04 #@! TO.N,interactLED*
X194140000Y-109982000D03*
G04 #@! TO.P,D3,1*
G04 #@! TO.N,Net-(D3-Pad1)*
X191940000Y-109982000D03*
G04 #@! TD*
G04 #@! TO.P,D4,2*
G04 #@! TO.N,emailLED*
X181948000Y-120904000D03*
G04 #@! TO.P,D4,1*
G04 #@! TO.N,Net-(D4-Pad1)*
X179748000Y-120904000D03*
G04 #@! TD*
G04 #@! TO.P,D5,2*
G04 #@! TO.N,phoneLED*
X151722000Y-121158000D03*
G04 #@! TO.P,D5,1*
G04 #@! TO.N,Net-(D5-Pad1)*
X149522000Y-121158000D03*
G04 #@! TD*
D18*
G04 #@! TO.P,R1,1*
G04 #@! TO.N,Net-(D1-Pad1)*
X131252000Y-100330000D03*
G04 #@! TO.P,R1,2*
G04 #@! TO.N,GND*
X129352000Y-100330000D03*
G04 #@! TD*
G04 #@! TO.P,R2,1*
G04 #@! TO.N,Net-(D2-Pad1)*
X131252000Y-105156000D03*
G04 #@! TO.P,R2,2*
G04 #@! TO.N,GND*
X129352000Y-105156000D03*
G04 #@! TD*
G04 #@! TO.P,R3,1*
G04 #@! TO.N,Net-(D3-Pad1)*
X131252000Y-109982000D03*
G04 #@! TO.P,R3,2*
G04 #@! TO.N,GND*
X129352000Y-109982000D03*
G04 #@! TD*
G04 #@! TO.P,R4,1*
G04 #@! TO.N,Net-(D4-Pad1)*
X171384000Y-120904000D03*
G04 #@! TO.P,R4,2*
G04 #@! TO.N,GND*
X169484000Y-120904000D03*
G04 #@! TD*
G04 #@! TO.P,R5,1*
G04 #@! TO.N,Net-(D5-Pad1)*
X141412000Y-121158000D03*
G04 #@! TO.P,R5,2*
G04 #@! TO.N,GND*
X139512000Y-121158000D03*
G04 #@! TD*
G04 #@! TO.P,R8,1*
G04 #@! TO.N,D+*
X182814000Y-78994000D03*
G04 #@! TO.P,R8,2*
G04 #@! TO.N,/Data+*
X180914000Y-78994000D03*
G04 #@! TD*
G04 #@! TO.P,R9,1*
G04 #@! TO.N,D-*
X182814000Y-81534000D03*
G04 #@! TO.P,R9,2*
G04 #@! TO.N,/Data-*
X180914000Y-81534000D03*
G04 #@! TD*
G04 #@! TO.P,R10,1*
G04 #@! TO.N,RESET*
X202250000Y-75184000D03*
G04 #@! TO.P,R10,2*
G04 #@! TO.N,VCC*
X204150000Y-75184000D03*
G04 #@! TD*
D19*
G04 #@! TO.P,C1,1*
G04 #@! TO.N,XTal2*
X203962000Y-84090000D03*
G04 #@! TO.P,C1,2*
G04 #@! TO.N,GND*
X203962000Y-86090000D03*
G04 #@! TD*
G04 #@! TO.P,C2,1*
G04 #@! TO.N,XTal1*
X201676000Y-84090000D03*
G04 #@! TO.P,C2,2*
G04 #@! TO.N,GND*
X201676000Y-86090000D03*
G04 #@! TD*
D20*
G04 #@! TO.P,C3,1*
G04 #@! TO.N,Net-(C3-Pad1)*
X182864000Y-83820000D03*
G04 #@! TO.P,C3,2*
G04 #@! TO.N,GND*
X180864000Y-83820000D03*
G04 #@! TD*
D21*
G04 #@! TO.P,C4,1*
G04 #@! TO.N,VCC*
X135192000Y-73914000D03*
G04 #@! TO.P,C4,2*
G04 #@! TO.N,GND*
X132842000Y-73914000D03*
G04 #@! TD*
G04 #@! TO.P,C5,1*
G04 #@! TO.N,VCC*
X135287000Y-76962000D03*
G04 #@! TO.P,C5,2*
G04 #@! TO.N,GND*
X132937000Y-76962000D03*
G04 #@! TD*
D22*
G04 #@! TO.P,P3,1*
G04 #@! TO.N,GND*
X141224000Y-74168000D03*
D23*
G04 #@! TO.P,P3,2*
G04 #@! TO.N,VCC*
X141224000Y-76708000D03*
G04 #@! TO.P,P3,3*
G04 #@! TO.N,SCLK*
X141224000Y-79248000D03*
G04 #@! TD*
D22*
G04 #@! TO.P,P8,1*
G04 #@! TO.N,RESET*
X154178000Y-73914000D03*
G04 #@! TD*
G04 #@! TO.P,P9,1*
G04 #@! TO.N,MOSI*
X147828000Y-74168000D03*
D23*
G04 #@! TO.P,P9,2*
G04 #@! TO.N,MISO*
X147828000Y-76708000D03*
G04 #@! TD*
D21*
G04 #@! TO.P,C0,1*
G04 #@! TO.N,Net-(C0-Pad1)*
X192119000Y-93726000D03*
G04 #@! TO.P,C0,2*
G04 #@! TO.N,GND*
X194469000Y-93726000D03*
G04 #@! TD*
D17*
G04 #@! TO.P,D6,2*
G04 #@! TO.N,VCC*
X174668000Y-73660000D03*
G04 #@! TO.P,D6,1*
G04 #@! TO.N,Net-(D6-Pad1)*
X176868000Y-73660000D03*
G04 #@! TD*
G04 #@! TO.P,D7,2*
G04 #@! TO.N,VCC*
X174668000Y-76200000D03*
G04 #@! TO.P,D7,1*
G04 #@! TO.N,Net-(D7-Pad1)*
X176868000Y-76200000D03*
G04 #@! TD*
D18*
G04 #@! TO.P,R6,1*
G04 #@! TO.N,TXLED*
X182814000Y-73660000D03*
G04 #@! TO.P,R6,2*
G04 #@! TO.N,Net-(D6-Pad1)*
X180914000Y-73660000D03*
G04 #@! TD*
G04 #@! TO.P,R7,1*
G04 #@! TO.N,RXLED*
X182814000Y-76200000D03*
G04 #@! TO.P,R7,2*
G04 #@! TO.N,Net-(D7-Pad1)*
X180914000Y-76200000D03*
G04 #@! TD*
D24*
G04 #@! TO.N,homeSens*
G04 #@! TO.C,R11*
G36*
X134633642Y-79057174D02*
X134657303Y-79060684D01*
X134680507Y-79066496D01*
X134703029Y-79074554D01*
X134724653Y-79084782D01*
X134745170Y-79097079D01*
X134764383Y-79111329D01*
X134782107Y-79127393D01*
X134798171Y-79145117D01*
X134812421Y-79164330D01*
X134824718Y-79184847D01*
X134834946Y-79206471D01*
X134843004Y-79228993D01*
X134848816Y-79252197D01*
X134852326Y-79275858D01*
X134853500Y-79299750D01*
X134853500Y-80212250D01*
X134852326Y-80236142D01*
X134848816Y-80259803D01*
X134843004Y-80283007D01*
X134834946Y-80305529D01*
X134824718Y-80327153D01*
X134812421Y-80347670D01*
X134798171Y-80366883D01*
X134782107Y-80384607D01*
X134764383Y-80400671D01*
X134745170Y-80414921D01*
X134724653Y-80427218D01*
X134703029Y-80437446D01*
X134680507Y-80445504D01*
X134657303Y-80451316D01*
X134633642Y-80454826D01*
X134609750Y-80456000D01*
X134122250Y-80456000D01*
X134098358Y-80454826D01*
X134074697Y-80451316D01*
X134051493Y-80445504D01*
X134028971Y-80437446D01*
X134007347Y-80427218D01*
X133986830Y-80414921D01*
X133967617Y-80400671D01*
X133949893Y-80384607D01*
X133933829Y-80366883D01*
X133919579Y-80347670D01*
X133907282Y-80327153D01*
X133897054Y-80305529D01*
X133888996Y-80283007D01*
X133883184Y-80259803D01*
X133879674Y-80236142D01*
X133878500Y-80212250D01*
X133878500Y-79299750D01*
X133879674Y-79275858D01*
X133883184Y-79252197D01*
X133888996Y-79228993D01*
X133897054Y-79206471D01*
X133907282Y-79184847D01*
X133919579Y-79164330D01*
X133933829Y-79145117D01*
X133949893Y-79127393D01*
X133967617Y-79111329D01*
X133986830Y-79097079D01*
X134007347Y-79084782D01*
X134028971Y-79074554D01*
X134051493Y-79066496D01*
X134074697Y-79060684D01*
X134098358Y-79057174D01*
X134122250Y-79056000D01*
X134609750Y-79056000D01*
X134633642Y-79057174D01*
X134633642Y-79057174D01*
G37*
D25*
G04 #@! TD*
G04 #@! TO.P,R11,1*
G04 #@! TO.N,homeSens*
X134366000Y-79756000D03*
D24*
G04 #@! TO.N,homeBtn*
G04 #@! TO.C,R11*
G36*
X132758642Y-79057174D02*
X132782303Y-79060684D01*
X132805507Y-79066496D01*
X132828029Y-79074554D01*
X132849653Y-79084782D01*
X132870170Y-79097079D01*
X132889383Y-79111329D01*
X132907107Y-79127393D01*
X132923171Y-79145117D01*
X132937421Y-79164330D01*
X132949718Y-79184847D01*
X132959946Y-79206471D01*
X132968004Y-79228993D01*
X132973816Y-79252197D01*
X132977326Y-79275858D01*
X132978500Y-79299750D01*
X132978500Y-80212250D01*
X132977326Y-80236142D01*
X132973816Y-80259803D01*
X132968004Y-80283007D01*
X132959946Y-80305529D01*
X132949718Y-80327153D01*
X132937421Y-80347670D01*
X132923171Y-80366883D01*
X132907107Y-80384607D01*
X132889383Y-80400671D01*
X132870170Y-80414921D01*
X132849653Y-80427218D01*
X132828029Y-80437446D01*
X132805507Y-80445504D01*
X132782303Y-80451316D01*
X132758642Y-80454826D01*
X132734750Y-80456000D01*
X132247250Y-80456000D01*
X132223358Y-80454826D01*
X132199697Y-80451316D01*
X132176493Y-80445504D01*
X132153971Y-80437446D01*
X132132347Y-80427218D01*
X132111830Y-80414921D01*
X132092617Y-80400671D01*
X132074893Y-80384607D01*
X132058829Y-80366883D01*
X132044579Y-80347670D01*
X132032282Y-80327153D01*
X132022054Y-80305529D01*
X132013996Y-80283007D01*
X132008184Y-80259803D01*
X132004674Y-80236142D01*
X132003500Y-80212250D01*
X132003500Y-79299750D01*
X132004674Y-79275858D01*
X132008184Y-79252197D01*
X132013996Y-79228993D01*
X132022054Y-79206471D01*
X132032282Y-79184847D01*
X132044579Y-79164330D01*
X132058829Y-79145117D01*
X132074893Y-79127393D01*
X132092617Y-79111329D01*
X132111830Y-79097079D01*
X132132347Y-79084782D01*
X132153971Y-79074554D01*
X132176493Y-79066496D01*
X132199697Y-79060684D01*
X132223358Y-79057174D01*
X132247250Y-79056000D01*
X132734750Y-79056000D01*
X132758642Y-79057174D01*
X132758642Y-79057174D01*
G37*
D25*
G04 #@! TD*
G04 #@! TO.P,R11,2*
G04 #@! TO.N,homeBtn*
X132491000Y-79756000D03*
D24*
G04 #@! TO.N,homeBtn*
G04 #@! TO.C,R12*
G36*
X125060142Y-72961174D02*
X125083803Y-72964684D01*
X125107007Y-72970496D01*
X125129529Y-72978554D01*
X125151153Y-72988782D01*
X125171670Y-73001079D01*
X125190883Y-73015329D01*
X125208607Y-73031393D01*
X125224671Y-73049117D01*
X125238921Y-73068330D01*
X125251218Y-73088847D01*
X125261446Y-73110471D01*
X125269504Y-73132993D01*
X125275316Y-73156197D01*
X125278826Y-73179858D01*
X125280000Y-73203750D01*
X125280000Y-74116250D01*
X125278826Y-74140142D01*
X125275316Y-74163803D01*
X125269504Y-74187007D01*
X125261446Y-74209529D01*
X125251218Y-74231153D01*
X125238921Y-74251670D01*
X125224671Y-74270883D01*
X125208607Y-74288607D01*
X125190883Y-74304671D01*
X125171670Y-74318921D01*
X125151153Y-74331218D01*
X125129529Y-74341446D01*
X125107007Y-74349504D01*
X125083803Y-74355316D01*
X125060142Y-74358826D01*
X125036250Y-74360000D01*
X124548750Y-74360000D01*
X124524858Y-74358826D01*
X124501197Y-74355316D01*
X124477993Y-74349504D01*
X124455471Y-74341446D01*
X124433847Y-74331218D01*
X124413330Y-74318921D01*
X124394117Y-74304671D01*
X124376393Y-74288607D01*
X124360329Y-74270883D01*
X124346079Y-74251670D01*
X124333782Y-74231153D01*
X124323554Y-74209529D01*
X124315496Y-74187007D01*
X124309684Y-74163803D01*
X124306174Y-74140142D01*
X124305000Y-74116250D01*
X124305000Y-73203750D01*
X124306174Y-73179858D01*
X124309684Y-73156197D01*
X124315496Y-73132993D01*
X124323554Y-73110471D01*
X124333782Y-73088847D01*
X124346079Y-73068330D01*
X124360329Y-73049117D01*
X124376393Y-73031393D01*
X124394117Y-73015329D01*
X124413330Y-73001079D01*
X124433847Y-72988782D01*
X124455471Y-72978554D01*
X124477993Y-72970496D01*
X124501197Y-72964684D01*
X124524858Y-72961174D01*
X124548750Y-72960000D01*
X125036250Y-72960000D01*
X125060142Y-72961174D01*
X125060142Y-72961174D01*
G37*
D25*
G04 #@! TD*
G04 #@! TO.P,R12,2*
G04 #@! TO.N,homeBtn*
X124792500Y-73660000D03*
D24*
G04 #@! TO.N,leftArrSens*
G04 #@! TO.C,R12*
G36*
X126935142Y-72961174D02*
X126958803Y-72964684D01*
X126982007Y-72970496D01*
X127004529Y-72978554D01*
X127026153Y-72988782D01*
X127046670Y-73001079D01*
X127065883Y-73015329D01*
X127083607Y-73031393D01*
X127099671Y-73049117D01*
X127113921Y-73068330D01*
X127126218Y-73088847D01*
X127136446Y-73110471D01*
X127144504Y-73132993D01*
X127150316Y-73156197D01*
X127153826Y-73179858D01*
X127155000Y-73203750D01*
X127155000Y-74116250D01*
X127153826Y-74140142D01*
X127150316Y-74163803D01*
X127144504Y-74187007D01*
X127136446Y-74209529D01*
X127126218Y-74231153D01*
X127113921Y-74251670D01*
X127099671Y-74270883D01*
X127083607Y-74288607D01*
X127065883Y-74304671D01*
X127046670Y-74318921D01*
X127026153Y-74331218D01*
X127004529Y-74341446D01*
X126982007Y-74349504D01*
X126958803Y-74355316D01*
X126935142Y-74358826D01*
X126911250Y-74360000D01*
X126423750Y-74360000D01*
X126399858Y-74358826D01*
X126376197Y-74355316D01*
X126352993Y-74349504D01*
X126330471Y-74341446D01*
X126308847Y-74331218D01*
X126288330Y-74318921D01*
X126269117Y-74304671D01*
X126251393Y-74288607D01*
X126235329Y-74270883D01*
X126221079Y-74251670D01*
X126208782Y-74231153D01*
X126198554Y-74209529D01*
X126190496Y-74187007D01*
X126184684Y-74163803D01*
X126181174Y-74140142D01*
X126180000Y-74116250D01*
X126180000Y-73203750D01*
X126181174Y-73179858D01*
X126184684Y-73156197D01*
X126190496Y-73132993D01*
X126198554Y-73110471D01*
X126208782Y-73088847D01*
X126221079Y-73068330D01*
X126235329Y-73049117D01*
X126251393Y-73031393D01*
X126269117Y-73015329D01*
X126288330Y-73001079D01*
X126308847Y-72988782D01*
X126330471Y-72978554D01*
X126352993Y-72970496D01*
X126376197Y-72964684D01*
X126399858Y-72961174D01*
X126423750Y-72960000D01*
X126911250Y-72960000D01*
X126935142Y-72961174D01*
X126935142Y-72961174D01*
G37*
D25*
G04 #@! TD*
G04 #@! TO.P,R12,1*
G04 #@! TO.N,leftArrSens*
X126667500Y-73660000D03*
D24*
G04 #@! TO.N,rightArrSens*
G04 #@! TO.C,R13*
G36*
X127013642Y-75501174D02*
X127037303Y-75504684D01*
X127060507Y-75510496D01*
X127083029Y-75518554D01*
X127104653Y-75528782D01*
X127125170Y-75541079D01*
X127144383Y-75555329D01*
X127162107Y-75571393D01*
X127178171Y-75589117D01*
X127192421Y-75608330D01*
X127204718Y-75628847D01*
X127214946Y-75650471D01*
X127223004Y-75672993D01*
X127228816Y-75696197D01*
X127232326Y-75719858D01*
X127233500Y-75743750D01*
X127233500Y-76656250D01*
X127232326Y-76680142D01*
X127228816Y-76703803D01*
X127223004Y-76727007D01*
X127214946Y-76749529D01*
X127204718Y-76771153D01*
X127192421Y-76791670D01*
X127178171Y-76810883D01*
X127162107Y-76828607D01*
X127144383Y-76844671D01*
X127125170Y-76858921D01*
X127104653Y-76871218D01*
X127083029Y-76881446D01*
X127060507Y-76889504D01*
X127037303Y-76895316D01*
X127013642Y-76898826D01*
X126989750Y-76900000D01*
X126502250Y-76900000D01*
X126478358Y-76898826D01*
X126454697Y-76895316D01*
X126431493Y-76889504D01*
X126408971Y-76881446D01*
X126387347Y-76871218D01*
X126366830Y-76858921D01*
X126347617Y-76844671D01*
X126329893Y-76828607D01*
X126313829Y-76810883D01*
X126299579Y-76791670D01*
X126287282Y-76771153D01*
X126277054Y-76749529D01*
X126268996Y-76727007D01*
X126263184Y-76703803D01*
X126259674Y-76680142D01*
X126258500Y-76656250D01*
X126258500Y-75743750D01*
X126259674Y-75719858D01*
X126263184Y-75696197D01*
X126268996Y-75672993D01*
X126277054Y-75650471D01*
X126287282Y-75628847D01*
X126299579Y-75608330D01*
X126313829Y-75589117D01*
X126329893Y-75571393D01*
X126347617Y-75555329D01*
X126366830Y-75541079D01*
X126387347Y-75528782D01*
X126408971Y-75518554D01*
X126431493Y-75510496D01*
X126454697Y-75504684D01*
X126478358Y-75501174D01*
X126502250Y-75500000D01*
X126989750Y-75500000D01*
X127013642Y-75501174D01*
X127013642Y-75501174D01*
G37*
D25*
G04 #@! TD*
G04 #@! TO.P,R13,1*
G04 #@! TO.N,rightArrSens*
X126746000Y-76200000D03*
D24*
G04 #@! TO.N,rightArrBtn*
G04 #@! TO.C,R13*
G36*
X125138642Y-75501174D02*
X125162303Y-75504684D01*
X125185507Y-75510496D01*
X125208029Y-75518554D01*
X125229653Y-75528782D01*
X125250170Y-75541079D01*
X125269383Y-75555329D01*
X125287107Y-75571393D01*
X125303171Y-75589117D01*
X125317421Y-75608330D01*
X125329718Y-75628847D01*
X125339946Y-75650471D01*
X125348004Y-75672993D01*
X125353816Y-75696197D01*
X125357326Y-75719858D01*
X125358500Y-75743750D01*
X125358500Y-76656250D01*
X125357326Y-76680142D01*
X125353816Y-76703803D01*
X125348004Y-76727007D01*
X125339946Y-76749529D01*
X125329718Y-76771153D01*
X125317421Y-76791670D01*
X125303171Y-76810883D01*
X125287107Y-76828607D01*
X125269383Y-76844671D01*
X125250170Y-76858921D01*
X125229653Y-76871218D01*
X125208029Y-76881446D01*
X125185507Y-76889504D01*
X125162303Y-76895316D01*
X125138642Y-76898826D01*
X125114750Y-76900000D01*
X124627250Y-76900000D01*
X124603358Y-76898826D01*
X124579697Y-76895316D01*
X124556493Y-76889504D01*
X124533971Y-76881446D01*
X124512347Y-76871218D01*
X124491830Y-76858921D01*
X124472617Y-76844671D01*
X124454893Y-76828607D01*
X124438829Y-76810883D01*
X124424579Y-76791670D01*
X124412282Y-76771153D01*
X124402054Y-76749529D01*
X124393996Y-76727007D01*
X124388184Y-76703803D01*
X124384674Y-76680142D01*
X124383500Y-76656250D01*
X124383500Y-75743750D01*
X124384674Y-75719858D01*
X124388184Y-75696197D01*
X124393996Y-75672993D01*
X124402054Y-75650471D01*
X124412282Y-75628847D01*
X124424579Y-75608330D01*
X124438829Y-75589117D01*
X124454893Y-75571393D01*
X124472617Y-75555329D01*
X124491830Y-75541079D01*
X124512347Y-75528782D01*
X124533971Y-75518554D01*
X124556493Y-75510496D01*
X124579697Y-75504684D01*
X124603358Y-75501174D01*
X124627250Y-75500000D01*
X125114750Y-75500000D01*
X125138642Y-75501174D01*
X125138642Y-75501174D01*
G37*
D25*
G04 #@! TD*
G04 #@! TO.P,R13,2*
G04 #@! TO.N,rightArrBtn*
X124871000Y-76200000D03*
D24*
G04 #@! TO.N,rightArrBtn*
G04 #@! TO.C,R14*
G36*
X125138642Y-78041174D02*
X125162303Y-78044684D01*
X125185507Y-78050496D01*
X125208029Y-78058554D01*
X125229653Y-78068782D01*
X125250170Y-78081079D01*
X125269383Y-78095329D01*
X125287107Y-78111393D01*
X125303171Y-78129117D01*
X125317421Y-78148330D01*
X125329718Y-78168847D01*
X125339946Y-78190471D01*
X125348004Y-78212993D01*
X125353816Y-78236197D01*
X125357326Y-78259858D01*
X125358500Y-78283750D01*
X125358500Y-79196250D01*
X125357326Y-79220142D01*
X125353816Y-79243803D01*
X125348004Y-79267007D01*
X125339946Y-79289529D01*
X125329718Y-79311153D01*
X125317421Y-79331670D01*
X125303171Y-79350883D01*
X125287107Y-79368607D01*
X125269383Y-79384671D01*
X125250170Y-79398921D01*
X125229653Y-79411218D01*
X125208029Y-79421446D01*
X125185507Y-79429504D01*
X125162303Y-79435316D01*
X125138642Y-79438826D01*
X125114750Y-79440000D01*
X124627250Y-79440000D01*
X124603358Y-79438826D01*
X124579697Y-79435316D01*
X124556493Y-79429504D01*
X124533971Y-79421446D01*
X124512347Y-79411218D01*
X124491830Y-79398921D01*
X124472617Y-79384671D01*
X124454893Y-79368607D01*
X124438829Y-79350883D01*
X124424579Y-79331670D01*
X124412282Y-79311153D01*
X124402054Y-79289529D01*
X124393996Y-79267007D01*
X124388184Y-79243803D01*
X124384674Y-79220142D01*
X124383500Y-79196250D01*
X124383500Y-78283750D01*
X124384674Y-78259858D01*
X124388184Y-78236197D01*
X124393996Y-78212993D01*
X124402054Y-78190471D01*
X124412282Y-78168847D01*
X124424579Y-78148330D01*
X124438829Y-78129117D01*
X124454893Y-78111393D01*
X124472617Y-78095329D01*
X124491830Y-78081079D01*
X124512347Y-78068782D01*
X124533971Y-78058554D01*
X124556493Y-78050496D01*
X124579697Y-78044684D01*
X124603358Y-78041174D01*
X124627250Y-78040000D01*
X125114750Y-78040000D01*
X125138642Y-78041174D01*
X125138642Y-78041174D01*
G37*
D25*
G04 #@! TD*
G04 #@! TO.P,R14,2*
G04 #@! TO.N,rightArrBtn*
X124871000Y-78740000D03*
D24*
G04 #@! TO.N,upArrSens*
G04 #@! TO.C,R14*
G36*
X127013642Y-78041174D02*
X127037303Y-78044684D01*
X127060507Y-78050496D01*
X127083029Y-78058554D01*
X127104653Y-78068782D01*
X127125170Y-78081079D01*
X127144383Y-78095329D01*
X127162107Y-78111393D01*
X127178171Y-78129117D01*
X127192421Y-78148330D01*
X127204718Y-78168847D01*
X127214946Y-78190471D01*
X127223004Y-78212993D01*
X127228816Y-78236197D01*
X127232326Y-78259858D01*
X127233500Y-78283750D01*
X127233500Y-79196250D01*
X127232326Y-79220142D01*
X127228816Y-79243803D01*
X127223004Y-79267007D01*
X127214946Y-79289529D01*
X127204718Y-79311153D01*
X127192421Y-79331670D01*
X127178171Y-79350883D01*
X127162107Y-79368607D01*
X127144383Y-79384671D01*
X127125170Y-79398921D01*
X127104653Y-79411218D01*
X127083029Y-79421446D01*
X127060507Y-79429504D01*
X127037303Y-79435316D01*
X127013642Y-79438826D01*
X126989750Y-79440000D01*
X126502250Y-79440000D01*
X126478358Y-79438826D01*
X126454697Y-79435316D01*
X126431493Y-79429504D01*
X126408971Y-79421446D01*
X126387347Y-79411218D01*
X126366830Y-79398921D01*
X126347617Y-79384671D01*
X126329893Y-79368607D01*
X126313829Y-79350883D01*
X126299579Y-79331670D01*
X126287282Y-79311153D01*
X126277054Y-79289529D01*
X126268996Y-79267007D01*
X126263184Y-79243803D01*
X126259674Y-79220142D01*
X126258500Y-79196250D01*
X126258500Y-78283750D01*
X126259674Y-78259858D01*
X126263184Y-78236197D01*
X126268996Y-78212993D01*
X126277054Y-78190471D01*
X126287282Y-78168847D01*
X126299579Y-78148330D01*
X126313829Y-78129117D01*
X126329893Y-78111393D01*
X126347617Y-78095329D01*
X126366830Y-78081079D01*
X126387347Y-78068782D01*
X126408971Y-78058554D01*
X126431493Y-78050496D01*
X126454697Y-78044684D01*
X126478358Y-78041174D01*
X126502250Y-78040000D01*
X126989750Y-78040000D01*
X127013642Y-78041174D01*
X127013642Y-78041174D01*
G37*
D25*
G04 #@! TD*
G04 #@! TO.P,R14,1*
G04 #@! TO.N,upArrSens*
X126746000Y-78740000D03*
D24*
G04 #@! TO.N,downArrSens*
G04 #@! TO.C,R15*
G36*
X126935142Y-80581174D02*
X126958803Y-80584684D01*
X126982007Y-80590496D01*
X127004529Y-80598554D01*
X127026153Y-80608782D01*
X127046670Y-80621079D01*
X127065883Y-80635329D01*
X127083607Y-80651393D01*
X127099671Y-80669117D01*
X127113921Y-80688330D01*
X127126218Y-80708847D01*
X127136446Y-80730471D01*
X127144504Y-80752993D01*
X127150316Y-80776197D01*
X127153826Y-80799858D01*
X127155000Y-80823750D01*
X127155000Y-81736250D01*
X127153826Y-81760142D01*
X127150316Y-81783803D01*
X127144504Y-81807007D01*
X127136446Y-81829529D01*
X127126218Y-81851153D01*
X127113921Y-81871670D01*
X127099671Y-81890883D01*
X127083607Y-81908607D01*
X127065883Y-81924671D01*
X127046670Y-81938921D01*
X127026153Y-81951218D01*
X127004529Y-81961446D01*
X126982007Y-81969504D01*
X126958803Y-81975316D01*
X126935142Y-81978826D01*
X126911250Y-81980000D01*
X126423750Y-81980000D01*
X126399858Y-81978826D01*
X126376197Y-81975316D01*
X126352993Y-81969504D01*
X126330471Y-81961446D01*
X126308847Y-81951218D01*
X126288330Y-81938921D01*
X126269117Y-81924671D01*
X126251393Y-81908607D01*
X126235329Y-81890883D01*
X126221079Y-81871670D01*
X126208782Y-81851153D01*
X126198554Y-81829529D01*
X126190496Y-81807007D01*
X126184684Y-81783803D01*
X126181174Y-81760142D01*
X126180000Y-81736250D01*
X126180000Y-80823750D01*
X126181174Y-80799858D01*
X126184684Y-80776197D01*
X126190496Y-80752993D01*
X126198554Y-80730471D01*
X126208782Y-80708847D01*
X126221079Y-80688330D01*
X126235329Y-80669117D01*
X126251393Y-80651393D01*
X126269117Y-80635329D01*
X126288330Y-80621079D01*
X126308847Y-80608782D01*
X126330471Y-80598554D01*
X126352993Y-80590496D01*
X126376197Y-80584684D01*
X126399858Y-80581174D01*
X126423750Y-80580000D01*
X126911250Y-80580000D01*
X126935142Y-80581174D01*
X126935142Y-80581174D01*
G37*
D25*
G04 #@! TD*
G04 #@! TO.P,R15,1*
G04 #@! TO.N,downArrSens*
X126667500Y-81280000D03*
D24*
G04 #@! TO.N,downArrBtn*
G04 #@! TO.C,R15*
G36*
X125060142Y-80581174D02*
X125083803Y-80584684D01*
X125107007Y-80590496D01*
X125129529Y-80598554D01*
X125151153Y-80608782D01*
X125171670Y-80621079D01*
X125190883Y-80635329D01*
X125208607Y-80651393D01*
X125224671Y-80669117D01*
X125238921Y-80688330D01*
X125251218Y-80708847D01*
X125261446Y-80730471D01*
X125269504Y-80752993D01*
X125275316Y-80776197D01*
X125278826Y-80799858D01*
X125280000Y-80823750D01*
X125280000Y-81736250D01*
X125278826Y-81760142D01*
X125275316Y-81783803D01*
X125269504Y-81807007D01*
X125261446Y-81829529D01*
X125251218Y-81851153D01*
X125238921Y-81871670D01*
X125224671Y-81890883D01*
X125208607Y-81908607D01*
X125190883Y-81924671D01*
X125171670Y-81938921D01*
X125151153Y-81951218D01*
X125129529Y-81961446D01*
X125107007Y-81969504D01*
X125083803Y-81975316D01*
X125060142Y-81978826D01*
X125036250Y-81980000D01*
X124548750Y-81980000D01*
X124524858Y-81978826D01*
X124501197Y-81975316D01*
X124477993Y-81969504D01*
X124455471Y-81961446D01*
X124433847Y-81951218D01*
X124413330Y-81938921D01*
X124394117Y-81924671D01*
X124376393Y-81908607D01*
X124360329Y-81890883D01*
X124346079Y-81871670D01*
X124333782Y-81851153D01*
X124323554Y-81829529D01*
X124315496Y-81807007D01*
X124309684Y-81783803D01*
X124306174Y-81760142D01*
X124305000Y-81736250D01*
X124305000Y-80823750D01*
X124306174Y-80799858D01*
X124309684Y-80776197D01*
X124315496Y-80752993D01*
X124323554Y-80730471D01*
X124333782Y-80708847D01*
X124346079Y-80688330D01*
X124360329Y-80669117D01*
X124376393Y-80651393D01*
X124394117Y-80635329D01*
X124413330Y-80621079D01*
X124433847Y-80608782D01*
X124455471Y-80598554D01*
X124477993Y-80590496D01*
X124501197Y-80584684D01*
X124524858Y-80581174D01*
X124548750Y-80580000D01*
X125036250Y-80580000D01*
X125060142Y-80581174D01*
X125060142Y-80581174D01*
G37*
D25*
G04 #@! TD*
G04 #@! TO.P,R15,2*
G04 #@! TO.N,downArrBtn*
X124792500Y-81280000D03*
D26*
G04 #@! TO.N,GND*
X191008000Y-75438000D03*
X199898000Y-76200000D03*
X195580000Y-91440000D03*
X198374000Y-84836000D03*
X201676000Y-87884000D03*
X179578000Y-83820000D03*
X185674000Y-80772000D03*
X172720000Y-78232000D03*
X161500000Y-72650000D03*
X195326000Y-84328000D03*
G04 #@! TO.N,VCC*
X195834000Y-76810000D03*
X172466000Y-73152000D03*
X163322000Y-72898000D03*
X188468000Y-87122000D03*
X202946000Y-76454000D03*
X194818000Y-88392000D03*
G04 #@! TO.N,interactLED*
X195580000Y-109982000D03*
X198882000Y-109982000D03*
G04 #@! TO.N,SCLK*
X189230000Y-83058000D03*
G04 #@! TO.N,MISO*
X185420000Y-75946000D03*
G04 #@! TO.N,MOSI*
X185166000Y-77216000D03*
G04 #@! TO.N,RESET*
X190500000Y-72136000D03*
X186690000Y-73914000D03*
G04 #@! TO.N,TXLED*
X196532000Y-72898000D03*
X191262000Y-72644000D03*
G04 #@! TO.N,Net-(C0-Pad1)*
X192024000Y-89662000D03*
X189230000Y-81534000D03*
G04 #@! TO.N,homeSens*
X135890000Y-79756000D03*
X187210000Y-93960000D03*
G04 #@! TO.N,leftArrSens*
X191516000Y-87376000D03*
X128016000Y-73406000D03*
G04 #@! TO.N,rightArrSens*
X189500000Y-96230000D03*
G04 #@! TO.N,upArrSens*
X153630000Y-79502000D03*
X125730000Y-77470000D03*
G04 #@! TO.N,downArrSens*
X184658000Y-82550000D03*
X192278000Y-78994000D03*
X128016000Y-77724000D03*
X128778000Y-76200000D03*
G04 #@! TO.N,downArrBtn*
X190246000Y-83566000D03*
X132334000Y-81236000D03*
X196088000Y-78442000D03*
X196850000Y-77470000D03*
G04 #@! TO.N,powerLED*
X194564000Y-101854000D03*
X187452000Y-73914000D03*
G04 #@! TO.N,homeBtn*
X129032000Y-74930000D03*
X131064000Y-79248000D03*
X121202000Y-74422000D03*
G04 #@! TO.N,rightArrBtn*
X182626000Y-87630000D03*
X184912000Y-85046000D03*
G04 #@! TD*
D27*
G04 #@! TO.N,USBVCC*
X187668000Y-79210000D02*
X186832000Y-79210000D01*
X187706000Y-79248000D02*
X187668000Y-79210000D01*
X189992000Y-79248000D02*
X187706000Y-79248000D01*
X189992000Y-81788000D02*
X189992000Y-79248000D01*
X188214000Y-83210000D02*
X188214000Y-83058000D01*
X186832000Y-83210000D02*
X188214000Y-83210000D01*
X188976000Y-82296000D02*
X189484000Y-82296000D01*
X188214000Y-83058000D02*
X188976000Y-82296000D01*
X189484000Y-82296000D02*
X189992000Y-81788000D01*
X183896000Y-78994000D02*
X184112000Y-79210000D01*
X183896000Y-77978000D02*
X183896000Y-78994000D01*
X183388000Y-77470000D02*
X183896000Y-77978000D01*
X180340000Y-77470000D02*
X183388000Y-77470000D01*
X179832000Y-77978000D02*
X180340000Y-77470000D01*
X168218000Y-76016000D02*
X169672000Y-77470000D01*
X173482000Y-77978000D02*
X179832000Y-77978000D01*
X172974000Y-77470000D02*
X173482000Y-77978000D01*
X169672000Y-77470000D02*
X172974000Y-77470000D01*
X184112000Y-79210000D02*
X186832000Y-79210000D01*
X168218000Y-74098000D02*
X168218000Y-73914000D01*
X168656000Y-74359000D02*
X168656000Y-73914000D01*
X161290000Y-75692000D02*
X168218000Y-75692000D01*
X161005100Y-75976900D02*
X161290000Y-75692000D01*
X161005100Y-77000540D02*
X161005100Y-75976900D01*
X168218000Y-75692000D02*
X168218000Y-76016000D01*
X168218000Y-73914000D02*
X168218000Y-75692000D01*
G04 #@! TO.N,GND*
X195072000Y-91440000D02*
X195072000Y-93123000D01*
X195072000Y-93123000D02*
X194469000Y-93726000D01*
X190932000Y-75362000D02*
X190932000Y-74310000D01*
X191008000Y-75438000D02*
X190932000Y-75362000D01*
X199708000Y-76010000D02*
X198232000Y-76010000D01*
X199898000Y-76200000D02*
X199708000Y-76010000D01*
X195580000Y-91440000D02*
X195072000Y-91440000D01*
X195732000Y-84684000D02*
X195732000Y-85710000D01*
X201676000Y-86090000D02*
X201676000Y-87884000D01*
X198232000Y-84694000D02*
X198232000Y-84010000D01*
X198374000Y-84836000D02*
X198232000Y-84694000D01*
X186832000Y-80810000D02*
X185712000Y-80810000D01*
X179578000Y-83820000D02*
X180864000Y-83820000D01*
X185712000Y-80810000D02*
X185674000Y-80772000D01*
X163746264Y-78232000D02*
X172720000Y-78232000D01*
X138430000Y-74168000D02*
X141224000Y-74168000D01*
X136398000Y-72136000D02*
X138430000Y-74168000D01*
X132842000Y-72390000D02*
X133096000Y-72136000D01*
X133096000Y-72136000D02*
X136398000Y-72136000D01*
X132842000Y-73914000D02*
X132842000Y-72390000D01*
X141224000Y-72868000D02*
X142210000Y-71882000D01*
X141224000Y-74168000D02*
X141224000Y-72868000D01*
X132937000Y-74009000D02*
X132842000Y-73914000D01*
X132937000Y-76962000D02*
X132937000Y-74009000D01*
X168834000Y-120904000D02*
X167056000Y-119126000D01*
X169484000Y-120904000D02*
X168834000Y-120904000D01*
X167056000Y-119126000D02*
X139700000Y-119126000D01*
X139512000Y-119314000D02*
X139512000Y-121158000D01*
X139700000Y-119126000D02*
X139512000Y-119314000D01*
X139512000Y-119314000D02*
X132268000Y-119314000D01*
X129352000Y-116398000D02*
X129352000Y-109982000D01*
X132268000Y-119314000D02*
X129352000Y-116398000D01*
X129352000Y-109982000D02*
X129352000Y-105156000D01*
X129352000Y-104206000D02*
X129352000Y-100330000D01*
X129352000Y-105156000D02*
X129352000Y-104206000D01*
X121920000Y-82550000D02*
X121920000Y-72390000D01*
X122174000Y-82804000D02*
X121920000Y-82550000D01*
X125222000Y-82804000D02*
X122174000Y-82804000D01*
X129352000Y-86934000D02*
X125222000Y-82804000D01*
X129352000Y-100330000D02*
X129352000Y-86934000D01*
X122428000Y-71882000D02*
X132334000Y-71882000D01*
X121920000Y-72390000D02*
X122428000Y-71882000D01*
X132334000Y-71882000D02*
X132842000Y-72390000D01*
X195732000Y-85710000D02*
X195732000Y-84660000D01*
X203962000Y-86090000D02*
X201676000Y-86090000D01*
X163605100Y-78090836D02*
X163605100Y-77000540D01*
X163746264Y-78232000D02*
X163605100Y-78090836D01*
X142210000Y-71882000D02*
X142240000Y-71882000D01*
X142240000Y-71882000D02*
X142494000Y-71628000D01*
X160478000Y-71628000D02*
X161500000Y-72650000D01*
X142494000Y-71628000D02*
X160478000Y-71628000D01*
X195400000Y-84328000D02*
X195326000Y-84328000D01*
X195732000Y-84660000D02*
X195400000Y-84328000D01*
X189332000Y-87528000D02*
X189332000Y-85710000D01*
X188722000Y-88138000D02*
X189332000Y-87528000D01*
X182626000Y-86360000D02*
X186182000Y-86360000D01*
X187960000Y-88138000D02*
X188722000Y-88138000D01*
X186182000Y-86360000D02*
X187960000Y-88138000D01*
X180864000Y-84598000D02*
X182626000Y-86360000D01*
X180864000Y-83820000D02*
X180864000Y-84598000D01*
G04 #@! TO.N,VCC*
X190132000Y-75360000D02*
X190246000Y-75474000D01*
X190132000Y-74310000D02*
X190132000Y-75360000D01*
X190246000Y-75946000D02*
X191110000Y-76810000D01*
X191110000Y-76810000D02*
X195834000Y-76810000D01*
X195834000Y-76810000D02*
X198232000Y-76810000D01*
X204216000Y-75250000D02*
X204150000Y-75184000D01*
X170872000Y-73660000D02*
X170618000Y-73914000D01*
X174668000Y-74930000D02*
X174668000Y-76200000D01*
X190246000Y-75692000D02*
X190246000Y-75946000D01*
X190246000Y-75474000D02*
X190246000Y-75692000D01*
X170618000Y-73914000D02*
X170618000Y-73082000D01*
X135541000Y-76708000D02*
X135287000Y-76962000D01*
X141224000Y-76708000D02*
X135541000Y-76708000D01*
X135287000Y-74009000D02*
X135192000Y-73914000D01*
X135287000Y-76962000D02*
X135287000Y-74009000D01*
X174668000Y-73660000D02*
X172466000Y-73660000D01*
X172466000Y-73660000D02*
X172466000Y-73152000D01*
X172466000Y-73660000D02*
X170872000Y-73660000D01*
X196532000Y-85710000D02*
X196532000Y-85280000D01*
X196532000Y-85253999D02*
X196342000Y-85063999D01*
X196532000Y-85280000D02*
X196532000Y-85253999D01*
X196342000Y-85063999D02*
X196320992Y-85042991D01*
X188532000Y-87058000D02*
X188468000Y-87122000D01*
X188532000Y-85710000D02*
X188532000Y-87058000D01*
X174668000Y-74676000D02*
X174668000Y-74930000D01*
X174668000Y-73660000D02*
X174668000Y-74676000D01*
X204150000Y-75484000D02*
X203454000Y-76180000D01*
X204150000Y-75184000D02*
X204150000Y-75484000D01*
X203454000Y-76180000D02*
X203454000Y-76454000D01*
X203454000Y-76454000D02*
X202946000Y-76454000D01*
X155448000Y-72136000D02*
X160154000Y-72136000D01*
X144272000Y-72390000D02*
X155194000Y-72390000D01*
X155194000Y-72390000D02*
X155448000Y-72136000D01*
X143764000Y-72898000D02*
X144272000Y-72390000D01*
X143764000Y-76200000D02*
X143764000Y-72898000D01*
X143256000Y-76708000D02*
X143764000Y-76200000D01*
X141224000Y-76708000D02*
X143256000Y-76708000D01*
X163202000Y-73526000D02*
X163322000Y-73406000D01*
X161544000Y-73526000D02*
X163202000Y-73526000D01*
X163322000Y-73406000D02*
X163322000Y-72898000D01*
X160154000Y-72136000D02*
X161544000Y-73526000D01*
X194818000Y-88392000D02*
X196342000Y-88392000D01*
X196532000Y-88202000D02*
X196532000Y-85710000D01*
X196342000Y-88392000D02*
X196532000Y-88202000D01*
X188782527Y-72644000D02*
X188944517Y-72805990D01*
X184404000Y-74168000D02*
X185928000Y-72644000D01*
X185928000Y-72644000D02*
X188782527Y-72644000D01*
X184404000Y-74676000D02*
X184404000Y-74168000D01*
X174668000Y-74676000D02*
X184404000Y-74676000D01*
X188944517Y-72805990D02*
X189645990Y-72805990D01*
X189992000Y-73152000D02*
X190132000Y-73152000D01*
X189645990Y-72805990D02*
X189992000Y-73152000D01*
X190132000Y-73152000D02*
X190132000Y-74310000D01*
D28*
G04 #@! TO.N,Net-(D2-Pad1)*
X131252000Y-105156000D02*
X191940000Y-105156000D01*
G04 #@! TO.N,Net-(D3-Pad1)*
X131252000Y-109982000D02*
X191940000Y-109982000D01*
G04 #@! TO.N,Net-(P1-Pad6)*
X159296540Y-77000540D02*
X159297100Y-77000540D01*
D29*
G04 #@! TO.N,D+*
X182814000Y-78994000D02*
X182814000Y-80111500D01*
X182814000Y-80111500D02*
X183705166Y-80111500D01*
X183705166Y-80111500D02*
X185451166Y-81857500D01*
X185459500Y-81857500D02*
X185707000Y-81610000D01*
X185451166Y-81857500D02*
X185459500Y-81857500D01*
X185707000Y-81610000D02*
X186832000Y-81610000D01*
D28*
X182814000Y-78994000D02*
X183134000Y-78994000D01*
D29*
G04 #@! TO.N,D-*
X182814000Y-81534000D02*
X182814000Y-80416500D01*
X182814000Y-80416500D02*
X183578834Y-80416500D01*
X183578834Y-80416500D02*
X185324834Y-82162500D01*
X185324834Y-82162500D02*
X185459500Y-82162500D01*
X185459500Y-82162500D02*
X185707000Y-82410000D01*
X185707000Y-82410000D02*
X186832000Y-82410000D01*
D28*
G04 #@! TO.N,nodeLED*
X195796000Y-80810000D02*
X198232000Y-80810000D01*
X195580000Y-81026000D02*
X195796000Y-80810000D01*
X196596000Y-105156000D02*
X197104000Y-104648000D01*
X195580000Y-82296000D02*
X195580000Y-81026000D01*
X197104000Y-104648000D02*
X197104000Y-84836000D01*
X194140000Y-105156000D02*
X196596000Y-105156000D01*
X195834000Y-82550000D02*
X195834000Y-84074000D01*
X195834000Y-82550000D02*
X195580000Y-82296000D01*
X196342000Y-84582000D02*
X196824828Y-84582000D01*
X195834000Y-84074000D02*
X196342000Y-84582000D01*
X197104000Y-84836000D02*
X196824828Y-84582000D01*
G04 #@! TO.N,interactLED*
X198882000Y-106680000D02*
X198882000Y-109982000D01*
X195580000Y-109982000D02*
X194140000Y-109982000D01*
X198882000Y-106680000D02*
X198882000Y-92202000D01*
X198882000Y-92202000D02*
X199898000Y-91186000D01*
X199898000Y-91186000D02*
X199898000Y-82296000D01*
X199898000Y-82296000D02*
X199212000Y-81610000D01*
X199212000Y-81610000D02*
X198232000Y-81610000D01*
G04 #@! TO.N,Net-(D1-Pad1)*
X191940000Y-100330000D02*
X131252000Y-100330000D01*
G04 #@! TO.N,Net-(D4-Pad1)*
X179748000Y-120904000D02*
X171384000Y-120904000D01*
G04 #@! TO.N,Net-(D5-Pad1)*
X149522000Y-121158000D02*
X141412000Y-121158000D01*
G04 #@! TO.N,SCLK*
X187307000Y-77610000D02*
X186832000Y-77610000D01*
X187421000Y-77724000D02*
X187307000Y-77610000D01*
X188976000Y-78486000D02*
X188214000Y-77724000D01*
X190500000Y-78486000D02*
X188976000Y-78486000D01*
X188214000Y-77724000D02*
X187421000Y-77724000D01*
X190500000Y-82296000D02*
X190500000Y-78486000D01*
X189738000Y-83058000D02*
X190500000Y-82296000D01*
X189738000Y-83058000D02*
X189230000Y-83058000D01*
G04 #@! TO.N,MISO*
X186832000Y-76010000D02*
X185484000Y-76010000D01*
X185484000Y-76010000D02*
X185420000Y-75946000D01*
G04 #@! TO.N,MOSI*
X185572000Y-76810000D02*
X186832000Y-76810000D01*
X185166000Y-77216000D02*
X185572000Y-76810000D01*
G04 #@! TO.N,RESET*
X199248000Y-71882000D02*
X198473567Y-71882000D01*
X202250000Y-74884000D02*
X199248000Y-71882000D01*
X202250000Y-75184000D02*
X202250000Y-74884000D01*
X198473567Y-71882000D02*
X191262000Y-71882000D01*
X191262000Y-71882000D02*
X191081000Y-71701000D01*
X189332000Y-73310000D02*
X189332000Y-74310000D01*
X189230000Y-73208000D02*
X189332000Y-73310000D01*
X188778000Y-73208000D02*
X189230000Y-73208000D01*
X187027736Y-73152000D02*
X188722000Y-73152000D01*
X186690000Y-73489736D02*
X187027736Y-73152000D01*
X186690000Y-73914000D02*
X186690000Y-73489736D01*
X188722000Y-73152000D02*
X188778000Y-73208000D01*
X190500000Y-71701000D02*
X190500000Y-72136000D01*
X191081000Y-71701000D02*
X190500000Y-71701000D01*
X154940000Y-73152000D02*
X154178000Y-73914000D01*
X155956000Y-73152000D02*
X154940000Y-73152000D01*
X156569990Y-72538010D02*
X155956000Y-73152000D01*
X163842000Y-73902000D02*
X163842000Y-74168000D01*
X159914010Y-72538010D02*
X156569990Y-72538010D01*
X176784000Y-71882000D02*
X167386000Y-71882000D01*
X163842000Y-74168000D02*
X161544000Y-74168000D01*
X165354000Y-72390000D02*
X163842000Y-73902000D01*
X176965000Y-71701000D02*
X176784000Y-71882000D01*
X161544000Y-74168000D02*
X159914010Y-72538010D01*
X166878000Y-72390000D02*
X165354000Y-72390000D01*
X167386000Y-71882000D02*
X166878000Y-72390000D01*
X190500000Y-71701000D02*
X176965000Y-71701000D01*
D30*
G04 #@! TO.N,/Data-*
X161655100Y-77000540D02*
X161655100Y-78013041D01*
X161755100Y-78113041D02*
X161755100Y-79269300D01*
X161655100Y-78013041D02*
X161755100Y-78113041D01*
X179938999Y-81534000D02*
X180914000Y-81534000D01*
X178893999Y-80489000D02*
X179938999Y-81534000D01*
X162974800Y-80489000D02*
X178893999Y-80489000D01*
X161755100Y-79269300D02*
X162974800Y-80489000D01*
G04 #@! TO.N,/Data+*
X162305100Y-78013041D02*
X162305100Y-77000540D01*
X163161200Y-80039000D02*
X162205100Y-79082900D01*
X173872756Y-80031478D02*
X173806000Y-80039000D01*
X173936165Y-80009290D02*
X173872756Y-80031478D01*
X174098478Y-79805756D02*
X174076290Y-79869165D01*
X174106000Y-79739000D02*
X174098478Y-79805756D01*
X174106000Y-79706773D02*
X174106000Y-79739000D01*
X173806000Y-80039000D02*
X163161200Y-80039000D01*
X174113521Y-79640016D02*
X174106000Y-79706773D01*
X173993046Y-79973549D02*
X173936165Y-80009290D01*
X174339243Y-79414294D02*
X174275834Y-79436482D01*
X174135709Y-79576607D02*
X174113521Y-79640016D01*
X174171450Y-79519726D02*
X174135709Y-79576607D01*
X174593046Y-79472223D02*
X174536165Y-79436482D01*
X174735709Y-79869165D02*
X174713521Y-79805756D01*
X174218953Y-79472223D02*
X174171450Y-79519726D01*
X174640549Y-79519726D02*
X174593046Y-79472223D01*
X174706000Y-79739000D02*
X174706000Y-79706773D01*
X174406000Y-79406773D02*
X174339243Y-79414294D01*
X174698478Y-79640016D02*
X174676290Y-79576607D01*
X174706000Y-79706773D02*
X174698478Y-79640016D01*
X174275834Y-79436482D02*
X174218953Y-79472223D01*
X174875834Y-80009290D02*
X174818953Y-79973549D01*
X174771450Y-79926046D02*
X174735709Y-79869165D01*
X174676290Y-79576607D02*
X174640549Y-79519726D01*
X174040549Y-79926046D02*
X173993046Y-79973549D01*
X175006000Y-80039000D02*
X174939243Y-80031478D01*
X174818953Y-79973549D02*
X174771450Y-79926046D01*
X174076290Y-79869165D02*
X174040549Y-79926046D01*
X174713521Y-79805756D02*
X174706000Y-79739000D01*
X162205100Y-78113041D02*
X162305100Y-78013041D01*
X162205100Y-79082900D02*
X162205100Y-78113041D01*
X174472756Y-79414294D02*
X174406000Y-79406773D01*
X178893999Y-80039000D02*
X175006000Y-80039000D01*
X180914000Y-78994000D02*
X179938999Y-78994000D01*
X174536165Y-79436482D02*
X174472756Y-79414294D01*
X179938999Y-78994000D02*
X178893999Y-80039000D01*
X174939243Y-80031478D02*
X174875834Y-80009290D01*
D28*
G04 #@! TO.N,XTal1*
X201676000Y-83566000D02*
X202400000Y-82842000D01*
X201676000Y-84090000D02*
X201676000Y-83566000D01*
X202400000Y-80810000D02*
X202400000Y-80856000D01*
X192532000Y-74310000D02*
X192532000Y-75184000D01*
X192532000Y-75184000D02*
X192786000Y-75438000D01*
X192786000Y-75438000D02*
X195580000Y-75438000D01*
X195580000Y-75438000D02*
X196850000Y-75438000D01*
X200660000Y-80772000D02*
X200744000Y-80856000D01*
X200660000Y-75438000D02*
X200660000Y-80772000D01*
X200744000Y-80856000D02*
X202146000Y-80856000D01*
X197104000Y-75438000D02*
X197866000Y-74676000D01*
X199898000Y-74676000D02*
X200660000Y-75438000D01*
X197866000Y-74676000D02*
X199898000Y-74676000D01*
X195580000Y-75438000D02*
X197104000Y-75438000D01*
X202400000Y-82842000D02*
X202400000Y-80856000D01*
G04 #@! TO.N,XTal2*
X203454000Y-77216000D02*
X203746000Y-77508000D01*
X201168000Y-75946000D02*
X202438000Y-77216000D01*
X201168000Y-75184000D02*
X201168000Y-75946000D01*
X202438000Y-77216000D02*
X203454000Y-77216000D01*
X198329999Y-72345999D02*
X201168000Y-75184000D01*
X194100001Y-72345999D02*
X198329999Y-72345999D01*
X203746000Y-77508000D02*
X203746000Y-78656000D01*
X193548000Y-72898000D02*
X194100001Y-72345999D01*
X192144000Y-72898000D02*
X193548000Y-72898000D01*
X191732000Y-73310000D02*
X192144000Y-72898000D01*
X191732000Y-74310000D02*
X191732000Y-73310000D01*
X204596000Y-78656000D02*
X204724000Y-78784000D01*
X203746000Y-78656000D02*
X204596000Y-78656000D01*
X204724000Y-78784000D02*
X204724000Y-82296000D01*
X203962000Y-83058000D02*
X203962000Y-84090000D01*
X204724000Y-82296000D02*
X203962000Y-83058000D01*
G04 #@! TO.N,phoneLED*
X198120000Y-122174000D02*
X152738000Y-122174000D01*
X152738000Y-122174000D02*
X151722000Y-121158000D01*
X198232000Y-82410000D02*
X198996000Y-82410000D01*
X198120000Y-91694000D02*
X198120000Y-122174000D01*
X199390000Y-90424000D02*
X198120000Y-91694000D01*
X199390000Y-82804000D02*
X199390000Y-90424000D01*
X198996000Y-82410000D02*
X199390000Y-82804000D01*
G04 #@! TO.N,Net-(D6-Pad1)*
X180914000Y-73660000D02*
X176868000Y-73660000D01*
G04 #@! TO.N,emailLED*
X197206000Y-84404828D02*
X197206000Y-83210000D01*
X197612000Y-84810828D02*
X197206000Y-84404828D01*
X197612000Y-121412000D02*
X197612000Y-84810828D01*
X182626000Y-121412000D02*
X197612000Y-121412000D01*
X182118000Y-120904000D02*
X182626000Y-121412000D01*
X197206000Y-83210000D02*
X198232000Y-83210000D01*
X181948000Y-120904000D02*
X182118000Y-120904000D01*
G04 #@! TO.N,Net-(D7-Pad1)*
X176868000Y-76200000D02*
X180914000Y-76200000D01*
G04 #@! TO.N,TXLED*
X196532000Y-72898000D02*
X196532000Y-74310000D01*
X190808962Y-72644000D02*
X191262000Y-72644000D01*
X190235039Y-72688001D02*
X190764961Y-72688001D01*
X189951018Y-72403980D02*
X190235039Y-72688001D01*
X189111034Y-72403980D02*
X189951018Y-72403980D01*
X184404000Y-72136000D02*
X188843054Y-72136000D01*
X188843054Y-72136000D02*
X189111034Y-72403980D01*
X190764961Y-72688001D02*
X190808962Y-72644000D01*
X184150000Y-72390000D02*
X184404000Y-72136000D01*
X184084000Y-72390000D02*
X184150000Y-72390000D01*
X182814000Y-73660000D02*
X184084000Y-72390000D01*
G04 #@! TO.N,RXLED*
X182814000Y-76200000D02*
X183134000Y-76200000D01*
X183134000Y-76200000D02*
X185344000Y-78410000D01*
X185344000Y-78410000D02*
X186832000Y-78410000D01*
G04 #@! TO.N,Net-(C3-Pad1)*
X190132000Y-84468000D02*
X190132000Y-85710000D01*
X186690000Y-85852000D02*
X188214000Y-84328000D01*
X189992000Y-84328000D02*
X190132000Y-84468000D01*
X188214000Y-84328000D02*
X189992000Y-84328000D01*
X183896000Y-85852000D02*
X186690000Y-85852000D01*
X182864000Y-84820000D02*
X183896000Y-85852000D01*
X182864000Y-83820000D02*
X182864000Y-84820000D01*
G04 #@! TO.N,Net-(C0-Pad1)*
X192119000Y-93726000D02*
X192119000Y-91440000D01*
X192024000Y-89662000D02*
X192119000Y-89757000D01*
X192119000Y-89757000D02*
X192119000Y-91440000D01*
X187706000Y-80010000D02*
X187960000Y-80264000D01*
X187706000Y-80010000D02*
X186832000Y-80010000D01*
X187960000Y-80264000D02*
X189230000Y-81534000D01*
G04 #@! TO.N,homeSens*
X135890000Y-79756000D02*
X134366000Y-79756000D01*
X190932000Y-87198000D02*
X190932000Y-85710000D01*
X190500000Y-87630000D02*
X190932000Y-87198000D01*
X189992000Y-87630000D02*
X190500000Y-87630000D01*
X187198000Y-90424000D02*
X189992000Y-87630000D01*
X187198000Y-93523736D02*
X187198000Y-90424000D01*
X187210000Y-93535736D02*
X187198000Y-93523736D01*
X187210000Y-93960000D02*
X187210000Y-93535736D01*
G04 #@! TO.N,leftArrSens*
X191732000Y-87160000D02*
X191732000Y-85710000D01*
X191516000Y-87376000D02*
X191732000Y-87160000D01*
X126746000Y-73581500D02*
X126667500Y-73660000D01*
X127762000Y-73660000D02*
X128016000Y-73406000D01*
X126667500Y-73660000D02*
X127762000Y-73660000D01*
G04 #@! TO.N,rightArrSens*
X192532000Y-85710000D02*
X192532000Y-87376000D01*
X188570000Y-95300000D02*
X189500000Y-96230000D01*
X187960000Y-90424000D02*
X187960000Y-95300000D01*
X187960000Y-95300000D02*
X188570000Y-95300000D01*
X192532000Y-87376000D02*
X191516000Y-88392000D01*
X191516000Y-88392000D02*
X189992000Y-88392000D01*
X189992000Y-88392000D02*
X187960000Y-90424000D01*
X183642000Y-86868000D02*
X186436000Y-89662000D01*
X145796000Y-86868000D02*
X183642000Y-86868000D01*
X141224000Y-82296000D02*
X145796000Y-86868000D01*
X131572000Y-82296000D02*
X141224000Y-82296000D01*
X129032000Y-79756000D02*
X131572000Y-82296000D01*
X129032000Y-77470000D02*
X129032000Y-79756000D01*
X127762000Y-76200000D02*
X129032000Y-77470000D01*
X126746000Y-76200000D02*
X127762000Y-76200000D01*
X187950000Y-95290000D02*
X187960000Y-95300000D01*
X186436000Y-95290000D02*
X187950000Y-95290000D01*
X186436000Y-89662000D02*
X186436000Y-95290000D01*
G04 #@! TO.N,upArrSens*
X195072000Y-77470000D02*
X195326000Y-77470000D01*
X196872962Y-78410000D02*
X198232000Y-78410000D01*
X195932962Y-77470000D02*
X196872962Y-78410000D01*
X195072000Y-77470000D02*
X195932962Y-77470000D01*
X126746000Y-78486000D02*
X125730000Y-77470000D01*
X126746000Y-78740000D02*
X126746000Y-78486000D01*
X189738000Y-77470000D02*
X195072000Y-77470000D01*
X175768000Y-77470000D02*
X175768000Y-75438000D01*
X173736000Y-77470000D02*
X175768000Y-77470000D01*
X159529020Y-72915020D02*
X161594000Y-74980000D01*
X173228000Y-76962000D02*
X173736000Y-77470000D01*
X169926000Y-76962000D02*
X173228000Y-76962000D01*
X167640000Y-72390000D02*
X169926000Y-72390000D01*
X189738000Y-77216000D02*
X189738000Y-77470000D01*
X175768000Y-75438000D02*
X176022000Y-75184000D01*
X176022000Y-75184000D02*
X187706000Y-75184000D01*
X156740000Y-75260000D02*
X156740000Y-73130000D01*
X156954980Y-72915020D02*
X159529020Y-72915020D01*
X169926000Y-72390000D02*
X169926000Y-76962000D01*
X153630000Y-78370000D02*
X156740000Y-75260000D01*
X156740000Y-73130000D02*
X156954980Y-72915020D01*
X187706000Y-75184000D02*
X189738000Y-77216000D01*
X153630000Y-79502000D02*
X153630000Y-78370000D01*
X164219010Y-74590990D02*
X164219010Y-74058162D01*
X161594000Y-74980000D02*
X163830000Y-74980000D01*
X163830000Y-74980000D02*
X164219010Y-74590990D01*
X164219010Y-74058162D02*
X165379172Y-72898000D01*
X165379172Y-72898000D02*
X167640000Y-72898000D01*
X167640000Y-72898000D02*
X167640000Y-72390000D01*
G04 #@! TO.N,downArrSens*
X129540000Y-76962000D02*
X129540000Y-79502000D01*
X131826000Y-81788000D02*
X178816000Y-81788000D01*
X129540000Y-79502000D02*
X131826000Y-81788000D01*
X126667500Y-81280000D02*
X128016000Y-79931500D01*
X178816000Y-81788000D02*
X179578000Y-82550000D01*
X179578000Y-82550000D02*
X184658000Y-82550000D01*
X128016000Y-79931500D02*
X128016000Y-77978000D01*
X128016000Y-77978000D02*
X128016000Y-77724000D01*
X128778000Y-76200000D02*
X129540000Y-76962000D01*
X192278000Y-78994000D02*
X192786000Y-78994000D01*
X192786000Y-78994000D02*
X193040000Y-79248000D01*
X193078000Y-79210000D02*
X198232000Y-79210000D01*
X193040000Y-79248000D02*
X193078000Y-79210000D01*
G04 #@! TO.N,downArrBtn*
X191008000Y-80518000D02*
X191008000Y-83058000D01*
X190246000Y-83566000D02*
X190670264Y-83566000D01*
X190670264Y-83566000D02*
X191008000Y-83228264D01*
X191008000Y-83228264D02*
X191008000Y-83058000D01*
X191008000Y-80518000D02*
X191008000Y-78740000D01*
X195907023Y-78261023D02*
X196088000Y-78442000D01*
X191486977Y-78261023D02*
X195907023Y-78261023D01*
X191008000Y-78740000D02*
X191486977Y-78261023D01*
X198092000Y-77470000D02*
X198232000Y-77610000D01*
X196850000Y-77470000D02*
X198092000Y-77470000D01*
X122682000Y-81026000D02*
X122936000Y-81280000D01*
X122682000Y-73152000D02*
X122682000Y-81026000D01*
X123444000Y-72390000D02*
X122682000Y-73152000D01*
X129794000Y-72390000D02*
X123444000Y-72390000D01*
X130048000Y-72644000D02*
X129794000Y-72390000D01*
X131826000Y-81026000D02*
X130048000Y-79248000D01*
X132124000Y-81026000D02*
X131826000Y-81026000D01*
X130048000Y-79248000D02*
X130048000Y-72644000D01*
X122936000Y-81280000D02*
X124792500Y-81280000D01*
X132334000Y-81236000D02*
X132124000Y-81026000D01*
G04 #@! TO.N,powerLED*
X194564000Y-100754000D02*
X194140000Y-100330000D01*
X194564000Y-101854000D02*
X194564000Y-100754000D01*
X188136000Y-73914000D02*
X188532000Y-74310000D01*
X187452000Y-73914000D02*
X188136000Y-73914000D01*
G04 #@! TO.N,homeBtn*
X124871000Y-73738500D02*
X124792500Y-73660000D01*
X124792500Y-74460000D02*
X125262500Y-74930000D01*
X124792500Y-73660000D02*
X124792500Y-74460000D01*
X125262500Y-74930000D02*
X129032000Y-74930000D01*
X131983000Y-79248000D02*
X132491000Y-79756000D01*
X131064000Y-79248000D02*
X131983000Y-79248000D01*
X199232000Y-80010000D02*
X200406000Y-81184000D01*
X198232000Y-80010000D02*
X199232000Y-80010000D01*
X200406000Y-81184000D02*
X200406000Y-123698000D01*
X200406000Y-123698000D02*
X193040000Y-123698000D01*
X193040000Y-123698000D02*
X136083473Y-123698000D01*
X136083473Y-123698000D02*
X132842000Y-123698000D01*
X132842000Y-123698000D02*
X126492000Y-117348000D01*
X126492000Y-117348000D02*
X126492000Y-86106000D01*
X126492000Y-86106000D02*
X124460000Y-84074000D01*
X124460000Y-84074000D02*
X121920000Y-84074000D01*
X121920000Y-84074000D02*
X120904000Y-83058000D01*
X120904000Y-83058000D02*
X120904000Y-74676000D01*
X120948000Y-74676000D02*
X121202000Y-74422000D01*
X120904000Y-74676000D02*
X120948000Y-74676000D01*
G04 #@! TO.N,rightArrBtn*
X124871000Y-76200000D02*
X124871000Y-78740000D01*
X185230000Y-84010000D02*
X186832000Y-84010000D01*
X184912000Y-84328000D02*
X185230000Y-84010000D01*
X184912000Y-85046000D02*
X184912000Y-84328000D01*
X124871000Y-79957388D02*
X124871000Y-78740000D01*
X124923612Y-80010000D02*
X124871000Y-79957388D01*
X125730000Y-80010000D02*
X124923612Y-80010000D01*
X140970000Y-82804000D02*
X126492000Y-82804000D01*
X125730000Y-82042000D02*
X125730000Y-80010000D01*
X182626000Y-87630000D02*
X145796000Y-87630000D01*
X126492000Y-82804000D02*
X125730000Y-82042000D01*
X145796000Y-87630000D02*
X140970000Y-82804000D01*
G04 #@! TD*
D31*
G04 #@! TO.N,GND*
G36*
X122197530Y-72561669D02*
X122134071Y-72604071D01*
X121966096Y-72855464D01*
X121922000Y-73077149D01*
X121922000Y-73077153D01*
X121907112Y-73152000D01*
X121922000Y-73226847D01*
X121922000Y-73819710D01*
X121731635Y-73629345D01*
X121387983Y-73487000D01*
X121016017Y-73487000D01*
X120672365Y-73629345D01*
X120409345Y-73892365D01*
X120267000Y-74236017D01*
X120267000Y-74261375D01*
X120188096Y-74379463D01*
X120129111Y-74676000D01*
X120144001Y-74750857D01*
X120144000Y-82983153D01*
X120129112Y-83058000D01*
X120144000Y-83132847D01*
X120144000Y-83132851D01*
X120188096Y-83354536D01*
X120356071Y-83605929D01*
X120419530Y-83648331D01*
X121329670Y-84558472D01*
X121372071Y-84621929D01*
X121623463Y-84789904D01*
X121845148Y-84834000D01*
X121845153Y-84834000D01*
X121920000Y-84848888D01*
X121994847Y-84834000D01*
X124145199Y-84834000D01*
X125732001Y-86420803D01*
X125732000Y-117273153D01*
X125717112Y-117348000D01*
X125732000Y-117422847D01*
X125732000Y-117422851D01*
X125776096Y-117644536D01*
X125944071Y-117895929D01*
X126007530Y-117938331D01*
X132251671Y-124182473D01*
X132294071Y-124245929D01*
X132545463Y-124413904D01*
X132767148Y-124458000D01*
X132767152Y-124458000D01*
X132841999Y-124472888D01*
X132916846Y-124458000D01*
X200331148Y-124458000D01*
X200406000Y-124472889D01*
X200702537Y-124413904D01*
X200953929Y-124245929D01*
X201121904Y-123994537D01*
X201166000Y-123772852D01*
X201180889Y-123698000D01*
X201166000Y-123623148D01*
X201166000Y-87225000D01*
X201390250Y-87225000D01*
X201549000Y-87066250D01*
X201549000Y-86217000D01*
X201803000Y-86217000D01*
X201803000Y-87066250D01*
X201961750Y-87225000D01*
X202427310Y-87225000D01*
X202660699Y-87128327D01*
X202819000Y-86970025D01*
X202977301Y-87128327D01*
X203210690Y-87225000D01*
X203676250Y-87225000D01*
X203835000Y-87066250D01*
X203835000Y-86217000D01*
X202860750Y-86217000D01*
X202819000Y-86258750D01*
X202777250Y-86217000D01*
X201803000Y-86217000D01*
X201549000Y-86217000D01*
X201529000Y-86217000D01*
X201529000Y-85963000D01*
X201549000Y-85963000D01*
X201549000Y-85943000D01*
X201803000Y-85943000D01*
X201803000Y-85963000D01*
X202777250Y-85963000D01*
X202819000Y-85921250D01*
X202860750Y-85963000D01*
X203835000Y-85963000D01*
X203835000Y-85943000D01*
X204089000Y-85943000D01*
X204089000Y-85963000D01*
X204109000Y-85963000D01*
X204109000Y-86217000D01*
X204089000Y-86217000D01*
X204089000Y-87066250D01*
X204247750Y-87225000D01*
X204535000Y-87225000D01*
X204535001Y-127129065D01*
X204500074Y-127304655D01*
X204440225Y-127394226D01*
X204350655Y-127454074D01*
X204175070Y-127489000D01*
X122286248Y-127489000D01*
X121726244Y-127423711D01*
X120122024Y-126020018D01*
X120015000Y-125666653D01*
X120015000Y-72836340D01*
X120108829Y-72629976D01*
X120940387Y-71964729D01*
X121078917Y-71923300D01*
X121271348Y-71909000D01*
X122850198Y-71909000D01*
X122197530Y-72561669D01*
X122197530Y-72561669D01*
G37*
X122197530Y-72561669D02*
X122134071Y-72604071D01*
X121966096Y-72855464D01*
X121922000Y-73077149D01*
X121922000Y-73077153D01*
X121907112Y-73152000D01*
X121922000Y-73226847D01*
X121922000Y-73819710D01*
X121731635Y-73629345D01*
X121387983Y-73487000D01*
X121016017Y-73487000D01*
X120672365Y-73629345D01*
X120409345Y-73892365D01*
X120267000Y-74236017D01*
X120267000Y-74261375D01*
X120188096Y-74379463D01*
X120129111Y-74676000D01*
X120144001Y-74750857D01*
X120144000Y-82983153D01*
X120129112Y-83058000D01*
X120144000Y-83132847D01*
X120144000Y-83132851D01*
X120188096Y-83354536D01*
X120356071Y-83605929D01*
X120419530Y-83648331D01*
X121329670Y-84558472D01*
X121372071Y-84621929D01*
X121623463Y-84789904D01*
X121845148Y-84834000D01*
X121845153Y-84834000D01*
X121920000Y-84848888D01*
X121994847Y-84834000D01*
X124145199Y-84834000D01*
X125732001Y-86420803D01*
X125732000Y-117273153D01*
X125717112Y-117348000D01*
X125732000Y-117422847D01*
X125732000Y-117422851D01*
X125776096Y-117644536D01*
X125944071Y-117895929D01*
X126007530Y-117938331D01*
X132251671Y-124182473D01*
X132294071Y-124245929D01*
X132545463Y-124413904D01*
X132767148Y-124458000D01*
X132767152Y-124458000D01*
X132841999Y-124472888D01*
X132916846Y-124458000D01*
X200331148Y-124458000D01*
X200406000Y-124472889D01*
X200702537Y-124413904D01*
X200953929Y-124245929D01*
X201121904Y-123994537D01*
X201166000Y-123772852D01*
X201180889Y-123698000D01*
X201166000Y-123623148D01*
X201166000Y-87225000D01*
X201390250Y-87225000D01*
X201549000Y-87066250D01*
X201549000Y-86217000D01*
X201803000Y-86217000D01*
X201803000Y-87066250D01*
X201961750Y-87225000D01*
X202427310Y-87225000D01*
X202660699Y-87128327D01*
X202819000Y-86970025D01*
X202977301Y-87128327D01*
X203210690Y-87225000D01*
X203676250Y-87225000D01*
X203835000Y-87066250D01*
X203835000Y-86217000D01*
X202860750Y-86217000D01*
X202819000Y-86258750D01*
X202777250Y-86217000D01*
X201803000Y-86217000D01*
X201549000Y-86217000D01*
X201529000Y-86217000D01*
X201529000Y-85963000D01*
X201549000Y-85963000D01*
X201549000Y-85943000D01*
X201803000Y-85943000D01*
X201803000Y-85963000D01*
X202777250Y-85963000D01*
X202819000Y-85921250D01*
X202860750Y-85963000D01*
X203835000Y-85963000D01*
X203835000Y-85943000D01*
X204089000Y-85943000D01*
X204089000Y-85963000D01*
X204109000Y-85963000D01*
X204109000Y-86217000D01*
X204089000Y-86217000D01*
X204089000Y-87066250D01*
X204247750Y-87225000D01*
X204535000Y-87225000D01*
X204535001Y-127129065D01*
X204500074Y-127304655D01*
X204440225Y-127394226D01*
X204350655Y-127454074D01*
X204175070Y-127489000D01*
X122286248Y-127489000D01*
X121726244Y-127423711D01*
X120122024Y-126020018D01*
X120015000Y-125666653D01*
X120015000Y-72836340D01*
X120108829Y-72629976D01*
X120940387Y-71964729D01*
X121078917Y-71923300D01*
X121271348Y-71909000D01*
X122850198Y-71909000D01*
X122197530Y-72561669D01*
G36*
X121922001Y-80951148D02*
X121907112Y-81026000D01*
X121966097Y-81322537D01*
X122080713Y-81494071D01*
X122134072Y-81573929D01*
X122197528Y-81616329D01*
X122345669Y-81764470D01*
X122388071Y-81827929D01*
X122639463Y-81995904D01*
X122861148Y-82040000D01*
X122861152Y-82040000D01*
X122935999Y-82054888D01*
X123010846Y-82040000D01*
X123717980Y-82040000D01*
X123725398Y-82077294D01*
X123918584Y-82366416D01*
X124207706Y-82559602D01*
X124548750Y-82627440D01*
X125036250Y-82627440D01*
X125191880Y-82596483D01*
X125245530Y-82632331D01*
X125901670Y-83288472D01*
X125944071Y-83351929D01*
X126007527Y-83394329D01*
X126195462Y-83519904D01*
X126243605Y-83529480D01*
X126417148Y-83564000D01*
X126417152Y-83564000D01*
X126492000Y-83578888D01*
X126566848Y-83564000D01*
X140655199Y-83564000D01*
X145205671Y-88114473D01*
X145248071Y-88177929D01*
X145311527Y-88220329D01*
X145499462Y-88345904D01*
X145547605Y-88355480D01*
X145721148Y-88390000D01*
X145721152Y-88390000D01*
X145796000Y-88404888D01*
X145870848Y-88390000D01*
X182063710Y-88390000D01*
X182096365Y-88422655D01*
X182440017Y-88565000D01*
X182811983Y-88565000D01*
X183155635Y-88422655D01*
X183418655Y-88159635D01*
X183547580Y-87848381D01*
X185676000Y-89976802D01*
X185676001Y-95215143D01*
X185661111Y-95290000D01*
X185720096Y-95586537D01*
X185888071Y-95837929D01*
X186139463Y-96005904D01*
X186361148Y-96050000D01*
X186436000Y-96064889D01*
X186510852Y-96050000D01*
X187834875Y-96050000D01*
X187885148Y-96060000D01*
X187960000Y-96074889D01*
X188034852Y-96060000D01*
X188255199Y-96060000D01*
X188565000Y-96369802D01*
X188565000Y-96415983D01*
X188707345Y-96759635D01*
X188970365Y-97022655D01*
X189314017Y-97165000D01*
X189685983Y-97165000D01*
X190029635Y-97022655D01*
X190292655Y-96759635D01*
X190435000Y-96415983D01*
X190435000Y-96044017D01*
X190292655Y-95700365D01*
X190029635Y-95437345D01*
X189685983Y-95295000D01*
X189639802Y-95295000D01*
X189160331Y-94815530D01*
X189117929Y-94752071D01*
X188866537Y-94584096D01*
X188720000Y-94554948D01*
X188720000Y-90738801D01*
X190306802Y-89152000D01*
X191223212Y-89152000D01*
X191089000Y-89476017D01*
X191089000Y-89847983D01*
X191231345Y-90191635D01*
X191359000Y-90319290D01*
X191359001Y-91365148D01*
X191359001Y-92178560D01*
X191344000Y-92178560D01*
X191096235Y-92227843D01*
X190886191Y-92368191D01*
X190745843Y-92578235D01*
X190696560Y-92826000D01*
X190696560Y-94626000D01*
X190745843Y-94873765D01*
X190886191Y-95083809D01*
X191096235Y-95224157D01*
X191344000Y-95273440D01*
X192894000Y-95273440D01*
X193141765Y-95224157D01*
X193293047Y-95123073D01*
X193334302Y-95164327D01*
X193567691Y-95261000D01*
X194183250Y-95261000D01*
X194342000Y-95102250D01*
X194342000Y-93853000D01*
X194596000Y-93853000D01*
X194596000Y-95102250D01*
X194754750Y-95261000D01*
X195370309Y-95261000D01*
X195603698Y-95164327D01*
X195782327Y-94985699D01*
X195879000Y-94752310D01*
X195879000Y-94011750D01*
X195720250Y-93853000D01*
X194596000Y-93853000D01*
X194342000Y-93853000D01*
X194322000Y-93853000D01*
X194322000Y-93599000D01*
X194342000Y-93599000D01*
X194342000Y-92349750D01*
X194596000Y-92349750D01*
X194596000Y-93599000D01*
X195720250Y-93599000D01*
X195879000Y-93440250D01*
X195879000Y-92699690D01*
X195782327Y-92466301D01*
X195603698Y-92287673D01*
X195370309Y-92191000D01*
X194754750Y-92191000D01*
X194596000Y-92349750D01*
X194342000Y-92349750D01*
X194183250Y-92191000D01*
X193567691Y-92191000D01*
X193334302Y-92287673D01*
X193293047Y-92328927D01*
X193141765Y-92227843D01*
X192894000Y-92178560D01*
X192879000Y-92178560D01*
X192879000Y-90041121D01*
X192959000Y-89847983D01*
X192959000Y-89476017D01*
X192816655Y-89132365D01*
X192553635Y-88869345D01*
X192242381Y-88740420D01*
X193016473Y-87966329D01*
X193079929Y-87923929D01*
X193247904Y-87672537D01*
X193292000Y-87450852D01*
X193292000Y-87450847D01*
X193306888Y-87376000D01*
X193292000Y-87301153D01*
X193292000Y-87107440D01*
X193607000Y-87107440D01*
X193732000Y-87082576D01*
X193857000Y-87107440D01*
X194407000Y-87107440D01*
X194532000Y-87082576D01*
X194657000Y-87107440D01*
X195207000Y-87107440D01*
X195310852Y-87086783D01*
X195330690Y-87095000D01*
X195446250Y-87095000D01*
X195540138Y-87001112D01*
X195664809Y-86917809D01*
X195732000Y-86817251D01*
X195747001Y-86839701D01*
X195747000Y-87607000D01*
X195355290Y-87607000D01*
X195347635Y-87599345D01*
X195003983Y-87457000D01*
X194632017Y-87457000D01*
X194288365Y-87599345D01*
X194025345Y-87862365D01*
X193883000Y-88206017D01*
X193883000Y-88577983D01*
X194025345Y-88921635D01*
X194288365Y-89184655D01*
X194632017Y-89327000D01*
X195003983Y-89327000D01*
X195347635Y-89184655D01*
X195355290Y-89177000D01*
X196264688Y-89177000D01*
X196342000Y-89192378D01*
X196344001Y-89191980D01*
X196344000Y-104333198D01*
X196281198Y-104396000D01*
X195355614Y-104396000D01*
X195338157Y-104308235D01*
X195197809Y-104098191D01*
X194987765Y-103957843D01*
X194740000Y-103908560D01*
X193540000Y-103908560D01*
X193292235Y-103957843D01*
X193082191Y-104098191D01*
X193040000Y-104161334D01*
X192997809Y-104098191D01*
X192787765Y-103957843D01*
X192540000Y-103908560D01*
X191340000Y-103908560D01*
X191092235Y-103957843D01*
X190882191Y-104098191D01*
X190741843Y-104308235D01*
X190724386Y-104396000D01*
X132227560Y-104396000D01*
X132200157Y-104258235D01*
X132059809Y-104048191D01*
X131849765Y-103907843D01*
X131602000Y-103858560D01*
X130902000Y-103858560D01*
X130654235Y-103907843D01*
X130444191Y-104048191D01*
X130303843Y-104258235D01*
X130298279Y-104286209D01*
X130240327Y-104146301D01*
X130061698Y-103967673D01*
X129828309Y-103871000D01*
X129637750Y-103871000D01*
X129479000Y-104029750D01*
X129479000Y-105029000D01*
X129499000Y-105029000D01*
X129499000Y-105283000D01*
X129479000Y-105283000D01*
X129479000Y-106282250D01*
X129637750Y-106441000D01*
X129828309Y-106441000D01*
X130061698Y-106344327D01*
X130240327Y-106165699D01*
X130298279Y-106025791D01*
X130303843Y-106053765D01*
X130444191Y-106263809D01*
X130654235Y-106404157D01*
X130902000Y-106453440D01*
X131602000Y-106453440D01*
X131849765Y-106404157D01*
X132059809Y-106263809D01*
X132200157Y-106053765D01*
X132227560Y-105916000D01*
X190724386Y-105916000D01*
X190741843Y-106003765D01*
X190882191Y-106213809D01*
X191092235Y-106354157D01*
X191340000Y-106403440D01*
X192540000Y-106403440D01*
X192787765Y-106354157D01*
X192997809Y-106213809D01*
X193040000Y-106150666D01*
X193082191Y-106213809D01*
X193292235Y-106354157D01*
X193540000Y-106403440D01*
X194740000Y-106403440D01*
X194987765Y-106354157D01*
X195197809Y-106213809D01*
X195338157Y-106003765D01*
X195355614Y-105916000D01*
X196521153Y-105916000D01*
X196596000Y-105930888D01*
X196670847Y-105916000D01*
X196670852Y-105916000D01*
X196852000Y-105879967D01*
X196852000Y-120652000D01*
X183195440Y-120652000D01*
X183195440Y-120304000D01*
X183146157Y-120056235D01*
X183005809Y-119846191D01*
X182795765Y-119705843D01*
X182548000Y-119656560D01*
X181348000Y-119656560D01*
X181100235Y-119705843D01*
X180890191Y-119846191D01*
X180848000Y-119909334D01*
X180805809Y-119846191D01*
X180595765Y-119705843D01*
X180348000Y-119656560D01*
X179148000Y-119656560D01*
X178900235Y-119705843D01*
X178690191Y-119846191D01*
X178549843Y-120056235D01*
X178532386Y-120144000D01*
X172359560Y-120144000D01*
X172332157Y-120006235D01*
X172191809Y-119796191D01*
X171981765Y-119655843D01*
X171734000Y-119606560D01*
X171034000Y-119606560D01*
X170786235Y-119655843D01*
X170576191Y-119796191D01*
X170435843Y-120006235D01*
X170430279Y-120034209D01*
X170372327Y-119894301D01*
X170193698Y-119715673D01*
X169960309Y-119619000D01*
X169769750Y-119619000D01*
X169611000Y-119777750D01*
X169611000Y-120777000D01*
X169631000Y-120777000D01*
X169631000Y-121031000D01*
X169611000Y-121031000D01*
X169611000Y-121051000D01*
X169357000Y-121051000D01*
X169357000Y-121031000D01*
X168657750Y-121031000D01*
X168499000Y-121189750D01*
X168499000Y-121414000D01*
X153052802Y-121414000D01*
X152969440Y-121330638D01*
X152969440Y-120558000D01*
X152920157Y-120310235D01*
X152798184Y-120127690D01*
X168499000Y-120127690D01*
X168499000Y-120618250D01*
X168657750Y-120777000D01*
X169357000Y-120777000D01*
X169357000Y-119777750D01*
X169198250Y-119619000D01*
X169007691Y-119619000D01*
X168774302Y-119715673D01*
X168595673Y-119894301D01*
X168499000Y-120127690D01*
X152798184Y-120127690D01*
X152779809Y-120100191D01*
X152569765Y-119959843D01*
X152322000Y-119910560D01*
X151122000Y-119910560D01*
X150874235Y-119959843D01*
X150664191Y-120100191D01*
X150622000Y-120163334D01*
X150579809Y-120100191D01*
X150369765Y-119959843D01*
X150122000Y-119910560D01*
X148922000Y-119910560D01*
X148674235Y-119959843D01*
X148464191Y-120100191D01*
X148323843Y-120310235D01*
X148306386Y-120398000D01*
X142387560Y-120398000D01*
X142360157Y-120260235D01*
X142219809Y-120050191D01*
X142009765Y-119909843D01*
X141762000Y-119860560D01*
X141062000Y-119860560D01*
X140814235Y-119909843D01*
X140604191Y-120050191D01*
X140463843Y-120260235D01*
X140458279Y-120288209D01*
X140400327Y-120148301D01*
X140221698Y-119969673D01*
X139988309Y-119873000D01*
X139797750Y-119873000D01*
X139639000Y-120031750D01*
X139639000Y-121031000D01*
X139659000Y-121031000D01*
X139659000Y-121285000D01*
X139639000Y-121285000D01*
X139639000Y-122284250D01*
X139797750Y-122443000D01*
X139988309Y-122443000D01*
X140221698Y-122346327D01*
X140400327Y-122167699D01*
X140458279Y-122027791D01*
X140463843Y-122055765D01*
X140604191Y-122265809D01*
X140814235Y-122406157D01*
X141062000Y-122455440D01*
X141762000Y-122455440D01*
X142009765Y-122406157D01*
X142219809Y-122265809D01*
X142360157Y-122055765D01*
X142387560Y-121918000D01*
X148306386Y-121918000D01*
X148323843Y-122005765D01*
X148464191Y-122215809D01*
X148674235Y-122356157D01*
X148922000Y-122405440D01*
X150122000Y-122405440D01*
X150369765Y-122356157D01*
X150579809Y-122215809D01*
X150622000Y-122152666D01*
X150664191Y-122215809D01*
X150874235Y-122356157D01*
X151122000Y-122405440D01*
X151894638Y-122405440D01*
X152147671Y-122658473D01*
X152190071Y-122721929D01*
X152441463Y-122889904D01*
X152663148Y-122934000D01*
X152663153Y-122934000D01*
X152683262Y-122938000D01*
X133156802Y-122938000D01*
X131662552Y-121443750D01*
X138527000Y-121443750D01*
X138527000Y-121934310D01*
X138623673Y-122167699D01*
X138802302Y-122346327D01*
X139035691Y-122443000D01*
X139226250Y-122443000D01*
X139385000Y-122284250D01*
X139385000Y-121285000D01*
X138685750Y-121285000D01*
X138527000Y-121443750D01*
X131662552Y-121443750D01*
X130600492Y-120381690D01*
X138527000Y-120381690D01*
X138527000Y-120872250D01*
X138685750Y-121031000D01*
X139385000Y-121031000D01*
X139385000Y-120031750D01*
X139226250Y-119873000D01*
X139035691Y-119873000D01*
X138802302Y-119969673D01*
X138623673Y-120148301D01*
X138527000Y-120381690D01*
X130600492Y-120381690D01*
X127252000Y-117033199D01*
X127252000Y-110267750D01*
X128367000Y-110267750D01*
X128367000Y-110758310D01*
X128463673Y-110991699D01*
X128642302Y-111170327D01*
X128875691Y-111267000D01*
X129066250Y-111267000D01*
X129225000Y-111108250D01*
X129225000Y-110109000D01*
X128525750Y-110109000D01*
X128367000Y-110267750D01*
X127252000Y-110267750D01*
X127252000Y-109205690D01*
X128367000Y-109205690D01*
X128367000Y-109696250D01*
X128525750Y-109855000D01*
X129225000Y-109855000D01*
X129225000Y-108855750D01*
X129479000Y-108855750D01*
X129479000Y-109855000D01*
X129499000Y-109855000D01*
X129499000Y-110109000D01*
X129479000Y-110109000D01*
X129479000Y-111108250D01*
X129637750Y-111267000D01*
X129828309Y-111267000D01*
X130061698Y-111170327D01*
X130240327Y-110991699D01*
X130298279Y-110851791D01*
X130303843Y-110879765D01*
X130444191Y-111089809D01*
X130654235Y-111230157D01*
X130902000Y-111279440D01*
X131602000Y-111279440D01*
X131849765Y-111230157D01*
X132059809Y-111089809D01*
X132200157Y-110879765D01*
X132227560Y-110742000D01*
X190724386Y-110742000D01*
X190741843Y-110829765D01*
X190882191Y-111039809D01*
X191092235Y-111180157D01*
X191340000Y-111229440D01*
X192540000Y-111229440D01*
X192787765Y-111180157D01*
X192997809Y-111039809D01*
X193040000Y-110976666D01*
X193082191Y-111039809D01*
X193292235Y-111180157D01*
X193540000Y-111229440D01*
X194740000Y-111229440D01*
X194987765Y-111180157D01*
X195197809Y-111039809D01*
X195304612Y-110879968D01*
X195394017Y-110917000D01*
X195765983Y-110917000D01*
X196109635Y-110774655D01*
X196372655Y-110511635D01*
X196515000Y-110167983D01*
X196515000Y-109796017D01*
X196372655Y-109452365D01*
X196109635Y-109189345D01*
X195765983Y-109047000D01*
X195394017Y-109047000D01*
X195304612Y-109084032D01*
X195197809Y-108924191D01*
X194987765Y-108783843D01*
X194740000Y-108734560D01*
X193540000Y-108734560D01*
X193292235Y-108783843D01*
X193082191Y-108924191D01*
X193040000Y-108987334D01*
X192997809Y-108924191D01*
X192787765Y-108783843D01*
X192540000Y-108734560D01*
X191340000Y-108734560D01*
X191092235Y-108783843D01*
X190882191Y-108924191D01*
X190741843Y-109134235D01*
X190724386Y-109222000D01*
X132227560Y-109222000D01*
X132200157Y-109084235D01*
X132059809Y-108874191D01*
X131849765Y-108733843D01*
X131602000Y-108684560D01*
X130902000Y-108684560D01*
X130654235Y-108733843D01*
X130444191Y-108874191D01*
X130303843Y-109084235D01*
X130298279Y-109112209D01*
X130240327Y-108972301D01*
X130061698Y-108793673D01*
X129828309Y-108697000D01*
X129637750Y-108697000D01*
X129479000Y-108855750D01*
X129225000Y-108855750D01*
X129066250Y-108697000D01*
X128875691Y-108697000D01*
X128642302Y-108793673D01*
X128463673Y-108972301D01*
X128367000Y-109205690D01*
X127252000Y-109205690D01*
X127252000Y-105441750D01*
X128367000Y-105441750D01*
X128367000Y-105932310D01*
X128463673Y-106165699D01*
X128642302Y-106344327D01*
X128875691Y-106441000D01*
X129066250Y-106441000D01*
X129225000Y-106282250D01*
X129225000Y-105283000D01*
X128525750Y-105283000D01*
X128367000Y-105441750D01*
X127252000Y-105441750D01*
X127252000Y-104379690D01*
X128367000Y-104379690D01*
X128367000Y-104870250D01*
X128525750Y-105029000D01*
X129225000Y-105029000D01*
X129225000Y-104029750D01*
X129066250Y-103871000D01*
X128875691Y-103871000D01*
X128642302Y-103967673D01*
X128463673Y-104146301D01*
X128367000Y-104379690D01*
X127252000Y-104379690D01*
X127252000Y-100615750D01*
X128367000Y-100615750D01*
X128367000Y-101106310D01*
X128463673Y-101339699D01*
X128642302Y-101518327D01*
X128875691Y-101615000D01*
X129066250Y-101615000D01*
X129225000Y-101456250D01*
X129225000Y-100457000D01*
X128525750Y-100457000D01*
X128367000Y-100615750D01*
X127252000Y-100615750D01*
X127252000Y-99553690D01*
X128367000Y-99553690D01*
X128367000Y-100044250D01*
X128525750Y-100203000D01*
X129225000Y-100203000D01*
X129225000Y-99203750D01*
X129479000Y-99203750D01*
X129479000Y-100203000D01*
X129499000Y-100203000D01*
X129499000Y-100457000D01*
X129479000Y-100457000D01*
X129479000Y-101456250D01*
X129637750Y-101615000D01*
X129828309Y-101615000D01*
X130061698Y-101518327D01*
X130240327Y-101339699D01*
X130298279Y-101199791D01*
X130303843Y-101227765D01*
X130444191Y-101437809D01*
X130654235Y-101578157D01*
X130902000Y-101627440D01*
X131602000Y-101627440D01*
X131849765Y-101578157D01*
X132059809Y-101437809D01*
X132200157Y-101227765D01*
X132227560Y-101090000D01*
X190724386Y-101090000D01*
X190741843Y-101177765D01*
X190882191Y-101387809D01*
X191092235Y-101528157D01*
X191340000Y-101577440D01*
X192540000Y-101577440D01*
X192787765Y-101528157D01*
X192997809Y-101387809D01*
X193040000Y-101324666D01*
X193082191Y-101387809D01*
X193292235Y-101528157D01*
X193540000Y-101577440D01*
X193666518Y-101577440D01*
X193629000Y-101668017D01*
X193629000Y-102039983D01*
X193771345Y-102383635D01*
X194034365Y-102646655D01*
X194378017Y-102789000D01*
X194749983Y-102789000D01*
X195093635Y-102646655D01*
X195356655Y-102383635D01*
X195499000Y-102039983D01*
X195499000Y-101668017D01*
X195356655Y-101324365D01*
X195324000Y-101291710D01*
X195324000Y-101198952D01*
X195338157Y-101177765D01*
X195387440Y-100930000D01*
X195387440Y-99730000D01*
X195338157Y-99482235D01*
X195197809Y-99272191D01*
X194987765Y-99131843D01*
X194740000Y-99082560D01*
X193540000Y-99082560D01*
X193292235Y-99131843D01*
X193082191Y-99272191D01*
X193040000Y-99335334D01*
X192997809Y-99272191D01*
X192787765Y-99131843D01*
X192540000Y-99082560D01*
X191340000Y-99082560D01*
X191092235Y-99131843D01*
X190882191Y-99272191D01*
X190741843Y-99482235D01*
X190724386Y-99570000D01*
X132227560Y-99570000D01*
X132200157Y-99432235D01*
X132059809Y-99222191D01*
X131849765Y-99081843D01*
X131602000Y-99032560D01*
X130902000Y-99032560D01*
X130654235Y-99081843D01*
X130444191Y-99222191D01*
X130303843Y-99432235D01*
X130298279Y-99460209D01*
X130240327Y-99320301D01*
X130061698Y-99141673D01*
X129828309Y-99045000D01*
X129637750Y-99045000D01*
X129479000Y-99203750D01*
X129225000Y-99203750D01*
X129066250Y-99045000D01*
X128875691Y-99045000D01*
X128642302Y-99141673D01*
X128463673Y-99320301D01*
X128367000Y-99553690D01*
X127252000Y-99553690D01*
X127252000Y-86180847D01*
X127266888Y-86106000D01*
X127252000Y-86031153D01*
X127252000Y-86031148D01*
X127207904Y-85809463D01*
X127039929Y-85558071D01*
X126976473Y-85515671D01*
X125050331Y-83589530D01*
X125007929Y-83526071D01*
X124756537Y-83358096D01*
X124534852Y-83314000D01*
X124534847Y-83314000D01*
X124460000Y-83299112D01*
X124385153Y-83314000D01*
X122234802Y-83314000D01*
X121664000Y-82743199D01*
X121664000Y-75242670D01*
X121731635Y-75214655D01*
X121922000Y-75024290D01*
X121922001Y-80951148D01*
X121922001Y-80951148D01*
G37*
X121922001Y-80951148D02*
X121907112Y-81026000D01*
X121966097Y-81322537D01*
X122080713Y-81494071D01*
X122134072Y-81573929D01*
X122197528Y-81616329D01*
X122345669Y-81764470D01*
X122388071Y-81827929D01*
X122639463Y-81995904D01*
X122861148Y-82040000D01*
X122861152Y-82040000D01*
X122935999Y-82054888D01*
X123010846Y-82040000D01*
X123717980Y-82040000D01*
X123725398Y-82077294D01*
X123918584Y-82366416D01*
X124207706Y-82559602D01*
X124548750Y-82627440D01*
X125036250Y-82627440D01*
X125191880Y-82596483D01*
X125245530Y-82632331D01*
X125901670Y-83288472D01*
X125944071Y-83351929D01*
X126007527Y-83394329D01*
X126195462Y-83519904D01*
X126243605Y-83529480D01*
X126417148Y-83564000D01*
X126417152Y-83564000D01*
X126492000Y-83578888D01*
X126566848Y-83564000D01*
X140655199Y-83564000D01*
X145205671Y-88114473D01*
X145248071Y-88177929D01*
X145311527Y-88220329D01*
X145499462Y-88345904D01*
X145547605Y-88355480D01*
X145721148Y-88390000D01*
X145721152Y-88390000D01*
X145796000Y-88404888D01*
X145870848Y-88390000D01*
X182063710Y-88390000D01*
X182096365Y-88422655D01*
X182440017Y-88565000D01*
X182811983Y-88565000D01*
X183155635Y-88422655D01*
X183418655Y-88159635D01*
X183547580Y-87848381D01*
X185676000Y-89976802D01*
X185676001Y-95215143D01*
X185661111Y-95290000D01*
X185720096Y-95586537D01*
X185888071Y-95837929D01*
X186139463Y-96005904D01*
X186361148Y-96050000D01*
X186436000Y-96064889D01*
X186510852Y-96050000D01*
X187834875Y-96050000D01*
X187885148Y-96060000D01*
X187960000Y-96074889D01*
X188034852Y-96060000D01*
X188255199Y-96060000D01*
X188565000Y-96369802D01*
X188565000Y-96415983D01*
X188707345Y-96759635D01*
X188970365Y-97022655D01*
X189314017Y-97165000D01*
X189685983Y-97165000D01*
X190029635Y-97022655D01*
X190292655Y-96759635D01*
X190435000Y-96415983D01*
X190435000Y-96044017D01*
X190292655Y-95700365D01*
X190029635Y-95437345D01*
X189685983Y-95295000D01*
X189639802Y-95295000D01*
X189160331Y-94815530D01*
X189117929Y-94752071D01*
X188866537Y-94584096D01*
X188720000Y-94554948D01*
X188720000Y-90738801D01*
X190306802Y-89152000D01*
X191223212Y-89152000D01*
X191089000Y-89476017D01*
X191089000Y-89847983D01*
X191231345Y-90191635D01*
X191359000Y-90319290D01*
X191359001Y-91365148D01*
X191359001Y-92178560D01*
X191344000Y-92178560D01*
X191096235Y-92227843D01*
X190886191Y-92368191D01*
X190745843Y-92578235D01*
X190696560Y-92826000D01*
X190696560Y-94626000D01*
X190745843Y-94873765D01*
X190886191Y-95083809D01*
X191096235Y-95224157D01*
X191344000Y-95273440D01*
X192894000Y-95273440D01*
X193141765Y-95224157D01*
X193293047Y-95123073D01*
X193334302Y-95164327D01*
X193567691Y-95261000D01*
X194183250Y-95261000D01*
X194342000Y-95102250D01*
X194342000Y-93853000D01*
X194596000Y-93853000D01*
X194596000Y-95102250D01*
X194754750Y-95261000D01*
X195370309Y-95261000D01*
X195603698Y-95164327D01*
X195782327Y-94985699D01*
X195879000Y-94752310D01*
X195879000Y-94011750D01*
X195720250Y-93853000D01*
X194596000Y-93853000D01*
X194342000Y-93853000D01*
X194322000Y-93853000D01*
X194322000Y-93599000D01*
X194342000Y-93599000D01*
X194342000Y-92349750D01*
X194596000Y-92349750D01*
X194596000Y-93599000D01*
X195720250Y-93599000D01*
X195879000Y-93440250D01*
X195879000Y-92699690D01*
X195782327Y-92466301D01*
X195603698Y-92287673D01*
X195370309Y-92191000D01*
X194754750Y-92191000D01*
X194596000Y-92349750D01*
X194342000Y-92349750D01*
X194183250Y-92191000D01*
X193567691Y-92191000D01*
X193334302Y-92287673D01*
X193293047Y-92328927D01*
X193141765Y-92227843D01*
X192894000Y-92178560D01*
X192879000Y-92178560D01*
X192879000Y-90041121D01*
X192959000Y-89847983D01*
X192959000Y-89476017D01*
X192816655Y-89132365D01*
X192553635Y-88869345D01*
X192242381Y-88740420D01*
X193016473Y-87966329D01*
X193079929Y-87923929D01*
X193247904Y-87672537D01*
X193292000Y-87450852D01*
X193292000Y-87450847D01*
X193306888Y-87376000D01*
X193292000Y-87301153D01*
X193292000Y-87107440D01*
X193607000Y-87107440D01*
X193732000Y-87082576D01*
X193857000Y-87107440D01*
X194407000Y-87107440D01*
X194532000Y-87082576D01*
X194657000Y-87107440D01*
X195207000Y-87107440D01*
X195310852Y-87086783D01*
X195330690Y-87095000D01*
X195446250Y-87095000D01*
X195540138Y-87001112D01*
X195664809Y-86917809D01*
X195732000Y-86817251D01*
X195747001Y-86839701D01*
X195747000Y-87607000D01*
X195355290Y-87607000D01*
X195347635Y-87599345D01*
X195003983Y-87457000D01*
X194632017Y-87457000D01*
X194288365Y-87599345D01*
X194025345Y-87862365D01*
X193883000Y-88206017D01*
X193883000Y-88577983D01*
X194025345Y-88921635D01*
X194288365Y-89184655D01*
X194632017Y-89327000D01*
X195003983Y-89327000D01*
X195347635Y-89184655D01*
X195355290Y-89177000D01*
X196264688Y-89177000D01*
X196342000Y-89192378D01*
X196344001Y-89191980D01*
X196344000Y-104333198D01*
X196281198Y-104396000D01*
X195355614Y-104396000D01*
X195338157Y-104308235D01*
X195197809Y-104098191D01*
X194987765Y-103957843D01*
X194740000Y-103908560D01*
X193540000Y-103908560D01*
X193292235Y-103957843D01*
X193082191Y-104098191D01*
X193040000Y-104161334D01*
X192997809Y-104098191D01*
X192787765Y-103957843D01*
X192540000Y-103908560D01*
X191340000Y-103908560D01*
X191092235Y-103957843D01*
X190882191Y-104098191D01*
X190741843Y-104308235D01*
X190724386Y-104396000D01*
X132227560Y-104396000D01*
X132200157Y-104258235D01*
X132059809Y-104048191D01*
X131849765Y-103907843D01*
X131602000Y-103858560D01*
X130902000Y-103858560D01*
X130654235Y-103907843D01*
X130444191Y-104048191D01*
X130303843Y-104258235D01*
X130298279Y-104286209D01*
X130240327Y-104146301D01*
X130061698Y-103967673D01*
X129828309Y-103871000D01*
X129637750Y-103871000D01*
X129479000Y-104029750D01*
X129479000Y-105029000D01*
X129499000Y-105029000D01*
X129499000Y-105283000D01*
X129479000Y-105283000D01*
X129479000Y-106282250D01*
X129637750Y-106441000D01*
X129828309Y-106441000D01*
X130061698Y-106344327D01*
X130240327Y-106165699D01*
X130298279Y-106025791D01*
X130303843Y-106053765D01*
X130444191Y-106263809D01*
X130654235Y-106404157D01*
X130902000Y-106453440D01*
X131602000Y-106453440D01*
X131849765Y-106404157D01*
X132059809Y-106263809D01*
X132200157Y-106053765D01*
X132227560Y-105916000D01*
X190724386Y-105916000D01*
X190741843Y-106003765D01*
X190882191Y-106213809D01*
X191092235Y-106354157D01*
X191340000Y-106403440D01*
X192540000Y-106403440D01*
X192787765Y-106354157D01*
X192997809Y-106213809D01*
X193040000Y-106150666D01*
X193082191Y-106213809D01*
X193292235Y-106354157D01*
X193540000Y-106403440D01*
X194740000Y-106403440D01*
X194987765Y-106354157D01*
X195197809Y-106213809D01*
X195338157Y-106003765D01*
X195355614Y-105916000D01*
X196521153Y-105916000D01*
X196596000Y-105930888D01*
X196670847Y-105916000D01*
X196670852Y-105916000D01*
X196852000Y-105879967D01*
X196852000Y-120652000D01*
X183195440Y-120652000D01*
X183195440Y-120304000D01*
X183146157Y-120056235D01*
X183005809Y-119846191D01*
X182795765Y-119705843D01*
X182548000Y-119656560D01*
X181348000Y-119656560D01*
X181100235Y-119705843D01*
X180890191Y-119846191D01*
X180848000Y-119909334D01*
X180805809Y-119846191D01*
X180595765Y-119705843D01*
X180348000Y-119656560D01*
X179148000Y-119656560D01*
X178900235Y-119705843D01*
X178690191Y-119846191D01*
X178549843Y-120056235D01*
X178532386Y-120144000D01*
X172359560Y-120144000D01*
X172332157Y-120006235D01*
X172191809Y-119796191D01*
X171981765Y-119655843D01*
X171734000Y-119606560D01*
X171034000Y-119606560D01*
X170786235Y-119655843D01*
X170576191Y-119796191D01*
X170435843Y-120006235D01*
X170430279Y-120034209D01*
X170372327Y-119894301D01*
X170193698Y-119715673D01*
X169960309Y-119619000D01*
X169769750Y-119619000D01*
X169611000Y-119777750D01*
X169611000Y-120777000D01*
X169631000Y-120777000D01*
X169631000Y-121031000D01*
X169611000Y-121031000D01*
X169611000Y-121051000D01*
X169357000Y-121051000D01*
X169357000Y-121031000D01*
X168657750Y-121031000D01*
X168499000Y-121189750D01*
X168499000Y-121414000D01*
X153052802Y-121414000D01*
X152969440Y-121330638D01*
X152969440Y-120558000D01*
X152920157Y-120310235D01*
X152798184Y-120127690D01*
X168499000Y-120127690D01*
X168499000Y-120618250D01*
X168657750Y-120777000D01*
X169357000Y-120777000D01*
X169357000Y-119777750D01*
X169198250Y-119619000D01*
X169007691Y-119619000D01*
X168774302Y-119715673D01*
X168595673Y-119894301D01*
X168499000Y-120127690D01*
X152798184Y-120127690D01*
X152779809Y-120100191D01*
X152569765Y-119959843D01*
X152322000Y-119910560D01*
X151122000Y-119910560D01*
X150874235Y-119959843D01*
X150664191Y-120100191D01*
X150622000Y-120163334D01*
X150579809Y-120100191D01*
X150369765Y-119959843D01*
X150122000Y-119910560D01*
X148922000Y-119910560D01*
X148674235Y-119959843D01*
X148464191Y-120100191D01*
X148323843Y-120310235D01*
X148306386Y-120398000D01*
X142387560Y-120398000D01*
X142360157Y-120260235D01*
X142219809Y-120050191D01*
X142009765Y-119909843D01*
X141762000Y-119860560D01*
X141062000Y-119860560D01*
X140814235Y-119909843D01*
X140604191Y-120050191D01*
X140463843Y-120260235D01*
X140458279Y-120288209D01*
X140400327Y-120148301D01*
X140221698Y-119969673D01*
X139988309Y-119873000D01*
X139797750Y-119873000D01*
X139639000Y-120031750D01*
X139639000Y-121031000D01*
X139659000Y-121031000D01*
X139659000Y-121285000D01*
X139639000Y-121285000D01*
X139639000Y-122284250D01*
X139797750Y-122443000D01*
X139988309Y-122443000D01*
X140221698Y-122346327D01*
X140400327Y-122167699D01*
X140458279Y-122027791D01*
X140463843Y-122055765D01*
X140604191Y-122265809D01*
X140814235Y-122406157D01*
X141062000Y-122455440D01*
X141762000Y-122455440D01*
X142009765Y-122406157D01*
X142219809Y-122265809D01*
X142360157Y-122055765D01*
X142387560Y-121918000D01*
X148306386Y-121918000D01*
X148323843Y-122005765D01*
X148464191Y-122215809D01*
X148674235Y-122356157D01*
X148922000Y-122405440D01*
X150122000Y-122405440D01*
X150369765Y-122356157D01*
X150579809Y-122215809D01*
X150622000Y-122152666D01*
X150664191Y-122215809D01*
X150874235Y-122356157D01*
X151122000Y-122405440D01*
X151894638Y-122405440D01*
X152147671Y-122658473D01*
X152190071Y-122721929D01*
X152441463Y-122889904D01*
X152663148Y-122934000D01*
X152663153Y-122934000D01*
X152683262Y-122938000D01*
X133156802Y-122938000D01*
X131662552Y-121443750D01*
X138527000Y-121443750D01*
X138527000Y-121934310D01*
X138623673Y-122167699D01*
X138802302Y-122346327D01*
X139035691Y-122443000D01*
X139226250Y-122443000D01*
X139385000Y-122284250D01*
X139385000Y-121285000D01*
X138685750Y-121285000D01*
X138527000Y-121443750D01*
X131662552Y-121443750D01*
X130600492Y-120381690D01*
X138527000Y-120381690D01*
X138527000Y-120872250D01*
X138685750Y-121031000D01*
X139385000Y-121031000D01*
X139385000Y-120031750D01*
X139226250Y-119873000D01*
X139035691Y-119873000D01*
X138802302Y-119969673D01*
X138623673Y-120148301D01*
X138527000Y-120381690D01*
X130600492Y-120381690D01*
X127252000Y-117033199D01*
X127252000Y-110267750D01*
X128367000Y-110267750D01*
X128367000Y-110758310D01*
X128463673Y-110991699D01*
X128642302Y-111170327D01*
X128875691Y-111267000D01*
X129066250Y-111267000D01*
X129225000Y-111108250D01*
X129225000Y-110109000D01*
X128525750Y-110109000D01*
X128367000Y-110267750D01*
X127252000Y-110267750D01*
X127252000Y-109205690D01*
X128367000Y-109205690D01*
X128367000Y-109696250D01*
X128525750Y-109855000D01*
X129225000Y-109855000D01*
X129225000Y-108855750D01*
X129479000Y-108855750D01*
X129479000Y-109855000D01*
X129499000Y-109855000D01*
X129499000Y-110109000D01*
X129479000Y-110109000D01*
X129479000Y-111108250D01*
X129637750Y-111267000D01*
X129828309Y-111267000D01*
X130061698Y-111170327D01*
X130240327Y-110991699D01*
X130298279Y-110851791D01*
X130303843Y-110879765D01*
X130444191Y-111089809D01*
X130654235Y-111230157D01*
X130902000Y-111279440D01*
X131602000Y-111279440D01*
X131849765Y-111230157D01*
X132059809Y-111089809D01*
X132200157Y-110879765D01*
X132227560Y-110742000D01*
X190724386Y-110742000D01*
X190741843Y-110829765D01*
X190882191Y-111039809D01*
X191092235Y-111180157D01*
X191340000Y-111229440D01*
X192540000Y-111229440D01*
X192787765Y-111180157D01*
X192997809Y-111039809D01*
X193040000Y-110976666D01*
X193082191Y-111039809D01*
X193292235Y-111180157D01*
X193540000Y-111229440D01*
X194740000Y-111229440D01*
X194987765Y-111180157D01*
X195197809Y-111039809D01*
X195304612Y-110879968D01*
X195394017Y-110917000D01*
X195765983Y-110917000D01*
X196109635Y-110774655D01*
X196372655Y-110511635D01*
X196515000Y-110167983D01*
X196515000Y-109796017D01*
X196372655Y-109452365D01*
X196109635Y-109189345D01*
X195765983Y-109047000D01*
X195394017Y-109047000D01*
X195304612Y-109084032D01*
X195197809Y-108924191D01*
X194987765Y-108783843D01*
X194740000Y-108734560D01*
X193540000Y-108734560D01*
X193292235Y-108783843D01*
X193082191Y-108924191D01*
X193040000Y-108987334D01*
X192997809Y-108924191D01*
X192787765Y-108783843D01*
X192540000Y-108734560D01*
X191340000Y-108734560D01*
X191092235Y-108783843D01*
X190882191Y-108924191D01*
X190741843Y-109134235D01*
X190724386Y-109222000D01*
X132227560Y-109222000D01*
X132200157Y-109084235D01*
X132059809Y-108874191D01*
X131849765Y-108733843D01*
X131602000Y-108684560D01*
X130902000Y-108684560D01*
X130654235Y-108733843D01*
X130444191Y-108874191D01*
X130303843Y-109084235D01*
X130298279Y-109112209D01*
X130240327Y-108972301D01*
X130061698Y-108793673D01*
X129828309Y-108697000D01*
X129637750Y-108697000D01*
X129479000Y-108855750D01*
X129225000Y-108855750D01*
X129066250Y-108697000D01*
X128875691Y-108697000D01*
X128642302Y-108793673D01*
X128463673Y-108972301D01*
X128367000Y-109205690D01*
X127252000Y-109205690D01*
X127252000Y-105441750D01*
X128367000Y-105441750D01*
X128367000Y-105932310D01*
X128463673Y-106165699D01*
X128642302Y-106344327D01*
X128875691Y-106441000D01*
X129066250Y-106441000D01*
X129225000Y-106282250D01*
X129225000Y-105283000D01*
X128525750Y-105283000D01*
X128367000Y-105441750D01*
X127252000Y-105441750D01*
X127252000Y-104379690D01*
X128367000Y-104379690D01*
X128367000Y-104870250D01*
X128525750Y-105029000D01*
X129225000Y-105029000D01*
X129225000Y-104029750D01*
X129066250Y-103871000D01*
X128875691Y-103871000D01*
X128642302Y-103967673D01*
X128463673Y-104146301D01*
X128367000Y-104379690D01*
X127252000Y-104379690D01*
X127252000Y-100615750D01*
X128367000Y-100615750D01*
X128367000Y-101106310D01*
X128463673Y-101339699D01*
X128642302Y-101518327D01*
X128875691Y-101615000D01*
X129066250Y-101615000D01*
X129225000Y-101456250D01*
X129225000Y-100457000D01*
X128525750Y-100457000D01*
X128367000Y-100615750D01*
X127252000Y-100615750D01*
X127252000Y-99553690D01*
X128367000Y-99553690D01*
X128367000Y-100044250D01*
X128525750Y-100203000D01*
X129225000Y-100203000D01*
X129225000Y-99203750D01*
X129479000Y-99203750D01*
X129479000Y-100203000D01*
X129499000Y-100203000D01*
X129499000Y-100457000D01*
X129479000Y-100457000D01*
X129479000Y-101456250D01*
X129637750Y-101615000D01*
X129828309Y-101615000D01*
X130061698Y-101518327D01*
X130240327Y-101339699D01*
X130298279Y-101199791D01*
X130303843Y-101227765D01*
X130444191Y-101437809D01*
X130654235Y-101578157D01*
X130902000Y-101627440D01*
X131602000Y-101627440D01*
X131849765Y-101578157D01*
X132059809Y-101437809D01*
X132200157Y-101227765D01*
X132227560Y-101090000D01*
X190724386Y-101090000D01*
X190741843Y-101177765D01*
X190882191Y-101387809D01*
X191092235Y-101528157D01*
X191340000Y-101577440D01*
X192540000Y-101577440D01*
X192787765Y-101528157D01*
X192997809Y-101387809D01*
X193040000Y-101324666D01*
X193082191Y-101387809D01*
X193292235Y-101528157D01*
X193540000Y-101577440D01*
X193666518Y-101577440D01*
X193629000Y-101668017D01*
X193629000Y-102039983D01*
X193771345Y-102383635D01*
X194034365Y-102646655D01*
X194378017Y-102789000D01*
X194749983Y-102789000D01*
X195093635Y-102646655D01*
X195356655Y-102383635D01*
X195499000Y-102039983D01*
X195499000Y-101668017D01*
X195356655Y-101324365D01*
X195324000Y-101291710D01*
X195324000Y-101198952D01*
X195338157Y-101177765D01*
X195387440Y-100930000D01*
X195387440Y-99730000D01*
X195338157Y-99482235D01*
X195197809Y-99272191D01*
X194987765Y-99131843D01*
X194740000Y-99082560D01*
X193540000Y-99082560D01*
X193292235Y-99131843D01*
X193082191Y-99272191D01*
X193040000Y-99335334D01*
X192997809Y-99272191D01*
X192787765Y-99131843D01*
X192540000Y-99082560D01*
X191340000Y-99082560D01*
X191092235Y-99131843D01*
X190882191Y-99272191D01*
X190741843Y-99482235D01*
X190724386Y-99570000D01*
X132227560Y-99570000D01*
X132200157Y-99432235D01*
X132059809Y-99222191D01*
X131849765Y-99081843D01*
X131602000Y-99032560D01*
X130902000Y-99032560D01*
X130654235Y-99081843D01*
X130444191Y-99222191D01*
X130303843Y-99432235D01*
X130298279Y-99460209D01*
X130240327Y-99320301D01*
X130061698Y-99141673D01*
X129828309Y-99045000D01*
X129637750Y-99045000D01*
X129479000Y-99203750D01*
X129225000Y-99203750D01*
X129066250Y-99045000D01*
X128875691Y-99045000D01*
X128642302Y-99141673D01*
X128463673Y-99320301D01*
X128367000Y-99553690D01*
X127252000Y-99553690D01*
X127252000Y-86180847D01*
X127266888Y-86106000D01*
X127252000Y-86031153D01*
X127252000Y-86031148D01*
X127207904Y-85809463D01*
X127039929Y-85558071D01*
X126976473Y-85515671D01*
X125050331Y-83589530D01*
X125007929Y-83526071D01*
X124756537Y-83358096D01*
X124534852Y-83314000D01*
X124534847Y-83314000D01*
X124460000Y-83299112D01*
X124385153Y-83314000D01*
X122234802Y-83314000D01*
X121664000Y-82743199D01*
X121664000Y-75242670D01*
X121731635Y-75214655D01*
X121922000Y-75024290D01*
X121922001Y-80951148D01*
G36*
X198517750Y-84920000D02*
X198630000Y-84920000D01*
X198630001Y-90109197D01*
X198372000Y-90367198D01*
X198372000Y-84885676D01*
X198386888Y-84810828D01*
X198381502Y-84783752D01*
X198517750Y-84920000D01*
X198517750Y-84920000D01*
G37*
X198517750Y-84920000D02*
X198630000Y-84920000D01*
X198630001Y-90109197D01*
X198372000Y-90367198D01*
X198372000Y-84885676D01*
X198386888Y-84810828D01*
X198381502Y-84783752D01*
X198517750Y-84920000D01*
G36*
X187609560Y-86460000D02*
X187648689Y-86656718D01*
X187533000Y-86936017D01*
X187533000Y-87307983D01*
X187675345Y-87651635D01*
X187938365Y-87914655D01*
X188282017Y-88057000D01*
X188490198Y-88057000D01*
X187156853Y-89390345D01*
X187151904Y-89365463D01*
X187151904Y-89365462D01*
X187026329Y-89177527D01*
X186983929Y-89114071D01*
X186920473Y-89071671D01*
X184460801Y-86612000D01*
X186615153Y-86612000D01*
X186690000Y-86626888D01*
X186764847Y-86612000D01*
X186764852Y-86612000D01*
X186986537Y-86567904D01*
X187237929Y-86399929D01*
X187280331Y-86336470D01*
X187609560Y-86007242D01*
X187609560Y-86460000D01*
X187609560Y-86460000D01*
G37*
X187609560Y-86460000D02*
X187648689Y-86656718D01*
X187533000Y-86936017D01*
X187533000Y-87307983D01*
X187675345Y-87651635D01*
X187938365Y-87914655D01*
X188282017Y-88057000D01*
X188490198Y-88057000D01*
X187156853Y-89390345D01*
X187151904Y-89365463D01*
X187151904Y-89365462D01*
X187026329Y-89177527D01*
X186983929Y-89114071D01*
X186920473Y-89071671D01*
X184460801Y-86612000D01*
X186615153Y-86612000D01*
X186690000Y-86626888D01*
X186764847Y-86612000D01*
X186764852Y-86612000D01*
X186986537Y-86567904D01*
X187237929Y-86399929D01*
X187280331Y-86336470D01*
X187609560Y-86007242D01*
X187609560Y-86460000D01*
G36*
X178987671Y-83034473D02*
X179030071Y-83097929D01*
X179093527Y-83140329D01*
X179281462Y-83265904D01*
X179329605Y-83275480D01*
X179503148Y-83310000D01*
X179503152Y-83310000D01*
X179578000Y-83324888D01*
X179652848Y-83310000D01*
X179729000Y-83310000D01*
X179729000Y-83534250D01*
X179887750Y-83693000D01*
X180737000Y-83693000D01*
X180737000Y-83673000D01*
X180991000Y-83673000D01*
X180991000Y-83693000D01*
X181011000Y-83693000D01*
X181011000Y-83947000D01*
X180991000Y-83947000D01*
X180991000Y-84921250D01*
X181149750Y-85080000D01*
X181490309Y-85080000D01*
X181723698Y-84983327D01*
X181865346Y-84841680D01*
X181906191Y-84902809D01*
X182116235Y-85043157D01*
X182134212Y-85046733D01*
X182148097Y-85116537D01*
X182269283Y-85297904D01*
X182316072Y-85367929D01*
X182379527Y-85410329D01*
X183077198Y-86108000D01*
X146110803Y-86108000D01*
X144108552Y-84105750D01*
X179729000Y-84105750D01*
X179729000Y-84571310D01*
X179825673Y-84804699D01*
X180004302Y-84983327D01*
X180237691Y-85080000D01*
X180578250Y-85080000D01*
X180737000Y-84921250D01*
X180737000Y-83947000D01*
X179887750Y-83947000D01*
X179729000Y-84105750D01*
X144108552Y-84105750D01*
X142550801Y-82548000D01*
X178501199Y-82548000D01*
X178987671Y-83034473D01*
X178987671Y-83034473D01*
G37*
X178987671Y-83034473D02*
X179030071Y-83097929D01*
X179093527Y-83140329D01*
X179281462Y-83265904D01*
X179329605Y-83275480D01*
X179503148Y-83310000D01*
X179503152Y-83310000D01*
X179578000Y-83324888D01*
X179652848Y-83310000D01*
X179729000Y-83310000D01*
X179729000Y-83534250D01*
X179887750Y-83693000D01*
X180737000Y-83693000D01*
X180737000Y-83673000D01*
X180991000Y-83673000D01*
X180991000Y-83693000D01*
X181011000Y-83693000D01*
X181011000Y-83947000D01*
X180991000Y-83947000D01*
X180991000Y-84921250D01*
X181149750Y-85080000D01*
X181490309Y-85080000D01*
X181723698Y-84983327D01*
X181865346Y-84841680D01*
X181906191Y-84902809D01*
X182116235Y-85043157D01*
X182134212Y-85046733D01*
X182148097Y-85116537D01*
X182269283Y-85297904D01*
X182316072Y-85367929D01*
X182379527Y-85410329D01*
X183077198Y-86108000D01*
X146110803Y-86108000D01*
X144108552Y-84105750D01*
X179729000Y-84105750D01*
X179729000Y-84571310D01*
X179825673Y-84804699D01*
X180004302Y-84983327D01*
X180237691Y-85080000D01*
X180578250Y-85080000D01*
X180737000Y-84921250D01*
X180737000Y-83947000D01*
X179887750Y-83947000D01*
X179729000Y-84105750D01*
X144108552Y-84105750D01*
X142550801Y-82548000D01*
X178501199Y-82548000D01*
X178987671Y-83034473D01*
G36*
X192092017Y-79929000D02*
X192463983Y-79929000D01*
X192604264Y-79870894D01*
X192724300Y-79951099D01*
X192743463Y-79963903D01*
X193039999Y-80022888D01*
X193040000Y-80022888D01*
X193305885Y-79970000D01*
X196834560Y-79970000D01*
X196834560Y-80050000D01*
X195870846Y-80050000D01*
X195795999Y-80035112D01*
X195721152Y-80050000D01*
X195721148Y-80050000D01*
X195499463Y-80094096D01*
X195248071Y-80262071D01*
X195205669Y-80325530D01*
X195095528Y-80435671D01*
X195032072Y-80478071D01*
X194989672Y-80541527D01*
X194989671Y-80541528D01*
X194864097Y-80729463D01*
X194805112Y-81026000D01*
X194820001Y-81100851D01*
X194820000Y-82221153D01*
X194805112Y-82296000D01*
X194820000Y-82370847D01*
X194820000Y-82370851D01*
X194864096Y-82592536D01*
X195032071Y-82843929D01*
X195074000Y-82871945D01*
X195074001Y-83999149D01*
X195059112Y-84074000D01*
X195106565Y-84312560D01*
X194657000Y-84312560D01*
X194532000Y-84337424D01*
X194407000Y-84312560D01*
X193857000Y-84312560D01*
X193732000Y-84337424D01*
X193607000Y-84312560D01*
X193057000Y-84312560D01*
X192932000Y-84337424D01*
X192807000Y-84312560D01*
X192257000Y-84312560D01*
X192132000Y-84337424D01*
X192007000Y-84312560D01*
X191457000Y-84312560D01*
X191332000Y-84337424D01*
X191207000Y-84312560D01*
X190875970Y-84312560D01*
X190873561Y-84300451D01*
X190966801Y-84281904D01*
X191218193Y-84113929D01*
X191260595Y-84050470D01*
X191492470Y-83818595D01*
X191555929Y-83776193D01*
X191669696Y-83605929D01*
X191723904Y-83524802D01*
X191736382Y-83462071D01*
X191768000Y-83303116D01*
X191768000Y-83303112D01*
X191782888Y-83228264D01*
X191768000Y-83153416D01*
X191768000Y-79794788D01*
X192092017Y-79929000D01*
X192092017Y-79929000D01*
G37*
X192092017Y-79929000D02*
X192463983Y-79929000D01*
X192604264Y-79870894D01*
X192724300Y-79951099D01*
X192743463Y-79963903D01*
X193039999Y-80022888D01*
X193040000Y-80022888D01*
X193305885Y-79970000D01*
X196834560Y-79970000D01*
X196834560Y-80050000D01*
X195870846Y-80050000D01*
X195795999Y-80035112D01*
X195721152Y-80050000D01*
X195721148Y-80050000D01*
X195499463Y-80094096D01*
X195248071Y-80262071D01*
X195205669Y-80325530D01*
X195095528Y-80435671D01*
X195032072Y-80478071D01*
X194989672Y-80541527D01*
X194989671Y-80541528D01*
X194864097Y-80729463D01*
X194805112Y-81026000D01*
X194820001Y-81100851D01*
X194820000Y-82221153D01*
X194805112Y-82296000D01*
X194820000Y-82370847D01*
X194820000Y-82370851D01*
X194864096Y-82592536D01*
X195032071Y-82843929D01*
X195074000Y-82871945D01*
X195074001Y-83999149D01*
X195059112Y-84074000D01*
X195106565Y-84312560D01*
X194657000Y-84312560D01*
X194532000Y-84337424D01*
X194407000Y-84312560D01*
X193857000Y-84312560D01*
X193732000Y-84337424D01*
X193607000Y-84312560D01*
X193057000Y-84312560D01*
X192932000Y-84337424D01*
X192807000Y-84312560D01*
X192257000Y-84312560D01*
X192132000Y-84337424D01*
X192007000Y-84312560D01*
X191457000Y-84312560D01*
X191332000Y-84337424D01*
X191207000Y-84312560D01*
X190875970Y-84312560D01*
X190873561Y-84300451D01*
X190966801Y-84281904D01*
X191218193Y-84113929D01*
X191260595Y-84050470D01*
X191492470Y-83818595D01*
X191555929Y-83776193D01*
X191669696Y-83605929D01*
X191723904Y-83524802D01*
X191736382Y-83462071D01*
X191768000Y-83303116D01*
X191768000Y-83303112D01*
X191782888Y-83228264D01*
X191768000Y-83153416D01*
X191768000Y-79794788D01*
X192092017Y-79929000D01*
G36*
X198379000Y-84137000D02*
X198359000Y-84137000D01*
X198359000Y-84157000D01*
X198105000Y-84157000D01*
X198105000Y-84137000D01*
X198085000Y-84137000D01*
X198085000Y-84132440D01*
X198379000Y-84132440D01*
X198379000Y-84137000D01*
X198379000Y-84137000D01*
G37*
X198379000Y-84137000D02*
X198359000Y-84137000D01*
X198359000Y-84157000D01*
X198105000Y-84157000D01*
X198105000Y-84137000D01*
X198085000Y-84137000D01*
X198085000Y-84132440D01*
X198379000Y-84132440D01*
X198379000Y-84137000D01*
G36*
X185434560Y-80285000D02*
X185455217Y-80388852D01*
X185447000Y-80408690D01*
X185447000Y-80524250D01*
X185540888Y-80618138D01*
X185624191Y-80742809D01*
X185724749Y-80810000D01*
X185624191Y-80877191D01*
X185594818Y-80921150D01*
X185516757Y-80936678D01*
X184575078Y-79995000D01*
X185434560Y-79995000D01*
X185434560Y-80285000D01*
X185434560Y-80285000D01*
G37*
X185434560Y-80285000D02*
X185455217Y-80388852D01*
X185447000Y-80408690D01*
X185447000Y-80524250D01*
X185540888Y-80618138D01*
X185624191Y-80742809D01*
X185724749Y-80810000D01*
X185624191Y-80877191D01*
X185594818Y-80921150D01*
X185516757Y-80936678D01*
X184575078Y-79995000D01*
X185434560Y-79995000D01*
X185434560Y-80285000D01*
G36*
X199900000Y-75752802D02*
X199900001Y-79603200D01*
X199822331Y-79525530D01*
X199779929Y-79462071D01*
X199629440Y-79361517D01*
X199629440Y-78935000D01*
X199604576Y-78810000D01*
X199629440Y-78685000D01*
X199629440Y-78135000D01*
X199604576Y-78010000D01*
X199629440Y-77885000D01*
X199629440Y-77335000D01*
X199604576Y-77210000D01*
X199629440Y-77085000D01*
X199629440Y-76535000D01*
X199608783Y-76431148D01*
X199617000Y-76411310D01*
X199617000Y-76295750D01*
X199523112Y-76201862D01*
X199439809Y-76077191D01*
X199229765Y-75936843D01*
X198982000Y-75887560D01*
X198085000Y-75887560D01*
X198085000Y-75883000D01*
X198105000Y-75883000D01*
X198105000Y-75863000D01*
X198359000Y-75863000D01*
X198359000Y-75883000D01*
X199458250Y-75883000D01*
X199617000Y-75724250D01*
X199617000Y-75608690D01*
X199545469Y-75436000D01*
X199583199Y-75436000D01*
X199900000Y-75752802D01*
X199900000Y-75752802D01*
G37*
X199900000Y-75752802D02*
X199900001Y-79603200D01*
X199822331Y-79525530D01*
X199779929Y-79462071D01*
X199629440Y-79361517D01*
X199629440Y-78935000D01*
X199604576Y-78810000D01*
X199629440Y-78685000D01*
X199629440Y-78135000D01*
X199604576Y-78010000D01*
X199629440Y-77885000D01*
X199629440Y-77335000D01*
X199604576Y-77210000D01*
X199629440Y-77085000D01*
X199629440Y-76535000D01*
X199608783Y-76431148D01*
X199617000Y-76411310D01*
X199617000Y-76295750D01*
X199523112Y-76201862D01*
X199439809Y-76077191D01*
X199229765Y-75936843D01*
X198982000Y-75887560D01*
X198085000Y-75887560D01*
X198085000Y-75883000D01*
X198105000Y-75883000D01*
X198105000Y-75863000D01*
X198359000Y-75863000D01*
X198359000Y-75883000D01*
X199458250Y-75883000D01*
X199617000Y-75724250D01*
X199617000Y-75608690D01*
X199545469Y-75436000D01*
X199583199Y-75436000D01*
X199900000Y-75752802D01*
G36*
X167652047Y-76581953D02*
X167717592Y-76625749D01*
X169062251Y-77970408D01*
X169106047Y-78035953D01*
X169365708Y-78209454D01*
X169594684Y-78255000D01*
X169594688Y-78255000D01*
X169672000Y-78270378D01*
X169749312Y-78255000D01*
X172648843Y-78255000D01*
X172872253Y-78478410D01*
X172916047Y-78543953D01*
X172981589Y-78587747D01*
X172981591Y-78587749D01*
X173065847Y-78644047D01*
X173175708Y-78717454D01*
X173404684Y-78763000D01*
X173404688Y-78763000D01*
X173481999Y-78778378D01*
X173559310Y-78763000D01*
X173971304Y-78763000D01*
X173968585Y-78765297D01*
X173964751Y-78766638D01*
X173955796Y-78771921D01*
X173946081Y-78775629D01*
X173942651Y-78777784D01*
X173932171Y-78779869D01*
X173855693Y-78830970D01*
X173776473Y-78877701D01*
X173770047Y-78886239D01*
X173766615Y-78888396D01*
X173759062Y-78895537D01*
X173750416Y-78901314D01*
X173747549Y-78904181D01*
X173737798Y-78908544D01*
X173674608Y-78975381D01*
X173607771Y-79038571D01*
X173603408Y-79048322D01*
X173600541Y-79051189D01*
X173594764Y-79059835D01*
X173587623Y-79067388D01*
X173585466Y-79070820D01*
X173576928Y-79077246D01*
X173530197Y-79156466D01*
X173479096Y-79232944D01*
X173477012Y-79243424D01*
X173474856Y-79246854D01*
X173471148Y-79256569D01*
X173465865Y-79265524D01*
X173464524Y-79269358D01*
X173457627Y-79277525D01*
X173449189Y-79304000D01*
X163465647Y-79304000D01*
X162940100Y-78778454D01*
X162940100Y-78385660D01*
X162981982Y-78322980D01*
X163155100Y-78322980D01*
X163258952Y-78302323D01*
X163278790Y-78310540D01*
X163346350Y-78310540D01*
X163378308Y-78278582D01*
X163402865Y-78273697D01*
X163612909Y-78133349D01*
X163705100Y-77995376D01*
X163705100Y-78151790D01*
X163863850Y-78310540D01*
X163931410Y-78310540D01*
X164164799Y-78213867D01*
X164186627Y-78192039D01*
X164531006Y-78260540D01*
X165079194Y-78260540D01*
X165446727Y-78187433D01*
X165863509Y-77908949D01*
X166141993Y-77492167D01*
X166239784Y-77000540D01*
X166141993Y-76508913D01*
X166120669Y-76477000D01*
X167581919Y-76477000D01*
X167652047Y-76581953D01*
X167652047Y-76581953D01*
G37*
X167652047Y-76581953D02*
X167717592Y-76625749D01*
X169062251Y-77970408D01*
X169106047Y-78035953D01*
X169365708Y-78209454D01*
X169594684Y-78255000D01*
X169594688Y-78255000D01*
X169672000Y-78270378D01*
X169749312Y-78255000D01*
X172648843Y-78255000D01*
X172872253Y-78478410D01*
X172916047Y-78543953D01*
X172981589Y-78587747D01*
X172981591Y-78587749D01*
X173065847Y-78644047D01*
X173175708Y-78717454D01*
X173404684Y-78763000D01*
X173404688Y-78763000D01*
X173481999Y-78778378D01*
X173559310Y-78763000D01*
X173971304Y-78763000D01*
X173968585Y-78765297D01*
X173964751Y-78766638D01*
X173955796Y-78771921D01*
X173946081Y-78775629D01*
X173942651Y-78777784D01*
X173932171Y-78779869D01*
X173855693Y-78830970D01*
X173776473Y-78877701D01*
X173770047Y-78886239D01*
X173766615Y-78888396D01*
X173759062Y-78895537D01*
X173750416Y-78901314D01*
X173747549Y-78904181D01*
X173737798Y-78908544D01*
X173674608Y-78975381D01*
X173607771Y-79038571D01*
X173603408Y-79048322D01*
X173600541Y-79051189D01*
X173594764Y-79059835D01*
X173587623Y-79067388D01*
X173585466Y-79070820D01*
X173576928Y-79077246D01*
X173530197Y-79156466D01*
X173479096Y-79232944D01*
X173477012Y-79243424D01*
X173474856Y-79246854D01*
X173471148Y-79256569D01*
X173465865Y-79265524D01*
X173464524Y-79269358D01*
X173457627Y-79277525D01*
X173449189Y-79304000D01*
X163465647Y-79304000D01*
X162940100Y-78778454D01*
X162940100Y-78385660D01*
X162981982Y-78322980D01*
X163155100Y-78322980D01*
X163258952Y-78302323D01*
X163278790Y-78310540D01*
X163346350Y-78310540D01*
X163378308Y-78278582D01*
X163402865Y-78273697D01*
X163612909Y-78133349D01*
X163705100Y-77995376D01*
X163705100Y-78151790D01*
X163863850Y-78310540D01*
X163931410Y-78310540D01*
X164164799Y-78213867D01*
X164186627Y-78192039D01*
X164531006Y-78260540D01*
X165079194Y-78260540D01*
X165446727Y-78187433D01*
X165863509Y-77908949D01*
X166141993Y-77492167D01*
X166239784Y-77000540D01*
X166141993Y-76508913D01*
X166120669Y-76477000D01*
X167581919Y-76477000D01*
X167652047Y-76581953D01*
G36*
X143263590Y-72288253D02*
X143198048Y-72332047D01*
X143154254Y-72397589D01*
X143154251Y-72397592D01*
X143024546Y-72591709D01*
X142963622Y-72898000D01*
X142979001Y-72975317D01*
X142979000Y-75874842D01*
X142930843Y-75923000D01*
X142668554Y-75923000D01*
X142610086Y-75781847D01*
X142548956Y-75720717D01*
X142583698Y-75706327D01*
X142762327Y-75527699D01*
X142859000Y-75294310D01*
X142859000Y-74453750D01*
X142700250Y-74295000D01*
X141351000Y-74295000D01*
X141351000Y-74315000D01*
X141097000Y-74315000D01*
X141097000Y-74295000D01*
X139747750Y-74295000D01*
X139589000Y-74453750D01*
X139589000Y-75294310D01*
X139685673Y-75527699D01*
X139864302Y-75706327D01*
X139899044Y-75720717D01*
X139837914Y-75781847D01*
X139779446Y-75923000D01*
X136681791Y-75923000D01*
X136660157Y-75814235D01*
X136519809Y-75604191D01*
X136309765Y-75463843D01*
X136132342Y-75428552D01*
X136214765Y-75412157D01*
X136424809Y-75271809D01*
X136565157Y-75061765D01*
X136614440Y-74814000D01*
X136614440Y-73041690D01*
X139589000Y-73041690D01*
X139589000Y-73882250D01*
X139747750Y-74041000D01*
X141097000Y-74041000D01*
X141097000Y-72691750D01*
X141351000Y-72691750D01*
X141351000Y-74041000D01*
X142700250Y-74041000D01*
X142859000Y-73882250D01*
X142859000Y-73041690D01*
X142762327Y-72808301D01*
X142583698Y-72629673D01*
X142350309Y-72533000D01*
X141509750Y-72533000D01*
X141351000Y-72691750D01*
X141097000Y-72691750D01*
X140938250Y-72533000D01*
X140097691Y-72533000D01*
X139864302Y-72629673D01*
X139685673Y-72808301D01*
X139589000Y-73041690D01*
X136614440Y-73041690D01*
X136614440Y-73014000D01*
X136565157Y-72766235D01*
X136424809Y-72556191D01*
X136214765Y-72415843D01*
X135967000Y-72366560D01*
X134417000Y-72366560D01*
X134169235Y-72415843D01*
X134017953Y-72516927D01*
X133976698Y-72475673D01*
X133743309Y-72379000D01*
X133127750Y-72379000D01*
X132969000Y-72537750D01*
X132969000Y-73787000D01*
X132989000Y-73787000D01*
X132989000Y-74041000D01*
X132969000Y-74041000D01*
X132969000Y-75290250D01*
X133127750Y-75449000D01*
X133200750Y-75449000D01*
X133064000Y-75585750D01*
X133064000Y-76835000D01*
X133084000Y-76835000D01*
X133084000Y-77089000D01*
X133064000Y-77089000D01*
X133064000Y-77109000D01*
X132810000Y-77109000D01*
X132810000Y-77089000D01*
X131685750Y-77089000D01*
X131527000Y-77247750D01*
X131527000Y-77988310D01*
X131623673Y-78221699D01*
X131802302Y-78400327D01*
X131960081Y-78465681D01*
X131906206Y-78476398D01*
X131888842Y-78488000D01*
X131626290Y-78488000D01*
X131593635Y-78455345D01*
X131249983Y-78313000D01*
X130878017Y-78313000D01*
X130808000Y-78342002D01*
X130808000Y-74199750D01*
X131432000Y-74199750D01*
X131432000Y-74940310D01*
X131528673Y-75173699D01*
X131707302Y-75352327D01*
X131940691Y-75449000D01*
X131982578Y-75449000D01*
X131802302Y-75523673D01*
X131623673Y-75702301D01*
X131527000Y-75935690D01*
X131527000Y-76676250D01*
X131685750Y-76835000D01*
X132810000Y-76835000D01*
X132810000Y-75585750D01*
X132651250Y-75427000D01*
X132578250Y-75427000D01*
X132715000Y-75290250D01*
X132715000Y-74041000D01*
X131590750Y-74041000D01*
X131432000Y-74199750D01*
X130808000Y-74199750D01*
X130808000Y-72887690D01*
X131432000Y-72887690D01*
X131432000Y-73628250D01*
X131590750Y-73787000D01*
X132715000Y-73787000D01*
X132715000Y-72537750D01*
X132556250Y-72379000D01*
X131940691Y-72379000D01*
X131707302Y-72475673D01*
X131528673Y-72654301D01*
X131432000Y-72887690D01*
X130808000Y-72887690D01*
X130808000Y-72718846D01*
X130822888Y-72643999D01*
X130808000Y-72569152D01*
X130808000Y-72569148D01*
X130763904Y-72347463D01*
X130595929Y-72096071D01*
X130532470Y-72053669D01*
X130387801Y-71909000D01*
X143642842Y-71909000D01*
X143263590Y-72288253D01*
X143263590Y-72288253D01*
G37*
X143263590Y-72288253D02*
X143198048Y-72332047D01*
X143154254Y-72397589D01*
X143154251Y-72397592D01*
X143024546Y-72591709D01*
X142963622Y-72898000D01*
X142979001Y-72975317D01*
X142979000Y-75874842D01*
X142930843Y-75923000D01*
X142668554Y-75923000D01*
X142610086Y-75781847D01*
X142548956Y-75720717D01*
X142583698Y-75706327D01*
X142762327Y-75527699D01*
X142859000Y-75294310D01*
X142859000Y-74453750D01*
X142700250Y-74295000D01*
X141351000Y-74295000D01*
X141351000Y-74315000D01*
X141097000Y-74315000D01*
X141097000Y-74295000D01*
X139747750Y-74295000D01*
X139589000Y-74453750D01*
X139589000Y-75294310D01*
X139685673Y-75527699D01*
X139864302Y-75706327D01*
X139899044Y-75720717D01*
X139837914Y-75781847D01*
X139779446Y-75923000D01*
X136681791Y-75923000D01*
X136660157Y-75814235D01*
X136519809Y-75604191D01*
X136309765Y-75463843D01*
X136132342Y-75428552D01*
X136214765Y-75412157D01*
X136424809Y-75271809D01*
X136565157Y-75061765D01*
X136614440Y-74814000D01*
X136614440Y-73041690D01*
X139589000Y-73041690D01*
X139589000Y-73882250D01*
X139747750Y-74041000D01*
X141097000Y-74041000D01*
X141097000Y-72691750D01*
X141351000Y-72691750D01*
X141351000Y-74041000D01*
X142700250Y-74041000D01*
X142859000Y-73882250D01*
X142859000Y-73041690D01*
X142762327Y-72808301D01*
X142583698Y-72629673D01*
X142350309Y-72533000D01*
X141509750Y-72533000D01*
X141351000Y-72691750D01*
X141097000Y-72691750D01*
X140938250Y-72533000D01*
X140097691Y-72533000D01*
X139864302Y-72629673D01*
X139685673Y-72808301D01*
X139589000Y-73041690D01*
X136614440Y-73041690D01*
X136614440Y-73014000D01*
X136565157Y-72766235D01*
X136424809Y-72556191D01*
X136214765Y-72415843D01*
X135967000Y-72366560D01*
X134417000Y-72366560D01*
X134169235Y-72415843D01*
X134017953Y-72516927D01*
X133976698Y-72475673D01*
X133743309Y-72379000D01*
X133127750Y-72379000D01*
X132969000Y-72537750D01*
X132969000Y-73787000D01*
X132989000Y-73787000D01*
X132989000Y-74041000D01*
X132969000Y-74041000D01*
X132969000Y-75290250D01*
X133127750Y-75449000D01*
X133200750Y-75449000D01*
X133064000Y-75585750D01*
X133064000Y-76835000D01*
X133084000Y-76835000D01*
X133084000Y-77089000D01*
X133064000Y-77089000D01*
X133064000Y-77109000D01*
X132810000Y-77109000D01*
X132810000Y-77089000D01*
X131685750Y-77089000D01*
X131527000Y-77247750D01*
X131527000Y-77988310D01*
X131623673Y-78221699D01*
X131802302Y-78400327D01*
X131960081Y-78465681D01*
X131906206Y-78476398D01*
X131888842Y-78488000D01*
X131626290Y-78488000D01*
X131593635Y-78455345D01*
X131249983Y-78313000D01*
X130878017Y-78313000D01*
X130808000Y-78342002D01*
X130808000Y-74199750D01*
X131432000Y-74199750D01*
X131432000Y-74940310D01*
X131528673Y-75173699D01*
X131707302Y-75352327D01*
X131940691Y-75449000D01*
X131982578Y-75449000D01*
X131802302Y-75523673D01*
X131623673Y-75702301D01*
X131527000Y-75935690D01*
X131527000Y-76676250D01*
X131685750Y-76835000D01*
X132810000Y-76835000D01*
X132810000Y-75585750D01*
X132651250Y-75427000D01*
X132578250Y-75427000D01*
X132715000Y-75290250D01*
X132715000Y-74041000D01*
X131590750Y-74041000D01*
X131432000Y-74199750D01*
X130808000Y-74199750D01*
X130808000Y-72887690D01*
X131432000Y-72887690D01*
X131432000Y-73628250D01*
X131590750Y-73787000D01*
X132715000Y-73787000D01*
X132715000Y-72537750D01*
X132556250Y-72379000D01*
X131940691Y-72379000D01*
X131707302Y-72475673D01*
X131528673Y-72654301D01*
X131432000Y-72887690D01*
X130808000Y-72887690D01*
X130808000Y-72718846D01*
X130822888Y-72643999D01*
X130808000Y-72569152D01*
X130808000Y-72569148D01*
X130763904Y-72347463D01*
X130595929Y-72096071D01*
X130532470Y-72053669D01*
X130387801Y-71909000D01*
X143642842Y-71909000D01*
X143263590Y-72288253D01*
G36*
X191123862Y-75601112D02*
X191217750Y-75695000D01*
X191333310Y-75695000D01*
X191353148Y-75686783D01*
X191457000Y-75707440D01*
X191967709Y-75707440D01*
X191984072Y-75731929D01*
X192047528Y-75774329D01*
X192195669Y-75922470D01*
X192238071Y-75985929D01*
X192296545Y-76025000D01*
X191435157Y-76025000D01*
X191059002Y-75648845D01*
X191059002Y-75557774D01*
X191123862Y-75601112D01*
X191123862Y-75601112D01*
G37*
X191123862Y-75601112D02*
X191217750Y-75695000D01*
X191333310Y-75695000D01*
X191353148Y-75686783D01*
X191457000Y-75707440D01*
X191967709Y-75707440D01*
X191984072Y-75731929D01*
X192047528Y-75774329D01*
X192195669Y-75922470D01*
X192238071Y-75985929D01*
X192296545Y-76025000D01*
X191435157Y-76025000D01*
X191059002Y-75648845D01*
X191059002Y-75557774D01*
X191123862Y-75601112D01*
G36*
X164169185Y-72500013D02*
X164114655Y-72368365D01*
X163851635Y-72105345D01*
X163507983Y-71963000D01*
X163136017Y-71963000D01*
X162792365Y-72105345D01*
X162529345Y-72368365D01*
X162387000Y-72712017D01*
X162387000Y-72741000D01*
X161869158Y-72741000D01*
X161037157Y-71909000D01*
X164760198Y-71909000D01*
X164169185Y-72500013D01*
X164169185Y-72500013D01*
G37*
X164169185Y-72500013D02*
X164114655Y-72368365D01*
X163851635Y-72105345D01*
X163507983Y-71963000D01*
X163136017Y-71963000D01*
X162792365Y-72105345D01*
X162529345Y-72368365D01*
X162387000Y-72712017D01*
X162387000Y-72741000D01*
X161869158Y-72741000D01*
X161037157Y-71909000D01*
X164760198Y-71909000D01*
X164169185Y-72500013D01*
G04 #@! TD*
M02*
